<svg width="1920" height="1000" viewBox="0 0 1920 1000" fill="none" xmlns="http://www.w3.org/2000/svg">
<g clip-path="url(#clip0_2381_6000)">
<path d="M1919 0H-2V663H1919V0Z" fill="url(#paint0_linear_2381_6000)"/>
<path opacity="0.19" d="M1027.43 523.34C1027.09 543.3 575.87 535.04 19.2502 525.46C12.8002 525.35 6.3702 525.24 -0.0498047 525.12V452.82C6.7802 452.94 13.6302 453.05 20.4902 453.17C577.11 462.75 1027.78 503.38 1027.43 523.34Z" fill="white"/>
<path d="M560.78 628.44C560.78 628.44 940.08 602.5 1444.28 600.34C1948.48 598.18 1353.94 663.05 1353.94 663.05L560.78 628.44Z" fill="url(#paint1_linear_2381_6000)"/>
<path d="M1918.97 620.15H-1.0293V999.97H1918.97V620.15Z" fill="url(#paint2_linear_2381_6000)"/>
<path d="M367.411 620.34C367.411 620.34 872.761 710.8 918.171 798.79L-1.5293 805.1L-1.4893 620.33H367.411V620.34Z" fill="url(#paint3_linear_2381_6000)"/>
<path opacity="0.19" d="M1308.2 220.081C1307.11 250.101 603.54 221.811 45.6802 201.641C30.3502 201.091 15.1102 200.521 -0.0498047 199.931V91.2109C16.4002 91.7609 32.9602 92.3409 49.6102 92.9409C607.47 113.111 1309.28 190.071 1308.2 220.081Z" fill="white"/>
<path opacity="0.19" d="M628.81 416.202C628.76 423.122 368.73 422.772 -0.0498047 420.452V389.852C368.8 397.092 628.86 409.282 628.81 416.202Z" fill="white"/>
<path d="M1918.59 821.641H-1.40918V1000H1918.59V821.641Z" fill="#C7B2AF"/>
<path d="M1918.59 799.421V825.311L1284.38 820.531L-1.41016 821.641V805.301L222.24 804.601L231.88 810.981V798.641L551.56 803.621L555.06 803.571H560.78L778.33 802.921H781.79L783.97 802.881H787.43L1000.16 802.221H1009.47L1223.93 798.641L1226.94 801.521H1236.16L1663.2 800.201H1666.65L1669.04 800.161H1669.91L1918.21 799.421H1918.59Z" fill="#FED7AC"/>
<path d="M4.83031 821.819L1.35031 821.639H1.28031L-2.19969 821.459L-4.92969 804.779L-1.44969 804.949L0.920313 805.059L4.40031 805.229L4.83031 821.819Z" fill="#FF9484"/>
<path d="M231.938 804.539L231.727 821.809L228.072 821.709H227.987L224.332 821.579L222.24 804.539H231.938Z" fill="#FF9484"/>
<path d="M560.781 803.57L560.531 821.81L557.071 821.71H556.991L553.531 821.57L551.561 803.6L555.061 803.57H560.781Z" fill="#FF9484"/>
<path d="M787.431 802.879L787.061 824.039L784.241 823.929V824.039L780.741 823.899H780.661L778.971 802.899L781.151 802.879H787.431Z" fill="#FF9484"/>
<path d="M1009.24 821.82L1005.76 821.64H1005.68L1002.2 821.46L999.62 802L1005.47 802.27V802.28L1008.95 802.45L1009.24 821.82Z" fill="#FF9484"/>
<path d="M1236.16 801.52L1235.75 824.039L1232.25 823.89V823.919L1228.71 823.78L1226.94 801.52H1236.16Z" fill="#FF9484"/>
<path d="M844.23 620.18L1944 780.5L1589.5 801L732.69 620.18H844.23Z" fill="url(#paint4_linear_2381_6000)"/>
<path d="M1271.32 820.529L-1.40918 821.639L18.4708 830.189L732.691 832.719L1271.32 831.409V820.529Z" fill="#B69C9D"/>
</g>
<g clip-path="url(#clip1_2381_6000)">
<path d="M95.6104 354.469L138.09 336.129L196.16 375.389V619.949H92.4004L95.6104 354.469Z" fill="#7CD8BE"/>
<path d="M512.69 349.239L536.16 337.139L594.08 355.239L592.81 447.469L617.51 449.869V406.849L647.57 397.349L710.96 411.369V546.449L738.94 547.749L736.8 502.589L764.58 492.649L790.22 499.899L792.39 536.599H806.61V466.819L851.5 462.069L863.55 475.739V535.419H880.93V559.779H896.19V496.409L917.38 486.569L916.21 440.609L964.84 411.369L993.44 421.659V474.309H1017.03V344.039L1047.13 327.729L1066.68 333.459V400.709H1081.14V246.839L1145.93 219.159L1184.35 227.519V375.389H1214.62V463.429H1227.7V313.139L1263.49 299.319V174.219L1280.76 166.029V94.3594H1725.5V621.919H516.43L512.69 349.239Z" fill="#7CD8BE"/>
<path d="M195.111 425.849L229.841 412.539L277.321 441.039V618.609H192.491L195.111 425.849Z" fill="#7CD8BE"/>
<path d="M94 497.366L92.4957 620L-1 618.82V499.932L47.7752 468L94 497.366Z" fill="#7CD8BE"/>
<path d="M454.62 428.849L489.36 415.539L536.83 444.039V621.609H452L454.62 428.849Z" fill="#7CD8BE"/>
<path d="M279.239 366.512L322.23 349L381 386.487V620H276L279.239 366.512Z" fill="#7CD8BE"/>
</g>
<g clip-path="url(#clip2_2381_6000)">
<path d="M675.281 641.771C675.211 642.801 662.451 642.461 656.631 642.071C650.811 641.681 646.161 640.341 646.191 639.901C646.261 638.871 651.031 638.351 656.851 638.741C662.671 639.121 675.341 640.741 675.281 641.771Z" fill="#6C943A"/>
<path d="M1271.58 504.895C1271.58 504.895 1261.57 508.155 1260.79 513.705C1260.01 519.255 1263.09 531.755 1263.09 531.755C1263.09 531.755 1257.16 529.025 1253.8 532.205C1250.43 535.385 1247.33 539.065 1248.12 551.335C1248.12 551.335 1233.16 540.155 1228.73 547.255C1224.3 554.355 1233.37 564.195 1233.37 564.195C1233.37 564.195 1215 550.955 1206.65 558.765C1198.3 566.575 1201.27 585.615 1201.27 585.615C1201.27 585.615 1194.98 551.545 1183.29 554.875C1171.6 558.205 1169.54 569.125 1169.54 569.125C1169.54 569.125 1164.27 544.045 1153.28 543.905C1142.29 543.765 1132.25 555.945 1132.25 555.945C1132.25 555.945 1126.87 546.835 1120.09 550.075C1113.32 553.315 1115.24 562.545 1115.24 562.545C1115.24 562.545 1079.89 536.065 1065.5 560.635C1065.5 560.635 1051.37 551.625 1045.7 562.935C1040.03 574.245 1053.05 587.815 1053.05 587.815C1053.05 587.815 1023.62 576.715 1020.48 590.315C1017.34 603.915 1024.57 606.405 1024.57 606.405C1024.57 606.405 1007.61 603.535 1004.55 608.345C1001.48 613.155 999.711 616.235 999.711 616.235C999.711 616.235 985.511 610.795 983.461 615.735C981.411 620.665 983.941 622.405 983.941 622.405L1271.56 622.755V504.895H1271.58Z" fill="url(#paint5_radial_2381_6000)"/>
<path d="M1171.42 634.759C1175.03 634.759 1177.96 633.944 1177.96 632.939C1177.96 631.934 1175.03 631.119 1171.42 631.119C1167.81 631.119 1164.88 631.934 1164.88 632.939C1164.88 633.944 1167.81 634.759 1171.42 634.759Z" fill="#6C943A"/>
<path d="M1195.49 611.211C1192.59 612.071 1186.61 613.851 1183.67 614.721C1183.7 614.051 1183.79 612.421 1183.82 611.771C1183.69 611.751 1183.56 611.741 1183.43 611.721C1183.2 612.521 1182.72 614.161 1182.49 614.971L1179.26 616.471C1178.2 615.611 1176.07 613.871 1175.01 613.011C1175.74 613.971 1177.27 615.971 1178 616.941L1169.97 619.701L1168.66 614.231L1167 614.201L1168.31 619.781C1166.43 619.141 1159.02 616.401 1157.13 616.501L1167.61 621.121C1167.61 624.541 1167.61 628.881 1167.61 632.301H1171.7C1171.38 628.981 1170.92 624.281 1170.6 620.961C1176.47 618.651 1189.8 613.441 1195.49 611.211Z" fill="#6B4B31"/>
<path d="M1194.36 566.82C1186.6 553.65 1161.73 537.61 1163.19 564.66C1155.7 549.38 1141.06 562.27 1144.71 574.93C1137.49 560.52 1129.76 572.12 1134.21 581.58C1123.69 582.61 1116.97 593.71 1129.23 601.61C1132.34 603.53 1142.55 606.06 1136.11 598.64C1144.19 604.38 1147.85 602.57 1144.93 593.09C1149.53 600.72 1156.4 595.65 1156.58 587.4C1154.32 595.72 1168.13 596.9 1169.97 593.09C1167.41 605.59 1180.91 608.79 1183.36 598.37C1189.98 602.37 1194.56 597.07 1190.76 590.75C1195.9 595.4 1199.92 590 1198.95 585.04C1203.65 595.65 1216.42 595.69 1224.09 592.55C1224.6 586.99 1216.59 582.21 1213.38 581.31C1222.47 565.77 1204.02 563.37 1195.53 568.53C1195.53 568.53 1195.11 567.88 1194.36 566.82Z" fill="#DEB300"/>
<path d="M1206.96 593.101C1200.84 589.771 1198.95 585.051 1198.95 585.051C1199.92 590.051 1195.87 595.391 1190.76 590.761C1194.57 597.121 1189.95 602.371 1183.36 598.381C1180.93 608.791 1167.41 605.621 1169.97 593.101C1168.58 596.621 1155.07 595.941 1156.48 588.321C1155.99 596.571 1148.92 600.061 1144.93 593.101C1147.86 602.631 1144.15 604.361 1136.11 598.651C1142.56 606.061 1132.34 603.541 1129.23 601.621C1132.04 606.001 1141.47 607.631 1144.29 606.801C1146.7 618.131 1171.66 621.201 1176.63 609.861C1187.8 614.801 1206.86 612.451 1205.19 595.891C1210.3 598.401 1220.97 598.251 1224.09 592.571C1224.09 592.561 1213.09 596.421 1206.96 593.101Z" fill="#A58500"/>
<path d="M384.57 680.101C388.64 679.641 394.27 679.341 400.5 679.331C405.89 677.301 411.95 674.661 409.77 673.691C406.05 672.041 398.09 676.191 398.09 676.191C398.09 676.191 415.75 658.041 411.05 656.831C406.35 655.631 395.29 668.991 395.29 668.991C395.29 668.991 394.98 654.791 390.8 654.801C386.62 654.811 388 667.941 388 667.941C388 667.941 382.03 660.461 378.81 661.421C375.59 662.381 382.86 672.731 382.86 672.731C382.86 672.731 372.02 670.341 368.71 671.881C366.37 672.971 377.71 677.521 384.57 680.101Z" fill="#7C6600"/>
<path d="M389.49 681.9C389.49 681.9 387.41 681.17 384.57 680.1C380.51 680.56 378 681.2 378 681.9C378 683.32 388.24 684.47 400.88 684.47C413.52 684.47 423.76 683.32 423.76 681.9C423.76 680.48 413.52 679.33 400.88 679.33C400.75 679.33 400.63 679.33 400.5 679.33C396.68 680.77 393.18 681.9 393.18 681.9H389.49Z" fill="#6C943A"/>
<path d="M389.49 681.9H393.18C393.18 681.9 396.68 680.77 400.5 679.33C394.26 679.34 388.64 679.63 384.57 680.1C387.41 681.17 389.49 681.9 389.49 681.9Z" fill="#7C6600"/>
<path d="M756.13 694.121C774.747 694.121 789.84 692.016 789.84 689.421C789.84 686.825 774.747 684.721 756.13 684.721C737.512 684.721 722.42 686.825 722.42 689.421C722.42 692.016 737.512 694.121 756.13 694.121Z" fill="#6C943A"/>
<path d="M750.651 686.621L748.661 687.641L746.531 688.731L746.211 687.661L745.331 684.721C744.801 684.741 744.271 684.761 743.731 684.781L744.791 687.681L745.171 688.731L743.491 687.691L739.021 684.921C738.551 684.931 738.071 684.941 737.601 684.951L739.651 686.631L732.931 685.041C731.891 685.051 730.871 685.071 729.851 685.071L737.431 687.771L744.351 690.231H746.511L751.641 687.611L752.091 687.381C751.641 687.151 751.151 686.891 750.651 686.621Z" fill="#62432D"/>
<path d="M739.451 638.311C743.181 640.941 745.671 648.111 746.571 651.501C747.541 630.561 768.391 633.161 759.761 655.041C761.781 652.691 770.521 646.651 774.511 651.201C778.971 655.541 767.521 668.221 766.591 669.151C766.981 668.971 777.541 664.291 780.541 670.981C782.051 674.351 779.001 677.471 775.511 679.771C772.691 679.391 769.651 679.911 769.651 679.911C775.581 669.521 769.511 664.301 765.871 675.381C768.921 654.391 756.501 647.441 758.731 673.201C758.731 673.201 752.491 661.561 747.691 662.681C745.121 663.281 747.151 667.991 749.581 672.251C740.651 678.291 732.291 678.801 730.831 666.981C730.831 666.981 729.961 672.931 724.671 674.231V675.731C717.391 678.021 714.391 671.331 714.221 670.931C715.471 673.731 713.001 680.551 707.841 682.241C705.141 678.721 712.731 673.221 712.731 673.221C696.281 672.321 691.931 660.911 711.461 656.351C698.311 640.571 715.431 634.981 729.201 643.221C729.211 643.231 733.201 633.921 739.451 638.311Z" fill="#DEB300"/>
<path d="M721.331 685C713.141 684.55 711.861 685.42 707.841 682.24C713.231 680.42 715.411 673.55 714.221 670.91C719.151 679.41 729.091 673.2 730.831 666.99C732.301 678.85 740.691 678.26 749.581 672.26C750.971 674.62 752.131 677.16 754.111 679.29C751.571 676.68 728.091 673.41 747.141 684.66C738.181 684.97 730.671 685.22 721.331 685Z" fill="#A58500"/>
<path d="M753.5 678.42C753.87 678.95 754.11 679.29 754.11 679.29C746.03 674.73 728.65 675.37 750.66 686.62C756.09 689.68 756.89 689.91 762.12 689.66C764.72 689.25 790.17 683.03 775.52 679.76C772.7 679.39 769.65 679.9 769.65 679.9C775.58 669.52 769.52 664.28 765.87 675.37C768.92 654.38 756.5 647.43 758.73 673.19C750.47 657.69 739.32 659.14 753.5 678.42Z" fill="#7C6600"/>
<path d="M689.13 590.54L671 596.55L670.28 588.72L668.75 589.17C668.8 590.81 668.92 595.14 668.97 596.72L661.16 599.6L649.89 584.97L649.32 585.26L658.8 601.78C658.57 605.63 657.75 619.08 657.53 622.69C658.61 624.57 658.28 634.05 658.28 634.05C658.28 634.05 659.92 630.36 661.68 627.57C661.97 621.24 662.57 608.26 662.87 601.78C667.13 600.35 688.45 593.22 693.16 591.64L720.01 588.87C719.76 588.49 719.55 588.09 719.36 587.67L693.5 590.15C693.5 590.15 705.69 579.92 705.75 579.51L690.86 589.65L692.01 582.07C691.28 581.58 691.06 580.97 690.35 580.71C690.41 581.33 690.46 582.27 690.38 583.25L690.48 583.34L689.13 590.54Z" fill="#6B4B31"/>
<path d="M728.23 560.34C730.55 560.13 727.75 556.06 727.66 555.09C740.89 555.05 753.26 562.37 734.38 571.54C746.96 574.31 736.19 586.59 729.05 585.53C732.77 597.38 713.37 595.62 715.73 585.34C708.67 586.99 707.06 580.13 707.06 580.13C699.58 582.97 693.41 585.47 690.271 579.99C691.961 585.9 670.39 584.13 669.79 571.71C670.02 578.81 661.71 582.42 655.81 580.96C654.9 587.38 642.01 586.22 640.14 581.75C627.4 591.01 622.93 580.3 632.64 571.71C635.86 574.68 647.41 575.68 646.86 567.41C648.05 574.04 659.86 573.42 661.16 567.41C662.4 571.54 670.12 571.93 671.3 567.41C679.49 573.57 678.78 561.43 676.93 556.58C676.99 560.98 686.46 564.43 688.08 561.31C686.36 565.32 688.601 576.64 695.211 567.65C696.951 570.74 695.861 572.27 700.711 572.75L707.75 562.85C713.01 563.17 723.25 562.11 728.23 560.34Z" fill="#71AC2F"/>
<path d="M661.571 590.25C662.581 590.83 664.101 590.2 664.101 590.2C663.671 592.73 665.931 591.84 666.021 590.01C665.581 592.33 668.481 592.4 669.031 590.69C668.591 592.36 670.551 591.86 670.861 591.07C670.861 591.07 670.911 591.96 671.851 591.79C672.721 591.61 672.031 589.51 671.901 589.12C672.561 590.65 673.901 589.17 673.461 588.25C676.561 589.47 678.501 584.85 673.441 586.73C673.551 581.38 668.841 583.32 668.741 586.39C669.001 582.95 664.391 581.92 664.421 585.75C662.351 585.56 664.021 587.59 664.421 587.83C663.431 587.84 661.641 588.12 660.761 588.85C660.741 588.89 660.581 589.68 661.571 590.25Z" fill="#81C436"/>
<path d="M666.17 594.53C667.32 594.31 667.51 593.49 667.41 592.7C670.24 595.9 676.96 593.87 674.36 590C675.91 589.88 679.38 587.99 676.29 586.43C677.81 587.65 673.671 589.1 673.451 588.25C673.871 589.12 672.62 590.63 671.91 589.18C672.03 589.55 672.701 591.64 671.841 591.79C670.901 591.96 670.85 591.07 670.85 591.07C670.54 591.86 668.581 592.35 669.021 590.69C668.471 592.39 665.591 592.34 666.011 590.04C665.901 591.88 663.661 592.71 664.091 590.21C663.511 590.73 660.38 590.56 660.74 588.86C658.92 589.72 661.201 591.59 662.381 592.04C661.941 593.75 664.6 594.86 666.17 594.53Z" fill="#71AC2F"/>
<path d="M657.1 622.36C655.56 621.91 654.41 636.3 654.41 636.3C651.49 615.57 647.48 621.24 653.58 638.29C653.87 639.11 654.57 639.72 655.43 639.92C656.26 640.11 657.24 640.32 657.73 640.37C659.01 640.49 662.29 640.36 663.73 640.29C664.19 640.27 664.62 640.11 664.99 639.84C668.16 637.48 677.85 629.99 676.11 629.71C674.26 629.15 666.27 635.7 666.27 635.7C667.78 633.99 667.67 633.42 665.43 633.29C667.62 615.59 660.46 629.11 658.28 634.05C658.1 633.95 659.38 623.02 657.1 622.36Z" fill="#71AC2F"/>
<path d="M650.54 639.359H652.14C650.81 636.789 643.68 623.379 647.01 633.639C647.01 633.639 640.72 630.419 640.55 631.349C640.17 633.489 646.4 637.769 646.4 637.769C646.4 637.769 640.67 636.369 641 637.469C641.68 639.809 649.64 639.369 650.54 639.359Z" fill="#71AC2F"/>
<path d="M695.21 569.02C694.55 578.92 710.57 573.11 707.88 567.01C709.77 567.54 726.22 570.62 727.45 563.75C727.61 562.86 726.82 561.33 726.82 561.33C726.82 561.33 731.02 562.55 731.56 559.14C732.54 552.9 729.77 552.31 730.3 552.03C730.63 551.86 736.41 549.48 736.78 546.47C737.16 543.36 732.1 539.65 729.69 542.83C741.09 527.39 711.82 530.14 709.34 533.95C706.53 518.09 687.23 533.36 687.97 538.85C687.97 538.85 685.77 536.4 680.78 537C675.79 537.6 675.39 542.5 675.39 542.5C675.39 542.5 677.09 518.33 667.5 516.54C657.91 514.75 655.61 533.95 655.61 533.95C655.61 533.95 646.48 518.29 634.41 523.9C628.86 526.48 641.43 538.85 641.43 538.85C637.48 536.69 619.2 542.19 637.84 548.59C631.76 546.5 618.05 556.52 629.57 563.17C629.57 563.17 623.17 565.97 624.21 570.56C625.25 575.15 632.64 573.09 632.64 573.09C634.81 576.27 648.54 575.98 646.85 568.79C646.85 568.79 647.91 573.24 653.37 573.79C664.99 571.71 656.47 566.7 666.21 572.26C669.77 572.42 671.29 568.79 671.29 568.79C678.76 574.89 679.1 562.66 676.92 557.95C675.07 558.48 685.24 567.39 688.07 562.68C685.9 566.14 689.73 578.03 695.21 569.02Z" fill="#81C436"/>
<path d="M890.568 689.645C890.758 692.265 878.788 694.275 863.918 695.345C849.048 696.415 836.808 694.635 836.728 693.515C836.538 690.895 848.438 687.895 863.308 686.835C878.178 685.775 890.378 687.015 890.568 689.645Z" fill="#6C943A"/>
<path d="M827.127 691.665C828.737 693.585 842.877 693.215 855.567 692.445C874.367 691.295 883.537 690.265 883.997 688.045C884.617 685.005 880.557 685.205 880.557 685.205C880.557 685.205 882.847 679.235 879.867 678.435C876.887 677.635 875.047 681.175 875.047 681.175C875.047 681.175 873.217 664.015 867.937 665.045C862.657 666.075 864.497 678.795 864.497 678.795C864.497 678.795 855.557 669.605 852.347 669.495C849.137 669.385 846.307 674.725 847.837 681.565C847.837 681.565 837.677 669.385 834.007 670.755C830.337 672.125 832.627 684.745 832.627 684.745C832.627 684.745 822.727 686.415 827.127 691.665Z" fill="#71AC2F"/>
<path d="M-1.5293 579.671C-1.5293 579.671 20.0707 572.331 29.5507 577.361C33.8207 579.631 35.6207 581.861 35.6207 581.861C35.6207 581.861 36.8907 572.101 44.5707 568.041C48.2507 566.091 55.4207 565.371 61.9307 572.111C61.9307 572.111 58.9307 557.771 67.8207 553.731C74.3707 550.761 81.4207 555.921 84.4507 561.121C84.4507 561.121 93.3607 551.801 105.551 563.651C105.551 563.651 123.971 551.281 130.411 557.271C136.851 563.261 132.891 577.881 132.891 577.881C132.891 577.881 151.521 577.331 150.231 596.281C150.231 596.281 164.641 593.301 172.711 596.101C184.941 600.351 186.821 612.231 186.821 612.231C186.821 612.231 200.681 604.971 211.141 606.811C221.601 608.651 220.921 613.531 220.921 613.531C220.921 613.531 222.591 590.401 231.581 589.551C236.651 589.071 241.021 599.041 241.021 599.041C241.021 599.041 244.331 576.231 252.721 575.941C262.331 575.611 263.551 584.971 263.551 584.971C263.551 584.971 271.401 573.051 279.191 571.371C286.981 569.691 287.821 582.981 287.821 582.981C287.821 582.981 299.751 571.511 306.891 572.781C314.031 574.051 310.961 584.671 310.961 584.671C310.961 584.671 332.091 576.001 334.151 592.971C334.151 592.971 353.411 585.291 359.591 596.961C362.241 601.961 358.981 613.151 358.981 613.151C358.981 613.151 377.671 608.191 380.421 613.531C380.421 613.531 393.881 604.361 407.251 607.071C422.361 610.131 426.091 621.251 426.091 621.251L-1.4893 620.341L-1.5293 579.671Z" fill="#4C5E30"/>
<path d="M1525.39 37.0001C1525.39 37.0001 1521.74 28.4901 1502.59 28.3901C1483.44 28.2901 1467.88 40.2001 1467.88 40.2001C1467.88 40.2001 1465.23 35.2501 1450.93 34.6201C1435.56 33.9401 1422.55 48.4201 1422.55 48.4201C1422.55 48.4201 1448.71 48.2501 1458.87 46.7701C1469.03 45.2901 1470.67 44.8501 1470.67 44.8501C1470.67 44.8501 1500.09 47.8801 1509.28 46.0401C1518.47 44.2001 1519.37 41.4601 1519.37 41.4601C1519.37 41.4601 1531.47 45.5801 1541.08 46.2101C1550.68 46.8301 1554.96 40.4401 1554.96 40.4401C1554.96 40.4401 1572.74 45.5602 1598.81 46.3601C1624.88 47.1601 1628.82 46.1401 1628.82 46.1401L1683.02 49.7701C1683.02 49.7701 1678.91 40.1801 1664.75 39.2601C1650.59 38.3401 1637.69 44.3001 1637.69 44.3001C1637.69 44.3001 1641.08 29.7301 1621.59 28.9601C1602.11 28.1901 1580.86 39.1201 1580.86 39.1201C1580.86 39.1201 1589.52 19.8201 1575.9 18.3201C1562.28 16.8201 1551.24 23.5301 1551.24 23.5301C1551.24 23.5301 1550.27 7.35015 1536.57 7.42015C1522.88 7.48015 1525.39 37.0001 1525.39 37.0001Z" fill="white"/>
<path d="M1598.82 46.3595C1572.75 45.5595 1554.97 40.4395 1554.97 40.4395C1554.97 40.4395 1550.7 46.8295 1541.09 46.2095C1531.49 45.5895 1519.38 41.4595 1519.38 41.4595C1519.38 41.4595 1518.48 44.1995 1509.29 46.0395C1500.1 47.8795 1470.68 44.8495 1470.68 44.8495C1470.68 44.8495 1469.04 45.2895 1458.88 46.7695C1448.72 48.2495 1422.56 48.4195 1422.56 48.4195L1683.03 49.7695L1628.83 46.1395C1628.83 46.1395 1624.89 47.1595 1598.82 46.3595Z" fill="#B2EBE2"/>
<path d="M615.36 188.64C615.36 188.64 626.3 183.73 628 183.73C629.7 183.73 639.51 185.43 639.51 185.43L641.96 184.86C641.96 184.86 642.34 185.8 644.04 186.18C645.74 186.56 650.45 182.41 652.72 182.6C654.98 182.79 661.4 186.37 661.4 186.37C661.4 186.37 654.23 185.8 651.97 185.62C649.71 185.43 646.5 188.64 646.5 188.64L648.01 189.77C648.01 189.77 632.73 186.56 627.44 186.19C622.15 185.81 615.36 188.64 615.36 188.64Z" fill="url(#paint6_linear_2381_6000)"/>
</g>
<g clip-path="url(#clip3_2381_6000)">
<path d="M-1.44922 602.759C-1.44922 602.759 7.03078 589.379 11.6208 591.939C16.2108 594.499 11.6208 602.759 11.6208 602.759C11.6208 602.759 31.3508 598.329 35.0108 602.759C37.4708 605.739 35.0108 609.639 35.0108 609.639C35.0108 609.639 51.5208 603.219 53.8108 609.639C56.1008 616.059 51.7208 622.239 40.1508 622.359C28.5808 622.479 -1.44922 623.169 -1.44922 623.169V602.759Z" fill="#6C943A"/>
<path d="M104.49 580.339C118.79 595.529 134.74 586.999 139.91 571.119C146.09 594.679 168.48 588.269 179.32 582.359C197.56 596.639 215.64 594.119 194.82 568.689C195.72 569.299 211.19 579.949 225.15 573.189C236.21 568.909 230.65 556.509 226.2 552.679C267.51 549.449 276.45 518.609 223.32 514.689C220.83 517.909 216.99 519.899 216.99 519.899C233.05 526.829 227.59 550.649 208.62 544.239C222.97 573.199 187.73 557.679 183.05 553.089C187.75 573.079 165.87 565.899 164.26 552.789C142.32 557.859 116.77 547.319 138.66 519.919C129.26 529.759 108.43 535.859 99.1504 519.899C94.4404 542.039 73.9404 539.679 59.6104 533.959C63.3804 551.679 48.5504 552.599 39.6004 543.549C46.0804 576.749 2.92039 568.869 -9.84961 563.439C-8.24961 579.659 25.6604 573.279 25.3704 572.759C25.1204 580.549 33.3104 588.629 46.1504 590.069C67.9804 593.459 73.3204 572.759 73.3204 572.759C75.2504 585.639 91.7804 592.099 104.49 580.339Z" fill="#71AC2F"/>
<path d="M180.84 722.069C180.84 726.539 160.29 728.489 134.94 728.489C109.59 728.489 89.04 723.979 89.04 722.069C89.04 717.599 109.59 713.969 134.94 713.969C160.29 713.969 180.84 717.599 180.84 722.069Z" fill="#6C943A"/>
<path d="M112.841 637.189C113.501 649.239 112.471 663.879 111.431 676.419C112.411 675.829 108.271 705.429 108.271 705.429C108.271 705.429 118.351 703.029 119.851 701.069C119.651 674.759 115.951 638.929 129.391 616.109C140.791 612.739 150.981 597.889 152.031 586.919C151.451 586.669 150.881 586.399 150.341 586.079C150.211 595.169 139.451 608.799 130.311 610.419C130.721 598.339 132.521 583.709 140.531 572.929C140.121 571.829 139.911 571.119 139.911 571.119C139.911 571.119 137.791 577.809 132.661 582.969C129.601 589.029 127.611 604.179 127.571 608.399C127.731 604.439 125.231 593.589 123.051 588.349C122.301 588.469 121.551 588.519 120.801 588.509C127.641 605.329 125.811 616.809 118.471 631.939C116.271 624.309 112.171 611.309 109.561 603.429C109.561 603.429 112.251 599.329 113.481 586.719C112.371 586.209 111.331 585.629 110.371 585.029C109.411 593.159 107.101 599.509 107.101 599.509L99.7306 583.799C98.3906 584.509 96.7706 585.189 94.8906 585.689C102.571 600.969 111.431 619.729 112.841 637.189Z" fill="#6B4B31"/>
<path d="M29.2404 566.62C43.6204 560.77 39.6004 543.56 39.6004 543.56C48.6304 552.66 63.3704 551.62 59.6104 533.97C74.1204 539.76 94.4504 541.95 99.1504 519.91C108.47 535.95 129.38 529.68 138.66 519.93C116.7 547.44 142.5 557.85 164.26 552.8C165.86 565.88 187.75 573.11 183.05 553.1C187.82 557.74 222.95 573.16 208.62 544.25C227.66 550.66 233 526.78 216.99 519.91C216.99 519.91 220.83 517.92 223.32 514.7C222.46 514.6 221.95 514.58 221.95 514.58C260.24 504.64 235.72 483.58 214.47 483.92C214.47 483.92 227.95 468.92 228.21 458.45C226.95 437.95 179.32 452.38 178.83 452.28C213.48 406.35 168.75 409.16 143.67 415.77C164.44 386.17 133.65 380.69 117.87 405.15C113.86 382.34 84.3904 383.51 88.2104 417.47C51.0604 411.26 55.1404 425.02 75.1004 454.75C67.8804 447.39 57.7004 442.83 46.6504 442.97C25.0404 441.11 28.0004 478.06 30.0904 483.61C29.5104 481.4 25.6804 468.39 12.0304 469.4C-1.24955 470.92 5.05044 497.58 7.24044 506.36C-12.1196 496.66 -31.0996 505.32 -10.7296 526.97C-6.58956 532.41 7.58044 545.99 10.4304 548.2C10.3804 548.13 -10.2996 554.19 -9.89956 563.44C-8.72956 563.87 15.1804 572.32 29.2404 566.62Z" fill="url(#paint7_radial_2381_6000)"/>
<path d="M116.171 725.51C126.481 725.54 157.311 725.75 157.071 720.36C156.831 714.97 136.621 717.74 136.621 717.74C136.621 717.74 164.871 703.61 157.181 700.58C149.491 697.55 128.901 707.9 128.901 707.9C128.901 707.9 136.581 695.51 132.791 691.71C129.001 687.91 119.821 700.72 119.821 700.72C119.821 700.72 119.331 676.51 107.791 675.68C101.371 675.22 105.151 699.3 105.151 699.3C105.151 699.3 89.7106 690.82 88.4106 693.27C84.9006 699.91 95.8606 712.58 95.8606 712.58C95.8606 712.58 80.3906 711.68 80.3906 715.28C80.3806 725.51 106.871 725.48 116.171 725.51Z" fill="#71AC2F"/>
<path d="M958.971 778.589C977.588 778.589 992.681 776.485 992.681 773.889C992.681 771.294 977.588 769.189 958.971 769.189C940.353 769.189 925.261 771.294 925.261 773.889C925.261 776.485 940.353 778.589 958.971 778.589Z" fill="#6C943A"/>
<path d="M976.51 482.828L977.72 486.718L976.2 487.268L973.87 485.238L976.51 482.828Z" fill="#62432D"/>
<path d="M939.451 761.259C938.711 769.149 938.251 773.889 938.251 773.889H961.761C961.761 773.889 961.841 769.219 961.991 761.339C962.001 760.879 962.011 760.329 962.021 759.849C962.071 757.029 962.131 753.909 962.201 750.409C962.331 743.689 962.481 735.789 962.651 727.199C962.741 722.569 962.841 717.759 962.941 712.769C963.201 699.929 963.501 686.119 963.811 672.419C963.851 670.449 963.901 668.489 963.941 666.529C964.041 662.059 964.151 657.609 964.251 653.229C964.501 642.789 964.751 632.789 965.011 623.649C965.681 599.399 966.331 581.529 966.841 579.939C968.531 574.619 993.191 568.089 999.481 554.549C1005.77 541.009 1012.29 515.379 1012.29 515.379C1012.29 515.379 1021.96 510.789 1029.7 492.409C1030.13 491.399 1030.52 490.359 1030.89 489.299C1029.58 488.559 1028.4 487.539 1027.35 486.289C1026.4 489.149 1025.28 491.889 1023.89 494.349C1014.22 511.519 1005.11 511.269 1005.11 511.269C1005.11 511.269 988.621 507.509 980.851 494.099C979.541 491.839 978.451 489.079 977.511 486.099C976.941 486.379 976.581 486.529 976.581 486.529L975.291 484.919C975.291 484.919 975.941 484.709 976.941 484.209C976.911 484.109 976.891 484.019 976.861 483.919C975.011 482.989 973.181 481.869 971.361 480.609C972.971 488.419 974.951 495.479 977.221 498.449C983.511 506.669 1005.1 516.019 1005.1 516.019C1005.1 516.019 1003.49 537.939 993.491 551.479C983.501 565.019 963.191 572.429 963.191 572.429C963.191 572.429 960.611 565.659 949.651 556.899C938.691 548.139 912.661 532.049 912.661 532.049C912.661 532.049 917.011 519.719 920.641 502.549C922.701 492.789 923.031 485.009 922.941 480.019C922.121 480.389 921.611 480.549 921.611 480.549L918.711 475.469C918.711 475.469 920.021 475.059 921.841 474.019C921.761 473.979 921.691 473.939 921.611 473.909C918.631 473.549 908.951 471.969 903.391 466.279C902.501 465.369 901.801 464.429 901.211 463.469C900.291 464.499 899.191 465.659 897.881 466.969C898.071 467.199 898.201 467.419 898.411 467.649C906.151 476.349 918.401 477.639 918.401 477.639C918.401 477.639 918.401 485.699 916.791 496.009C915.181 506.329 908.411 529.859 908.411 529.859C908.411 529.859 899.381 523.409 883.271 500.199C879.321 494.509 876.641 488.999 874.801 483.889C872.081 485.299 869.191 486.569 866.141 487.729C867.501 491.809 869.131 495.929 871.131 499.999C871.261 501.299 876.611 509.639 878.121 511.739C904.981 549.079 945.111 552.409 949.951 578.519C951.561 587.179 950.801 611.639 949.091 640.409C948.591 648.769 948.011 657.479 947.391 666.299C947.361 666.659 947.341 667.019 947.311 667.379C946.801 674.459 946.271 681.579 945.721 688.609C943.921 711.689 941.991 733.679 940.541 749.559C940.171 753.649 939.831 757.319 939.531 760.509C939.501 760.779 939.471 761.029 939.451 761.259Z" fill="#6B4B31"/>
<path d="M802.93 344.049C802.93 344.049 764.16 348.069 762.2 365.159C760.24 382.249 784.55 397.339 784.55 397.339C784.55 397.339 764.39 423.119 775.54 448.309C779.37 456.969 789.6 461.079 813.44 448.309C834.24 437.139 836.87 425.859 837.18 423.239C837.03 427.149 836.51 449.909 849.18 453.979C862.98 458.359 864.63 440.439 864.63 440.439C864.63 440.439 885.23 452.129 904.17 447.239C923.17 442.299 924.15 418.459 924.15 418.459C924.15 418.459 929.3 437.669 947.01 440.449C964.67 443.279 975.33 423.609 975.33 423.609C975.33 423.609 980.68 452.129 992.48 454.659C1004.27 457.179 1013.08 428.039 1013.08 428.039C1013.08 428.039 1020.6 448.939 1032.8 448.689C1045.05 448.379 1043.3 428.659 1043.3 428.659C1043.3 428.659 1059.21 434.889 1067.34 424.589C1075.06 414.809 1061.88 404.819 1060.54 403.839C1062.08 404.049 1078.05 406.469 1086.23 400.339C1093.23 395.089 1087.72 382.469 1085.51 378.099C1088.45 383.399 1098.33 400.389 1104.66 400.549C1111.87 400.759 1103.37 387.629 1102.7 386.599C1102.65 386.549 1102.65 386.549 1102.65 386.549C1102.65 386.549 1139.82 356.889 1115.52 326.409C1104.76 312.969 1090.34 338.719 1084.06 351.789C1089.67 338.399 1099.46 309.159 1084.78 295.819C1075.36 287.219 1051.57 303.179 1051.57 303.179C1051.57 303.179 1065.99 240.159 1041.32 235.879C1016.6 231.609 996.32 278.769 996.32 278.769C996.32 278.769 995.44 217.189 977.22 214.609C959.66 212.139 964.25 265.279 964.55 268.779C962.8 265.589 932.68 209.769 912.19 220.899C891.08 232.279 903.23 288.759 903.23 288.759C903.23 288.759 861.68 246.539 845.25 266.519C828.77 286.499 848.75 321.249 848.75 321.249C848.75 321.249 799.01 278.509 784.13 297.309C781.4 300.759 780.33 304.519 780.36 308.359C780.49 325.439 802.93 344.049 802.93 344.049Z" fill="url(#paint8_radial_2381_6000)"/>
<path d="M1104.65 400.54C1098.32 400.39 1088.43 383.39 1085.5 378.09C1099.43 403.98 1075.92 406.14 1060.53 403.83C1082.95 421.05 1059.23 436.19 1043.28 428.65C1043.69 463.62 1017.67 445.76 1013.06 428.03C999.91 469.8 981.63 456.95 975.32 423.6C962.41 448.27 931.67 444.9 924.14 418.45C922.46 454.87 884.32 452.13 864.62 440.44C864.62 440.44 862.97 458.36 849.17 453.98C836.5 449.91 837.02 427.15 837.17 423.24C834.06 444.1 789.95 463.76 775.54 448.31C775.54 475.81 816.27 460.25 816.27 460.25C822.35 471.52 846.8 498.37 866.14 487.75C881.97 481.86 896.03 470.38 904.52 459.58C920.56 479.07 934.86 481.43 951.63 461.9C964 475.17 986.89 504.11 997.51 465.25C1007.35 483.1 1016.22 476.78 1018.83 459.28C1021.55 492.39 1041.01 506.28 1050.08 461.91C1069.09 510.05 1077.69 469.99 1078.3 450.12C1078.3 450.12 1088.49 469.79 1102.4 468.4C1116.3 466.96 1102.4 430.2 1102.4 430.2C1152.88 416.84 1126.94 384.93 1102.66 386.54C1103.9 386.45 1111.86 400.73 1104.65 400.54Z" fill="#71AC2F"/>
<path d="M922.97 480.729L923.76 471.979C923.76 471.979 923.3 474.349 920.01 474.349C916.72 474.349 919.02 477.479 919.02 477.479L922.15 482.749L922.97 480.729Z" fill="#62432D"/>
<path d="M803.586 829.599L773.446 859.029L1112.1 860.829L1093.8 827.959L803.586 829.599Z" fill="#B69C9D"/>
<path d="M1101.59 855.039H1099.11L1087.08 813.299L1086.01 810.099L1087.15 800.949L1101.59 855.039Z" fill="#C75F5B"/>
<path d="M1048.04 738.219L1048.11 742.559C1046.81 739.169 1045.71 736.789 1045.71 736.789V729.879L826.746 702.459L871.766 703.949H871.876L1047.58 709.759L1047.65 714.059V714.529L1047.87 728.609L1047.89 728.779V729.879L1048 736.809L1048.04 738.219Z" fill="#DFB88A"/>
<path d="M1086.68 799.158L1087.37 799.178L1087.15 800.948L1086.68 799.158Z" fill="#DFB88A"/>
<path d="M1114.62 789.848L1111.81 800.058L1087.37 799.178L1088.54 789.848L1081.15 795.488L1080.57 793.758L1080.23 792.788L1080.03 792.138L1078.6 787.838L1048.8 785.808V785.528L1048.78 784.988L1048.72 781.728L1045.7 784.258V765.628L1048.46 765.048L1048.42 763.078V762.878L1048.2 749.378L1048.18 747.818L1048.11 742.568C1051.31 751.038 1055.78 765.908 1047.57 766.088V779.708H1075.15L1114.62 789.848Z" fill="#DFB88A"/>
<path d="M829.946 728.779L832.996 781.729H836.056V728.779H829.946Z" fill="url(#paint9_linear_2381_6000)"/>
<path d="M1047.85 728.779V781.729H1044.8L1044.68 779.699L1043.9 766.179L1043.83 765.059L1043.71 762.989V762.939L1042.93 749.299L1042.84 747.829L1042.28 738.219L1042.21 736.839L1041.8 729.889V729.669L1041.74 728.779H1047.85Z" fill="url(#paint10_linear_2381_6000)"/>
<path d="M794.536 799.038L782.086 855.038H788.306L801.996 799.038L810.706 790.328L803.246 840.108H808.216L818.176 787.838L794.536 799.038Z" fill="url(#paint11_linear_2381_6000)"/>
<path d="M1063.12 787.838L1070.76 791.448L1070.91 792.398L1070.98 792.958L1071.11 793.818L1072.04 800.058L1073.53 810.018L1074.04 813.298L1078.04 840.098H1073.07L1067.97 813.298L1067.33 809.988L1065.45 800.058L1064.28 793.858L1064.13 793.108L1064.04 792.608L1063.12 787.838Z" fill="url(#paint12_linear_2381_6000)"/>
<path d="M1070.59 790.338L1072.57 792.308L1070.76 791.448L1070.59 790.338Z" fill="url(#paint13_linear_2381_6000)"/>
<path d="M1099.2 855.039H1092.98L1082.77 813.299L1081.99 810.079L1079.53 800.059L1079.29 799.029L1074.06 793.799L1073.16 792.909L1072.6 792.349L1072.57 792.309L1072.62 792.329L1073.81 792.909L1075.7 793.799L1079.29 795.489L1086.76 799.029L1086.98 800.059L1099.2 855.039Z" fill="url(#paint14_linear_2381_6000)"/>
<path d="M1110.97 791.919L1109.95 800.059H772.926L771.906 791.919L807.536 779.699H1073.29L1110.97 791.919Z" fill="#CC8E47"/>
<path d="M1067.18 704.339V729.799H1066.4C1066.4 729.799 1066.38 729.799 1066.34 729.799L1047.84 729.869H1046.01L1041.78 729.889L807.926 730.819H807.516L805.506 702.509L805.486 702.309L824.856 702.459L1067.18 704.339Z" fill="#D09857"/>
<path d="M795.326 813.289H1088.57V810.129L795.326 808.029V813.289Z" fill="url(#paint15_linear_2381_6000)"/>
<path d="M1110.97 791.918L1109.95 800.058H772.926L771.906 791.918C771.906 791.918 853.356 795.978 950.096 794.968C969.206 794.768 987.026 794.518 1003.35 794.258C1003.35 794.258 1003.54 794.258 1003.91 794.258C1004.13 794.238 1004.41 794.238 1004.75 794.238C1027.86 793.868 1047.89 793.478 1064.13 793.098C1066.5 793.058 1068.77 793.008 1070.98 792.948C1071.71 792.928 1072.43 792.908 1073.16 792.888H1073.81C1075.37 792.828 1076.9 792.798 1078.37 792.778C1099.29 792.288 1110.97 791.918 1110.97 791.918Z" fill="url(#paint16_linear_2381_6000)"/>
<path d="M933.796 704.348C933.796 704.348 810.596 703.328 808.556 704.348C806.516 705.368 807.536 713.508 807.536 713.508L932.076 715.348L807.536 715.548C807.536 715.548 807.286 720.938 809.576 727.768C811.616 729.808 1063.11 729.808 1065.15 727.768C1067.19 725.728 1066.17 714.528 1066.17 714.528H1028.5L1066.17 713.508C1066.17 713.508 1066.17 706.378 1065.15 705.358C1064.13 704.348 933.796 704.348 933.796 704.348Z" fill="#C88639"/>
<path d="M1068.17 736.559L1068.15 736.769L1066.21 765.079H1066.2L1047.85 765.059H1043.83L806.756 764.799H806.566V764.499L806.496 739.339L1042.21 736.839L1046.14 736.809L1047.85 736.789L1068.17 736.559Z" fill="#D09857"/>
<path d="M1109.95 800.059C1109.95 800.059 1110.06 793.579 1109.04 793.579C1108.67 793.579 1095.57 793.649 1078.72 793.769C1077.73 793.789 1076.73 793.789 1075.7 793.809C1075.16 793.789 1074.62 793.809 1074.06 793.809C1073.09 793.809 1072.1 793.809 1071.12 793.829C1068.88 793.849 1066.59 793.849 1064.28 793.869C1037.7 794.059 1008.31 794.239 1003.91 794.279C1004.13 794.259 1004.41 794.259 1004.75 794.259C1011.29 794.089 1039.65 793.379 1064.04 792.619C1066.37 792.549 1068.68 792.469 1070.91 792.419C1071.49 792.379 1072.05 792.359 1072.6 792.359L1072.62 792.339C1074.52 792.279 1076.38 792.229 1078.17 792.149C1091.58 791.679 1101.47 791.239 1101.81 790.899C1102.13 790.579 1099.41 789.349 1095.51 787.849C1093.87 787.199 1092.03 786.509 1090.11 785.799C1089.96 785.739 1089.81 785.689 1089.66 785.629C1088.75 785.289 1088.19 784.619 1088.19 784.619L1112.76 789.849L1109.95 800.059Z" fill="#DFB88A"/>
<path d="M807.546 779.689C807.546 779.689 778.016 789.869 779.036 790.889C780.056 791.909 835.266 794.089 835.266 794.089L771.906 791.909L807.546 779.689Z" fill="#D5A266"/>
<path d="M796.946 783.439L1069.23 785.799L793.696 784.619L796.946 783.439Z" fill="url(#paint17_linear_2381_6000)"/>
<path d="M790.527 785.529C790.237 785.799 839.107 784.789 839.107 784.789H793.287L790.527 785.529Z" fill="#D5A266"/>
<path d="M1012.1 785.309L1088.22 784.619L1091.63 785.799L1012.1 785.309Z" fill="url(#paint18_linear_2381_6000)"/>
<path d="M1047.84 785.799L1095.7 787.839L1091.11 785.619L1047.84 785.799Z" fill="#DFB88A"/>
<path d="M1066.35 729.799L1047.85 729.879H1046.02L1041.8 729.889L807.946 730.829L809.156 728.389L821.526 728.459H821.826L968.646 729.259H969.726L1041.8 729.669L1046.02 729.689H1047.85L1066.35 729.799Z" fill="url(#paint19_linear_2381_6000)"/>
<path d="M1066.2 763.779V765.639C1066.2 765.639 1059.36 765.829 1047.85 766.089C1047.46 766.109 1047.05 766.129 1046.62 766.129C1045.74 766.149 1044.83 766.169 1043.9 766.189C1019.13 766.749 976.917 767.509 933.947 767.509C866.897 767.509 807.287 765.649 807.287 765.649L806.747 764.809L806.557 764.509L830.827 763.799L835.947 763.649H836.057L960.007 760.059L1000.99 761.489L1042.92 762.959L1043.7 762.999L1046.55 763.089L1047.84 763.129L1066.2 763.779Z" fill="url(#paint20_linear_2381_6000)"/>
<path d="M939.876 738.958C939.876 738.958 1063.08 737.588 1065.12 738.598C1067.16 739.608 1066.16 747.758 1066.16 747.758L982.666 747.998L1066.17 749.798C1066.17 749.798 1066.2 759.978 1064.17 762.018C1062.14 764.058 810.636 764.778 808.596 762.748C806.556 760.718 807.536 749.518 807.536 749.518L845.206 749.408L807.526 748.498C807.526 748.498 807.506 741.368 808.516 740.348C809.546 739.328 939.876 738.958 939.876 738.958Z" fill="#C88639"/>
<g style="mix-blend-mode:screen" opacity="0.72">
<path d="M807.296 748.869L1001.01 756.319V763.959L807.296 763.779V748.869Z" fill="url(#paint21_linear_2381_6000)"/>
</g>
<path d="M953.12 144.559C953.12 144.559 964.49 147.489 970.64 147.099C976.78 146.719 978.22 145.559 978.22 145.559C978.22 145.559 982.92 147.669 986.76 147.579C990.6 147.479 993 144.029 993 144.029C993 144.029 1005.57 147.389 1015.65 147.389C1025.73 147.389 1026.88 146.429 1026.88 146.429L1080.62 149.509C1080.62 149.509 1077.57 141.119 1069.52 141.859C1061.47 142.599 1054.63 146.109 1054.63 146.109C1054.63 146.109 1050.66 139.939 1043.74 139.499C1036.82 139.069 1028.98 140.759 1028.98 140.759C1028.98 140.759 1028.89 136.349 1020.95 132.849C1013.01 129.359 999.17 138.299 999.17 138.299C999.17 138.299 998.7 134.279 992.35 133.439C986 132.599 979.08 141.779 979.08 141.779C979.08 141.779 973.8 137.089 968.23 137.199C962.66 137.309 957.96 142.209 957.96 142.209C957.96 142.209 952.88 137.899 939.88 139.539C922.29 141.769 921.46 148.819 921.46 148.819C921.46 148.819 943.66 147.909 948.22 146.799C952.78 145.709 953.12 144.559 953.12 144.559Z" fill="white"/>
<path d="M1026.88 146.429C1026.88 146.429 1025.73 147.389 1015.65 147.389C1005.57 147.389 993 144.029 993 144.029C993 144.029 990.6 147.489 986.76 147.579C982.92 147.679 978.22 145.559 978.22 145.559C978.22 145.559 976.78 146.709 970.64 147.099C964.5 147.479 953.12 144.559 953.12 144.559C953.12 144.559 952.78 145.709 948.22 146.819C943.66 147.919 921.46 148.839 921.46 148.839L1080.62 149.519L1026.88 146.429Z" fill="#B2EBE2"/>
<path d="M677.216 847.106C677.216 847.106 658.706 871.236 681.216 882.776C699.106 891.946 712.486 882.776 727.836 879.546C740.656 876.846 778.946 870.486 778.946 870.486L768.136 843.496L677.216 847.106Z" fill="#B69C9D"/>
<path d="M731.356 840.086C726.926 837.496 723.036 834.076 718.716 831.306C713.906 828.226 708.516 825.956 702.856 825.236C697.196 824.516 691.246 825.416 686.306 828.276C678.836 832.606 674.366 841.046 673.346 849.616C672.946 852.946 673.026 856.356 673.916 859.586C676.066 867.306 682.906 873.196 690.606 875.426C694.796 876.636 699.186 876.886 703.546 877.126C724.386 878.276 745.446 879.406 765.986 875.686C768.966 875.146 771.986 874.486 774.616 872.986C777.246 871.486 779.486 869.016 780.006 866.036C780.346 864.086 779.956 862.076 779.256 860.226C777.566 855.726 774.136 852.016 770.096 849.406C766.056 846.806 761.416 845.246 756.726 844.216C752.386 843.266 748.766 843.036 744.466 843.586C739.926 844.156 735.196 842.326 731.356 840.086Z" fill="#E2881B"/>
<path d="M791.446 851.086C787.816 850.656 784.116 850.766 780.506 851.396C779.826 851.516 779.126 851.666 778.596 852.096C777.806 852.746 777.576 853.846 777.466 854.866C777.136 857.826 777.306 860.866 777.996 863.766C778.806 867.176 780.366 866.386 782.516 864.346C786.426 860.666 789.506 856.096 791.446 851.086Z" fill="#E2881B"/>
<path d="M752.486 828.516C754.036 831.836 755.096 835.376 755.626 838.996C755.726 839.676 755.806 840.386 755.556 841.026C755.196 841.986 754.216 842.536 753.286 842.966C750.576 844.206 747.636 844.996 744.666 845.256C741.176 845.556 741.436 843.826 742.686 841.146C744.966 836.276 748.336 831.926 752.486 828.516Z" fill="#E2881B"/>
<path d="M743.437 875.717C739.727 875.097 735.977 874.287 732.727 872.397C729.477 870.517 724.407 861.767 727.607 854.027C730.677 846.597 736.387 844.137 738.077 843.757C746.677 841.827 752.717 848.977 761.307 850.957C765.617 851.947 770.097 853.627 772.677 857.237C773.797 858.807 774.487 860.647 775.007 862.507C775.747 865.107 776.187 867.927 775.677 870.607C775.197 873.117 774.397 873.907 772.087 874.637C766.207 876.507 760.177 877.147 754.027 876.887C750.477 876.727 746.937 876.307 743.437 875.717Z" fill="#B76B18"/>
<path d="M768.167 839.817C771.307 840.517 774.747 843.577 776.987 845.877C779.517 848.477 780.927 852.027 781.387 855.627C781.847 859.227 781.397 862.887 780.597 866.427C780.277 867.867 779.867 869.337 778.957 870.487C777.577 872.227 773.447 874.437 771.277 874.897C758.757 877.537 755.117 877.687 747.467 874.737C742.867 872.967 737.397 869.097 732.607 860.487C730.607 856.887 730.637 852.207 732.937 848.787C735.787 844.557 741.567 840.997 746.597 840.137C753.507 838.937 761.227 838.277 768.167 839.817Z" fill="#E2881B"/>
<path d="M758.926 858.276C759.186 858.546 759.396 858.896 759.366 859.276C759.336 859.556 759.176 859.816 758.986 860.016C758.386 860.666 757.496 860.956 756.626 861.116C755.756 861.276 754.866 861.316 754.026 861.596C753.596 860.616 753.266 859.596 753.036 858.546C752.936 858.106 752.856 857.646 752.916 857.196C752.976 856.746 753.196 856.166 753.586 855.936C754.016 855.686 755.456 855.506 756.146 856.566C756.376 856.916 756.606 857.236 756.626 857.646C757.406 857.416 758.356 857.706 758.926 858.276Z" fill="#593E39"/>
<path d="M746.847 863.517C746.927 863.447 747.037 863.457 747.117 863.527C747.937 864.277 749.037 864.817 750.167 864.777C751.407 864.737 752.437 863.907 753.137 862.937C753.187 862.867 753.237 862.787 753.287 862.717C753.307 862.677 753.317 862.627 753.337 862.587C753.657 861.747 754.067 860.937 754.547 860.177C754.677 859.967 754.997 860.167 754.867 860.377C754.797 860.497 754.727 860.607 754.657 860.727C754.717 860.787 754.717 860.877 754.677 860.957C754.357 861.617 754.037 862.277 753.627 862.887C753.417 863.447 753.257 864.027 753.127 864.617C753.057 864.957 753.007 865.307 753.047 865.647C753.087 865.977 753.197 866.297 753.327 866.607C753.607 867.237 753.977 867.817 754.447 868.327C754.967 868.897 755.587 869.377 756.277 869.727C756.367 869.777 756.387 869.907 756.337 869.987C756.277 870.077 756.167 870.097 756.077 870.047C754.797 869.387 753.727 868.297 753.097 866.997C752.937 866.667 752.797 866.327 752.717 865.967C752.637 865.607 752.637 865.237 752.697 864.877C752.747 864.507 752.837 864.137 752.937 863.767C752.697 864.027 752.437 864.257 752.147 864.467C751.617 864.847 751.007 865.087 750.357 865.147C749.757 865.207 749.147 865.097 748.597 864.887C747.947 864.637 747.357 864.257 746.837 863.787C746.757 863.717 746.777 863.577 746.847 863.517Z" fill="#593E39"/>
<path d="M763.966 863.346C764.666 864.556 765.976 865.336 767.346 865.556C768.726 865.766 770.146 865.446 771.386 864.806C772.566 864.196 773.646 863.216 773.956 861.926C773.656 862.376 773.126 862.616 772.616 862.796C770.896 863.406 768.936 863.606 767.266 862.866C765.596 862.136 764.326 860.306 764.656 858.506C764.546 859.126 763.716 859.896 763.556 860.626C763.336 861.526 763.496 862.526 763.966 863.346Z" fill="#593E39"/>
<path d="M742.547 849.567C743.057 850.867 744.227 851.837 745.557 852.257C746.887 852.677 748.347 852.567 749.667 852.117C750.927 851.687 752.137 850.887 752.637 849.657C752.267 850.057 751.717 850.207 751.177 850.317C749.377 850.667 747.417 850.557 745.877 849.587C744.327 848.607 743.357 846.607 743.957 844.877C743.747 845.477 742.817 846.107 742.547 846.807C742.197 847.677 742.207 848.697 742.547 849.567Z" fill="#593E39"/>
<path d="M776.546 846.535C776.646 846.255 776.746 845.975 776.826 845.695C776.876 845.745 776.936 845.805 776.986 845.855C777.826 846.715 778.536 847.675 779.136 848.705C778.106 850.075 776.656 851.375 775.566 852.355C774.266 853.525 772.796 854.505 771.206 855.255C773.996 853.205 775.356 849.785 776.546 846.535Z" fill="#B76B18"/>
<path d="M765.557 854.036C767.937 850.436 768.497 845.876 770.857 842.256C771.077 841.926 771.307 841.596 771.517 841.266C772.917 842.136 774.277 843.256 775.457 844.356C771.257 846.336 769.367 851.366 765.557 854.036Z" fill="#B76B18"/>
<path d="M765.687 839.336C766.527 839.456 767.357 839.606 768.167 839.786C768.767 839.916 769.377 840.136 769.987 840.426C769.847 840.556 769.707 840.696 769.587 840.836C768.937 841.606 768.557 842.556 768.147 843.476C766.717 846.696 764.897 849.736 762.727 852.506C763.227 848.446 763.747 844.326 765.217 840.506C765.367 840.126 765.527 839.726 765.687 839.336Z" fill="#B76B18"/>
<path d="M759.486 839.706C759.576 839.436 759.676 839.166 759.786 838.896C760.806 838.906 761.826 838.946 762.846 839.026C761.066 841.636 759.706 844.536 758.846 847.576C758.616 844.936 758.656 842.226 759.486 839.706Z" fill="#B76B18"/>
<path d="M752.096 834.186C752.036 833.966 751.966 833.726 751.786 833.596C751.526 833.396 751.146 833.496 750.866 833.656C750.236 834.016 749.816 834.646 749.436 835.256C748.356 836.996 747.396 838.806 746.576 840.676C746.626 840.566 747.656 840.496 747.816 840.466C748.256 840.396 748.706 840.326 749.146 840.266C750.036 840.136 750.926 840.026 751.816 839.936C752.376 839.876 752.896 839.816 753.016 839.186C753.146 838.536 752.876 837.736 752.756 837.096C752.556 836.126 752.336 835.156 752.096 834.186Z" fill="#E5CAC6"/>
<path d="M787.487 854.656C785.047 854.536 782.597 854.626 780.177 854.946C780.917 857.696 780.937 860.716 780.137 863.466C781.497 862.416 782.647 860.876 783.737 859.536C784.387 858.746 785.017 857.936 785.637 857.116C785.867 856.816 787.187 854.636 787.487 854.656Z" fill="#E5CAC6"/>
<path d="M701.747 839.216C704.577 841.086 706.787 843.846 708.187 846.936C709.597 850.026 710.217 853.446 710.237 856.836C710.247 858.326 710.137 859.816 709.767 861.266C708.947 864.516 706.917 867.306 705.327 870.266C708.837 867.926 710.647 863.796 712.037 859.816C713.507 855.606 714.727 851.006 713.417 846.746C712.187 842.726 708.807 839.596 704.957 837.906C701.107 836.206 697.537 834.816 693.327 834.826C691.977 834.836 688.727 835.916 688.217 837.516C688.747 837.676 689.487 837.266 690.017 837.096C691.097 836.756 692.097 836.516 693.237 836.546C696.257 836.626 699.237 837.556 701.747 839.216Z" fill="#CE781B"/>
<path d="M671.097 866.676C673.147 872.616 677.877 877.476 683.577 880.106C692.777 884.356 703.487 882.896 713.507 881.346C730.227 878.766 747.837 876.276 763.657 882.276C764.227 882.496 764.807 882.726 765.427 882.776C767.837 882.966 769.597 880.096 769.107 877.736C768.617 875.376 766.637 873.616 764.587 872.336C759.837 869.386 754.197 868.106 748.607 867.826C743.017 867.546 737.427 868.206 731.877 868.866C726.087 869.556 720.297 870.236 714.507 870.926C708.017 871.696 701.437 872.466 694.957 871.566C688.477 870.676 682.007 867.916 677.957 862.786C674.187 858.016 672.907 851.616 673.867 845.676C673.207 849.096 671.407 851.876 670.587 855.216C669.657 858.976 669.837 863.016 671.097 866.676Z" fill="#F2AE25"/>
<path d="M764.586 872.326C762.576 871.076 760.417 870.136 758.167 869.436C758.227 869.546 758.267 869.666 758.297 869.796C758.397 870.336 758.106 870.866 757.846 871.346C756.506 873.816 755.627 876.536 755.247 879.316C755.227 879.486 755.207 879.666 755.187 879.846C758.057 880.426 760.887 881.216 763.667 882.266C764.237 882.486 764.817 882.716 765.437 882.766C767.847 882.956 769.607 880.086 769.117 877.726C768.617 875.356 766.636 873.596 764.586 872.326Z" fill="#B76B18"/>
<path d="M679.327 864.336C678.847 863.846 678.377 863.326 677.947 862.776C677.277 861.936 676.687 861.036 676.177 860.096C673.827 861.496 671.987 864.366 671.097 866.686C671.767 868.636 672.737 870.466 673.927 872.146C674.407 870.576 674.937 869.026 675.787 867.616C676.637 866.246 677.887 865.016 679.327 864.336Z" fill="#B76B18"/>
<path d="M701.966 881.125C701.496 879.185 701.356 877.165 701.566 875.175C701.686 874.065 701.926 872.935 702.416 871.945C700.676 871.985 698.946 871.945 697.216 871.805C695.886 875.335 695.396 879.375 696.466 882.885C698.416 882.945 700.396 882.875 702.376 882.735C702.246 882.195 702.096 881.655 701.966 881.125Z" fill="#B76B18"/>
<path d="M684.827 880.645C685.187 877.965 685.667 875.325 686.937 872.965C687.487 871.945 688.257 871.005 689.147 870.225C687.367 869.635 685.657 868.885 684.057 867.965C683.827 868.345 683.557 868.715 683.307 869.055C681.427 871.635 680.147 874.665 679.627 877.815C680.867 878.695 682.197 879.465 683.577 880.105C683.997 880.295 684.407 880.475 684.827 880.645Z" fill="#B76B18"/>
<path d="M715.897 880.975C715.747 878.225 715.597 875.485 715.457 872.735C715.427 872.095 715.397 871.425 715.497 870.785C715.167 870.825 714.837 870.865 714.507 870.905C712.707 871.115 710.897 871.335 709.097 871.505C709.567 872.895 709.387 874.685 709.237 876.215C709.047 878.095 709.117 880.115 709.677 881.905C710.967 881.725 712.237 881.525 713.507 881.335C714.297 881.215 715.097 881.095 715.897 880.975Z" fill="#B76B18"/>
<path d="M745.486 878.666C745.486 877.476 745.366 876.266 745.496 875.076C745.786 872.546 747.326 870.186 749.526 868.896C750.166 868.516 750.866 868.246 751.596 868.056C750.596 867.936 749.596 867.856 748.596 867.806C745.436 867.646 742.276 867.786 739.116 868.056C739.256 868.436 739.346 868.836 739.386 869.226C739.546 870.766 739.106 872.286 738.866 873.816C738.626 875.386 738.586 876.996 738.756 878.576C741.026 878.536 743.266 878.556 745.486 878.666Z" fill="#B76B18"/>
<path d="M733.796 875.135C733.346 873.215 732.626 871.295 732.876 869.335C732.906 869.125 732.946 868.915 733.006 868.715C732.626 868.755 732.246 868.805 731.866 868.845C729.526 869.125 727.196 869.395 724.856 869.675C725.336 870.985 725.306 872.615 725.346 874.065C725.406 875.915 725.716 877.765 726.276 879.525C728.926 879.215 731.586 878.955 734.246 878.785C734.246 877.565 734.076 876.325 733.796 875.135Z" fill="#B76B18"/>
<path d="M239.47 88.3892C246.14 87.1592 248.44 85.6492 248.44 85.6492C248.44 85.6492 275.51 92.3392 286.84 91.2292C298.18 90.1192 306.06 82.6392 306.06 82.6392C306.06 82.6392 314.22 88.4292 322.63 90.1592C331.04 91.8892 334.89 87.4592 334.89 87.4592C334.89 87.4592 364.03 96.2092 378.48 93.6392C392.93 91.0692 393.56 85.3392 393.56 85.3392C393.56 85.3392 407.3 91.9692 424.76 96.3492C442.21 100.739 449.63 94.1892 449.63 94.1892C449.63 94.1892 472.81 102.549 486.63 105.769C500.45 108.999 504.84 107.999 504.84 107.999L574.97 113.959C574.97 113.959 574.35 110.619 556.59 104.569C538.83 98.5192 505.9 104.299 505.9 104.299C505.9 104.299 510.97 87.0292 499.21 83.9592C487.45 80.8892 464.67 91.1492 464.67 91.1492C464.67 91.1492 490.55 63.2192 463.83 55.3692C437.11 47.5192 408.83 74.3392 408.83 74.3392C408.83 74.3392 428.34 44.3992 402.14 38.3292C379.41 33.0692 369.81 65.3792 369.81 65.3792C369.81 65.3792 368.35 35.9492 346.09 35.7992C323.84 35.6492 327.85 77.1292 327.85 77.1292C327.85 77.1292 303.03 57.9792 279.78 58.9992C259.98 59.8692 257.42 82.6292 257.42 82.6292C257.42 82.6292 237.87 67.1592 214.43 66.1092C191 65.0592 184.11 87.9492 184.11 87.9492L198.48 88.9092C198.5 88.9192 232.8 89.6292 239.47 88.3892Z" fill="white"/>
<path d="M486.64 105.79C472.82 102.56 449.64 94.2102 449.64 94.2102C449.64 94.2102 442.22 100.76 424.77 96.3702C407.32 91.9802 393.57 85.3602 393.57 85.3602C393.57 85.3602 392.94 91.0902 378.49 93.6602C364.04 96.2302 334.9 87.4802 334.9 87.4802C334.9 87.4802 331.05 91.9102 322.64 90.1802C314.23 88.4502 306.07 82.6602 306.07 82.6602C306.07 82.6602 298.18 90.1402 286.85 91.2502C275.51 92.3602 248.45 85.6702 248.45 85.6702C248.45 85.6702 246.16 87.1802 239.48 88.4102C232.81 89.6402 198.5 88.9402 198.49 88.9402L574.98 113.99L504.85 108.03C504.84 108.02 500.45 109.02 486.64 105.79Z" fill="#B2EBE2"/>
</g>
<g clip-path="url(#clip4_2381_6000)">
<path d="M1869.43 1000H1420.45L1404.04 999.47L1229.69 939.37L1311.06 908.64L1208.24 879.87L1309.2 844.74L1869.43 1000Z" fill="#B69B9E"/>
<path d="M1807.09 619.71H1510.71L1499.71 0H1807.09V619.71Z" fill="#E2754C"/>
<path d="M1809.26 -20.4805L1555.98 44.1395L1516.84 84.9995H1806.51L1809.26 -20.4805Z" fill="#CF5936"/>
<path d="M1836.98 151.24V1049.43L1247.94 893.44L1203.04 881.55L1196.7 879.87V204.85L1836.98 151.24Z" fill="url(#paint22_linear_2381_6000)"/>
<path opacity="0.23" d="M1210.19 734.369H1274.99V584.869L1386.89 563.779V781.149L1558.41 771.979L1573.08 656.409L1601.52 642.659L1609.77 494.989L1776.7 450.039L1784.04 1029.66L1225.49 887.489L1210.19 734.369Z" fill="#4C8869"/>
<path opacity="0.25" d="M1259.4 284.029H1406.15V669.249L1259.4 284.029Z" fill="#FFFCCC"/>
<path d="M1836.98 151.24V1049.43L1762.33 1029.66V157.49L1203.04 204.32V881.55L1159.97 870.14L1157.65 120.2L1806.51 35.5V153.79L1836.98 151.24Z" fill="#FFEE60"/>
<path d="M1208.04 875.74L1762.33 1019.17V1029.66L1196.7 879.87L1208.04 875.74Z" fill="#4C8869"/>
<path d="M1762.33 317.989V339.279L1649.65 340.739V1004.95L1630.3 999.769V362.369L1463.42 362.969V852.369L1437.13 847.009V363.069L1294.07 363.579V910.479L1285.33 907.249V345.469L1211.94 346.419V329.819L1285.33 328.239V207.099L1294.07 206.149V328.049L1630.3 320.829V178.569L1649.65 177.029V320.409L1762.33 317.989Z" fill="#4C8869"/>
<path d="M1218.13 213.64L1218.09 216.16L1208.04 875.74L1203.04 877.56L1196.7 879.87V200.68L1209 208.12L1218.13 213.64Z" fill="#E2754C"/>
<path d="M1445.75 389.85C1446.36 537.12 1446.37 702.31 1445.75 849.58C1445.13 702.31 1445.13 537.11 1445.75 389.85Z" fill="#4C8869"/>
<path d="M1762.33 157.49V181.31L1247.94 220.96V893.44L1203.04 881.55V877.56L1208.04 875.74L1217.98 223.27L1218.09 216.16L1218.13 213.64L1762.33 157.49Z" fill="#4C8869"/>
<path d="M1762.33 135.449V171.679L1247.94 213.719L1218.09 216.159L1206.98 208.119L1196.7 200.679L1762.33 135.449Z" fill="#CD5B39"/>
<path d="M1142 917.079V928.819L1497.12 1047.6L1625.29 999.769V889.219L1330.94 860.029L1142 917.079Z" fill="#FF9484"/>
<path d="M1218.13 838.209V891.349L1564.83 988.439L1568.5 924.899L1218.13 838.209Z" fill="#FCF3DC"/>
<path d="M1220.31 891.35L1564.83 988.44L1487.83 1029.66L1142 917.08L1220.31 891.35Z" fill="#FED7AC"/>
<path d="M1644.65 315.909V177.029L1625.3 178.569V316.329L1291.54 323.509V206.149L1282.79 207.099V323.699L1211.94 325.219V341.809L1282.79 340.889V907.249L1291.54 910.479V815.529L1434.13 847.009L1458.42 852.369L1625.3 889.219V999.769L1644.65 1004.95V336.199L1762.33 334.669V313.379L1644.65 315.909ZM1291.54 790.779V359.569L1434.13 359.059V820.529L1291.54 790.779ZM1458.42 825.589V358.979L1625.3 358.389V860.399L1458.42 825.589Z" fill="#FCF3DC"/>
<path d="M1293.38 815.23L1625.29 889.22L1568.5 924.901L1218.13 838.211L1293.38 815.23Z" fill="#FED7AC"/>
<path d="M1902.1 0H1805V1000H1902.1V0Z" fill="#CF5936"/>
<path d="M1864.96 999.96H1805V35.7098L1864.96 28.5898V999.96Z" fill="#FFEE60"/>
<path d="M1880.55 999.96H1864.96V28.5898L1880.55 34.5898V999.96Z" fill="#BCAB48"/>
<path d="M1920 0H1902V1000H1920V0Z" fill="#333333"/>
<path d="M1537.65 292.73L1377 298V226.69L1537.65 216V292.73Z" fill="#FCF3DC"/>
<path d="M1453.35 256.67V283.1L1439.87 270.17L1450.75 259.28L1453.35 256.67Z" fill="#0C2C3E"/>
<path d="M1459.75 276.959L1459.76 237.039L1481.52 256.099L1459.75 276.959Z" fill="#0C2C3E"/>
<path d="M1453.35 231.439V249.329L1436.22 266.679L1427.53 258.339L1450.75 234.149L1453.35 231.439Z" fill="#0C2C3E"/>
<path d="M647.2 159.82C647.2 159.82 659.19 160.2 660.71 160.94C662.24 161.68 670.32 167.5 670.32 167.5L672.77 168.06C672.77 168.06 672.7 169.07 674.06 170.16C675.42 171.24 681.1 165.8 683.05 166.96C685 168.12 692.78 171.65 692.78 171.65C692.78 171.65 683 170.51 681.05 169.34C679.1 168.18 675.19 173.44 675.19 173.44L676.05 175.12C676.05 175.12 663.71 165.55 659.13 162.9C654.55 160.24 647.2 159.82 647.2 159.82Z" fill="url(#paint23_linear_2381_6000)"/>
</g>
<defs>
<linearGradient id="paint0_linear_2381_6000" x1="955.543" y1="0.814351" x2="961.038" y2="617.13" gradientUnits="userSpaceOnUse">
<stop stop-color="#21CFC5"/>
<stop offset="1" stop-color="#ABF4CF"/>
</linearGradient>
<linearGradient id="paint1_linear_2381_6000" x1="1103.8" y1="604.058" x2="1104.31" y2="660.307" gradientUnits="userSpaceOnUse">
<stop stop-color="#85CF57"/>
<stop offset="0.2412" stop-color="#89D058"/>
<stop offset="0.4553" stop-color="#93D55C"/>
<stop offset="0.6592" stop-color="#A5DC62"/>
<stop offset="0.8555" stop-color="#BFE76B"/>
<stop offset="0.9908" stop-color="#D5F073"/>
</linearGradient>
<linearGradient id="paint2_linear_2381_6000" x1="959.024" y1="817.815" x2="957.648" y2="611.446" gradientUnits="userSpaceOnUse">
<stop stop-color="#85CF57"/>
<stop offset="0.2412" stop-color="#89D058"/>
<stop offset="0.4553" stop-color="#93D55C"/>
<stop offset="0.6592" stop-color="#A5DC62"/>
<stop offset="0.8555" stop-color="#BFE76B"/>
<stop offset="0.9908" stop-color="#D5F073"/>
</linearGradient>
<linearGradient id="paint3_linear_2381_6000" x1="457.733" y1="713.311" x2="457.086" y2="616.193" gradientUnits="userSpaceOnUse">
<stop stop-color="#85CF57"/>
<stop offset="0.2412" stop-color="#89D058"/>
<stop offset="0.4553" stop-color="#93D55C"/>
<stop offset="0.6592" stop-color="#A5DC62"/>
<stop offset="0.8555" stop-color="#BFE76B"/>
<stop offset="0.9908" stop-color="#D5F073"/>
</linearGradient>
<linearGradient id="paint4_linear_2381_6000" x1="732.69" y1="657.607" x2="1371.82" y2="657.607" gradientUnits="userSpaceOnUse">
<stop stop-color="#FFCC6E"/>
<stop offset="0.3703" stop-color="#FBC96D"/>
<stop offset="0.6985" stop-color="#F1C168"/>
<stop offset="0.9908" stop-color="#E0B461"/>
</linearGradient>
<radialGradient id="paint5_radial_2381_6000" cx="0" cy="0" r="1" gradientUnits="userSpaceOnUse" gradientTransform="translate(1058.14 571.386) scale(180.113 180.113)">
<stop stop-color="#4C5E30"/>
<stop offset="1" stop-color="#404F28"/>
</radialGradient>
<linearGradient id="paint6_linear_2381_6000" x1="650.009" y1="159.947" x2="625.555" y2="217.911" gradientUnits="userSpaceOnUse">
<stop offset="0.0223" stop-color="#B3AEB0"/>
<stop offset="0.9944" stop-color="#917471"/>
</linearGradient>
<radialGradient id="paint7_radial_2381_6000" cx="0" cy="0" r="1" gradientUnits="userSpaceOnUse" gradientTransform="translate(-1.22596 532.134) scale(213.288 213.288)">
<stop stop-color="#A2C47B"/>
<stop offset="1" stop-color="#81C436"/>
</radialGradient>
<radialGradient id="paint8_radial_2381_6000" cx="0" cy="0" r="1" gradientUnits="userSpaceOnUse" gradientTransform="translate(795.36 446.833) scale(265.824 265.824)">
<stop stop-color="#A2C47B"/>
<stop offset="1" stop-color="#81C436"/>
</radialGradient>
<linearGradient id="paint9_linear_2381_6000" x1="832.74" y1="718.387" x2="835.166" y2="816.135" gradientUnits="userSpaceOnUse">
<stop offset="0.0223" stop-color="#BA3B36"/>
<stop offset="0.9944" stop-color="#B7332E"/>
</linearGradient>
<linearGradient id="paint10_linear_2381_6000" x1="1044.4" y1="713.125" x2="1046.83" y2="810.885" gradientUnits="userSpaceOnUse">
<stop offset="0.0223" stop-color="#BA3B36"/>
<stop offset="0.9944" stop-color="#B7332E"/>
</linearGradient>
<linearGradient id="paint11_linear_2381_6000" x1="801.275" y1="854.592" x2="799.889" y2="814.384" gradientUnits="userSpaceOnUse">
<stop offset="0.0223" stop-color="#BA3B36"/>
<stop offset="0.9944" stop-color="#B7332E"/>
</linearGradient>
<linearGradient id="paint12_linear_2381_6000" x1="1071.2" y1="832.091" x2="1070.13" y2="801.087" gradientUnits="userSpaceOnUse">
<stop offset="0.0223" stop-color="#BA3B36"/>
<stop offset="0.9944" stop-color="#B7332E"/>
</linearGradient>
<linearGradient id="paint13_linear_2381_6000" x1="1071.6" y1="792.022" x2="1071.56" y2="790.822" gradientUnits="userSpaceOnUse">
<stop offset="0.0223" stop-color="#BA3B36"/>
<stop offset="0.9944" stop-color="#B7332E"/>
</linearGradient>
<linearGradient id="paint14_linear_2381_6000" x1="1086.63" y1="845.529" x2="1085.34" y2="808.138" gradientUnits="userSpaceOnUse">
<stop offset="0.0223" stop-color="#BA3B36"/>
<stop offset="0.9944" stop-color="#B7332E"/>
</linearGradient>
<linearGradient id="paint15_linear_2381_6000" x1="943.257" y1="849.724" x2="941.87" y2="809.516" gradientUnits="userSpaceOnUse">
<stop offset="0.0223" stop-color="#BA3B36"/>
<stop offset="0.9944" stop-color="#B7332E"/>
</linearGradient>
<linearGradient id="paint16_linear_2381_6000" x1="933.892" y1="750.686" x2="949.488" y2="838.373" gradientUnits="userSpaceOnUse">
<stop offset="0.0223" stop-color="#BC413D"/>
<stop offset="0.9944" stop-color="#C96662"/>
</linearGradient>
<linearGradient id="paint17_linear_2381_6000" x1="793.696" y1="784.621" x2="1069.22" y2="784.621" gradientUnits="userSpaceOnUse">
<stop offset="0.0223" stop-color="#BF4945"/>
<stop offset="0.9944" stop-color="#C96662"/>
</linearGradient>
<linearGradient id="paint18_linear_2381_6000" x1="1070.61" y1="750.873" x2="1081" y2="731.636" gradientUnits="userSpaceOnUse">
<stop offset="0.0223" stop-color="#BF4945"/>
<stop offset="0.9944" stop-color="#C96662"/>
</linearGradient>
<linearGradient id="paint19_linear_2381_6000" x1="937.144" y1="683.128" x2="937.144" y2="657.448" gradientUnits="userSpaceOnUse">
<stop offset="0.0223" stop-color="#BC413D"/>
<stop offset="0.9944" stop-color="#C96662"/>
</linearGradient>
<linearGradient id="paint20_linear_2381_6000" x1="935.317" y1="778.408" x2="942.926" y2="682.98" gradientUnits="userSpaceOnUse">
<stop offset="0.0223" stop-color="#BC413D"/>
<stop offset="0.9944" stop-color="#C96662"/>
</linearGradient>
<linearGradient id="paint21_linear_2381_6000" x1="898.262" y1="657.637" x2="905.395" y2="781.756" gradientUnits="userSpaceOnUse">
<stop stop-color="#FFDD23"/>
<stop offset="1"/>
</linearGradient>
<linearGradient id="paint22_linear_2381_6000" x1="1519.66" y1="940.583" x2="1515.53" y2="318.726" gradientUnits="userSpaceOnUse">
<stop stop-color="#81EFBB"/>
<stop offset="1" stop-color="#71C8C5"/>
</linearGradient>
<linearGradient id="paint23_linear_2381_6000" x1="-236.176" y1="958.501" x2="-283.524" y2="999.924" gradientUnits="userSpaceOnUse">
<stop offset="0.0223" stop-color="#B3AEB0"/>
<stop offset="0.9944" stop-color="#917471"/>
</linearGradient>
<clipPath id="clip0_2381_6000">
<rect width="1919" height="1000" fill="white"/>
</clipPath>
<clipPath id="clip1_2381_6000">
<rect width="1920" height="1000" fill="white"/>
</clipPath>
<clipPath id="clip2_2381_6000">
<rect width="1919" height="1000" fill="white"/>
</clipPath>
<clipPath id="clip3_2381_6000">
<rect width="1920" height="1000" fill="white"/>
</clipPath>
<clipPath id="clip4_2381_6000">
<rect width="1920" height="1000" fill="white"/>
</clipPath>
</defs>
</svg>
