<svg width="453" height="238" fill="none" xmlns="http://www.w3.org/2000/svg"><path d="M378.77 214.556H63.461c-3.347 0-6.06-2.722-6.06-6.08V9.08C57.4 5.722 60.112 3 63.46 3h315.31c3.348 0 6.061 2.722 6.061 6.08v199.384c0 3.37-2.713 6.092-6.061 6.092z" fill="#2D1E37"/><path d="M379.389 214.556H64.081c-3.348 0-6.062-2.722-6.062-6.08V9.08c0-3.358 2.714-6.08 6.062-6.08h315.308c3.348 0 6.061 2.722 6.061 6.08v199.384c0 3.37-2.713 6.092-6.061 6.092z" fill="#25192E"/><path d="M58.02 43.225v166.101c0 2.884 2.34 5.231 5.214 5.231h317.002c2.875 0 5.214-2.347 5.214-5.231V43.225H58.02z" fill="#1D1324"/><g filter="url(#filter0_d_4049_15318)"><path d="M299.422 185.579V66.106c0-1.111.896-2.01 2.004-2.01h81.979c1.107 0 2.003.899 2.003 2.01v119.46c0 1.111-.896 2.01-2.003 2.01h-81.979a1.986 1.986 0 01-2.004-1.997z" fill="#25192E"/></g><path d="M371.794 142.446h-58.743a2.215 2.215 0 01-2.215-2.222c0-1.236.996-2.222 2.215-2.222h58.743c1.233 0 2.216.999 2.216 2.222a2.215 2.215 0 01-2.216 2.222zm-33.141 33.893H313.04a2.216 2.216 0 01-2.216-2.222c0-1.236.996-2.222 2.216-2.222h25.613c1.232 0 2.215.998 2.215 2.222a2.208 2.208 0 01-2.215 2.222zm33.141-22.594h-58.743a2.216 2.216 0 01-2.215-2.222c0-1.236.996-2.222 2.215-2.222h58.743c1.233 0 2.216.999 2.216 2.222a2.216 2.216 0 01-2.216 2.222zm0 11.297h-58.743a2.216 2.216 0 01-2.215-2.222c0-1.236.996-2.222 2.215-2.222h58.743c1.233 0 2.216.998 2.216 2.222a2.216 2.216 0 01-2.216 2.222z" fill="#392944"/><path opacity=".65" d="M305.371 71.338a2.082 2.082 0 002.079-2.085 2.082 2.082 0 00-2.079-2.085 2.081 2.081 0 00-2.078 2.085c0 1.151.93 2.085 2.078 2.085z" fill="red"/><path opacity=".65" d="M313.684 71.338a2.081 2.081 0 002.078-2.085c0-1.152-.93-2.085-2.078-2.085a2.082 2.082 0 00-2.079 2.085c0 1.151.931 2.085 2.079 2.085z" fill="#F90"/><path opacity=".65" d="M324.067 69.253a2.086 2.086 0 01-2.079 2.085 2.086 2.086 0 010-4.17c1.145 0 2.079.936 2.079 2.085z" fill="#00FF0A"/><path d="M379.517 74.744h-74.183a2 2 0 00-2 2v50.131a2 2 0 002 2h74.183a2 2 0 002-2v-50.13a2 2 0 00-2-2z" fill="#271B31"/><path d="M354.994 118.102l-1.294-1.361-33.665-35.505-16.715 17.628.038 30.024 78.195-.037-.025-14.469-11.512-12.135-15.022 15.855z" fill="#392944"/><path d="M354.532 101.737c4.537 0 8.215-3.69 8.215-8.24 0-4.55-3.678-8.24-8.215-8.24-4.536 0-8.214 3.69-8.214 8.24 0 4.55 3.678 8.24 8.214 8.24z" fill="#392944"/><path d="M72.309 28.692c0-3.209 2.588-5.805 5.787-5.805h287.269c3.198 0 5.787 2.596 5.787 5.805 0 3.208-2.589 5.805-5.787 5.805H78.095c-3.198 0-5.786-2.597-5.786-5.805z" fill="#271B31"/><path opacity=".65" d="M77.252 13.312a2.63 2.63 0 01-2.626 2.634A2.63 2.63 0 0172 13.312a2.63 2.63 0 012.626-2.634c1.443-.013 2.626 1.173 2.626 2.634z" fill="red"/><path opacity=".65" d="M87.757 13.312a2.63 2.63 0 01-2.625 2.634 2.63 2.63 0 01-2.626-2.634 2.63 2.63 0 012.626-2.634c1.443-.013 2.625 1.173 2.625 2.634z" fill="#F90"/><path opacity=".65" d="M98.263 13.312a2.63 2.63 0 01-2.626 2.634 2.63 2.63 0 01-2.625-2.634 2.63 2.63 0 012.626-2.634c1.443-.013 2.625 1.173 2.625 2.634z" fill="#00FF0A"/><path d="M220.662 30.34H96.679a1.657 1.657 0 01-1.656-1.66c0-.911.735-1.66 1.656-1.66h123.983c.908 0 1.655.736 1.655 1.66a1.666 1.666 0 01-1.655 1.66zm61.764 0h-50.118a1.657 1.657 0 01-1.656-1.66c0-.911.735-1.66 1.656-1.66h50.118c.908 0 1.655.736 1.655 1.66a1.665 1.665 0 01-1.655 1.66z" fill="#392944"/><g filter="url(#filter1_d_4049_15318)"><path d="M168.568 188.139H49.651A2.65 2.65 0 0147 185.48V66.194a2.65 2.65 0 012.65-2.659h118.918a2.649 2.649 0 012.651 2.66V185.48a2.649 2.649 0 01-2.651 2.659z" fill="#25192E"/></g><path d="M51.216 65.832a2 2 0 00-2 2.001l.06 59.059a2 2 0 002 1.998H166.94a2 2 0 002-2V67.76a2 2 0 00-2.001-2l-115.724.072z" fill="#271B31"/><path d="M126.436 95.858a2.755 2.755 0 00-2.75-2.76h-9.895a14.296 14.296 0 002.253-7.702v-1.348c0-2.01-1.63-3.646-3.634-3.646-.971 0-1.755.787-1.755 1.76v3.134l-7.915 10.387a1.05 1.05 0 00-.224.65v16.328c0 .6.485 1.074 1.07 1.074h18.283a2.354 2.354 0 002.352-2.36 2.354 2.354 0 00-2.352-2.359h.883a2.549 2.549 0 002.539-2.559 2.546 2.546 0 00-2.539-2.547h.473a2.649 2.649 0 002.651-2.659 2.65 2.65 0 00-2.651-2.66h.461c1.518.026 2.75-1.21 2.75-2.733zm-27.243 20.6H93.47a1.67 1.67 0 01-1.668-1.673V96.583a1.67 1.67 0 011.668-1.673h5.724c.921 0 1.668.75 1.668 1.673v18.202a1.67 1.67 0 01-1.668 1.673zm-17.695 26.84c0 2.084-1.68 3.77-3.759 3.77a3.761 3.761 0 01-3.758-3.77 3.762 3.762 0 013.758-3.771 3.762 3.762 0 013.759 3.771zm60.621 2.046H88.727a2.058 2.058 0 01-2.053-2.06c0-1.136.92-2.059 2.053-2.059h53.392c1.132 0 2.053.923 2.053 2.059a2.05 2.05 0 01-2.053 2.06zm-60.621 12.061a3.76 3.76 0 01-3.759 3.77 3.76 3.76 0 01-3.758-3.77 3.76 3.76 0 013.758-3.77 3.76 3.76 0 013.759 3.77zm60.621 2.059H88.727a2.059 2.059 0 01-2.053-2.06c0-1.136.92-2.06 2.053-2.06h53.392c1.132 0 2.053.924 2.053 2.06 0 1.136-.921 2.06-2.053 2.06zm-60.621 12.06a3.76 3.76 0 01-3.759 3.77 3.76 3.76 0 01-3.758-3.77 3.76 3.76 0 013.758-3.77 3.76 3.76 0 013.759 3.77zm60.621 2.061H88.727a2.059 2.059 0 01-2.053-2.06c0-1.136.92-2.06 2.053-2.06h53.392c1.132 0 2.053.924 2.053 2.06 0 1.136-.921 2.06-2.053 2.06z" fill="#392944"/><g filter="url(#filter2_d_4049_15318)"><path d="M281.422 188.139h-81.793a2.649 2.649 0 01-2.65-2.659V66.194a2.649 2.649 0 012.65-2.659h81.793a2.65 2.65 0 012.651 2.66V185.48a2.65 2.65 0 01-2.651 2.659z" fill="#25192E"/></g><path d="M277.617 74.746h-74.183a2 2 0 00-2 2v50.131a2 2 0 002 2h74.183a2 2 0 002-2v-50.13a2 2 0 00-2-2z" fill="#271B31"/><path d="M240.787 118.84c-9.82 0-17.822-8.014-17.822-17.877 0-9.85 7.99-17.877 17.822-17.877 9.82 0 17.822 8.015 17.822 17.877 0 9.863-7.99 17.877-17.822 17.877zm29.109 23.608h-58.743a2.215 2.215 0 01-2.215-2.222c0-1.236.995-2.222 2.215-2.222h58.743c1.22 0 2.215.999 2.215 2.222a2.207 2.207 0 01-2.215 2.222zm-33.13 33.895h-25.613a2.216 2.216 0 01-2.215-2.222c0-1.236.995-2.223 2.215-2.223h25.613c1.232 0 2.215.999 2.215 2.223a2.224 2.224 0 01-2.215 2.222zm33.13-22.598h-58.743a2.216 2.216 0 01-2.215-2.222c0-1.236.995-2.222 2.215-2.222h58.743c1.22 0 2.215.999 2.215 2.222a2.207 2.207 0 01-2.215 2.222zm0 11.299h-58.743a2.216 2.216 0 01-2.215-2.222c0-1.236.995-2.222 2.215-2.222h58.743c1.22 0 2.215.998 2.215 2.222a2.207 2.207 0 01-2.215 2.222z" fill="#392944"/><path opacity=".65" d="M203.453 71.338a2.082 2.082 0 002.079-2.085 2.082 2.082 0 00-2.079-2.085 2.081 2.081 0 00-2.078 2.085c0 1.151.93 2.085 2.078 2.085z" fill="red"/><path opacity=".65" d="M211.766 71.338a2.081 2.081 0 002.078-2.085c0-1.152-.93-2.085-2.078-2.085a2.081 2.081 0 00-2.078 2.085c0 1.151.93 2.085 2.078 2.085z" fill="#F90"/><path opacity=".65" d="M222.149 69.253a2.086 2.086 0 01-2.078 2.085 2.086 2.086 0 010-4.17c1.144 0 2.078.936 2.078 2.085z" fill="#00FF0A"/><g filter="url(#filter3_d_4049_15318)"><path d="M418.1 113.438h-60.684c-2.626 0-4.768-2.369-4.768-5.307v-69.8a8.5 8.5 0 018.5-8.5h53.22a8.5 8.5 0 018.5 8.5v69.8c0 2.938-2.129 5.307-4.768 5.307z" fill="#25192E"/><path d="M418.1 29.83h-60.684c-2.626 0-4.768 2.078-4.768 4.653v3.937h70.22v-3.937c0-2.563-2.129-4.653-4.768-4.653z" fill="#271B31"/><path opacity=".65" d="M360.632 33.785a1.394 1.394 0 11-2.788 0c0-.774.622-1.398 1.394-1.398.772-.013 1.394.624 1.394 1.398z" fill="red"/><path opacity=".65" d="M366.706 33.785a1.394 1.394 0 11-2.788 0 1.394 1.394 0 112.788 0z" fill="#F90"/><path opacity=".65" d="M372.792 33.785a1.394 1.394 0 11-2.788 0c0-.774.622-1.398 1.394-1.398.759-.013 1.394.624 1.394 1.398z" fill="#00FF0A"/><path d="M370.737 54.31a5.378 5.378 0 01-5.376 5.392 5.378 5.378 0 01-5.377-5.393 5.378 5.378 0 015.377-5.393c2.974 0 5.376 2.422 5.376 5.393zm41.221-1.473h-35.295a1.25 1.25 0 01-1.245-1.249c0-.686.56-1.248 1.245-1.248h35.295a1.25 1.25 0 011.245 1.248 1.25 1.25 0 01-1.245 1.249zm-16.714 6.216h-18.581a1.25 1.25 0 01-1.245-1.248c0-.687.56-1.248 1.245-1.248h18.581a1.25 1.25 0 011.244 1.248c0 .687-.547 1.248-1.244 1.248zm8.547 0h-3.547A1.25 1.25 0 01399 57.806c0-.687.56-1.248 1.244-1.248h3.547a1.25 1.25 0 011.245 1.248c-.013.687-.56 1.248-1.245 1.248zm-33.054 14.145a5.378 5.378 0 01-5.376 5.393 5.378 5.378 0 01-5.377-5.393 5.378 5.378 0 015.377-5.393c2.974 0 5.376 2.422 5.376 5.393zm41.221-1.486h-35.295a1.25 1.25 0 01-1.245-1.249c0-.686.56-1.248 1.245-1.248h35.295a1.25 1.25 0 011.245 1.248c0 .7-.56 1.249-1.245 1.249zm-16.714 6.218h-18.581a1.25 1.25 0 01-1.245-1.248c0-.687.56-1.248 1.245-1.248h18.581a1.25 1.25 0 011.244 1.248c0 .7-.547 1.248-1.244 1.248zm8.547 0h-3.547A1.25 1.25 0 01399 76.682c0-.687.56-1.248 1.244-1.248h3.547a1.25 1.25 0 011.245 1.248c-.013.7-.56 1.248-1.245 1.248zm-33.054 14.157a5.378 5.378 0 01-5.376 5.393 5.378 5.378 0 01-5.377-5.394 5.378 5.378 0 015.377-5.393 5.378 5.378 0 015.376 5.394zm41.221-1.487h-35.295a1.25 1.25 0 01-1.245-1.248c0-.687.56-1.249 1.245-1.249h35.295a1.25 1.25 0 011.245 1.249 1.25 1.25 0 01-1.245 1.248zm-16.714 6.217h-18.581a1.25 1.25 0 01-1.245-1.248c0-.687.56-1.249 1.245-1.249h18.581a1.25 1.25 0 011.244 1.249c0 .699-.547 1.248-1.244 1.248zm8.547 0h-3.547A1.25 1.25 0 01399 95.57c0-.687.56-1.249 1.244-1.249h3.547a1.25 1.25 0 011.245 1.249c-.013.699-.56 1.248-1.245 1.248z" fill="#392944"/></g><g filter="url(#filter4_d_4049_15318)"><path d="M86.378 207.058H25.693c-2.626 0-4.767-3.082-4.767-6.903v-14.948a8.5 8.5 0 018.5-8.5h53.22a8.5 8.5 0 018.5 8.5v14.948c0 3.821-2.13 6.903-4.768 6.903z" fill="#25192E"/><path d="M86.378 176.707H25.693c-2.626 0-4.767 2.216-4.767 4.964v4.199h70.22v-4.199c0-2.735-2.13-4.964-4.768-4.964z" fill="#271B31"/><path opacity=".65" d="M29.089 181.232a1.394 1.394 0 11-2.788 0 1.394 1.394 0 112.788 0z" fill="red"/><path opacity=".65" d="M35.163 181.232a1.394 1.394 0 11-2.788 0 1.394 1.394 0 112.788 0z" fill="#F90"/><path opacity=".65" d="M41.247 181.232a1.394 1.394 0 11-2.788 0 1.393 1.393 0 112.788 0z" fill="#00FF0A"/><path d="M39.194 196.225a5.378 5.378 0 01-5.376 5.393 5.378 5.378 0 01-5.377-5.393 5.378 5.378 0 015.377-5.393c2.962 0 5.376 2.409 5.376 5.393zm41.221-1.486H45.12a1.25 1.25 0 01-1.245-1.248c0-.687.56-1.249 1.245-1.249h35.295a1.25 1.25 0 011.245 1.249c0 .699-.56 1.248-1.245 1.248zM63.7 200.958H45.12a1.25 1.25 0 01-1.245-1.249c0-.686.56-1.248 1.245-1.248H63.7a1.25 1.25 0 011.245 1.248c0 .699-.547 1.249-1.244 1.249zm8.548 0h-3.547a1.25 1.25 0 01-1.244-1.249c0-.686.56-1.248 1.245-1.248h3.546a1.25 1.25 0 011.245 1.248c-.013.699-.56 1.249-1.245 1.249z" fill="#392944"/></g><g filter="url(#filter5_d_4049_15318)"><path d="M58.962 53.88c-9.279 0-16.84-7.573-16.84-16.893 0-9.308 7.55-16.893 16.84-16.893 9.28 0 16.842 7.573 16.842 16.893-.012 9.32-7.562 16.894-16.842 16.894z" fill="#25192E"/><path d="M65.237 30.527c0 3.52-2.837 6.367-6.347 6.367-3.51 0-6.347-2.846-6.347-6.367 0-3.52 2.838-6.367 6.347-6.367 3.497-.012 6.347 2.847 6.347 6.367zm-5.989 23.354c4.96 0 9.42-2.19 12.56-5.666-1.833-5.361-6.755-9.223-12.56-9.223-5.806 0-11.09 3.793-12.91 9.167 3.345 3.745 7.486 5.722 12.91 5.722z" fill="#392944"/></g><g filter="url(#filter6_d_4049_15318)"><path d="M397.913 207.657H239.394c-4.966 0-8.986-4.033-8.986-9.014v-7.178c0-4.981 4.02-9.014 8.986-9.014h158.519c4.966 0 8.986 4.033 8.986 9.014v7.178c0 4.981-4.02 9.014-8.986 9.014z" fill="#25192E"/></g><path opacity=".65" d="M285.825 199.292a3.761 3.761 0 01-3.759-3.77 3.761 3.761 0 013.759-3.77 3.761 3.761 0 013.759 3.77 3.761 3.761 0 01-3.759 3.77z" fill="#00FF0A"/><path opacity=".65" d="M269.544 199.292a3.76 3.76 0 01-3.759-3.77 3.76 3.76 0 013.759-3.77 3.76 3.76 0 013.758 3.77 3.76 3.76 0 01-3.758 3.77z" fill="#F90"/><path opacity=".65" d="M253.266 199.292a3.76 3.76 0 01-3.758-3.77 3.76 3.76 0 013.758-3.77 3.76 3.76 0 013.759 3.77 3.76 3.76 0 01-3.759 3.77z" fill="red"/><defs><filter id="filter0_d_4049_15318" x="279.422" y="44.096" width="135.986" height="173.48" filterUnits="userSpaceOnUse" color-interpolation-filters="sRGB"><feFlood flood-opacity="0" result="BackgroundImageFix"/><feColorMatrix in="SourceAlpha" values="0 0 0 0 0 0 0 0 0 0 0 0 0 0 0 0 0 0 127 0" result="hardAlpha"/><feOffset dx="5" dy="5"/><feGaussianBlur stdDeviation="12.5"/><feComposite in2="hardAlpha" operator="out"/><feColorMatrix values="0 0 0 0 0 0 0 0 0 0 0 0 0 0 0 0 0 0 0.25 0"/><feBlend in2="BackgroundImageFix" result="effect1_dropShadow_4049_15318"/><feBlend in="SourceGraphic" in2="effect1_dropShadow_4049_15318" result="shape"/></filter><filter id="filter1_d_4049_15318" x="27" y="43.535" width="174.22" height="174.604" filterUnits="userSpaceOnUse" color-interpolation-filters="sRGB"><feFlood flood-opacity="0" result="BackgroundImageFix"/><feColorMatrix in="SourceAlpha" values="0 0 0 0 0 0 0 0 0 0 0 0 0 0 0 0 0 0 127 0" result="hardAlpha"/><feOffset dx="5" dy="5"/><feGaussianBlur stdDeviation="12.5"/><feComposite in2="hardAlpha" operator="out"/><feColorMatrix values="0 0 0 0 0 0 0 0 0 0 0 0 0 0 0 0 0 0 0.25 0"/><feBlend in2="BackgroundImageFix" result="effect1_dropShadow_4049_15318"/><feBlend in="SourceGraphic" in2="effect1_dropShadow_4049_15318" result="shape"/></filter><filter id="filter2_d_4049_15318" x="176.979" y="43.535" width="137.094" height="174.604" filterUnits="userSpaceOnUse" color-interpolation-filters="sRGB"><feFlood flood-opacity="0" result="BackgroundImageFix"/><feColorMatrix in="SourceAlpha" values="0 0 0 0 0 0 0 0 0 0 0 0 0 0 0 0 0 0 127 0" result="hardAlpha"/><feOffset dx="5" dy="5"/><feGaussianBlur stdDeviation="12.5"/><feComposite in2="hardAlpha" operator="out"/><feColorMatrix values="0 0 0 0 0 0 0 0 0 0 0 0 0 0 0 0 0 0 0.25 0"/><feBlend in2="BackgroundImageFix" result="effect1_dropShadow_4049_15318"/><feBlend in="SourceGraphic" in2="effect1_dropShadow_4049_15318" result="shape"/></filter><filter id="filter3_d_4049_15318" x="332.648" y="9.83" width="120.22" height="133.608" filterUnits="userSpaceOnUse" color-interpolation-filters="sRGB"><feFlood flood-opacity="0" result="BackgroundImageFix"/><feColorMatrix in="SourceAlpha" values="0 0 0 0 0 0 0 0 0 0 0 0 0 0 0 0 0 0 127 0" result="hardAlpha"/><feOffset dx="5" dy="5"/><feGaussianBlur stdDeviation="12.5"/><feComposite in2="hardAlpha" operator="out"/><feColorMatrix values="0 0 0 0 0 0 0 0 0 0 0 0 0 0 0 0 0 0 0.25 0"/><feBlend in2="BackgroundImageFix" result="effect1_dropShadow_4049_15318"/><feBlend in="SourceGraphic" in2="effect1_dropShadow_4049_15318" result="shape"/></filter><filter id="filter4_d_4049_15318" x=".926" y="156.707" width="120.22" height="80.351" filterUnits="userSpaceOnUse" color-interpolation-filters="sRGB"><feFlood flood-opacity="0" result="BackgroundImageFix"/><feColorMatrix in="SourceAlpha" values="0 0 0 0 0 0 0 0 0 0 0 0 0 0 0 0 0 0 127 0" result="hardAlpha"/><feOffset dx="5" dy="5"/><feGaussianBlur stdDeviation="12.5"/><feComposite in2="hardAlpha" operator="out"/><feColorMatrix values="0 0 0 0 0 0 0 0 0 0 0 0 0 0 0 0 0 0 0.25 0"/><feBlend in2="BackgroundImageFix" result="effect1_dropShadow_4049_15318"/><feBlend in="SourceGraphic" in2="effect1_dropShadow_4049_15318" result="shape"/></filter><filter id="filter5_d_4049_15318" x="22.121" y=".094" width="83.683" height="83.787" filterUnits="userSpaceOnUse" color-interpolation-filters="sRGB"><feFlood flood-opacity="0" result="BackgroundImageFix"/><feColorMatrix in="SourceAlpha" values="0 0 0 0 0 0 0 0 0 0 0 0 0 0 0 0 0 0 127 0" result="hardAlpha"/><feOffset dx="5" dy="5"/><feGaussianBlur stdDeviation="12.5"/><feComposite in2="hardAlpha" operator="out"/><feColorMatrix values="0 0 0 0 0 0 0 0 0 0 0 0 0 0 0 0 0 0 0.25 0"/><feBlend in2="BackgroundImageFix" result="effect1_dropShadow_4049_15318"/><feBlend in="SourceGraphic" in2="effect1_dropShadow_4049_15318" result="shape"/></filter><filter id="filter6_d_4049_15318" x="210.408" y="162.451" width="226.491" height="75.205" filterUnits="userSpaceOnUse" color-interpolation-filters="sRGB"><feFlood flood-opacity="0" result="BackgroundImageFix"/><feColorMatrix in="SourceAlpha" values="0 0 0 0 0 0 0 0 0 0 0 0 0 0 0 0 0 0 127 0" result="hardAlpha"/><feOffset dx="5" dy="5"/><feGaussianBlur stdDeviation="12.5"/><feComposite in2="hardAlpha" operator="out"/><feColorMatrix values="0 0 0 0 0 0 0 0 0 0 0 0 0 0 0 0 0 0 0.25 0"/><feBlend in2="BackgroundImageFix" result="effect1_dropShadow_4049_15318"/><feBlend in="SourceGraphic" in2="effect1_dropShadow_4049_15318" result="shape"/></filter></defs></svg>