<svg width="475" height="315" fill="none" xmlns="http://www.w3.org/2000/svg"><path d="M398.928 254H83.072A6.067 6.067 0 0177 247.936V49.064A6.067 6.067 0 0183.072 43h315.856A6.067 6.067 0 01405 49.064v198.86a6.07 6.07 0 01-6.072 6.076z" fill="#2D1E37"/><path d="M404.919 46.127V254.22a3.603 3.603 0 01-3.589 3.596H81.634a3.607 3.607 0 01-3.595-3.596V46.127a3.606 3.606 0 013.595-3.592H401.33c1.973.005 3.589 1.622 3.589 3.592z" fill="#1E1425"/><path d="M404.918 46.127v38.846H79.265c-.42 0-.823-.03-1.222-.092V46.127a3.606 3.606 0 013.594-3.592h319.697a3.607 3.607 0 013.584 3.592z" fill="#25192E"/><path d="M387.972 75.738H94.982a2.646 2.646 0 01-2.638-2.64v-9.173a2.646 2.646 0 012.638-2.64h292.99a2.646 2.646 0 012.639 2.64v9.173a2.65 2.65 0 01-2.639 2.64z" fill="#271B31"/><path d="M101.431 54.94a2.44 2.44 0 10-.001-4.88 2.44 2.44 0 00.001 4.88z" fill="red"/><path d="M226.638 70.32H102.655A1.657 1.657 0 01101 68.66c0-.91.734-1.66 1.655-1.66h123.983c.909 0 1.655.737 1.655 1.66a1.664 1.664 0 01-1.655 1.66zm61.764 0h-50.118a1.657 1.657 0 01-1.655-1.66c0-.91.734-1.66 1.655-1.66h50.118c.909 0 1.656.737 1.656 1.66a1.666 1.666 0 01-1.656 1.66z" fill="#392944"/><path d="M112.111 54.94a2.44 2.44 0 10-.001-4.88 2.44 2.44 0 00.001 4.88z" fill="#F90"/><path d="M122.599 54.94a2.44 2.44 0 10-.001-4.88 2.44 2.44 0 00.001 4.88z" fill="#00FF0A"/><path d="M389.469 168.19H93.488c-.629 0-1.14-.511-1.14-1.141v-67.65c0-.63.511-1.141 1.14-1.141h295.981c.629 0 1.14.511 1.14 1.14v67.646c0 .635-.511 1.146-1.14 1.146z" fill="#25192E"/><path d="M176.687 139.569H164.96v-4.58h10.997v-6.001H164.96v-4.6h11.727v-6.654H156.59v28.489h20.097v-6.654zm-14.451-23.671c1.816 0 3.119-1.342 3.119-2.961 0-1.639-1.303-2.961-3.119-2.961-1.816 0-3.119 1.322-3.119 2.961 0 1.619 1.303 2.961 3.119 2.961zm8.766 0c1.816 0 3.119-1.342 3.119-2.961 0-1.639-1.303-2.961-3.119-2.961-1.817 0-3.12 1.322-3.12 2.961 0 1.619 1.303 2.961 3.12 2.961zm24.303 30.325c6.1 0 10.048-3.297 10.048-8.292 0-3.771-3.218-6.673-7.067-6.772v-.158c3.297-.414 5.784-2.882 5.784-6.159 0-4.442-3.415-7.108-9.239-7.108h-13.998v28.489h14.472zm-6.101-22.744h3.356c2.113 0 3.376 1.066 3.376 2.824 0 1.717-1.342 2.842-3.494 2.842h-3.238v-5.666zm0 16.999v-6.535h3.633c2.507 0 4.007 1.184 4.007 3.218 0 2.152-1.48 3.317-4.066 3.317h-3.574zm27.284-16.564h3.475c2.25 0 3.771 1.52 3.771 3.632 0 2.152-1.442 3.593-3.791 3.593h-3.455v-7.225zm0 12.753h2.744l4.502 9.556h9.358l-5.41-10.799c2.981-1.422 4.6-4.66 4.6-8.016 0-6.1-3.909-9.674-11.51-9.674h-12.655v28.489h8.371v-9.556zm37.985 9.556h8.923l-9.298-28.489h-10.503l-9.299 28.489h8.529l1.48-5.666h8.687l1.481 5.666zm-5.903-21.914h.158l2.744 10.345h-5.647l2.745-10.345zm25.29 21.914v-15.005h.158l11.075 15.005h6.416v-28.489h-7.897v14.768h-.157l-10.997-14.768h-6.495v28.489h7.897zm21.598-28.489v28.489h12.181c8.627 0 13.721-5.331 13.721-14.452 0-9.121-5.074-14.037-13.721-14.037h-12.181zm8.371 6.654h2.625c4.008 0 6.377 2.586 6.377 7.383 0 5.252-2.191 7.798-6.377 7.798h-2.625v-15.181z" fill="#392944"/><g filter="url(#filter0_d_3320_9231)"><path d="M425.928 51.861h-7.788a4.216 4.216 0 00-3.669 2.14l-.656 1.16a5.527 5.527 0 01-4.811 2.809h-29.161a5.528 5.528 0 01-4.811-2.809l-.656-1.16a4.216 4.216 0 00-3.669-2.14h-7.788c-4.597 0-8.319 3.73-8.319 8.324v151.392c0 4.599 3.727 8.324 8.319 8.324h62.999c4.597 0 8.319-3.73 8.319-8.324V60.185a8.303 8.303 0 00-8.309-8.324z" fill="#25192E"/><path d="M409.353 118.514h-17.981v-7.023h16.861v-9.202h-16.861v-7.053h17.981v-10.2h-30.815v43.679h30.815v-10.201zM387.195 82.22c2.785 0 4.783-2.058 4.783-4.54 0-2.513-1.998-4.54-4.783-4.54s-4.783 2.027-4.783 4.54c0 2.482 1.998 4.54 4.783 4.54zm13.44 0c2.785 0 4.783-2.058 4.783-4.54 0-2.513-1.998-4.54-4.783-4.54s-4.783 2.027-4.783 4.54c0 2.482 1.998 4.54 4.783 4.54zm-22.684 61.495c1.858 0 2.978-.932 2.978-2.47 0-1.163-.799-2.004-1.985-2.137v-.049c.871-.145 1.555-.974 1.555-1.901 0-1.319-1.017-2.179-2.567-2.179h-3.487v8.736h3.506zm-2.15-7.628h1.805c.98 0 1.537.448 1.537 1.259 0 .866-.647 1.35-1.822 1.35h-1.52v-2.609zm0 6.52v-2.876h1.792c1.284 0 1.95.485 1.95 1.429 0 .944-.648 1.447-1.871 1.447h-1.871zm7.653-6.49h1.864c1.048 0 1.683.593 1.683 1.568 0 .999-.599 1.574-1.646 1.574h-1.901v-3.142zm0 4.238h1.864l1.78 3.36h1.562l-1.955-3.572c1.065-.357 1.695-1.314 1.695-2.494 0-1.629-1.12-2.67-2.918-2.67h-3.384v8.736h1.356v-3.36zm11.95 3.36h1.435l-3.154-8.736h-1.465l-3.154 8.736h1.41l.8-2.361h3.329l.799 2.361zm-2.482-7.283h.037l1.301 3.832h-2.639l1.301-3.832zm6.199 7.283v-6.436h.055l4.528 6.436h1.223v-8.736h-1.32v6.441h-.048l-4.528-6.441h-1.229v8.736h1.319zm7.423-8.736v8.736h3.081c2.603 0 4.135-1.623 4.135-4.383 0-2.755-1.538-4.353-4.135-4.353h-3.081zm1.356 1.168h1.598c1.846 0 2.876 1.139 2.876 3.197 0 2.064-1.023 3.196-2.876 3.196H407.9v-6.393zm9.443 33.554h-44.356a4.549 4.549 0 01-4.536-4.538v-2.717a4.55 4.55 0 014.536-4.538h44.356a4.55 4.55 0 014.536 4.538v2.717a4.549 4.549 0 01-4.536 4.538zm0 16.869h-44.356a4.549 4.549 0 01-4.536-4.538v-2.717a4.55 4.55 0 014.536-4.538h44.356a4.55 4.55 0 014.536 4.538v2.717a4.549 4.549 0 01-4.536 4.538z" fill="#392944"/></g><path d="M166.618 239.869H94.42a2.078 2.078 0 01-2.076-2.077v-54.246c0-1.146.93-2.077 2.076-2.077h72.198c1.145 0 2.076.931 2.076 2.077v54.246a2.078 2.078 0 01-2.076 2.077z" fill="#25192E"/><g filter="url(#filter1_d_3320_9231)"><path d="M435.911 270.205H277.392c-4.966 0-8.986-4.032-8.986-9.013v-7.178c0-4.982 4.02-9.014 8.986-9.014h158.519c4.966 0 8.986 4.032 8.986 9.014v7.178c0 4.981-4.02 9.013-8.986 9.013z" fill="#25192E"/></g><path d="M323.823 261.841a3.761 3.761 0 01-3.759-3.77 3.761 3.761 0 013.759-3.77 3.761 3.761 0 013.759 3.77 3.761 3.761 0 01-3.759 3.77z" fill="#00FF0A"/><path d="M307.544 261.841a3.76 3.76 0 01-3.759-3.77 3.76 3.76 0 013.759-3.77 3.76 3.76 0 013.758 3.77 3.76 3.76 0 01-3.758 3.77z" fill="#F90"/><path d="M291.264 261.841a3.76 3.76 0 01-3.758-3.77 3.76 3.76 0 013.758-3.77 3.76 3.76 0 013.759 3.77 3.76 3.76 0 01-3.759 3.77z" fill="red"/><path d="M67.447 102.469c12.87 0 23.305-10.44 23.305-23.32 0-12.879-10.434-23.319-23.305-23.319-12.872 0-23.306 10.44-23.306 23.32 0 12.878 10.434 23.319 23.306 23.319z" fill="#25192E"/><path d="M55.672 78.683l6.948-3.249a.603.603 0 00.353-.552v-2.804a.604.604 0 00-.89-.532l-10.931 5.76a.613.613 0 00-.328.538v2.835c0 .225.128.43.328.537l10.931 5.796c.4.22.89-.071.89-.532v-2.778a.608.608 0 00-.348-.547l-6.964-3.377a.604.604 0 01.01-1.095zm14.607-10.687h-1.31a.607.607 0 00-.592.491l-4.147 21.11a.611.611 0 00.593.726h1.268a.607.607 0 00.593-.491l4.193-21.11a.61.61 0 00-.598-.726zm13.684 9.356L73.02 71.556a.607.607 0 00-.89.537v2.747c0 .24.133.45.348.553l6.99 3.325c.465.22.465.88.004 1.095l-7.005 3.356a.624.624 0 00-.337.553v2.773c0 .46.486.752.89.537l10.942-5.812a.603.603 0 00.317-.537v-2.799a.607.607 0 00-.317-.532zm166.291 114.967h-61.241a1.119 1.119 0 01-1.115-1.115v-5.511c0-.613.502-1.115 1.115-1.115h61.246c.613 0 1.114.502 1.114 1.115v5.511c0 .619-.501 1.115-1.119 1.115zm-43.958 14.934h-17.283a1.118 1.118 0 01-1.115-1.115v-3.648c0-.614.502-1.115 1.115-1.115h17.283c.613 0 1.114.501 1.114 1.115v3.648c0 .614-.501 1.115-1.114 1.115zm99.738 27.485h-17.283a1.118 1.118 0 01-1.114-1.115v-3.648c0-.614.501-1.116 1.114-1.116h17.283c.614 0 1.115.502 1.115 1.116v3.648c0 .613-.496 1.115-1.115 1.115zm-25.105-27.485H214.33a1.117 1.117 0 01-1.115-1.115v-3.648c0-.614.501-1.115 1.115-1.115h66.604c.613 0 1.114.501 1.114 1.115v3.648a1.121 1.121 0 01-1.119 1.115zm-7.716 12.805h-66.604a1.117 1.117 0 01-1.115-1.115v-3.648c0-.614.501-1.115 1.115-1.115h66.604c.614 0 1.115.501 1.115 1.115v3.648c0 .614-.501 1.115-1.115 1.115zm79.018 0h-66.605a1.117 1.117 0 01-1.114-1.115v-3.648c0-.614.501-1.115 1.114-1.115h66.605c.613 0 1.114.501 1.114 1.115v3.648c0 .614-.501 1.115-1.114 1.115zm-50.987-12.805h-10.661a1.117 1.117 0 01-1.114-1.115v-3.648c0-.614.501-1.115 1.114-1.115h10.667c.613 0 1.114.501 1.114 1.115v3.648a1.122 1.122 0 01-1.12 1.115zm27.627 27.485h-10.666a1.118 1.118 0 01-1.115-1.115v-3.648c0-.614.501-1.116 1.115-1.116h10.666c.613 0 1.114.502 1.114 1.116v3.648c0 .613-.496 1.115-1.114 1.115z" fill="#392944"/><path d="M199.675 220.058h-10.666a1.117 1.117 0 01-1.114-1.115v-3.648c0-.614.501-1.115 1.114-1.115h10.666c.614 0 1.115.501 1.115 1.115v3.648c0 .614-.496 1.115-1.115 1.115z" fill="#43344C"/><path d="M255.612 234.738h-66.599a1.119 1.119 0 01-1.115-1.115v-3.648c0-.614.502-1.116 1.115-1.116h66.604c.614 0 1.115.502 1.115 1.116v3.648a1.122 1.122 0 01-1.12 1.115zm20.618 0h-10.666a1.118 1.118 0 01-1.115-1.115v-3.648c0-.614.501-1.116 1.115-1.116h10.666c.614 0 1.115.502 1.115 1.116v3.648c0 .613-.501 1.115-1.115 1.115zm-156.761-24.073v-9.799c0-1.824 1.903-3.023 3.548-2.237l10.825 5.17 9.689 4.629c1.881.898 1.881 3.576 0 4.475l-9.689 4.628-10.825 5.171c-1.645.786-3.548-.414-3.548-2.238v-9.799z" fill="#392944"/><g filter="url(#filter2_d_3320_9231)"><path d="M110.099 216.731H49.414c-2.626 0-4.767-2.369-4.767-5.307v-69.801a8.5 8.5 0 018.5-8.5h53.219a8.5 8.5 0 018.5 8.5v69.801c0 2.938-2.128 5.307-4.767 5.307z" fill="#25192E"/><path d="M110.099 133.123H49.414c-2.626 0-4.767 2.078-4.767 4.653v3.937h70.219v-3.937c0-2.563-2.128-4.653-4.767-4.653z" fill="#271B31"/><path d="M52.63 137.078a1.394 1.394 0 11-2.788 0c0-.774.622-1.398 1.394-1.398.772-.013 1.394.624 1.394 1.398z" fill="red"/><path d="M58.702 137.078a1.394 1.394 0 11-2.788 0 1.394 1.394 0 112.788 0z" fill="#F90"/><path d="M64.788 137.078a1.394 1.394 0 11-2.788 0c0-.774.622-1.398 1.394-1.398.76-.013 1.394.624 1.394 1.398z" fill="#00FF0A"/><path d="M62.735 157.602a5.378 5.378 0 01-5.376 5.393 5.378 5.378 0 01-5.377-5.393 5.378 5.378 0 015.377-5.393c2.974 0 5.376 2.422 5.376 5.393zm41.219-1.472H68.659a1.25 1.25 0 01-1.245-1.249c0-.686.56-1.248 1.245-1.248h35.295a1.25 1.25 0 011.245 1.248 1.25 1.25 0 01-1.245 1.249zm-16.714 6.216H68.659a1.25 1.25 0 01-1.245-1.248c0-.687.56-1.248 1.245-1.248h18.58a1.25 1.25 0 011.245 1.248c0 .687-.547 1.248-1.244 1.248zm8.547 0h-3.546a1.25 1.25 0 01-1.245-1.248c0-.687.56-1.248 1.245-1.248h3.546a1.25 1.25 0 011.245 1.248c-.013.687-.56 1.248-1.245 1.248zm-33.054 14.145a5.379 5.379 0 01-5.376 5.393 5.379 5.379 0 01-5.377-5.393 5.378 5.378 0 015.377-5.393c2.974 0 5.376 2.422 5.376 5.393zm41.221-1.486H68.659a1.25 1.25 0 01-1.245-1.249c0-.686.56-1.248 1.245-1.248h35.295a1.25 1.25 0 011.245 1.248c0 .699-.56 1.249-1.245 1.249zm-16.714 6.218H68.659a1.25 1.25 0 01-1.245-1.248c0-.687.56-1.248 1.245-1.248h18.58a1.25 1.25 0 011.245 1.248c0 .699-.547 1.248-1.244 1.248zm8.547 0h-3.546a1.25 1.25 0 01-1.245-1.248c0-.687.56-1.248 1.245-1.248h3.546a1.25 1.25 0 011.245 1.248 1.25 1.25 0 01-1.245 1.248zm-33.054 14.156a5.379 5.379 0 01-5.376 5.394 5.379 5.379 0 01-5.377-5.394 5.379 5.379 0 015.377-5.393 5.379 5.379 0 015.376 5.393zm41.221-1.486H68.659a1.25 1.25 0 010-2.497h35.295a1.25 1.25 0 010 2.497zM87.24 200.11H68.659a1.25 1.25 0 01-1.245-1.248c0-.687.56-1.249 1.245-1.249h18.58a1.25 1.25 0 011.245 1.249c0 .699-.547 1.248-1.244 1.248zm8.547 0h-3.546a1.25 1.25 0 01-1.245-1.248c0-.687.56-1.249 1.245-1.249h3.546a1.25 1.25 0 010 2.497z" fill="#392944"/></g><defs><filter id="filter0_d_3320_9231" x="334.762" y="32.024" width="134.191" height="222.593" filterUnits="userSpaceOnUse" color-interpolation-filters="sRGB"><feFlood flood-opacity="0" result="BackgroundImageFix"/><feColorMatrix in="SourceAlpha" values="0 0 0 0 0 0 0 0 0 0 0 0 0 0 0 0 0 0 127 0" result="hardAlpha"/><feOffset dx="7.439" dy="7.439"/><feGaussianBlur stdDeviation="13.638"/><feComposite in2="hardAlpha" operator="out"/><feColorMatrix values="0 0 0 0 0 0 0 0 0 0 0 0 0 0 0 0 0 0 0.25 0"/><feBlend in2="BackgroundImageFix" result="effect1_dropShadow_3320_9231"/><feBlend in="SourceGraphic" in2="effect1_dropShadow_3320_9231" result="shape"/></filter><filter id="filter1_d_3320_9231" x="248.406" y="225" width="226.491" height="75.205" filterUnits="userSpaceOnUse" color-interpolation-filters="sRGB"><feFlood flood-opacity="0" result="BackgroundImageFix"/><feColorMatrix in="SourceAlpha" values="0 0 0 0 0 0 0 0 0 0 0 0 0 0 0 0 0 0 127 0" result="hardAlpha"/><feOffset dx="5" dy="5"/><feGaussianBlur stdDeviation="12.5"/><feComposite in2="hardAlpha" operator="out"/><feColorMatrix values="0 0 0 0 0 0 0 0 0 0 0 0 0 0 0 0 0 0 0.25 0"/><feBlend in2="BackgroundImageFix" result="effect1_dropShadow_3320_9231"/><feBlend in="SourceGraphic" in2="effect1_dropShadow_3320_9231" result="shape"/></filter><filter id="filter2_d_3320_9231" x="24.646" y="113.123" width="120.22" height="133.607" filterUnits="userSpaceOnUse" color-interpolation-filters="sRGB"><feFlood flood-opacity="0" result="BackgroundImageFix"/><feColorMatrix in="SourceAlpha" values="0 0 0 0 0 0 0 0 0 0 0 0 0 0 0 0 0 0 127 0" result="hardAlpha"/><feOffset dx="5" dy="5"/><feGaussianBlur stdDeviation="12.5"/><feComposite in2="hardAlpha" operator="out"/><feColorMatrix values="0 0 0 0 0 0 0 0 0 0 0 0 0 0 0 0 0 0 0.25 0"/><feBlend in2="BackgroundImageFix" result="effect1_dropShadow_3320_9231"/><feBlend in="SourceGraphic" in2="effect1_dropShadow_3320_9231" result="shape"/></filter></defs></svg>