<svg width="614" height="428" fill="none" xmlns="http://www.w3.org/2000/svg"><g clip-path="url(#clip0_3774_27246)"><g filter="url(#filter0_f_3774_27246)"><ellipse cx="317" cy="354.5" rx="238" ry="42.5" fill="url(#paint0_linear_3774_27246)"/></g><path d="M562.315 335.803H75.25V18.801a12.794 12.794 0 0112.8-12.796h461.4a12.803 12.803 0 0112.185 7.806 12.787 12.787 0 011.011 4.99l-.33 317.002z" fill="url(#paint1_linear_3774_27246)"/><path d="M562.065 335.803H75V18.801A12.794 12.794 0 0187.8 6.005h461.4a12.803 12.803 0 0112.185 7.806 12.787 12.787 0 011.011 4.99l-.33 317.002z" fill="#1F1E27"/><path d="M555.256 20.21v301.915c0 2.872-2.345 5.218-5.208 5.218H86.215c-2.863 0-5.215-2.346-5.215-5.218V20.211C81 17.346 83.352 15 86.215 15h463.833c2.863.007 5.208 2.353 5.208 5.21z" fill="#26242F"/><path d="M601 335v1.462a14.177 14.177 0 01-1.28 4.992c-.718 1.529-1.698 2.845-2.873 3.858-5.375 5.123-11.871 8.148-18.654 8.688H56.807c-6.783-.54-13.279-3.565-18.654-8.688-1.175-1.013-2.155-2.329-2.873-3.858a14.167 14.167 0 01-1.28-4.992V335h567z" fill="#1E1D26"/><path d="M601.442 337.979v2.111a9.827 9.827 0 01-4.157 7.19H38.038a9.837 9.837 0 01-4.157-7.19v-2.111a2.176 2.176 0 012.177-2.176h563.206a2.177 2.177 0 012.178 2.176z" fill="#26242F"/><path d="M331.338 334.768H279c.133 1.367.833 2.639 1.962 3.565 1.129.925 2.604 1.436 4.133 1.431h72.876c1.522.004 2.989-.509 4.107-1.435 1.118-.927 1.805-2.199 1.922-3.561h-32.662z" fill="#B3B3B3" opacity=".45"/><path d="M357.598 340.404H285.02a6.676 6.676 0 01-4.387-1.591 6.443 6.443 0 01-2.211-4.045h.396a5.722 5.722 0 001.875 3.786 5.935 5.935 0 003.997 1.526h72.578a5.87 5.87 0 003.972-1.53 5.66 5.66 0 001.834-3.782h.396a6.44 6.44 0 01-1.934 3.824 6.656 6.656 0 01-3.938 1.812z" fill="#fff" fill-opacity=".15"/><path d="M549.449 7.126a11.743 11.743 0 0111.745 11.675v315.881H76.372V18.802A11.673 11.673 0 0188.05 7.125h461.4zm0-1.12H88.05A12.802 12.802 0 0075.25 18.8v317.002h487.065V18.801a12.787 12.787 0 00-3.888-9.19 12.802 12.802 0 00-9.308-3.606h.33z" fill="#3E3C4B" fill-opacity=".15"/></g><path d="M413.92 278.328h-68.91a3.522 3.522 0 000 7.044h68.91a3.522 3.522 0 000-7.044zm-182.46 0h-68.922a3.522 3.522 0 000 7.044h68.922a3.522 3.522 0 100-7.044z" fill="#3E3C4B"/><path d="M279.746 254.552a5 5 0 015-5h2.837a5 5 0 015 5v15.07a2 2 0 002 2h36.039a5 5 0 015 5V288a5 5 0 01-5 5H245.86a5 5 0 01-5-5v-11.378a5 5 0 015-5h31.886a2 2 0 002-2v-15.07z" fill="#3B3947"/><circle cx="288.748" cy="139.425" r="103.117" fill="#4F4D5B"/><path d="M288.769 36.308c-56.971 0-103.138 46.172-103.138 103.113 0 56.948 46.167 103.12 103.138 103.12 56.944 0 103.096-46.172 103.096-103.12 0-56.941-46.152-103.113-103.096-103.113zm-10.651 32.918h5.016v-5.96h-4.401V47.907h6.27v-7.845l.365-.828c1.104-.028 2.234-.108 3.401-.108 4.994 0 9.937.391 14.734 1.124v5.155h7.199v19.579h-5.482l-4.725 4.692-11.422 11.47-5.939 5.946-5.016-5.019V69.226zm-19.259-25.518l1.856 1.865-3.306 3.284h-5.638v5.627h11.901V80.5h-9.077V61.685h-6.292v-9.094h-4.051v5.322l-3.919 3.93h-9.248l-2.538-2.543a99.69 99.69 0 0130.312-15.592zm32.721 145.534h-8.446l-4.401 6.277v14.098l-12.859 9.412v16.915l-14.43-13.152v-34.485L236.1 173.885v-17.539l-10.654-7.832h-9.41l-6.732-6.751v-9.244l-4.525-2.808-1.294 3.439 2.208 1.253v7.855l-5.641-6.903-2.823-10.985-2.516-.626v-19.163a100.482 100.482 0 0122.822-35.666l31.394.311-1.225 6.582-9.417.62.946 3.124 2.192 2.521-2.506 4.061-7.529-.92 4.406 5.96 7.501 5.308 2.509 5.951 3.123-.926V86.134h8.481v1.9h8.782v10.63h-3.754v4.401h-3.769v2.819h5.32l-3.439 3.452-1.403-1.406-3.315 3.277v2.821l-2.963 2.994-3.763 3.756-4.391 4.387-2.954 2.982v9.396h-4.118v-5.025h-13.459v5.669l13.168 12.537h26.321v2.502h9.422l10.338 13.153h8.147v22.863zm79.916-58.303v8.161H358.03l-6.611-6.582v-4.371h-3.877v6.131l8.927 8.911h10.185v7.36l-9.265 9.247v26.009h-7.024v13.311l-5.486 5.475h-12.916v-11.842l-6.964-6.944v-21.812l-8.652-8.651h-18.12l-7.128-7.134v-18.053l6.126-6.079h10.334l6.58-6.588h7.866v3.451h24.107v-4.222h-6.083l3.586-3.61 3.458-3.452h5.923l-3.74-3.721h-5.604l-5.919 5.91v4.635l-6.327-6.36h-3.934l5.793 5.796h-4.702l-3.762-3.766v-2.509l-5.638-5.634-4.23 4.229-3.61 3.609v6.57h-7.209v-13.152h2.659v-2.351l1.712-1.725-3.099-3.13-4.1 4.072-3.289-3.306 1.751-1.71v-9.405h6.568v3.763l5.612 5.642h4.112V92.71h12.523v-4.378h5.019v-6.258h-5.308v-5.961h-2.827v11.921l-2.224 2.176-4.372-1.877-7.529-1.878.606-7.195 7.561-5.64 4.372-7.528 8.151-1.878-.921 3.756 5.312.93-.295 3.749 5.933-.625 2.84-1.872.603-3.115h12.564c19.078 18.25 31.001 43.939 31.001 72.384 0 1.536-.042 3.046-.118 4.581l-21.819-21.831-2.193 2.198 6.577 6.57z" fill="#3E3C4B"/><g filter="url(#filter1_d_3774_27246)"><rect x="372.187" y="171" width="110.492" height="110.492" rx="7" transform="rotate(10 372.187 171)" fill="#26242F"/></g><g clip-path="url(#clip1_3774_27246)"><path d="M443.826 237.255l-14.402-2.54a2.433 2.433 0 01-1.977-2.823l1.27-7.201a9.75 9.75 0 0119.202 3.386l-1.27 7.201a2.435 2.435 0 01-2.823 1.977zm-11.155-6.917l9.601 1.693.846-4.801a4.874 4.874 0 10-9.601-1.693l-.846 4.801z" fill="#646675"/><path d="M426.038 253.918a2.436 2.436 0 01-1.977-2.824l2.116-12.001a2.436 2.436 0 00-1.977-2.824l-33.604-5.925a7.313 7.313 0 00-8.471 5.931l-1.269 7.201a7.313 7.313 0 005.931 8.471l38.404 6.771a2.439 2.439 0 002.824-1.977 2.438 2.438 0 00-1.977-2.823z" fill="#3E3C4B"/><path d="M396.103 239.111a1.157 1.157 0 00-.776-.512 1.165 1.165 0 00-.904.215l-1.831 1.262-1.289-1.812a1.21 1.21 0 00-1.68-.296 1.206 1.206 0 00-.297 1.68l1.261 1.831-1.811 1.29a1.206 1.206 0 101.384 1.976l1.831-1.261 1.29 1.811a1.187 1.187 0 00.778.496 1.205 1.205 0 001.198-1.88l-1.261-1.831 1.811-1.289a1.178 1.178 0 00.512-.776 1.165 1.165 0 00-.216-.904zm9.602 1.693a1.178 1.178 0 00-.776-.512 1.167 1.167 0 00-.904.216l-1.831 1.261-1.29-1.811a1.2 1.2 0 00-1.249-.486 1.215 1.215 0 00-.756.529 1.205 1.205 0 00.029 1.341l1.261 1.831-1.811 1.289a1.205 1.205 0 101.383 1.976l1.832-1.261 1.289 1.812a1.21 1.21 0 001.68.296 1.203 1.203 0 00.486-1.249 1.192 1.192 0 00-.19-.431l-1.261-1.831 1.812-1.29a1.166 1.166 0 00.497-1.25 1.162 1.162 0 00-.201-.43zm7.493 4.662l1.811-1.289a1.208 1.208 0 00-.482-2.177 1.21 1.21 0 00-.901.2l-1.832 1.261-1.289-1.811a1.204 1.204 0 00-1.68-.296 1.202 1.202 0 00-.296 1.68l1.261 1.831-1.812 1.289a1.21 1.21 0 00-.296 1.68 1.208 1.208 0 001.68.297l1.831-1.261 1.29 1.811a1.196 1.196 0 00.779.496 1.2 1.2 0 00.901-.2 1.214 1.214 0 00.496-.779 1.2 1.2 0 00-.2-.901l-1.261-1.831z" fill="#E82F84"/><path d="M444.673 232.454l-14.402-2.54a7.313 7.313 0 00-8.471 5.931l-2.539 14.402a7.312 7.312 0 005.931 8.471l14.402 2.539a7.313 7.313 0 008.471-5.931l2.539-14.402a7.311 7.311 0 00-5.931-8.47z" fill="#302E3B"/><path d="M440.156 244.033a4.87 4.87 0 00-1.645-4.595 4.877 4.877 0 00-6.878.578 4.874 4.874 0 00.594 6.876l-.542 3.072a2.44 2.44 0 001.977 2.824 2.44 2.44 0 002.824-1.977l.542-3.073a4.877 4.877 0 003.128-3.705z" fill="#646675"/></g><g filter="url(#filter2_d_3774_27246)"><rect x="28" y="73.628" width="145.385" height="145.385" rx="7" transform="rotate(-15 28 73.628)" fill="#26242F"/></g><g clip-path="url(#clip2_3774_27246)"><path fill-rule="evenodd" clip-rule="evenodd" d="M70.278 98.038a12.806 12.806 0 00-9.056 15.686l1.657 6.185a12.806 12.806 0 0015.686 9.057l34.022-9.116 4.972 18.557a9.605 9.605 0 00-6.792 11.765l-34.021 9.115a3.205 3.205 0 00-2.265 3.922 3.2 3.2 0 003.922 2.264l34.021-9.116a9.603 9.603 0 0011.765 6.792l6.185-1.657a9.603 9.603 0 006.793-11.765l34.021-9.116a3.2 3.2 0 10-1.658-6.185l-34.021 9.116a9.605 9.605 0 00-11.765-6.793l-4.972-18.556 34.021-9.116a12.81 12.81 0 009.057-15.686l-1.658-6.186a12.81 12.81 0 00-15.686-9.057l-74.228 19.89zm8.066 17.728a3.205 3.205 0 002.264-3.922 3.204 3.204 0 00-5.866-.772 3.203 3.203 0 003.602 4.694zm12.37-3.315a3.2 3.2 0 10-1.655-6.184 3.2 3.2 0 001.656 6.184z" fill="#3E3C4B"/><circle cx="78.167" cy="112.767" r="4.154" transform="rotate(-15 78.167 112.767)" fill="#E82F84"/><circle cx="90.203" cy="109.542" r="4.154" transform="rotate(-15 90.203 109.542)" fill="#E82F84"/><circle cx="101.822" cy="106.428" r="4.154" transform="rotate(-15 101.822 106.428)" fill="#E82F84"/><circle cx="123.786" cy="149.282" r="4.154" transform="rotate(-15 123.786 149.282)" fill="#646675"/></g><rect x="280" y="277" width="12" height="11" rx="2" fill="#646675"/><defs><clipPath id="clip0_3774_27246"><path fill="#fff" transform="translate(21)" d="M0 0h593v428H0z"/></clipPath><clipPath id="clip1_3774_27246"><path fill="#fff" transform="rotate(10 -892.16 2297.294)" d="M0 0h77.994v77.994H0z"/></clipPath><clipPath id="clip2_3774_27246"><path fill="#fff" transform="rotate(-15 365.236 -162.841)" d="M0 0h102.462v102.462H0z"/></clipPath><filter id="filter0_f_3774_27246" x="24" y="257" width="586" height="195" filterUnits="userSpaceOnUse" color-interpolation-filters="sRGB"><feFlood flood-opacity="0" result="BackgroundImageFix"/><feBlend in="SourceGraphic" in2="BackgroundImageFix" result="shape"/><feGaussianBlur stdDeviation="27.5" result="effect1_foregroundBlur_3774_27246"/></filter><filter id="filter1_d_3774_27246" x="325.414" y="143.414" width="197.519" height="197.518" filterUnits="userSpaceOnUse" color-interpolation-filters="sRGB"><feFlood flood-opacity="0" result="BackgroundImageFix"/><feColorMatrix in="SourceAlpha" values="0 0 0 0 0 0 0 0 0 0 0 0 0 0 0 0 0 0 127 0" result="hardAlpha"/><feOffset dx="7.174" dy="7.174"/><feGaussianBlur stdDeviation="17.934"/><feComposite in2="hardAlpha" operator="out"/><feColorMatrix values="0 0 0 0 0 0 0 0 0 0 0 0 0 0 0 0 0 0 0.25 0"/><feBlend in2="BackgroundImageFix" result="effect1_dropShadow_3774_27246"/><feBlend in="SourceGraphic" in2="effect1_dropShadow_3774_27246" result="shape"/></filter><filter id="filter2_d_3774_27246" x=".877" y="8.877" width="246.651" height="246.651" filterUnits="userSpaceOnUse" color-interpolation-filters="sRGB"><feFlood flood-opacity="0" result="BackgroundImageFix"/><feColorMatrix in="SourceAlpha" values="0 0 0 0 0 0 0 0 0 0 0 0 0 0 0 0 0 0 127 0" result="hardAlpha"/><feOffset dx="7.174" dy="7.174"/><feGaussianBlur stdDeviation="17.934"/><feComposite in2="hardAlpha" operator="out"/><feColorMatrix values="0 0 0 0 0 0 0 0 0 0 0 0 0 0 0 0 0 0 0.25 0"/><feBlend in2="BackgroundImageFix" result="effect1_dropShadow_3774_27246"/><feBlend in="SourceGraphic" in2="effect1_dropShadow_3774_27246" result="shape"/></filter><linearGradient id="paint0_linear_3774_27246" x1="317" y1="312" x2="317" y2="397" gradientUnits="userSpaceOnUse"><stop stop-color="#2D1631"/><stop offset="0" stop-color="#0D020D"/><stop offset="1" stop-color="#0D020D" stop-opacity="0"/></linearGradient><linearGradient id="paint1_linear_3774_27246" x1="415.971" y1="-61.076" x2="217.543" y2="423.243" gradientUnits="userSpaceOnUse"><stop stop-color="#18171E"/><stop offset="1" stop-color="#201E2F"/></linearGradient></defs></svg>