<svg width="643" height="478" fill="none" xmlns="http://www.w3.org/2000/svg"><g filter="url(#filter0_f_3048_5424)"><ellipse cx="314" cy="380.5" rx="238" ry="42.5" fill="url(#paint0_linear_3048_5424)"/></g><path d="M559.315 361.803H72.25V44.801a12.802 12.802 0 0112.8-12.796h461.4a12.803 12.803 0 0112.185 7.806 12.787 12.787 0 011.011 4.99l-.33 317.002z" fill="url(#paint1_linear_3048_5424)"/><path d="M559.315 361.803H72.25V44.801a12.802 12.802 0 0112.8-12.796h461.4a12.803 12.803 0 0112.185 7.806 12.787 12.787 0 011.011 4.99l-.33 317.002z" fill="#1F1E27"/><path d="M598 361v1.462a14.177 14.177 0 01-1.28 4.992c-.718 1.529-1.698 2.845-2.873 3.858-5.375 5.123-11.871 8.148-18.654 8.688H53.807c-6.783-.54-13.279-3.565-18.654-8.688-1.175-1.013-2.155-2.329-2.873-3.858a14.167 14.167 0 01-1.28-4.992V361h567z" fill="#1E1D26"/><path d="M598.442 363.979v2.111a9.827 9.827 0 01-4.157 7.19H35.038a9.837 9.837 0 01-4.157-7.19v-2.111a2.176 2.176 0 012.177-2.176h563.206a2.177 2.177 0 012.178 2.176z" fill="#26242F"/><path d="M328.338 360.768H276c.133 1.367.833 2.639 1.962 3.565 1.129.925 2.604 1.436 4.133 1.431h72.876c1.522.004 2.989-.509 4.107-1.435 1.118-.927 1.805-2.199 1.922-3.561h-32.662z" fill="#B3B3B3" opacity=".45"/><path d="M354.598 366.404H282.02a6.676 6.676 0 01-4.387-1.591 6.443 6.443 0 01-2.211-4.045h.396a5.722 5.722 0 001.875 3.786 5.935 5.935 0 003.997 1.526h72.578a5.87 5.87 0 003.972-1.53 5.66 5.66 0 001.834-3.782h.396a6.44 6.44 0 01-1.934 3.824 6.656 6.656 0 01-3.938 1.812z" fill="#fff" fill-opacity=".15"/><path d="M546.449 33.127A11.743 11.743 0 01558.194 44.8v315.881H73.372V44.802A11.673 11.673 0 0185.05 33.126h461.4zm0-1.122H85.05a12.802 12.802 0 00-12.8 12.796v317.002h487.065V44.801a12.787 12.787 0 00-3.888-9.19 12.803 12.803 0 00-9.308-3.606h.33z" fill="#3E3C4B" fill-opacity=".15"/><path d="M559.315 361.803H72.25V44.801a12.802 12.802 0 0112.8-12.796h461.4a12.803 12.803 0 0112.185 7.806 12.787 12.787 0 011.011 4.99l-.33 317.002z" fill="url(#paint2_linear_3048_5424)"/><path d="M559.315 361.803H72.25V44.801a12.802 12.802 0 0112.8-12.796h461.4a12.803 12.803 0 0112.185 7.806 12.787 12.787 0 011.011 4.99l-.33 317.002z" fill="#1F1E27"/><path d="M598.442 364.903v1.188a9.827 9.827 0 01-4.157 7.189 34.123 34.123 0 01-18.672 7.058H53.71a34.124 34.124 0 01-18.672-7.058 9.823 9.823 0 01-4.157-7.189v-1.188h567.561z" fill="#1E1D26"/><path d="M598.442 363.979v2.111a9.827 9.827 0 01-4.157 7.19H35.038a9.837 9.837 0 01-4.157-7.19v-2.111a2.176 2.176 0 012.177-2.176h563.206a2.177 2.177 0 012.178 2.176z" fill="#26242F"/><path d="M328.338 360.768H276c.133 1.367.833 2.639 1.962 3.565 1.129.925 2.604 1.436 4.133 1.431h72.876c1.522.004 2.989-.509 4.107-1.435 1.118-.927 1.805-2.199 1.922-3.561h-32.662z" fill="#B3B3B3" opacity=".45"/><path d="M354.598 366.404H282.02a6.676 6.676 0 01-4.387-1.591 6.443 6.443 0 01-2.211-4.045h.396a5.722 5.722 0 001.875 3.786 5.935 5.935 0 003.997 1.526h72.578a5.87 5.87 0 003.972-1.53 5.66 5.66 0 001.834-3.782h.396a6.44 6.44 0 01-1.934 3.824 6.656 6.656 0 01-3.938 1.812z" fill="#fff" fill-opacity=".15"/><path d="M546.449 33.127A11.743 11.743 0 01558.194 44.8v315.881H73.372V44.802A11.673 11.673 0 0185.05 33.126h461.4zm0-1.122H85.05a12.802 12.802 0 00-12.8 12.796v317.002h487.065V44.801a12.787 12.787 0 00-3.888-9.19 12.803 12.803 0 00-9.308-3.606h.33z" fill="#3E3C4B" fill-opacity=".15"/><path d="M543.281 349.236H89.719c-4.816 0-8.719-3.908-8.719-8.73V54.182c0-4.823 3.903-8.73 8.719-8.73H543.28c4.816 0 8.719 3.907 8.719 8.73v286.306c0 4.84-3.903 8.748-8.719 8.748z" fill="#302E3C"/><path d="M81 103.41v238.321c0 4.138 3.366 7.505 7.501 7.505H544.5c4.135 0 7.501-3.367 7.501-7.505V103.41H81z" fill="#272530"/><g filter="url(#filter1_d_3048_5424)"><path d="M428.002 307.402V136.268a2.87 2.87 0 012.866-2.879h117.268a2.87 2.87 0 012.866 2.879v171.116a2.87 2.87 0 01-2.866 2.879H430.868c-1.584.018-2.866-1.269-2.866-2.861z" fill="#302E3B"/></g><path d="M532.285 245.736h-84.279a3.178 3.178 0 01-3.178-3.186 3.178 3.178 0 013.178-3.186h84.279a3.178 3.178 0 013.179 3.186 3.178 3.178 0 01-3.179 3.186zm-47.547 48.593h-36.747a3.178 3.178 0 01-3.179-3.186 3.178 3.178 0 013.179-3.186h36.747a3.177 3.177 0 013.178 3.186c.018 1.754-1.41 3.186-3.178 3.186zm47.547-32.396h-84.279a3.178 3.178 0 01-3.178-3.186 3.177 3.177 0 013.178-3.185h84.279a3.177 3.177 0 013.179 3.185 3.178 3.178 0 01-3.179 3.186zm0 16.199h-84.279a3.178 3.178 0 01-3.178-3.186 3.178 3.178 0 013.178-3.186h84.279a3.178 3.178 0 013.179 3.186 3.178 3.178 0 01-3.179 3.186z" fill="#3E3C4B"/><path d="M436.99 143.787a2.986 2.986 0 002.981-2.989 2.985 2.985 0 00-2.981-2.989 2.985 2.985 0 00-2.982 2.989 2.986 2.986 0 002.982 2.989z" fill="red"/><path d="M448.917 143.787a2.986 2.986 0 002.982-2.989 2.985 2.985 0 00-2.982-2.989 2.984 2.984 0 00-2.981 2.989 2.985 2.985 0 002.981 2.989z" fill="#F90"/><path d="M463.811 140.798a2.991 2.991 0 01-2.982 2.989 2.99 2.99 0 010-5.978 2.99 2.99 0 012.982 2.989z" fill="#00FF0A"/><path d="M543.368 148.672h-106.43a2.87 2.87 0 00-2.87 2.869v71.869a2.87 2.87 0 002.87 2.869h106.43a2.87 2.87 0 002.87-2.869v-71.869a2.87 2.87 0 00-2.87-2.869z" fill="#3E3C4B"/><path d="M508.188 210.833l-1.857-1.951-48.3-50.903-23.98 25.273.053 43.046 112.188-.054-.036-20.744-16.516-17.398-21.552 22.731z" fill="#646675"/><path d="M507.523 187.37c6.509 0 11.785-5.289 11.785-11.813 0-6.524-5.276-11.813-11.785-11.813s-11.785 5.289-11.785 11.813c0 6.524 5.276 11.813 11.785 11.813z" fill="#646675"/><path d="M102.615 82.648c0-4.6 3.714-8.323 8.303-8.323h412.146c4.589 0 8.303 3.723 8.303 8.323 0 4.6-3.714 8.323-8.303 8.323H110.918c-4.589 0-8.303-3.723-8.303-8.323z" fill="#3E3C4B"/><path d="M109.706 60.596a3.773 3.773 0 01-3.767 3.777 3.772 3.772 0 01-3.767-3.777 3.772 3.772 0 013.767-3.776c2.071-.018 3.767 1.682 3.767 3.776z" fill="red"/><path d="M124.777 60.596a3.773 3.773 0 01-3.768 3.777 3.772 3.772 0 01-3.767-3.777 3.772 3.772 0 013.767-3.776c2.072-.018 3.768 1.682 3.768 3.776z" fill="#F90"/><path d="M139.849 60.596a3.773 3.773 0 01-3.767 3.777 3.773 3.773 0 01-3.768-3.777 3.773 3.773 0 013.768-3.776c2.071-.018 3.767 1.682 3.767 3.776z" fill="#00FF0A"/><path d="M315.455 85.011H137.576a2.377 2.377 0 01-2.375-2.38 2.377 2.377 0 012.375-2.381h177.879a2.377 2.377 0 012.375 2.38c-.018 1.325-1.072 2.381-2.375 2.381zm88.614 0h-71.905a2.376 2.376 0 01-2.375-2.38 2.377 2.377 0 012.375-2.381h71.905a2.377 2.377 0 012.375 2.38c-.018 1.325-1.072 2.381-2.375 2.381z" fill="#302E3B"/><g filter="url(#filter2_d_3048_5424)"><path d="M221.43 311.246H50.819a3.8 3.8 0 01-3.803-3.812V136.415a3.8 3.8 0 013.803-3.812H221.43a3.8 3.8 0 013.804 3.812v171.019a3.8 3.8 0 01-3.804 3.812z" fill="#302E3B"/></g><path d="M53.066 135.895a2.87 2.87 0 00-2.868 2.872l.084 84.667a2.87 2.87 0 002.87 2.867h165.946a2.869 2.869 0 002.869-2.869V138.66a2.869 2.869 0 00-2.871-2.869l-166.03.104z" fill="#3E3C4B"/><path d="M160.977 178.941a3.952 3.952 0 00-3.946-3.955h-14.195a20.498 20.498 0 003.231-11.043v-1.933c0-2.882-2.339-5.227-5.214-5.227a2.518 2.518 0 00-2.517 2.524v4.492l-11.356 14.892a1.504 1.504 0 00-.322.931v23.411c0 .859.697 1.539 1.536 1.539h26.23a3.377 3.377 0 003.375-3.383c0-1.861-1.5-3.383-3.375-3.383h1.268c2.017 0 3.642-1.646 3.642-3.669a3.65 3.65 0 00-3.642-3.651h.678a3.8 3.8 0 003.803-3.813 3.799 3.799 0 00-3.803-3.812h.661c2.178.036 3.946-1.736 3.946-3.92zm-39.084 29.534h-8.213a2.396 2.396 0 01-2.393-2.399V179.98a2.396 2.396 0 012.393-2.398h8.213a2.396 2.396 0 012.393 2.398v26.096a2.396 2.396 0 01-2.393 2.399z" fill="#646675"/><path d="M96.51 246.956a5.394 5.394 0 01-5.393 5.405 5.394 5.394 0 01-5.392-5.405 5.394 5.394 0 015.392-5.405 5.394 5.394 0 015.392 5.405zm86.975 2.935h-76.601a2.953 2.953 0 01-2.946-2.953 2.953 2.953 0 012.946-2.954h76.601a2.953 2.953 0 012.946 2.954 2.941 2.941 0 01-2.946 2.953zM96.51 267.182a5.394 5.394 0 01-5.393 5.405 5.394 5.394 0 01-5.392-5.405 5.395 5.395 0 015.392-5.406 5.395 5.395 0 015.392 5.406zm86.973 2.951h-76.601a2.952 2.952 0 01-2.946-2.953 2.952 2.952 0 012.946-2.953h76.601a2.952 2.952 0 012.946 2.953 2.952 2.952 0 01-2.946 2.953zM96.51 287.424a5.394 5.394 0 01-5.393 5.405 5.394 5.394 0 01-5.392-5.405 5.394 5.394 0 015.392-5.405 5.394 5.394 0 015.392 5.405zm86.975 2.953h-76.601a2.952 2.952 0 01-2.946-2.953 2.952 2.952 0 012.946-2.953h76.601a2.952 2.952 0 012.946 2.953 2.952 2.952 0 01-2.946 2.953z" fill="#3E3C4B"/><g filter="url(#filter3_d_3048_5424)"><path d="M402.628 311.246H285.28a3.799 3.799 0 01-3.803-3.812V136.415a3.799 3.799 0 013.803-3.812h117.348c2.107 0 3.803 1.7 3.803 3.812v171.019a3.799 3.799 0 01-3.803 3.812z" fill="#302E3B"/></g><path d="M397.168 148.675H290.737a2.87 2.87 0 00-2.87 2.869v71.869a2.87 2.87 0 002.87 2.869h106.431a2.87 2.87 0 002.869-2.869v-71.869a2.869 2.869 0 00-2.869-2.869z" fill="#3E3C4B"/><path d="M344.327 211.892c-14.088 0-25.569-11.491-25.569-25.631 0-14.121 11.463-25.63 25.569-25.63 14.088 0 25.57 11.491 25.57 25.63 0 14.14-11.464 25.631-25.57 25.631z" fill="#646675"/><path d="M386.09 245.738h-84.279a3.177 3.177 0 01-3.178-3.186 3.177 3.177 0 013.178-3.186h84.279a3.19 3.19 0 013.179 3.186c.017 1.754-1.411 3.186-3.179 3.186zm-47.532 48.594h-36.747a3.177 3.177 0 01-3.178-3.186 3.177 3.177 0 013.178-3.186h36.747a3.178 3.178 0 013.179 3.186 3.19 3.19 0 01-3.179 3.186zm47.532-32.397h-84.279a3.177 3.177 0 01-3.178-3.186 3.177 3.177 0 013.178-3.186h84.279a3.19 3.19 0 013.179 3.186c.017 1.754-1.411 3.186-3.179 3.186zm0 16.199h-84.279a3.177 3.177 0 01-3.178-3.186 3.177 3.177 0 013.178-3.186h84.279a3.19 3.19 0 013.179 3.186c.017 1.754-1.411 3.186-3.179 3.186z" fill="#3E3C4B"/><path d="M290.765 143.79a2.986 2.986 0 002.982-2.989 2.985 2.985 0 00-2.982-2.989 2.985 2.985 0 00-2.982 2.989 2.986 2.986 0 002.982 2.989z" fill="red"/><path d="M302.693 143.79a2.986 2.986 0 002.981-2.989 2.985 2.985 0 00-2.981-2.989 2.985 2.985 0 00-2.982 2.989 2.986 2.986 0 002.982 2.989z" fill="#F90"/><path d="M317.588 140.801a2.99 2.99 0 01-2.981 2.989 2.991 2.991 0 01-2.982-2.989 2.99 2.99 0 012.982-2.989 2.99 2.99 0 012.981 2.989z" fill="#00FF0A"/><g filter="url(#filter4_d_3048_5424)"><path d="M592.19 203.454h-86.684c-3.752 0-6.811-3.388-6.811-7.587V96.139c0-6.735 5.46-12.195 12.195-12.195h75.915c6.735 0 12.195 5.46 12.195 12.195v99.728c0 4.199-3.041 7.587-6.81 7.587z" fill="#302E3B"/></g><path d="M592.19 83.944h-86.684c-3.752 0-6.811 2.97-6.811 6.652v5.627H599v-5.627c0-3.665-3.041-6.652-6.81-6.652z" fill="#3E3C4B"/><path d="M510.1 89.599a1.992 1.992 0 11-3.983 0c0-1.107.889-2 1.992-2 1.102-.017 1.991.893 1.991 2z" fill="red"/><path d="M518.776 89.598a1.992 1.992 0 11-3.983 0 1.992 1.992 0 113.983 0z" fill="#F90"/><path d="M527.467 89.599a1.992 1.992 0 11-3.983 0c0-1.107.889-2 1.992-2 1.084-.017 1.991.893 1.991 2z" fill="#00FF0A"/><path d="M524.532 118.935c0 4.264-3.431 7.708-7.68 7.708s-7.68-3.444-7.68-7.708c0-4.265 3.431-7.709 7.68-7.709s7.68 3.461 7.68 7.709zm58.882-2.106h-50.417a1.787 1.787 0 01-1.778-1.785c0-.981.8-1.784 1.778-1.784h50.417c.978 0 1.778.803 1.778 1.784 0 .982-.8 1.785-1.778 1.785zm-23.875 8.886h-26.542a1.786 1.786 0 01-1.778-1.784c0-.982.8-1.785 1.778-1.785h26.542c.977 0 1.777.803 1.777 1.785 0 .981-.782 1.784-1.777 1.784zm12.207 0h-5.066a1.786 1.786 0 01-1.778-1.784c0-.982.8-1.785 1.778-1.785h5.066c.978 0 1.778.803 1.778 1.785-.018.981-.8 1.784-1.778 1.784zm-47.214 20.219c0 4.264-3.431 7.708-7.68 7.708s-7.68-3.444-7.68-7.708c0-4.265 3.431-7.709 7.68-7.709s7.68 3.461 7.68 7.709zm58.882-2.123h-50.417a1.786 1.786 0 01-1.778-1.784c0-.982.8-1.785 1.778-1.785h50.417c.978 0 1.778.803 1.778 1.785 0 .999-.8 1.784-1.778 1.784zm-23.875 8.886h-26.542a1.787 1.787 0 01-1.778-1.785c0-.981.8-1.784 1.778-1.784h26.542c.978 0 1.778.803 1.778 1.784 0 1-.783 1.785-1.778 1.785zm12.207 0h-5.066a1.787 1.787 0 01-1.778-1.785c0-.981.8-1.784 1.778-1.784h5.066c.978 0 1.778.803 1.778 1.784-.018 1-.8 1.785-1.778 1.785zm-47.214 20.235c0 4.264-3.431 7.709-7.68 7.709s-7.68-3.445-7.68-7.709c0-4.265 3.431-7.709 7.68-7.709s7.68 3.444 7.68 7.709zm58.882-2.123h-50.417a1.786 1.786 0 01-1.778-1.784c0-.982.8-1.785 1.778-1.785h50.417c.978 0 1.778.803 1.778 1.785 0 .981-.8 1.784-1.778 1.784zm-23.875 8.886h-26.542a1.787 1.787 0 01-1.778-1.785c0-.981.8-1.784 1.778-1.784h26.542c.977 0 1.777.803 1.777 1.784 0 1-.782 1.785-1.777 1.785zm12.207 0h-5.066a1.787 1.787 0 01-1.778-1.785c0-.981.8-1.784 1.778-1.784h5.066c.978 0 1.778.803 1.778 1.784-.018 1-.8 1.785-1.778 1.785z" fill="#3E3C4B"/><g filter="url(#filter5_d_3048_5424)"><path d="M122.799 338.368H35.735c-3.769 0-6.84-4.418-6.84-9.896v-21.423c0-6.735 5.46-12.195 12.195-12.195h76.354c6.735 0 12.195 5.46 12.195 12.195v21.423c0 5.478-3.054 9.896-6.84 9.896z" fill="#302E3B"/></g><path d="M122.799 294.854H35.735c-3.769 0-6.84 3.178-6.84 7.117v6.02h100.744v-6.02c0-3.921-3.054-7.117-6.84-7.117z" fill="#3E3C4B"/><path d="M40.61 301.343a1.999 1.999 0 11-4 0 2 2 0 114 0z" fill="red"/><path d="M49.324 301.343a1.999 1.999 0 11-4 0 2 2 0 114 0z" fill="#F90"/><path d="M58.049 301.343a1.999 1.999 0 11-4 0 2 2 0 012-2.005c1.09 0 2 .895 2 2.005z" fill="#00FF0A"/><path d="M55.103 322.839c0 4.277-3.446 7.732-7.714 7.732-4.267 0-7.713-3.455-7.713-7.732 0-4.278 3.446-7.733 7.713-7.733 4.25 0 7.714 3.455 7.714 7.733zm59.14-2.131h-50.64a1.793 1.793 0 01-1.785-1.79c0-.985.804-1.79 1.786-1.79h50.639c.982 0 1.785.805 1.785 1.79 0 1.002-.803 1.79-1.785 1.79zm-23.98 8.914h-26.66a1.793 1.793 0 01-1.785-1.79c0-.985.804-1.79 1.786-1.79h26.659c.982 0 1.785.805 1.785 1.79a1.77 1.77 0 01-1.785 1.79zm12.263 0h-5.088a1.793 1.793 0 01-1.786-1.79c0-.985.804-1.79 1.786-1.79h5.088c.982 0 1.786.805 1.786 1.79-.018 1.002-.804 1.79-1.786 1.79z" fill="#3E3C4B"/><g filter="url(#filter6_d_3048_5424)"><path d="M83.463 118.76c-13.313 0-24.162-10.858-24.162-24.22 0-13.344 10.832-24.22 24.162-24.22 13.313 0 24.162 10.859 24.162 24.22-.017 13.362-10.849 24.22-24.162 24.22z" fill="url(#paint3_linear_3048_5424)"/><path d="M83.463 118.76c-13.313 0-24.162-10.858-24.162-24.22 0-13.344 10.832-24.22 24.162-24.22 13.313 0 24.162 10.859 24.162 24.22-.017 13.362-10.849 24.22-24.162 24.22z" fill="#3E3C4B"/></g><path d="M92.467 85.278c0 5.047-4.071 9.128-9.107 9.128-5.035 0-9.106-4.081-9.106-9.128 0-5.048 4.071-9.129 9.106-9.129 5.018-.017 9.107 4.081 9.107 9.129zm-8.594 33.481c7.116 0 13.515-3.139 18.02-8.123-2.63-7.687-9.69-13.223-18.02-13.223s-15.91 5.437-18.521 13.143c4.8 5.369 10.74 8.203 18.521 8.203z" fill="#646675"/><g filter="url(#filter7_d_3048_5424)"><path d="M569.758 339.227H342.329c-7.124 0-12.891-5.782-12.891-12.923v-10.292c0-7.141 5.767-12.922 12.891-12.922h227.429c7.124 0 12.892 5.781 12.892 12.922v10.292c0 7.141-5.768 12.923-12.892 12.923z" fill="#3E3C4B"/></g><path d="M408.945 327.235a5.393 5.393 0 01-5.392-5.405 5.393 5.393 0 1110.785 0 5.394 5.394 0 01-5.393 5.405z" fill="#00FF0A"/><path d="M385.586 327.235a5.394 5.394 0 01-5.393-5.405 5.393 5.393 0 1110.785 0 5.393 5.393 0 01-5.392 5.405z" fill="#F90"/><path d="M362.232 327.235a5.393 5.393 0 01-5.392-5.405 5.393 5.393 0 1110.785 0 5.394 5.394 0 01-5.393 5.405z" fill="red"/><defs><filter id="filter0_f_3048_5424" x="21" y="283" width="586" height="195" filterUnits="userSpaceOnUse" color-interpolation-filters="sRGB"><feFlood flood-opacity="0" result="BackgroundImageFix"/><feBlend in="SourceGraphic" in2="BackgroundImageFix" result="shape"/><feGaussianBlur stdDeviation="27.5" result="effect1_foregroundBlur_3048_5424"/></filter><filter id="filter1_d_3048_5424" x="399.308" y="104.695" width="194.735" height="248.61" filterUnits="userSpaceOnUse" color-interpolation-filters="sRGB"><feFlood flood-opacity="0" result="BackgroundImageFix"/><feColorMatrix in="SourceAlpha" values="0 0 0 0 0 0 0 0 0 0 0 0 0 0 0 0 0 0 127 0" result="hardAlpha"/><feOffset dx="7.174" dy="7.174"/><feGaussianBlur stdDeviation="17.934"/><feComposite in2="hardAlpha" operator="out"/><feColorMatrix values="0 0 0 0 0 0 0 0 0 0 0 0 0 0 0 0 0 0 0.25 0"/><feBlend in2="BackgroundImageFix" result="effect1_dropShadow_3048_5424"/><feBlend in="SourceGraphic" in2="effect1_dropShadow_3048_5424" result="shape"/></filter><filter id="filter2_d_3048_5424" x="18.322" y="103.908" width="249.953" height="250.379" filterUnits="userSpaceOnUse" color-interpolation-filters="sRGB"><feFlood flood-opacity="0" result="BackgroundImageFix"/><feColorMatrix in="SourceAlpha" values="0 0 0 0 0 0 0 0 0 0 0 0 0 0 0 0 0 0 127 0" result="hardAlpha"/><feOffset dx="7.174" dy="7.174"/><feGaussianBlur stdDeviation="17.934"/><feComposite in2="hardAlpha" operator="out"/><feColorMatrix values="0 0 0 0 0 0 0 0 0 0 0 0 0 0 0 0 0 0 0.25 0"/><feBlend in2="BackgroundImageFix" result="effect1_dropShadow_3048_5424"/><feBlend in="SourceGraphic" in2="effect1_dropShadow_3048_5424" result="shape"/></filter><filter id="filter3_d_3048_5424" x="252.782" y="103.908" width="196.689" height="250.379" filterUnits="userSpaceOnUse" color-interpolation-filters="sRGB"><feFlood flood-opacity="0" result="BackgroundImageFix"/><feColorMatrix in="SourceAlpha" values="0 0 0 0 0 0 0 0 0 0 0 0 0 0 0 0 0 0 127 0" result="hardAlpha"/><feOffset dx="7.174" dy="7.174"/><feGaussianBlur stdDeviation="17.934"/><feComposite in2="hardAlpha" operator="out"/><feColorMatrix values="0 0 0 0 0 0 0 0 0 0 0 0 0 0 0 0 0 0 0.25 0"/><feBlend in2="BackgroundImageFix" result="effect1_dropShadow_3048_5424"/><feBlend in="SourceGraphic" in2="effect1_dropShadow_3048_5424" result="shape"/></filter><filter id="filter4_d_3048_5424" x="470.001" y="55.25" width="172.04" height="191.245" filterUnits="userSpaceOnUse" color-interpolation-filters="sRGB"><feFlood flood-opacity="0" result="BackgroundImageFix"/><feColorMatrix in="SourceAlpha" values="0 0 0 0 0 0 0 0 0 0 0 0 0 0 0 0 0 0 127 0" result="hardAlpha"/><feOffset dx="7.174" dy="7.174"/><feGaussianBlur stdDeviation="17.934"/><feComposite in2="hardAlpha" operator="out"/><feColorMatrix values="0 0 0 0 0 0 0 0 0 0 0 0 0 0 0 0 0 0 0.25 0"/><feBlend in2="BackgroundImageFix" result="effect1_dropShadow_3048_5424"/><feBlend in="SourceGraphic" in2="effect1_dropShadow_3048_5424" result="shape"/></filter><filter id="filter5_d_3048_5424" x=".2" y="266.16" width="172.479" height="115.249" filterUnits="userSpaceOnUse" color-interpolation-filters="sRGB"><feFlood flood-opacity="0" result="BackgroundImageFix"/><feColorMatrix in="SourceAlpha" values="0 0 0 0 0 0 0 0 0 0 0 0 0 0 0 0 0 0 127 0" result="hardAlpha"/><feOffset dx="7.174" dy="7.174"/><feGaussianBlur stdDeviation="17.934"/><feComposite in2="hardAlpha" operator="out"/><feColorMatrix values="0 0 0 0 0 0 0 0 0 0 0 0 0 0 0 0 0 0 0.25 0"/><feBlend in2="BackgroundImageFix" result="effect1_dropShadow_3048_5424"/><feBlend in="SourceGraphic" in2="effect1_dropShadow_3048_5424" result="shape"/></filter><filter id="filter6_d_3048_5424" x="30.607" y="41.626" width="120.059" height="120.175" filterUnits="userSpaceOnUse" color-interpolation-filters="sRGB"><feFlood flood-opacity="0" result="BackgroundImageFix"/><feColorMatrix in="SourceAlpha" values="0 0 0 0 0 0 0 0 0 0 0 0 0 0 0 0 0 0 127 0" result="hardAlpha"/><feOffset dx="7.174" dy="7.174"/><feGaussianBlur stdDeviation="17.934"/><feComposite in2="hardAlpha" operator="out"/><feColorMatrix values="0 0 0 0 0 0 0 0 0 0 0 0 0 0 0 0 0 0 0.25 0"/><feBlend in2="BackgroundImageFix" result="effect1_dropShadow_3048_5424"/><feBlend in="SourceGraphic" in2="effect1_dropShadow_3048_5424" result="shape"/></filter><filter id="filter7_d_3048_5424" x="300.743" y="274.396" width="324.947" height="107.872" filterUnits="userSpaceOnUse" color-interpolation-filters="sRGB"><feFlood flood-opacity="0" result="BackgroundImageFix"/><feColorMatrix in="SourceAlpha" values="0 0 0 0 0 0 0 0 0 0 0 0 0 0 0 0 0 0 127 0" result="hardAlpha"/><feOffset dx="7.174" dy="7.174"/><feGaussianBlur stdDeviation="17.934"/><feComposite in2="hardAlpha" operator="out"/><feColorMatrix values="0 0 0 0 0 0 0 0 0 0 0 0 0 0 0 0 0 0 0.25 0"/><feBlend in2="BackgroundImageFix" result="effect1_dropShadow_3048_5424"/><feBlend in="SourceGraphic" in2="effect1_dropShadow_3048_5424" result="shape"/></filter><linearGradient id="paint0_linear_3048_5424" x1="314" y1="338" x2="314" y2="423" gradientUnits="userSpaceOnUse"><stop stop-color="#2D1631"/><stop offset="0" stop-color="#0D020D"/><stop offset="1" stop-color="#0D020D" stop-opacity="0"/></linearGradient><linearGradient id="paint1_linear_3048_5424" x1="412.971" y1="-35.076" x2="214.543" y2="449.243" gradientUnits="userSpaceOnUse"><stop stop-color="#18171E"/><stop offset="1" stop-color="#201E2F"/></linearGradient><linearGradient id="paint2_linear_3048_5424" x1="412.971" y1="-35.076" x2="214.543" y2="449.243" gradientUnits="userSpaceOnUse"><stop stop-color="#18171E"/><stop offset="1" stop-color="#201E2F"/></linearGradient><linearGradient id="paint3_linear_3048_5424" x1="59.31" y1="94.637" x2="107.621" y2="94.637" gradientUnits="userSpaceOnUse"><stop offset=".387" stop-color="#0A59B6"/><stop offset=".944" stop-color="#2482F1"/></linearGradient></defs></svg>