<svg width="424" height="398" fill="none" xmlns="http://www.w3.org/2000/svg"><path d="M423.5 391.7H1.8v5.8h421.7v-5.8z" fill="#87B2E3"/><path d="M62.8 343.9s-.7 2-1.4 4.6c-.7 2.5-1.5 5.6-1.6 7.7l1.2.1c.1-1.9.9-5 1.6-7.5.4-1.3.7-2.4 1-3.2.3-.8.4-1.3.4-1.3l-1.2-.4zm-10.9 1.001s0 .2.1.6c.1 1.1.3 3.7.3 6.6 0 1.3 0 2.7-.2 4l1.2.1c.1-1.3.2-2.8.2-4.1 0-3.9-.4-7.3-.4-7.3l-1.2.1zm-6 8c0 .1.3.3.5.8.2.4.4 1 .4 1.5H48c0-.9-.3-1.6-.6-2.2-.3-.5-.6-.9-.6-.9l-.9.8z" fill="#0C1D2E"/><path d="M61.3 345.1s-6.2-7.9 3.3-24.3c9.6-16.4 29.4-20.4 30.3-18.3.9 2.1-10 6.2-13.1 18.9-3 12.6-3.4 19.6-7.3 23.4-3.7 3.8-8.8 5.3-13.2.3z" fill="url(#paint0_linear_3290_8203)"/><path d="M61.3 345.1s-6.2-7.9 3.3-24.3c9.6-16.4 29.4-20.4 30.3-18.3.9 2.1-10 6.2-13.1 18.9-3 12.6-3.4 19.6-7.3 23.4-3.7 3.8-8.8 5.3-13.2.3z" fill="url(#paint1_linear_3290_8203)"/><path d="M48.5 346.7s-.7-8.9-16.8-13.9S.3 337.1 1 339.1c.7 1.9 10.3-2 19.9 4.4 9.6 6.4 14 10.7 18.8 10.9 4.7.3 9-1.8 8.8-7.7z" fill="url(#paint2_linear_3290_8203)"/><path d="M58.2 340.9s10.7-11.5-1.7-30c-12.5-18.5-39.9-19.8-40.8-17.2-.9 2.6 10.8 7.4 15.3 21.9 4.5 14.5 7 21.8 11.7 26 4.7 4.1 10.8 5.5 15.5-.7z" fill="url(#paint3_linear_3290_8203)"/><path d="M58.2 340.9s10.7-11.5-1.7-30c-12.5-18.5-39.9-19.8-40.8-17.2-.9 2.6 10.8 7.4 15.3 21.9 4.5 14.5 7 21.8 11.7 26 4.7 4.1 10.8 5.5 15.5-.7z" fill="url(#paint4_linear_3290_8203)"/><path d="M63.9 342.7h-.2c-.3-.1-.5-.4-.4-.7.3-1 7-24.7 19.3-33.8.3-.2.7-.1.9.1.2.3.1.7-.1.9-12 8.8-18.8 32.9-18.9 33.1-.1.2-.4.4-.6.4zm-12.5-2.999c-.3 0-.5-.2-.6-.5 0-.1 0-.2-.1-.7-.6-8.3-4.1-36-26.4-41.9-.3-.1-.5-.4-.4-.7.1-.3.4-.5.7-.4 23.1 6 26.8 34.4 27.3 43v.4c.1.3-.1.6-.4.7 0 .1 0 .1-.1.1zM43.9 350.7c-.3 0-.5-.2-1.4-1.1-10-9.1-19.7-13.4-28.7-12.8-.3 0-.6-.2-.6-.6 0-.3.2-.6.6-.6 9.4-.6 19.3 3.8 29.6 13.1.4.3.7.7.9.8.2.1.3.2.4.4.1.3-.1.7-.4.8h-.4z" fill="#E6E7E8" fill-opacity=".15"/><path d="M68.8 391.999H37.4c-.8 0-1.5-.5-1.7-1.3l-8.2-35.5h51.1l-8.2 35.5c-.1.7-.8 1.3-1.6 1.3z" fill="#BEE1F4"/><path d="M29.9 365.5h46.4l2.4-10.3H27.6l2.3 10.3z" fill="#7AABBC"/><path d="M28 357.2h50.2l.5-2H27.6l.4 2z" fill="#BEE1F4"/><path d="M348.791 37H172.302c-6.742 0-10.113 0-12.207 2.094C158 41.19 158 44.56 158 51.302v83.096c0 6.742 0 10.113 2.095 12.207 2.094 2.095 5.465 2.095 12.207 2.095h176.489c6.742 0 10.113 0 12.207-2.095 2.095-2.094 2.095-5.465 2.095-12.207V51.302c0-6.742 0-10.113-2.095-12.208C358.904 37 355.533 37 348.791 37z" fill="#221828"/><path d="M167.01 43.007c0 1.144-1.001 2.145-2.145 2.145-1.144 0-2.145-1.001-2.145-2.145 0-1.145 1.001-2.146 2.145-2.146 1.287 0 2.145 1.002 2.145 2.146z" fill="#FF3D3D"/><path d="M176.165 43.007c0 1.144-1.001 2.145-2.146 2.145-1.144 0-2.145-1.001-2.145-2.145 0-1.145 1.001-2.146 2.145-2.146 1.145 0 2.146 1.002 2.146 2.146z" fill="#FFE03D"/><path d="M184.46 43.293c0 1.144-1.002 2.145-2.146 2.145s-2.145-1.001-2.145-2.145c0-1.144 1.001-2.145 2.145-2.145 1.287 0 2.146.858 2.146 2.145z" fill="#3DFF44"/><path d="M291.44 59.74H180.027a.715.715 0 000 1.43H291.44a.715.715 0 100-1.43zm52.489 7.723H185.175a.715.715 0 000 1.43h158.754a.715.715 0 000-1.43zm-27.317 7.723H194.328a.715.715 0 000 1.43h122.284a.715.715 0 100-1.43zm14.588 7.581H203.339a.715.715 0 000 1.43H331.2a.715.715 0 100-1.43zm-29.892 7.723h-85.813a.715.715 0 000 1.43h85.813a.715.715 0 100-1.43zm-71.939 39.76h-49.342a.715.715 0 100 1.43h49.342a.715.715 0 100-1.43zm78.089-7.58H185.175a.715.715 0 100 1.43h122.283a.716.716 0 100-1.43zm45.624-7.723H194.328a.715.715 0 100 1.43h158.754a.715.715 0 100-1.43zm-63.93-7.723h-85.813a.715.715 0 100 1.43h85.813a.715.715 0 100-1.43zm30.463-7.58h-104.12a.715.715 0 000 1.43h104.12a.715.715 0 100-1.43zM168.154 59.383a.93.93 0 101.86-.001.93.93 0 00-1.86 0zm1.86 64.931a.93.93 0 01-1.86 0v-1.859a.93.93 0 011.86 0v1.859zm0-9.296a.93.93 0 01-1.86 0v-1.859a.93.93 0 011.86 0v1.859zm0-9.296a.93.93 0 01-1.86 0v-1.86a.93.93 0 011.86 0v1.86zm0-9.297a.93.93 0 01-1.86 0v-1.86a.93.93 0 011.86 0v1.86zm0-9.296a.93.93 0 01-1.86 0v-1.86a.93.93 0 011.86 0v1.86zm0-9.297a.93.93 0 01-1.86 0v-1.859a.93.93 0 011.86 0v1.86zm0-9.296a.93.93 0 01-1.86 0v-1.86a.93.93 0 011.86 0v1.86zm-1.86 63.216a.93.93 0 101.862-.002.93.93 0 00-1.862.002z" fill="#241B2A"/><path d="M287.768 230.259a2 2 0 01-1.755 1.041h-65.564a1.95 1.95 0 110-3.9h63.264a2 2 0 001.755-1.041l30.388-55.634a1.948 1.948 0 013.418 1.868l-31.506 57.666z" fill="#58768D"/><path d="M177.2 107.3s-.9 6.1-4.6 11.7c-3.7 5.6-11.9 13.9-14.2 14.7-.9.3-4.2-1.2-7.8-3.1-1.2-.6-2.4-1.3-3.5-1.9-4.1-2.3-7.7-4.5-7.7-4.5l-5.4-7.7c2.2-11.1 6.1-19.5 12.2-27.4 6-7.9 19.6-3.2 24.5.6 4.9 3.9 7.6 9.8 6.5 17.6z" fill="url(#paint5_radial_3290_8203)"/><path d="M146.899 108.3c-.2 5 3.1 6.9 3.8 7.7.7.8-3.8 5.4-5.7 3.4-2-2.1 1.9-11.1 1.9-11.1z" fill="#EFA78B"/><path d="M270.299 358.9l2.4 11.7-16.1 2.8-3.7-13.4 17.4-1.1z" fill="#FFC8AF"/><path d="M303.6 376.101l1 5.9-51 9.1-1-5.8s45.2-8.6 50.2-9l.8-.2z" fill="#F9FBFC"/><path d="M281.899 369.1c.1-.1.1-.3.1-.4 1 .4 2.1.8 3.2 1.2l-3.6 5c-.3.4-.2 1 .2 1.2.2.1.4.2.7.1.2 0 .4-.2.5-.4l3.7-5.2c.1-.1.1-.2.1-.3 6.9 2.6 14 5.2 15.8 5.6-4.9.4-50.2 9-50.2 9l1.6-13.5c.1-.6.6-1 1.2-.8 12 2.3 16.1-2.9 17.3-4.9.2-.4.8-.6 1.2-.4.5.2 1.3.5 2.2.9l-3.6 4.9c-.3.4-.2.9.2 1.2.2.1.5.2.7.2.2 0 .4-.2.6-.4l3.7-5.2.1-.1c.8.3 1.8.7 2.7 1.1l-3.7 5.2c-.3.4-.2.9.2 1.2.2.1.4.2.7.2.2 0 .4-.2.5-.4l3.9-5z" fill="url(#paint6_linear_3290_8203)"/><path d="M282.999 376.001c-.1.2-.3.3-.5.4-.2 0-.5 0-.7-.1-.4-.3-.5-.8-.2-1.2l3.6-5c.6.2 1.1.4 1.7.6 0 .1 0 .2-.1.3l-3.8 5zm-2.6-7.9c.5.2 1 .4 1.6.6 0 .1-.1.3-.1.4l-3.7 5.2c-.1.2-.3.3-.5.4-.2 0-.5 0-.7-.2-.4-.3-.5-.8-.2-1.2l3.6-5.2zm-6.5 4.299c-.1.2-.4.3-.6.4-.2 0-.5 0-.7-.2-.4-.3-.5-.8-.2-1.2l3.6-4.9c.5.2 1.1.4 1.7.7 0 .1 0 .1-.1.1l-3.7 5.1z" fill="#F9FBFC"/><path d="M182.9 283.5c-10.5.5-24.4 1.3-42.6 2-51 1.9-40.6-47.4-40.6-47.4l48.7-.6s72.5-1.1 87.7 8.7c15.3 9.7 37.5 112.6 37.5 112.6l-24.3 6.8s-19.7-42.3-31.2-64.8c-4.7-9.3-8.1-16.1-8.4-16.8-.5-1.8-8-1.5-26.8-.5z" fill="#243C55"/><path d="M149.999 237.4h-1.6l-48.7.6s-5.8 27.7 12.7 40.8c18.4-4.5 29.4-23.1 39.1-39.9l-1.5-1.5z" fill="#0A2033"/><path d="M218.3 300.7l-4 61-4.4.1v-2.5h-17.4v3l-4.8.1-4.7-78.8c18.8-1 26.3-1.3 26.9.4.2.6 3.6 7.4 8.4 16.7z" fill="#0D2A43"/><path d="M210 362v13h-18v-12.532l18-.468z" fill="#FFC8AF"/><path d="M209.799 359.3v2.5l-17.4.4v-2.9h17.4z" fill="#0D2A43"/><path d="M238.5 387v4.723l-51.001-.026v-5.123s45.201-.474 50.201-.074l.8.5z" fill="#F9FBFC"/><path d="M219.199 375.874c.1-.1.2-.2.2-.4.9.6 1.9 1.2 2.9 1.8l-4.4 4.3c-.4.3-.4.9 0 1.3.2.2.4.3.6.3.2 0 .4-.1.6-.2l4.6-4.4c.1-.1.1-.1.1-.2 6.3 3.8 13.201 7.126 14.701 8.626-4.9-.4-51.101-.226-51.101-.226l4-13c.2-.6.8-.8 1.3-.6 11.4 4.4 16.4 0 17.9-1.8.3-.4.8-.5 1.3-.2s1.2.7 2 1.2l-4.4 4.2c-.4.3-.4.9 0 1.2.2.2.4.3.6.3.2 0 .4-.1.6-.3l4.6-4.4.1-.1c.8.5 1.6 1 2.5 1.5l-4.6 4.4c-.4.3-.4.9 0 1.2.2.2.4.3.6.3.2 0 .4-.1.6-.3l4.7-4.5z" fill="url(#paint7_linear_3290_8203)"/><path d="M219.1 382.874c-.2.2-.4.2-.6.2-.2 0-.5-.1-.6-.3-.3-.4-.3-.9 0-1.3l4.4-4.3 1.5.9c0 .1-.1.2-.1.2l-4.6 4.6zm-1.101-8.2l1.5.9c0 .1-.1.3-.2.4l-4.6 4.4c-.2.2-.4.3-.6.3-.2 0-.5-.1-.6-.3-.4-.4-.3-.9 0-1.2l4.5-4.5zm-7.2 3c-.2.2-.4.3-.6.3-.2 0-.5-.1-.6-.3-.3-.4-.3-.9 0-1.2l4.4-4.2 1.5.9c0 .1-.1.1-.1.1l-4.6 4.4z" fill="#F9FBFC"/><path d="M238.099 223.8h-28.8s-43.4-7-51.8-12.2c-3.1-1.9-8.5-7.8-14.1-14.5l19.6-16.3c3.4 5.4 6.6 9.9 7.8 10.4 3.4 1.3 35.7 19.3 39.5 19.3 3.8-.1 21.6-.4 27.8 13.3z" fill="#EFA78B"/><path d="M164.4 180.3L143.5 197c-9.5-11.4-19.4-25-19.4-25l29.7-17.9c-.1.1 7.5 18.2 10.6 26.2z" fill="url(#paint8_linear_3290_8203)"/><path d="M146.5 139.3l-21.4-8.4s-25.6 3-27.3 64.6c-.3 11.9-.2 77.6 3.4 79.3 14.5 6.7 51.7-37.4 51.7-37.4.7-1.4-.3-15.6 0-17-.9-.3-1.6-.7-2.2-1-3.8-2.2-10.9-11.7-17.9-21.8l22.1-17.2c.9 1.4 1.8 2.7 2.6 4 .4-32.9-11-45.1-11-45.1z" fill="url(#paint9_linear_3290_8203)"/><path d="M152.7 220.4c-.9-.3-1.6-.7-2.2-1-3.8-2.2-10.9-11.7-17.9-21.8l10.8-8.4-10.8-16.2-19.5-12.8v8.8s8.4 22.7 18.3 40.6c5.4 9.7 14.3 14.4 21.4 16.8-.1-2.9-.2-5.5-.1-6z" fill="#3030EF"/><path d="M215.7 216.9s-45.3-18.5-48.4-19.2c-1-.2-4.3-4.8-8.4-11-.9-1.3-3.3-5-4.1-6.4l-22.1 17.2c7 10.2 14.1 19.6 17.9 21.8.6.3 1.3.7 2.2 1v-.1.1c13.2 4.9 60.6 7.2 61.5 7.5 1.7 1.3 5.7 1.4 9.3.4 1.7-.5 3.3-1.1 4.5-2.1 3.2-2.4 7.9 1 10 2.6 1.4 1 4.6 1 5.7-.1-2.4-13.5-28.1-11.7-28.1-11.7z" fill="url(#paint10_radial_3290_8203)"/><path d="M151.4 129.3l-.7 1.3-1.4 2.8-.2.5-2.6 5.3-21.5-8.4 9-14.2 14.2 10.4 3.2 2.3z" fill="url(#paint11_radial_3290_8203)"/><path d="M113.1 169.1l22.4 34.4 25.6-14.7s-7-26.8-13.7-41.5c-4.2-9.2-16.3-13.7-28-6.4-10.3 6.3-10 21.3-6.3 28.2z" fill="url(#paint12_linear_3290_8203)"/><path d="M155.3 107.2c-.8-3.7-4.2-7.2-7.3-2.2-.8 1.2-1 2.7-1.2 4.2-.5 5.2-6.6 7.5-11.1 7.8-.7.1-1.5.1-2.2-.1 0 0 1.1-8.6 3.7-18.9 2.6-10.3 8.3-20.8 16.6-16.6 0 0 7.6-3.6 12.3 2.3 0 0 7.9-2.8 12 3.5 0 0 11.1 2.1 13.1 9 2.6 8.7-9.6 10.9-13.7 8.4s-7.2-7.2-10-7.1c-2.8.1-2.2 4.4-2.6 7.1-.4 2.7-4.6-.1-6.3 3.5-1.8 3.6-2.6 5.6-3.7 5-1.1-.5.4-5.9.4-5.9z" fill="url(#paint13_linear_3290_8203)"/><path d="M153.799 108.1c.3-1.3-.5-3.2-1.7-3.3-1.5-.1-2.2 1.7-2.3 3.3-.1 1.5.3 4 2 3.5 1.3-.4-.1-1.9.3-2.8.5-.8 1.7.8 1.7-.7zm-3.1 22.5l-1.4 2.8c-4.5-3.2-4.3-8.1-4.3-8.1s1.3 2.8 5.7 5.3z" fill="#EFA78B"/><path d="M69.7 180.4v.7c.1.4.2 1.1.3 2.1 1.2 7.8 5.3 34.4 9.2 59.2l7.5 47.5 7.7-1.2s-.3-1.7-.7-4.6c-1.6-10.3-5.7-36.2-9.3-59.6-1.8-11.7-3.6-22.8-4.8-31-.6-4.1-1.2-7.5-1.5-9.9-.2-1.2-.3-2.1-.4-2.8 0-.3-.1-.6-.1-.7v-.2l-2.3.3 2.3-.2v-.1l-2.3.3 2.3-.2-3.6.3h3.6v-.3l-3.6.3h3.6-7.9v.1zm68.9 119.999h9.4v90.7c0 .9-.7 1.6-1.6 1.6h-6.2c-.9 0-1.6-.7-1.6-1.6v-90.7z" fill="#091623"/><path d="M138.6 370.1h9.4v21c0 .9-.7 1.6-1.6 1.6h-6.2c-.9 0-1.6-.7-1.6-1.6v-21z" fill="#04080D"/><path d="M117.3 301.699h51.9v1.5c0 3.5-2.8 6.3-6.3 6.3h-39.3c-3.5 0-6.3-2.8-6.3-6.3v-1.5z" fill="#0A141E"/><path d="M93.2 302h100.3c4.1 0 7.4-3.3 7.4-7.4V291c0-4.1-3.3-7.4-7.4-7.4H93.2c-4.1 0-7.4 3.3-7.4 7.4v3.6c0 4.1 3.3 7.4 7.4 7.4z" fill="url(#paint14_linear_3290_8203)"/><path d="M94.3 387.199c0 3.1 2.5 5.5 5.5 5.5 3.1 0 5.5-2.5 5.5-5.5 0-3.1-2.5-5.5-5.5-5.5s-5.5 2.4-5.5 5.5zm92.5 5.5a5.5 5.5 0 100-11 5.5 5.5 0 000 11z" fill="#04080D"/><path d="M133.799 379.647h19v-16.6h-19v16.6z" fill="#0A141E"/><path d="M94.3 383.5h98v-2.1c0-3.2-2.6-5.8-5.8-5.8H100c-3.2 0-5.8 2.6-5.8 5.8v2.1h.1z" fill="url(#paint15_linear_3290_8203)"/><path d="M67.3 186.8l4.2 30.8c.6 4.4 4.6 7.5 9 6.9 4.4-.6 7.5-4.6 6.9-9l-4.2-30.8c-.6-4.4-4.6-7.5-9-6.9-4.4.6-7.4 4.6-6.9 9z" fill="url(#paint16_linear_3290_8203)"/><path d="M350 240.5h-8.4v151.2h8.4V240.5zm-127.3 0h-8.4v151.2h8.4V240.5z" fill="#BC8867"/><path d="M358.399 231.1h-150.5v10.6h150.5v-10.6z" fill="#F9FBFC"/><path d="M145 0h-23c-4.714 0-7.071 0-8.536 1.464C112 2.93 112 5.286 112 10v7c0 4.714 0 7.071 1.464 8.535C114.929 27 117.286 27 122 27h23c4.714 0 7.071 0 8.536-1.465C155 24.072 155 21.714 155 17v-7c0-4.714 0-7.071-1.464-8.536C152.071 0 149.714 0 145 0z" fill="#E82F84"/><path d="M127.89 9.884l.677 1.532-5.179 2.21 5.179 2.18-.677 1.564-6.212-2.775v-1.92l6.212-2.791zm6.531-3.986l1.775.404-3.76 14.44-1.791-.419 3.776-14.425zm4.542 3.986l6.212 2.791v1.92l-6.212 2.775-.677-1.565 5.163-2.178-5.163-2.21.677-1.533z" fill="#F9FBFC"/><path d="M98 54H76c-4.714 0-7.071 0-8.535 1.465C66 56.928 66 59.285 66 64v8c0 4.714 0 7.071 1.465 8.535C68.928 82 71.285 82 76 82h22c4.714 0 7.071 0 8.536-1.465C108 79.072 108 76.715 108 72v-8c0-4.714 0-7.071-1.464-8.535C105.071 54 102.714 54 98 54z" fill="#FBD15B"/><path d="M78.707 61.012c-2.292 2.89-2.292 7.174.1 10.063 2.692 3.288 7.377 3.787 10.667 1.594l5.183 5.181c.2.2.599.2.798 0l1.395-1.394c.2-.2.2-.598 0-.797l-5.183-5.181a8.023 8.023 0 00-.997-10.163c-3.39-3.288-8.972-3.089-11.963.697zm10.268 9.067c-2.193 2.192-5.782 2.192-8.075 0-2.193-2.192-2.193-5.779 0-8.07 2.194-2.192 5.782-2.192 8.075 0 2.293 2.192 2.293 5.878 0 8.07z" fill="#F9FBFC"/><path d="M374 23h-22c-4.714 0-7.071 0-8.536 1.465C342 25.928 342 28.286 342 33v7c0 4.714 0 7.071 1.464 8.535C344.929 50 347.286 50 352 50h22c4.714 0 7.071 0 8.536-1.465C384 47.072 384 44.715 384 40v-7c0-4.714 0-7.071-1.464-8.535C381.071 23 378.714 23 374 23z" fill="url(#paint17_linear_3290_8203)"/><path d="M359.543 28.64c-.603 0-1.026.097-1.27.29-.231.18-.346.494-.346.943v4.042c0 .744-.142 1.283-.424 1.617-.282.333-.725.584-1.328.75.603.154 1.046.398 1.328.732.282.333.424.866.424 1.597v4.043c0 .449.122.763.365.943.244.192.661.288 1.251.288v1.771c-1 0-1.79-.109-2.367-.327-.565-.218-.969-.545-1.213-.982-.231-.436-.346-1.007-.346-1.713v-3.83c0-.565-.096-.956-.289-1.174-.18-.231-.513-.347-1.001-.347v-2.02c.488 0 .821-.116 1.001-.347.193-.231.289-.629.289-1.194v-3.83c0-.719.115-1.296.346-1.732.244-.437.648-.757 1.213-.963.565-.218 1.354-.327 2.367-.327v1.77zm6.165-1.77c1.013 0 1.802.11 2.367.327.565.206.962.526 1.193.963.244.436.366 1.013.366 1.732v3.83c0 .565.09.963.27 1.194.192.23.539.346 1.039.346v2.021c-.5 0-.847.116-1.039.347-.18.218-.27.61-.27 1.174v3.83c0 .706-.122 1.277-.366 1.713-.231.437-.635.764-1.212.982-.565.218-1.348.327-2.348.327v-1.77c.59 0 1.007-.097 1.251-.29.243-.179.365-.493.365-.942V38.61c0-.731.141-1.264.424-1.597.282-.334.725-.578 1.328-.732-.603-.166-1.046-.417-1.328-.75-.283-.334-.424-.873-.424-1.617v-4.042c0-.45-.122-.764-.365-.943-.231-.193-.648-.29-1.251-.29v-1.77z" fill="#F1F2F2"/><defs><linearGradient id="paint0_linear_3290_8203" x1="77.187" y1="301.973" x2="77.187" y2="348.305" gradientUnits="userSpaceOnUse"><stop stop-color="#7978E0"/><stop offset="1" stop-color="#563FDA"/></linearGradient><linearGradient id="paint1_linear_3290_8203" x1="77.136" y1="302.136" x2="77.136" y2="348.422" gradientUnits="userSpaceOnUse"><stop stop-color="#9FF1A7"/><stop offset="1" stop-color="#5DDE90"/></linearGradient><linearGradient id="paint2_linear_3290_8203" x1="24.747" y1="331.417" x2="24.747" y2="354.497" gradientUnits="userSpaceOnUse"><stop stop-color="#78E082"/><stop offset="1" stop-color="#3FDABE"/></linearGradient><linearGradient id="paint3_linear_3290_8203" x1="39.035" y1="292.684" x2="39.035" y2="345.094" gradientUnits="userSpaceOnUse"><stop stop-color="#7978E0"/><stop offset="1" stop-color="#563FDA"/></linearGradient><linearGradient id="paint4_linear_3290_8203" x1="39.075" y1="292.856" x2="39.075" y2="345.273" gradientUnits="userSpaceOnUse"><stop stop-color="#78E082"/><stop offset="1" stop-color="#36D275"/></linearGradient><linearGradient id="paint6_linear_3290_8203" x1="267.676" y1="363.464" x2="281.937" y2="388.164" gradientUnits="userSpaceOnUse"><stop stop-color="#7978E0"/><stop offset="1" stop-color="#563FDA"/></linearGradient><linearGradient id="paint7_linear_3290_8203" x1="201.861" y1="367.272" x2="219.334" y2="397.536" gradientUnits="userSpaceOnUse"><stop stop-color="#7978E0"/><stop offset="1" stop-color="#563FDA"/></linearGradient><linearGradient id="paint8_linear_3290_8203" x1="124.047" y1="175.627" x2="164.37" y2="175.627" gradientUnits="userSpaceOnUse"><stop stop-color="#606BF1"/><stop offset="1" stop-color="#433AFF"/></linearGradient><linearGradient id="paint9_linear_3290_8203" x1="90.8" y1="149.642" x2="149.785" y2="251.807" gradientUnits="userSpaceOnUse"><stop stop-color="#606BF1"/><stop offset="1" stop-color="#433AFF"/></linearGradient><linearGradient id="paint12_linear_3290_8203" x1="135.89" y1="137.209" x2="135.89" y2="203.416" gradientUnits="userSpaceOnUse"><stop stop-color="#606BF1"/><stop offset="1" stop-color="#433AFF"/></linearGradient><linearGradient id="paint13_linear_3290_8203" x1="168.5" y1="47.5" x2="154.5" y2="95.5" gradientUnits="userSpaceOnUse"><stop stop-color="#56549E"/><stop offset=".99" stop-color="#2E2C71"/></linearGradient><linearGradient id="paint14_linear_3290_8203" x1="126.283" y1="263.304" x2="160.316" y2="322.25" gradientUnits="userSpaceOnUse"><stop stop-color="#EC827D"/><stop offset="1" stop-color="#FF5A7D"/></linearGradient><linearGradient id="paint15_linear_3290_8203" x1="129.496" y1="357.821" x2="156.333" y2="404.305" gradientUnits="userSpaceOnUse"><stop stop-color="#EC827D"/><stop offset="1" stop-color="#FF5A7D"/></linearGradient><linearGradient id="paint16_linear_3290_8203" x1="66.17" y1="181.748" x2="88.605" y2="220.605" gradientUnits="userSpaceOnUse"><stop stop-color="#EC827D"/><stop offset="1" stop-color="#FF5A7D"/></linearGradient><linearGradient id="paint17_linear_3290_8203" x1="342" y1="36.5" x2="384" y2="36.5" gradientUnits="userSpaceOnUse"><stop stop-color="#2360FE"/><stop offset="1" stop-color="#2353FE"/></linearGradient><radialGradient id="paint5_radial_3290_8203" cx="0" cy="0" r="1" gradientUnits="userSpaceOnUse" gradientTransform="translate(153.811 115.969) scale(33.9585)"><stop stop-color="#FFC8AF"/><stop offset="1" stop-color="#FFBB9C"/></radialGradient><radialGradient id="paint10_radial_3290_8203" cx="0" cy="0" r="1" gradientUnits="userSpaceOnUse" gradientTransform="translate(188.226 204.97) scale(42.9885)"><stop stop-color="#FFC8AF"/><stop offset="1" stop-color="#FFBB9C"/></radialGradient><radialGradient id="paint11_radial_3290_8203" cx="0" cy="0" r="1" gradientUnits="userSpaceOnUse" gradientTransform="translate(153.816 115.97) scale(33.9478)"><stop stop-color="#FFC8AF"/><stop offset="1" stop-color="#FFBB9C"/></radialGradient></defs></svg>