<svg width="570" height="372" fill="none" xmlns="http://www.w3.org/2000/svg"><rect width="570" height="372" rx="10" fill="url(#paint0_linear_3351_9280)" fill-opacity=".1"/><rect x="191" y="24" width="16" height="5" rx="2.5" fill="#fff" fill-opacity=".15"/><rect x="217" y="24" width="22" height="5" rx="2.5" fill="#fff" fill-opacity=".15"/><rect x="249" y="24" width="22" height="5" rx="2.5" fill="#fff" fill-opacity=".15"/><rect x="281" y="24" width="15" height="5" rx="2.5" fill="#fff" fill-opacity=".15"/><rect x="306" y="24" width="35" height="5" rx="2.5" fill="#fff" fill-opacity=".15"/><rect x="351" y="24" width="29" height="5" rx="2.5" fill="#fff" fill-opacity=".15"/><rect x="478" y="20" width="52" height="13" rx="5" fill="#fff" fill-opacity=".15"/><rect x="451" y="20" width="17" height="13" rx="5" fill="#fff" fill-opacity=".15"/><rect x="40" y="22" width="49" height="10" rx="5" fill="#fff" fill-opacity=".15"/><rect x="40" y="73" width="34" height="10" rx="5" fill="#fff" fill-opacity=".15"/><rect x="79" y="75" width="22" height="5" rx="2.5" fill="#fff" fill-opacity=".15"/><rect x="106" y="75" width="55" height="5" rx="2.5" fill="#fff" fill-opacity=".15"/><rect x="166" y="75" width="44" height="5" rx="2.5" fill="#fff" fill-opacity=".15"/><rect x="40" y="128" width="150" height="183" rx="5" fill="#fff" fill-opacity=".02"/><rect x="48.152" y="223" width="133.696" height="10" rx="5" fill="#fff" fill-opacity=".15"/><rect x="48.152" y="283" width="80.707" height="14" rx="5" fill="#fff" fill-opacity=".15"/><rect x="137.012" y="283" width="44.837" height="14" rx="5" fill="#fff" fill-opacity=".15"/><rect x="48" y="243" width="134" height="7" rx="3.5" fill="#fff" fill-opacity=".15"/><rect x="48" y="260" width="122" height="7" rx="3.5" fill="#fff" fill-opacity=".15"/><rect x="40" y="128" width="150" height="85" rx="5" fill="#fff" fill-opacity=".15"/><rect x="210" y="128" width="150" height="183" rx="5" fill="#fff" fill-opacity=".02"/><rect x="218.152" y="223" width="133.696" height="10" rx="5" fill="#fff" fill-opacity=".15"/><rect x="218.152" y="283" width="80.707" height="14" rx="5" fill="#fff" fill-opacity=".15"/><rect x="307.012" y="283" width="44.837" height="14" rx="5" fill="#fff" fill-opacity=".15"/><rect x="218" y="243" width="134" height="5" rx="2.5" fill="#fff" fill-opacity=".15"/><rect x="218" y="253" width="122" height="5" rx="2.5" fill="#fff" fill-opacity=".15"/><rect x="210" y="128" width="150" height="85" rx="5" fill="#fff" fill-opacity=".15"/><rect x="380" y="128" width="150" height="183" rx="5" fill="#fff" fill-opacity=".02"/><rect x="380" y="128" width="150" height="85" rx="5" fill="#fff" fill-opacity=".15"/><rect x="388.152" y="223" width="133.696" height="10" rx="5" fill="#fff" fill-opacity=".15"/><rect x="388.152" y="283" width="80.707" height="14" rx="5" fill="#fff" fill-opacity=".15"/><rect x="477.012" y="283" width="44.837" height="14" rx="5" fill="#fff" fill-opacity=".15"/><rect x="388" y="243" width="134" height="5" rx="2.5" fill="#fff" fill-opacity=".15"/><rect x="388" y="253" width="122" height="5" rx="2.5" fill="#fff" fill-opacity=".15"/><rect x="40" y="103" width="133.696" height="10" rx="5" fill="#fff" fill-opacity=".15"/><defs><linearGradient id="paint0_linear_3351_9280" x1="285" y1="49.104" x2="285" y2="372" gradientUnits="userSpaceOnUse"><stop stop-color="#fff" stop-opacity=".45"/><stop offset="1" stop-color="#fff" stop-opacity="0"/></linearGradient></defs></svg>