<svg width="1920" height="1000" fill="none" xmlns="http://www.w3.org/2000/svg"><g clip-path="url(#clip0_2390_6000)"><path d="M3840.32 0H-.33v1000h3840.65V0z" fill="url(#paint0_linear_2390_6000)"/><path d="M3840.32 821.84H-.33V1000h3840.65V821.84z" fill="url(#paint1_linear_2390_6000)"/><path d="M3840 802.561H0v17.28h3840v-17.28z" fill="#FFF7EE"/><path d="M3840 804.561H0v17.28h3840v-17.28z" fill="#FCD9CA"/><path d="M3840 821.84H0v11.52h3840v-11.52z" fill="#892765" opacity=".3"/><g opacity=".5" fill-rule="evenodd" clip-rule="evenodd"><path d="M3865.45 919.329l-3936.46 20.66-.04-3.29 3905.35-22.48 31.15 5.11z" fill="url(#paint2_radial_2390_6000)" opacity=".5"/><path d="M3859.88 891.79l-3878.44 6.04 10.49-3.01 3859.98-4.75 7.97 1.72z" fill="url(#paint3_radial_2390_6000)" opacity=".5"/><path d="M3849.53 863.299l-3864.62 4.79 5.16-1.49 3856.55-4.06 2.91.76z" fill="url(#paint4_radial_2390_6000)" opacity=".5"/><path d="M3849.36 969.898l-1979.02 10.24-1873.251.14.02 8.79 3852.251-11.66v-7.51z" fill="url(#paint5_radial_2390_6000)" opacity=".5"/><path d="M3854.3 841.289l-3862.27.17 3856.41-1.68 5.86 1.51z" fill="url(#paint6_radial_2390_6000)" opacity=".5"/></g><path fill-rule="evenodd" clip-rule="evenodd" d="M799.679 893.059h285.531l63.25-27.19-307.861.55-92.98 26.73 52.06-.09z" fill="url(#paint7_linear_2390_6000)" opacity=".2"/><path fill-rule="evenodd" clip-rule="evenodd" d="M2643.95 999.979l-30.88-20.5-1019.21 4.73-24.73 15.77h1074.82z" fill="url(#paint8_linear_2390_6000)" opacity=".2"/><path fill-rule="evenodd" clip-rule="evenodd" d="M-481.36 980.279h826.04l78.8-37.88-634.06-2.02-270.7 2.02-.08 37.88z" fill="url(#paint9_linear_2390_6000)" opacity=".2"/><path fill-rule="evenodd" clip-rule="evenodd" d="M3840 0l-.58 78.96S2399.93 42.87 1920 43.99C1473.91 45.04 136.09 84.86 136.09 84.86L0 554.5.58 87.96 0 0h3840z" fill="url(#paint10_linear_2390_6000)" opacity=".2"/><path opacity=".14" fill-rule="evenodd" clip-rule="evenodd" d="M651.29 637.939l-238.88 79.71-78.29-544.01 313.62 43.58 3.55 420.72zm140.1 88.22l-39.9 37.21 34.17-443.17 57.78 27.51-52.05 378.45z" fill="#29ABE2"/><path opacity=".14" fill-rule="evenodd" clip-rule="evenodd" d="M1137.9 473.44H987.15l-52.71-330.28 249.77 27.51-46.31 302.77z" fill="#F2F2F2"/><path opacity=".14" d="M821.221 493.609l-147.14-33.74-21.77-361.83 168.91 38.17v357.4zM185.21 605.47l136.21 26.46-53.66-507.25H157.7l27.51 480.79z" fill="#F2F2F2"/><path opacity=".14" fill-rule="evenodd" clip-rule="evenodd" d="M1454.5 722.839l-125.08-34.56v-198.49h108.68l16.4 233.05zm-593.399-63.76l163.229-28.75 2.96-76.63H889.671l-28.57 105.38z" fill="#29ABE2"/><path opacity=".14" d="M1492.96 383.979l-92.83-.71v-209.63h141.58l-48.75 210.34zm208.8-285.939l47.69 36.589-19.26 171.92-38.21 15.28 9.78-223.79z" fill="#29ABE2"/><path opacity=".14" d="M1611.05 410.188l-47.69-36.59 19.26-171.92 38.21-15.28-9.78 223.79zm258.97 333.791l-118.32-99.69 19.37-524.67 77.17-21.67 21.78 646.03z" fill="#F2F2F2"/></g><g clip-path="url(#clip1_2390_6000)"><path fill-rule="evenodd" clip-rule="evenodd" d="M813.49 192.131l7.79 373.66h650.2l7.79-373.66H813.49z" fill="url(#paint11_linear_2390_6000)" opacity=".2"/><path fill-rule="evenodd" clip-rule="evenodd" d="M1488.38 185.58l-7.79 363.66-12.52-15.76 1.92-332.14 18.39-15.76z" fill="#F46D38"/><path fill-rule="evenodd" clip-rule="evenodd" d="M1488.38 185.58l-18.39 15.76-628.999 2.24-18.39-18h665.779z" fill="#C72E28"/><path fill-rule="evenodd" clip-rule="evenodd" d="M842.711 531.25l-12.32 17.99-7.79-363.66 18.39 18 1.72 327.67z" fill="#E75B48"/><path fill-rule="evenodd" clip-rule="evenodd" d="M1480.59 549.24H830.391l12.32-17.99 625.359 2.23 12.52 15.76z" fill="#FFA65D"/><path fill-rule="evenodd" clip-rule="evenodd" d="M822.601 185.58l7.79 363.66h650.199l7.79-363.66H822.601zm653.859 358.41l-642.309-.12-6.44-353.29h655.559l-6.81 353.41z" fill="#FF8461"/><path fill-rule="evenodd" clip-rule="evenodd" d="M1469.99 201.34l-1.92 332.14-625.36-2.23-1.72-327.67 629-2.24z" fill="url(#paint12_radial_2390_6000)"/><path d="M1212.72 422.14h-113.64V261.06h113.64v37.62h-66.31v26.01h62.18v33.94h-62.18v25.9h66.31v37.61zm-99.35-188.21c0-9.27 7.37-16.75 17.64-16.75s17.64 7.48 17.64 16.75c0 9.15-7.37 16.75-17.64 16.75s-17.64-7.59-17.64-16.75zm49.56 0c0-9.27 7.37-16.75 17.64-16.75s17.64 7.48 17.64 16.75c0 9.15-7.37 16.75-17.64 16.75s-17.64-7.59-17.64-16.75z" fill="#fff"/><path d="M938.471 305.849l-47.67 13.57-19.24-67.57 47.67-13.57 4.49 15.78-27.82 7.92 3.11 10.91 26.08-7.43 4.05 14.24-26.08 7.43 3.09 10.86 27.82-7.92 4.5 15.78zm-64.15-67.08c-1.11-3.89 1.09-7.9 5.4-9.13 4.31-1.23 8.29 1.03 9.4 4.92 1.09 3.84-1.09 7.9-5.4 9.13-4.31 1.22-8.31-1.08-9.4-4.92zm20.79-5.92c-1.11-3.89 1.09-7.9 5.4-9.13 4.31-1.23 8.29 1.03 9.4 4.92 1.09 3.84-1.09 7.9-5.4 9.13-4.31 1.22-8.3-1.08-9.4-4.92z" stroke="#fff" stroke-width=".5" stroke-miterlimit="10"/><path d="M1049.33 494.97v-46.46h20.22c8.72 0 14.2 4.48 14.2 11.59 0 5.09-3.8 9.34-8.73 10.08v.26c6.31.48 10.95 5.09 10.95 11.24 0 8.18-6.15 13.3-16.07 13.3h-20.57v-.01zm9.73-27.14h6.99c5.18 0 8.15-2.29 8.15-6.21 0-3.73-2.61-5.86-7.15-5.86h-7.98v12.07h-.01zm8.37 19.9c5.6 0 8.63-2.38 8.63-6.83 0-4.35-3.12-6.67-8.85-6.67h-8.15v13.49h8.37v.01zm33.81 7.24h-9.72v-46.46h19.03c10.69 0 16.81 5.63 16.81 14.81 0 5.96-3.09 11.11-8.43 13.2l9.79 18.45h-11.01l-8.66-17h-7.79v17h-.02zm0-24.05h8.37c4.89 0 7.76-2.8 7.76-7.4 0-4.51-3.03-7.41-7.86-7.41h-8.27v14.81zm59.37 12.78h-16.32l-3.54 11.27h-9.98l16.13-46.46h11.43l16.16 46.46h-10.33l-3.55-11.27zm-14.23-7.27h12.14l-5.96-19.03h-.23l-5.95 19.03zm32.85 18.54v-46.46h8.11l21.7 30.26h.26v-30.26h9.3v46.46h-8.05l-21.73-30.42h-.29v30.42h-9.3zm64.85-46.46c13.94 0 22.15 8.31 22.15 23.05 0 14.75-8.21 23.41-22.15 23.41h-17.74v-46.46h17.74zm-8.02 38.41h6.86c8.69 0 13.39-5.28 13.39-15.33 0-9.72-4.83-15.07-13.39-15.07h-6.86v30.4z" fill="#fff"/><path d="M1212.72 250.68v182.28m-66.34-184.421v182.28m-47.3-182.28v182.28m109.67-59.31v-59.38" stroke="#fff" stroke-width=".5" stroke-miterlimit="10" stroke-dasharray="5 5"/><path d="M1260.54 261.27h-203.1m203.1 37.459h-203.1m203.1 26.371h-203.1m203.1 33.709h-203.1m203.1 26.031h-203.1m203.1 37.299h-203.1" stroke="#fff" stroke-width=".5" stroke-miterlimit="10" stroke-dasharray="6.14 6.14"/><path d="M1283.68 448.51h-251.53m251.53 46.459h-251.53" stroke="#fff" stroke-width=".5" stroke-miterlimit="10" stroke-dasharray="5.26 5.26"/><path d="M1049.46 434.129l-.12 75.47m36.76-75.47l-.12 75.47m5.66-75.47l-.12 75.47m36.18-75.47l-.12 75.47m3.31-75.47l-.12 75.47m43.83-75.47l-.11 75.47m4.85-75.47l-.11 75.47m39.49-75.47l-.11 75.47m7.84-75.47l-.11 75.47m40.01-75.47l-.12 75.47" stroke="#fff" stroke-width=".5" stroke-miterlimit="10" stroke-dasharray="5.88 5.88"/><g opacity=".2"><path fill-rule="evenodd" clip-rule="evenodd" d="M533.73 332.11h-97.35v-1.96l4.7-22.93 1.06-24.37-2.78-3.63 1.72-7.46-3.08-1.73 1.15-11.35 8.69-5.1v-2.28l-2.57-9.61v-8.7l-6.59-2.42v-4.32l-2.3-8.25h92.72l4.63 114.11z" fill="url(#paint13_linear_2390_6000)" opacity=".35"/><path opacity=".2" d="M524.97 268.02h-83.89v.68h83.89v-.68z" fill="url(#paint14_linear_2390_6000)"/><path opacity=".2" d="M524.98 278.609h-77.14v.68h77.14v-.68z" fill="url(#paint15_linear_2390_6000)"/><path opacity=".2" d="M526.35 289.199h-78.51v.68h78.51v-.68z" fill="url(#paint16_linear_2390_6000)"/><path opacity=".2" d="M526.35 299.801h-85.27v.68h85.27v-.68z" fill="url(#paint17_linear_2390_6000)"/><path opacity=".2" d="M526.35 310.391h-85.27v.68h85.27v-.68z" fill="url(#paint18_linear_2390_6000)"/><path opacity=".2" d="M524.97 320.98h-83.89v.68h83.89v-.68z" fill="url(#paint19_linear_2390_6000)"/><path opacity=".2" d="M527.27 342.17h-86.19v.68h86.19v-.68z" fill="url(#paint20_linear_2390_6000)"/><path opacity=".2" d="M527.27 352.76h-86.19v.68h86.19v-.68z" fill="url(#paint21_linear_2390_6000)"/><path opacity=".2" d="M527.27 363.961h-86.19v.68h86.19v-.68z" fill="url(#paint22_linear_2390_6000)"/><path opacity=".2" d="M454.74 371.059l-.85-110.95h.34l.85 110.95h-.34z" fill="url(#paint23_linear_2390_6000)"/><path opacity=".2" d="M485.06 265.35c0 1.12-.91 2.03-2.03 2.03-1.12 0-2.03-.91-2.03-2.03 0-1.12.91-2.03 2.03-2.03 1.12.01 2.03.92 2.03 2.03z" fill="url(#paint24_linear_2390_6000)"/><path fill-rule="evenodd" clip-rule="evenodd" d="M591.95 341.35c0 .38.05.75.15 1.1l-78.22 19.92-21.78-95.59L565.8 253l1.2 3.5a4.005 4.005 0 00-3.09 3.89c0 2.22 1.8 4.01 4.01 4.01.58 0 1.14-.12 1.65-.35l1.37 4.03a4.001 4.001 0 00-3.02 3.88 3.995 3.995 0 005.59 3.68l1.37 4.01a4.002 4.002 0 001.03 7.87c.54 0 1.06-.11 1.54-.3l1.37 4c-1.67.48-2.91 2.03-2.91 3.85 0 2.22 1.8 4.01 4.01 4.01.53 0 1.02-.1 1.48-.29l1.36 4c-1.65.5-2.84 2.04-2.84 3.84 0 2.22 1.8 4.01 4 4.01.5 0 .99-.1 1.43-.26l1.36 4a4.008 4.008 0 00-2.79 3.81 4.01 4.01 0 005.37 3.77l1.37 4a4.009 4.009 0 00-2.73 3.8 4.007 4.007 0 005.31 3.79l1.37 4c-1.54.57-2.66 2.05-2.66 3.8z" fill="url(#paint25_linear_2390_6000)" opacity=".35"/><path opacity=".2" d="M529.3 305.28c0 1.12-.91 2.03-2.03 2.03-1.12 0-2.03-.91-2.03-2.03 0-1.12.91-2.03 2.03-2.03 1.12.01 2.03.91 2.03 2.03z" fill="url(#paint26_linear_2390_6000)"/><path opacity=".2" d="M501.35 374.48l-9.25-67.3 15.33 67.3h-6.08z" fill="url(#paint27_linear_2390_6000)"/></g><path fill-rule="evenodd" clip-rule="evenodd" d="M537.181 328.11h-97.34v-1.96l4.69-22.93 1.07-24.37-2.78-3.63 1.71-7.46-3.07-1.72 1.14-11.35 8.7-5.11v-2.28l-2.58-9.61V229l-6.58-2.42v-4.33l-2.3-8.25h92.72l4.62 114.11z" fill="url(#paint28_linear_2390_6000)"/><path d="M528.431 221.91h-83.89v.68h83.89v-.68z" fill="url(#paint29_linear_2390_6000)"/><path d="M528.441 232.5h-77.14v.68h77.14v-.68z" fill="url(#paint30_linear_2390_6000)"/><path d="M529.811 243.1h-78.51v.68h78.51v-.68z" fill="url(#paint31_linear_2390_6000)"/><path d="M529.811 253.689h-85.27v.68h85.27v-.68z" fill="url(#paint32_linear_2390_6000)"/><path d="M529.811 264.279h-85.27v.68h85.27v-.68z" fill="url(#paint33_linear_2390_6000)"/><path d="M528.431 274.871h-83.89v.68h83.89v-.68z" fill="url(#paint34_linear_2390_6000)"/><path d="M529.811 286.72l-82.68-.56.01-.68 82.67.56v.68z" fill="url(#paint35_linear_2390_6000)"/><path d="M530.731 296.061h-86.19v.68h86.19v-.68z" fill="url(#paint36_linear_2390_6000)"/><path d="M530.731 306.65h-86.19v.68h86.19v-.68z" fill="url(#paint37_linear_2390_6000)"/><path d="M530.731 317.85h-86.19v.68h86.19v-.68z" fill="url(#paint38_linear_2390_6000)"/><path d="M457.703 214.007l-.34.003.841 110.96.34-.003-.841-110.96z" fill="#FF414A"/><path d="M488.511 219.251c0 1.12-.91 2.03-2.03 2.03-1.12 0-2.03-.91-2.03-2.03 0-1.12.91-2.03 2.03-2.03 1.12 0 2.03.91 2.03 2.03z" fill="url(#paint39_linear_2390_6000)"/><path fill-rule="evenodd" clip-rule="evenodd" d="M595.411 335.651c0 .38.05.75.15 1.1l-78.22 19.92-21.78-95.59 73.7-13.78 1.2 3.5a4.005 4.005 0 00-3.09 3.89c0 2.22 1.8 4.01 4.01 4.01.58 0 1.14-.12 1.65-.35l1.37 4.03a4.001 4.001 0 00-3.02 3.88 3.995 3.995 0 005.59 3.68l1.37 4.01a4.002 4.002 0 001.03 7.87c.54 0 1.06-.11 1.54-.3l1.37 4c-1.67.48-2.91 2.03-2.91 3.85 0 2.22 1.8 4.01 4.01 4.01.53 0 1.02-.1 1.48-.29l1.36 4c-1.65.5-2.84 2.04-2.84 3.84 0 2.22 1.8 4.01 4 4.01.5 0 .99-.1 1.43-.26l1.36 4a4.008 4.008 0 00-2.79 3.81 4.01 4.01 0 005.37 3.77l1.37 4a4.009 4.009 0 00-2.73 3.8 4.007 4.007 0 005.31 3.79l1.37 4a4.059 4.059 0 00-2.66 3.8z" fill="url(#paint40_linear_2390_6000)"/><path d="M532.75 259.18c0 1.12-.91 2.03-2.03 2.03-1.12 0-2.03-.91-2.03-2.03 0-1.12.91-2.03 2.03-2.03 1.12 0 2.03.91 2.03 2.03z" fill="url(#paint41_linear_2390_6000)"/><path opacity=".2" d="M504.811 328.37l-9.25-67.29 15.33 67.29h-6.08z" fill="#890C4A"/></g><g clip-path="url(#clip2_2390_6000)"><g opacity=".2"><g opacity=".2"><path opacity=".2" fill-rule="evenodd" clip-rule="evenodd" d="M125.08 820.639H52v-.01h73.07l.01.01z" fill="url(#paint42_linear_2390_6000)"/><path opacity=".2" d="M179.58 820.629h-38.5v.01h38.5v-.01z" fill="url(#paint43_linear_2390_6000)"/></g><path opacity=".2" fill-rule="evenodd" clip-rule="evenodd" d="M125.08 820.639H52v-.01l.01-.43h72.7l.36.43.01.01z" fill="url(#paint44_linear_2390_6000)"/><path fill-rule="evenodd" clip-rule="evenodd" d="M580.709 662.98l-8.8.41-20.7 1-11.13.54-9.63.46-7.89.38-7.74.38-30.18 1.44-3.34.17-2.69.13-1.15.06V609h-143.19l2.66-68h-234.02l10.68 287.66 34.71 14.59h266.56l5.04-6.75H446.5l7.449 7.46h157.16l1.67-49.67.81-24.49 2.73-81.34.21-6.52.7-20.74-36.52 1.78zm-416.85 143.58l-1.2-95.27h138.6l2.44 95.27h-139.84zm145.52-16.79l-.93-78.49h2.38l-1.45 78.49zm1.8-96.91h-2.94l.21-78.86h5.37l-2.64 78.86zm2.8-87.26L299 609l5.02 83.86H143.269l3.8 113.69h-16.28l-4.53-243.44h187.32l.4 42.49zm85.47 219.66l.01.01h-73.08v-.01l.01-.42 4.22-113.56h69.91l-1.43 113.56.36.42zm70.19-156.93l-15.68.77v156.17h-38.5v-.01l4.44-132.4h-88.61l2.98-72.36 136.751 1-1.381 46.83z" fill="url(#paint45_linear_2390_6000)" opacity=".2"/></g><path fill-rule="evenodd" clip-rule="evenodd" d="M101.391 530.77l10.68 292.94h212.67l10.68-292.94h-234.03zm206.17 270.43h-178.29l-4.53-247.911h187.33l-4.51 247.911z" fill="#A62738"/><path d="M329.411 534.689l-17.34 18.6h-187.33l-17.32-18.6h221.99z" fill="#7E0C19"/><path fill-rule="evenodd" clip-rule="evenodd" d="M320.511 819.139h-202.96l11.91-17.94h178.38l12.67 17.94z" fill="#D35B41"/><path fill-rule="evenodd" clip-rule="evenodd" d="M302.692 610l5.518 218.82h158.141L471.869 610H302.692zm158.6 210.801H313.279l-2.352-202.782h152.716l-2.351 202.782z" fill="#682738"/><path fill-rule="evenodd" clip-rule="evenodd" d="M469.105 612.137l-5.461 5.883H310.928l-5.462-5.883h163.639z" fill="#4F0C19"/><path fill-rule="evenodd" clip-rule="evenodd" d="M464.159 826.665H310.562l2.717-5.874h148.173l2.707 5.874z" fill="#B54841"/><path fill-rule="evenodd" clip-rule="evenodd" d="M413.351 838.571h-266.56l6.76-8.04 252.43-.72 7.37 8.76z" fill="#EE711D"/><path fill-rule="evenodd" clip-rule="evenodd" d="M418.39 685.42l-5.04 153.15-7.37-8.76h.17l2.15-134.62 10.09-9.77z" fill="#F47D29"/><path fill-rule="evenodd" clip-rule="evenodd" d="M418.391 685.42l-10.09 9.77-256.85-.39-9.69-9.38h276.63z" fill="#FFC24A"/><path fill-rule="evenodd" clip-rule="evenodd" d="M153.551 830.53l-6.76 8.04-5.03-153.15 9.69 9.38 2.1 135.73z" fill="#FF9A3E"/><path fill-rule="evenodd" clip-rule="evenodd" d="M405.981 829.811l-252.43.72 9.02-10.72h235.01l8.4 10z" fill="#FFC24A"/><path fill-rule="evenodd" clip-rule="evenodd" d="M408.301 695.189l-2.15 134.62h-.17l-8.4-10 1.42-115.63 9.3-8.99z" fill="#FF9A3E"/><path fill-rule="evenodd" clip-rule="evenodd" d="M408.301 695.191l-9.3 8.99h-237.85l-9.7-9.38 256.85.39z" fill="#EE711D"/><path fill-rule="evenodd" clip-rule="evenodd" d="M162.571 819.811l-9.02 10.72-2.1-135.73 9.7 9.38 1.42 115.63z" fill="#F47D29"/><path fill-rule="evenodd" clip-rule="evenodd" d="M615.72 653.189l-.7 21.12-.22 6.64-2.72 82.83-.82 24.94-1.66 50.58H452.44v-178.08l19.5-.97 2.68-.12 2.48-.13 2.68-.14 3.34-.16 30.18-1.47 7.75-.39 7.89-.39 9.63-.47 11.13-.56 20.7-1.01 8.79-.42 36.53-1.8z" fill="#F46D38"/><path fill-rule="evenodd" clip-rule="evenodd" d="M449.77 663.999l2.67-2.79v178.09l-2.87-2.86.2-172.44z" fill="#A62024"/><path fill-rule="evenodd" clip-rule="evenodd" d="M522.03 839.299h-38.91v-179.6l30.18-1.47 8.73 181.07zm22.971 0h-10.32l-13.63-181.46 7.89-.39 16.06 181.85zm-70.381-179.17v179.17h-2.68v-179.05l2.68-.12zM612.08 763.78l-.81 24.94c-25.74-21.26-69.68-66.83-72.69-131.74l11.13-.55c4.72 22.05 19.53 70.5 62.37 107.35zm2.94-89.471l-.21 6.64c-24.86-6.18-38.24-18.19-44.4-25.54l8.79-.43c10.91 10.75 25.22 16.42 35.82 19.33z" fill="#EA6133"/><path opacity=".57" fill-rule="evenodd" clip-rule="evenodd" d="M469.341 709.39l10.63 64.23h9.18l4.59-69.44-24.4 5.21z" fill="#DC72B5"/><path opacity=".57" fill-rule="evenodd" clip-rule="evenodd" d="M504.9 685.54l45.31-13.88 5.74 72.19-13.27 5.41-7.67-48.18 5.74 78.86-21.03 3.45-14.82-97.85z" fill="#FFC24A"/><path fill-rule="evenodd" clip-rule="evenodd" d="M569.35 773.71l8.13-20.06v5.63l11.11-13.04 11.85 5.56-15.55 44.44-8.89-7.33-6.65 3.26-2.24-11.85 2.24-6.61z" fill="#C00"/><path fill-rule="evenodd" clip-rule="evenodd" d="M533.96 819.19l23.52-21.91 13.16-1.78-3.42 13.39-17.23 16.42-4.87-3.37-9.4 2.52-1.76-5.27z" fill="#D13E00"/></g><g clip-path="url(#clip3_2390_6000)"><path d="M1330.03 923.131c0 22.44-38.29 22.28-85.22 22.28s-84.73.16-84.73-22.28 49.35-49.17 96.28-49.17 73.67 26.73 73.67 49.17z" fill="url(#paint46_linear_2390_6000)" opacity=".2"/><path fill-rule="evenodd" clip-rule="evenodd" d="M1184.41 747.141V707.73h30.28v39.76l-30.28-.349z" fill="url(#paint47_linear_2390_6000)"/><path fill-rule="evenodd" clip-rule="evenodd" d="M1187.56 715.691l24.76-1.47-1.36 28.95h-23.4v-27.48z" fill="url(#paint48_linear_2390_6000)"/><path d="M1216.9 697.34h-34.7v10.39h34.7v-10.39z" fill="url(#paint49_linear_2390_6000)"/><path fill-rule="evenodd" clip-rule="evenodd" d="M1204.69 707.73l1.01 37.95h8.15l.84-37.95h-10zm-19.44 38.459l.21-33.75h4.03l-.67 33.75h-3.57z" fill="#fff"/><path opacity=".5" fill-rule="evenodd" clip-rule="evenodd" d="M1184.41 712.44l30.28-2.02v-2.69h-30.28v4.71z" fill="#AF1140"/><path fill-rule="evenodd" clip-rule="evenodd" d="M1161.95 786.801l11.85 135.22h4.55l-2.24-135.22h-14.16zm107.49 1l-9.32 138.57h-4.18v-138.57h13.5z" fill="#FB8F7D"/><path fill-rule="evenodd" clip-rule="evenodd" d="M1255.94 787.801h-8.73l5.31 137.24 3.42 1.33v-138.57zm-93.99-1l-8.61-.24 16.8 135.46h3.66l-11.85-135.22z" fill="#E74C44"/><path fill-rule="evenodd" clip-rule="evenodd" d="M1192.69 747.98l151.59-.5-1.28 13.33-150.31-1.779V747.98z" fill="#F7FBB6"/><path fill-rule="evenodd" clip-rule="evenodd" d="M1204.43 759.18l2.55 28.62h125.16l2.3-27.08-130.01-1.54z" fill="#FBC0B7"/><path fill-rule="evenodd" clip-rule="evenodd" d="M1192.69 747.98h-57.92l1.95 10.08 55.97.971V747.98z" fill="#E8564D"/><path fill-rule="evenodd" clip-rule="evenodd" d="M1206.98 787.8l-53.61-.76-5.66-28.78 56.72.92 2.55 28.62z" fill="#E74C44"/><path fill-rule="evenodd" clip-rule="evenodd" d="M1206.98 787.801l7.69 135.22h5.33l3.55-135.22h-16.57zm125.16 0l-14.42 138.57h-4.88l3.51-138.57h15.79z" fill="#FBC0B7"/><path fill-rule="evenodd" clip-rule="evenodd" d="M1316.35 787.801h-10.21l2.7 137.24 4 1.33 3.51-138.57zm-109.37 0l-10.07-.24 13.48 135.46h4.28l-7.69-135.22z" fill="#E74C44"/><path opacity=".3" fill-rule="evenodd" clip-rule="evenodd" d="M1166.37 837.22l10.44-8.57-.69-41.29-14.14-.2 4.39 50.06zm100.53-11.659l-10.96 5.32v-43.08h13.5l-2.54 37.76zm-61.11-52.531l128.26-7.64.39-4.67-130.01-1.54 1.36 13.85z" fill="#AF1140"/><path fill-rule="evenodd" clip-rule="evenodd" d="M1255.94 747.48l2.76 10.78v-8.53l2.33 4.411 19.08 2.919 10.9-9.58h-35.07z" fill="#FBB000"/><path fill-rule="evenodd" clip-rule="evenodd" d="M1237.06 778.371l-1.67 6.33 6.33-3.17 3.33-5.16-7.99 2z" fill="#CD0B0B"/><path fill-rule="evenodd" clip-rule="evenodd" d="M1333.36 773.49l-8.72 31.63v15.08l4.96-8.01-7.11 31.05 2.62 12.17 8.25-81.92z" fill="#FB3F48"/><path fill-rule="evenodd" clip-rule="evenodd" d="M1297.11 747.98v8.08l2.89 2.2 11.25-6.2 2.96.81 11.76-2.58-3.48 3.85h3.48l13.32-6.65-42.18.49zm-90.13 47.039l8.29-4.66 5.32 10.99-9.17 11.91-3.12-2.29-1.32-15.95z" fill="#9143D4"/><path fill-rule="evenodd" clip-rule="evenodd" d="M1204.43 796.24l-2.12 3.109 3.48 9.991 2.51 1.629-1.32-15.949-2.55 1.22z" fill="#6A19AA"/><path fill-rule="evenodd" clip-rule="evenodd" d="M1213.79 825.101v-4.88l2.95-2.44.89 3.66-3.84 3.66z" fill="#9143D4"/><path fill-rule="evenodd" clip-rule="evenodd" d="M1322.49 809.341l.99-5.49 4.44-13.49v-12.82l-8.61 15.9v7.74l3.18-1.5-1.68 5.66 1.68 4z" fill="#FB8D00"/><path fill-rule="evenodd" clip-rule="evenodd" d="M1223.89 742.212v-54.76l9.02-10.98 31.81-.87 10.47 11.85-1.64 55.66-5.02 4.87-39.52-.25-5.12-5.52z" fill="url(#paint50_linear_2390_6000)"/><path fill-rule="evenodd" clip-rule="evenodd" d="M1232.91 676.472l-1.17-4.62h34.41l-1.43 3.75-31.81.87z" fill="url(#paint51_radial_2390_6000)"/><path fill-rule="evenodd" clip-rule="evenodd" d="M1228.94 674.16h40.05l1.96-8.15-44.29.63 2.28 7.52z" fill="url(#paint52_radial_2390_6000)"/><path opacity=".3" fill-rule="evenodd" clip-rule="evenodd" d="M1226.66 704.381l44.29-1.25v37.37l-3.12 3.71h-36.09l-5.08-3.03v-36.8z" fill="#AF1140"/><path opacity=".5" fill-rule="evenodd" clip-rule="evenodd" d="M1226.66 666.64l2.28 7.52h3.38l.59 2.31-9.02 10.98v29.16h4.51l1.38-24.26 1.96-.73v10.34l1.17 1.17.93-18.64 2.02.81-.96 20.18 7.36.6 1.51-27.66h2.19v5h2.84v-9.26h2.21l.84-8.15-25.19.63z" fill="url(#paint53_linear_2390_6000)"/><path opacity=".5" fill-rule="evenodd" clip-rule="evenodd" d="M1246.13 666.15l.42 7.64 2.25.37 2.21 11.83.84 28.01h.92l.68-25.24 1.09-.34.76 30.29 4.37-.67.59-30.71-6.65-11.43.25-1.74h2.11l.39-7.95-10.23-.06z" fill="url(#paint54_linear_2390_6000)"/><path opacity=".5" fill-rule="evenodd" clip-rule="evenodd" d="M1256.36 666.21l-.39 7.95h-2.11v2.18l8.54 10.99v26.25h1.98l1.77-24.23h1.43l-.59 23.23 6.56-.79 1.64-24.34-10.47-11.85.55-1.44h3.72l1.96-8.15-14.59.2z" fill="url(#paint55_linear_2390_6000)"/><path fill-rule="evenodd" clip-rule="evenodd" d="M1253.86 678.42l2.53 10 14.56-.15-8.55-9.85h-8.54zm2.5 11.65v55.48h12.48l2.86-54.01-15.34-1.47z" fill="#fff"/><path fill-rule="evenodd" clip-rule="evenodd" d="M1237.87 666.48l-13.98-41.49 2.58-1.01 15.28 42.4-3.88.1zm16.72-.33l5.02-27.38h3.8l-3.8 27.38h-5.02z" fill="#A21528"/></g><g clip-path="url(#clip4_2390_6000)"><path d="M1830.86 925.36c0 22.44-89.64 22.28-199.49 22.28-109.85 0-198.33.16-198.33-22.28s120.97-58.02 230.83-58.02c109.86 0 166.99 35.58 166.99 58.02z" fill="url(#paint56_linear_2390_6000)" opacity=".2"/><path d="M1493.27 844.721c3.47 1.19 12.56 4.33 16.64 5.78-4.43 1.69-11.44-1.36-16.64-5.78z" fill="#3A2A80"/><path d="M1606.81 863.17l-2.64 19.37 33.06 8.52 2.76-20.34-4.59-19.74-28.59 12.19zm-120.11-38.469l-11.36 16.22 14.26 23.83 3.67-3.05 14.14-21.85-20.71-15.15z" fill="#fff"/><path d="M1677.77 719.69c-.79 6.44-2.12 14.12-3.81 22.54-.39 1.96-.8 3.97-1.24 6.02-1.02 4.81-2.12 9.81-3.31 14.93-3.44 14.88-7.48 30.73-11.42 45.54-4.75 17.88-9.36 34.26-12.64 45.69-2.9 10.07-4.75 16.29-4.75 16.29-8.22.35-14.81.03-20.04-.63-3.36-.43-6.15-1-8.47-1.62-2.32-.62-4.16-1.29-5.6-1.93-3.36-1.48-4.53-2.78-4.53-2.78l16.52-109.42.99-23.23 4.51-13.2-.32-.51-4.72-7.56-5.04-8.08-13.64-21.86-8.5-13.64-2.43-3.89-4.6-7.37-.06-.1c-.76 1.33-1.6 3.48-2.51 6.24-.08.26-.17.52-.25.78-.25.79-.51 1.62-.77 2.49-.53 1.77-1.06 3.71-1.61 5.77-.49 1.86-.99 3.82-1.49 5.85-.12.46-.24.96-.36 1.49-1.38 5.9-3.33 15.88-5.34 26.76-.19 1.02-.38 2.05-.57 3.08-.13.71-.26 1.42-.39 2.14-.07.43-.15.86-.23 1.29-.14.74-.28 1.47-.4 2.21-.04.27-.09.53-.15.8-2.4 13.22-4.69 26.43-6.03 34.31-.01.03-.01.06-.02.09-.11.63-.22 1.23-.31 1.8v.01c-.1.56-.19 1.08-.27 1.56-.16.97-.3 1.78-.41 2.39-.03.16-.05.32-.07.45l-.17.97-25.94 36.42s-15.42 30-28.92 48.29a103.8 103.8 0 01-4.07 5.19c-4.73-1.95-10.43-2.76-12.5-1.02-.8.66-1.55 2.48-2.17 4.46l-3.96-1.94-8.03-3.93-1.23-.61c-.43-.68-.79-1.39-1.09-2.11-1.8-4.3-1.38-8.78-1.38-8.78l31.71-81.5-3.17-14.76.99-35.39.54-19.62.47-16.83-.87-11.28-.5-6.5-1.11-14.24-1.79-18.43-.91-9.33c2.98-1.63 6.87-1.79 10.26-3.26 2.46-1.08 5.01-2.12 7.62-3.13.85-.32 1.72-.64 2.58-.96 1.14-.42 2.29-.83 3.45-1.23 1.29-.45 2.59-.9 3.9-1.33 1.41-.46 2.82-.92 4.24-1.36 11.7-3.66 23.89-6.66 34.82-9.02 6.13-1.33 11.86-2.44 16.9-3.37.9-.17 1.78-.33 2.63-.48 3.12-.56 5.91-1.03 8.3-1.43 2.24-.36 4.12-.65 5.58-.87 2.28-.35 3.54-.51 3.54-.51s3.27 4.72 8.48 12.49c6.17 9.21 15.08 22.71 24.52 37.7 1.42 2.26 2.86 4.56 4.3 6.9h.01c3.75 6.06 7.55 12.3 11.24 18.52 4.63 7.83 9.11 15.65 13.15 23.13.75 1.39 1.48 2.76 2.21 4.13 2.44 4.63 4.69 9.1 6.68 13.31.16.33.31.65.46.97 1.28 2.73 2.44 5.35 3.46 7.83.11.27.22.57.3.9.92 3.31.73 9.38-.25 17.31z" fill="#3A2A80"/><path d="M1504.39 845.26c-2.62 3.14-5.09 5.61-7.27 7.08l-7.4-3.64c.62-1.98 1.37-3.8 2.17-4.46 2.07-1.74 7.77-.93 12.5 1.02z" fill="#3A2A80"/><path d="M1588.08 579.551l-8.55 90.61c-.49 1.86-.99 3.82-1.49 5.85-1.39 5.61-3.51 16.39-5.7 28.25-.19 1.02-.38 2.05-.57 3.08-.13.71-.26 1.42-.39 2.14-.07.43-.15.86-.23 1.29-.14.74-.28 1.47-.4 2.21-.04.27-.09.53-.15.8-2.4 13.22-4.69 26.43-6.03 34.31-.01.03-.01.06-.02.09-.11.63-.22 1.23-.31 1.8v.01c-.1.56-.19 1.08-.27 1.56-.16.97-.3 1.78-.41 2.39-.03.16-.05.32-.07.45l-.17.97-25.94 36.42s-15.42 30-28.92 48.29l-4.99 3.15 9.73-20.78c-3.7 4.64-8.88 12.47-9.11 12.82 2.15-7.06 30.12-47.46 30.12-47.46l15.35-23-7.18-11.54 7.32 9.15h2.69l8.56-13.17 5.02-37.85s-4.35-2-9.39-1.92c-28.38.45-43.56 13.38-43.56 13.38l-5.49 25.29-3.29-14.52 5.81-75.59-7.95-26.81-1.79-18.43-.91-9.33c2.98-1.63 6.87-1.79 10.26-3.26 2.46-1.08 5.01-2.12 7.62-3.13.85-.32 1.72-.64 2.58-.96 1.14-.42 2.29-.83 3.45-1.23 1.29-.45 2.59-.9 3.9-1.33 1.41-.46 2.82-.92 4.24-1.36 18.26-5.71 37.69-9.82 51.72-12.39l4.91-.25z" fill="#32256E"/><path d="M1570.71 703.99c-.13-.02-.25-.04-.38-.05v-.01l.38.06zm107.31-1.61l-46.91 32-24.62 132.14c-3.36-1.48-4.53-2.78-4.53-2.78l16.52-109.42.99-23.23 4.51-13.2-.32-.51-4.72-7.56-5.04-8.08-13.64-21.86-8.5-13.64-2.43-3.89-4.6-7.37-.06-.1c-.76 1.33-1.6 3.48-2.51 6.24-.08.26-.17.52-.25.78-.25.79-.51 1.62-.77 2.49-.53 1.77-1.06 3.71-1.61 5.77-.49 1.86-.99 3.82-1.49 5.85-.12.46-.24.96-.36 1.49l-11.42-94.34c6.13-1.33 11.86-2.44 16.9-3.37.9-.17 1.78-.33 2.63-.48 3.12-.56 5.91-1.03 8.3-1.43 2.24-.36 4.12-.65 5.58-.87 2.28-.35 3.54-.51 3.54-.51s3.27 4.72 8.48 12.49c6.17 9.21 15.08 22.71 24.52 37.7 1.42 2.26 2.86 4.56 4.3 6.9h.01c3.75 6.06 7.55 12.3 11.24 18.52 4.63 7.83 9.11 15.65 13.15 23.13.75 1.39 1.48 2.76 2.21 4.13 2.44 4.63 4.69 9.1 6.68 13.31.16.33.31.65.46.97 1.28 2.73 2.44 5.35 3.46 7.83.11.27.22.57.3.9z" fill="#32256E"/><path d="M1496.69 395.011s5.31-6.83 6.5-23.53l38.7-15.6s-2.8 12.75 2.75 24.37c1.47 3.07 8.97 10.79 8.97 10.79s-37.21 37.23-53.33 32.02c-16.13-5.21-11.57-22.85-11.57-22.85s2.7 1.29 7.98-5.2z" fill="url(#paint57_linear_2390_6000)"/><path d="M1541.21 365.481s-16.36 26.9-41.21 22.63c0 0 2.93-9.63 3.18-16.63 0 0 11.68.52 20.58-2.45 10.02-3.34 18.13-13.15 18.13-13.15l-.68 9.6z" fill="url(#paint58_linear_2390_6000)"/><path d="M1645.83 465.099l-5.76-13.8s5.76-3.74 19.26-1.41c0 0 2.96 4.1 9.28 7.5 0 0 12.74-1.63 21.38 1.81 8.64 3.44 10.76 2.97 13.11-3.69.63-1.77-.64-5.56-3.06-10.26-3.67-7.1-10-16.29-16.5-23.78-5.37-6.17-10.86-11.17-15.07-12.89 0 0-2.52-4.32-6.71-6.27-.06.13-.12.26-.17.4-.4.86-1.53 2.92-3.54 3.77-2.6 1.1-6.87-1.2-6.87-1.2s-1.24 1.01-1.3 2.42c0 0-12.99.41-25.08-5.27-12.07-5.67-13.78-6.23-13.78-6.23s-1.91.36-4.2 1.31c-1.8.74-3.84 1.86-5.37 3.46-.02.02.11 62.9 44.38 64.13z" fill="url(#paint59_linear_2390_6000)"/><path opacity=".83" d="M1645.83 465.1l-5.76-13.8s5.76-3.74 19.26-1.41c0 0 2.96 4.1 9.28 7.5 0 0 12.74-1.63 21.38 1.81 8.64 3.44 10.76 2.97 13.11-3.69.63-1.77-.64-5.56-3.06-10.26l-1.89-1.29-14.62-22.49c-5.37-6.17-10.86-11.17-15.07-12.89 0 0-2.52-4.32-6.71-6.27-.06.13-.12.26-.17.4-4.6 10.38 2.53 27.5 9.37 39.23-1.95-2.84-11.04-12.82-12.28-11.7-1.6 1.43 8.75 23.94 8.75 23.94-15.02-15.32-17.36-44.04-17.54-46.33-1.07 21.31 7.97 39.11 7.97 39.11l-24.05-1.32s-16.23-3.49-23.88-22.69c-7.65-19.2-3.1-25.44-3.1-25.44-1.8.74-3.84 1.86-5.37 3.46-.02.02.11 62.9 44.38 64.13z" fill="url(#paint60_linear_2390_6000)"/><path d="M1674.26 440.77c13.73 19.92 26.09 17.35 26.09 17.35 10.52-7.81 12.97-31.62 6.46-48.83-6.51-17.22-24.39-59.49-24.39-59.49s6.94-2.58 9.42-7.99c2.48-5.41 2.65-17.98 3.45-19.67.79-1.69 9.73-12.46 10.28-12.97.55-.5 4.72-2.19 7.07-5.32 2.35-3.14 1.63-5.15.77-5.32-.85-.18-5.66 2.07-9.13 5.06-3.47 2.99-9.03 7.91-10.19 7.94-1.15.02-3.47-2.86-3.47-2.86.18-1.87 1.18-4.23 2.31-6.41 0 0 .01 0 .01-.01 1.56-3.02 3.39-5.66 3.67-6.07.03-.03.04-.05.04-.05 4.23-4.5 6.52-11.11 6.23-12.68-.29-1.56-1.18-3.62-2.2-3.39-1.02.23-4.88 4.64-8.69 10.03-.46.65-.92 1.35-1.37 2.08l-.01.01-.02.03c-.76 1.23-1.51 2.54-2.23 3.83l-.11.2c-.96 1.75-1.85 3.45-2.62 4.85-1.04 1.92-1.85 3.31-2.31 3.55-1.2.63-4.65-1.07-4.65-1.07-.13-2.22.01-4.47.28-6.6.22-1.62.51-3.18.84-4.59.02-.08.03-.16.05-.24.73-3.08 1.58-5.52 2-6.64v-.01c.01 0 0-.01.01-.01 0-.01.01-.02.01-.03.01 0 0-.01.01-.01 0-.01 0-.01.01-.01v-.01c.14-.39.23-.6.23-.6 4.09-6.75 3.32-16.49 2.46-18.26-.86-1.77-3.16-2.62-4.23-2.23-.83.31-3.19 9.17-5.25 16.43 0 0-.01 0-.01.01s-.01.03-.01.05c-.57 1.98-1.1 3.83-1.57 5.36-.41 1.29-.75 2.69-1.05 4.11-1.39 6.41-1.96 13.32-3.21 13.84-1.54.63-8.05-2.78-9.25-.43-1.21 2.34-1.35 18.03-1.35 18.03s-3.16-1.26-4.73-2.19c-1.58-.92-4.16-9.38-8.1-12.47-3.95-3.08-8.8.27-8.31 1.31.48 1.05 6.41 5.97 10.71 14.68 4.3 8.71 5.33 17.2 7.54 20.14 2.21 2.95 12.69 8.28 12.69 8.28 12.13 32.61.01 57.14.01 57.14l-5.26 1.37c0-.03-2.65 10.86 11.07 30.78z" fill="url(#paint61_linear_2390_6000)"/><path d="M1669.24 304.1s5.8 2.17 13.89 6.46c6.6 3.5 12.16 11.58 12.16 11.58s3.05-4.76 5.08-6.81c2.03-2.05-14.24-9.31-14.24-9.31l-15.84-4.17-1.05 2.25z" fill="url(#paint62_linear_2390_6000)"/><path d="M1688.25 296.22c-.96 1.75-1.85 3.45-2.62 4.85l7.29 1.17s.01 0 .01-.01c.15-.24 2.62-4.21 3.71-6.12 0 0-.01.02-.04.05-.31.41-2.29 2.89-3.65 3.37-1.49.53-3.97-1.83-4.2-2.18-.22-.34 1.73-4.9 1.86-5.18l-.02.03-2.23 3.83-.11.19z" fill="url(#paint63_linear_2390_6000)"/><path d="M1678.96 296.96c.22-1.62.51-3.18.84-4.59.02-.08.03-.16.05-.24.35-1.82.96-4.26 2-6.64v-.01c-.32.63-2.35 4.59-3.89 4.51-1.67-.09-3.14-1.33-3.63-2.09-.46-.73.61-6.39.75-7.09 0-.02.01-.04.01-.05-.14.43-2.68 8.44-2.64 9.5v.02c.08.65 3.56 3.97 6.51 6.68z" fill="url(#paint64_linear_2390_6000)"/><path d="M1659.28 307.37s.85-8.28.77-16.8c-.08-8.52.51-22.75 3.55-23.26 3.03-.51 4.98 6.99 5.36 12.3.38 5.31-1.46 8.55-1.36 11.41.1 2.86 1.64 13.09 1.64 13.09s-4.72 4.95-9.96 3.26z" fill="url(#paint65_linear_2390_6000)"/><path d="M1678.91 337.57c5.98-1.84 12.47-12.36 10.52-17.17-1.95-4.8-15.8-12.25-20.98-7.85-5.18 4.39-5.19 10.33-1.58 13.31 4.13 3.42 8.63 12.75 12.04 11.71z" fill="url(#paint66_linear_2390_6000)"/><path d="M1658.65 321.69s11.7 5.7 16.19 13.74c0 0-5.78-12.12-16.15-16.6l-.04 2.86z" fill="url(#paint67_linear_2390_6000)"/><path d="M1682.42 349.799s-5.91 2.38-9.07 2.24l12.26 5.35c.01 0-1.6-4.27-3.19-7.59z" fill="url(#paint68_linear_2390_6000)"/><path d="M1668.45 408.59s-.85 6.71 7.75 25.27c8.6 18.57 21.89 24.34 21.89 24.34s-7.62 3.13-22.56-15.42c-14.94-18.55-12.33-32.82-12.33-32.82l5.25-1.37z" fill="url(#paint69_linear_2390_6000)"/><path d="M1637.26 487.139s-3.72-1-5.11 2c-1.39 3-4.97 38.62-3.39 48.56 1.6 9.94 5.17 6.14 5.17 6.14s-.19 5.92-2.54 7.66l-.02-.01c-.03-.01-.09-.06-.16-.11-.06-.03-.13-.08-.22-.14h-.01c-1.45-.89-6.46-4-11.09-6.98-5.46-3.54-8.7-6.6-8.7-6.6s.57-5.93.52-7.59c-.05-1.67-13.05-40.69-25.04-52.54-11.19-11.05-2.41-75.41-1.17-84.1l.15-.97s9.5 2.5 13.66 5.35c4.14 2.87 19.82 38.43 21.1 56.89 1.29 18.46 8.24 28.75 8.24 28.75s2.18-1.41 5.93-.17l2.68 3.86z" fill="url(#paint70_linear_2390_6000)"/><path opacity=".83" d="M1630.98 551.239c-1.45-.89-6.46-4-11.09-6.98-5.46-3.54-8.7-6.6-8.7-6.6s.57-5.93.52-7.59c-.05-1.67-13.05-40.69-25.04-52.54-11.19-11.05-2.41-75.41-1.17-84.1l.15-.97s7.95 9.39 11.83 28.41c3.9 19.04.3 56.88.3 56.88s7.54 30.3 23.92 30.37c0 0-13.13 20.5-7.42 30.42 1.08 1.9 14.14 11 16.7 12.7z" fill="url(#paint71_linear_2390_6000)"/><path d="M1625.74 527.71s-.74 12.51 6.92 18.11c0 0 15.15-8.49 22.34-21.84 7.19-13.34-29.26 3.73-29.26 3.73z" fill="url(#paint72_linear_2390_6000)"/><path d="M1495.47 602.849l-.2 1.94s20.59-5.86 30.56-6.52c9.97-.66 20.78 6.97 41.92 2.46s28.59-20.07 28.59-20.07l-1.38-3.85-99.49 26.04z" fill="url(#paint73_linear_2390_6000)"/><path opacity=".62" d="M1502.45 602.859s20-5.66 47.92-9.67 38.44-5.29 41-7.45c2.56-2.16 4.17-7.36 4.17-7.36l-.57-1.58-99.5 26.05-.2 1.94 7.18-1.93z" fill="url(#paint74_linear_2390_6000)"/><path d="M1683.87 486.67s4.39 3.35 4.51 6.34c.11 2.99-7.04 1.81-7.04 1.81l2.53-8.15z" fill="url(#paint75_linear_2390_6000)"/><path d="M1500.13 381.439s19.11 17.96 35.12 18.53c17.15.61 13.91-13.54 13.91-13.54s8.06 10.63 6.1 19.24c-1.97 8.62-18.86 9.53-32.06 4.23-13.2-5.3-26.32-27.01-26.32-27.01l3.25-1.45z" fill="url(#paint76_linear_2390_6000)"/><path d="M1582.62 491.16s-4.68 29.09 3.44 60.2c0 0 4.52 2.91 5.19 6.77 0 0 0 .03.02.07.64 3.85-.07 7.43-.07 7.43s2 1.89 3.75 4.6c.32.52.52 1.13.59 1.8.35 2.86-1.18 6.54-1.18 6.54s-3.08 8.7-37.64 12.77c-34.56 4.08-61.25 11.51-61.25 11.51s-2.3-6.86 1.37-12.24c0 0-6.05-5.09-5.83-7.05.22-1.95 12.33-24.5 8.55-39.92-3.79-15.43-16.63-27.66-24.46-57.75 0 0-4.67-1.41-5.01-3.63-.34-2.2 1.86-5.88 1.86-5.88l.88 1.56s15.54-9.52 10.15-47.66c-5.37-38.14-9.53-37.48-17.42-36.17-1.61-.02 2.51-6.88 7.85-6.94 1.48-.02 1.48.94 1.48.94s5.01 1.89 10.77-.32 9.56-6.2 9.56-6.2 35.98 28.69 51.33 26.42c17.52-2.6 4.55-21.48 4.55-21.48s11.1 1.83 17.06 3.03c5.97 1.22 8.14-.24 8.14-.24s3.36-5.33 8.08-1.97c4.73 3.35 11.01 22.4 10.08 53.51-.92 31.1-11.84 50.3-11.84 50.3z" fill="url(#paint77_linear_2390_6000)"/><path opacity=".62" d="M1670.94 477.969s-1.15 20.66 3.94 30.19l17.69-41.8-8.93 2.38 1.3 4.13c0 .01-7.5-.13-14 5.1z" fill="url(#paint78_linear_2390_6000)"/><path d="M1691.22 466.4s3.08 2.3 3.73 4.24c.71 2.11 1.7 7.43-4.44 9.29l-2.75.82s2.06.86 2.47 2.24c.41 1.38-1.81 4.49-5.48 5.34-3.67.85-9.91-.45-11.81-2.06-1.9-1.61-.76-3.95 1.99-4.68 0 0-4.09-.79-3.99-3.62.1-2.83 9.35-6.15 19.26-5.52l1.02-6.05z" fill="url(#paint79_linear_2390_6000)"/><path d="M1698.3 452.129s5.13 4.48 5.22 7.67c.09 3.19-7.13 7.42-19.7 9.37 0 0-1.25-2.41-.15-5.08s7.3-6.55 12.47-7.54l2.16-4.42z" fill="url(#paint80_linear_2390_6000)"/><path d="M1684.87 490.18s-8.59-.58-7.62 7.23c0 0 4.81.53 8.3-.59 3.48-1.12 2.94-3.79 2.64-4.7-.32-.92-.65-1.65-3.32-1.94z" fill="url(#paint81_linear_2390_6000)"/><path d="M1594.36 578.569s-3.08 8.7-37.64 12.77c-34.56 4.08-61.25 11.51-61.25 11.51s-2.3-6.86 1.37-12.24c0 0-6.05-5.09-5.83-7.05.22-1.95 12.33-24.5 8.55-39.92-3.79-15.43-16.63-27.66-24.46-57.75 0 0-4.67-1.41-5.01-3.63-.34-2.2 1.86-5.88 1.86-5.88l.88 1.56s15.54-9.52 10.15-47.66c-5.37-38.14-9.53-37.48-17.42-36.17 0 0 1.89-6.25 7.28-6.65 0 0 13.5 4.42 26.55 32.76 6.39 13.89 19.5 60.38 19.5 60.38s5.02 6.56 25.84 5.25c20.79-1.31 18.59-3.87 36.91-3.09 0 0-39.34 5.38-54.23 8.52-14.89 3.15-28.39 9.23-28.39 9.23s13.55 29.16 12.06 48.9c-1.07 14.13-5.89 26.06-5.89 26.06s2.64.95 28.05-.9c25.41-1.86 58.01-16.43 58.01-16.43s0 .03.02.07c.12.57.86 4.44-.07 7.43 0 0-25.25 6.29-48.59 11.42-23.34 5.12-36.98 12.75-36.98 12.75s4.87 2.54 41.32-2.51c36.45-5.04 46.95-7.79 48.59-15.28l.02.03c.34 2.85-1.2 6.52-1.2 6.52z" fill="url(#paint82_linear_2390_6000)" opacity=".62"/><path opacity=".62" d="M1493.98 493.79s4.17-5.91 14.13-7.84c9.97-1.93 25.97 1.47 35.74 1.17 0 0-27.17 5.98-37.49 7.76-10.32 1.78-12.38-1.09-12.38-1.09z" fill="url(#paint83_linear_2390_6000)"/><path opacity=".62" d="M1576.3 389.31s10.5 17.18 13.44 54.46c0 0 .79-29.57-10.2-57.2.01 0-1.58.47-3.24 2.74z" fill="url(#paint84_linear_2390_6000)"/><path opacity=".62" d="M1575.38 405.07s-2.39 22.02-25.17 54.11c0 0 15.15-13.03 20.23-25.38 5.4-13.11 4.94-28.73 4.94-28.73z" fill="url(#paint85_linear_2390_6000)"/><path d="M1520.59 547.479s7.23 10.95 22.28 13.28 34.86-3.43 34.86-3.43-19.12 3.89-33.68-.49c-14.55-4.37-23.46-9.36-23.46-9.36z" fill="url(#paint86_linear_2390_6000)" opacity=".62"/><path opacity=".5" d="M1468.86 462.679s11.08-4.96 15.16-13.49c0 0-.05 20.83-11.2 28.74.01 0-3.08-8.35-3.96-15.25z" fill="url(#paint87_linear_2390_6000)"/><path d="M1687.76 480.75s-7.28 1.05-12.83.84c0 0 7.67 1.17 13.8-.31l-.97-.53z" fill="url(#paint88_linear_2390_6000)"/><path opacity=".83" d="M1495.79 394.609c.03.12.08.22.13.33-.06-.15-.11-.27-.13-.33z" fill="url(#paint89_linear_2390_6000)"/><path d="M1505.2 575.459s13.54.04 41.23-5.73c29.45-6.14 39.64-18.37 39.64-18.37s4.33 2.64 5.19 6.77c0 0-24.8 11.34-44.74 14.53-19.94 3.2-37.23 3.89-41.32 2.8z" fill="url(#paint90_linear_2390_6000)"/><path d="M1534.46 588.869s16.69-3.19 35.27-8.32c18.58-5.13 25.23-10.32 25.23-10.32s3.26 5.93-8.92 9.76c-12.2 3.84-51.58 8.88-51.58 8.88z" fill="url(#paint91_linear_2390_6000)"/><path d="M1551.11 386.52l-1.94-.1s4.19 6.28 5.18 11.52c.99 5.24-2.41 8.74-7.79 10.05 0 0 8.71-.76 9.64-6.8.93-6.03-5.09-14.67-5.09-14.67z" fill="url(#paint92_linear_2390_6000)"/><path d="M1543.9 516.63s-16.99 10.4-28.44 15.35c-11.44 4.95-18.11-5.59-18.11-5.59s-11.57-22.13-18.53-30.19c-6.95-8.06-23-33.33-27.14-47.4-4.14-14.07-7.42-28.84-3.89-39.27 3.54-10.43 9.02-15.77 13.14-17.7 4.11-1.93 5.84 1.8 5.84 1.8s1.99-4.07 4.12-4.01c9.75.29 26.76 35.13 44.4 92.56.28.92 2.56 1.5 3.52 1.56 9.86.67 42.21-11.54 42.21-11.54l-17.12 44.43z" fill="url(#paint93_linear_2390_6000)"/><path fill-rule="evenodd" clip-rule="evenodd" d="M1600.39 898c-.39 3.63-.45 7.38-.39 10.74.13 6.87.82 12.22.82 12.22s32.97-.22 47.23 1.04c.94.08 1.83.16 2.59.26 12.33 1.55 22.62 3.43 31.38 3.72 8.75.29 27.73-1.12 38.47-11.32 0 0-.45-2.47-1.88-5.47-1.29-2.72-3.37-5.88-6.61-8.03 0 0-17.39-1.34-30.85-7.45-2.28-1.03-4.43-2.18-6.37-3.5-13.44-9.14-23.78-26.26-23.78-26.26s-1.83-3.06-9.63 4.59c0 0 1.81 3.76 3.82 11.92 0 0-26.08 1.26-29.46.42-3.38-.82-16.03-2.2-20.26-2.12l7.1 5.61c.01 0-1.05 2.59-2.18 13.63z" fill="#4194F1"/><path fill-rule="evenodd" clip-rule="evenodd" d="M1600 908.741c.13 6.87.82 12.22.82 12.22s37.52-.26 49.82 1.3c12.33 1.55 22.62 3.43 31.38 3.72 8.75.29 27.73-1.12 38.47-11.32 0 0-.45-2.47-1.88-5.47-21.05 8.58-45.81 8.62-70.31 4.03-24.48-4.62-48.3-4.48-48.3-4.48z" fill="#E6E6E6"/><path d="M1537.87 914.829c-.01 4.12-.45 7.28-.45 7.28-.06.09-.14.18-.23.27-.08.09-.18.18-.29.26-.34.28-.8.54-1.36.79a16.023 16.023 0 01-1.26.49c-.21.07-.42.15-.65.22-.02.01-.05.02-.08.02-1.07.33-2.35.64-3.8.91l-.67.12c-.25.05-.5.09-.76.13-.62.1-1.27.2-1.95.28-.46.07-.93.12-1.41.18-3.94.45-8.65.7-13.91.67-2.85-.02-16.09-.57-20.99-3.38-4.6-2.65-9.59-18.68-11.84-23.49-4.62-9.9-14.37-25.45-15.47-30.3l-.06-.27a.88.88 0 00-.02-.17l-.03-.3c-.01-.09-.01-.19-.01-.28 0-1.82 1-3.63 2.14-5.4.25-.39.5-.77.75-1.16.78-1.19 1.86-2.29 2-3.53 1.06-9.21 5.66-15.5 7.89-18.06.3.72.66 1.43 1.09 2.11l1.23.61c.52 1.54 1.17 3.13 1.9 3.99 5.51 6.58 8.41 8.59 8.41 8.59s.68-3.56 1.68-6.71c.62-1.98 1.37-3.8 2.17-4.46 2.07-1.74 7.77-.93 12.5 1.02 3.59 1.49 6.63 3.63 7.12 5.82.46 2.07-3.65 5.6-3.52 7.72.18 3.1 3.71 8.12 4.41 11.61 1.53 7.56 6.83 19.1 7.98 21.56.14.31.22.47.22.47s9.06 5.38 11.16 7.02c.69.54 1.31 1.15 1.84 1.83 1.74 2.17 2.72 4.98 3.2 8.07v.01c.2 1.34.32 2.73.35 4.14.01.18.07.32.16.44.21.28.57.45.56.88z" fill="#4194F1"/><path d="M1462.67 868.839c.01.05.02.11.02.17l.06.27c1.1 4.85 10.85 20.4 15.47 30.3 2.25 4.81 7.24 20.84 11.84 23.49 4.9 2.81 18.14 3.36 20.99 3.38 14.44.09 24.77-1.98 26.37-4.34 0 0 .44-3.16.45-7.28.01-.43-.35-.6-.56-.88-7.83 1.59-40.7 4.49-45.83.42-2.92-2.32-8.15-14.89-15.04-26.48-10.89-18.34-11.18-24.86-10.92-26.19-2.38 2.11-3.1 5.12-2.85 7.14z" fill="#E6E6E6"/><path d="M1709.87 374.771l-15.74-.09-2.66-.01-37.52-.2-30.04-.16-67.33-.35-2.26 32.09v.01l-.77 10.96v.01l-.16 2.28-.84 12.04v.01l-.2 2.83v.01l-1.09 15.45-3.51 49.86-.13 1.94-5.15 73.23-.3 4.32-1.18 16.73-.13 1.9-.02.18-.54 7.79-.59 8.29-.52 7.48-.05.71-.13 1.76-.01.26v.01l-.03.33-.03.39-3.96 56.4-.77 10.96h259.18l33.35-316.81-116.87-.61zm75.95 270.88v.01l-.51 4.89-33.74 29.68h-23.99l-5.83-.01h-43.37l-15.97-.01h-49.24l-16.08-.01h-18.65l-3.14-3.26-25.6-26.55 2.29-31.77.07-1.03.09-1.17v-.01l.1-1.47.15-1.98.33-4.59.84-11.72v-.01l.33-4.54.01-.2.22-3.08.75-10.38.27-3.78 1.95-27.04 28.33.07 35.78.08 4.94.01 15.98.04 29.09.07 4.92.01 15.87.04 28.86.07 5.22.01 15.99.04 53.84.13-10.1 97.46zm-44.04-121.67l-99.03-.28-11.31-.03-4.94-.01-2.02-.01h-2.76l-12.49-.04-4.11-.01-30.1-.08-16.18-.05.15-2.15 1.9-26.35.07-.89 1.1-15.34 2.27-31.6v-.01l.79-10.95.87-12.08.37-5.11 1.13-1.04.65-.61 15.23-14.08 17.38-16.06 24.91.12 38.71.2 25.58.13 2.83.01 15.75.08 72.1.36 25.37 28.4v.01l3.19 3.57-10.78 104.06-56.63-.16z" fill="#847773"/><path d="M1809.19 420.081l-10.78 104.06-239.57-.66 7.52-104.49 34.39-31.79 179.88.9 28.56 31.98zm-13.27 128.11l-10.6 102.36-33.74 29.68-173.14-.03-28.73-29.81 7.39-102.77 238.82.57z" fill="#847773"/><path d="M1809.19 420.081l-10.78 104.06-239.57-.66 7.52-104.49 34.39-31.79 179.88.9 28.56 31.98zm-13.27 128.11l-10.6 102.36-33.74 29.68-173.14-.03-28.73-29.81 7.39-102.77 238.82.57z" fill="#9C8D88"/><path d="M1534.21 692.191l-6.01-6.41 20.35-304.84 8.03-6.97-22.37 318.22z" fill="#C4C4C4"/><path d="M1559 521.32l236.29-.84L1806 416.5l3.19 3.58-10.78 104.06-239.57-.66.16-2.16zm16.31 155.63l175.09-.59 35.53-30.79-.61 4.98-33.74 29.68-173.14-.03-3.13-3.25z" fill="#756764"/><path d="M1666.61 639.68h.01l4.5-43.42-4.51 43.42zM1746.82 926l-.12-9.79-.28-21.95-1.13-90.25V804l-.22-17.69v-.01l-.67-53.51v-.02l-.51-40.58-.15-11.96-.05-3.86-1.61-128.31-.24-19.01-.06-5.07-.04-3.32-.08-6.58-.27-21.31h-15.95l.26 21.31h-30.19l.49-4.74 12.53-121.6 1.34-12.97 1.72-16.68h-15.74l-1.72 16.59-1.35 12.98-13.12 126.42h-30.15l1.04-4.74 3.63-16.57h-15.96l-4.07 18.52-2.14 9.77-.57 2.61-2.27 10.34-.17.77-1.39 6.33-.06.29-1.4 6.38-9.47 43.16-18.86 85.92-.73 3.34-2.63 11.99-22.19 101.1-25.47 116.07v.01l-1.07 4.86-2.18 9.93-2.18 9.93h16.26l36.69-167.71.87-3.98h133.44l1.42 119.85.11 9.01.29 24.45.11 8.73.11 9.65h16.25l-.1-8.09zm-91.36-178.88h-56.93l12.02-54.93 2.62-11.98.57-2.59.17-.81 1.42-6.49 15.24-69.63 11.56-52.87 4.11-18.77h31.86v.01l-1.96 18.84-1.71 16.46-.07.74v.01l-.65 6.24-.01.08-2.58 24.83-4.51 43.42-3.83 36.97-.37 3.56-1.25 11.98-2.73 26.29-2.97 28.64zm16.02 0l.63-6.14 5.03-48.79 1.24-11.97.37-3.63 2.12-20.59 4.31-41.8v-.01l1.19-11.51 3.95-38.32 1.69-16.42 1.95-18.89h31.91l.22 18.97 1.52 128.41.05 3.8v.25l.14 11.71.49 41.63v.01l.16 13.29h-56.97zm-.36-150.86l-4.51 43.42h.01l7.08-68.25-2.58 24.83z" fill="#4D3161"/><path d="M1673.42 529.061h4.69l-22.65 218.06h-56.92l1.34-6.14h48.75l24.79-211.92zm22.44-170.971l-16.19 155.84h-4.49l17.51-149.71 3.17-6.13zm-154.49 576l-3.43-7.03 94.72-431.45 5.57-2.84-96.86 441.32zm130.47-193.109h50.31l-1.4-211.92 5.13-.01 2.58 218.07h-56.98l.36-6.14z" fill="#7C5C99"/><path d="M1649.52 514.08l1.03-4.74h25.17l-.54 4.59-25.66.15zm46.48-4.74h24.15l.35-11.43 4.95-5.14.25 21.31h-30.19l.49-4.74zm34.67 424.75l-6.11-4.4-.9-167.29h4.98l2.03 171.69z" fill="#7C5C99"/><path d="M1808.82 934.089h-16.51l-118.18-369.73h16.37l118.32 369.73z" fill="#4D3161"/><path d="M1674.13 564.359l118.18 369.73-6.89-3.39-112.04-353.77.75-12.57z" fill="#7C5C99"/><path d="M1490.35 320.88c-.3 2.31-.48 4.63-.56 6.95-.86 23.81 8.61 44.18 15.17 48.36.66.42 1.29.68 1.87.76 9.53 1.33 39.63-5.47 48.28-22.18.2-.39.4-.81.6-1.27 3.42-7.89 6.77-26.33 8.15-34.2v-.01c.41-2.32.65-3.76.65-3.76l-4.16-32.24-34.06-15.79s-13.76.38-20.79 7.22c-1.23 1.2-3 4.25-3.69 5.82-1.13 2.57-.94 14.99-2.74 19.79-2.04 5.42-8.44 18.36-8.72 20.55z" fill="url(#paint94_radial_2390_6000)"/><path d="M1490.35 320.88c-.3 2.31 5.42 6.21 9.9 4.03 8.59-4.2 3.39-32.35 3.39-32.35s2.53-5.57 8.9-4.1c4.05.93 4.15 4.84 4.15 4.84-3.58 15.85-.33 30.76-.33 30.76 20.75 12.31 28.23-8.21 28.23-8.21 7.74.65 12.49 12.98 12.49 12.98l6.77-9.54v-.01c.41-2.32.65-3.76.65-3.76l-4.16-32.24-34.06-15.79s-13.76.38-20.79 7.22c-1.23 1.2-3 4.25-3.69 5.82-1.13 2.57-.94 14.99-2.74 19.79-2.03 5.43-8.43 18.37-8.71 20.56z" fill="url(#paint95_linear_2390_6000)"/><path d="M1502.44 279.26s1.46-2.99 3.84-5.23c.36-.34 1.08-.82 1.83-1.3 1.05 2.56 4.74 4.72 5.37 5.07.02.01.03.01.04.02-.02-.02-.05-.03-.06-.05-1.46-1.16-2.13-2.64-2.42-3.99a9.557 9.557 0 01-.16-2.66c.12-.06.18-.1.18-.1s1.33 3.9 4.29 6.26l.01.01c4.74 3.79 9.96 5.1 9.96 5.1s0-.02.01-.04c.1-.69 1.78-10.14 15.01-7.77 2.35.42 5.02 1.8 7.62 3.84 6.05 4.71 11.75 12.96 12.36 20.92.32 4.08-3.07 7.26-3.07 7.26s1.75 9.62 2.07 12.79c.28 2.89.33 11.42.33 11.42.32-.34 19.37-7.46 18.67-23.61-.65-15.06-17.83-26.71-21.78-33.01-4.35-6.95-6.03-40.73-49.71-33.64-23.68 3.83-4.39 38.71-4.39 38.71z" fill="url(#paint96_linear_2390_6000)"/><path d="M1559.22 325.64s7.28-8.91 12.6-4.83c6.31 4.84 3.46 17.21-2.38 23.02-5.07 5.05-11.15 4.47-12.92-.75 0-.01-2.92-11.89 2.7-17.44z" fill="url(#paint97_linear_2390_6000)"/><path d="M1504.48 313.25s.19-10.41-2.83-11.04c-2.52-.53-3.82 5.33-3.82 5.33l6.65 5.71z" fill="#77485E"/><path d="M1503.65 315.681s-1.37 2.1-4.3 1.42c-2.93-.67-2.57-5.78-2-7.56.57-1.77 6.29 4.49 6.3 6.14z" fill="#E87A8D"/><path d="M1497.25 310.91c-.13 3.39 1.3 5.99 3.88 5.98 1.08-.01 1.75-.29 2.23-.81.4-.44.64-1.04.85-1.78.1-.32.19-.67.28-1.05 0 0-.22-3.2-1.02-5.82-.19-.58-.38-1.11-.61-1.57-.4-.83-.9-1.45-1.51-1.67-1.99-.76-3.99 3.32-4.1 6.72z" fill="url(#paint98_linear_2390_6000)"/><path d="M1499.46 310.929c-.05 2.84 1.47 5.16 3.4 5.19.17 0 .34-.01.5-.04.4-.44.64-1.04.85-1.78.1-.32.19-.67.28-1.05 0 0-.22-3.2-1.02-5.82-.19-.58-.38-1.11-.61-1.57-1.85.11-3.35 2.32-3.4 5.07z" fill="url(#paint99_radial_2390_6000)"/><path d="M1500.91 310.96c-.04 1.97 1.02 3.58 2.36 3.6.33.01.65-.09.94-.26.1-.32.19-.67.28-1.05 0 0-.22-3.2-1.02-5.82h-.08c-1.34-.02-2.45 1.56-2.48 3.53z" fill="url(#paint100_linear_2390_6000)"/><path d="M1498.34 311.011a.87.87 0 101.74.03.87.87 0 10-1.74-.03z" fill="#fff"/><path opacity=".62" d="M1503.69 317.661s-1.13 7.12-7.21 6.69c-6.09-.44-3.51-10.13-3.51-10.13l.43-1s-1.63 7.37.57 9.5c1.64 1.59 6.23 1.19 7.84-2.45.28-.64.98-2.67.98-2.67l.9.06z" fill="url(#paint101_linear_2390_6000)"/><path d="M1560.21 333.22s4.2-6.09 8.29-5.05c4.09 1.04 3.6 7.43 3.6 7.43s-.52-4.59-3.14-5.02c-2.63-.43-3.86 3.04-3.86 3.04s1.38-.03 1.73 3.85c.35 3.88-3.81 7.94-5.88 5.39-2.08-2.54-.74-9.64-.74-9.64z" fill="#E87A8D"/><path d="M1542.12 312.541c-.07-.79-.26-1.54-.57-2.25-.04-.1-.08-.18-.13-.26-.02-.04-.04-.09-.06-.13-.25-.48-.57-.93-.94-1.35-2.88-3.19-10.11-5.59-16.06-6.34l-.49-.06c-1.78-.21-3.42-.25-4.78-.11-.11 0-.22.01-.34.02-1.49.18-2.59.59-3.09 1.26-.17.23-.33.51-.5.83-.46.97-.82 2.29-1.06 3.8-.05.31-.09.6-.14.91 0 .03-.01.05 0 .08-.5 4.03-.19 8.96 1.24 11.69.09.19.2.37.31.54.14.21.29.43.45.64 1.75 2.39 4.29 4.31 8.43 4.76 1.92.21 4.21.1 6.91-.43 4.53-.88 8.54-4.89 10.12-9.14v-.01c.3-.8.51-1.58.62-2.38.1-.7.12-1.4.08-2.07zm-18.23-9.14c.36.04.72.08 1.08.13 6.6.84 14.73 3.57 15.65 7.79 1.3 6.01-3.73 11.41-7.6 13.29-.16.09-.32.16-.49.23-.03.02-.07.03-.12.05-.29.11-.56.2-.84.28-1.21.32-2.45.51-3.69.56h-.01c-.27.02-.55.02-.81.02l-.04-.01c-.01.01-.03.01-.05 0-.29 0-.58-.01-.89-.02-.17 0-.34-.02-.51-.03-.16-.01-.31-.03-.47-.05-.13-.01-.26-.03-.4-.05-1.02-.14-2-.38-2.92-.72-.02 0-.04-.01-.06-.02-2.76-.99-5-2.84-5.97-5.54-.09-.24-.17-.48-.23-.72l-.01-.01c-.36-1.16-.61-2.38-.75-3.6v-.01c-.3-2.49-.17-5 .24-7.02v-.02c.35-1.69.9-3.04 1.57-3.75.78-.83 3.38-1.09 6.6-.85.26.01.48.05.72.07z" fill="url(#paint102_linear_2390_6000)"/><path d="M1539.95 308.492c-2.8-3.1-9.73-5.46-15.59-6.28l-.49-.06c-3.83-.49-7.14-.29-8.42.84 0 0 0 .01-.01.02-.08.06-.15.14-.21.22-.01.01-.02.03-.04.04-.3.39-.56.92-.79 1.56-.02.05-.03.09-.05.12-.21.56-.38 1.2-.53 1.9-.15.62-.2 1.04-.2 1.04-.01.04-.02.08-.02.13-.28 1.73-.39 3.69-.33 5.6v.02c.09 2.55.5 5.01 1.34 6.72l.01.01c.11.28.26.52.41.75.15.22.29.43.45.65l.01.01c.18.25.37.5.56.73 1.8 2.12 4.35 3.74 8.32 4.06 1.83.14 3.96.01 6.44-.48 4.87-.96 9.16-5.55 10.45-10.17v-.01c.13-.47.23-.93.29-1.39.35-2.22-.1-4.38-1.6-6.03zm-16.06-5.09c.36.04.72.08 1.08.13 6.51.91 14.28 3.61 15.18 7.74 1.04 4.77-1.92 9.16-5.13 11.71l-.01.01c0 .01-.01.02-.02.03v.01a.55.55 0 00-.09.07c-.48.37-.96.69-1.44.98-.06.04-.12.08-.2.11-.08.05-.15.09-.23.13-.67.37-1.32.64-1.91.79-.38.1-.76.19-1.15.25-.01 0-.01.01-.02.01-.04 0-.07.01-.1.02-.14.03-.27.06-.43.08-1.42.23-2.89.28-4.3.16-.13-.01-.26-.03-.4-.05-1.41-.16-2.77-.49-4.01-1l-.14-.07c-.79-.33-1.53-.75-2.2-1.25-.13-.1-.25-.2-.36-.29-.7-.55-1.32-1.19-1.79-1.95-.13-.18-.21-.3-.25-.37v-.01c-.02-.01-.03-.02-.03-.03l-.01-.01c-.07-.13-.14-.25-.21-.38v-.01c-.16-.3-.31-.63-.42-.96-1.61-4.47-1.39-10.08-.24-13.24.3-.82.66-1.46 1.06-1.89.82-.87 3.63-1.12 7.07-.79.24.01.46.05.7.07z" fill="url(#paint103_linear_2390_6000)"/><path d="M1505.87 304.131s.01-.04 0-.1c.02-.26.04-1.01-.2-1.59 0-.01-.01-.01-.01-.02-.09-.44-.23-.74-.4-.86-.13-.1-.29-.19-.47-.28.05.49.09.99.13 1.5.5.81.62 2.49.47 4.5.08-.02.22-.04.39-.07.1-1.15.13-2.2.09-3.08zm.45 3.01c.1-1.21.12-2.31.07-3.21-.03-.39-.06-.74-.12-1.05v-.01c-.02-.21-.06-.39-.11-.56v-.01c-.09-.38-.22-.64-.38-.75-.25-.18-.6-.36-1.01-.51-1.22-.46-3.04-.83-4.86-.93-.17-.01-.34-.03-.51-.03-.09-.01-.17-.01-.25-.01h-.01c-.02 0-.04-.01-.06 0-.05-.01-.1 0-.16 0-.15-.01-.31-.01-.45-.01-.05 0-.09.01-.13.01-.96.01-1.87.11-2.64.31-.91.24-1.62.62-1.96 1.18-.43.72-.67 2.51-.71 4.76-.04 2.09.09 4.58.37 6.91 0 .01 0 .01.01.01v.01c.02.15.03.3.05.44.46 3.48 1.29 6.54 2.45 7.36.4.29 1.17.58 2.11.62 1.15.06 2.55-.25 3.8-1.38.29-.26.56-.57.84-.92.38-.5.72-1.07 1.04-1.69.5-.98.92-2.07 1.29-3.24v-.01c.22-.74.42-1.51.59-2.28.37-1.73.62-3.46.74-5.01zm-11.66-4.94c.81-.9 2.45-1.31 4.21-1.35h.2c2.46-.01 5.05.7 5.83 1.89.01.01.02.02.02.04.5.81.62 2.49.47 4.5-.02.38-.07.76-.11 1.16v.02c-.02.22-.05.45-.08.67v.01c-.17 1.23-.42 2.51-.72 3.73v.01c-.01.03-.02.04-.02.07v.01c-.02.08-.04.17-.06.24-.11.4-.22.8-.34 1.18-.13.44-.27.84-.41 1.23v.01c-.02.05-.03.09-.04.13-.01.01-.01.02-.01.03v.01c-.26.69-.52 1.3-.8 1.83 0 .01-.01.02-.01.02-.33.62-.67 1.11-1.02 1.43-.88.82-1.78 1.31-2.62 1.48-.01 0-.02.01-.03.01-.05.02-.12.03-.18.04-.19.03-.37.05-.55.04-.02.01-.05 0-.08.01-.07 0-.13-.01-.2-.02-.32-.02-.63-.1-.92-.23h-.01c-.12-.04-.21-.09-.31-.15-.01 0-.03-.01-.04-.02-.81-.47-1.47-1.32-1.9-2.52-.46-1.28-.86-3.23-1.12-5.34-.1-.81-.18-1.64-.23-2.47-.21-3.33.03-6.56 1.08-7.7z" fill="url(#paint104_linear_2390_6000)"/><path d="M1505.8 307.211c.09-1.15.11-2.2.08-3.08 0 0 .01-.04 0-.1-.03-.63-.11-1.18-.2-1.59 0-.01-.01-.01-.01-.02-.09-.44-.23-.74-.4-.86-.13-.1-.29-.19-.47-.28-.24-.11-.5-.23-.81-.34-.15-.05-.32-.1-.47-.15-.18-.06-.38-.11-.58-.16-1.12-.29-2.46-.48-3.78-.55-.27-.02-.54-.02-.8-.02-.05-.01-.1-.01-.15-.01-.77 0-1.4.06-1.83.11-.1.02-.19.02-.27.03-.24.03-.36.05-.36.05-1.18.22-2.11.64-2.51 1.31-.9 1.48-.94 7.57-.22 12.6v.01c.04.24.08.47.11.71v.01c.49 2.97 1.25 5.43 2.27 6.15.48.34 1.47.68 2.63.62 1.32-.07 2.86-.64 4.12-2.3.04-.05.06-.08.09-.13v-.01c.35-.48.67-1 .96-1.58.88-1.71 1.53-3.84 1.98-5.95v-.02c.07-.34.13-.68.19-1.01v-.01c.19-1.19.34-2.35.43-3.43zm-12.41 6.05l-.01-.02c-.32-2.27-.49-4.81-.36-6.93.12-1.86.45-3.4 1.11-4.12.89-.98 2.79-1.39 4.73-1.35h.2c2.28.09 4.59.78 5.31 1.89.8 1.21.68 4.58.05 7.97v.02c-.05.22-.09.43-.14.64v.01c-.1.49-.21.97-.32 1.44-.15.6-.32 1.19-.48 1.74l-.09.29c-.14.45-.3.89-.46 1.29-.05.14-.11.28-.17.41v.01a3.9 3.9 0 01-.2.47c0 .01-.01.03-.02.04-.42.89-.86 1.59-1.3 2 0 0-.01.01-.02.03l-.04.04c-.01.01-.01.02-.02.03-.01 0-.02.01-.04.02-.01.01-.02.02-.04.02-.05.04-.09.09-.14.13-.01.02-.02.03-.04.04-.09.07-.19.14-.3.22-.43.32-.85.57-1.26.74-.02.01-.04.01-.06.02-.4.16-.79.25-1.17.27-.06.01-.1.02-.15.01h-.03c-1.02.02-1.94-.43-2.64-1.29l-.01-.01a5.01 5.01 0 01-.58-.94c-.03-.02-.03-.05-.05-.08-.02-.02-.02-.04-.03-.06v-.01c-.01-.02-.02-.03-.02-.03-.08-.16-.15-.32-.2-.49-.36-1.01-.69-2.43-.94-4.03-.03-.14-.05-.29-.07-.43z" fill="url(#paint105_linear_2390_6000)"/><path d="M1514.36 304.941s-3.79-2.84-8.48-.81c0 0 .09-1-.21-1.72 0 0 3.34-.99 9.79.57 0 .01-.88 1.37-1.1 1.96z" fill="url(#paint106_linear_2390_6000)"/><path d="M1541.35 309.891l4.44 1.43 15.59 12.09s-.62.32-1.5 1.48l-14.37-11.5s-2.13-1.12-3.64-.81c-.01.01.06-1.77-.52-2.69z" fill="url(#paint107_linear_2390_6000)"/><path d="M1514.32 302.732l-.76.79s-2.24-.5-4.38-.52c-2.14-.02-2.67.24-2.67.24l-.56-.89s3.78-.82 8.37.38zm-10.34-1.791l-.46.61s-3.01-1.78-7.91-.62l.13-.69c-.01.01 4.1-.74 8.24.7zm18.87 1.87l-.23-.69s-5.54-.58-7.05.96c-1.51 1.54-1.93 4.82-1.93 4.82l.69.09s.53-3.48 2.21-4.5c1.7-1.05 6.31-.68 6.31-.68z" fill="#D7E2FF"/><path d="M1535.02 322.982s-2.92 3.64-9.58 3.08-9.51-5.46-9.51-5.46 3.14 4.94 9.66 5.15c6.52.21 9.43-2.77 9.43-2.77zm-33.78-3.921s-1.81 2.02-3.85 1.74-2.8-2.6-2.8-2.6 1.16 2.37 3.32 2.24c2.17-.11 3.33-1.38 3.33-1.38z" fill="#D7D9FF"/><path d="M1527.93 325.7s-.52.39-1.96.42c-1.44.03-2.95-.72-2.95-.72s2.84.47 4.91.3zm-28.22-5.48s-1.6.57-2.88 0c-1.28-.57-1.56-1.05-1.56-1.05s.05 1.47 1.62 1.66c1.57.19 2.82-.61 2.82-.61z" fill="#D7D9FF"/><path d="M1533.25 324.887s.25-5.34-6.08-9.07c-6.33-3.73-12.17-.56-12.17-.56s-.2 4.65 3.2 7.84c3.41 3.19 10.83 3.37 15.05 1.79zm-30.69-7.876s-4.26-5.44-9.05-7.15c0 0 .1 7.36 1.76 9.3 1.66 1.96 4.83 2.6 7.29-2.15z" fill="#D7D9FF"/><path d="M1539.97 312.98s-.68 4.32-3.15 6.65l-2.49-.6s1.94-7.47 1.98-11.19c0 0 3.17 1.89 3.66 5.14z" fill="url(#paint108_linear_2390_6000)"/><path d="M1532.47 312.57s1.09 2.43.89 4.75c-.2 2.32-8.14 5.36-12.37 2.32-4.23-3.04 11.48-7.07 11.48-7.07z" fill="#E87A8D"/><path d="M1533.17 315.48s-.64-7.28-6.86-9.25c-6.22-1.97-7.43 6.6-7.43 6.6l14.29 2.65z" fill="#77485E"/><path d="M1518.68 316.951c.32 1.5 2.65 4 7.07 3.55 3.93-.4 7.67-2.77 7.42-5.03-.08-.79-.38-1.62-.83-2.46-.99-1.82-2.77-3.55-4.83-4.48-1.37-.63-2.88-.9-4.37-.59-4.7.98-4.77 7.53-4.46 9.01z" fill="url(#paint109_linear_2390_6000)"/><path d="M1522.15 314.19c.29 2.83 2.8 4.87 5.63 4.58 2.83-.29 4.89-2.8 4.6-5.63 0-.04-.01-.09-.03-.13-.99-1.82-2.77-3.55-4.83-4.48-.25-.01-.52-.01-.78.01-2.84.3-4.88 2.82-4.59 5.65z" fill="url(#paint110_radial_2390_6000)"/><path d="M1523.71 314.03a3.558 3.558 0 107.08-.72 3.558 3.558 0 00-3.9-3.18c-1.95.19-3.37 1.94-3.18 3.9z" fill="url(#paint111_linear_2390_6000)"/><path d="M1521.42 314.57a.865.865 0 10.77-.95c-.47.05-.82.48-.77.95z" fill="#fff"/><path d="M1515.33 329.74s-4.26.43-8.16 1.08c-3.9.65-7.56.52-9.14-.39 0 0 .22 4.61 5.42 6.89 0 0 2.04.54 4.01-.41 0 0 1.67-2.24 5.13-3.25 0 0 3.17-1.31 2.74-3.92z" fill="url(#paint112_linear_2390_6000)"/><path d="M1506.79 323.06c5.15.19 8.54 6.68 8.54 6.68l-9.41 2.62c-4.36.2-7.89-1.92-7.89-1.92s3.62-7.57 8.76-7.38z" fill="url(#paint113_linear_2390_6000)"/><path d="M1512.89 333.511s-.53-.4-2.08-.14c-1.56.25-2.79 2.94-2.79 2.94s1.47-1.66 4.87-2.8z" fill="#9F4A8B"/><path d="M1542.68 305.371s-1.02-3.89-5.29-7.5c-3.08-2.6-8.75-4.96-12.67-6.05 0 0-.45 1.29-.21 3.58 0 0-.84-2.11-1.58-4.1 0 0-.63 2.13.02 6.1 0 0 3.42.83 8.99 1.75 6.93 1.15 10.74 6.22 10.74 6.22z" fill="url(#paint114_linear_2390_6000)"/><path d="M1504.98 299.041s-.83-4.88-1.99-8.98l-.32 1.77-1.79-3.44s-3.46 2.62-.71 7.2c0 0 2.34-.52 4.81 3.45z" fill="url(#paint115_linear_2390_6000)"/><path d="M1559.22 325.641l-13.99-8.4s-1.1 12.5-10.18 14.61c-9.08 2.11-15.97-.68-18.63-6.38-2.66-5.69-3.35-13.69-3.35-13.69s-.63-.91-3.55-.8c-2.92.11-4.13 1.29-4.13 1.29l-.14-4.97s6.02-1.11 8.71.95c0 0-.45 16.04 5.38 19.84 5.82 3.8 10.68 4.18 16.71.9 4.66-2.53 6.42-10.22 4.84-14.59l4.46.77 14.53 9.72-.66.75z" fill="url(#paint116_linear_2390_6000)" opacity=".62"/><path d="M1523.68 340.281s.03 3.34-5.88 5.83c-5.91 2.5-11.25 1.88-13.36-.05 0 0 2.21 2.16 5.86 2.44 3.65.29 8.98-1.11 11.34-3.34 2.59-2.44 2.96-4.41 2.96-4.41l-.92-.47z" fill="#E87A8D"/><path d="M1526.59 341.369s-3.14-1.23-5.85-1.41c0 0 2.77-.82 4.11-.63 1.35.2 1.74 2.04 1.74 2.04z" fill="#E37E7F"/><path d="M1525.32 282.34c.1-.69 1.78-10.14 15.01-7.77 2.35.42 5.02 1.8 7.62 3.84-1.78-3.99-6.17-10.86-15.33-11.58-9.92-.76-8.52 10.25-7.3 15.51z" fill="url(#paint117_linear_2390_6000)" opacity=".84"/><path d="M1513.52 277.82c-.02-.02-.05-.03-.06-.05l.02.03c.01.01.03.01.04.02z" fill="url(#paint118_linear_2390_6000)"/><path d="M1511.03 273.76c.01.01.01.01.01.02a9.557 9.557 0 01-.16-2.66c.12-.06.18-.1.18-.1s1.33 3.9 4.29 6.26c-.25-.31-5.85-7.51-1.42-14.85-.36.07-6.77 4.89-2.9 11.33z" fill="url(#paint119_linear_2390_6000)" opacity=".84"/><path d="M1504.96 376.19c.66.42 1.29.68 1.87.76 9.53 1.33 39.63-5.47 48.28-22.18.2-.39.4-.81.6-1.27-5.74 5.66-23.96 21.34-50.75 22.69z" fill="url(#paint120_linear_2390_6000)"/></g><defs><linearGradient id="paint0_linear_2390_6000" x1="-.327" y1="500" x2="3840.33" y2="500" gradientUnits="userSpaceOnUse"><stop stop-color="#017AB3"/><stop offset=".4" stop-color="#10959F"/><stop offset=".6" stop-color="#49A8AC"/><stop offset=".73" stop-color="#4AACAD"/><stop offset=".864" stop-color="#4BB8AF"/><stop offset=".999" stop-color="#4ECDB2"/><stop offset="1" stop-color="#4ECDB2"/></linearGradient><linearGradient id="paint1_linear_2390_6000" x1="-.327" y1="910.919" x2="3840.33" y2="910.919" gradientUnits="userSpaceOnUse"><stop stop-color="#FF8B5E"/><stop offset=".4" stop-color="#FFB147"/><stop offset=".575" stop-color="#FFA54F"/><stop offset=".999" stop-color="#FF8B5E"/></linearGradient><linearGradient id="paint7_linear_2390_6000" x1="747.62" y1="879.507" x2="1148.46" y2="879.507" gradientUnits="userSpaceOnUse"><stop stop-color="#890041"/><stop offset="1" stop-color="#CCB8B8"/></linearGradient><linearGradient id="paint8_linear_2390_6000" x1="1569.13" y1="989.731" x2="2643.95" y2="989.731" gradientUnits="userSpaceOnUse"><stop stop-color="#890041"/><stop offset="1" stop-color="#CCB8B8"/></linearGradient><linearGradient id="paint9_linear_2390_6000" x1="-481.358" y1="960.325" x2="423.483" y2="960.325" gradientUnits="userSpaceOnUse"><stop stop-color="#890041"/><stop offset="1" stop-color="#CCB8B8"/></linearGradient><linearGradient id="paint10_linear_2390_6000" x1="1920" y1="550.936" x2="1920" y2="0" gradientUnits="userSpaceOnUse"><stop stop-color="#A48495"/><stop offset="1" stop-color="#8B2C8D"/></linearGradient><linearGradient id="paint11_linear_2390_6000" x1="813.494" y1="378.963" x2="1479.27" y2="378.963" gradientUnits="userSpaceOnUse"><stop stop-color="#A48495"/><stop offset="1" stop-color="#8B2C8D"/></linearGradient><linearGradient id="paint13_linear_2390_6000" x1="485.056" y1="332.108" x2="485.056" y2="218" gradientUnits="userSpaceOnUse"><stop stop-color="#A48495"/><stop offset="1" stop-color="#8B2C8D"/></linearGradient><linearGradient id="paint14_linear_2390_6000" x1="483.031" y1="268.698" x2="483.031" y2="268.018" gradientUnits="userSpaceOnUse"><stop stop-color="#A48495"/><stop offset="1" stop-color="#8B2C8D"/></linearGradient><linearGradient id="paint15_linear_2390_6000" x1="486.409" y1="279.291" x2="486.409" y2="278.61" gradientUnits="userSpaceOnUse"><stop stop-color="#A48495"/><stop offset="1" stop-color="#8B2C8D"/></linearGradient><linearGradient id="paint16_linear_2390_6000" x1="487.098" y1="289.884" x2="487.098" y2="289.204" gradientUnits="userSpaceOnUse"><stop stop-color="#A48495"/><stop offset="1" stop-color="#8B2C8D"/></linearGradient><linearGradient id="paint17_linear_2390_6000" x1="483.72" y1="300.478" x2="483.72" y2="299.797" gradientUnits="userSpaceOnUse"><stop stop-color="#A48495"/><stop offset="1" stop-color="#8B2C8D"/></linearGradient><linearGradient id="paint18_linear_2390_6000" x1="483.72" y1="311.07" x2="483.72" y2="310.39" gradientUnits="userSpaceOnUse"><stop stop-color="#A48495"/><stop offset="1" stop-color="#8B2C8D"/></linearGradient><linearGradient id="paint19_linear_2390_6000" x1="483.031" y1="321.663" x2="483.031" y2="320.983" gradientUnits="userSpaceOnUse"><stop stop-color="#A48495"/><stop offset="1" stop-color="#8B2C8D"/></linearGradient><linearGradient id="paint20_linear_2390_6000" x1="484.177" y1="342.848" x2="484.177" y2="342.168" gradientUnits="userSpaceOnUse"><stop stop-color="#A48495"/><stop offset="1" stop-color="#8B2C8D"/></linearGradient><linearGradient id="paint21_linear_2390_6000" x1="484.177" y1="353.441" x2="484.177" y2="352.76" gradientUnits="userSpaceOnUse"><stop stop-color="#A48495"/><stop offset="1" stop-color="#8B2C8D"/></linearGradient><linearGradient id="paint22_linear_2390_6000" x1="484.177" y1="364.644" x2="484.177" y2="363.963" gradientUnits="userSpaceOnUse"><stop stop-color="#A48495"/><stop offset="1" stop-color="#8B2C8D"/></linearGradient><linearGradient id="paint23_linear_2390_6000" x1="453.894" y1="315.584" x2="455.075" y2="315.584" gradientUnits="userSpaceOnUse"><stop stop-color="#A48495"/><stop offset="1" stop-color="#8B2C8D"/></linearGradient><linearGradient id="paint24_linear_2390_6000" x1="483.094" y1="267.379" x2="482.967" y2="263.33" gradientUnits="userSpaceOnUse"><stop stop-color="#A48495"/><stop offset="1" stop-color="#8B2C8D"/></linearGradient><linearGradient id="paint25_linear_2390_6000" x1="543.368" y1="362.369" x2="543.368" y2="252.996" gradientUnits="userSpaceOnUse"><stop stop-color="#A48495"/><stop offset="1" stop-color="#8B2C8D"/></linearGradient><linearGradient id="paint26_linear_2390_6000" x1="527.333" y1="307.308" x2="527.207" y2="303.259" gradientUnits="userSpaceOnUse"><stop stop-color="#A48495"/><stop offset="1" stop-color="#8B2C8D"/></linearGradient><linearGradient id="paint27_linear_2390_6000" x1="492.104" y1="340.83" x2="507.432" y2="340.83" gradientUnits="userSpaceOnUse"><stop stop-color="#A48495"/><stop offset="1" stop-color="#8B2C8D"/></linearGradient><linearGradient id="paint28_linear_2390_6000" x1="488.512" y1="328.11" x2="488.512" y2="214.003" gradientUnits="userSpaceOnUse"><stop stop-color="#FFC7CB"/><stop offset="1" stop-color="#FFEAB8"/></linearGradient><linearGradient id="paint29_linear_2390_6000" x1="486.487" y1="222.591" x2="486.487" y2="221.911" gradientUnits="userSpaceOnUse"><stop offset=".011" stop-color="#7D7997"/><stop offset=".969" stop-color="#DAC0C2"/></linearGradient><linearGradient id="paint30_linear_2390_6000" x1="489.865" y1="233.184" x2="489.865" y2="232.503" gradientUnits="userSpaceOnUse"><stop offset=".011" stop-color="#7D7997"/><stop offset=".969" stop-color="#DAC0C2"/></linearGradient><linearGradient id="paint31_linear_2390_6000" x1="490.554" y1="243.777" x2="490.554" y2="243.096" gradientUnits="userSpaceOnUse"><stop offset=".011" stop-color="#7D7997"/><stop offset=".969" stop-color="#DAC0C2"/></linearGradient><linearGradient id="paint32_linear_2390_6000" x1="487.176" y1="254.369" x2="487.176" y2="253.689" gradientUnits="userSpaceOnUse"><stop offset=".011" stop-color="#7D7997"/><stop offset=".969" stop-color="#DAC0C2"/></linearGradient><linearGradient id="paint33_linear_2390_6000" x1="487.176" y1="264.961" x2="487.176" y2="264.281" gradientUnits="userSpaceOnUse"><stop offset=".011" stop-color="#7D7997"/><stop offset=".969" stop-color="#DAC0C2"/></linearGradient><linearGradient id="paint34_linear_2390_6000" x1="486.487" y1="275.556" x2="486.487" y2="274.876" gradientUnits="userSpaceOnUse"><stop offset=".011" stop-color="#7D7997"/><stop offset=".969" stop-color="#DAC0C2"/></linearGradient><linearGradient id="paint35_linear_2390_6000" x1="488.474" y1="286.716" x2="488.474" y2="285.485" gradientUnits="userSpaceOnUse"><stop offset=".011" stop-color="#7D7997"/><stop offset=".969" stop-color="#DAC0C2"/></linearGradient><linearGradient id="paint36_linear_2390_6000" x1="487.633" y1="296.741" x2="487.633" y2="296.061" gradientUnits="userSpaceOnUse"><stop offset=".011" stop-color="#7D7997"/><stop offset=".969" stop-color="#DAC0C2"/></linearGradient><linearGradient id="paint37_linear_2390_6000" x1="487.633" y1="307.334" x2="487.633" y2="306.653" gradientUnits="userSpaceOnUse"><stop offset=".011" stop-color="#7D7997"/><stop offset=".969" stop-color="#DAC0C2"/></linearGradient><linearGradient id="paint38_linear_2390_6000" x1="487.633" y1="318.535" x2="487.633" y2="317.854" gradientUnits="userSpaceOnUse"><stop offset=".011" stop-color="#7D7997"/><stop offset=".969" stop-color="#DAC0C2"/></linearGradient><linearGradient id="paint39_linear_2390_6000" x1="486.55" y1="221.271" x2="486.424" y2="217.222" gradientUnits="userSpaceOnUse"><stop offset=".006" stop-color="#33375B"/><stop offset=".969" stop-color="#685374"/></linearGradient><linearGradient id="paint40_linear_2390_6000" x1="546.824" y1="356.672" x2="546.824" y2="247.299" gradientUnits="userSpaceOnUse"><stop stop-color="#FFD6D9"/><stop offset="1" stop-color="#FFEAB8"/></linearGradient><linearGradient id="paint41_linear_2390_6000" x1="530.789" y1="261.201" x2="530.662" y2="257.152" gradientUnits="userSpaceOnUse"><stop offset=".006" stop-color="#33375B"/><stop offset=".969" stop-color="#685374"/></linearGradient><linearGradient id="paint42_linear_2390_6000" x1="51.997" y1="820.633" x2="125.077" y2="820.633" gradientUnits="userSpaceOnUse"><stop stop-color="#A48495"/><stop offset="1" stop-color="#8B2C8D"/></linearGradient><linearGradient id="paint43_linear_2390_6000" x1="141.077" y1="820.633" x2="179.577" y2="820.633" gradientUnits="userSpaceOnUse"><stop stop-color="#A48495"/><stop offset="1" stop-color="#8B2C8D"/></linearGradient><linearGradient id="paint44_linear_2390_6000" x1="51.997" y1="820.418" x2="125.077" y2="820.418" gradientUnits="userSpaceOnUse"><stop stop-color="#A48495"/><stop offset="1" stop-color="#8B2C8D"/></linearGradient><linearGradient id="paint45_linear_2390_6000" x1="98.386" y1="692.489" x2="612.706" y2="692.489" gradientUnits="userSpaceOnUse"><stop stop-color="#A48495"/><stop offset="1" stop-color="#8B2C8D"/></linearGradient><linearGradient id="paint46_linear_2390_6000" x1="1245.66" y1="881.674" x2="1244.55" y2="957.364" gradientUnits="userSpaceOnUse"><stop stop-color="#A48495"/><stop offset="1" stop-color="#8B2C8D"/></linearGradient><linearGradient id="paint47_linear_2390_6000" x1="1199.55" y1="747.492" x2="1199.55" y2="707.729" gradientUnits="userSpaceOnUse"><stop offset=".017" stop-color="#FB9F8B"/><stop offset="1" stop-color="#FBD1BD"/></linearGradient><linearGradient id="paint48_linear_2390_6000" x1="1187.56" y1="728.696" x2="1212.32" y2="728.696" gradientUnits="userSpaceOnUse"><stop offset=".002" stop-color="#DC0046"/><stop offset="1" stop-color="#FB1919"/></linearGradient><linearGradient id="paint49_linear_2390_6000" x1="1182.2" y1="702.534" x2="1216.9" y2="702.534" gradientUnits="userSpaceOnUse"><stop offset=".002" stop-color="#DC0046"/><stop offset="1" stop-color="#FB1919"/></linearGradient><linearGradient id="paint50_linear_2390_6000" x1="1249.54" y1="747.985" x2="1249.54" y2="675.598" gradientUnits="userSpaceOnUse"><stop offset=".017" stop-color="#FB9F8B"/><stop offset="1" stop-color="#FBD1BD"/></linearGradient><linearGradient id="paint53_linear_2390_6000" x1="1237.87" y1="716.61" x2="1237.87" y2="666.006" gradientUnits="userSpaceOnUse"><stop stop-color="#fff"/><stop offset="1" stop-color="#FB2E39"/></linearGradient><linearGradient id="paint54_linear_2390_6000" x1="1253.19" y1="718.714" x2="1253.19" y2="666.15" gradientUnits="userSpaceOnUse"><stop stop-color="#fff"/><stop offset="1" stop-color="#FBCA00"/></linearGradient><linearGradient id="paint55_linear_2390_6000" x1="1264.53" y1="713.582" x2="1264.53" y2="666.006" gradientUnits="userSpaceOnUse"><stop stop-color="#fff"/><stop offset="1" stop-color="#8000CB"/></linearGradient><linearGradient id="paint56_linear_2390_6000" x1="1632.68" y1="875.786" x2="1631.42" y2="961.749" gradientUnits="userSpaceOnUse"><stop stop-color="#A48495"/><stop offset="1" stop-color="#8B2C8D"/></linearGradient><linearGradient id="paint57_linear_2390_6000" x1="1518.93" y1="424.739" x2="1523.91" y2="354.665" gradientUnits="userSpaceOnUse"><stop offset=".016" stop-color="#FFA58B"/><stop offset="1" stop-color="#FF898E"/></linearGradient><linearGradient id="paint58_linear_2390_6000" x1="1540.62" y1="373.532" x2="1501.21" y2="370.735" gradientUnits="userSpaceOnUse"><stop stop-color="#CF6074"/><stop offset="1" stop-color="#FF817F"/></linearGradient><linearGradient id="paint59_linear_2390_6000" x1="1676.73" y1="475.898" x2="1620.01" y2="388.649" gradientUnits="userSpaceOnUse"><stop stop-color="#744FD8"/><stop offset="1" stop-color="#3996F7"/></linearGradient><linearGradient id="paint60_linear_2390_6000" x1="1676.55" y1="476.016" x2="1619.83" y2="388.767" gradientUnits="userSpaceOnUse"><stop stop-color="#9D68C2"/><stop offset="1" stop-color="#CCEDFF"/></linearGradient><linearGradient id="paint61_linear_2390_6000" x1="1736.4" y1="434.801" x2="1641.89" y2="289.416" gradientUnits="userSpaceOnUse"><stop offset=".016" stop-color="#FFC2A9"/><stop offset="1" stop-color="#FF9595"/></linearGradient><linearGradient id="paint62_linear_2390_6000" x1="1694.17" y1="304.711" x2="1676.99" y2="315.88" gradientUnits="userSpaceOnUse"><stop stop-color="#CF6074"/><stop offset="1" stop-color="#FF817F"/></linearGradient><linearGradient id="paint63_linear_2390_6000" x1="1695.82" y1="294.691" x2="1685.8" y2="301.2" gradientUnits="userSpaceOnUse"><stop stop-color="#CF6074"/><stop offset="1" stop-color="#FF817F"/></linearGradient><linearGradient id="paint64_linear_2390_6000" x1="1682.08" y1="285.68" x2="1673.24" y2="291.424" gradientUnits="userSpaceOnUse"><stop stop-color="#CF6074"/><stop offset="1" stop-color="#FF817F"/></linearGradient><linearGradient id="paint65_linear_2390_6000" x1="1672.22" y1="302.624" x2="1653.52" y2="273.863" gradientUnits="userSpaceOnUse"><stop offset=".016" stop-color="#FFA58B"/><stop offset="1" stop-color="#FF898E"/></linearGradient><linearGradient id="paint66_linear_2390_6000" x1="1685.17" y1="334.004" x2="1670.42" y2="311.326" gradientUnits="userSpaceOnUse"><stop offset=".016" stop-color="#FF997C"/><stop offset="1" stop-color="#FF898E"/></linearGradient><linearGradient id="paint67_linear_2390_6000" x1="1668.96" y1="325.824" x2="1663.66" y2="329.266" gradientUnits="userSpaceOnUse"><stop stop-color="#CF6074"/><stop offset="1" stop-color="#FF817F"/></linearGradient><linearGradient id="paint68_linear_2390_6000" x1="1683.26" y1="359.035" x2="1677.17" y2="349.671" gradientUnits="userSpaceOnUse"><stop stop-color="#CF6074"/><stop offset="1" stop-color="#FF817F"/></linearGradient><linearGradient id="paint69_linear_2390_6000" x1="1694.56" y1="460.609" x2="1662.15" y2="410.751" gradientUnits="userSpaceOnUse"><stop stop-color="#CF6074"/><stop offset="1" stop-color="#FF817F"/></linearGradient><linearGradient id="paint70_linear_2390_6000" x1="1611.63" y1="552.135" x2="1606.92" y2="391.884" gradientUnits="userSpaceOnUse"><stop stop-color="#744FD8"/><stop offset="1" stop-color="#3996F7"/></linearGradient><linearGradient id="paint71_linear_2390_6000" x1="1607.54" y1="551.977" x2="1602.83" y2="392.004" gradientUnits="userSpaceOnUse"><stop stop-color="#9D68C2"/><stop offset="1" stop-color="#CCEDFF"/></linearGradient><linearGradient id="paint72_linear_2390_6000" x1="1641.46" y1="545.613" x2="1640.68" y2="519.278" gradientUnits="userSpaceOnUse"><stop offset=".016" stop-color="#FFC2A9"/><stop offset="1" stop-color="#FF9595"/></linearGradient><linearGradient id="paint73_linear_2390_6000" x1="1546.14" y1="603.338" x2="1545.4" y2="578.305" gradientUnits="userSpaceOnUse"><stop stop-color="#D1C8F8"/><stop offset="1" stop-color="#EEE5F9"/></linearGradient><linearGradient id="paint74_linear_2390_6000" x1="1545.77" y1="603.349" x2="1545.03" y2="578.316" gradientUnits="userSpaceOnUse"><stop stop-color="#8B8BE0"/><stop offset="1" stop-color="#A177B7"/></linearGradient><linearGradient id="paint75_linear_2390_6000" x1="1684.91" y1="495.08" x2="1684.66" y2="486.695" gradientUnits="userSpaceOnUse"><stop offset=".016" stop-color="#FFA58B"/><stop offset="1" stop-color="#FF898E"/></linearGradient><linearGradient id="paint76_linear_2390_6000" x1="1526.87" y1="413.617" x2="1525.9" y2="380.721" gradientUnits="userSpaceOnUse"><stop stop-color="#D1C8F8"/><stop offset="1" stop-color="#EEE5F9"/></linearGradient><linearGradient id="paint77_linear_2390_6000" x1="1535.46" y1="601.722" x2="1528.96" y2="380.632" gradientUnits="userSpaceOnUse"><stop stop-color="#744FD8"/><stop offset="1" stop-color="#3996F7"/></linearGradient><linearGradient id="paint78_linear_2390_6000" x1="1682.67" y1="507.982" x2="1681.46" y2="466.741" gradientUnits="userSpaceOnUse"><stop stop-color="#8B8BE0"/><stop offset="1" stop-color="#A177B7"/></linearGradient><linearGradient id="paint79_linear_2390_6000" x1="1683.61" y1="488.611" x2="1682.97" y2="466.698" gradientUnits="userSpaceOnUse"><stop offset=".016" stop-color="#FFC2A9"/><stop offset="1" stop-color="#FF9595"/></linearGradient><linearGradient id="paint80_linear_2390_6000" x1="1693.56" y1="468.928" x2="1693.07" y2="452.33" gradientUnits="userSpaceOnUse"><stop offset=".016" stop-color="#FFC2A9"/><stop offset="1" stop-color="#FF9595"/></linearGradient><linearGradient id="paint81_linear_2390_6000" x1="1682.89" y1="497.507" x2="1682.67" y2="490.266" gradientUnits="userSpaceOnUse"><stop offset=".016" stop-color="#FFC2A9"/><stop offset="1" stop-color="#FF9595"/></linearGradient><linearGradient id="paint82_linear_2390_6000" x1="1534.08" y1="601.762" x2="1527.73" y2="385.871" gradientUnits="userSpaceOnUse"><stop stop-color="#8B8BE0"/><stop offset="1" stop-color="#A177B7"/></linearGradient><linearGradient id="paint83_linear_2390_6000" x1="1519.07" y1="494.965" x2="1518.78" y2="485.275" gradientUnits="userSpaceOnUse"><stop stop-color="#8B8BE0"/><stop offset="1" stop-color="#A177B7"/></linearGradient><linearGradient id="paint84_linear_2390_6000" x1="1583.9" y1="443.991" x2="1582.21" y2="386.537" gradientUnits="userSpaceOnUse"><stop stop-color="#8B8BE0"/><stop offset="1" stop-color="#A177B7"/></linearGradient><linearGradient id="paint85_linear_2390_6000" x1="1563.6" y1="458.832" x2="1562.03" y2="405.507" gradientUnits="userSpaceOnUse"><stop stop-color="#8B8BE0"/><stop offset="1" stop-color="#A177B7"/></linearGradient><linearGradient id="paint86_linear_2390_6000" x1="1549.45" y1="561.436" x2="1549.01" y2="546.692" gradientUnits="userSpaceOnUse"><stop stop-color="#8B8BE0"/><stop offset="1" stop-color="#A177B7"/></linearGradient><linearGradient id="paint87_linear_2390_6000" x1="1477.1" y1="477.845" x2="1476.27" y2="449.461" gradientUnits="userSpaceOnUse"><stop stop-color="#9D68C2"/><stop offset="1" stop-color="#90AEFF"/></linearGradient><linearGradient id="paint88_linear_2390_6000" x1="1674.96" y1="481.732" x2="1688.75" y2="481.326" gradientUnits="userSpaceOnUse"><stop stop-color="#CF6074"/><stop offset="1" stop-color="#FF817F"/></linearGradient><linearGradient id="paint89_linear_2390_6000" x1="1495.89" y1="394.989" x2="1495.88" y2="394.653" gradientUnits="userSpaceOnUse"><stop stop-color="#9D68C2"/><stop offset="1" stop-color="#CCEDFF"/></linearGradient><linearGradient id="paint90_linear_2390_6000" x1="1548.49" y1="574.954" x2="1547.83" y2="552.533" gradientUnits="userSpaceOnUse"><stop stop-color="#B9ACF4"/><stop offset="1" stop-color="#E1D1F5"/></linearGradient><linearGradient id="paint91_linear_2390_6000" x1="1565.14" y1="588.015" x2="1564.65" y2="571.178" gradientUnits="userSpaceOnUse"><stop stop-color="#B9ACF4"/><stop offset="1" stop-color="#E1D1F5"/></linearGradient><linearGradient id="paint92_linear_2390_6000" x1="1551.56" y1="407.895" x2="1550.93" y2="386.412" gradientUnits="userSpaceOnUse"><stop stop-color="#3D2CB0"/><stop offset="1" stop-color="#0355C7"/></linearGradient><linearGradient id="paint93_linear_2390_6000" x1="1544.13" y1="555.07" x2="1485.88" y2="409.694" gradientUnits="userSpaceOnUse"><stop stop-color="#744FD8"/><stop offset="1" stop-color="#3996F7"/></linearGradient><linearGradient id="paint95_linear_2390_6000" x1="1526.65" y1="326.486" x2="1532.07" y2="278.804" gradientUnits="userSpaceOnUse"><stop offset=".016" stop-color="#FFA58B"/><stop offset="1" stop-color="#FF898E"/></linearGradient><linearGradient id="paint96_linear_2390_6000" x1="1527.57" y1="316.336" x2="1530.62" y2="304.81" gradientUnits="userSpaceOnUse"><stop stop-color="#D49092"/><stop offset=".127" stop-color="#D18E92"/><stop offset=".204" stop-color="#C98991"/><stop offset=".266" stop-color="#BB7F90"/><stop offset=".322" stop-color="#A7718F"/><stop offset=".372" stop-color="#8C5F8D"/><stop offset=".42" stop-color="#6C498A"/><stop offset=".463" stop-color="#472F88"/><stop offset=".472" stop-color="#3E2987"/><stop offset=".607" stop-color="#352278"/><stop offset=".846" stop-color="#291762"/><stop offset="1" stop-color="#24135A"/></linearGradient><linearGradient id="paint97_linear_2390_6000" x1="1564.32" y1="347.502" x2="1566.63" y2="319.537" gradientUnits="userSpaceOnUse"><stop offset=".016" stop-color="#FFAC8B"/><stop offset="1" stop-color="#FF9595"/></linearGradient><linearGradient id="paint98_linear_2390_6000" x1="1500.92" y1="316.876" x2="1501.15" y2="304.092" gradientUnits="userSpaceOnUse"><stop stop-color="#D0C7F8"/><stop offset="1" stop-color="#fff"/></linearGradient><linearGradient id="paint100_linear_2390_6000" x1="1502.79" y1="314.538" x2="1502.92" y2="307.413" gradientUnits="userSpaceOnUse"><stop stop-color="#8642A0"/><stop offset="1" stop-color="#4E37B7"/></linearGradient><linearGradient id="paint101_linear_2390_6000" x1="1498.39" y1="324.324" x2="1498.07" y2="313.086" gradientUnits="userSpaceOnUse"><stop stop-color="#F2C7CC"/><stop offset="1" stop-color="#A177B7"/></linearGradient><linearGradient id="paint102_linear_2390_6000" x1="1529.49" y1="326.446" x2="1526.46" y2="301.148" gradientUnits="userSpaceOnUse"><stop stop-color="#1C257B"/><stop offset="1" stop-color="#482C83"/></linearGradient><linearGradient id="paint103_linear_2390_6000" x1="1529.02" y1="326.398" x2="1525.99" y2="301.091" gradientUnits="userSpaceOnUse"><stop stop-color="#1C257B"/><stop offset="1" stop-color="#65459C"/></linearGradient><linearGradient id="paint104_linear_2390_6000" x1="1501.43" y1="321.322" x2="1498.87" y2="299.918" gradientUnits="userSpaceOnUse"><stop stop-color="#1C257B"/><stop offset="1" stop-color="#482C83"/></linearGradient><linearGradient id="paint105_linear_2390_6000" x1="1500.91" y1="321.321" x2="1498.35" y2="299.924" gradientUnits="userSpaceOnUse"><stop stop-color="#1C257B"/><stop offset="1" stop-color="#65459C"/></linearGradient><linearGradient id="paint106_linear_2390_6000" x1="1510.88" y1="305.362" x2="1510.45" y2="301.778" gradientUnits="userSpaceOnUse"><stop stop-color="#1C257B"/><stop offset="1" stop-color="#65459C"/></linearGradient><linearGradient id="paint107_linear_2390_6000" x1="1552.46" y1="325.784" x2="1550.43" y2="308.809" gradientUnits="userSpaceOnUse"><stop stop-color="#1C257B"/><stop offset="1" stop-color="#65459C"/></linearGradient><linearGradient id="paint108_linear_2390_6000" x1="1537.15" y1="319.627" x2="1537.16" y2="307.838" gradientUnits="userSpaceOnUse"><stop/><stop offset="1" stop-color="#E1D1F5"/></linearGradient><linearGradient id="paint109_linear_2390_6000" x1="1526.44" y1="320.434" x2="1525.14" y2="307.714" gradientUnits="userSpaceOnUse"><stop stop-color="#D0C7F8"/><stop offset="1" stop-color="#fff"/></linearGradient><linearGradient id="paint111_linear_2390_6000" x1="1527.71" y1="317.2" x2="1526.98" y2="310.117" gradientUnits="userSpaceOnUse"><stop stop-color="#8642A0"/><stop offset="1" stop-color="#4E37B7"/></linearGradient><linearGradient id="paint112_linear_2390_6000" x1="1509.27" y1="336.15" x2="1505.31" y2="327.237" gradientUnits="userSpaceOnUse"><stop stop-color="#FF8883"/><stop offset="1" stop-color="#E8868D"/></linearGradient><linearGradient id="paint113_linear_2390_6000" x1="1506.99" y1="332.251" x2="1506.06" y2="323.09" gradientUnits="userSpaceOnUse"><stop stop-color="#FF8883"/><stop offset="1" stop-color="#FFB1A4"/></linearGradient><linearGradient id="paint114_linear_2390_6000" x1="1533.38" y1="306.328" x2="1531.75" y2="290.408" gradientUnits="userSpaceOnUse"><stop stop-color="#1C257B"/><stop offset="1" stop-color="#482C83"/></linearGradient><linearGradient id="paint115_linear_2390_6000" x1="1502.5" y1="299.294" x2="1501.38" y2="288.338" gradientUnits="userSpaceOnUse"><stop stop-color="#1C257B"/><stop offset="1" stop-color="#482C83"/></linearGradient><linearGradient id="paint116_linear_2390_6000" x1="1533.04" y1="332.62" x2="1532.29" y2="306.498" gradientUnits="userSpaceOnUse"><stop stop-color="#F2C7CC"/><stop offset="1" stop-color="#A177B7"/></linearGradient><linearGradient id="paint117_linear_2390_6000" x1="1536.41" y1="283.009" x2="1536.35" y2="275.68" gradientUnits="userSpaceOnUse"><stop stop-color="#8B8BE0"/><stop offset="1" stop-color="#A177B7"/></linearGradient><linearGradient id="paint118_linear_2390_6000" x1="1513.65" y1="277.82" x2="1513.65" y2="277.794" gradientUnits="userSpaceOnUse"><stop stop-color="#8B8BE0"/><stop offset="1" stop-color="#A177B7"/></linearGradient><linearGradient id="paint119_linear_2390_6000" x1="1512.77" y1="278.017" x2="1512.71" y2="270.989" gradientUnits="userSpaceOnUse"><stop stop-color="#8B8BE0"/><stop offset="1" stop-color="#A177B7"/></linearGradient><linearGradient id="paint120_linear_2390_6000" x1="1528.96" y1="378.305" x2="1531.53" y2="355.76" gradientUnits="userSpaceOnUse"><stop offset=".016" stop-color="#FFA58B"/><stop offset="1" stop-color="#FF898E"/></linearGradient><radialGradient id="paint2_radial_2390_6000" cx="0" cy="0" r="1" gradientUnits="userSpaceOnUse" gradientTransform="translate(1897.2 927.104) scale(1391.79)"><stop stop-color="#E9D8D2"/><stop offset=".397" stop-color="#E8D6D0"/><stop offset=".594" stop-color="#E6D0C8"/><stop offset=".746" stop-color="#E3C6BB"/><stop offset=".875" stop-color="#DDB7A8"/><stop offset=".99" stop-color="#D7A491"/><stop offset="1" stop-color="#D6A28E"/></radialGradient><radialGradient id="paint3_radial_2390_6000" cx="0" cy="0" r="1" gradientUnits="userSpaceOnUse" gradientTransform="translate(1920.66 893.952) scale(1371.24)"><stop stop-color="#E9D8D2"/><stop offset=".397" stop-color="#E8D6D0"/><stop offset=".594" stop-color="#E6D0C8"/><stop offset=".746" stop-color="#E3C6BB"/><stop offset=".875" stop-color="#DDB7A8"/><stop offset=".99" stop-color="#D7A491"/><stop offset="1" stop-color="#D6A28E"/></radialGradient><radialGradient id="paint4_radial_2390_6000" cx="0" cy="0" r="1" gradientUnits="userSpaceOnUse" gradientTransform="matrix(1366.35 0 0 1366.36 1917.22 865.316)"><stop stop-color="#E9D8D2"/><stop offset=".397" stop-color="#E8D6D0"/><stop offset=".594" stop-color="#E6D0C8"/><stop offset=".746" stop-color="#E3C6BB"/><stop offset=".875" stop-color="#DDB7A8"/><stop offset=".99" stop-color="#D7A491"/><stop offset="1" stop-color="#D6A28E"/></radialGradient><radialGradient id="paint5_radial_2390_6000" cx="0" cy="0" r="1" gradientUnits="userSpaceOnUse" gradientTransform="matrix(1362 0 0 1362 1923.22 979.483)"><stop stop-color="#E9D8D2"/><stop offset=".397" stop-color="#E8D6D0"/><stop offset=".594" stop-color="#E6D0C8"/><stop offset=".746" stop-color="#E3C6BB"/><stop offset=".875" stop-color="#DDB7A8"/><stop offset=".99" stop-color="#D7A491"/><stop offset="1" stop-color="#D6A28E"/></radialGradient><radialGradient id="paint6_radial_2390_6000" cx="0" cy="0" r="1" gradientUnits="userSpaceOnUse" gradientTransform="matrix(1365.52 0 0 1365.51 1923.16 840.616)"><stop stop-color="#E9D8D2"/><stop offset=".397" stop-color="#E8D6D0"/><stop offset=".594" stop-color="#E6D0C8"/><stop offset=".746" stop-color="#E3C6BB"/><stop offset=".875" stop-color="#DDB7A8"/><stop offset=".99" stop-color="#D7A491"/><stop offset="1" stop-color="#D6A28E"/></radialGradient><radialGradient id="paint12_radial_2390_6000" cx="0" cy="0" r="1" gradientUnits="userSpaceOnUse" gradientTransform="translate(1156.82 208.67) scale(338.843)"><stop stop-color="#726E6B"/><stop offset="1" stop-color="#664F64"/></radialGradient><radialGradient id="paint51_radial_2390_6000" cx="0" cy="0" r="1" gradientUnits="userSpaceOnUse" gradientTransform="translate(1248.95 674.164) scale(12.2747)"><stop stop-color="#FBD1BD"/><stop offset=".983" stop-color="#FB9F8B"/></radialGradient><radialGradient id="paint52_radial_2390_6000" cx="0" cy="0" r="1" gradientUnits="userSpaceOnUse" gradientTransform="matrix(16.0115 0 0 13.7567 1248.8 670.084)"><stop stop-color="#FBD1BD"/><stop offset=".983" stop-color="#FBBAAD"/></radialGradient><radialGradient id="paint94_radial_2390_6000" cx="0" cy="0" r="1" gradientUnits="userSpaceOnUse" gradientTransform="rotate(-172.073 771.636 121.735) scale(94.4051 94.4052)"><stop offset=".016" stop-color="#FFC2A9"/><stop offset="1" stop-color="#FF9595"/></radialGradient><radialGradient id="paint99_radial_2390_6000" cx="0" cy="0" r="1" gradientUnits="userSpaceOnUse" gradientTransform="matrix(-3.37295 -.0604 .0604 -3.37293 1502.01 313.046)"><stop stop-color="#CF95FF"/><stop offset="1" stop-color="#8161FF"/></radialGradient><radialGradient id="paint110_radial_2390_6000" cx="0" cy="0" r="1" gradientUnits="userSpaceOnUse" gradientTransform="rotate(174.169 755.66 196.766) scale(5.03096 5.03097)"><stop stop-color="#CF95FF"/><stop offset="1" stop-color="#8161FF"/></radialGradient><clipPath id="clip0_2390_6000"><path fill="#fff" d="M0 0h1920v1000H0z"/></clipPath><clipPath id="clip1_2390_6000"><path fill="#fff" transform="translate(436.38 185.58)" d="M0 0h1052v380.21H0z"/></clipPath><clipPath id="clip2_2390_6000"><path fill="#fff" transform="translate(52 530.77)" d="M0 0h565.23v313.19H0z"/></clipPath><clipPath id="clip3_2390_6000"><path fill="#fff" transform="translate(1134.77 623.98)" d="M0 0h209.51v321.43H0z"/></clipPath><clipPath id="clip4_2390_6000"><path fill="#fff" transform="translate(1433.04 239.578)" d="M0 0h397.82v708.062H0z"/></clipPath></defs></svg>