<svg width="1920" height="1000" viewBox="0 0 1920 1000" fill="none" xmlns="http://www.w3.org/2000/svg">
<g clip-path="url(#clip0_2122_9837)">
<path d="M95.6104 354.47L138.09 336.13L196.16 375.39V619.95H92.4004L95.6104 354.47Z" fill="#7CD8BE"/>
<path d="M512.69 349.24L536.16 337.14L594.08 355.24L592.81 447.47L617.51 449.87V406.85L647.57 397.35L710.96 411.37V546.45L738.94 547.75L736.8 502.59L764.58 492.65L790.22 499.9L792.39 536.6H806.61V466.82L851.5 462.07L863.55 475.74V535.42H880.93V559.78H896.19V496.41L917.38 486.57L916.21 440.61L964.84 411.37L993.44 421.66V474.31H1017.03V344.04L1047.13 327.73L1066.68 333.46V400.71H1081.14V246.84L1145.93 219.16L1184.35 227.52V375.39H1214.62V463.43H1227.7V313.14L1263.49 299.32V174.22L1280.76 166.03V94.36H1396.57V621.92H516.43L512.69 349.24Z" fill="#7CD8BE"/>
<path d="M195.111 425.85L229.841 412.54L277.321 441.04V618.61H192.491L195.111 425.85Z" fill="#7CD8BE"/>
<path d="M94 497.366L92.4957 620L-1 618.82V499.932L47.7752 468L94 497.366Z" fill="#7CD8BE"/>
</g>
<defs>
<clipPath id="clip0_2122_9837">
<rect width="1920" height="1000" fill="white"/>
</clipPath>
</defs>
</svg>
