<svg width="1920" height="1000" viewBox="0 0 1920 1000" fill="none" xmlns="http://www.w3.org/2000/svg">
<g clip-path="url(#clip0_2122_9840)">
<path d="M647.2 159.82C647.2 159.82 659.19 160.2 660.71 160.94C662.24 161.68 670.32 167.5 670.32 167.5L672.77 168.06C672.77 168.06 672.7 169.07 674.06 170.16C675.42 171.24 681.1 165.8 683.05 166.96C685 168.12 692.78 171.65 692.78 171.65C692.78 171.65 683 170.51 681.05 169.34C679.1 168.18 675.19 173.44 675.19 173.44L676.05 175.12C676.05 175.12 663.71 165.55 659.13 162.9C654.55 160.24 647.2 159.82 647.2 159.82Z" fill="url(#paint0_linear_2122_9840)"/>
<path d="M239.47 88.39C246.14 87.16 248.44 85.65 248.44 85.65C248.44 85.65 275.51 92.34 286.84 91.23C298.18 90.12 306.06 82.64 306.06 82.64C306.06 82.64 314.22 88.43 322.63 90.16C331.04 91.89 334.89 87.46 334.89 87.46C334.89 87.46 364.03 96.21 378.48 93.64C392.93 91.07 393.56 85.34 393.56 85.34C393.56 85.34 407.3 91.97 424.76 96.35C442.21 100.74 449.63 94.19 449.63 94.19C449.63 94.19 472.81 102.55 486.63 105.77C500.45 109 504.84 108 504.84 108L574.97 113.96C574.97 113.96 574.35 110.62 556.59 104.57C538.83 98.52 505.9 104.3 505.9 104.3C505.9 104.3 510.97 87.03 499.21 83.96C487.45 80.89 464.67 91.15 464.67 91.15C464.67 91.15 490.55 63.22 463.83 55.37C437.11 47.52 408.83 74.34 408.83 74.34C408.83 74.34 428.34 44.4 402.14 38.33C379.41 33.07 369.81 65.38 369.81 65.38C369.81 65.38 368.35 35.95 346.09 35.8C323.84 35.65 327.85 77.13 327.85 77.13C327.85 77.13 303.03 57.98 279.78 59C259.98 59.87 257.42 82.63 257.42 82.63C257.42 82.63 237.87 67.16 214.43 66.11C191 65.06 184.11 87.95 184.11 87.95L198.48 88.91C198.5 88.92 232.8 89.63 239.47 88.39Z" fill="white"/>
<path d="M486.64 105.79C472.82 102.56 449.64 94.21 449.64 94.21C449.64 94.21 442.22 100.76 424.77 96.37C407.32 91.98 393.57 85.36 393.57 85.36C393.57 85.36 392.94 91.09 378.49 93.66C364.04 96.23 334.9 87.48 334.9 87.48C334.9 87.48 331.05 91.91 322.64 90.18C314.23 88.45 306.07 82.66 306.07 82.66C306.07 82.66 298.18 90.14 286.85 91.25C275.51 92.36 248.45 85.67 248.45 85.67C248.45 85.67 246.16 87.18 239.48 88.41C232.81 89.64 198.5 88.94 198.49 88.94L574.98 113.99L504.85 108.03C504.84 108.02 500.45 109.02 486.64 105.79Z" fill="#B2EBE2"/>
<path d="M1869.43 1000H1420.45L1404.04 999.47L1229.69 939.37L1311.06 908.64L1208.24 879.87L1309.2 844.74L1869.43 1000Z" fill="#B69B9E"/>
<path d="M1807.09 619.71H1510.71L1499.71 0H1807.09V619.71Z" fill="#E2754C"/>
<path d="M1809.26 -20.48L1555.98 44.14L1516.84 85H1806.51L1809.26 -20.48Z" fill="#CF5936"/>
<path d="M1836.98 151.24V1049.43L1247.94 893.44L1203.04 881.55L1196.7 879.87V204.85L1836.98 151.24Z" fill="url(#paint1_linear_2122_9840)"/>
<path opacity="0.23" d="M1210.19 734.37H1274.99V584.87L1386.89 563.78V781.15L1558.41 771.98L1573.08 656.41L1601.52 642.66L1609.77 494.99L1776.7 450.04L1784.04 1029.66L1225.49 887.49L1210.19 734.37Z" fill="#4C8869"/>
<path opacity="0.25" d="M1259.4 284.03H1406.15V669.25L1259.4 284.03Z" fill="#FFFCCC"/>
<path d="M1836.98 151.24V1049.43L1762.33 1029.66V157.49L1203.04 204.32V881.55L1159.97 870.14L1157.65 120.2L1806.51 35.5002V153.79L1836.98 151.24Z" fill="#FFEE60"/>
<path d="M1208.04 875.74L1762.33 1019.17V1029.66L1196.7 879.87L1208.04 875.74Z" fill="#4C8869"/>
<path d="M1762.33 317.99V339.28L1649.65 340.74V1004.95L1630.3 999.77V362.37L1463.42 362.97V852.37L1437.13 847.01V363.07L1294.07 363.58V910.48L1285.33 907.25V345.47L1211.94 346.42V329.82L1285.33 328.24V207.1L1294.07 206.15V328.05L1630.3 320.83V178.57L1649.65 177.03V320.41L1762.33 317.99Z" fill="#4C8869"/>
<path d="M1218.13 213.64L1218.09 216.16L1208.04 875.74L1203.04 877.56L1196.7 879.87V200.68L1209 208.12L1218.13 213.64Z" fill="#E2754C"/>
<path d="M1445.75 389.85C1446.36 537.12 1446.37 702.31 1445.75 849.58C1445.13 702.31 1445.13 537.11 1445.75 389.85Z" fill="#4C8869"/>
<path d="M1762.33 157.49V181.31L1247.94 220.96V893.44L1203.04 881.55V877.56L1208.04 875.74L1217.98 223.27L1218.09 216.16L1218.13 213.64L1762.33 157.49Z" fill="#4C8869"/>
<path d="M1762.33 135.45V171.68L1247.94 213.72L1218.09 216.16L1206.98 208.12L1196.7 200.68L1762.33 135.45Z" fill="#CD5B39"/>
<path d="M1142 917.08V928.82L1497.12 1047.6L1625.29 999.77V889.22L1330.94 860.03L1142 917.08Z" fill="#FF9484"/>
<path d="M1218.13 838.21V891.35L1564.83 988.44L1568.5 924.9L1218.13 838.21Z" fill="#FCF3DC"/>
<path d="M1220.31 891.35L1564.83 988.44L1487.83 1029.66L1142 917.08L1220.31 891.35Z" fill="#FED7AC"/>
<path d="M1644.65 315.91V177.03L1625.3 178.57V316.33L1291.54 323.51V206.15L1282.79 207.1V323.7L1211.94 325.22V341.81L1282.79 340.89V907.25L1291.54 910.48V815.53L1434.13 847.01L1458.42 852.37L1625.3 889.22V999.77L1644.65 1004.95V336.2L1762.33 334.67V313.38L1644.65 315.91ZM1291.54 790.78V359.57L1434.13 359.06V820.53L1291.54 790.78ZM1458.42 825.59V358.98L1625.3 358.39V860.4L1458.42 825.59Z" fill="#FCF3DC"/>
<path d="M1293.38 815.23L1625.29 889.22L1568.5 924.9L1218.13 838.21L1293.38 815.23Z" fill="#FED7AC"/>
<path d="M1902.1 0H1805V1000H1902.1V0Z" fill="#CF5936"/>
<path d="M1864.96 999.96H1805V35.71L1864.96 28.59V999.96Z" fill="#FFEE60"/>
<path d="M1880.55 999.96H1864.96V28.59L1880.55 34.59V999.96Z" fill="#BCAB48"/>
<path d="M1920 0H1902V1000H1920V0Z" fill="#333333"/>
<path d="M1537.65 292.73L1377 298V226.69L1537.65 216V292.73Z" fill="#FCF3DC"/>
<path d="M1453.35 256.67V283.1L1439.87 270.17L1450.75 259.28L1453.35 256.67Z" fill="#0C2C3E"/>
<path d="M1459.75 276.96L1459.76 237.04L1481.52 256.1L1459.75 276.96Z" fill="#0C2C3E"/>
<path d="M1453.35 231.44V249.33L1436.22 266.68L1427.53 258.34L1450.75 234.15L1453.35 231.44Z" fill="#0C2C3E"/>
</g>
<defs>
<linearGradient id="paint0_linear_2122_9840" x1="-236.176" y1="958.501" x2="-283.524" y2="999.923" gradientUnits="userSpaceOnUse">
<stop offset="0.0223" stop-color="#B3AEB0"/>
<stop offset="0.9944" stop-color="#917471"/>
</linearGradient>
<linearGradient id="paint1_linear_2122_9840" x1="1519.66" y1="940.583" x2="1515.53" y2="318.726" gradientUnits="userSpaceOnUse">
<stop stop-color="#81EFBB"/>
<stop offset="1" stop-color="#71C8C5"/>
</linearGradient>
<clipPath id="clip0_2122_9840">
<rect width="1920" height="1000" fill="white"/>
</clipPath>
</defs>
</svg>
