<svg width="1920" height="1000" viewBox="0 0 1920 1000" fill="none" xmlns="http://www.w3.org/2000/svg">
<g clip-path="url(#clip0_2122_9839)">
<path d="M-1.44922 602.76C-1.44922 602.76 7.03078 589.38 11.6208 591.94C16.2108 594.5 11.6208 602.76 11.6208 602.76C11.6208 602.76 31.3508 598.33 35.0108 602.76C37.4708 605.74 35.0108 609.64 35.0108 609.64C35.0108 609.64 51.5208 603.22 53.8108 609.64C56.1008 616.06 51.7208 622.24 40.1508 622.36C28.5808 622.48 -1.44922 623.17 -1.44922 623.17V602.76V602.76Z" fill="#6C943A"/>
<path d="M104.49 580.34C118.79 595.53 134.74 587 139.91 571.12C146.09 594.68 168.48 588.27 179.32 582.36C197.56 596.64 215.64 594.12 194.82 568.69C195.72 569.3 211.19 579.95 225.15 573.19C236.21 568.91 230.65 556.51 226.2 552.68C267.51 549.45 276.45 518.61 223.32 514.69C220.83 517.91 216.99 519.9 216.99 519.9C233.05 526.83 227.59 550.65 208.62 544.24C222.97 573.2 187.73 557.68 183.05 553.09C187.75 573.08 165.87 565.9 164.26 552.79C142.32 557.86 116.77 547.32 138.66 519.92C129.26 529.76 108.43 535.86 99.1504 519.9C94.4404 542.04 73.9404 539.68 59.6104 533.96C63.3804 551.68 48.5504 552.6 39.6004 543.55C46.0804 576.75 2.92039 568.87 -9.84961 563.44C-8.24961 579.66 25.6604 573.28 25.3704 572.76C25.1204 580.55 33.3104 588.63 46.1504 590.07C67.9804 593.46 73.3204 572.76 73.3204 572.76C75.2504 585.64 91.7804 592.1 104.49 580.34Z" fill="#71AC2F"/>
<path d="M180.84 722.07C180.84 726.54 160.29 728.49 134.94 728.49C109.59 728.49 89.04 723.98 89.04 722.07C89.04 717.6 109.59 713.97 134.94 713.97C160.29 713.97 180.84 717.6 180.84 722.07Z" fill="#6C943A"/>
<path d="M112.841 637.19C113.501 649.24 112.471 663.88 111.431 676.42C112.411 675.83 108.271 705.43 108.271 705.43C108.271 705.43 118.351 703.03 119.851 701.07C119.651 674.76 115.951 638.93 129.391 616.11C140.791 612.74 150.981 597.89 152.031 586.92C151.451 586.67 150.881 586.4 150.341 586.08C150.211 595.17 139.451 608.8 130.311 610.42C130.721 598.34 132.521 583.71 140.531 572.93C140.121 571.83 139.911 571.12 139.911 571.12C139.911 571.12 137.791 577.81 132.661 582.97C129.601 589.03 127.611 604.18 127.571 608.4C127.731 604.44 125.231 593.59 123.051 588.35C122.301 588.47 121.551 588.52 120.801 588.51C127.641 605.33 125.811 616.81 118.471 631.94C116.271 624.31 112.171 611.31 109.561 603.43C109.561 603.43 112.251 599.33 113.481 586.72C112.371 586.21 111.331 585.63 110.371 585.03C109.411 593.16 107.101 599.51 107.101 599.51L99.7306 583.8C98.3906 584.51 96.7706 585.19 94.8906 585.69C102.571 600.97 111.431 619.73 112.841 637.19Z" fill="#6B4B31"/>
<path d="M29.2404 566.62C43.6204 560.77 39.6004 543.56 39.6004 543.56C48.6304 552.66 63.3704 551.62 59.6104 533.97C74.1204 539.76 94.4504 541.95 99.1504 519.91C108.47 535.95 129.38 529.68 138.66 519.93C116.7 547.44 142.5 557.85 164.26 552.8C165.86 565.88 187.75 573.11 183.05 553.1C187.82 557.74 222.95 573.16 208.62 544.25C227.66 550.66 233 526.78 216.99 519.91C216.99 519.91 220.83 517.92 223.32 514.7C222.46 514.6 221.95 514.58 221.95 514.58C260.24 504.64 235.72 483.58 214.47 483.92C214.47 483.92 227.95 468.92 228.21 458.45C226.95 437.95 179.32 452.38 178.83 452.28C213.48 406.35 168.75 409.16 143.67 415.77C164.44 386.17 133.65 380.69 117.87 405.15C113.86 382.34 84.3904 383.51 88.2104 417.47C51.0604 411.26 55.1404 425.02 75.1004 454.75C67.8804 447.39 57.7004 442.83 46.6504 442.97C25.0404 441.11 28.0004 478.06 30.0904 483.61C29.5104 481.4 25.6804 468.39 12.0304 469.4C-1.24955 470.92 5.05044 497.58 7.24044 506.36C-12.1196 496.66 -31.0996 505.32 -10.7296 526.97C-6.58956 532.41 7.58044 545.99 10.4304 548.2C10.3804 548.13 -10.2996 554.19 -9.89956 563.44C-8.72956 563.87 15.1804 572.32 29.2404 566.62Z" fill="url(#paint0_radial_2122_9839)"/>
<path d="M116.171 725.51C126.481 725.54 157.311 725.75 157.071 720.36C156.831 714.97 136.621 717.74 136.621 717.74C136.621 717.74 164.871 703.61 157.181 700.58C149.491 697.55 128.901 707.9 128.901 707.9C128.901 707.9 136.581 695.51 132.791 691.71C129.001 687.91 119.821 700.72 119.821 700.72C119.821 700.72 119.331 676.51 107.791 675.68C101.371 675.22 105.151 699.3 105.151 699.3C105.151 699.3 89.7106 690.82 88.4106 693.27C84.9006 699.91 95.8606 712.58 95.8606 712.58C95.8606 712.58 80.3906 711.68 80.3906 715.28C80.3806 725.51 106.871 725.48 116.171 725.51Z" fill="#71AC2F"/>
<path d="M958.971 778.59C977.588 778.59 992.681 776.486 992.681 773.89C992.681 771.294 977.588 769.19 958.971 769.19C940.353 769.19 925.261 771.294 925.261 773.89C925.261 776.486 940.353 778.59 958.971 778.59Z" fill="#6C943A"/>
<path d="M976.51 482.83L977.72 486.72L976.2 487.27L973.87 485.24L976.51 482.83Z" fill="#62432D"/>
<path d="M939.451 761.26C938.711 769.15 938.251 773.89 938.251 773.89H961.761C961.761 773.89 961.841 769.22 961.991 761.34C962.001 760.88 962.011 760.33 962.021 759.85C962.071 757.03 962.131 753.91 962.201 750.41C962.331 743.69 962.481 735.79 962.651 727.2C962.741 722.57 962.841 717.76 962.941 712.77C963.201 699.93 963.501 686.12 963.811 672.42C963.851 670.45 963.901 668.49 963.941 666.53C964.041 662.06 964.151 657.61 964.251 653.23C964.501 642.79 964.751 632.79 965.011 623.65C965.681 599.4 966.331 581.53 966.841 579.94C968.531 574.62 993.191 568.09 999.481 554.55C1005.77 541.01 1012.29 515.38 1012.29 515.38C1012.29 515.38 1021.96 510.79 1029.7 492.41C1030.13 491.4 1030.52 490.36 1030.89 489.3C1029.58 488.56 1028.4 487.54 1027.35 486.29C1026.4 489.15 1025.28 491.89 1023.89 494.35C1014.22 511.52 1005.11 511.27 1005.11 511.27C1005.11 511.27 988.621 507.51 980.851 494.1C979.541 491.84 978.451 489.08 977.511 486.1C976.941 486.38 976.581 486.53 976.581 486.53L975.291 484.92C975.291 484.92 975.941 484.71 976.941 484.21C976.911 484.11 976.891 484.02 976.861 483.92C975.011 482.99 973.181 481.87 971.361 480.61C972.971 488.42 974.951 495.48 977.221 498.45C983.511 506.67 1005.1 516.02 1005.1 516.02C1005.1 516.02 1003.49 537.94 993.491 551.48C983.501 565.02 963.191 572.43 963.191 572.43C963.191 572.43 960.611 565.66 949.651 556.9C938.691 548.14 912.661 532.05 912.661 532.05C912.661 532.05 917.011 519.72 920.641 502.55C922.701 492.79 923.031 485.01 922.941 480.02C922.121 480.39 921.611 480.55 921.611 480.55L918.711 475.47C918.711 475.47 920.021 475.06 921.841 474.02C921.761 473.98 921.691 473.94 921.611 473.91C918.631 473.55 908.951 471.97 903.391 466.28C902.501 465.37 901.801 464.43 901.211 463.47C900.291 464.5 899.191 465.66 897.881 466.97C898.071 467.2 898.201 467.42 898.411 467.65C906.151 476.35 918.401 477.64 918.401 477.64C918.401 477.64 918.401 485.7 916.791 496.01C915.181 506.33 908.411 529.86 908.411 529.86C908.411 529.86 899.381 523.41 883.271 500.2C879.321 494.51 876.641 489 874.801 483.89C872.081 485.3 869.191 486.57 866.141 487.73C867.501 491.81 869.131 495.93 871.131 500C871.261 501.3 876.611 509.64 878.121 511.74C904.981 549.08 945.111 552.41 949.951 578.52C951.561 587.18 950.801 611.64 949.091 640.41C948.591 648.77 948.011 657.48 947.391 666.3C947.361 666.66 947.341 667.02 947.311 667.38C946.801 674.46 946.271 681.58 945.721 688.61C943.921 711.69 941.991 733.68 940.541 749.56C940.171 753.65 939.831 757.32 939.531 760.51C939.501 760.78 939.471 761.03 939.451 761.26Z" fill="#6B4B31"/>
<path d="M802.93 344.05C802.93 344.05 764.16 348.07 762.2 365.16C760.24 382.25 784.55 397.34 784.55 397.34C784.55 397.34 764.39 423.12 775.54 448.31C779.37 456.97 789.6 461.08 813.44 448.31C834.24 437.14 836.87 425.86 837.18 423.24C837.03 427.15 836.51 449.91 849.18 453.98C862.98 458.36 864.63 440.44 864.63 440.44C864.63 440.44 885.23 452.13 904.17 447.24C923.17 442.3 924.15 418.46 924.15 418.46C924.15 418.46 929.3 437.67 947.01 440.45C964.67 443.28 975.33 423.61 975.33 423.61C975.33 423.61 980.68 452.13 992.48 454.66C1004.27 457.18 1013.08 428.04 1013.08 428.04C1013.08 428.04 1020.6 448.94 1032.8 448.69C1045.05 448.38 1043.3 428.66 1043.3 428.66C1043.3 428.66 1059.21 434.89 1067.34 424.59C1075.06 414.81 1061.88 404.82 1060.54 403.84C1062.08 404.05 1078.05 406.47 1086.23 400.34C1093.23 395.09 1087.72 382.47 1085.51 378.1C1088.45 383.4 1098.33 400.39 1104.66 400.55C1111.87 400.76 1103.37 387.63 1102.7 386.6C1102.65 386.55 1102.65 386.55 1102.65 386.55C1102.65 386.55 1139.82 356.89 1115.52 326.41C1104.76 312.97 1090.34 338.72 1084.06 351.79C1089.67 338.4 1099.46 309.16 1084.78 295.82C1075.36 287.22 1051.57 303.18 1051.57 303.18C1051.57 303.18 1065.99 240.16 1041.32 235.88C1016.6 231.61 996.32 278.77 996.32 278.77C996.32 278.77 995.44 217.19 977.22 214.61C959.66 212.14 964.25 265.28 964.55 268.78C962.8 265.59 932.68 209.77 912.19 220.9C891.08 232.28 903.23 288.76 903.23 288.76C903.23 288.76 861.68 246.54 845.25 266.52C828.77 286.5 848.75 321.25 848.75 321.25C848.75 321.25 799.01 278.51 784.13 297.31C781.4 300.76 780.33 304.52 780.36 308.36C780.49 325.44 802.93 344.05 802.93 344.05Z" fill="url(#paint1_radial_2122_9839)"/>
<path d="M1104.65 400.54C1098.32 400.39 1088.43 383.39 1085.5 378.09C1099.43 403.98 1075.92 406.14 1060.53 403.83C1082.95 421.05 1059.23 436.19 1043.28 428.65C1043.69 463.62 1017.67 445.76 1013.06 428.03C999.91 469.8 981.63 456.95 975.32 423.6C962.41 448.27 931.67 444.9 924.14 418.45C922.46 454.87 884.32 452.13 864.62 440.44C864.62 440.44 862.97 458.36 849.17 453.98C836.5 449.91 837.02 427.15 837.17 423.24C834.06 444.1 789.95 463.76 775.54 448.31C775.54 475.81 816.27 460.25 816.27 460.25C822.35 471.52 846.8 498.37 866.14 487.75C881.97 481.86 896.03 470.38 904.52 459.58C920.56 479.07 934.86 481.43 951.63 461.9C964 475.17 986.89 504.11 997.51 465.25C1007.35 483.1 1016.22 476.78 1018.83 459.28C1021.55 492.39 1041.01 506.28 1050.08 461.91C1069.09 510.05 1077.69 469.99 1078.3 450.12C1078.3 450.12 1088.49 469.79 1102.4 468.4C1116.3 466.96 1102.4 430.2 1102.4 430.2C1152.88 416.84 1126.94 384.93 1102.66 386.54C1103.9 386.45 1111.86 400.73 1104.65 400.54Z" fill="#71AC2F"/>
<path d="M922.97 480.73L923.76 471.98C923.76 471.98 923.3 474.35 920.01 474.35C916.72 474.35 919.02 477.48 919.02 477.48L922.15 482.75L922.97 480.73Z" fill="#62432D"/>
<path d="M803.586 829.6L773.446 859.03L1112.1 860.83L1093.8 827.96L803.586 829.6Z" fill="#B69C9D"/>
<path d="M1101.59 855.04H1099.11L1087.08 813.3L1086.01 810.1L1087.15 800.95L1101.59 855.04Z" fill="#FFEF9C"/>
<path d="M1048.04 738.22L1048.11 742.56C1046.81 739.17 1045.71 736.79 1045.71 736.79V729.88L826.746 702.46L871.766 703.95H871.876L1047.58 709.76L1047.65 714.06V714.53L1047.87 728.61L1047.89 728.78V729.88L1048 736.81L1048.04 738.22Z" fill="#DFB88A"/>
<path d="M1086.68 799.16L1087.37 799.18L1087.15 800.95L1086.68 799.16Z" fill="#DFB88A"/>
<path d="M1114.62 789.85L1111.81 800.06L1087.37 799.18L1088.54 789.85L1081.15 795.49L1080.57 793.76L1080.23 792.79L1080.03 792.14L1078.6 787.84L1048.8 785.81V785.53L1048.78 784.99L1048.72 781.73L1045.7 784.26V765.63L1048.46 765.05L1048.42 763.08V762.88L1048.2 749.38L1048.18 747.82L1048.11 742.57C1051.31 751.04 1055.78 765.91 1047.57 766.09V779.71H1075.15L1114.62 789.85Z" fill="#DFB88A"/>
<path d="M829.946 728.78L832.996 781.73H836.056V728.78H829.946Z" fill="url(#paint2_linear_2122_9839)"/>
<path d="M1047.85 728.78V781.73H1044.8L1044.68 779.7L1043.9 766.18L1043.83 765.06L1043.71 762.99V762.94L1042.93 749.3L1042.84 747.83L1042.28 738.22L1042.21 736.84L1041.8 729.89V729.67L1041.74 728.78H1047.85Z" fill="url(#paint3_linear_2122_9839)"/>
<path d="M794.536 799.04L782.086 855.04H788.306L801.996 799.04L810.706 790.33L803.246 840.11H808.216L818.176 787.84L794.536 799.04Z" fill="url(#paint4_linear_2122_9839)"/>
<path d="M1063.12 787.84L1070.76 791.45L1070.91 792.4L1070.98 792.96L1071.11 793.82L1072.04 800.06L1073.53 810.02L1074.04 813.3L1078.04 840.1H1073.07L1067.97 813.3L1067.33 809.99L1065.45 800.06L1064.28 793.86L1064.13 793.11L1064.04 792.61L1063.12 787.84Z" fill="url(#paint5_linear_2122_9839)"/>
<path d="M1070.59 790.34L1072.57 792.31L1070.76 791.45L1070.59 790.34Z" fill="url(#paint6_linear_2122_9839)"/>
<path d="M1099.2 855.04H1092.98L1082.77 813.3L1081.99 810.08L1079.53 800.06L1079.29 799.03L1074.06 793.8L1073.16 792.91L1072.6 792.35L1072.57 792.31L1072.62 792.33L1073.81 792.91L1075.7 793.8L1079.29 795.49L1086.76 799.03L1086.98 800.06L1099.2 855.04Z" fill="url(#paint7_linear_2122_9839)"/>
<path d="M1110.97 791.92L1109.95 800.06H772.926L771.906 791.92L807.536 779.7H1073.29L1110.97 791.92Z" fill="#CC8E47"/>
<path d="M1067.18 704.34V729.8H1066.4C1066.4 729.8 1066.38 729.8 1066.34 729.8L1047.84 729.87H1046.01L1041.78 729.89L807.926 730.82H807.516L805.506 702.51L805.486 702.31L824.856 702.46L1067.18 704.34Z" fill="#D09857"/>
<path d="M795.326 813.29H1088.57V810.13L795.326 808.03V813.29Z" fill="url(#paint8_linear_2122_9839)"/>
<path d="M1110.97 791.92L1109.95 800.06H772.926L771.906 791.92C771.906 791.92 853.356 795.98 950.096 794.97C969.206 794.77 987.026 794.52 1003.35 794.26C1003.35 794.26 1003.54 794.26 1003.91 794.26C1004.13 794.24 1004.41 794.24 1004.75 794.24C1027.86 793.87 1047.89 793.48 1064.13 793.1C1066.5 793.06 1068.77 793.01 1070.98 792.95C1071.71 792.93 1072.43 792.91 1073.16 792.89H1073.81C1075.37 792.83 1076.9 792.8 1078.37 792.78C1099.29 792.29 1110.97 791.92 1110.97 791.92Z" fill="url(#paint9_linear_2122_9839)"/>
<path d="M933.796 704.35C933.796 704.35 810.596 703.33 808.556 704.35C806.516 705.37 807.536 713.51 807.536 713.51L932.076 715.35L807.536 715.55C807.536 715.55 807.286 720.94 809.576 727.77C811.616 729.81 1063.11 729.81 1065.15 727.77C1067.19 725.73 1066.17 714.53 1066.17 714.53H1028.5L1066.17 713.51C1066.17 713.51 1066.17 706.38 1065.15 705.36C1064.13 704.35 933.796 704.35 933.796 704.35Z" fill="#C88639"/>
<path d="M1068.17 736.56L1068.15 736.77L1066.21 765.08H1066.2L1047.85 765.06H1043.83L806.756 764.8H806.566V764.5L806.496 739.34L1042.21 736.84L1046.14 736.81L1047.85 736.79L1068.17 736.56Z" fill="#D09857"/>
<path d="M1109.95 800.06C1109.95 800.06 1110.06 793.58 1109.04 793.58C1108.67 793.58 1095.57 793.65 1078.72 793.77C1077.73 793.79 1076.73 793.79 1075.7 793.81C1075.16 793.79 1074.62 793.81 1074.06 793.81C1073.09 793.81 1072.1 793.81 1071.12 793.83C1068.88 793.85 1066.59 793.85 1064.28 793.87C1037.7 794.06 1008.31 794.24 1003.91 794.28C1004.13 794.26 1004.41 794.26 1004.75 794.26C1011.29 794.09 1039.65 793.38 1064.04 792.62C1066.37 792.55 1068.68 792.47 1070.91 792.42C1071.49 792.38 1072.05 792.36 1072.6 792.36L1072.62 792.34C1074.52 792.28 1076.38 792.23 1078.17 792.15C1091.58 791.68 1101.47 791.24 1101.81 790.9C1102.13 790.58 1099.41 789.35 1095.51 787.85C1093.87 787.2 1092.03 786.51 1090.11 785.8C1089.96 785.74 1089.81 785.69 1089.66 785.63C1088.75 785.29 1088.19 784.62 1088.19 784.62L1112.76 789.85L1109.95 800.06Z" fill="#DFB88A"/>
<path d="M807.546 779.69C807.546 779.69 778.016 789.87 779.036 790.89C780.056 791.91 835.266 794.09 835.266 794.09L771.906 791.91L807.546 779.69Z" fill="#D5A266"/>
<path d="M796.946 783.44L1069.23 785.8L793.696 784.62L796.946 783.44Z" fill="url(#paint10_linear_2122_9839)"/>
<path d="M790.527 785.53C790.237 785.8 839.107 784.79 839.107 784.79H793.287L790.527 785.53Z" fill="#D5A266"/>
<path d="M1012.1 785.31L1088.22 784.62L1091.63 785.8L1012.1 785.31Z" fill="url(#paint11_linear_2122_9839)"/>
<path d="M1047.84 785.8L1095.7 787.84L1091.11 785.62L1047.84 785.8Z" fill="#DFB88A"/>
<path d="M1066.35 729.8L1047.85 729.88H1046.02L1041.8 729.89L807.946 730.83L809.156 728.39L821.526 728.46H821.826L968.646 729.26H969.726L1041.8 729.67L1046.02 729.69H1047.85L1066.35 729.8Z" fill="url(#paint12_linear_2122_9839)"/>
<path d="M1066.2 763.78V765.64C1066.2 765.64 1059.36 765.83 1047.85 766.09C1047.46 766.11 1047.05 766.13 1046.62 766.13C1045.74 766.15 1044.83 766.17 1043.9 766.19C1019.13 766.75 976.917 767.51 933.947 767.51C866.897 767.51 807.287 765.65 807.287 765.65L806.747 764.81L806.557 764.51L830.827 763.8L835.947 763.65H836.057L960.007 760.06L1000.99 761.49L1042.92 762.96L1043.7 763L1046.55 763.09L1047.84 763.13L1066.2 763.78Z" fill="url(#paint13_linear_2122_9839)"/>
<path d="M939.876 738.96C939.876 738.96 1063.08 737.59 1065.12 738.6C1067.16 739.61 1066.16 747.76 1066.16 747.76L982.666 748L1066.17 749.8C1066.17 749.8 1066.2 759.98 1064.17 762.02C1062.14 764.06 810.636 764.78 808.596 762.75C806.556 760.72 807.536 749.52 807.536 749.52L845.206 749.41L807.526 748.5C807.526 748.5 807.506 741.37 808.516 740.35C809.546 739.33 939.876 738.96 939.876 738.96Z" fill="#C88639"/>
<g style="mix-blend-mode:screen" opacity="0.72">
<path d="M807.296 748.87L1001.01 756.32V763.96L807.296 763.78V748.87Z" fill="url(#paint14_linear_2122_9839)"/>
</g>
<path d="M659.216 831.83C659.216 831.83 640.706 855.96 663.216 867.5C681.106 876.67 694.486 867.5 709.836 864.27C722.656 861.57 760.946 855.21 760.946 855.21L750.136 828.22L659.216 831.83Z" fill="#B69C9D"/>
<path d="M713.356 824.81C708.926 822.22 705.036 818.8 700.716 816.03C695.906 812.95 690.516 810.68 684.856 809.96C679.196 809.24 673.246 810.14 668.306 813C660.836 817.33 656.366 825.77 655.346 834.34C654.946 837.67 655.026 841.08 655.916 844.31C658.066 852.03 664.906 857.92 672.606 860.15C676.796 861.36 681.186 861.61 685.546 861.85C706.386 863 727.446 864.13 747.986 860.41C750.966 859.87 753.986 859.21 756.616 857.71C759.246 856.21 761.486 853.74 762.006 850.76C762.346 848.81 761.956 846.8 761.256 844.95C759.566 840.45 756.136 836.74 752.096 834.13C748.056 831.53 743.416 829.97 738.726 828.94C734.386 827.99 730.766 827.76 726.466 828.31C721.926 828.88 717.196 827.05 713.356 824.81Z" fill="#E2881B"/>
<path d="M773.446 835.81C769.816 835.38 766.116 835.49 762.506 836.12C761.826 836.24 761.126 836.39 760.596 836.82C759.806 837.47 759.576 838.57 759.466 839.59C759.136 842.55 759.306 845.59 759.996 848.49C760.806 851.9 762.366 851.11 764.516 849.07C768.426 845.39 771.506 840.82 773.446 835.81Z" fill="#E2881B"/>
<path d="M734.486 813.24C736.036 816.56 737.096 820.1 737.626 823.72C737.726 824.4 737.806 825.11 737.556 825.75C737.196 826.71 736.216 827.26 735.286 827.69C732.576 828.93 729.636 829.72 726.666 829.98C723.176 830.28 723.436 828.55 724.686 825.87C726.966 821 730.336 816.65 734.486 813.24Z" fill="#E2881B"/>
<path d="M725.437 860.44C721.727 859.82 717.977 859.01 714.727 857.12C711.477 855.24 706.407 846.49 709.607 838.75C712.677 831.32 718.387 828.86 720.077 828.48C728.677 826.55 734.717 833.7 743.307 835.68C747.617 836.67 752.097 838.35 754.677 841.96C755.797 843.53 756.487 845.37 757.007 847.23C757.747 849.83 758.187 852.65 757.677 855.33C757.197 857.84 756.397 858.63 754.087 859.36C748.207 861.23 742.177 861.87 736.027 861.61C732.477 861.45 728.937 861.03 725.437 860.44Z" fill="#B76B18"/>
<path d="M750.167 824.54C753.307 825.24 756.747 828.3 758.987 830.6C761.517 833.2 762.927 836.75 763.387 840.35C763.847 843.95 763.397 847.61 762.597 851.15C762.277 852.59 761.867 854.06 760.957 855.21C759.577 856.95 755.447 859.16 753.277 859.62C740.757 862.26 737.117 862.41 729.467 859.46C724.867 857.69 719.397 853.82 714.607 845.21C712.607 841.61 712.637 836.93 714.937 833.51C717.787 829.28 723.567 825.72 728.597 824.86C735.507 823.66 743.227 823 750.167 824.54Z" fill="#E2881B"/>
<path d="M740.926 843C741.186 843.27 741.396 843.62 741.366 844C741.336 844.28 741.176 844.54 740.986 844.74C740.386 845.39 739.496 845.68 738.626 845.84C737.756 846 736.866 846.04 736.026 846.32C735.596 845.34 735.266 844.32 735.036 843.27C734.936 842.83 734.856 842.37 734.916 841.92C734.976 841.47 735.196 840.89 735.586 840.66C736.016 840.41 737.456 840.23 738.146 841.29C738.376 841.64 738.606 841.96 738.626 842.37C739.406 842.14 740.356 842.43 740.926 843Z" fill="#593E39"/>
<path d="M728.847 848.24C728.927 848.17 729.037 848.18 729.117 848.25C729.937 849 731.037 849.54 732.167 849.5C733.407 849.46 734.437 848.63 735.137 847.66C735.187 847.59 735.237 847.51 735.287 847.44C735.307 847.4 735.317 847.35 735.337 847.31C735.657 846.47 736.067 845.66 736.547 844.9C736.677 844.69 736.997 844.89 736.867 845.1C736.797 845.22 736.727 845.33 736.657 845.45C736.717 845.51 736.717 845.6 736.677 845.68C736.357 846.34 736.037 847 735.627 847.61C735.417 848.17 735.257 848.75 735.127 849.34C735.057 849.68 735.007 850.03 735.047 850.37C735.087 850.7 735.197 851.02 735.327 851.33C735.607 851.96 735.977 852.54 736.447 853.05C736.967 853.62 737.587 854.1 738.277 854.45C738.367 854.5 738.387 854.63 738.337 854.71C738.277 854.8 738.167 854.82 738.077 854.77C736.797 854.11 735.727 853.02 735.097 851.72C734.937 851.39 734.797 851.05 734.717 850.69C734.637 850.33 734.637 849.96 734.697 849.6C734.747 849.23 734.837 848.86 734.937 848.49C734.697 848.75 734.437 848.98 734.147 849.19C733.617 849.57 733.007 849.81 732.357 849.87C731.757 849.93 731.147 849.82 730.597 849.61C729.947 849.36 729.357 848.98 728.837 848.51C728.757 848.44 728.777 848.3 728.847 848.24Z" fill="#593E39"/>
<path d="M745.966 848.07C746.666 849.28 747.976 850.06 749.346 850.28C750.726 850.49 752.146 850.17 753.386 849.53C754.566 848.92 755.646 847.94 755.956 846.65C755.656 847.1 755.126 847.34 754.616 847.52C752.896 848.13 750.936 848.33 749.266 847.59C747.596 846.86 746.326 845.03 746.656 843.23C746.546 843.85 745.716 844.62 745.556 845.35C745.336 846.25 745.496 847.25 745.966 848.07Z" fill="#593E39"/>
<path d="M724.547 834.29C725.057 835.59 726.227 836.56 727.557 836.98C728.887 837.4 730.347 837.29 731.667 836.84C732.927 836.41 734.137 835.61 734.637 834.38C734.267 834.78 733.717 834.93 733.177 835.04C731.377 835.39 729.417 835.28 727.877 834.31C726.327 833.33 725.357 831.33 725.957 829.6C725.747 830.2 724.817 830.83 724.547 831.53C724.197 832.4 724.207 833.42 724.547 834.29Z" fill="#593E39"/>
<path d="M758.546 831.26C758.646 830.98 758.746 830.7 758.826 830.42C758.876 830.47 758.936 830.53 758.986 830.58C759.826 831.44 760.536 832.4 761.136 833.43C760.106 834.8 758.656 836.1 757.566 837.08C756.266 838.25 754.796 839.23 753.206 839.98C755.996 837.93 757.356 834.51 758.546 831.26Z" fill="#B76B18"/>
<path d="M747.557 838.76C749.937 835.16 750.497 830.6 752.857 826.98C753.077 826.65 753.307 826.32 753.517 825.99C754.917 826.86 756.277 827.98 757.457 829.08C753.257 831.06 751.367 836.09 747.557 838.76Z" fill="#B76B18"/>
<path d="M747.687 824.06C748.527 824.18 749.357 824.33 750.167 824.51C750.767 824.64 751.377 824.86 751.987 825.15C751.847 825.28 751.707 825.42 751.587 825.56C750.937 826.33 750.557 827.28 750.147 828.2C748.717 831.42 746.897 834.46 744.727 837.23C745.227 833.17 745.747 829.05 747.217 825.23C747.367 824.85 747.527 824.45 747.687 824.06Z" fill="#B76B18"/>
<path d="M741.486 824.43C741.576 824.16 741.676 823.89 741.786 823.62C742.806 823.63 743.826 823.67 744.846 823.75C743.066 826.36 741.706 829.26 740.846 832.3C740.616 829.66 740.656 826.95 741.486 824.43Z" fill="#B76B18"/>
<path d="M734.096 818.91C734.036 818.69 733.966 818.45 733.786 818.32C733.526 818.12 733.146 818.22 732.866 818.38C732.236 818.74 731.816 819.37 731.436 819.98C730.356 821.72 729.396 823.53 728.576 825.4C728.626 825.29 729.656 825.22 729.816 825.19C730.256 825.12 730.706 825.05 731.146 824.99C732.036 824.86 732.926 824.75 733.816 824.66C734.376 824.6 734.896 824.54 735.016 823.91C735.146 823.26 734.876 822.46 734.756 821.82C734.556 820.85 734.336 819.88 734.096 818.91Z" fill="#E5CAC6"/>
<path d="M769.487 839.38C767.047 839.26 764.597 839.35 762.177 839.67C762.917 842.42 762.937 845.44 762.137 848.19C763.497 847.14 764.647 845.6 765.737 844.26C766.387 843.47 767.017 842.66 767.637 841.84C767.867 841.54 769.187 839.36 769.487 839.38Z" fill="#E5CAC6"/>
<path d="M683.747 823.94C686.577 825.81 688.787 828.57 690.187 831.66C691.597 834.75 692.217 838.17 692.237 841.56C692.247 843.05 692.137 844.54 691.767 845.99C690.947 849.24 688.917 852.03 687.327 854.99C690.837 852.65 692.647 848.52 694.037 844.54C695.507 840.33 696.727 835.73 695.417 831.47C694.187 827.45 690.807 824.32 686.957 822.63C683.107 820.93 679.537 819.54 675.327 819.55C673.977 819.56 670.727 820.64 670.217 822.24C670.747 822.4 671.487 821.99 672.017 821.82C673.097 821.48 674.097 821.24 675.237 821.27C678.257 821.35 681.237 822.28 683.747 823.94Z" fill="#CE781B"/>
<path d="M653.097 851.4C655.147 857.34 659.877 862.2 665.577 864.83C674.777 869.08 685.487 867.62 695.507 866.07C712.227 863.49 729.837 861 745.657 867C746.227 867.22 746.807 867.45 747.427 867.5C749.837 867.69 751.597 864.82 751.107 862.46C750.617 860.1 748.637 858.34 746.587 857.06C741.837 854.11 736.197 852.83 730.607 852.55C725.017 852.27 719.427 852.93 713.877 853.59C708.087 854.28 702.297 854.96 696.507 855.65C690.017 856.42 683.437 857.19 676.957 856.29C670.477 855.4 664.007 852.64 659.957 847.51C656.187 842.74 654.907 836.34 655.867 830.4C655.207 833.82 653.407 836.6 652.587 839.94C651.657 843.7 651.837 847.74 653.097 851.4Z" fill="#F2AE25"/>
<path d="M746.586 857.05C744.576 855.8 742.417 854.86 740.167 854.16C740.227 854.27 740.267 854.39 740.297 854.52C740.397 855.06 740.106 855.59 739.846 856.07C738.506 858.54 737.627 861.26 737.247 864.04C737.227 864.21 737.207 864.39 737.187 864.57C740.057 865.15 742.887 865.94 745.667 866.99C746.237 867.21 746.817 867.44 747.437 867.49C749.847 867.68 751.607 864.81 751.117 862.45C750.617 860.08 748.636 858.32 746.586 857.05Z" fill="#B76B18"/>
<path d="M661.327 849.06C660.847 848.57 660.377 848.05 659.947 847.5C659.277 846.66 658.687 845.76 658.177 844.82C655.827 846.22 653.987 849.09 653.097 851.41C653.767 853.36 654.737 855.19 655.927 856.87C656.407 855.3 656.937 853.75 657.787 852.34C658.637 850.97 659.887 849.74 661.327 849.06Z" fill="#B76B18"/>
<path d="M683.966 865.85C683.496 863.91 683.356 861.89 683.566 859.9C683.686 858.79 683.926 857.66 684.416 856.67C682.676 856.71 680.946 856.67 679.216 856.53C677.886 860.06 677.396 864.1 678.466 867.61C680.416 867.67 682.396 867.6 684.376 867.46C684.246 866.92 684.096 866.38 683.966 865.85Z" fill="#B76B18"/>
<path d="M666.827 865.37C667.187 862.69 667.667 860.05 668.937 857.69C669.487 856.67 670.257 855.73 671.147 854.95C669.367 854.36 667.657 853.61 666.057 852.69C665.827 853.07 665.557 853.44 665.307 853.78C663.427 856.36 662.147 859.39 661.627 862.54C662.867 863.42 664.197 864.19 665.577 864.83C665.997 865.02 666.407 865.2 666.827 865.37Z" fill="#B76B18"/>
<path d="M697.897 865.7C697.747 862.95 697.597 860.21 697.457 857.46C697.427 856.82 697.397 856.15 697.497 855.51C697.167 855.55 696.837 855.59 696.507 855.63C694.707 855.84 692.897 856.06 691.097 856.23C691.567 857.62 691.387 859.41 691.237 860.94C691.047 862.82 691.117 864.84 691.677 866.63C692.967 866.45 694.237 866.25 695.507 866.06C696.297 865.94 697.097 865.82 697.897 865.7Z" fill="#B76B18"/>
<path d="M727.486 863.39C727.486 862.2 727.366 860.99 727.496 859.8C727.786 857.27 729.326 854.91 731.526 853.62C732.166 853.24 732.866 852.97 733.596 852.78C732.596 852.66 731.596 852.58 730.596 852.53C727.436 852.37 724.276 852.51 721.116 852.78C721.256 853.16 721.346 853.56 721.386 853.95C721.546 855.49 721.106 857.01 720.866 858.54C720.626 860.11 720.586 861.72 720.756 863.3C723.026 863.26 725.266 863.28 727.486 863.39Z" fill="#B76B18"/>
<path d="M715.796 859.86C715.346 857.94 714.626 856.02 714.876 854.06C714.906 853.85 714.946 853.64 715.006 853.44C714.626 853.48 714.246 853.53 713.866 853.57C711.526 853.85 709.196 854.12 706.856 854.4C707.336 855.71 707.306 857.34 707.346 858.79C707.406 860.64 707.716 862.49 708.276 864.25C710.926 863.94 713.586 863.68 716.246 863.51C716.246 862.29 716.076 861.05 715.796 859.86Z" fill="#B76B18"/>
<path d="M454.62 428.85L489.36 415.54L536.83 444.04V621.61H452L454.62 428.85Z" fill="#7CD8BE"/>
<path d="M953.12 144.56C953.12 144.56 964.49 147.49 970.64 147.1C976.78 146.72 978.22 145.56 978.22 145.56C978.22 145.56 982.92 147.67 986.76 147.58C990.6 147.48 993 144.03 993 144.03C993 144.03 1005.57 147.39 1015.65 147.39C1025.73 147.39 1026.88 146.43 1026.88 146.43L1080.62 149.51C1080.62 149.51 1077.57 141.12 1069.52 141.86C1061.47 142.6 1054.63 146.11 1054.63 146.11C1054.63 146.11 1050.66 139.94 1043.74 139.5C1036.82 139.07 1028.98 140.76 1028.98 140.76C1028.98 140.76 1028.89 136.35 1020.95 132.85C1013.01 129.36 999.17 138.3 999.17 138.3C999.17 138.3 998.7 134.28 992.35 133.44C986 132.6 979.08 141.78 979.08 141.78C979.08 141.78 973.8 137.09 968.23 137.2C962.66 137.31 957.96 142.21 957.96 142.21C957.96 142.21 952.88 137.9 939.88 139.54C922.29 141.77 921.46 148.82 921.46 148.82C921.46 148.82 943.66 147.91 948.22 146.8C952.78 145.71 953.12 144.56 953.12 144.56Z" fill="white"/>
<path d="M1026.88 146.43C1026.88 146.43 1025.73 147.39 1015.65 147.39C1005.57 147.39 993 144.03 993 144.03C993 144.03 990.6 147.49 986.76 147.58C982.92 147.68 978.22 145.56 978.22 145.56C978.22 145.56 976.78 146.71 970.64 147.1C964.5 147.48 953.12 144.56 953.12 144.56C953.12 144.56 952.78 145.71 948.22 146.82C943.66 147.92 921.46 148.84 921.46 148.84L1080.62 149.52L1026.88 146.43Z" fill="#B2EBE2"/>
</g>
<defs>
<radialGradient id="paint0_radial_2122_9839" cx="0" cy="0" r="1" gradientUnits="userSpaceOnUse" gradientTransform="translate(-1.22596 532.134) scale(213.288)">
<stop stop-color="#A2C47B"/>
<stop offset="1" stop-color="#81C436"/>
</radialGradient>
<radialGradient id="paint1_radial_2122_9839" cx="0" cy="0" r="1" gradientUnits="userSpaceOnUse" gradientTransform="translate(795.36 446.834) scale(265.824)">
<stop stop-color="#A2C47B"/>
<stop offset="1" stop-color="#81C436"/>
</radialGradient>
<linearGradient id="paint2_linear_2122_9839" x1="832.74" y1="718.388" x2="835.166" y2="816.136" gradientUnits="userSpaceOnUse">
<stop offset="0.0223" stop-color="#BA3B36"/>
<stop offset="0.9944" stop-color="#B7332E"/>
</linearGradient>
<linearGradient id="paint3_linear_2122_9839" x1="1044.4" y1="713.126" x2="1046.83" y2="810.885" gradientUnits="userSpaceOnUse">
<stop offset="0.0223" stop-color="#BA3B36"/>
<stop offset="0.9944" stop-color="#B7332E"/>
</linearGradient>
<linearGradient id="paint4_linear_2122_9839" x1="801.275" y1="854.594" x2="799.889" y2="814.386" gradientUnits="userSpaceOnUse">
<stop offset="0.0223" stop-color="#BA3B36"/>
<stop offset="0.9944" stop-color="#B7332E"/>
</linearGradient>
<linearGradient id="paint5_linear_2122_9839" x1="1071.2" y1="832.093" x2="1070.13" y2="801.089" gradientUnits="userSpaceOnUse">
<stop offset="0.0223" stop-color="#BA3B36"/>
<stop offset="0.9944" stop-color="#B7332E"/>
</linearGradient>
<linearGradient id="paint6_linear_2122_9839" x1="1071.6" y1="792.024" x2="1071.56" y2="790.824" gradientUnits="userSpaceOnUse">
<stop offset="0.0223" stop-color="#BA3B36"/>
<stop offset="0.9944" stop-color="#B7332E"/>
</linearGradient>
<linearGradient id="paint7_linear_2122_9839" x1="1086.63" y1="845.53" x2="1085.34" y2="808.139" gradientUnits="userSpaceOnUse">
<stop offset="0.0223" stop-color="#BA3B36"/>
<stop offset="0.9944" stop-color="#B7332E"/>
</linearGradient>
<linearGradient id="paint8_linear_2122_9839" x1="943.257" y1="849.725" x2="941.87" y2="809.517" gradientUnits="userSpaceOnUse">
<stop offset="0.0223" stop-color="#BA3B36"/>
<stop offset="0.9944" stop-color="#B7332E"/>
</linearGradient>
<linearGradient id="paint9_linear_2122_9839" x1="933.892" y1="750.688" x2="949.488" y2="838.375" gradientUnits="userSpaceOnUse">
<stop offset="0.0223" stop-color="#BC413D"/>
<stop offset="0.9944" stop-color="#C96662"/>
</linearGradient>
<linearGradient id="paint10_linear_2122_9839" x1="793.696" y1="784.622" x2="1069.22" y2="784.622" gradientUnits="userSpaceOnUse">
<stop offset="0.0223" stop-color="#BF4945"/>
<stop offset="0.9944" stop-color="#C96662"/>
</linearGradient>
<linearGradient id="paint11_linear_2122_9839" x1="1070.61" y1="750.874" x2="1081" y2="731.636" gradientUnits="userSpaceOnUse">
<stop offset="0.0223" stop-color="#BF4945"/>
<stop offset="0.9944" stop-color="#C96662"/>
</linearGradient>
<linearGradient id="paint12_linear_2122_9839" x1="937.144" y1="683.129" x2="937.144" y2="657.45" gradientUnits="userSpaceOnUse">
<stop offset="0.0223" stop-color="#BC413D"/>
<stop offset="0.9944" stop-color="#C96662"/>
</linearGradient>
<linearGradient id="paint13_linear_2122_9839" x1="935.317" y1="778.409" x2="942.926" y2="682.981" gradientUnits="userSpaceOnUse">
<stop offset="0.0223" stop-color="#BC413D"/>
<stop offset="0.9944" stop-color="#C96662"/>
</linearGradient>
<linearGradient id="paint14_linear_2122_9839" x1="898.262" y1="657.638" x2="905.395" y2="781.757" gradientUnits="userSpaceOnUse">
<stop stop-color="#FFDD23"/>
<stop offset="1"/>
</linearGradient>
<clipPath id="clip0_2122_9839">
<rect width="1920" height="1000" fill="white"/>
</clipPath>
</defs>
</svg>
