<svg width="1919" height="1000" viewBox="0 0 1919 1000" fill="none" xmlns="http://www.w3.org/2000/svg">
<g clip-path="url(#clip0_2122_9836)">
<path d="M1919 0H-2V663H1919V0Z" fill="url(#paint0_linear_2122_9836)"/>
<path opacity="0.19" d="M1027.43 523.34C1027.09 543.3 575.87 535.04 19.2502 525.46C12.8002 525.35 6.3702 525.24 -0.0498047 525.12V452.82C6.7802 452.94 13.6302 453.05 20.4902 453.17C577.11 462.75 1027.78 503.38 1027.43 523.34Z" fill="white"/>
<path d="M560.78 628.44C560.78 628.44 940.08 602.5 1444.28 600.34C1948.48 598.18 1353.94 663.05 1353.94 663.05L560.78 628.44Z" fill="url(#paint1_linear_2122_9836)"/>
<path d="M1918.97 620.15H-1.0293V999.97H1918.97V620.15Z" fill="url(#paint2_linear_2122_9836)"/>
<path d="M367.411 620.34C367.411 620.34 872.761 710.8 918.171 798.79L-1.5293 805.1L-1.4893 620.33H367.411V620.34Z" fill="url(#paint3_linear_2122_9836)"/>
<path opacity="0.19" d="M1308.2 220.08C1307.11 250.1 603.54 221.81 45.6802 201.64C30.3502 201.09 15.1102 200.52 -0.0498047 199.93V91.21C16.4002 91.76 32.9602 92.34 49.6102 92.94C607.47 113.11 1309.28 190.07 1308.2 220.08Z" fill="white"/>
<path opacity="0.19" d="M628.81 416.2C628.76 423.12 368.73 422.77 -0.0498047 420.45V389.85C368.8 397.09 628.86 409.28 628.81 416.2Z" fill="white"/>
<path d="M1918.59 821.64H-1.40918V1000H1918.59V821.64Z" fill="#C7B2AF"/>
<path d="M1918.59 799.42V825.31L1284.38 820.53L-1.41016 821.64V805.3L222.24 804.6L231.88 810.98V798.64L551.56 803.62L555.06 803.57H560.78L778.33 802.92H781.79L783.97 802.88H787.43L1000.16 802.22H1009.47L1223.93 798.64L1226.94 801.52H1236.16L1663.2 800.2H1666.65L1669.04 800.16H1669.91L1918.21 799.42H1918.59Z" fill="#FED7AC"/>
<path d="M4.83031 821.82L1.35031 821.64H1.28031L-2.19969 821.46L-4.92969 804.78L-1.44969 804.95L0.920313 805.06L4.40031 805.23L4.83031 821.82Z" fill="#FF9484"/>
<path d="M231.42 804.54L231.22 821.81L227.76 821.71H227.68L224.22 821.58L222.24 804.54H231.42Z" fill="#FF9484"/>
<path d="M560.781 803.57L560.531 821.81L557.071 821.71H556.991L553.531 821.57L551.561 803.6L555.061 803.57H560.781Z" fill="#FF9484"/>
<path d="M787.431 802.88L787.061 824.04L784.241 823.93V824.04L780.741 823.9H780.661L778.971 802.9L781.151 802.88H787.431Z" fill="#FF9484"/>
<path d="M1009.24 821.82L1005.76 821.64H1005.68L1002.2 821.46L999.62 802L1005.47 802.27V802.28L1008.95 802.45L1009.24 821.82Z" fill="#FF9484"/>
<path d="M1236.16 801.52L1235.75 824.04L1232.25 823.89V823.92L1228.71 823.78L1226.94 801.52H1236.16Z" fill="#FF9484"/>
<path d="M844.23 620.18L1371.82 648.31L1365.55 695.03L732.69 620.18H844.23Z" fill="url(#paint4_linear_2122_9836)"/>
<path d="M-1.40918 821.64L1271.32 820.53V831.41L732.691 832.72L755.001 838.67L693.091 837.74L712.811 832.72L-1.40918 830.19V821.64Z" fill="#B69C9D"/>
</g>
<defs>
<linearGradient id="paint0_linear_2122_9836" x1="955.543" y1="0.814351" x2="961.038" y2="617.13" gradientUnits="userSpaceOnUse">
<stop stop-color="#21CFC5"/>
<stop offset="1" stop-color="#ABF4CF"/>
</linearGradient>
<linearGradient id="paint1_linear_2122_9836" x1="1103.8" y1="604.058" x2="1104.31" y2="660.307" gradientUnits="userSpaceOnUse">
<stop stop-color="#85CF57"/>
<stop offset="0.2412" stop-color="#89D058"/>
<stop offset="0.4553" stop-color="#93D55C"/>
<stop offset="0.6592" stop-color="#A5DC62"/>
<stop offset="0.8555" stop-color="#BFE76B"/>
<stop offset="0.9908" stop-color="#D5F073"/>
</linearGradient>
<linearGradient id="paint2_linear_2122_9836" x1="959.024" y1="817.815" x2="957.648" y2="611.445" gradientUnits="userSpaceOnUse">
<stop stop-color="#85CF57"/>
<stop offset="0.2412" stop-color="#89D058"/>
<stop offset="0.4553" stop-color="#93D55C"/>
<stop offset="0.6592" stop-color="#A5DC62"/>
<stop offset="0.8555" stop-color="#BFE76B"/>
<stop offset="0.9908" stop-color="#D5F073"/>
</linearGradient>
<linearGradient id="paint3_linear_2122_9836" x1="457.733" y1="713.311" x2="457.086" y2="616.193" gradientUnits="userSpaceOnUse">
<stop stop-color="#85CF57"/>
<stop offset="0.2412" stop-color="#89D058"/>
<stop offset="0.4553" stop-color="#93D55C"/>
<stop offset="0.6592" stop-color="#A5DC62"/>
<stop offset="0.8555" stop-color="#BFE76B"/>
<stop offset="0.9908" stop-color="#D5F073"/>
</linearGradient>
<linearGradient id="paint4_linear_2122_9836" x1="732.69" y1="657.607" x2="1371.82" y2="657.607" gradientUnits="userSpaceOnUse">
<stop stop-color="#FFCC6E"/>
<stop offset="0.3703" stop-color="#FBC96D"/>
<stop offset="0.6985" stop-color="#F1C168"/>
<stop offset="0.9908" stop-color="#E0B461"/>
</linearGradient>
<clipPath id="clip0_2122_9836">
<rect width="1919" height="1000" fill="white"/>
</clipPath>
</defs>
</svg>
