<svg width="1919" height="1000" viewBox="0 0 1919 1000" fill="none" xmlns="http://www.w3.org/2000/svg">
<g clip-path="url(#clip0_2122_9838)">
<path d="M675.281 641.77C675.211 642.8 662.451 642.46 656.631 642.07C650.811 641.68 646.161 640.34 646.191 639.9C646.261 638.87 651.031 638.35 656.851 638.74C662.671 639.12 675.341 640.74 675.281 641.77Z" fill="#6C943A"/>
<path d="M1271.58 502.33C1271.58 502.33 1261.57 505.59 1260.79 511.14C1260.01 516.69 1263.09 529.19 1263.09 529.19C1263.09 529.19 1257.16 526.46 1253.8 529.64C1250.43 532.82 1247.33 536.5 1248.12 548.77C1248.12 548.77 1233.16 537.59 1228.73 544.69C1224.3 551.79 1233.37 561.63 1233.37 561.63C1233.37 561.63 1215 548.39 1206.65 556.2C1198.3 564.01 1201.27 583.05 1201.27 583.05C1201.27 583.05 1194.98 548.98 1183.29 552.31C1171.6 555.64 1169.54 566.56 1169.54 566.56C1169.54 566.56 1164.27 541.48 1153.28 541.34C1142.29 541.2 1132.25 553.38 1132.25 553.38C1132.25 553.38 1126.87 544.27 1120.09 547.51C1113.32 550.75 1115.24 559.98 1115.24 559.98C1115.24 559.98 1079.89 533.5 1065.5 558.07C1065.5 558.07 1051.37 549.06 1045.7 560.37C1040.03 571.68 1053.05 585.25 1053.05 585.25C1053.05 585.25 1023.62 574.15 1020.48 587.75C1017.34 601.35 1024.57 603.84 1024.57 603.84C1024.57 603.84 1007.61 600.97 1004.55 605.78C1001.48 610.59 999.711 613.67 999.711 613.67C999.711 613.67 985.511 608.23 983.461 613.17C981.411 618.1 983.941 619.84 983.941 619.84L1271.56 620.19V502.33H1271.58Z" fill="url(#paint0_radial_2122_9838)"/>
<path d="M1171.42 634.76C1175.03 634.76 1177.96 633.945 1177.96 632.94C1177.96 631.935 1175.03 631.12 1171.42 631.12C1167.81 631.12 1164.88 631.935 1164.88 632.94C1164.88 633.945 1167.81 634.76 1171.42 634.76Z" fill="#6C943A"/>
<path d="M1195.49 611.21C1192.59 612.07 1186.61 613.85 1183.67 614.72C1183.7 614.05 1183.79 612.42 1183.82 611.77C1183.69 611.75 1183.56 611.74 1183.43 611.72C1183.2 612.52 1182.72 614.16 1182.49 614.97L1179.26 616.47C1178.2 615.61 1176.07 613.87 1175.01 613.01C1175.74 613.97 1177.27 615.97 1178 616.94L1169.97 619.7L1168.66 614.23L1167 614.2L1168.31 619.78C1166.43 619.14 1159.02 616.4 1157.13 616.5L1167.61 621.12C1167.61 624.54 1167.61 628.88 1167.61 632.3H1171.7C1171.38 628.98 1170.92 624.28 1170.6 620.96C1176.47 618.65 1189.8 613.44 1195.49 611.21Z" fill="#6B4B31"/>
<path d="M1194.36 566.82C1186.6 553.65 1161.73 537.61 1163.19 564.66C1155.7 549.38 1141.06 562.27 1144.71 574.93C1137.49 560.52 1129.76 572.12 1134.21 581.58C1123.69 582.61 1116.97 593.71 1129.23 601.61C1132.34 603.53 1142.55 606.06 1136.11 598.64C1144.19 604.38 1147.85 602.57 1144.93 593.09C1149.53 600.72 1156.4 595.65 1156.58 587.4C1154.32 595.72 1168.13 596.9 1169.97 593.09C1167.41 605.59 1180.91 608.79 1183.36 598.37C1189.98 602.37 1194.56 597.07 1190.76 590.75C1195.9 595.4 1199.92 590 1198.95 585.04C1203.65 595.65 1216.42 595.69 1224.09 592.55C1224.6 586.99 1216.59 582.21 1213.38 581.31C1222.47 565.77 1204.02 563.37 1195.53 568.53C1195.53 568.53 1195.11 567.88 1194.36 566.82Z" fill="#DEB300"/>
<path d="M1206.96 593.1C1200.84 589.77 1198.95 585.05 1198.95 585.05C1199.92 590.05 1195.87 595.39 1190.76 590.76C1194.57 597.12 1189.95 602.37 1183.36 598.38C1180.93 608.79 1167.41 605.62 1169.97 593.1C1168.58 596.62 1155.07 595.94 1156.48 588.32C1155.99 596.57 1148.92 600.06 1144.93 593.1C1147.86 602.63 1144.15 604.36 1136.11 598.65C1142.56 606.06 1132.34 603.54 1129.23 601.62C1132.04 606 1141.47 607.63 1144.29 606.8C1146.7 618.13 1171.66 621.2 1176.63 609.86C1187.8 614.8 1206.86 612.45 1205.19 595.89C1210.3 598.4 1220.97 598.25 1224.09 592.57C1224.09 592.56 1213.09 596.42 1206.96 593.1Z" fill="#A58500"/>
<path d="M384.57 680.1C388.64 679.64 394.27 679.34 400.5 679.33C405.89 677.3 411.95 674.66 409.77 673.69C406.05 672.04 398.09 676.19 398.09 676.19C398.09 676.19 415.75 658.04 411.05 656.83C406.35 655.63 395.29 668.99 395.29 668.99C395.29 668.99 394.98 654.79 390.8 654.8C386.62 654.81 388 667.94 388 667.94C388 667.94 382.03 660.46 378.81 661.42C375.59 662.38 382.86 672.73 382.86 672.73C382.86 672.73 372.02 670.34 368.71 671.88C366.37 672.97 377.71 677.52 384.57 680.1Z" fill="#7C6600"/>
<path d="M389.49 681.9C389.49 681.9 387.41 681.17 384.57 680.1C380.51 680.56 378 681.2 378 681.9C378 683.32 388.24 684.47 400.88 684.47C413.52 684.47 423.76 683.32 423.76 681.9C423.76 680.48 413.52 679.33 400.88 679.33C400.75 679.33 400.63 679.33 400.5 679.33C396.68 680.77 393.18 681.9 393.18 681.9H389.49Z" fill="#6C943A"/>
<path d="M389.49 681.9H393.18C393.18 681.9 396.68 680.77 400.5 679.33C394.26 679.34 388.64 679.63 384.57 680.1C387.41 681.17 389.49 681.9 389.49 681.9Z" fill="#7C6600"/>
<path d="M756.13 694.12C774.747 694.12 789.84 692.016 789.84 689.42C789.84 686.824 774.747 684.72 756.13 684.72C737.512 684.72 722.42 686.824 722.42 689.42C722.42 692.016 737.512 694.12 756.13 694.12Z" fill="#6C943A"/>
<path d="M750.651 686.62L748.661 687.64L746.531 688.73L746.211 687.66L745.331 684.72C744.801 684.74 744.271 684.76 743.731 684.78L744.791 687.68L745.171 688.73L743.491 687.69L739.021 684.92C738.551 684.93 738.071 684.94 737.601 684.95L739.651 686.63L732.931 685.04C731.891 685.05 730.871 685.07 729.851 685.07L737.431 687.77L744.351 690.23H746.511L751.641 687.61L752.091 687.38C751.641 687.15 751.151 686.89 750.651 686.62Z" fill="#62432D"/>
<path d="M739.451 638.31C743.181 640.94 745.671 648.11 746.571 651.5C747.541 630.56 768.391 633.16 759.761 655.04C761.781 652.69 770.521 646.65 774.511 651.2C778.971 655.54 767.521 668.22 766.591 669.15C766.981 668.97 777.541 664.29 780.541 670.98C782.051 674.35 779.001 677.47 775.511 679.77C772.691 679.39 769.651 679.91 769.651 679.91C775.581 669.52 769.511 664.3 765.871 675.38C768.921 654.39 756.501 647.44 758.731 673.2C758.731 673.2 752.491 661.56 747.691 662.68C745.121 663.28 747.151 667.99 749.581 672.25C740.651 678.29 732.291 678.8 730.831 666.98C730.831 666.98 729.961 672.93 724.671 674.23V675.73C717.391 678.02 714.391 671.33 714.221 670.93C715.471 673.73 713.001 680.55 707.841 682.24C705.141 678.72 712.731 673.22 712.731 673.22C696.281 672.32 691.931 660.91 711.461 656.35C698.311 640.57 715.431 634.98 729.201 643.22C729.211 643.23 733.201 633.92 739.451 638.31Z" fill="#DEB300"/>
<path d="M721.331 685C713.141 684.55 711.861 685.42 707.841 682.24C713.231 680.42 715.411 673.55 714.221 670.91C719.151 679.41 729.091 673.2 730.831 666.99C732.301 678.85 740.691 678.26 749.581 672.26C750.971 674.62 752.131 677.16 754.111 679.29C751.571 676.68 728.091 673.41 747.141 684.66C738.181 684.97 730.671 685.22 721.331 685Z" fill="#A58500"/>
<path d="M753.5 678.42C753.87 678.95 754.11 679.29 754.11 679.29C746.03 674.73 728.65 675.37 750.66 686.62C756.09 689.68 756.89 689.91 762.12 689.66C764.72 689.25 790.17 683.03 775.52 679.76C772.7 679.39 769.65 679.9 769.65 679.9C775.58 669.52 769.52 664.28 765.87 675.37C768.92 654.38 756.5 647.43 758.73 673.19C750.47 657.69 739.32 659.14 753.5 678.42Z" fill="#7C6600"/>
<path d="M689.13 590.54L671 596.55L670.28 588.72L668.75 589.17C668.8 590.81 668.92 595.14 668.97 596.72L661.16 599.6L649.89 584.97L649.32 585.26L658.8 601.78C658.57 605.63 657.75 619.08 657.53 622.69C658.61 624.57 658.28 634.05 658.28 634.05C658.28 634.05 659.92 630.36 661.68 627.57C661.97 621.24 662.57 608.26 662.87 601.78C667.13 600.35 688.45 593.22 693.16 591.64L720.01 588.87C719.76 588.49 719.55 588.09 719.36 587.67L693.5 590.15C693.5 590.15 705.69 579.92 705.75 579.51L690.86 589.65L692.01 582.07C691.28 581.58 691.06 580.97 690.35 580.71C690.41 581.33 690.46 582.27 690.38 583.25L690.48 583.34L689.13 590.54Z" fill="#6B4B31"/>
<path d="M728.23 560.34C730.55 560.13 727.75 556.06 727.66 555.09C740.89 555.05 753.26 562.37 734.38 571.54C746.96 574.31 736.19 586.59 729.05 585.53C732.77 597.38 713.37 595.62 715.73 585.34C708.67 586.99 707.06 580.13 707.06 580.13C699.58 582.97 693.411 585.47 690.271 579.99C691.961 585.9 670.39 584.13 669.79 571.71C670.02 578.81 661.71 582.42 655.81 580.96C654.9 587.38 642.01 586.22 640.14 581.75C627.4 591.01 622.93 580.3 632.64 571.71C635.86 574.68 647.41 575.68 646.86 567.41C648.05 574.04 659.86 573.42 661.16 567.41C662.4 571.54 670.12 571.93 671.3 567.41C679.49 573.57 678.78 561.43 676.93 556.58C676.99 560.98 686.46 564.43 688.08 561.31C686.36 565.32 688.601 576.64 695.211 567.65C696.951 570.74 695.861 572.27 700.711 572.75L707.75 562.85C713.01 563.17 723.25 562.11 728.23 560.34Z" fill="#71AC2F"/>
<path d="M661.571 590.25C662.581 590.83 664.101 590.2 664.101 590.2C663.671 592.73 665.931 591.84 666.021 590.01C665.581 592.33 668.481 592.4 669.031 590.69C668.591 592.36 670.551 591.86 670.861 591.07C670.861 591.07 670.911 591.96 671.851 591.79C672.721 591.61 672.031 589.51 671.901 589.12C672.561 590.65 673.901 589.17 673.461 588.25C676.561 589.47 678.501 584.85 673.441 586.73C673.551 581.38 668.841 583.32 668.741 586.39C669.001 582.95 664.391 581.92 664.421 585.75C662.351 585.56 664.021 587.59 664.421 587.83C663.431 587.84 661.641 588.12 660.761 588.85C660.741 588.89 660.581 589.68 661.571 590.25Z" fill="#81C436"/>
<path d="M666.17 594.53C667.32 594.31 667.51 593.49 667.41 592.7C670.24 595.9 676.96 593.87 674.36 590C675.91 589.88 679.38 587.99 676.29 586.43C677.81 587.65 673.671 589.1 673.451 588.25C673.871 589.12 672.62 590.63 671.91 589.18C672.03 589.55 672.701 591.64 671.841 591.79C670.901 591.96 670.85 591.07 670.85 591.07C670.54 591.86 668.581 592.35 669.021 590.69C668.471 592.39 665.591 592.34 666.011 590.04C665.901 591.88 663.661 592.71 664.091 590.21C663.511 590.73 660.38 590.56 660.74 588.86C658.92 589.72 661.201 591.59 662.381 592.04C661.941 593.75 664.6 594.86 666.17 594.53Z" fill="#71AC2F"/>
<path d="M657.1 622.36C655.56 621.91 654.41 636.3 654.41 636.3C651.49 615.57 647.48 621.24 653.58 638.29C653.87 639.11 654.57 639.72 655.43 639.92C656.26 640.11 657.24 640.32 657.73 640.37C659.01 640.49 662.29 640.36 663.73 640.29C664.19 640.27 664.62 640.11 664.99 639.84C668.16 637.48 677.85 629.99 676.11 629.71C674.26 629.15 666.27 635.7 666.27 635.7C667.78 633.99 667.67 633.42 665.43 633.29C667.62 615.59 660.46 629.11 658.28 634.05C658.1 633.95 659.38 623.02 657.1 622.36Z" fill="#71AC2F"/>
<path d="M650.54 639.36H652.14C650.81 636.79 643.68 623.38 647.01 633.64C647.01 633.64 640.72 630.42 640.55 631.35C640.17 633.49 646.4 637.77 646.4 637.77C646.4 637.77 640.67 636.37 641 637.47C641.68 639.81 649.64 639.37 650.54 639.36Z" fill="#71AC2F"/>
<path d="M695.21 569.02C694.55 578.92 710.57 573.11 707.88 567.01C709.77 567.54 726.22 570.62 727.45 563.75C727.61 562.86 726.82 561.33 726.82 561.33C726.82 561.33 731.02 562.55 731.56 559.14C732.54 552.9 729.77 552.31 730.3 552.03C730.63 551.86 736.41 549.48 736.78 546.47C737.16 543.36 732.1 539.65 729.69 542.83C741.09 527.39 711.82 530.14 709.34 533.95C706.53 518.09 687.23 533.36 687.97 538.85C687.97 538.85 685.77 536.4 680.78 537C675.79 537.6 675.39 542.5 675.39 542.5C675.39 542.5 677.09 518.33 667.5 516.54C657.91 514.75 655.61 533.95 655.61 533.95C655.61 533.95 646.48 518.29 634.41 523.9C628.86 526.48 641.43 538.85 641.43 538.85C637.48 536.69 619.2 542.19 637.84 548.59C631.76 546.5 618.05 556.52 629.57 563.17C629.57 563.17 623.17 565.97 624.21 570.56C625.25 575.15 632.64 573.09 632.64 573.09C634.81 576.27 648.54 575.98 646.85 568.79C646.85 568.79 647.91 573.24 653.37 573.79C664.99 571.71 656.47 566.7 666.21 572.26C669.77 572.42 671.29 568.79 671.29 568.79C678.76 574.89 679.1 562.66 676.92 557.95C675.07 558.48 685.24 567.39 688.07 562.68C685.9 566.14 689.73 578.03 695.21 569.02Z" fill="#81C436"/>
<path d="M1157.46 686.98C1157.65 689.6 1145.68 691.61 1130.81 692.68C1115.94 693.75 1103.7 691.97 1103.62 690.85C1103.43 688.23 1115.33 685.23 1130.2 684.17C1145.07 683.11 1157.27 684.35 1157.46 686.98Z" fill="#6C943A"/>
<path d="M1094.02 689C1095.63 690.92 1109.77 690.55 1122.46 689.78C1141.26 688.63 1150.43 687.6 1150.89 685.38C1151.51 682.34 1147.45 682.54 1147.45 682.54C1147.45 682.54 1149.74 676.57 1146.76 675.77C1143.78 674.97 1141.94 678.51 1141.94 678.51C1141.94 678.51 1140.11 661.35 1134.83 662.38C1129.55 663.41 1131.39 676.13 1131.39 676.13C1131.39 676.13 1122.45 666.94 1119.24 666.83C1116.03 666.72 1113.2 672.06 1114.73 678.9C1114.73 678.9 1104.57 666.72 1100.9 668.09C1097.23 669.46 1099.52 682.08 1099.52 682.08C1099.52 682.08 1089.62 683.75 1094.02 689Z" fill="#71AC2F"/>
<path d="M279.239 354.352L322.23 336L381 375.285V620H276L279.239 354.352Z" fill="#7CD8BE"/>
<path d="M-1.5293 579.67C-1.5293 579.67 20.0707 572.33 29.5507 577.36C33.8207 579.63 35.6207 581.86 35.6207 581.86C35.6207 581.86 36.8907 572.1 44.5707 568.04C48.2507 566.09 55.4207 565.37 61.9307 572.11C61.9307 572.11 58.9307 557.77 67.8207 553.73C74.3707 550.76 81.4207 555.92 84.4507 561.12C84.4507 561.12 93.3607 551.8 105.551 563.65C105.551 563.65 123.971 551.28 130.411 557.27C136.851 563.26 132.891 577.88 132.891 577.88C132.891 577.88 151.521 577.33 150.231 596.28C150.231 596.28 164.641 593.3 172.711 596.1C184.941 600.35 186.821 612.23 186.821 612.23C186.821 612.23 200.681 604.97 211.141 606.81C221.601 608.65 220.921 613.53 220.921 613.53C220.921 613.53 222.591 590.4 231.581 589.55C236.651 589.07 241.021 599.04 241.021 599.04C241.021 599.04 244.331 576.23 252.721 575.94C262.331 575.61 263.551 584.97 263.551 584.97C263.551 584.97 271.401 573.05 279.191 571.37C286.981 569.69 287.821 582.98 287.821 582.98C287.821 582.98 299.751 571.51 306.891 572.78C314.031 574.05 310.961 584.67 310.961 584.67C310.961 584.67 332.091 576 334.151 592.97C334.151 592.97 353.411 585.29 359.591 596.96C362.241 601.96 358.981 613.15 358.981 613.15C358.981 613.15 377.671 608.19 380.421 613.53C380.421 613.53 393.881 604.36 407.251 607.07C422.361 610.13 426.091 621.25 426.091 621.25L-1.4893 620.34L-1.5293 579.67Z" fill="#4C5E30"/>
<path d="M1525.39 37C1525.39 37 1521.74 28.49 1502.59 28.39C1483.44 28.29 1467.88 40.2 1467.88 40.2C1467.88 40.2 1465.23 35.25 1450.93 34.62C1435.56 33.94 1422.55 48.42 1422.55 48.42C1422.55 48.42 1448.71 48.25 1458.87 46.77C1469.03 45.29 1470.67 44.85 1470.67 44.85C1470.67 44.85 1500.09 47.88 1509.28 46.04C1518.47 44.2 1519.37 41.46 1519.37 41.46C1519.37 41.46 1531.47 45.58 1541.08 46.21C1550.68 46.83 1554.96 40.44 1554.96 40.44C1554.96 40.44 1572.74 45.56 1598.81 46.36C1624.88 47.16 1628.82 46.14 1628.82 46.14L1683.02 49.77C1683.02 49.77 1678.91 40.18 1664.75 39.26C1650.59 38.34 1637.69 44.3 1637.69 44.3C1637.69 44.3 1641.08 29.73 1621.59 28.96C1602.11 28.19 1580.86 39.12 1580.86 39.12C1580.86 39.12 1589.52 19.82 1575.9 18.32C1562.28 16.82 1551.24 23.53 1551.24 23.53C1551.24 23.53 1550.27 7.34997 1536.57 7.41997C1522.88 7.47997 1525.39 37 1525.39 37Z" fill="white"/>
<path d="M1598.82 46.36C1572.75 45.56 1554.97 40.44 1554.97 40.44C1554.97 40.44 1550.7 46.83 1541.09 46.21C1531.49 45.59 1519.38 41.46 1519.38 41.46C1519.38 41.46 1518.48 44.2 1509.29 46.04C1500.1 47.88 1470.68 44.85 1470.68 44.85C1470.68 44.85 1469.04 45.29 1458.88 46.77C1448.72 48.25 1422.56 48.42 1422.56 48.42L1683.03 49.77L1628.83 46.14C1628.83 46.14 1624.89 47.16 1598.82 46.36Z" fill="#B2EBE2"/>
<path d="M615.36 188.64C615.36 188.64 626.3 183.73 628 183.73C629.7 183.73 639.51 185.43 639.51 185.43L641.96 184.86C641.96 184.86 642.34 185.8 644.04 186.18C645.74 186.56 650.45 182.41 652.72 182.6C654.98 182.79 661.4 186.37 661.4 186.37C661.4 186.37 654.23 185.8 651.97 185.62C649.71 185.43 646.5 188.64 646.5 188.64L648.01 189.77C648.01 189.77 632.73 186.56 627.44 186.19C622.15 185.81 615.36 188.64 615.36 188.64Z" fill="url(#paint1_linear_2122_9838)"/>
</g>
<defs>
<radialGradient id="paint0_radial_2122_9838" cx="0" cy="0" r="1" gradientUnits="userSpaceOnUse" gradientTransform="translate(1058.14 568.822) scale(180.113)">
<stop stop-color="#4C5E30"/>
<stop offset="1" stop-color="#404F28"/>
</radialGradient>
<linearGradient id="paint1_linear_2122_9838" x1="650.009" y1="159.947" x2="625.555" y2="217.911" gradientUnits="userSpaceOnUse">
<stop offset="0.0223" stop-color="#B3AEB0"/>
<stop offset="0.9944" stop-color="#917471"/>
</linearGradient>
<clipPath id="clip0_2122_9838">
<rect width="1919" height="1000" fill="white"/>
</clipPath>
</defs>
</svg>
