<svg width="1920" height="1000" fill="none" xmlns="http://www.w3.org/2000/svg"><g clip-path="url(#clip0_2287_6003)"><path d="M1920 0H0v1000h1920V0z" fill="url(#paint0_linear_2287_6003)"/><path d="M1920 822H0v178h1920V822z" fill="url(#paint1_linear_2287_6003)"/><path d="M1920 803H0v17h1920v-17z" fill="#FFF7EE" fill-opacity=".05"/><path d="M1920 805H0v17h1920v-17z" fill="#3C3750"/><path d="M1920 822H0v11h1920v-11z" fill="#892765" opacity=".3"/><g opacity=".5" fill-rule="evenodd" clip-rule="evenodd"><path d="M3865.45 919.33L-71.01 939.99l-.04-3.29 3905.35-22.48 31.15 5.11z" fill="url(#paint2_radial_2287_6003)" opacity=".5"/><path d="M3859.88 891.79l-3878.44 6.04 10.49-3.01 3859.98-4.75 7.97 1.72z" fill="url(#paint3_radial_2287_6003)" opacity=".5"/><path d="M3849.53 863.3l-3864.62 4.79 5.16-1.49 3856.55-4.06 2.91.76z" fill="url(#paint4_radial_2287_6003)" opacity=".5"/><path d="M3849.36 969.9l-1979.02 10.24-1873.25.14.02 8.79 3852.25-11.66v-7.51z" fill="url(#paint5_radial_2287_6003)" opacity=".5"/><path d="M3854.3 841.29l-3862.27.17 3856.41-1.68 5.86 1.51z" fill="url(#paint6_radial_2287_6003)" opacity=".5"/></g><path opacity=".05" fill-rule="evenodd" clip-rule="evenodd" d="M799.681 893.06h285.529l63.25-27.19-307.859.55-92.98 26.73 52.06-.09z" fill="url(#paint7_linear_2287_6003)"/><path fill-rule="evenodd" clip-rule="evenodd" d="M2643.95 999.98l-30.88-20.5-1019.21 4.731-24.73 15.769h1074.82z" fill="url(#paint8_linear_2287_6003)" opacity=".2"/><path fill-rule="evenodd" clip-rule="evenodd" d="M-481.359 980.28h826.04l78.8-37.88-634.06-2.02-270.7 2.02-.08 37.88z" fill="url(#paint9_linear_2287_6003)" opacity=".2"/><path fill-rule="evenodd" clip-rule="evenodd" d="M3840 0l-.58 78.96S2399.93 42.87 1920 43.99C1473.91 45.04 136.09 84.86 136.09 84.86L113.9 550.94.58 87.96 0 0h3840z" fill="url(#paint10_linear_2287_6003)" opacity=".2"/><g opacity=".1"><path opacity=".14" fill-rule="evenodd" clip-rule="evenodd" d="M511.59 637.94l-238.88 79.71-78.29-544.01 313.62 43.58 3.55 420.72z" fill="#fff"/><path opacity=".14" fill-rule="evenodd" clip-rule="evenodd" d="M651.69 726.16l-39.9 37.21 34.17-443.17 57.78 27.51-52.05 378.45z" fill="#29ABE2"/><path opacity=".14" fill-rule="evenodd" clip-rule="evenodd" d="M998.2 473.44H847.45l-52.71-330.28 249.77 27.51-46.31 302.77z" fill="#F2F2F2"/><path opacity=".14" d="M681.519 493.61l-147.14-33.74-21.77-361.83 168.91 38.17v357.4zM45.51 605.47l136.21 26.46-53.66-507.25H18l27.51 480.79z" fill="#F2F2F2"/><path opacity=".14" fill-rule="evenodd" clip-rule="evenodd" d="M1314.8 722.84l-125.08-34.56V489.79h108.68l16.4 233.05zm-593.4-63.76l163.23-28.75 2.96-76.63H749.97L721.4 659.08z" fill="#fff"/><path opacity=".14" d="M1830.84 605.63l136.21 26.45-53.66-507.25h-110.06l27.51 480.8z" fill="#F2F2F2"/><path opacity=".14" d="M1353.26 383.98l-92.83-.71V173.64h141.58l-48.75 210.34z" fill="#29ABE2"/><path opacity=".14" d="M1562.06 98.04l47.69 36.59-19.26 171.92-38.21 15.28 9.78-223.79z" fill="#fff"/><path opacity=".14" d="M1471.35 410.19l-47.69-36.59 19.26-171.92 38.21-15.28-9.78 223.79zm258.97 333.79L1612 644.29l19.37-524.67 77.17-21.67 21.78 646.03z" fill="#F2F2F2"/></g></g><defs><linearGradient id="paint0_linear_2287_6003" x1=".002" y1="500" x2="1920" y2="500" gradientUnits="userSpaceOnUse"><stop stop-color="#13111B"/><stop offset="1" stop-color="#302B44"/></linearGradient><linearGradient id="paint1_linear_2287_6003" x1=".002" y1="911" x2="1920" y2="911" gradientUnits="userSpaceOnUse"><stop stop-color="#302B41"/><stop offset="1" stop-color="#2B273D"/></linearGradient><linearGradient id="paint7_linear_2287_6003" x1="747.618" y1="879.511" x2="1148.46" y2="879.511" gradientUnits="userSpaceOnUse"><stop/><stop offset="1"/></linearGradient><linearGradient id="paint8_linear_2287_6003" x1="1569.13" y1="989.733" x2="2643.95" y2="989.733" gradientUnits="userSpaceOnUse"><stop stop-color="#890041"/><stop offset="1" stop-color="#CCB8B8"/></linearGradient><linearGradient id="paint9_linear_2287_6003" x1="-481.357" y1="960.327" x2="423.484" y2="960.327" gradientUnits="userSpaceOnUse"><stop stop-color="#890041"/><stop offset="1" stop-color="#CCB8B8"/></linearGradient><linearGradient id="paint10_linear_2287_6003" x1="1920" y1="550.936" x2="1920" y2="0" gradientUnits="userSpaceOnUse"><stop stop-color="#A48495"/><stop offset="1" stop-color="#8B2C8D"/></linearGradient><radialGradient id="paint2_radial_2287_6003" cx="0" cy="0" r="1" gradientUnits="userSpaceOnUse" gradientTransform="translate(1897.2 927.106) scale(1391.79)"><stop stop-color="#E9D8D2"/><stop offset=".397" stop-color="#E8D6D0"/><stop offset=".594" stop-color="#E6D0C8"/><stop offset=".746" stop-color="#E3C6BB"/><stop offset=".875" stop-color="#DDB7A8"/><stop offset=".99" stop-color="#D7A491"/><stop offset="1" stop-color="#D6A28E"/></radialGradient><radialGradient id="paint3_radial_2287_6003" cx="0" cy="0" r="1" gradientUnits="userSpaceOnUse" gradientTransform="translate(1920.66 893.952) scale(1371.24)"><stop stop-color="#E9D8D2"/><stop offset=".397" stop-color="#E8D6D0"/><stop offset=".594" stop-color="#E6D0C8"/><stop offset=".746" stop-color="#E3C6BB"/><stop offset=".875" stop-color="#DDB7A8"/><stop offset=".99" stop-color="#D7A491"/><stop offset="1" stop-color="#D6A28E"/></radialGradient><radialGradient id="paint4_radial_2287_6003" cx="0" cy="0" r="1" gradientUnits="userSpaceOnUse" gradientTransform="matrix(1366.35 0 0 1366.36 1917.22 865.317)"><stop stop-color="#E9D8D2"/><stop offset=".397" stop-color="#E8D6D0"/><stop offset=".594" stop-color="#E6D0C8"/><stop offset=".746" stop-color="#E3C6BB"/><stop offset=".875" stop-color="#DDB7A8"/><stop offset=".99" stop-color="#D7A491"/><stop offset="1" stop-color="#D6A28E"/></radialGradient><radialGradient id="paint5_radial_2287_6003" cx="0" cy="0" r="1" gradientUnits="userSpaceOnUse" gradientTransform="matrix(1362 0 0 1362 1923.22 979.485)"><stop stop-color="#E9D8D2"/><stop offset=".397" stop-color="#E8D6D0"/><stop offset=".594" stop-color="#E6D0C8"/><stop offset=".746" stop-color="#E3C6BB"/><stop offset=".875" stop-color="#DDB7A8"/><stop offset=".99" stop-color="#D7A491"/><stop offset="1" stop-color="#D6A28E"/></radialGradient><radialGradient id="paint6_radial_2287_6003" cx="0" cy="0" r="1" gradientUnits="userSpaceOnUse" gradientTransform="matrix(1365.52 0 0 1365.51 1923.16 840.617)"><stop stop-color="#E9D8D2"/><stop offset=".397" stop-color="#E8D6D0"/><stop offset=".594" stop-color="#E6D0C8"/><stop offset=".746" stop-color="#E3C6BB"/><stop offset=".875" stop-color="#DDB7A8"/><stop offset=".99" stop-color="#D7A491"/><stop offset="1" stop-color="#D6A28E"/></radialGradient><clipPath id="clip0_2287_6003"><path fill="#fff" d="M0 0h1920v1000H0z"/></clipPath></defs></svg>