<svg width="1920" height="1000" fill="none" xmlns="http://www.w3.org/2000/svg"><path opacity=".15" d="M1531.26 923.13c0 22.44-38.29 22.28-85.22 22.28s-84.73.16-84.73-22.28 49.35-49.17 96.28-49.17 73.67 26.73 73.67 49.17z" fill="url(#paint0_linear_2287_6002)"/><path fill-rule="evenodd" clip-rule="evenodd" d="M1385.64 747.14v-39.41h30.28v39.76l-30.28-.35z" fill="url(#paint1_linear_2287_6002)"/><path fill-rule="evenodd" clip-rule="evenodd" d="M1388.79 715.69l24.76-1.47-1.36 28.95h-23.4v-27.48z" fill="url(#paint2_linear_2287_6002)"/><path d="M1418.13 697.34h-34.7v10.39h34.7v-10.39z" fill="url(#paint3_linear_2287_6002)"/><path fill-rule="evenodd" clip-rule="evenodd" d="M1405.92 707.73l1.01 37.95h8.15l.84-37.95h-10zm-19.44 38.46l.21-33.75h4.03l-.67 33.75h-3.57z" fill="#fff" fill-opacity=".25"/><path opacity=".5" fill-rule="evenodd" clip-rule="evenodd" d="M1385.64 712.44l30.28-2.02v-2.69h-30.28v4.71z" fill="#AF1140"/><path fill-rule="evenodd" clip-rule="evenodd" d="M1363.18 786.8l11.85 135.22h4.55l-2.24-135.22h-14.16zm107.49 1l-9.32 138.57h-4.18V787.8h13.5z" fill="#FB8F7D"/><path fill-rule="evenodd" clip-rule="evenodd" d="M1457.17 787.8h-8.73l5.31 137.24 3.42 1.33V787.8zm-93.99-1l-8.61-.24 16.8 135.46h3.66l-11.85-135.22z" fill="#E74C44"/><path fill-rule="evenodd" clip-rule="evenodd" d="M1393.92 747.98l151.59-.5-1.28 13.33-150.31-1.78v-11.05z" fill="#F7FBB6"/><path fill-rule="evenodd" clip-rule="evenodd" d="M1405.66 759.18l2.55 28.62h125.16l2.3-27.08-130.01-1.54z" fill="#FBC0B7"/><path fill-rule="evenodd" clip-rule="evenodd" d="M1393.92 747.98H1336l1.95 10.08 55.97.97v-11.05z" fill="#E8564D"/><path fill-rule="evenodd" clip-rule="evenodd" d="M1408.21 787.8l-53.61-.76-5.66-28.78 56.72.92 2.55 28.62z" fill="#E74C44"/><path fill-rule="evenodd" clip-rule="evenodd" d="M1408.21 787.8l7.69 135.22h5.33l3.55-135.22h-16.57zm125.16 0l-14.42 138.57h-4.88l3.51-138.57h15.79z" fill="#FBC0B7"/><path fill-rule="evenodd" clip-rule="evenodd" d="M1517.58 787.8h-10.21l2.7 137.24 4 1.33 3.51-138.57zm-109.37 0l-10.07-.24 13.48 135.46h4.28l-7.69-135.22z" fill="#E74C44"/><path opacity=".3" fill-rule="evenodd" clip-rule="evenodd" d="M1367.6 837.22l10.44-8.57-.69-41.29-14.14-.2 4.39 50.06zm100.53-11.66l-10.96 5.32V787.8h13.5l-2.54 37.76zm-61.11-52.53l128.26-7.64.39-4.67-130.01-1.54 1.36 13.85z" fill="#AF1140"/><path fill-rule="evenodd" clip-rule="evenodd" d="M1457.17 747.48l2.76 10.78v-8.53l2.33 4.41 19.08 2.92 10.9-9.58h-35.07z" fill="#FBB000"/><path fill-rule="evenodd" clip-rule="evenodd" d="M1438.29 778.37l-1.67 6.33 6.33-3.17 3.33-5.16-7.99 2z" fill="#CD0B0B"/><path fill-rule="evenodd" clip-rule="evenodd" d="M1534.59 773.49l-8.72 31.63v15.08l4.96-8.01-7.11 31.05 2.62 12.17 8.25-81.92z" fill="#FB3F48"/><path fill-rule="evenodd" clip-rule="evenodd" d="M1498.34 747.98v8.08l2.89 2.2 11.25-6.2 2.96.81 11.76-2.58-3.48 3.85h3.48l13.32-6.65-42.18.49zm-90.13 47.04l8.29-4.66 5.32 10.99-9.17 11.91-3.12-2.29-1.32-15.95z" fill="#9143D4"/><path fill-rule="evenodd" clip-rule="evenodd" d="M1405.66 796.24l-2.12 3.11 3.48 9.99 2.51 1.63-1.32-15.95-2.55 1.22z" fill="#6A19AA"/><path fill-rule="evenodd" clip-rule="evenodd" d="M1415.02 825.1v-4.88l2.95-2.44.89 3.66-3.84 3.66z" fill="#9143D4"/><path fill-rule="evenodd" clip-rule="evenodd" d="M1523.72 809.34l.99-5.49 4.44-13.49v-12.82l-8.61 15.9v7.74l3.18-1.5-1.68 5.66 1.68 4z" fill="#FB8D00"/><path fill-rule="evenodd" clip-rule="evenodd" d="M1425.12 742.21v-54.76l9.02-10.98 31.81-.87 10.47 11.85-1.64 55.66-5.02 4.87-39.52-.25-5.12-5.52z" fill="url(#paint4_linear_2287_6002)"/><path fill-rule="evenodd" clip-rule="evenodd" d="M1434.14 676.47l-1.17-4.62h34.41l-1.43 3.75-31.81.87z" fill="url(#paint5_radial_2287_6002)"/><path fill-rule="evenodd" clip-rule="evenodd" d="M1430.17 674.16h40.05l1.96-8.15-44.29.63 2.28 7.52z" fill="url(#paint6_radial_2287_6002)"/><path opacity=".3" fill-rule="evenodd" clip-rule="evenodd" d="M1427.89 704.38l44.29-1.25v37.37l-3.12 3.71h-36.09l-5.08-3.03v-36.8z" fill="#AF1140"/><path opacity=".5" fill-rule="evenodd" clip-rule="evenodd" d="M1427.89 666.64l2.28 7.52h3.38l.59 2.31-9.02 10.98v29.16h4.51l1.38-24.26 1.96-.73v10.34l1.17 1.17.93-18.64 2.02.81-.96 20.18 7.36.6 1.51-27.66h2.19v5h2.84v-9.26h2.21l.84-8.15-25.19.63z" fill="url(#paint7_linear_2287_6002)"/><path opacity=".5" fill-rule="evenodd" clip-rule="evenodd" d="M1447.36 666.15l.42 7.64 2.25.37 2.21 11.83.84 28.01h.92l.68-25.24 1.09-.34.76 30.29 4.37-.67.59-30.71-6.65-11.43.25-1.74h2.11l.39-7.95-10.23-.06z" fill="url(#paint8_linear_2287_6002)"/><path opacity=".5" fill-rule="evenodd" clip-rule="evenodd" d="M1457.59 666.21l-.39 7.95h-2.11v2.18l8.54 10.99v26.25h1.98l1.77-24.23h1.43l-.59 23.23 6.56-.79 1.64-24.34-10.47-11.85.55-1.44h3.72l1.96-8.15-14.59.2z" fill="url(#paint9_linear_2287_6002)"/><path fill-rule="evenodd" clip-rule="evenodd" d="M1455.09 678.42l2.53 10 14.56-.15-8.55-9.85h-8.54zm2.5 11.65v55.48h12.48l2.86-54.01-15.34-1.47z" fill="#fff" fill-opacity=".25"/><path fill-rule="evenodd" clip-rule="evenodd" d="M1439.1 666.48l-13.98-41.49 2.58-1.01 15.28 42.4-3.88.1zm16.72-.33l5.02-27.38h3.8l-3.8 27.38h-5.02z" fill="#A21528"/><defs><linearGradient id="paint0_linear_2287_6002" x1="1361.31" y1="909.687" x2="1531.26" y2="909.687" gradientUnits="userSpaceOnUse"><stop/><stop offset="1"/></linearGradient><linearGradient id="paint1_linear_2287_6002" x1="1400.78" y1="747.492" x2="1400.78" y2="707.729" gradientUnits="userSpaceOnUse"><stop offset=".017" stop-color="#FB9F8B"/><stop offset="1" stop-color="#FBD1BD"/></linearGradient><linearGradient id="paint2_linear_2287_6002" x1="1388.79" y1="728.695" x2="1413.55" y2="728.695" gradientUnits="userSpaceOnUse"><stop offset=".002" stop-color="#DC0046"/><stop offset="1" stop-color="#FB1919"/></linearGradient><linearGradient id="paint3_linear_2287_6002" x1="1383.43" y1="702.534" x2="1418.13" y2="702.534" gradientUnits="userSpaceOnUse"><stop offset=".002" stop-color="#DC0046"/><stop offset="1" stop-color="#FB1919"/></linearGradient><linearGradient id="paint4_linear_2287_6002" x1="1450.77" y1="747.983" x2="1450.77" y2="675.597" gradientUnits="userSpaceOnUse"><stop offset=".017" stop-color="#FB9F8B"/><stop offset="1" stop-color="#FBD1BD"/></linearGradient><linearGradient id="paint7_linear_2287_6002" x1="1439.1" y1="716.61" x2="1439.1" y2="666.006" gradientUnits="userSpaceOnUse"><stop stop-color="#fff"/><stop offset="1" stop-color="#FB2E39"/></linearGradient><linearGradient id="paint8_linear_2287_6002" x1="1454.42" y1="718.713" x2="1454.42" y2="666.149" gradientUnits="userSpaceOnUse"><stop stop-color="#fff"/><stop offset="1" stop-color="#FBCA00"/></linearGradient><linearGradient id="paint9_linear_2287_6002" x1="1465.75" y1="713.582" x2="1465.75" y2="666.006" gradientUnits="userSpaceOnUse"><stop stop-color="#fff"/><stop offset="1" stop-color="#8000CB"/></linearGradient><radialGradient id="paint5_radial_2287_6002" cx="0" cy="0" r="1" gradientUnits="userSpaceOnUse" gradientTransform="translate(1450.18 674.162) scale(12.2747)"><stop stop-color="#FBD1BD"/><stop offset=".983" stop-color="#FB9F8B"/></radialGradient><radialGradient id="paint6_radial_2287_6002" cx="0" cy="0" r="1" gradientUnits="userSpaceOnUse" gradientTransform="matrix(16.0115 0 0 13.7567 1450.03 670.084)"><stop stop-color="#FBD1BD"/><stop offset=".983" stop-color="#FBBAAD"/></radialGradient></defs></svg>