<svg width="1920" height="1000" fill="none" xmlns="http://www.w3.org/2000/svg"><path fill-rule="evenodd" clip-rule="evenodd" d="M1045 150l7.79 373.66h650.2l7.79-373.66H1045z" fill="url(#paint0_linear_2287_6000)" opacity=".2"/><path fill-rule="evenodd" clip-rule="evenodd" d="M1719.78 150l-7.79 363.66-12.52-15.76 1.92-332.14 18.39-15.76z" fill="#6C1E13"/><path fill-rule="evenodd" clip-rule="evenodd" d="M1719.78 150l-18.39 15.76-629 2.24-18.39-18h665.78z" fill="#661411"/><path fill-rule="evenodd" clip-rule="evenodd" d="M1074.11 495.67l-12.32 17.99L1054 150l18.39 18 1.72 327.67z" fill="#601E15"/><path fill-rule="evenodd" clip-rule="evenodd" d="M1711.99 513.66h-650.2l12.32-17.99 625.36 2.23 12.52 15.76z" fill="#3F1515"/><path fill-rule="evenodd" clip-rule="evenodd" d="M1054 150l7.79 363.66h650.2l7.79-363.66H1054zm653.86 358.41l-642.31-.12-6.44-353.29h655.56l-6.81 353.41z" fill="#8D3E27"/><path fill-rule="evenodd" clip-rule="evenodd" d="M1701.39 165.76l-1.92 332.14-625.36-2.23-1.72-327.67 629-2.24z" fill="url(#paint1_radial_2287_6000)"/><path d="M1386.5 329.645v87.59l-44.75-43.795 36.26-35.482 8.49-8.313zm20.58 67.452V266.128l66.92 65.484-66.92 65.485zM1386.51 246v59.31l-57.2 55.958-30.31-29.655 79.01-77.3 8.5-8.313z" fill="#fff"/><defs><radialGradient id="paint1_radial_2287_6000" cx="0" cy="0" r="1" gradientUnits="userSpaceOnUse" gradientTransform="rotate(-24.416 1427.907 -3044.983) scale(345.939)"><stop stop-color="#2D2D2D"/><stop offset="1" stop-color="#0D0D0D"/></radialGradient><linearGradient id="paint0_linear_2287_6000" x1="1045" y1="336.833" x2="1710.78" y2="336.833" gradientUnits="userSpaceOnUse"><stop stop-color="#A48495"/><stop offset="1" stop-color="#8B2C8D"/></linearGradient></defs></svg>