<svg width="1920" height="1000" fill="none" xmlns="http://www.w3.org/2000/svg"><path opacity=".25" fill-rule="evenodd" clip-rule="evenodd" d="M1246.8 682.21l-8.8.41-20.7 1-11.13.54-9.63.46-7.89.38-7.74.38-30.18 1.44-3.34.17-2.69.13-1.15.06 1.63-63.64h-144.51l2.35-63.31H769l10.68 287.66 34.71 14.59h266.56l.32-9.58h35.91l2.86 10.29h157.16l1.67-49.67.81-24.49 2.73-81.34.21-6.52.7-20.74-36.52 1.78zM829.95 825.79l-1.2-95.27h138.6l2.44 95.27H829.95zM975.47 809l-.93-78.49h2.38L975.47 809zm1.8-96.91h-2.94l-.95-80.14h5.37l-1.48 80.14zm1.64-88.54H964.6l2.27 88.54H809.36l3.8 113.69h-16.28l-4.53-243.44h187.32l-.76 41.21zm86.63 220.94l.01.01h-73.08v-.01l.01-.42 4.22-113.56h69.91l-1.43 113.56.36.42zm70.19-156.93l-15.68.77V844.5h-38.5v-.01l4.44-132.4h-88.61l2.98-80.14h136.03l-.66 55.61z" fill="url(#paint0_linear_2287_6001)"/><g opacity=".2"><g opacity=".2"><path opacity=".2" fill-rule="evenodd" clip-rule="evenodd" d="M794.08 837.87H721v-.01h73.07l.01.01z" fill="url(#paint1_linear_2287_6001)"/><path opacity=".2" d="M848.58 837.86h-38.5v.01h38.5v-.01z" fill="url(#paint2_linear_2287_6001)"/></g><path opacity=".2" fill-rule="evenodd" clip-rule="evenodd" d="M794.08 837.87H721v-.01l.01-.43h72.7l.36.43.01.01z" fill="url(#paint3_linear_2287_6001)"/></g><path fill-rule="evenodd" clip-rule="evenodd" d="M770.391 548l10.68 292.94h212.67L1004.42 548H770.391zm206.17 270.43h-178.29l-4.53-247.91h187.33l-4.51 247.91z" fill="#A62738"/><path d="M998.41 551.92l-17.34 18.6H793.74l-17.32-18.6h221.99z" fill="#7E0C19"/><path fill-rule="evenodd" clip-rule="evenodd" d="M989.511 836.37h-202.96l11.91-17.94h178.38l12.67 17.94z" fill="#D35B41"/><path fill-rule="evenodd" clip-rule="evenodd" d="M965.99 612.48l5.89 233.57h168.8l5.89-233.57H965.99zm169.29 225.01H977.29l-2.51-216.45h163.01l-2.51 216.45z" fill="#682738"/><path fill-rule="evenodd" clip-rule="evenodd" d="M1143.62 614.76l-5.83 6.28H974.78l-5.83-6.28h174.67z" fill="#4F0C19"/><path fill-rule="evenodd" clip-rule="evenodd" d="M1138.34 843.75H974.391l2.9-6.27h158.159l2.89 6.27z" fill="#B54841"/><path fill-rule="evenodd" clip-rule="evenodd" d="M1082.35 855.8H815.791l6.76-8.04 252.429-.72 7.37 8.76z" fill="#EE711D"/><path fill-rule="evenodd" clip-rule="evenodd" d="M1087.39 702.65l-5.04 153.15-7.37-8.76h.17l2.15-134.62 10.09-9.77z" fill="#F47D29"/><path fill-rule="evenodd" clip-rule="evenodd" d="M1087.39 702.65l-10.09 9.77-256.849-.39-9.69-9.38h276.629z" fill="#FFC24A"/><path fill-rule="evenodd" clip-rule="evenodd" d="M822.551 847.76l-6.76 8.04-5.03-153.15 9.69 9.38 2.1 135.73z" fill="#FF9A3E"/><path fill-rule="evenodd" clip-rule="evenodd" d="M1074.98 847.04l-252.429.72 9.02-10.72h235.009l8.4 10z" fill="#FFC24A"/><path fill-rule="evenodd" clip-rule="evenodd" d="M1077.3 712.42l-2.15 134.62h-.17l-8.4-10 1.42-115.63 9.3-8.99z" fill="#FF9A3E"/><path fill-rule="evenodd" clip-rule="evenodd" d="M1077.3 712.42l-9.3 8.99H830.151l-9.7-9.38 256.849.39z" fill="#EE711D"/><path fill-rule="evenodd" clip-rule="evenodd" d="M831.571 837.04l-9.02 10.72-2.1-135.73 9.7 9.38 1.42 115.63z" fill="#F47D29"/><path fill-rule="evenodd" clip-rule="evenodd" d="M1284.72 670.42l-.7 21.12-.22 6.64-2.72 82.83-.82 24.94-1.66 50.58h-157.16V678.45l19.5-.97 2.68-.12 2.48-.13 2.68-.14 3.34-.16 30.18-1.47 7.75-.39 7.89-.39 9.63-.47 11.13-.56 20.7-1.01 8.79-.42 36.53-1.8z" fill="#F46D38"/><path fill-rule="evenodd" clip-rule="evenodd" d="M1118.77 681.23l2.67-2.79v178.09l-2.87-2.86.2-172.44z" fill="#A62024"/><path fill-rule="evenodd" clip-rule="evenodd" d="M1191.03 856.53h-38.91v-179.6l30.18-1.47 8.73 181.07zm22.97 0h-10.32l-13.63-181.46 7.89-.39L1214 856.53zm-70.38-179.17v179.17h-2.68V677.48l2.68-.12zm137.46 103.65l-.81 24.94c-25.74-21.26-69.68-66.83-72.69-131.74l11.13-.55c4.72 22.05 19.53 70.5 62.37 107.35zm2.94-89.47l-.21 6.64c-24.86-6.18-38.24-18.19-44.4-25.54l8.79-.43c10.91 10.75 25.22 16.42 35.82 19.33z" fill="#EA6133"/><path opacity=".57" fill-rule="evenodd" clip-rule="evenodd" d="M1138.34 726.62l10.63 64.23h9.18l4.59-69.44-24.4 5.21z" fill="#DC72B5"/><path opacity=".57" fill-rule="evenodd" clip-rule="evenodd" d="M1173.9 702.77l45.31-13.88 5.74 72.19-13.27 5.41-7.67-48.18 5.74 78.86-21.03 3.45-14.82-97.85z" fill="#FFC24A"/><path fill-rule="evenodd" clip-rule="evenodd" d="M1238.35 790.94l8.13-20.06v5.63l11.11-13.04 11.85 5.56-15.55 44.44-8.89-7.33-6.65 3.26-2.24-11.85 2.24-6.61z" fill="#C00"/><path fill-rule="evenodd" clip-rule="evenodd" d="M1202.96 836.42l23.52-21.91 13.16-1.78-3.42 13.39-17.23 16.42-4.87-3.37-9.4 2.52-1.76-5.27z" fill="#D13E00"/><defs><linearGradient id="paint0_linear_2287_6001" x1="768.997" y1="711.719" x2="1283.32" y2="711.719" gradientUnits="userSpaceOnUse"><stop/><stop offset="1"/></linearGradient><linearGradient id="paint1_linear_2287_6001" x1="720.997" y1="837.864" x2="794.077" y2="837.864" gradientUnits="userSpaceOnUse"><stop stop-color="#A48495"/><stop offset="1" stop-color="#8B2C8D"/></linearGradient><linearGradient id="paint2_linear_2287_6001" x1="810.077" y1="837.864" x2="848.577" y2="837.864" gradientUnits="userSpaceOnUse"><stop stop-color="#A48495"/><stop offset="1" stop-color="#8B2C8D"/></linearGradient><linearGradient id="paint3_linear_2287_6001" x1="720.997" y1="837.649" x2="794.077" y2="837.649" gradientUnits="userSpaceOnUse"><stop stop-color="#A48495"/><stop offset="1" stop-color="#8B2C8D"/></linearGradient></defs></svg>