<svg width="418" height="183" fill="none" xmlns="http://www.w3.org/2000/svg"><path d="M134.444 108.375v30.09h-23.97v41.055h-33.66v-41.055H.314V105.06L77.834.51h32.64v107.865h23.97zm-57.63 0v-66.3l-47.43 66.3h47.43zM209.839 0c9.86 0 18.615 1.87 26.265 5.61 7.82 3.74 14.11 8.585 18.87 14.535 4.76 5.95 8.67 13.005 11.73 21.165 3.23 8.16 5.44 16.32 6.63 24.48 1.19 8.16 1.785 16.745 1.785 25.755 0 28.39-5.78 50.66-17.34 66.81-11.56 16.15-27.455 24.225-47.685 24.225-20.74 0-36.975-7.99-48.705-23.97-11.56-16.15-17.34-38.505-17.34-67.065 0-11.39 1.105-22.1 3.315-32.13 2.21-10.2 5.695-19.89 10.455-29.07 4.76-9.35 11.56-16.745 20.4-22.185 9.01-5.44 19.55-8.16 31.62-8.16zm-.255 29.835c-4.76 0-8.925 1.02-12.495 3.06-3.57 2.04-6.46 5.1-8.67 9.18-2.04 3.91-3.74 7.735-5.1 11.475-1.19 3.57-2.04 8.33-2.55 14.28-.51 5.78-.85 10.2-1.02 13.26v12.24c0 39.95 10.03 59.925 30.09 59.925 19.72 0 29.58-20.57 29.58-61.71 0-21.25-2.38-36.805-7.14-46.665-4.76-10.03-12.325-15.045-22.695-15.045zm208.249 78.54v30.09h-23.97v41.055h-33.66v-41.055h-76.5V105.06L361.223.51h32.64v107.865h23.97zm-57.63 0v-66.3l-47.43 66.3h47.43z" fill="#fff"/></svg>