<svg width="239" height="166" fill="none" xmlns="http://www.w3.org/2000/svg"><g opacity=".03" fill="#fff"><g clip-path="url(#clip0_4479_37892)" fill-rule="evenodd" clip-rule="evenodd"><path d="M42.757 70.156c-.608-.222-1.448-.453-2.039-.606a.518.518 0 00-.604.288c-.325.715-.841 1.88-1.16 2.75-.318.872-.674 2.095-.886 2.852-.069.244.048.5.276.609.55.264 1.342.628 1.95.85.607.222 1.448.454 2.038.607a.518.518 0 00.604-.288c.326-.716.842-1.88 1.16-2.751.318-.872.674-2.094.886-2.851a.518.518 0 00-.276-.61c-.55-.263-1.342-.628-1.95-.85zm-1.876-1.238c.592.153 1.46.391 2.1.625.64.234 1.456.61 2.008.875.518.249.779.828.626 1.375-.213.758-.575 2.002-.902 2.899-.328.897-.853 2.082-1.179 2.797a1.173 1.173 0 01-1.365.648c-.592-.153-1.46-.391-2.1-.625-.64-.234-1.456-.61-2.008-.875a1.173 1.173 0 01-.625-1.375c.212-.757.574-2.001.902-2.899.327-.897.852-2.081 1.178-2.797a1.173 1.173 0 011.365-.648z"/><path d="M39.684 73.782a.327.327 0 00.197.419l2.468.901a.327.327 0 00.42-.194.327.327 0 00-.197-.419l-2.467-.901a.327.327 0 00-.42.194zm.597-1.635a.327.327 0 00.197.42l1.234.45a.328.328 0 00.42-.194.327.327 0 00-.196-.42l-1.234-.45a.327.327 0 00-.42.194z"/></g><path fill-rule="evenodd" clip-rule="evenodd" d="M12.377 122.658c0-.141.115-.256.257-.256h2.735a.256.256 0 010 .513h-2.735a.257.257 0 01-.257-.257zm0 1.368c0-.142.115-.256.257-.256H14a.256.256 0 110 .512h-1.367a.256.256 0 01-.257-.256z"/><path fill-rule="evenodd" clip-rule="evenodd" d="M14.001 120.522c-.723 0-1.712.062-2.33.108a.408.408 0 00-.379.376 30.164 30.164 0 00-.111 2.165c0 .67.064 1.581.111 2.166a.41.41 0 00.38.376c.617.045 1.606.108 2.33.108.723 0 1.712-.063 2.329-.108a.41.41 0 00.38-.376c.047-.585.11-1.496.11-2.166 0-.669-.063-1.581-.11-2.165a.408.408 0 00-.38-.376 35.589 35.589 0 00-2.33-.108zm-2.367-.404a36.794 36.794 0 012.367-.109c.745 0 1.75.064 2.367.109a.922.922 0 01.853.846c.048.585.114 1.515.114 2.207 0 .693-.066 1.622-.114 2.207a.922.922 0 01-.853.846 36.05 36.05 0 01-2.367.11c-.744 0-1.75-.064-2.367-.11a.922.922 0 01-.853-.846 30.645 30.645 0 01-.113-2.207c0-.692.066-1.622.113-2.207a.922.922 0 01.853-.846z"/><path fill-rule="evenodd" clip-rule="evenodd" d="M12.976 119.667c.141 0 .256.115.256.256v.855a.257.257 0 11-.513 0v-.855c0-.141.115-.256.257-.256zm2.051 0c.142 0 .256.115.256.256v.855a.257.257 0 11-.512 0v-.855c0-.141.114-.256.256-.256z"/><g clip-path="url(#clip1_4479_37892)" fill-rule="evenodd" clip-rule="evenodd"><path d="M113.658 157.773a.29.29 0 01.164.384l-.862 2.079a.308.308 0 01-.393.168l-1.049-.407a.29.29 0 01-.164-.384.306.306 0 01.392-.167l.772.299.748-1.804a.306.306 0 01.392-.168z"/><path d="M111.631 156.26a.515.515 0 00-.279.119l-2.162 1.832a.492.492 0 00-.099.645l1.317 2c.482.733 1.202 1.268 2.047 1.392.31.045.626.076.909.076.289 0 .512-.033.654-.094.142-.061.32-.199.519-.408a6.34 6.34 0 00.573-.709c.495-.696.606-1.586.409-2.442l-.536-2.333a.489.489 0 00-.534-.374l-2.818.296zm-.667-.327c.173-.147.387-.238.613-.262l2.818-.296a1.08 1.08 0 011.175.823l.536 2.333c.225.979.11 2.051-.504 2.915a7.038 7.038 0 01-.63.778c-.218.228-.465.439-.722.549-.258.11-.581.143-.896.143a7.02 7.02 0 01-.997-.083c-1.05-.153-1.904-.81-2.456-1.65l-1.316-1.999a1.078 1.078 0 01.217-1.418l2.162-1.833z"/></g><path fill-rule="evenodd" clip-rule="evenodd" d="M.582 74.995a.823.823 0 011.645 0v.599a.823.823 0 01-1.645 0v-.599zm.823-.374a.374.374 0 00-.374.374v.599a.374.374 0 00.748 0v-.599a.374.374 0 00-.374-.374zM2.676 73.2a.823.823 0 011.645 0v2.394a.823.823 0 01-1.645 0V73.2zm.823-.373a.374.374 0 00-.374.374v2.393a.374.374 0 00.748 0V73.2a.374.374 0 00-.374-.374zm1.271-1.421a.823.823 0 111.645 0v4.188a.823.823 0 01-1.645 0v-4.188zm.823-.374a.374.374 0 00-.374.374v4.188a.374.374 0 00.748 0v-4.188a.374.374 0 00-.374-.374z"/><g clip-path="url(#clip2_4479_37892)" fill-rule="evenodd" clip-rule="evenodd"><path d="M17.4 158.886a1.176 1.176 0 012.257.657l-.239.821a1.175 1.175 0 11-2.256-.658l.239-.82zm1.279-.184a.534.534 0 00-.663.363l-.239.821a.534.534 0 001.026.299l.239-.821a.534.534 0 00-.364-.662zm2.311-1.441a1.176 1.176 0 012.257.657l-.957 3.283a1.175 1.175 0 11-2.256-.658l.956-3.282zm1.278-.184a.534.534 0 00-.663.363l-.956 3.282a.535.535 0 001.026.299l.956-3.282a.534.534 0 00-.363-.662zm2.312-1.441a1.176 1.176 0 012.256.657l-1.674 5.744a1.174 1.174 0 11-2.256-.657l1.673-5.744zm1.277-.184a.534.534 0 00-.662.363l-1.674 5.744a.535.535 0 001.026.299l1.674-5.744a.534.534 0 00-.364-.662z"/></g><g clip-path="url(#clip3_4479_37892)" fill-rule="evenodd" clip-rule="evenodd"><path d="M230.178 162.003a.977.977 0 111.913-.403l.147.695a.977.977 0 11-1.913.403l-.147-.695zm.865-.637a.445.445 0 00-.343.527l.146.695a.446.446 0 00.87-.183l-.146-.695a.446.446 0 00-.527-.344zm1.131-1.963a.977.977 0 111.913-.403l.586 2.783a.978.978 0 01-1.913.403l-.586-2.783zm.865-.637a.446.446 0 00-.344.527l.586 2.783a.445.445 0 00.87-.183l-.586-2.783a.444.444 0 00-.526-.344zm1.13-1.963a.977.977 0 111.914-.403l1.025 4.87a.978.978 0 01-1.913.403l-1.026-4.87zm.865-.637a.445.445 0 00-.343.527l1.026 4.87a.443.443 0 10.869-.183l-1.025-4.87a.446.446 0 00-.527-.344z"/></g><g clip-path="url(#clip4_4479_37892)" fill-rule="evenodd" clip-rule="evenodd"><path d="M226.798 97.363a.042.042 0 01.039.003 2.891 2.891 0 011.375 2.54 2.894 2.894 0 11-5.669-.89c.003-.013.01-.022.026-.028a.096.096 0 01.074.003l2.154.959a.75.75 0 00.99-.38l.959-2.155a.094.094 0 01.052-.052zm.376-.544c-.392-.242-.853-.032-1.016.334l-.958 2.155a.108.108 0 01-.142.054l-2.154-.958c-.366-.163-.849-.011-.978.43a3.537 3.537 0 105.248-2.016z"/><path d="M222.284 96.439c.001-.004.002-.01.006-.016a2.682 2.682 0 012.998-1.152.035.035 0 01.015.008.059.059 0 01.011.017.094.094 0 01-.004.072l-.871 1.959a.108.108 0 01-.142.054l-1.958-.871a.1.1 0 01-.052-.052c-.003-.008-.003-.015-.003-.02zm-.538-.359c-.247.393-.034.855.332 1.017l1.958.872a.75.75 0 00.99-.38l.872-1.96c.162-.364.012-.85-.435-.977a3.322 3.322 0 00-3.717 1.428z"/></g><g clip-path="url(#clip5_4479_37892)" fill-rule="evenodd" clip-rule="evenodd"><path d="M22.032 6.078c-.682-.572-1.66-1.264-2.353-1.738a.712.712 0 00-.915.09c-.756.772-1.967 2.036-2.787 3.014-.82.978-1.852 2.392-2.48 3.272a.713.713 0 00.072.916c.588.599 1.44 1.441 2.122 2.012.682.572 1.66 1.264 2.353 1.738.287.197.67.16.915-.09.756-.772 1.968-2.036 2.787-3.014.82-.978 1.852-2.392 2.48-3.272a.713.713 0 00-.071-.916c-.589-.6-1.441-1.441-2.123-2.012zm-1.846-2.48c.694.476 1.704 1.19 2.422 1.792.718.602 1.598 1.471 2.188 2.071.553.564.62 1.435.165 2.071-.629.88-1.679 2.32-2.522 3.326-.844 1.007-2.078 2.293-2.834 3.066a1.613 1.613 0 01-2.067.2c-.695-.476-1.705-1.19-2.423-1.792-.718-.602-1.597-1.471-2.187-2.071a1.613 1.613 0 01-.166-2.071c.629-.88 1.68-2.32 2.523-3.326.843-1.007 2.077-2.293 2.833-3.066a1.613 1.613 0 012.068-.2z"/><path d="M16.362 9.328a.45.45 0 00.058.634l2.77 2.32a.45.45 0 00.634-.054.45.45 0 00-.058-.634l-2.77-2.32a.45.45 0 00-.634.054zM17.9 7.494a.45.45 0 00.057.634l1.385 1.16a.45.45 0 00.634-.054.45.45 0 00-.058-.634l-1.384-1.16a.45.45 0 00-.635.054z"/></g><g clip-path="url(#clip6_4479_37892)"><path d="M122.167 26.608a.76.76 0 11-1.48-.337.76.76 0 011.48.337zm.672-2.958a.759.759 0 11-1.48-.337.759.759 0 011.48.337zm2.286 3.63a.758.758 0 11-1.479-.335.758.758 0 011.479.336zm.673-2.958a.76.76 0 11-1.48-.338.76.76 0 011.48.338zm2.958.672a.758.758 0 11-1.479-.335.758.758 0 011.479.335z"/><path fill-rule="evenodd" clip-rule="evenodd" d="M126.108 19.53c-1.565-.355-3.735-.705-5.093-.91a.908.908 0 00-1.006.626c-.39 1.242-.977 3.182-1.306 4.63-.329 1.45-.639 3.453-.823 4.741a.908.908 0 00.636 1c1.313.401 3.422 1.023 4.987 1.379 1.566.356 3.736.706 5.093.912a.907.907 0 001.006-.628c.391-1.241.977-3.182 1.306-4.63.329-1.449.639-3.452.823-4.74a.908.908 0 00-.636-1c-1.313-.402-3.421-1.023-4.987-1.38zm-4.922-2.036c1.358.206 3.564.561 5.174.927 1.61.366 3.754.999 5.067 1.4a2.047 2.047 0 011.431 2.25c-.185 1.29-.5 3.333-.84 4.83-.341 1.499-.94 3.478-1.33 4.72a2.046 2.046 0 01-2.262 1.412c-1.358-.206-3.565-.562-5.175-.928-1.61-.365-3.753-.998-5.067-1.4a2.045 2.045 0 01-1.43-2.25c.184-1.288.499-3.332.84-4.83.34-1.498.939-3.477 1.33-4.72a2.046 2.046 0 012.262-1.41z"/><path fill-rule="evenodd" clip-rule="evenodd" d="M124.309 17.177c.307.07.499.375.429.681l-.42 1.85a.57.57 0 01-1.11-.253l.42-1.849a.57.57 0 01.681-.429zm4.438 1.009c.307.07.499.374.429.68l-.42 1.85a.569.569 0 01-1.11-.252l.421-1.85a.568.568 0 01.68-.428z"/></g><path fill-rule="evenodd" clip-rule="evenodd" d="M220.455 35.859a.48.48 0 01.481-.48h5.128a.48.48 0 110 .96h-5.128a.48.48 0 01-.481-.48zm0 2.564a.48.48 0 01.481-.48h2.564a.48.48 0 110 .96h-2.564a.48.48 0 01-.481-.48z"/><path fill-rule="evenodd" clip-rule="evenodd" d="M223.5 31.853c-1.357 0-3.211.117-4.368.202a.767.767 0 00-.711.705c-.09 1.096-.209 2.805-.209 4.06 0 1.256.119 2.965.209 4.061.031.38.331.677.711.705 1.157.085 3.011.203 4.368.203 1.357 0 3.211-.118 4.368-.203a.767.767 0 00.711-.705c.09-1.096.209-2.805.209-4.06 0-1.256-.119-2.965-.209-4.061a.767.767 0 00-.711-.705c-1.157-.085-3.011-.202-4.368-.202zm-4.438-.757c1.158-.085 3.043-.205 4.438-.205 1.395 0 3.28.12 4.438.205a1.73 1.73 0 011.6 1.586c.089 1.097.212 2.84.212 4.139 0 1.298-.123 3.04-.212 4.138a1.73 1.73 0 01-1.6 1.586c-1.158.085-3.043.205-4.438.205-1.395 0-3.28-.12-4.438-.205a1.73 1.73 0 01-1.6-1.586c-.089-1.097-.212-2.84-.212-4.139 0-1.298.123-3.04.212-4.138a1.73 1.73 0 011.6-1.586z"/><path fill-rule="evenodd" clip-rule="evenodd" d="M221.577 30.25c.265 0 .481.215.481.48v1.603a.481.481 0 01-.962 0v-1.602a.48.48 0 01.481-.481zm3.846 0a.48.48 0 01.481.48v1.603a.48.48 0 11-.962 0v-1.602c0-.266.216-.481.481-.481z"/><g clip-path="url(#clip7_4479_37892)" fill-rule="evenodd" clip-rule="evenodd"><path d="M184.469 14.97c.201.12.263.378.139.576l-1.699 2.708a.435.435 0 01-.589.142l-1.373-.817a.411.411 0 01-.139-.576.435.435 0 01.589-.142l1.009.6 1.473-2.348a.437.437 0 01.59-.142z"/><path d="M181.987 12.374a.73.73 0 00-.418.1l-3.459 2.056a.696.696 0 00-.29.879l1.37 3.11c.503 1.141 1.384 2.06 2.537 2.432a9.05 9.05 0 001.255.321c.404.068.724.075.938.023.213-.051.494-.203.823-.448.322-.24.656-.543.97-.858.856-.857 1.222-2.077 1.149-3.322l-.2-3.393a.696.696 0 00-.659-.65l-4.016-.25zm-.856-.615c.277-.165.598-.242.92-.222l4.016.25c.785.05 1.405.661 1.45 1.43l.199 3.393c.084 1.424-.33 2.897-1.394 3.962a9.985 9.985 0 01-1.065.94c-.359.268-.755.504-1.141.598-.386.093-.846.063-1.288-.011a9.996 9.996 0 01-1.376-.351c-1.433-.463-2.474-1.584-3.049-2.89l-1.37-3.11a1.532 1.532 0 01.639-1.934l3.459-2.055z"/></g><path fill-rule="evenodd" clip-rule="evenodd" d="M35.25 45.705a1.763 1.763 0 113.526 0v1.282a1.763 1.763 0 11-3.526 0v-1.282zm1.763-.801a.801.801 0 00-.801.801v1.282a.801.801 0 001.602 0v-1.282a.801.801 0 00-.801-.801zm2.724-3.045a1.763 1.763 0 113.526 0v5.128a1.763 1.763 0 11-3.526 0V41.86zm1.763-.801a.801.801 0 00-.801.801v5.128a.801.801 0 001.602 0V41.86a.801.801 0 00-.801-.801zm2.724-3.045a1.763 1.763 0 113.526 0v8.974a1.763 1.763 0 11-3.526 0v-8.974zm1.763-.801a.801.801 0 00-.801.8v8.975a.801.801 0 101.602 0v-8.974a.801.801 0 00-.8-.801zM79.784 7.22c.01-.01.018-.013.029-.011a2.314 2.314 0 11-2.602 2.602c-.002-.01 0-.02.01-.03a.076.076 0 01.055-.02h1.886a.6.6 0 00.6-.6V7.273c0-.025.01-.044.022-.055zm.097-.521c-.365-.05-.633.254-.633.575V9.16a.086.086 0 01-.086.086h-1.886c-.32 0-.624.268-.575.633a2.83 2.83 0 103.18-3.18z"/><path fill-rule="evenodd" clip-rule="evenodd" d="M76.184 8.011a.027.027 0 010-.013A2.143 2.143 0 0178 6.18l.013.001a.037.037 0 01.013.009c.011.01.022.03.022.054V7.96a.086.086 0 01-.086.086h-1.715a.076.076 0 01-.055-.022.037.037 0 01-.008-.013zm-.51-.087c-.053.368.253.636.573.636h1.715a.6.6 0 00.6-.6V6.245c0-.32-.268-.626-.636-.573a2.658 2.658 0 00-2.252 2.252z"/></g><defs><clipPath id="clip0_4479_37892"><path fill="#fff" transform="rotate(20.066 -170.108 142.286)" d="M0 0h10.181v10.181H0z"/></clipPath><clipPath id="clip1_4479_37892"><path fill="#fff" transform="rotate(-23.142 436.413 -182.24)" d="M0 0h9.157v9.157H0z"/></clipPath><clipPath id="clip2_4479_37892"><path fill="#fff" transform="rotate(16.245 -522.515 141.055)" d="M0 0h10v10H0z"/></clipPath><clipPath id="clip3_4479_37892"><path fill="#fff" transform="rotate(-11.891 864.706 -1017.787)" d="M0 0h8.319v8.319H0z"/></clipPath><clipPath id="clip4_4479_37892"><path fill="#fff" transform="rotate(23.984 -106.265 569.862)" d="M0 0h10v10H0z"/></clipPath><clipPath id="clip5_4479_37892"><path fill="#fff" transform="rotate(39.961 8.996 24.743)" d="M0 0h14v14H0z"/></clipPath><clipPath id="clip6_4479_37892"><path fill="#fff" transform="rotate(12.801 -3.388 533.11)" d="M0 0h18.205v18.205H0z"/></clipPath><clipPath id="clip7_4479_37892"><path fill="#fff" transform="rotate(-13.571 138.14 -729.37)" d="M0 0h13v13H0z"/></clipPath></defs></svg>