<svg width="70" height="70" viewBox="0 0 70 70" fill="none" xmlns="http://www.w3.org/2000/svg">
<rect width="70" height="70" rx="5" fill="#E82F84"/>
<path d="M46.6667 21.667H23.3333C21.4924 21.667 20 23.1594 20 25.0003C20 26.8413 21.4924 28.3337 23.3333 28.3337H46.6667C48.5076 28.3337 50 26.8413 50 25.0003C50 23.1594 48.5076 21.667 46.6667 21.667Z" stroke="white" stroke-width="2" stroke-linecap="round" stroke-linejoin="round"/>
<path d="M23.332 28.333V44.9997C23.332 45.8837 23.6832 46.7316 24.3083 47.3567C24.9335 47.9818 25.7813 48.333 26.6654 48.333H43.332C44.2161 48.333 45.0639 47.9818 45.6891 47.3567C46.3142 46.7316 46.6654 45.8837 46.6654 44.9997V28.333" stroke="white" stroke-width="2" stroke-linecap="round" stroke-linejoin="round"/>
<path d="M31.668 35H38.3346" stroke="white" stroke-width="2" stroke-linecap="round" stroke-linejoin="round"/>
</svg>
