<svg width="70" height="70" viewBox="0 0 70 70" fill="none" xmlns="http://www.w3.org/2000/svg">
<rect width="70" height="70" rx="5" fill="#E82F84"/>
<path d="M36.668 23.333H50.0013" stroke="white" stroke-width="2" stroke-linecap="round" stroke-linejoin="round"/>
<path d="M36.668 30H45.0013" stroke="white" stroke-width="2" stroke-linecap="round" stroke-linejoin="round"/>
<path d="M36.668 40H50.0013" stroke="white" stroke-width="2" stroke-linecap="round" stroke-linejoin="round"/>
<path d="M36.668 46.667H45.0013" stroke="white" stroke-width="2" stroke-linecap="round" stroke-linejoin="round"/>
<path d="M28.3333 21.667H21.6667C20.7462 21.667 20 22.4132 20 23.3337V30.0003C20 30.9208 20.7462 31.667 21.6667 31.667H28.3333C29.2538 31.667 30 30.9208 30 30.0003V23.3337C30 22.4132 29.2538 21.667 28.3333 21.667Z" stroke="white" stroke-width="2" stroke-linecap="round" stroke-linejoin="round"/>
<path d="M28.3333 38.333H21.6667C20.7462 38.333 20 39.0792 20 39.9997V46.6663C20 47.5868 20.7462 48.333 21.6667 48.333H28.3333C29.2538 48.333 30 47.5868 30 46.6663V39.9997C30 39.0792 29.2538 38.333 28.3333 38.333Z" stroke="white" stroke-width="2" stroke-linecap="round" stroke-linejoin="round"/>
</svg>
