<svg width="70" height="70" viewBox="0 0 70 70" fill="none" xmlns="http://www.w3.org/2000/svg">
<rect width="70" height="70" rx="5" fill="#E82F84"/>
<path d="M31.6672 20.3335C29.06 20.9379 26.662 22.2288 24.722 24.0724C22.7819 25.9159 21.3704 28.245 20.6339 30.8179C19.8974 33.3909 19.8626 36.114 20.5333 38.7049C21.204 41.2958 22.5557 43.6601 24.4481 45.5526C26.3405 47.445 28.7048 48.7966 31.2957 49.4673C33.8866 50.138 36.6098 50.1033 39.1827 49.3668C41.7557 48.6302 44.0847 47.2187 45.9283 45.2787C47.7718 43.3386 49.0628 40.9406 49.6672 38.3335C49.6672 37.8914 49.4916 37.4675 49.179 37.155C48.8665 36.8424 48.4425 36.6668 48.0005 36.6668H36.6672C35.7831 36.6668 34.9353 36.3156 34.3102 35.6905C33.685 35.0654 33.3338 34.2175 33.3338 33.3335V21.6668C33.3131 21.4693 33.2534 21.278 33.1582 21.1037C33.063 20.9295 32.9341 20.776 32.7791 20.6519C32.624 20.5279 32.4459 20.4359 32.255 20.3812C32.0642 20.3266 31.8644 20.3103 31.6672 20.3335Z" stroke="white" stroke-width="2" stroke-linecap="round" stroke-linejoin="round"/>
<path d="M40 20.833C42.1162 21.5781 44.0383 22.7885 45.6247 24.3749C47.2112 25.9614 48.4215 27.8835 49.1667 29.9997H41.6667C41.2246 29.9997 40.8007 29.8241 40.4882 29.5115C40.1756 29.199 40 28.775 40 28.333V20.833Z" stroke="white" stroke-width="2" stroke-linecap="round" stroke-linejoin="round"/>
</svg>
