<svg width="22" height="22" viewBox="0 0 22 22" fill="none" xmlns="http://www.w3.org/2000/svg">
<path d="M14.0234 8.63086C14.4387 8.94232 14.7758 9.3462 15.0079 9.81051C15.2401 10.2748 15.361 10.7868 15.361 11.3059C15.361 11.825 15.2401 12.337 15.0079 12.8013C14.7758 13.2656 14.4387 13.6695 14.0234 13.9809" stroke="#E82F84" stroke-width="1.00314" stroke-linecap="round" stroke-linejoin="round"/>
<path d="M8.00628 13.3121H6.66876C6.49139 13.3121 6.32129 13.2416 6.19588 13.1162C6.07046 12.9908 6 12.8207 6 12.6433V9.96829C6 9.79092 6.07046 9.62082 6.19588 9.49541C6.32129 9.36999 6.49139 9.29953 6.66876 9.29953H8.00628L10.3469 6.29011C10.4054 6.17658 10.5025 6.0877 10.6208 6.03953C10.739 5.99135 10.8706 5.98707 10.9918 6.02745C11.1129 6.06784 11.2156 6.15022 11.2813 6.25971C11.3471 6.36921 11.3714 6.4986 11.3501 6.62449V15.9871C11.3714 16.113 11.3471 16.2424 11.2813 16.3519C11.2156 16.4614 11.1129 16.5438 10.9918 16.5842C10.8706 16.6245 10.739 16.6203 10.6208 16.5721C10.5025 16.5239 10.4054 16.435 10.3469 16.3215L8.00628 13.3121Z" stroke="#E82F84" stroke-width="1.00314" stroke-linecap="round" stroke-linejoin="round"/>
<rect x="1" y="1" width="20" height="20" rx="3" stroke="white" stroke-opacity="0.05"/>
</svg>
