<svg width="22" height="22" viewBox="0 0 22 22" fill="none" xmlns="http://www.w3.org/2000/svg">
<path d="M10.4969 16H6.25C5.91848 16 5.60054 15.8683 5.36612 15.6339C5.1317 15.3995 5 15.0815 5 14.75V7.25C5 6.91848 5.1317 6.60054 5.36612 6.36612C5.60054 6.1317 5.91848 6 6.25 6H13.75C14.0815 6 14.3995 6.1317 14.6339 6.36612C14.8683 6.60054 15 6.91848 15 7.25V9.75" stroke="url(#paint0_linear_2689_4357)" stroke-linecap="round" stroke-linejoin="round"/>
<path d="M14.5 17C15.8807 17 17 15.8807 17 14.5C17 13.1193 15.8807 12 14.5 12C13.1193 12 12 13.1193 12 14.5C12 15.8807 13.1193 17 14.5 17Z" stroke="url(#paint1_linear_2689_4357)" stroke-linecap="round" stroke-linejoin="round"/>
<path d="M13 5V8" stroke="url(#paint2_linear_2689_4357)" stroke-linecap="round" stroke-linejoin="round"/>
<path d="M8 5V8" stroke="url(#paint3_linear_2689_4357)" stroke-linecap="round" stroke-linejoin="round"/>
<path d="M5 10H15" stroke="url(#paint4_linear_2689_4357)" stroke-linecap="round" stroke-linejoin="round"/>
<path d="M14 14V14.6006L15 15" stroke="url(#paint5_linear_2689_4357)" stroke-linecap="round" stroke-linejoin="round"/>
<rect x="1" y="1" width="20" height="20" rx="3" stroke="white" stroke-opacity="0.05"/>
<defs>
<linearGradient id="paint0_linear_2689_4357" x1="5" y1="11" x2="15" y2="11" gradientUnits="userSpaceOnUse">
<stop stop-color="#2360FE"/>
<stop offset="1" stop-color="#2353FE"/>
</linearGradient>
<linearGradient id="paint1_linear_2689_4357" x1="12" y1="14.5" x2="17" y2="14.5" gradientUnits="userSpaceOnUse">
<stop stop-color="#2360FE"/>
<stop offset="1" stop-color="#2353FE"/>
</linearGradient>
<linearGradient id="paint2_linear_2689_4357" x1="13" y1="6.5" x2="14" y2="6.5" gradientUnits="userSpaceOnUse">
<stop stop-color="#2360FE"/>
<stop offset="1" stop-color="#2353FE"/>
</linearGradient>
<linearGradient id="paint3_linear_2689_4357" x1="8" y1="6.5" x2="9" y2="6.5" gradientUnits="userSpaceOnUse">
<stop stop-color="#2360FE"/>
<stop offset="1" stop-color="#2353FE"/>
</linearGradient>
<linearGradient id="paint4_linear_2689_4357" x1="5" y1="10.5" x2="15" y2="10.5" gradientUnits="userSpaceOnUse">
<stop stop-color="#2360FE"/>
<stop offset="1" stop-color="#2353FE"/>
</linearGradient>
<linearGradient id="paint5_linear_2689_4357" x1="14" y1="14.5" x2="15" y2="14.5" gradientUnits="userSpaceOnUse">
<stop stop-color="#2360FE"/>
<stop offset="1" stop-color="#2353FE"/>
</linearGradient>
</defs>
</svg>
