<svg width="239" height="166" viewBox="0 0 239 166" fill="none" xmlns="http://www.w3.org/2000/svg">
<g opacity="0.03">
<g clip-path="url(#clip0_4479_37892)">
<path fill-rule="evenodd" clip-rule="evenodd" d="M42.7567 70.1562C42.1491 69.9343 41.3088 69.703 40.718 69.5499C40.4728 69.4864 40.2195 69.6064 40.1144 69.8375C39.7887 70.553 39.2728 71.7173 38.9545 72.5887C38.6362 73.4602 38.2802 74.6829 38.068 75.4398C37.9995 75.6843 38.1158 75.9394 38.3442 76.0488C38.8946 76.3126 39.6861 76.6773 40.2937 76.8992C40.9012 77.1211 41.7415 77.3525 42.3323 77.5056C42.5775 77.5691 42.8308 77.449 42.936 77.2179C43.2616 76.5024 43.7775 75.3382 44.0958 74.4667C44.4141 73.5952 44.7701 72.3725 44.9823 71.6156C45.0508 71.3711 44.9345 71.1161 44.7061 71.0066C44.1557 70.7428 43.3642 70.3782 42.7567 70.1562ZM40.8809 68.9179C41.4733 69.0714 42.3405 69.3094 42.9806 69.5432C43.6207 69.777 44.4371 70.1539 44.9889 70.4184C45.507 70.6667 45.768 71.246 45.6145 71.7935C45.4023 72.5507 45.0405 73.7948 44.7127 74.692C44.385 75.5893 43.8598 76.7737 43.534 77.4894C43.2985 78.0069 42.7255 78.2816 42.1694 78.1375C41.577 77.984 40.7098 77.746 40.0698 77.5122C39.4297 77.2784 38.6132 76.9015 38.0614 76.637C37.5433 76.3888 37.2823 75.8094 37.4358 75.2619C37.648 74.5047 38.0098 73.2607 38.3376 72.3634C38.6653 71.4661 39.1905 70.2817 39.5163 69.566C39.7518 69.0485 40.3248 68.7738 40.8809 68.9179Z" fill="white"/>
<path fill-rule="evenodd" clip-rule="evenodd" d="M39.6842 73.7817C39.6224 73.9509 39.7104 74.1386 39.8808 74.2008L42.3486 75.1023C42.5189 75.1645 42.7072 75.0777 42.769 74.9084C42.8308 74.7392 42.7428 74.5515 42.5725 74.4893L40.1047 73.5878C39.9343 73.5256 39.7461 73.6124 39.6842 73.7817Z" fill="white"/>
<path fill-rule="evenodd" clip-rule="evenodd" d="M40.2813 72.147C40.2195 72.3163 40.3075 72.504 40.4778 72.5662L41.7117 73.0169C41.8821 73.0791 42.0703 72.9923 42.1322 72.8231C42.194 72.6538 42.106 72.4661 41.9357 72.4039L40.7017 71.9532C40.5314 71.891 40.3431 71.9777 40.2813 72.147Z" fill="white"/>
</g>
<path fill-rule="evenodd" clip-rule="evenodd" d="M12.3774 122.658C12.3774 122.517 12.4922 122.402 12.6338 122.402H15.3688C15.5104 122.402 15.6252 122.517 15.6252 122.658C15.6252 122.8 15.5104 122.915 15.3688 122.915H12.6338C12.4922 122.915 12.3774 122.8 12.3774 122.658Z" fill="white"/>
<path fill-rule="evenodd" clip-rule="evenodd" d="M12.3774 124.026C12.3774 123.884 12.4922 123.77 12.6338 123.77H14.0013C14.1429 123.77 14.2577 123.884 14.2577 124.026C14.2577 124.168 14.1429 124.282 14.0013 124.282H12.6338C12.4922 124.282 12.3774 124.168 12.3774 124.026Z" fill="white"/>
<path fill-rule="evenodd" clip-rule="evenodd" d="M14.0013 120.522C13.2777 120.522 12.289 120.584 11.6719 120.63C11.4688 120.644 11.3088 120.803 11.2923 121.006C11.2447 121.59 11.1808 122.502 11.1808 123.171C11.1808 123.841 11.2447 124.752 11.2923 125.337C11.3088 125.539 11.4688 125.698 11.6719 125.713C12.289 125.758 13.2777 125.821 14.0013 125.821C14.725 125.821 15.7136 125.758 16.3307 125.713C16.5338 125.698 16.6938 125.539 16.7103 125.337C16.7579 124.752 16.8218 123.841 16.8218 123.171C16.8218 122.502 16.7579 121.59 16.7103 121.006C16.6938 120.803 16.5338 120.644 16.3307 120.63C15.7136 120.584 14.725 120.522 14.0013 120.522ZM11.6345 120.118C12.2518 120.073 13.2571 120.009 14.0013 120.009C14.7455 120.009 15.7508 120.073 16.3681 120.118C16.8229 120.151 17.1844 120.509 17.2214 120.964C17.2691 121.549 17.3346 122.479 17.3346 123.171C17.3346 123.864 17.2691 124.793 17.2214 125.378C17.1844 125.833 16.8229 126.191 16.3681 126.224C15.7508 126.27 14.7455 126.334 14.0013 126.334C13.2571 126.334 12.2518 126.27 11.6345 126.224C11.1797 126.191 10.8182 125.833 10.7812 125.378C10.7336 124.793 10.668 123.864 10.668 123.171C10.668 122.479 10.7336 121.549 10.7812 120.964C10.8182 120.509 11.1797 120.151 11.6345 120.118Z" fill="white"/>
<path fill-rule="evenodd" clip-rule="evenodd" d="M12.9757 119.667C13.1173 119.667 13.2321 119.782 13.2321 119.923V120.778C13.2321 120.92 13.1173 121.035 12.9757 121.035C12.834 121.035 12.7193 120.92 12.7193 120.778V119.923C12.7193 119.782 12.834 119.667 12.9757 119.667Z" fill="white"/>
<path fill-rule="evenodd" clip-rule="evenodd" d="M15.0269 119.667C15.1686 119.667 15.2834 119.782 15.2834 119.923V120.778C15.2834 120.92 15.1686 121.035 15.0269 121.035C14.8853 121.035 14.7705 120.92 14.7705 120.778V119.923C14.7705 119.782 14.8853 119.667 15.0269 119.667Z" fill="white"/>
<g clip-path="url(#clip1_4479_37892)">
<path fill-rule="evenodd" clip-rule="evenodd" d="M113.658 157.773C113.812 157.833 113.885 158.004 113.822 158.157L112.96 160.236C112.897 160.388 112.721 160.463 112.567 160.404L111.518 159.997C111.364 159.937 111.29 159.766 111.354 159.613C111.417 159.461 111.593 159.386 111.746 159.446L112.518 159.745L113.266 157.941C113.329 157.789 113.505 157.713 113.658 157.773Z" fill="white"/>
<path fill-rule="evenodd" clip-rule="evenodd" d="M111.631 156.26C111.528 156.271 111.431 156.312 111.352 156.379L109.19 158.211C108.998 158.374 108.956 158.65 109.091 158.856L110.408 160.856C110.89 161.589 111.61 162.124 112.455 162.248C112.765 162.293 113.081 162.324 113.364 162.324C113.653 162.324 113.876 162.291 114.018 162.23C114.16 162.169 114.338 162.031 114.537 161.822C114.733 161.618 114.929 161.368 115.11 161.113C115.605 160.417 115.716 159.527 115.519 158.671L114.983 156.338C114.928 156.097 114.7 155.937 114.449 155.964L111.631 156.26ZM110.964 155.933C111.137 155.786 111.351 155.695 111.577 155.671L114.395 155.375C114.946 155.317 115.449 155.669 115.57 156.198L116.106 158.531C116.331 159.51 116.216 160.582 115.602 161.446C115.411 161.715 115.195 161.991 114.972 162.224C114.754 162.452 114.507 162.663 114.25 162.773C113.992 162.883 113.669 162.916 113.354 162.916C113.031 162.916 112.683 162.881 112.357 162.833C111.307 162.68 110.453 162.023 109.901 161.183L108.585 159.184C108.286 158.73 108.379 158.124 108.802 157.766L110.964 155.933Z" fill="white"/>
</g>
<path fill-rule="evenodd" clip-rule="evenodd" d="M0.582031 74.9954C0.582031 74.5411 0.950344 74.1728 1.40468 74.1728C1.85902 74.1728 2.22733 74.5411 2.22733 74.9954V75.5937C2.22733 76.048 1.85902 76.4163 1.40468 76.4163C0.950344 76.4163 0.582031 76.048 0.582031 75.5937V74.9954ZM1.40468 74.6215C1.19816 74.6215 1.03075 74.7889 1.03075 74.9954V75.5937C1.03075 75.8002 1.19816 75.9676 1.40468 75.9676C1.6112 75.9676 1.77861 75.8002 1.77861 75.5937V74.9954C1.77861 74.7889 1.6112 74.6215 1.40468 74.6215Z" fill="white"/>
<path fill-rule="evenodd" clip-rule="evenodd" d="M2.67605 73.2005C2.67605 72.7462 3.04436 72.3779 3.4987 72.3779C3.95303 72.3779 4.32135 72.7462 4.32135 73.2005V75.5937C4.32135 76.048 3.95303 76.4163 3.4987 76.4163C3.04436 76.4163 2.67605 76.048 2.67605 75.5937V73.2005ZM3.4987 72.8266C3.29218 72.8266 3.12477 72.994 3.12477 73.2005V75.5937C3.12477 75.8002 3.29218 75.9676 3.4987 75.9676C3.70521 75.9676 3.87263 75.8002 3.87263 75.5937V73.2005C3.87263 72.994 3.70521 72.8266 3.4987 72.8266Z" fill="white"/>
<path fill-rule="evenodd" clip-rule="evenodd" d="M4.77007 71.4057C4.77007 70.9513 5.13838 70.583 5.59271 70.583C6.04705 70.583 6.41536 70.9513 6.41536 71.4057V75.5937C6.41536 76.048 6.04705 76.4163 5.59271 76.4163C5.13838 76.4163 4.77007 76.048 4.77007 75.5937V71.4057ZM5.59271 71.0317C5.3862 71.0317 5.21878 71.1991 5.21878 71.4057V75.5937C5.21878 75.8002 5.3862 75.9676 5.59271 75.9676C5.79923 75.9676 5.96665 75.8002 5.96665 75.5937V71.4057C5.96665 71.1991 5.79923 71.0317 5.59271 71.0317Z" fill="white"/>
<g clip-path="url(#clip2_4479_37892)">
<path fill-rule="evenodd" clip-rule="evenodd" d="M17.4007 158.886C17.5823 158.263 18.2346 157.905 18.8578 158.086C19.4809 158.268 19.8389 158.92 19.6573 159.543L19.4182 160.364C19.2367 160.987 18.5843 161.345 17.9612 161.163C17.338 160.982 16.9801 160.329 17.1616 159.706L17.4007 158.886ZM18.6785 158.702C18.3952 158.619 18.0987 158.782 18.0162 159.065L17.7771 159.886C17.6945 160.169 17.8573 160.465 18.1405 160.548C18.4237 160.63 18.7203 160.468 18.8028 160.185L19.0419 159.364C19.1244 159.081 18.9617 158.784 18.6785 158.702Z" fill="white"/>
<path fill-rule="evenodd" clip-rule="evenodd" d="M20.99 157.261C21.1716 156.638 21.824 156.28 22.4471 156.461C23.0702 156.643 23.4282 157.295 23.2466 157.918L22.2902 161.201C22.1087 161.824 21.4563 162.182 20.8332 162C20.2101 161.819 19.8521 161.166 20.0337 160.543L20.99 157.261ZM22.2678 157.077C21.9845 156.994 21.688 157.157 21.6055 157.44L20.6491 160.722C20.5666 161.006 20.7293 161.302 21.0125 161.385C21.2958 161.467 21.5923 161.305 21.6748 161.021L22.6312 157.739C22.7137 157.456 22.551 157.159 22.2678 157.077Z" fill="white"/>
<path fill-rule="evenodd" clip-rule="evenodd" d="M24.5793 155.636C24.7609 155.013 25.4133 154.655 26.0364 154.836C26.6595 155.018 27.0175 155.67 26.8359 156.293L25.1623 162.037C24.9807 162.661 24.3284 163.019 23.7052 162.837C23.0821 162.655 22.7241 162.003 22.9057 161.38L24.5793 155.636ZM25.8571 155.452C25.5738 155.369 25.2773 155.532 25.1948 155.815L23.5211 161.559C23.4386 161.843 23.6013 162.139 23.8845 162.222C24.1678 162.304 24.4643 162.141 24.5468 161.858L26.2205 156.114C26.303 155.831 26.1403 155.534 25.8571 155.452Z" fill="white"/>
</g>
<g clip-path="url(#clip3_4479_37892)">
<path fill-rule="evenodd" clip-rule="evenodd" d="M230.178 162.003C230.067 161.474 230.405 160.956 230.933 160.845C231.462 160.733 231.98 161.071 232.091 161.6L232.238 162.295C232.349 162.824 232.011 163.342 231.483 163.454C230.954 163.565 230.436 163.227 230.325 162.698L230.178 162.003ZM231.043 161.366C230.803 161.417 230.649 161.653 230.7 161.893L230.846 162.588C230.897 162.829 231.133 162.982 231.373 162.932C231.613 162.881 231.767 162.646 231.716 162.405L231.57 161.71C231.519 161.469 231.283 161.316 231.043 161.366Z" fill="white"/>
<path fill-rule="evenodd" clip-rule="evenodd" d="M232.174 159.403C232.062 158.874 232.401 158.356 232.929 158.245C233.457 158.133 233.976 158.471 234.087 159L234.673 161.783C234.784 162.311 234.446 162.83 233.918 162.941C233.389 163.052 232.871 162.714 232.76 162.186L232.174 159.403ZM233.039 158.766C232.799 158.817 232.645 159.053 232.695 159.293L233.281 162.076C233.332 162.316 233.568 162.47 233.808 162.419C234.048 162.368 234.202 162.133 234.151 161.893L233.565 159.11C233.515 158.869 233.279 158.716 233.039 158.766Z" fill="white"/>
<path fill-rule="evenodd" clip-rule="evenodd" d="M234.169 156.803C234.058 156.274 234.396 155.756 234.924 155.645C235.453 155.533 235.971 155.871 236.083 156.4L237.108 161.27C237.219 161.798 236.881 162.317 236.353 162.428C235.825 162.539 235.306 162.201 235.195 161.673L234.169 156.803ZM235.034 156.166C234.794 156.217 234.64 156.453 234.691 156.693L235.717 161.563C235.767 161.803 236.003 161.957 236.243 161.906C236.483 161.856 236.637 161.62 236.586 161.38L235.561 156.51C235.51 156.27 235.274 156.116 235.034 156.166Z" fill="white"/>
</g>
<g clip-path="url(#clip4_4479_37892)">
<path fill-rule="evenodd" clip-rule="evenodd" d="M226.798 97.363C226.814 97.3573 226.825 97.3591 226.837 97.3661C227.211 97.5967 227.53 97.9106 227.766 98.2853C228.072 98.7693 228.227 99.333 228.212 99.9051C228.197 100.477 228.013 101.032 227.683 101.5C227.353 101.967 226.891 102.326 226.357 102.531C225.823 102.737 225.24 102.779 224.682 102.653C224.123 102.527 223.615 102.238 223.221 101.823C222.827 101.408 222.565 100.885 222.468 100.321C222.392 99.8843 222.419 99.4378 222.543 99.0158C222.546 99.003 222.553 98.9942 222.569 98.9878C222.587 98.9804 222.614 98.9786 222.643 98.9912L224.797 99.9497C225.176 100.118 225.619 99.9477 225.787 99.5692L226.746 97.4149C226.758 97.3865 226.78 97.3697 226.798 97.363ZM227.174 96.8185C226.782 96.577 226.321 96.7873 226.158 97.1535L225.2 99.3078C225.176 99.3619 225.112 99.3862 225.058 99.3621L222.904 98.4037C222.538 98.2408 222.055 98.3928 221.926 98.8349C221.774 99.3507 221.742 99.8963 221.834 100.43C221.953 101.119 222.273 101.758 222.755 102.265C223.236 102.773 223.857 103.126 224.54 103.28C225.222 103.434 225.935 103.383 226.588 103.132C227.241 102.881 227.805 102.442 228.208 101.871C228.612 101.299 228.837 100.621 228.855 99.9218C228.873 99.2225 228.683 98.5335 228.31 97.942C228.021 97.484 227.632 97.1004 227.174 96.8185Z" fill="white"/>
<path fill-rule="evenodd" clip-rule="evenodd" d="M222.284 96.4386C222.285 96.4348 222.286 96.4298 222.29 96.4228C222.597 95.9356 223.054 95.557 223.598 95.3482C224.141 95.1394 224.734 95.1145 225.288 95.2712C225.296 95.2734 225.3 95.2764 225.303 95.279C225.306 95.282 225.31 95.2871 225.314 95.2955C225.321 95.3131 225.323 95.3401 225.31 95.3685L224.439 97.327C224.415 97.381 224.351 97.4054 224.297 97.3813L222.339 96.51C222.311 96.4973 222.294 96.476 222.287 96.4581C222.284 96.4496 222.284 96.4431 222.284 96.4386ZM221.746 96.0804C221.499 96.4732 221.712 96.9351 222.078 97.0975L224.036 97.9688C224.415 98.1373 224.858 97.9669 225.026 97.5884L225.898 95.6299C226.06 95.2648 225.91 94.7788 225.463 94.6524C224.776 94.4581 224.041 94.489 223.367 94.7479C222.693 95.0068 222.126 95.4764 221.746 96.0804Z" fill="white"/>
</g>
<g clip-path="url(#clip5_4479_37892)">
<path fill-rule="evenodd" clip-rule="evenodd" d="M22.0318 6.07766C21.35 5.50637 20.3718 4.81406 19.6794 4.33962C19.3921 4.14274 19.0084 4.17948 18.7642 4.4291C18.0084 5.20185 16.7965 6.46593 15.977 7.44386C15.1576 8.42178 14.1251 9.83619 13.4966 10.7156C13.2936 10.9997 13.3245 11.384 13.5686 11.6324C14.1569 12.231 15.0098 13.073 15.6915 13.6443C16.3733 14.2156 17.3516 14.9079 18.0439 15.3823C18.3312 15.5792 18.7149 15.5424 18.9591 15.2928C19.715 14.5201 20.9269 13.256 21.7463 12.2781C22.5657 11.3001 23.5982 9.88574 24.2268 9.00629C24.4298 8.7222 24.3988 8.33796 24.1547 8.08956C23.5664 7.49093 22.7136 6.64895 22.0318 6.07766ZM20.1858 3.59865C20.88 4.07435 21.8899 4.78793 22.6082 5.38979C23.3265 5.99166 24.2058 6.86107 24.7956 7.46129C25.3493 8.02474 25.4157 8.89606 24.9611 9.53218C24.3323 10.4119 23.2823 11.8513 22.4386 12.8582C21.5949 13.865 20.3615 15.1507 19.6054 15.9238C19.0586 16.4827 18.1891 16.5698 17.5375 16.1233C16.8433 15.6476 15.8334 14.934 15.1152 14.3321C14.3969 13.7303 13.5176 12.8609 12.9277 12.2606C12.374 11.6972 12.3077 10.8259 12.7623 10.1898C13.391 9.30999 14.4411 7.8706 15.2847 6.86375C16.1284 5.8569 17.3618 4.57118 18.118 3.79817C18.6647 3.23923 19.5342 3.15209 20.1858 3.59865Z" fill="white"/>
<path fill-rule="evenodd" clip-rule="evenodd" d="M16.3624 9.32786C16.2032 9.51782 16.2292 9.80166 16.4203 9.96185L19.1896 12.2823C19.3808 12.4425 19.6648 12.4183 19.8239 12.2284C19.9831 12.0384 19.9571 11.7546 19.766 11.5944L16.9967 9.27398C16.8056 9.11379 16.5215 9.13791 16.3624 9.32786Z" fill="white"/>
<path fill-rule="evenodd" clip-rule="evenodd" d="M17.8994 7.49354C17.7402 7.68349 17.7662 7.96733 17.9574 8.12753L19.342 9.28774C19.5332 9.44793 19.8172 9.4238 19.9763 9.23385C20.1355 9.0439 20.1096 8.76006 19.9184 8.59986L18.5338 7.43965C18.3426 7.27946 18.0586 7.30359 17.8994 7.49354Z" fill="white"/>
</g>
<g clip-path="url(#clip6_4479_37892)">
<path d="M122.167 26.6084C122.074 27.0169 121.667 27.2728 121.259 27.18C120.85 27.0872 120.594 26.6808 120.687 26.2723C120.78 25.8637 121.186 25.6078 121.595 25.7006C122.003 25.7935 122.259 26.1999 122.167 26.6084Z" fill="white"/>
<path d="M122.839 23.6496C122.746 24.0582 122.34 24.3141 121.931 24.2213C121.522 24.1284 121.267 23.722 121.359 23.3135C121.452 22.905 121.859 22.6491 122.267 22.7419C122.676 22.8347 122.932 23.2411 122.839 23.6496Z" fill="white"/>
<path d="M125.125 27.2806C125.032 27.6891 124.626 27.9451 124.218 27.8523C123.809 27.7594 123.553 27.353 123.646 26.9445C123.739 26.536 124.145 26.2801 124.554 26.3729C124.962 26.4657 125.218 26.8721 125.125 27.2806Z" fill="white"/>
<path d="M125.798 24.3219C125.705 24.7304 125.298 24.9863 124.89 24.8935C124.481 24.8007 124.225 24.3943 124.318 23.9858C124.411 23.5772 124.817 23.3213 125.226 23.4141C125.634 23.5069 125.89 23.9134 125.798 24.3219Z" fill="white"/>
<path d="M128.756 24.9941C128.663 25.4026 128.257 25.6586 127.849 25.5657C127.44 25.4729 127.184 25.0665 127.277 24.658C127.37 24.2495 127.776 23.9936 128.185 24.0864C128.593 24.1792 128.849 24.5856 128.756 24.9941Z" fill="white"/>
<path fill-rule="evenodd" clip-rule="evenodd" d="M126.108 19.5308C124.543 19.175 122.373 18.8247 121.015 18.6191C120.569 18.5514 120.144 18.8161 120.009 19.2462C119.619 20.4878 119.032 22.4283 118.703 23.8768C118.374 25.3254 118.064 27.3288 117.88 28.6171C117.816 29.0635 118.084 29.4855 118.516 29.6175C119.829 30.0185 121.938 30.6402 123.503 30.9959C125.069 31.3516 127.239 31.702 128.596 31.9076C129.043 31.9753 129.467 31.7106 129.602 31.2805C129.993 30.0389 130.579 28.0984 130.908 26.6498C131.237 25.2013 131.547 23.1979 131.731 21.9096C131.795 21.4632 131.527 21.0412 131.095 20.9092C129.782 20.5082 127.674 19.8865 126.108 19.5308ZM121.186 17.4941C122.544 17.6998 124.75 18.0554 126.36 18.4212C127.97 18.7871 130.114 19.4198 131.427 19.821C132.395 20.1166 133.001 21.0683 132.858 22.0708C132.673 23.3602 132.358 25.4041 132.018 26.9019C131.677 28.3998 131.078 30.3792 130.688 31.6218C130.384 32.5878 129.426 33.1842 128.426 33.0326C127.068 32.8269 124.861 32.4713 123.251 32.1055C121.641 31.7396 119.498 31.1069 118.184 30.7057C117.216 30.4101 116.61 29.4584 116.754 28.4559C116.938 27.1665 117.253 25.1226 117.594 23.6248C117.934 22.1269 118.533 20.1475 118.924 18.9049C119.228 17.9389 120.185 17.3425 121.186 17.4941Z" fill="white"/>
<path fill-rule="evenodd" clip-rule="evenodd" d="M124.309 17.1774C124.616 17.247 124.808 17.5518 124.738 17.8582L124.318 19.7074C124.248 20.0138 123.943 20.2057 123.637 20.1361C123.331 20.0665 123.139 19.7617 123.208 19.4553L123.628 17.6061C123.698 17.2997 124.003 17.1078 124.309 17.1774Z" fill="white"/>
<path fill-rule="evenodd" clip-rule="evenodd" d="M128.747 18.1857C129.054 18.2554 129.246 18.5602 129.176 18.8666L128.756 20.7158C128.686 21.0222 128.382 21.2141 128.075 21.1445C127.769 21.0749 127.577 20.7701 127.646 20.4637L128.067 18.6145C128.136 18.3081 128.441 18.1161 128.747 18.1857Z" fill="white"/>
</g>
<path fill-rule="evenodd" clip-rule="evenodd" d="M220.455 35.859C220.455 35.5935 220.67 35.3782 220.936 35.3782H226.064C226.33 35.3782 226.545 35.5935 226.545 35.859C226.545 36.1245 226.33 36.3397 226.064 36.3397H220.936C220.67 36.3397 220.455 36.1245 220.455 35.859Z" fill="white"/>
<path fill-rule="evenodd" clip-rule="evenodd" d="M220.455 38.4231C220.455 38.1576 220.67 37.9423 220.936 37.9423H223.5C223.766 37.9423 223.981 38.1576 223.981 38.4231C223.981 38.6886 223.766 38.9038 223.5 38.9038H220.936C220.67 38.9038 220.455 38.6886 220.455 38.4231Z" fill="white"/>
<path fill-rule="evenodd" clip-rule="evenodd" d="M223.5 31.8526C222.143 31.8526 220.289 31.9701 219.132 32.0548C218.752 32.0827 218.452 32.3802 218.421 32.76C218.331 33.8562 218.212 35.5652 218.212 36.8205C218.212 38.0758 218.331 39.7848 218.421 40.881C218.452 41.2608 218.752 41.5584 219.132 41.5862C220.289 41.6709 222.143 41.7885 223.5 41.7885C224.857 41.7885 226.711 41.6709 227.868 41.5862C228.248 41.5584 228.548 41.2608 228.579 40.881C228.669 39.7848 228.788 38.0758 228.788 36.8205C228.788 35.5652 228.669 33.8562 228.579 32.76C228.548 32.3802 228.248 32.0827 227.868 32.0548C226.711 31.9701 224.857 31.8526 223.5 31.8526ZM219.062 31.0958C220.22 31.0111 222.105 30.891 223.5 30.891C224.895 30.891 226.78 31.0111 227.938 31.0958C228.791 31.1582 229.468 31.829 229.538 32.682C229.627 33.7791 229.75 35.5224 229.75 36.8205C229.75 38.1186 229.627 39.8619 229.538 40.959C229.468 41.812 228.791 42.4828 227.938 42.5452C226.78 42.6299 224.895 42.75 223.5 42.75C222.105 42.75 220.22 42.6299 219.062 42.5452C218.209 42.4828 217.532 41.812 217.462 40.959C217.373 39.8619 217.25 38.1186 217.25 36.8205C217.25 35.5224 217.373 33.7791 217.462 32.682C217.532 31.829 218.209 31.1582 219.062 31.0958Z" fill="white"/>
<path fill-rule="evenodd" clip-rule="evenodd" d="M221.577 30.25C221.842 30.25 222.058 30.4652 222.058 30.7308V32.3333C222.058 32.5989 221.842 32.8141 221.577 32.8141C221.311 32.8141 221.096 32.5989 221.096 32.3333V30.7308C221.096 30.4652 221.311 30.25 221.577 30.25Z" fill="white"/>
<path fill-rule="evenodd" clip-rule="evenodd" d="M225.423 30.25C225.689 30.25 225.904 30.4652 225.904 30.7308V32.3333C225.904 32.5989 225.689 32.8141 225.423 32.8141C225.158 32.8141 224.942 32.5989 224.942 32.3333L224.942 30.7308C224.942 30.4652 225.158 30.25 225.423 30.25Z" fill="white"/>
<g clip-path="url(#clip7_4479_37892)">
<path fill-rule="evenodd" clip-rule="evenodd" d="M184.469 14.9708C184.67 15.0905 184.732 15.3482 184.608 15.5465L182.909 18.254C182.785 18.4522 182.521 18.5159 182.32 18.3962L180.947 17.5789C180.746 17.4593 180.683 17.2015 180.808 17.0033C180.932 16.805 181.196 16.7413 181.397 16.861L182.406 17.4616L183.879 15.1131C184.004 14.9148 184.268 14.8511 184.469 14.9708Z" fill="white"/>
<path fill-rule="evenodd" clip-rule="evenodd" d="M181.987 12.3738C181.841 12.3646 181.695 12.3999 181.569 12.4747L178.11 14.5298C177.803 14.7124 177.678 15.0884 177.82 15.4089L179.19 18.5189C179.693 19.66 180.574 20.5789 181.727 20.9509C182.151 21.0876 182.586 21.2055 182.982 21.272C183.386 21.3402 183.706 21.3468 183.92 21.2954C184.133 21.2439 184.414 21.0921 184.743 20.8468C185.065 20.6072 185.399 20.3037 185.713 19.9888C186.569 19.1318 186.935 17.9119 186.862 16.6671L186.662 13.2744C186.642 12.9247 186.36 12.6468 186.003 12.6245L181.987 12.3738ZM181.131 11.759C181.408 11.5943 181.729 11.5167 182.051 11.5368L186.067 11.7876C186.852 11.8366 187.472 12.4481 187.517 13.2173L187.716 16.61C187.8 18.0342 187.386 19.5069 186.322 20.5721C185.991 20.9032 185.625 21.2383 185.257 21.5121C184.898 21.7801 184.502 22.0162 184.116 22.1095C183.73 22.2028 183.27 22.173 182.828 22.0986C182.376 22.0225 181.897 21.8915 181.452 21.7477C180.019 21.2853 178.978 20.1636 178.403 18.8581L177.033 15.7481C176.722 15.0429 176.995 14.2158 177.672 13.814L181.131 11.759Z" fill="white"/>
</g>
<path fill-rule="evenodd" clip-rule="evenodd" d="M35.25 45.7051C35.25 44.7315 36.0392 43.9423 37.0128 43.9423C37.9864 43.9423 38.7756 44.7315 38.7756 45.7051V46.9872C38.7756 47.9608 37.9864 48.75 37.0128 48.75C36.0392 48.75 35.25 47.9608 35.25 46.9872V45.7051ZM37.0128 44.9038C36.5703 44.9038 36.2115 45.2626 36.2115 45.7051V46.9872C36.2115 47.4297 36.5703 47.7885 37.0128 47.7885C37.4554 47.7885 37.8141 47.4297 37.8141 46.9872V45.7051C37.8141 45.2626 37.4554 44.9038 37.0128 44.9038Z" fill="white"/>
<path fill-rule="evenodd" clip-rule="evenodd" d="M39.7372 41.859C39.7372 40.8854 40.5264 40.0962 41.5 40.0962C42.4736 40.0962 43.2628 40.8854 43.2628 41.859V46.9872C43.2628 47.9608 42.4736 48.75 41.5 48.75C40.5264 48.75 39.7372 47.9608 39.7372 46.9872V41.859ZM41.5 41.0577C41.0575 41.0577 40.6987 41.4164 40.6987 41.859V46.9872C40.6987 47.4297 41.0575 47.7885 41.5 47.7885C41.9425 47.7885 42.3013 47.4297 42.3013 46.9872V41.859C42.3013 41.4164 41.9425 41.0577 41.5 41.0577Z" fill="white"/>
<path fill-rule="evenodd" clip-rule="evenodd" d="M44.2244 38.0128C44.2244 37.0392 45.0136 36.25 45.9872 36.25C46.9608 36.25 47.75 37.0392 47.75 38.0128V46.9872C47.75 47.9608 46.9608 48.75 45.9872 48.75C45.0136 48.75 44.2244 47.9608 44.2244 46.9872V38.0128ZM45.9872 37.2115C45.5446 37.2115 45.1859 37.5703 45.1859 38.0128V46.9872C45.1859 47.4297 45.5446 47.7885 45.9872 47.7885C46.4297 47.7885 46.7885 47.4297 46.7885 46.9872V38.0128C46.7885 37.5703 46.4297 37.2115 45.9872 37.2115Z" fill="white"/>
<path fill-rule="evenodd" clip-rule="evenodd" d="M79.7838 7.21907C79.7936 7.20972 79.8023 7.20738 79.813 7.2088C80.1617 7.25557 80.4966 7.38143 80.7913 7.5784C81.172 7.83277 81.4688 8.19433 81.644 8.61733C81.8192 9.04034 81.865 9.50581 81.7757 9.95488C81.6864 10.4039 81.4659 10.8164 81.1421 11.1402C80.8184 11.4639 80.4059 11.6844 79.9568 11.7738C79.5078 11.8631 79.0423 11.8172 78.6193 11.642C78.1963 11.4668 77.8347 11.1701 77.5804 10.7894C77.3834 10.4946 77.2575 10.1597 77.2108 9.81101C77.2093 9.8004 77.2117 9.79165 77.221 9.7819C77.2319 9.77061 77.2511 9.76047 77.2759 9.76047H79.1622C79.4937 9.76047 79.7624 9.49176 79.7624 9.16028L79.7624 7.274C79.7624 7.24912 79.7726 7.2299 79.7838 7.21907ZM79.8813 6.69892C79.5161 6.64994 79.248 6.95335 79.248 7.274L79.248 9.16029C79.248 9.20764 79.2096 9.24603 79.1622 9.24603H77.2759C76.9553 9.24603 76.6519 9.51416 76.7009 9.8794C76.758 10.3056 76.9119 10.7149 77.1526 11.0752C77.4635 11.5405 77.9054 11.9032 78.4224 12.1173C78.9394 12.3315 79.5083 12.3875 80.0572 12.2783C80.6061 12.1691 81.1102 11.8997 81.5059 11.504C81.9016 11.1083 82.1711 10.6041 82.2803 10.0552C82.3894 9.50638 82.3334 8.93748 82.1193 8.42046C81.9051 7.90345 81.5424 7.46156 81.0771 7.15066C80.7168 6.90991 80.3075 6.75609 79.8813 6.69892Z" fill="white"/>
<path fill-rule="evenodd" clip-rule="evenodd" d="M76.184 8.01122C76.183 8.0083 76.1822 8.00424 76.1832 7.99769C76.2487 7.54202 76.4598 7.11653 76.7891 6.78719C77.1185 6.45785 77.544 6.24674 77.9996 6.1812C78.0062 6.18026 78.0103 6.18105 78.0132 6.18204C78.0165 6.18317 78.0212 6.1856 78.0264 6.19059C78.0374 6.20109 78.0476 6.22018 78.0476 6.24511V7.95992C78.0476 8.00727 78.0092 8.04566 77.9619 8.04566H76.2471C76.2221 8.04566 76.203 8.03546 76.1925 8.02448C76.1876 8.01927 76.1851 8.01459 76.184 8.01122ZM75.6739 7.92445C75.6211 8.29193 75.9273 8.5601 76.2471 8.5601H77.9619C78.2933 8.5601 78.5621 8.29139 78.5621 7.95992V6.24511C78.5621 5.92538 78.2939 5.61914 77.9264 5.672C77.3614 5.75326 76.8338 6.01503 76.4254 6.42342C76.017 6.83182 75.7552 7.35943 75.6739 7.92445Z" fill="white"/>
</g>
<defs>
<clipPath id="clip0_4479_37892">
<rect width="10.1807" height="10.1807" fill="white" transform="translate(38.4922 67) rotate(20.0656)"/>
</clipPath>
<clipPath id="clip1_4479_37892">
<rect width="9.15689" height="9.15689" fill="white" transform="translate(106.742 156.854) rotate(-23.1425)"/>
</clipPath>
<clipPath id="clip2_4479_37892">
<rect width="10" height="10" fill="white" transform="translate(18.5977 151.801) rotate(16.2448)"/>
</clipPath>
<clipPath id="clip3_4479_37892">
<rect width="8.31861" height="8.31861" fill="white" transform="translate(228.277 156.336) rotate(-11.8913)"/>
</clipPath>
<clipPath id="clip4_4479_37892">
<rect width="10" height="10" fill="white" transform="translate(222.465 92.3984) rotate(23.9842)"/>
</clipPath>
<clipPath id="clip5_4479_37892">
<rect width="14" height="14" fill="white" transform="translate(17.9922) rotate(39.9605)"/>
</clipPath>
<clipPath id="clip6_4479_37892">
<rect width="18.2049" height="18.2049" fill="white" transform="translate(118.031 14) rotate(12.8006)"/>
</clipPath>
<clipPath id="clip7_4479_37892">
<rect width="13" height="13" fill="white" transform="translate(175 12.0508) rotate(-13.5707)"/>
</clipPath>
</defs>
</svg>
