<svg width="1920" height="1000" fill="none" xmlns="http://www.w3.org/2000/svg"><g clip-path="url(#clip0_2122_9837)" fill="#7CD8BE"><path d="M95.61 354.47l42.48-18.34 58.07 39.26v244.56H92.4l3.21-265.48zm417.08-5.23l23.47-12.1 57.92 18.1-1.27 92.23 24.7 2.4v-43.02l30.06-9.5 63.39 14.02v135.08l27.98 1.3-2.14-45.16 27.78-9.94 25.64 7.25 2.17 36.7h14.22v-69.78l44.89-4.75 12.05 13.67v59.68h17.38v24.36h15.26v-63.37l21.19-9.84-1.17-45.96 48.63-29.24 28.6 10.29v52.65h23.59V344.04l30.1-16.31 19.55 5.73v67.25h14.46V246.84l64.79-27.68 38.42 8.36v147.87h30.27v88.04h13.08V313.14l35.79-13.82v-125.1l17.27-8.19V94.36h115.81v527.56H516.43l-3.74-272.68z"/><path d="M195.111 425.85l34.73-13.31 47.48 28.5v177.57h-84.83l2.62-192.76zM94 497.366L92.496 620-1 618.82V499.932L47.775 468 94 497.366z"/></g><defs><clipPath id="clip0_2122_9837"><path fill="#fff" d="M0 0h1920v1000H0z"/></clipPath></defs></svg>