<svg width="1919" height="1000" fill="none" xmlns="http://www.w3.org/2000/svg"><g clip-path="url(#clip0_2122_9836)"><path d="M1919 0H-2v663h1921V0z" fill="url(#paint0_linear_2122_9836)"/><path opacity=".19" d="M1027.43 523.34c-.34 19.96-451.56 11.7-1008.18 2.12-6.45-.11-12.88-.22-19.3-.34v-72.3c6.83.12 13.68.23 20.54.35 556.62 9.58 1007.29 50.21 1006.94 70.17z" fill="#fff"/><path d="M560.78 628.44s379.3-25.94 883.5-28.1-90.34 62.71-90.34 62.71l-793.16-34.61z" fill="url(#paint1_linear_2122_9836)"/><path d="M1918.97 620.15h-1920v379.82h1920V620.15z" fill="url(#paint2_linear_2122_9836)"/><path d="M367.411 620.34s505.35 90.46 550.76 178.45l-919.7 6.31.04-184.77h368.9v.01z" fill="url(#paint3_linear_2122_9836)"/><path opacity=".19" d="M1308.2 220.08c-1.09 30.02-704.66 1.73-1262.52-18.44-15.33-.55-30.57-1.12-45.73-1.71V91.21c16.45.55 33.01 1.13 49.66 1.73 557.86 20.17 1259.67 97.13 1258.59 127.14zM628.81 416.2c-.05 6.92-260.08 6.57-628.86 4.25v-30.6c368.85 7.24 628.91 19.43 628.86 26.35z" fill="#fff"/><path d="M1918.59 821.64h-1920V1000h1920V821.64z" fill="#C7B2AF"/><path d="M1918.59 799.42v25.89l-634.21-4.78-1285.79 1.11V805.3l223.65-.7 9.64 6.38v-12.34l319.68 4.98 3.5-.05h5.72l217.55-.65h3.46l2.18-.04h3.46l212.73-.66h9.31l214.46-3.58 3.01 2.88h9.22l427.04-1.32h3.45l2.39-.04h.87l248.3-.74h.38z" fill="#FED7AC"/><path d="M4.83 821.82l-3.48-.18h-.07l-3.48-.18-2.73-16.68 3.48.17 2.37.11 3.48.17.43 16.59zm226.59-17.28l-.2 17.27-3.46-.1h-.08l-3.46-.13-1.98-17.04h9.18zm329.361-.97l-.25 18.24-3.46-.1h-.08l-3.46-.14-1.97-17.97 3.5-.03h5.72zm226.65-.69l-.37 21.16-2.82-.11v.11l-3.5-.14h-.08l-1.69-21 2.18-.02h6.28zm221.809 18.94l-3.48-.18h-.08l-3.48-.18-2.58-19.46 5.85.27v.01l3.48.17.29 19.37zm226.92-20.3l-.41 22.52-3.5-.15v.03l-3.54-.14-1.77-22.26h9.22z" fill="#FF9484"/><path d="M844.23 620.18l527.59 28.13-6.27 46.72-632.86-74.85h111.54z" fill="url(#paint4_linear_2122_9836)"/><path d="M-1.41 821.64l1272.73-1.11v10.88l-538.629 1.31 22.31 5.95-61.91-.93 19.72-5.02-714.22-2.53v-8.55z" fill="#B69C9D"/></g><defs><linearGradient id="paint0_linear_2122_9836" x1="955.543" y1=".814" x2="961.038" y2="617.13" gradientUnits="userSpaceOnUse"><stop stop-color="#21CFC5"/><stop offset="1" stop-color="#ABF4CF"/></linearGradient><linearGradient id="paint1_linear_2122_9836" x1="1103.8" y1="604.058" x2="1104.31" y2="660.307" gradientUnits="userSpaceOnUse"><stop stop-color="#85CF57"/><stop offset=".241" stop-color="#89D058"/><stop offset=".455" stop-color="#93D55C"/><stop offset=".659" stop-color="#A5DC62"/><stop offset=".856" stop-color="#BFE76B"/><stop offset=".991" stop-color="#D5F073"/></linearGradient><linearGradient id="paint2_linear_2122_9836" x1="959.024" y1="817.815" x2="957.648" y2="611.445" gradientUnits="userSpaceOnUse"><stop stop-color="#85CF57"/><stop offset=".241" stop-color="#89D058"/><stop offset=".455" stop-color="#93D55C"/><stop offset=".659" stop-color="#A5DC62"/><stop offset=".856" stop-color="#BFE76B"/><stop offset=".991" stop-color="#D5F073"/></linearGradient><linearGradient id="paint3_linear_2122_9836" x1="457.733" y1="713.311" x2="457.086" y2="616.193" gradientUnits="userSpaceOnUse"><stop stop-color="#85CF57"/><stop offset=".241" stop-color="#89D058"/><stop offset=".455" stop-color="#93D55C"/><stop offset=".659" stop-color="#A5DC62"/><stop offset=".856" stop-color="#BFE76B"/><stop offset=".991" stop-color="#D5F073"/></linearGradient><linearGradient id="paint4_linear_2122_9836" x1="732.69" y1="657.607" x2="1371.82" y2="657.607" gradientUnits="userSpaceOnUse"><stop stop-color="#FFCC6E"/><stop offset=".37" stop-color="#FBC96D"/><stop offset=".699" stop-color="#F1C168"/><stop offset=".991" stop-color="#E0B461"/></linearGradient><clipPath id="clip0_2122_9836"><path fill="#fff" d="M0 0h1919v1000H0z"/></clipPath></defs></svg>