<svg width="1920" height="1000" fill="none" xmlns="http://www.w3.org/2000/svg"><g clip-path="url(#clip0_2122_9839)"><path d="M-1.45 602.76s8.48-13.38 13.07-10.82c4.59 2.56 0 10.82 0 10.82s19.73-4.43 23.39 0c2.46 2.98 0 6.88 0 6.88s16.51-6.42 18.8 0c2.29 6.42-2.09 12.6-13.66 12.72-11.57.12-41.6.81-41.6.81v-20.41z" fill="#6C943A"/><path d="M104.49 580.34c14.3 15.19 30.25 6.66 35.42-9.22 6.18 23.56 28.57 17.15 39.41 11.24 18.24 14.28 36.32 11.76 15.5-13.67.9.61 16.37 11.26 30.33 4.5 11.06-4.28 5.5-16.68 1.05-20.51 41.31-3.23 50.25-34.07-2.88-37.99-2.49 3.22-6.33 5.21-6.33 5.21 16.06 6.93 10.6 30.75-8.37 24.34 14.35 28.96-20.89 13.44-25.57 8.85 4.7 19.99-17.18 12.81-18.79-.3-21.94 5.07-47.49-5.47-25.6-32.87-9.4 9.84-30.23 15.94-39.51-.02-4.71 22.14-25.21 19.78-39.54 14.06 3.77 17.72-11.06 18.64-20.01 9.59 6.48 33.2-36.68 25.32-49.45 19.89 1.6 16.22 35.51 9.84 35.22 9.32-.25 7.79 7.94 15.87 20.78 17.31 21.83 3.39 27.17-17.31 27.17-17.31 1.93 12.88 18.46 19.34 31.17 7.58z" fill="#71AC2F"/><path d="M180.84 722.07c0 4.47-20.55 6.42-45.9 6.42-25.35 0-45.9-4.51-45.9-6.42 0-4.47 20.55-8.1 45.9-8.1 25.35 0 45.9 3.63 45.9 8.1z" fill="#6C943A"/><path d="M112.841 637.19c.66 12.05-.37 26.69-1.41 39.23.98-.59-3.16 29.01-3.16 29.01s10.08-2.4 11.58-4.36c-.2-26.31-3.9-62.14 9.54-84.96 11.4-3.37 21.59-18.22 22.64-29.19-.58-.25-1.15-.52-1.69-.84-.13 9.09-10.89 22.72-20.03 24.34.41-12.08 2.21-26.71 10.22-37.49-.41-1.1-.62-1.81-.62-1.81s-2.12 6.69-7.25 11.85c-3.06 6.06-5.05 21.21-5.09 25.43.16-3.96-2.34-14.81-4.52-20.05-.75.12-1.5.17-2.25.16 6.84 16.82 5.01 28.3-2.33 43.43-2.2-7.63-6.3-20.63-8.91-28.51 0 0 2.69-4.1 3.92-16.71a27.73 27.73 0 01-3.11-1.69c-.96 8.13-3.27 14.48-3.27 14.48l-7.37-15.71c-1.34.71-2.96 1.39-4.84 1.89 7.68 15.28 16.54 34.04 17.95 51.5z" fill="#6B4B31"/><path d="M29.24 566.62c14.38-5.85 10.36-23.06 10.36-23.06 9.03 9.1 23.77 8.06 20.01-9.59 14.51 5.79 34.84 7.98 39.54-14.06 9.32 16.04 30.23 9.77 39.51.02-21.96 27.51 3.84 37.92 25.6 32.87 1.6 13.08 23.49 20.31 18.79.3 4.77 4.64 39.9 20.06 25.57-8.85 19.04 6.41 24.38-17.47 8.37-24.34 0 0 3.84-1.99 6.33-5.21-.86-.1-1.37-.12-1.37-.12 38.29-9.94 13.77-31-7.48-30.66 0 0 13.48-15 13.74-25.47-1.26-20.5-48.89-6.07-49.38-6.17 34.65-45.93-10.08-43.12-35.16-36.51 20.77-29.6-10.02-35.08-25.8-10.62-4.01-22.81-33.48-21.64-29.66 12.32-37.15-6.21-33.07 7.55-13.11 37.28-7.22-7.36-17.4-11.92-28.45-11.78-21.61-1.86-18.65 35.09-16.56 40.64-.58-2.21-4.41-15.22-18.06-14.21-13.28 1.52-6.98 28.18-4.79 36.96-19.36-9.7-38.34-1.04-17.97 20.61 4.14 5.44 18.31 19.02 21.16 21.23-.05-.07-20.73 5.99-20.33 15.24 1.17.43 25.08 8.88 39.14 3.18z" fill="url(#paint0_radial_2122_9839)"/><path d="M116.171 725.51c10.31.03 41.14.24 40.9-5.15-.24-5.39-20.45-2.62-20.45-2.62s28.25-14.13 20.56-17.16c-7.69-3.03-28.28 7.32-28.28 7.32s7.68-12.39 3.89-16.19c-3.79-3.8-12.97 9.01-12.97 9.01s-.49-24.21-12.03-25.04c-6.42-.46-2.64 23.62-2.64 23.62s-15.44-8.48-16.74-6.03c-3.51 6.64 7.45 19.31 7.45 19.31s-15.47-.9-15.47 2.7c-.01 10.23 26.48 10.2 35.78 10.23z" fill="#71AC2F"/><path d="M958.971 778.59c18.617 0 33.71-2.104 33.71-4.7s-15.093-4.7-33.71-4.7c-18.618 0-33.71 2.104-33.71 4.7s15.092 4.7 33.71 4.7z" fill="#6C943A"/><path d="M976.51 482.83l1.21 3.89-1.52.55-2.33-2.03 2.64-2.41z" fill="#62432D"/><path d="M939.451 761.26c-.74 7.89-1.2 12.63-1.2 12.63h23.51s.08-4.67.23-12.55l.03-1.49c.05-2.82.11-5.94.18-9.44.13-6.72.28-14.62.45-23.21.09-4.63.19-9.44.29-14.43.26-12.84.56-26.65.87-40.35.04-1.97.09-3.93.13-5.89.1-4.47.21-8.92.31-13.3.25-10.44.5-20.44.76-29.58.67-24.25 1.32-42.12 1.83-43.71 1.69-5.32 26.35-11.85 32.64-25.39 6.289-13.54 12.809-39.17 12.809-39.17s9.67-4.59 17.41-22.97c.43-1.01.82-2.05 1.19-3.11-1.31-.74-2.49-1.76-3.54-3.01-.95 2.86-2.07 5.6-3.46 8.06-9.67 17.17-18.78 16.92-18.78 16.92s-16.489-3.76-24.259-17.17c-1.31-2.26-2.4-5.02-3.34-8-.57.28-.93.43-.93.43l-1.29-1.61s.65-.21 1.65-.71c-.03-.1-.05-.19-.08-.29-1.85-.93-3.68-2.05-5.5-3.31 1.61 7.81 3.59 14.87 5.86 17.84 6.29 8.22 27.879 17.57 27.879 17.57s-1.61 21.92-11.609 35.46c-9.99 13.54-30.3 20.95-30.3 20.95s-2.58-6.77-13.54-15.53c-10.96-8.76-36.99-24.85-36.99-24.85s4.35-12.33 7.98-29.5c2.06-9.76 2.39-17.54 2.3-22.53-.82.37-1.33.53-1.33.53l-2.9-5.08s1.31-.41 3.13-1.45c-.08-.04-.15-.08-.23-.11-2.98-.36-12.66-1.94-18.22-7.63-.89-.91-1.59-1.85-2.18-2.81a86.43 86.43 0 01-3.33 3.5c.19.23.32.45.53.68 7.74 8.7 19.99 9.99 19.99 9.99s0 8.06-1.61 18.37c-1.61 10.32-8.38 33.85-8.38 33.85s-9.03-6.45-25.14-29.66c-3.95-5.69-6.63-11.2-8.47-16.31-2.72 1.41-5.61 2.68-8.66 3.84 1.36 4.08 2.99 8.2 4.99 12.27.13 1.3 5.48 9.64 6.99 11.74 26.86 37.34 66.99 40.67 71.83 66.78 1.61 8.66.85 33.12-.86 61.89-.5 8.36-1.08 17.07-1.7 25.89-.03.36-.05.72-.08 1.08-.51 7.08-1.04 14.2-1.59 21.23-1.8 23.08-3.73 45.07-5.18 60.95-.37 4.09-.71 7.76-1.01 10.95-.03.27-.06.52-.08.75z" fill="#6B4B31"/><path d="M802.93 344.05s-38.77 4.02-40.73 21.11c-1.96 17.09 22.35 32.18 22.35 32.18s-20.16 25.78-9.01 50.97c3.83 8.66 14.06 12.77 37.9 0 20.8-11.17 23.43-22.45 23.74-25.07-.15 3.91-.67 26.67 12 30.74 13.8 4.38 15.45-13.54 15.45-13.54s20.6 11.69 39.54 6.8c19-4.94 19.98-28.78 19.98-28.78s5.15 19.21 22.86 21.99c17.66 2.83 28.32-16.84 28.32-16.84s5.35 28.52 17.15 31.05c11.79 2.52 20.6-26.62 20.6-26.62s7.52 20.9 19.72 20.65c12.25-.31 10.5-20.03 10.5-20.03s15.91 6.23 24.04-4.07c7.72-9.78-5.46-19.77-6.8-20.75 1.54.21 17.51 2.63 25.69-3.5 7-5.25 1.49-17.87-.72-22.24 2.94 5.3 12.82 22.29 19.15 22.45 7.21.21-1.29-12.92-1.96-13.95l-.05-.05s37.17-29.66 12.87-60.14c-10.76-13.44-25.18 12.31-31.46 25.38 5.61-13.39 15.4-42.63.72-55.97-9.42-8.6-33.21 7.36-33.21 7.36s14.42-63.02-10.25-67.3c-24.72-4.27-45 42.89-45 42.89s-.88-61.58-19.1-64.16c-17.56-2.47-12.97 50.67-12.67 54.17-1.75-3.19-31.87-59.01-52.36-47.88-21.11 11.38-8.96 67.86-8.96 67.86s-41.55-42.22-57.98-22.24c-16.48 19.98 3.5 54.73 3.5 54.73s-49.74-42.74-64.62-23.94c-2.73 3.45-3.8 7.21-3.77 11.05.13 17.08 22.57 35.69 22.57 35.69z" fill="url(#paint1_radial_2122_9839)"/><path d="M1104.65 400.54c-6.33-.15-16.22-17.15-19.15-22.45 13.93 25.89-9.58 28.05-24.97 25.74 22.42 17.22-1.3 32.36-17.25 24.82.41 34.97-25.61 17.11-30.22-.62-13.15 41.77-31.43 28.92-37.74-4.43-12.91 24.67-43.65 21.3-51.18-5.15-1.68 36.42-39.82 33.68-59.52 21.99 0 0-1.65 17.92-15.45 13.54-12.67-4.07-12.15-26.83-12-30.74-3.11 20.86-47.22 40.52-61.63 25.07 0 27.5 40.73 11.94 40.73 11.94 6.08 11.27 30.53 38.12 49.87 27.5 15.83-5.89 29.89-17.37 38.38-28.17 16.04 19.49 30.34 21.85 47.11 2.32 12.37 13.27 35.26 42.21 45.88 3.35 9.84 17.85 18.71 11.53 21.32-5.97 2.72 33.11 22.18 47 31.25 2.63 19.01 48.14 27.61 8.08 28.22-11.79 0 0 10.19 19.67 24.1 18.28 13.9-1.44 0-38.2 0-38.2 50.48-13.36 24.54-45.27.26-43.66 1.24-.09 9.2 14.19 1.99 14z" fill="#71AC2F"/><path d="M922.97 480.73l.79-8.75s-.46 2.37-3.75 2.37-.99 3.13-.99 3.13l3.13 5.27.82-2.02z" fill="#62432D"/><path d="M803.586 829.6l-30.14 29.43 338.654 1.8-18.3-32.87-290.214 1.64z" fill="#B69C9D"/><path d="M1101.59 855.04h-2.48l-12.03-41.74-1.07-3.2 1.14-9.15 14.44 54.09z" fill="#FFEF9C"/><path d="M1048.04 738.22l.07 4.34c-1.3-3.39-2.4-5.77-2.4-5.77v-6.91l-218.964-27.42 45.02 1.49h.11l175.704 5.81.07 4.3v.47l.22 14.08.02.17v1.1l.11 6.93.04 1.41zm38.64 60.94l.69.02-.22 1.77-.47-1.79z" fill="#DFB88A"/><path d="M1114.62 789.85l-2.81 10.21-24.44-.88 1.17-9.33-7.39 5.64-.58-1.73-.34-.97-.2-.65-1.43-4.3-29.8-2.03v-.28l-.02-.54-.06-3.26-3.02 2.53v-18.63l2.76-.58-.04-1.97v-.2l-.22-13.5-.02-1.56-.07-5.25c3.2 8.47 7.67 23.34-.54 23.52v13.62h27.58l39.47 10.14z" fill="#DFB88A"/><path d="M829.946 728.78l3.05 52.95h3.06v-52.95h-6.11z" fill="url(#paint2_linear_2122_9839)"/><path d="M1047.85 728.78v52.95h-3.05l-.12-2.03-.78-13.52-.07-1.12-.12-2.07v-.05l-.78-13.64-.09-1.47-.56-9.61-.07-1.38-.41-6.95v-.22l-.06-.89h6.11z" fill="url(#paint3_linear_2122_9839)"/><path d="M794.536 799.04l-12.45 56h6.22l13.69-56 8.71-8.71-7.46 49.78h4.97l9.96-52.27-23.64 11.2z" fill="url(#paint4_linear_2122_9839)"/><path d="M1063.12 787.84l7.64 3.61.15.95.07.56.13.86.93 6.24 1.49 9.96.51 3.28 4 26.8h-4.97l-5.1-26.8-.64-3.31-1.88-9.93-1.17-6.2-.15-.75-.09-.5-.92-4.77z" fill="url(#paint5_linear_2122_9839)"/><path d="M1070.59 790.34l1.98 1.97-1.81-.86-.17-1.11z" fill="url(#paint6_linear_2122_9839)"/><path d="M1099.2 855.04h-6.22l-10.21-41.74-.78-3.22-2.46-10.02-.24-1.03-5.23-5.23-.9-.89-.56-.56-.03-.04.05.02 1.19.58 1.89.89 3.59 1.69 7.47 3.54.22 1.03 12.22 54.98z" fill="url(#paint7_linear_2122_9839)"/><path d="M1110.97 791.92l-1.02 8.14H772.926l-1.02-8.14 35.63-12.22h265.754l37.68 12.22z" fill="#CC8E47"/><path d="M1067.18 704.34v25.46h-.84l-18.5.07h-1.83l-4.23.02-233.854.93h-.41l-2.01-28.31-.02-.2 19.37.15 242.324 1.88z" fill="#D09857"/><path d="M795.326 813.29h293.244v-3.16l-293.244-2.1v5.26z" fill="url(#paint8_linear_2122_9839)"/><path d="M1110.97 791.92l-1.02 8.14H772.926l-1.02-8.14s81.45 4.06 178.19 3.05c19.11-.2 36.93-.45 53.254-.71h.56c.22-.02.5-.02.84-.02 23.11-.37 43.14-.76 59.38-1.14 2.37-.04 4.64-.09 6.85-.15l2.18-.06h.65c1.56-.06 3.09-.09 4.56-.11 20.92-.49 32.6-.86 32.6-.86z" fill="url(#paint9_linear_2122_9839)"/><path d="M933.796 704.35s-123.2-1.02-125.24 0c-2.04 1.02-1.02 9.16-1.02 9.16l124.54 1.84-124.54.2s-.25 5.39 2.04 12.22c2.04 2.04 253.534 2.04 255.574 0 2.04-2.04 1.02-13.24 1.02-13.24h-37.67l37.67-1.02s0-7.13-1.02-8.15c-1.02-1.01-131.354-1.01-131.354-1.01z" fill="#C88639"/><path d="M1068.17 736.56l-.02.21-1.94 28.31h-.01l-18.35-.02h-4.02l-237.074-.26h-.19v-.3l-.07-25.16 235.714-2.5 3.93-.03 1.71-.02 20.32-.23z" fill="#D09857"/><path d="M1109.95 800.06s.11-6.48-.91-6.48c-.37 0-13.47.07-30.32.19-.99.02-1.99.02-3.02.04-.54-.02-1.08 0-1.64 0-.97 0-1.96 0-2.94.02-2.24.02-4.53.02-6.84.04-26.58.19-55.97.37-60.37.41.22-.02.5-.02.84-.02 6.54-.17 34.9-.88 59.29-1.64 2.33-.07 4.64-.15 6.87-.2a24.5 24.5 0 011.69-.06l.02-.02c1.9-.06 3.76-.11 5.55-.19 13.41-.47 23.3-.91 23.64-1.25.32-.32-2.4-1.55-6.3-3.05-1.64-.65-3.48-1.34-5.4-2.05-.15-.06-.3-.11-.45-.17-.91-.34-1.47-1.01-1.47-1.01l24.57 5.23-2.81 10.21z" fill="#DFB88A"/><path d="M807.546 779.69s-29.53 10.18-28.51 11.2c1.02 1.02 56.23 3.2 56.23 3.2l-63.36-2.18 35.64-12.22z" fill="#D5A266"/><path d="M796.946 783.44l272.284 2.36-275.534-1.18 3.25-1.18z" fill="url(#paint10_linear_2122_9839)"/><path d="M790.527 785.53c-.29.27 48.58-.74 48.58-.74h-45.82l-2.76.74z" fill="#D5A266"/><path d="M1012.1 785.31l76.12-.69 3.41 1.18-79.53-.49z" fill="url(#paint11_linear_2122_9839)"/><path d="M1047.84 785.8l47.86 2.04-4.59-2.22-43.27.18z" fill="#DFB88A"/><path d="M1066.35 729.8l-18.5.08h-1.83l-4.22.01-233.854.94 1.21-2.44 12.37.07h.3l146.82.8h1.08l72.074.41 4.22.02h1.83l18.5.11z" fill="url(#paint12_linear_2122_9839)"/><path d="M1066.2 763.78v1.86s-6.84.19-18.35.45c-.39.02-.8.04-1.23.04l-2.72.06c-24.77.56-66.983 1.32-109.953 1.32-67.05 0-126.66-1.86-126.66-1.86l-.54-.84-.19-.3 24.27-.71 5.12-.15h.11l123.95-3.59 40.983 1.43 41.93 1.47.78.04 2.85.09 1.29.04 18.36.65z" fill="url(#paint13_linear_2122_9839)"/><path d="M939.876 738.96s123.204-1.37 125.244-.36c2.04 1.01 1.04 9.16 1.04 9.16l-83.494.24 83.504 1.8s.03 10.18-2 12.22c-2.03 2.04-253.534 2.76-255.574.73-2.04-2.03-1.06-13.23-1.06-13.23l37.67-.11-37.68-.91s-.02-7.13.99-8.15c1.03-1.02 131.36-1.39 131.36-1.39z" fill="#C88639"/><path d="M807.296 748.87l193.714 7.45v7.64l-193.714-.18v-14.91z" fill="url(#paint14_linear_2122_9839)" opacity=".72"/><path d="M659.216 831.83s-18.51 24.13 4 35.67c17.89 9.17 31.27 0 46.62-3.23 12.82-2.7 51.11-9.06 51.11-9.06l-10.81-26.99-90.92 3.61z" fill="#B69C9D"/><path d="M713.356 824.81c-4.43-2.59-8.32-6.01-12.64-8.78-4.81-3.08-10.2-5.35-15.86-6.07-5.66-.72-11.61.18-16.55 3.04-7.47 4.33-11.94 12.77-12.96 21.34-.4 3.33-.32 6.74.57 9.97 2.15 7.72 8.99 13.61 16.69 15.84 4.19 1.21 8.58 1.46 12.94 1.7 20.84 1.15 41.9 2.28 62.44-1.44 2.98-.54 6-1.2 8.63-2.7 2.63-1.5 4.87-3.97 5.39-6.95.34-1.95-.05-3.96-.75-5.81-1.69-4.5-5.12-8.21-9.16-10.82-4.04-2.6-8.68-4.16-13.37-5.19-4.34-.95-7.96-1.18-12.26-.63-4.54.57-9.27-1.26-13.11-3.5z" fill="#E2881B"/><path d="M773.446 835.81a37.86 37.86 0 00-10.94.31c-.68.12-1.38.27-1.91.7-.79.65-1.02 1.75-1.13 2.77-.33 2.96-.16 6 .53 8.9.81 3.41 2.37 2.62 4.52.58 3.91-3.68 6.99-8.25 8.93-13.26zm-38.96-22.57c1.55 3.32 2.61 6.86 3.14 10.48.1.68.18 1.39-.07 2.03-.36.96-1.34 1.51-2.27 1.94a26.343 26.343 0 01-8.62 2.29c-3.49.3-3.23-1.43-1.98-4.11 2.28-4.87 5.65-9.22 9.8-12.63z" fill="#E2881B"/><path d="M725.437 860.44c-3.71-.62-7.46-1.43-10.71-3.32-3.25-1.88-8.32-10.63-5.12-18.37 3.07-7.43 8.78-9.89 10.47-10.27 8.6-1.93 14.64 5.22 23.23 7.2 4.31.99 8.79 2.67 11.37 6.28 1.12 1.57 1.81 3.41 2.33 5.27.74 2.6 1.18 5.42.67 8.1-.48 2.51-1.28 3.3-3.59 4.03-5.88 1.87-11.91 2.51-18.06 2.25-3.55-.16-7.09-.58-10.59-1.17z" fill="#B76B18"/><path d="M750.167 824.54c3.14.7 6.58 3.76 8.82 6.06 2.53 2.6 3.94 6.15 4.4 9.75.46 3.6.01 7.26-.79 10.8-.32 1.44-.73 2.91-1.64 4.06-1.38 1.74-5.51 3.95-7.68 4.41-12.52 2.64-16.16 2.79-23.81-.16-4.6-1.77-10.07-5.64-14.86-14.25-2-3.6-1.97-8.28.33-11.7 2.85-4.23 8.63-7.79 13.66-8.65 6.91-1.2 14.63-1.86 21.57-.32z" fill="#E2881B"/><path d="M740.926 843c.26.27.47.62.44 1-.03.28-.19.54-.38.74-.6.65-1.49.94-2.36 1.1-.87.16-1.76.2-2.6.48-.43-.98-.76-2-.99-3.05-.1-.44-.18-.9-.12-1.35.06-.45.28-1.03.67-1.26.43-.25 1.87-.43 2.56.63.23.35.46.67.48 1.08.78-.23 1.73.06 2.3.63z" fill="#593E39"/><path d="M728.847 848.24c.08-.07.19-.06.27.01.82.75 1.92 1.29 3.05 1.25 1.24-.04 2.27-.87 2.97-1.84.05-.07.1-.15.15-.22.02-.04.03-.09.05-.13.32-.84.73-1.65 1.21-2.41.13-.21.45-.01.32.2-.07.12-.14.23-.21.35.06.06.06.15.02.23-.32.66-.64 1.32-1.05 1.93-.21.56-.37 1.14-.5 1.73-.07.34-.12.69-.08 1.03.04.33.15.65.28.96a6.417 6.417 0 002.95 3.12c.09.05.11.18.06.26-.06.09-.17.11-.26.06a6.815 6.815 0 01-2.98-3.05c-.16-.33-.3-.67-.38-1.03-.08-.36-.08-.73-.02-1.09.05-.37.14-.74.24-1.11-.24.26-.5.49-.79.7-.53.38-1.14.62-1.79.68-.6.06-1.21-.05-1.76-.26-.65-.25-1.24-.63-1.76-1.1-.08-.07-.06-.21.01-.27zm17.119-.17c.7 1.21 2.01 1.99 3.38 2.21 1.38.21 2.8-.11 4.04-.75 1.18-.61 2.26-1.59 2.57-2.88-.3.45-.83.69-1.34.87-1.72.61-3.68.81-5.35.07-1.67-.73-2.94-2.56-2.61-4.36-.11.62-.94 1.39-1.1 2.12-.22.9-.06 1.9.41 2.72zm-21.419-13.78c.51 1.3 1.68 2.27 3.01 2.69 1.33.42 2.79.31 4.11-.14 1.26-.43 2.47-1.23 2.97-2.46-.37.4-.92.55-1.46.66-1.8.35-3.76.24-5.3-.73-1.55-.98-2.52-2.98-1.92-4.71-.21.6-1.14 1.23-1.41 1.93a3.81 3.81 0 000 2.76z" fill="#593E39"/><path d="M758.546 831.26c.1-.28.2-.56.28-.84l.16.16c.84.86 1.55 1.82 2.15 2.85-1.03 1.37-2.48 2.67-3.57 3.65-1.3 1.17-2.77 2.15-4.36 2.9 2.79-2.05 4.15-5.47 5.34-8.72zm-10.989 7.5c2.38-3.6 2.94-8.16 5.3-11.78.22-.33.45-.66.66-.99 1.4.87 2.76 1.99 3.94 3.09-4.2 1.98-6.09 7.01-9.9 9.68zm.13-14.7c.84.12 1.67.27 2.48.45.6.13 1.21.35 1.82.64-.14.13-.28.27-.4.41-.65.77-1.03 1.72-1.44 2.64a42.852 42.852 0 01-5.42 9.03c.5-4.06 1.02-8.18 2.49-12 .15-.38.31-.78.47-1.17zm-6.201.37c.09-.27.19-.54.3-.81 1.02.01 2.04.05 3.06.13a29.437 29.437 0 00-4 8.55c-.23-2.64-.19-5.35.64-7.87z" fill="#B76B18"/><path d="M734.096 818.91c-.06-.22-.13-.46-.31-.59-.26-.2-.64-.1-.92.06-.63.36-1.05.99-1.43 1.6a43.13 43.13 0 00-2.86 5.42c.05-.11 1.08-.18 1.24-.21.44-.07.89-.14 1.33-.2.89-.13 1.78-.24 2.67-.33.56-.06 1.08-.12 1.2-.75.13-.65-.14-1.45-.26-2.09-.2-.97-.42-1.94-.66-2.91zm35.391 20.47c-2.44-.12-4.89-.03-7.31.29.74 2.75.76 5.77-.04 8.52 1.36-1.05 2.51-2.59 3.6-3.93.65-.79 1.28-1.6 1.9-2.42.23-.3 1.55-2.48 1.85-2.46z" fill="#E5CAC6"/><path d="M683.747 823.94c2.83 1.87 5.04 4.63 6.44 7.72 1.41 3.09 2.03 6.51 2.05 9.9.01 1.49-.1 2.98-.47 4.43-.82 3.25-2.85 6.04-4.44 9 3.51-2.34 5.32-6.47 6.71-10.45 1.47-4.21 2.69-8.81 1.38-13.07-1.23-4.02-4.61-7.15-8.46-8.84-3.85-1.7-7.42-3.09-11.63-3.08-1.35.01-4.6 1.09-5.11 2.69.53.16 1.27-.25 1.8-.42 1.08-.34 2.08-.58 3.22-.55 3.02.08 6 1.01 8.51 2.67z" fill="#CE781B"/><path d="M653.097 851.4c2.05 5.94 6.78 10.8 12.48 13.43 9.2 4.25 19.91 2.79 29.93 1.24 16.72-2.58 34.33-5.07 50.15.93.57.22 1.15.45 1.77.5 2.41.19 4.17-2.68 3.68-5.04-.49-2.36-2.47-4.12-4.52-5.4-4.75-2.95-10.39-4.23-15.98-4.51-5.59-.28-11.18.38-16.73 1.04-5.79.69-11.58 1.37-17.37 2.06-6.49.77-13.07 1.54-19.55.64-6.48-.89-12.95-3.65-17-8.78-3.77-4.77-5.05-11.17-4.09-17.11-.66 3.42-2.46 6.2-3.28 9.54-.93 3.76-.75 7.8.51 11.46z" fill="#F2AE25"/><path d="M746.586 857.05c-2.01-1.25-4.169-2.19-6.419-2.89.06.11.1.23.13.36.1.54-.191 1.07-.451 1.55a23.41 23.41 0 00-2.599 7.97l-.06.53c2.87.58 5.7 1.37 8.48 2.42.57.22 1.15.45 1.77.5 2.41.19 4.17-2.68 3.68-5.04-.5-2.37-2.481-4.13-4.531-5.4zm-85.259-7.99c-.48-.49-.95-1.01-1.38-1.56-.67-.84-1.26-1.74-1.77-2.68-2.35 1.4-4.19 4.27-5.08 6.59.67 1.95 1.64 3.78 2.83 5.46.48-1.57 1.01-3.12 1.86-4.53.85-1.37 2.1-2.6 3.54-3.28zm22.639 16.79c-.47-1.94-.61-3.96-.4-5.95.12-1.11.36-2.24.85-3.23-1.74.04-3.47 0-5.2-.14-1.33 3.53-1.82 7.57-.75 11.08 1.95.06 3.93-.01 5.91-.15-.13-.54-.28-1.08-.41-1.61zm-17.139-.48c.36-2.68.84-5.32 2.11-7.68.55-1.02 1.32-1.96 2.21-2.74-1.78-.59-3.49-1.34-5.09-2.26-.23.38-.5.75-.75 1.09a20.684 20.684 0 00-3.68 8.76 25.062 25.062 0 005.2 2.83zm31.07.33c-.15-2.75-.3-5.49-.44-8.24-.03-.64-.06-1.31.04-1.95l-.99.12c-1.8.21-3.61.43-5.41.6.47 1.39.29 3.18.14 4.71-.19 1.88-.12 3.9.44 5.69 1.29-.18 2.56-.38 3.83-.57l2.39-.36zm29.589-2.31c0-1.19-.12-2.4.01-3.59.29-2.53 1.83-4.89 4.03-6.18.64-.38 1.34-.65 2.07-.84-1-.12-2-.2-3-.25-3.16-.16-6.32-.02-9.48.25.14.38.23.78.27 1.17.16 1.54-.28 3.06-.52 4.59-.24 1.57-.28 3.18-.11 4.76 2.27-.04 4.51-.02 6.73.09zm-11.69-3.53c-.45-1.92-1.17-3.84-.92-5.8.03-.21.07-.42.13-.62-.38.04-.76.09-1.14.13-2.34.28-4.67.55-7.01.83.48 1.31.45 2.94.49 4.39.06 1.85.37 3.7.93 5.46 2.65-.31 5.31-.57 7.97-.74 0-1.22-.17-2.46-.45-3.65z" fill="#B76B18"/><path d="M454.62 428.85l34.74-13.31 47.47 28.5v177.57H452l2.62-192.76z" fill="#7CD8BE"/><path d="M953.12 144.56s11.37 2.93 17.52 2.54c6.14-.38 7.58-1.54 7.58-1.54s4.7 2.11 8.54 2.02c3.84-.1 6.24-3.55 6.24-3.55s12.57 3.36 22.65 3.36c10.08 0 11.23-.96 11.23-.96l53.74 3.08s-3.05-8.39-11.1-7.65c-8.05.74-14.89 4.25-14.89 4.25s-3.97-6.17-10.89-6.61c-6.92-.43-14.76 1.26-14.76 1.26s-.09-4.41-8.03-7.91c-7.94-3.49-21.78 5.45-21.78 5.45s-.47-4.02-6.82-4.86c-6.35-.84-13.27 8.34-13.27 8.34s-5.28-4.69-10.85-4.58c-5.57.11-10.27 5.01-10.27 5.01s-5.08-4.31-18.08-2.67c-17.59 2.23-18.42 9.28-18.42 9.28s22.2-.91 26.76-2.02c4.56-1.09 4.9-2.24 4.9-2.24z" fill="#fff"/><path d="M1026.88 146.43s-1.15.96-11.23.96-22.65-3.36-22.65-3.36-2.4 3.46-6.24 3.55c-3.84.1-8.54-2.02-8.54-2.02s-1.44 1.15-7.58 1.54c-6.14.38-17.52-2.54-17.52-2.54s-.34 1.15-4.9 2.26c-4.56 1.1-26.76 2.02-26.76 2.02l159.16.68-53.74-3.09z" fill="#B2EBE2"/></g><defs><linearGradient id="paint2_linear_2122_9839" x1="832.74" y1="718.388" x2="835.166" y2="816.136" gradientUnits="userSpaceOnUse"><stop offset=".022" stop-color="#BA3B36"/><stop offset=".994" stop-color="#B7332E"/></linearGradient><linearGradient id="paint3_linear_2122_9839" x1="1044.4" y1="713.126" x2="1046.83" y2="810.885" gradientUnits="userSpaceOnUse"><stop offset=".022" stop-color="#BA3B36"/><stop offset=".994" stop-color="#B7332E"/></linearGradient><linearGradient id="paint4_linear_2122_9839" x1="801.275" y1="854.594" x2="799.889" y2="814.386" gradientUnits="userSpaceOnUse"><stop offset=".022" stop-color="#BA3B36"/><stop offset=".994" stop-color="#B7332E"/></linearGradient><linearGradient id="paint5_linear_2122_9839" x1="1071.2" y1="832.093" x2="1070.13" y2="801.089" gradientUnits="userSpaceOnUse"><stop offset=".022" stop-color="#BA3B36"/><stop offset=".994" stop-color="#B7332E"/></linearGradient><linearGradient id="paint6_linear_2122_9839" x1="1071.6" y1="792.024" x2="1071.56" y2="790.824" gradientUnits="userSpaceOnUse"><stop offset=".022" stop-color="#BA3B36"/><stop offset=".994" stop-color="#B7332E"/></linearGradient><linearGradient id="paint7_linear_2122_9839" x1="1086.63" y1="845.53" x2="1085.34" y2="808.139" gradientUnits="userSpaceOnUse"><stop offset=".022" stop-color="#BA3B36"/><stop offset=".994" stop-color="#B7332E"/></linearGradient><linearGradient id="paint8_linear_2122_9839" x1="943.257" y1="849.725" x2="941.87" y2="809.517" gradientUnits="userSpaceOnUse"><stop offset=".022" stop-color="#BA3B36"/><stop offset=".994" stop-color="#B7332E"/></linearGradient><linearGradient id="paint9_linear_2122_9839" x1="933.892" y1="750.688" x2="949.488" y2="838.375" gradientUnits="userSpaceOnUse"><stop offset=".022" stop-color="#BC413D"/><stop offset=".994" stop-color="#C96662"/></linearGradient><linearGradient id="paint10_linear_2122_9839" x1="793.696" y1="784.622" x2="1069.22" y2="784.622" gradientUnits="userSpaceOnUse"><stop offset=".022" stop-color="#BF4945"/><stop offset=".994" stop-color="#C96662"/></linearGradient><linearGradient id="paint11_linear_2122_9839" x1="1070.61" y1="750.874" x2="1081" y2="731.636" gradientUnits="userSpaceOnUse"><stop offset=".022" stop-color="#BF4945"/><stop offset=".994" stop-color="#C96662"/></linearGradient><linearGradient id="paint12_linear_2122_9839" x1="937.144" y1="683.129" x2="937.144" y2="657.45" gradientUnits="userSpaceOnUse"><stop offset=".022" stop-color="#BC413D"/><stop offset=".994" stop-color="#C96662"/></linearGradient><linearGradient id="paint13_linear_2122_9839" x1="935.317" y1="778.409" x2="942.926" y2="682.981" gradientUnits="userSpaceOnUse"><stop offset=".022" stop-color="#BC413D"/><stop offset=".994" stop-color="#C96662"/></linearGradient><linearGradient id="paint14_linear_2122_9839" x1="898.262" y1="657.638" x2="905.395" y2="781.757" gradientUnits="userSpaceOnUse"><stop stop-color="#FFDD23"/><stop offset="1"/></linearGradient><radialGradient id="paint0_radial_2122_9839" cx="0" cy="0" r="1" gradientUnits="userSpaceOnUse" gradientTransform="translate(-1.226 532.134) scale(213.288)"><stop stop-color="#A2C47B"/><stop offset="1" stop-color="#81C436"/></radialGradient><radialGradient id="paint1_radial_2122_9839" cx="0" cy="0" r="1" gradientUnits="userSpaceOnUse" gradientTransform="translate(795.36 446.834) scale(265.824)"><stop stop-color="#A2C47B"/><stop offset="1" stop-color="#81C436"/></radialGradient><clipPath id="clip0_2122_9839"><path fill="#fff" d="M0 0h1920v1000H0z"/></clipPath></defs></svg>