<svg width="1919" height="1000" fill="none" xmlns="http://www.w3.org/2000/svg"><g clip-path="url(#clip0_2122_9838)"><path d="M675.281 641.77c-.07 1.03-12.83.69-18.65.3-5.82-.39-10.47-1.73-10.44-2.17.07-1.03 4.84-1.55 10.66-1.16 5.82.38 18.49 2 18.43 3.03z" fill="#6C943A"/><path d="M1271.58 502.33s-10.01 3.26-10.79 8.81c-.78 5.55 2.3 18.05 2.3 18.05s-5.93-2.73-9.29.45c-3.37 3.18-6.47 6.86-5.68 19.13 0 0-14.96-11.18-19.39-4.08s4.64 16.94 4.64 16.94-18.37-13.24-26.72-5.43c-8.35 7.81-5.38 26.85-5.38 26.85s-6.29-34.07-17.98-30.74c-11.69 3.33-13.75 14.25-13.75 14.25s-5.27-25.08-16.26-25.22c-10.99-.14-21.03 12.04-21.03 12.04s-5.38-9.11-12.16-5.87c-6.77 3.24-4.85 12.47-4.85 12.47s-35.35-26.48-49.74-1.91c0 0-14.13-9.01-19.8 2.3-5.67 11.31 7.35 24.88 7.35 24.88s-29.43-11.1-32.57 2.5c-3.14 13.6 4.09 16.09 4.09 16.09s-16.96-2.87-20.02 1.94c-3.07 4.81-4.839 7.89-4.839 7.89s-14.2-5.44-16.25-.5c-2.05 4.93.48 6.67.48 6.67l287.619.35V502.33h.02z" fill="url(#paint0_radial_2122_9838)"/><path d="M1171.42 634.76c3.61 0 6.54-.815 6.54-1.82 0-1.005-2.93-1.82-6.54-1.82s-6.54.815-6.54 1.82c0 1.005 2.93 1.82 6.54 1.82z" fill="#6C943A"/><path d="M1195.49 611.21c-2.9.86-8.88 2.64-11.82 3.51.03-.67.12-2.3.15-2.95-.13-.02-.26-.03-.39-.05-.23.8-.71 2.44-.94 3.25l-3.23 1.5c-1.06-.86-3.19-2.6-4.25-3.46.73.96 2.26 2.96 2.99 3.93l-8.03 2.76-1.31-5.47-1.66-.03 1.31 5.58c-1.88-.64-9.29-3.38-11.18-3.28l10.48 4.62v11.18h4.09c-.32-3.32-.78-8.02-1.1-11.34 5.87-2.31 19.2-7.52 24.89-9.75z" fill="#6B4B31"/><path d="M1194.36 566.82c-7.76-13.17-32.63-29.21-31.17-2.16-7.49-15.28-22.13-2.39-18.48 10.27-7.22-14.41-14.95-2.81-10.5 6.65-10.52 1.03-17.24 12.13-4.98 20.03 3.11 1.92 13.32 4.45 6.88-2.97 8.08 5.74 11.74 3.93 8.82-5.55 4.6 7.63 11.47 2.56 11.65-5.69-2.26 8.32 11.55 9.5 13.39 5.69-2.56 12.5 10.94 15.7 13.39 5.28 6.62 4 11.2-1.3 7.4-7.62 5.14 4.65 9.16-.75 8.19-5.71 4.7 10.61 17.47 10.65 25.14 7.51.51-5.56-7.5-10.34-10.71-11.24 9.09-15.54-9.36-17.94-17.85-12.78 0 0-.42-.65-1.17-1.71z" fill="#DEB300"/><path d="M1206.96 593.1c-6.12-3.33-8.01-8.05-8.01-8.05.97 5-3.08 10.34-8.19 5.71 3.81 6.36-.81 11.61-7.4 7.62-2.43 10.41-15.95 7.24-13.39-5.28-1.39 3.52-14.9 2.84-13.49-4.78-.49 8.25-7.56 11.74-11.55 4.78 2.93 9.53-.78 11.26-8.82 5.55 6.45 7.41-3.77 4.89-6.88 2.97 2.81 4.38 12.24 6.01 15.06 5.18 2.41 11.33 27.37 14.4 32.34 3.06 11.17 4.94 30.23 2.59 28.56-13.97 5.11 2.51 15.78 2.36 18.9-3.32 0-.01-11 3.85-17.13.53z" fill="#A58500"/><path d="M384.57 680.1c4.07-.46 9.7-.76 15.93-.77 5.39-2.03 11.45-4.67 9.27-5.64-3.72-1.65-11.68 2.5-11.68 2.5s17.66-18.15 12.96-19.36c-4.7-1.2-15.76 12.16-15.76 12.16s-.31-14.2-4.49-14.19c-4.18.01-2.8 13.14-2.8 13.14s-5.97-7.48-9.19-6.52c-3.22.96 4.05 11.31 4.05 11.31s-10.84-2.39-14.15-.85c-2.34 1.09 9 5.64 15.86 8.22z" fill="#7C6600"/><path d="M389.49 681.9s-2.08-.73-4.92-1.8c-4.06.46-6.57 1.1-6.57 1.8 0 1.42 10.24 2.57 22.88 2.57 12.64 0 22.88-1.15 22.88-2.57s-10.24-2.57-22.88-2.57h-.38c-3.82 1.44-7.32 2.57-7.32 2.57h-3.69z" fill="#6C943A"/><path d="M389.49 681.9h3.69s3.5-1.13 7.32-2.57c-6.24.01-11.86.3-15.93.77 2.84 1.07 4.92 1.8 4.92 1.8z" fill="#7C6600"/><path d="M756.13 694.12c18.617 0 33.71-2.104 33.71-4.7s-15.093-4.7-33.71-4.7c-18.618 0-33.71 2.104-33.71 4.7s15.092 4.7 33.71 4.7z" fill="#6C943A"/><path d="M750.651 686.62l-1.99 1.02-2.13 1.09-.32-1.07-.88-2.94-1.6.06 1.06 2.9.38 1.05-1.68-1.04-4.47-2.77-1.42.03 2.05 1.68-6.72-1.59c-1.04.01-2.06.03-3.08.03l7.58 2.7 6.92 2.46h2.16l5.13-2.62.45-.23c-.45-.23-.94-.49-1.44-.76z" fill="#62432D"/><path d="M739.451 638.31c3.73 2.63 6.22 9.8 7.12 13.19.97-20.94 21.82-18.34 13.19 3.54 2.02-2.35 10.76-8.39 14.75-3.84 4.46 4.34-6.99 17.02-7.92 17.95.39-.18 10.95-4.86 13.95 1.83 1.51 3.37-1.54 6.49-5.03 8.79-2.82-.38-5.86.14-5.86.14 5.93-10.39-.14-15.61-3.78-4.53 3.05-20.99-9.37-27.94-7.14-2.18 0 0-6.24-11.64-11.04-10.52-2.57.6-.54 5.31 1.89 9.57-8.93 6.04-17.29 6.55-18.75-5.27 0 0-.87 5.95-6.16 7.25v1.5c-7.28 2.29-10.28-4.4-10.45-4.8 1.25 2.8-1.22 9.62-6.38 11.31-2.7-3.52 4.89-9.02 4.89-9.02-16.45-.9-20.8-12.31-1.27-16.87-13.15-15.78 3.97-21.37 17.74-13.13.01.01 4-9.3 10.25-4.91z" fill="#DEB300"/><path d="M721.331 685c-8.19-.45-9.47.42-13.49-2.76 5.39-1.82 7.57-8.69 6.38-11.33 4.93 8.5 14.87 2.29 16.61-3.92 1.47 11.86 9.86 11.27 18.75 5.27 1.39 2.36 2.55 4.9 4.53 7.03-2.54-2.61-26.02-5.88-6.97 5.37-8.96.31-16.47.56-25.81.34z" fill="#A58500"/><path d="M753.5 678.42c.37.53.61.87.61.87-8.08-4.56-25.46-3.92-3.45 7.33 5.43 3.06 6.23 3.29 11.46 3.04 2.6-.41 28.05-6.63 13.4-9.9-2.82-.37-5.87.14-5.87.14 5.93-10.38-.13-15.62-3.78-4.53 3.05-20.99-9.37-27.94-7.14-2.18-8.26-15.5-19.41-14.05-5.23 5.23z" fill="#7C6600"/><path d="M689.13 590.54L671 596.55l-.72-7.83-1.53.45c.05 1.64.17 5.97.22 7.55l-7.81 2.88-11.27-14.63-.57.29 9.48 16.52c-.23 3.85-1.05 17.3-1.27 20.91 1.08 1.88.75 11.36.75 11.36s1.64-3.69 3.4-6.48c.29-6.33.89-19.31 1.19-25.79 4.26-1.43 25.58-8.56 30.29-10.14l26.85-2.77c-.25-.38-.46-.78-.65-1.2l-25.86 2.48s12.19-10.23 12.25-10.64l-14.89 10.14 1.15-7.58c-.73-.49-.95-1.1-1.66-1.36.06.62.11 1.56.03 2.54l.1.09-1.35 7.2z" fill="#6B4B31"/><path d="M728.23 560.34c2.32-.21-.48-4.28-.57-5.25 13.23-.04 25.6 7.28 6.72 16.45 12.58 2.77 1.81 15.05-5.33 13.99 3.72 11.85-15.68 10.09-13.32-.19-7.06 1.65-8.67-5.21-8.67-5.21-7.48 2.84-13.649 5.34-16.789-.14 1.69 5.91-19.881 4.14-20.481-8.28.23 7.1-8.08 10.71-13.98 9.25-.91 6.42-13.8 5.26-15.67.79-12.74 9.26-17.21-1.45-7.5-10.04 3.22 2.97 14.77 3.97 14.22-4.3 1.19 6.63 13 6.01 14.3 0 1.24 4.13 8.96 4.52 10.14 0 8.19 6.16 7.48-5.98 5.63-10.83.06 4.4 9.53 7.85 11.15 4.73-1.72 4.01.521 15.33 7.131 6.34 1.74 3.09.65 4.62 5.5 5.1l7.039-9.9c5.26.32 15.5-.74 20.48-2.51z" fill="#71AC2F"/><path d="M661.571 590.25c1.01.58 2.53-.05 2.53-.05-.43 2.53 1.83 1.64 1.92-.19-.44 2.32 2.46 2.39 3.01.68-.44 1.67 1.52 1.17 1.83.38 0 0 .05.89.99.72.87-.18.18-2.28.05-2.67.66 1.53 2 .05 1.56-.87 3.1 1.22 5.04-3.4-.02-1.52.11-5.35-4.6-3.41-4.7-.34.26-3.44-4.35-4.47-4.32-.64-2.07-.19-.4 1.84 0 2.08-.99.01-2.78.29-3.66 1.02-.02.04-.18.83.81 1.4z" fill="#81C436"/><path d="M666.17 594.53c1.15-.22 1.34-1.04 1.24-1.83 2.83 3.2 9.55 1.17 6.95-2.7 1.55-.12 5.02-2.01 1.93-3.57 1.52 1.22-2.619 2.67-2.839 1.82.42.87-.831 2.38-1.541.93.12.37.791 2.46-.069 2.61-.94.17-.991-.72-.991-.72-.31.79-2.269 1.28-1.829-.38-.55 1.7-3.43 1.65-3.01-.65-.11 1.84-2.35 2.67-1.92.17-.58.52-3.711.35-3.351-1.35-1.82.86.461 2.73 1.641 3.18-.44 1.71 2.219 2.82 3.789 2.49zm-9.07 27.83c-1.54-.45-2.69 13.94-2.69 13.94-2.92-20.73-6.93-15.06-.83 1.99.29.82.99 1.43 1.85 1.63.83.19 1.81.4 2.3.45 1.28.12 4.56-.01 6-.08.46-.02.89-.18 1.26-.45 3.17-2.36 12.86-9.85 11.12-10.13-1.85-.56-9.84 5.99-9.84 5.99 1.51-1.71 1.4-2.28-.84-2.41 2.19-17.7-4.97-4.18-7.15.76-.18-.1 1.1-11.03-1.18-11.69zm-6.56 17h1.6c-1.33-2.57-8.46-15.98-5.13-5.72 0 0-6.29-3.22-6.46-2.29-.38 2.14 5.85 6.42 5.85 6.42s-5.73-1.4-5.4-.3c.68 2.34 8.64 1.9 9.54 1.89z" fill="#71AC2F"/><path d="M695.21 569.02c-.66 9.9 15.36 4.09 12.67-2.01 1.89.53 18.34 3.61 19.57-3.26.16-.89-.63-2.42-.63-2.42s4.2 1.22 4.74-2.19c.98-6.24-1.79-6.83-1.26-7.11.33-.17 6.11-2.55 6.48-5.56.38-3.11-4.68-6.82-7.09-3.64 11.4-15.44-17.87-12.69-20.35-8.88-2.81-15.86-22.11-.59-21.37 4.9 0 0-2.2-2.45-7.19-1.85-4.99.6-5.39 5.5-5.39 5.5s1.7-24.17-7.89-25.96c-9.59-1.79-11.89 17.41-11.89 17.41s-9.13-15.66-21.2-10.05c-5.55 2.58 7.02 14.95 7.02 14.95-3.95-2.16-22.23 3.34-3.59 9.74-6.08-2.09-19.79 7.93-8.27 14.58 0 0-6.4 2.8-5.36 7.39s8.43 2.53 8.43 2.53c2.17 3.18 15.9 2.89 14.21-4.3 0 0 1.06 4.45 6.52 5 11.62-2.08 3.1-7.09 12.84-1.53 3.56.16 5.08-3.47 5.08-3.47 7.47 6.1 7.81-6.13 5.63-10.84-1.85.53 8.32 9.44 11.15 4.73-2.17 3.46 1.66 15.35 7.14 6.34z" fill="#81C436"/><path d="M1157.46 686.98c.19 2.62-11.78 4.63-26.65 5.7-14.87 1.07-27.11-.71-27.19-1.83-.19-2.62 11.71-5.62 26.58-6.68 14.87-1.06 27.07.18 27.26 2.81z" fill="#6C943A"/><path d="M1094.02 689c1.61 1.92 15.75 1.55 28.44.78 18.8-1.15 27.97-2.18 28.43-4.4.62-3.04-3.44-2.84-3.44-2.84s2.29-5.97-.69-6.77c-2.98-.8-4.82 2.74-4.82 2.74s-1.83-17.16-7.11-16.13c-5.28 1.03-3.44 13.75-3.44 13.75s-8.94-9.19-12.15-9.3c-3.21-.11-6.04 5.23-4.51 12.07 0 0-10.16-12.18-13.83-10.81-3.67 1.37-1.38 13.99-1.38 13.99s-9.9 1.67-5.5 6.92z" fill="#71AC2F"/><path d="M279.239 354.352L322.23 336 381 375.285V620H276l3.239-265.648z" fill="#7CD8BE"/><path d="M-1.53 579.67s21.6-7.34 31.08-2.31c4.27 2.27 6.07 4.5 6.07 4.5s1.27-9.76 8.95-13.82c3.68-1.95 10.85-2.67 17.36 4.07 0 0-3-14.34 5.89-18.38 6.55-2.97 13.6 2.19 16.63 7.39 0 0 8.91-9.32 21.101 2.53 0 0 18.42-12.37 24.86-6.38 6.44 5.99 2.48 20.61 2.48 20.61s18.63-.55 17.34 18.4c0 0 14.41-2.98 22.48-.18 12.23 4.25 14.11 16.13 14.11 16.13s13.86-7.26 24.32-5.42c10.46 1.84 9.78 6.72 9.78 6.72s1.67-23.13 10.66-23.98c5.07-.48 9.44 9.49 9.44 9.49s3.31-22.81 11.7-23.1c9.61-.33 10.83 9.03 10.83 9.03s7.85-11.92 15.64-13.6c7.79-1.68 8.63 11.61 8.63 11.61s11.93-11.47 19.07-10.2c7.14 1.27 4.07 11.89 4.07 11.89s21.13-8.67 23.19 8.3c0 0 19.26-7.68 25.44 3.99 2.65 5-.61 16.19-.61 16.19s18.69-4.96 21.44.38c0 0 13.46-9.17 26.83-6.46 15.11 3.06 18.84 14.18 18.84 14.18l-427.58-.91-.04-40.67z" fill="#4C5E30"/><path d="M1525.39 37s-3.65-8.51-22.8-8.61c-19.15-.1-34.71 11.81-34.71 11.81s-2.65-4.95-16.95-5.58c-15.37-.68-28.38 13.8-28.38 13.8s26.16-.17 36.32-1.65 11.8-1.92 11.8-1.92 29.42 3.03 38.61 1.19c9.19-1.84 10.09-4.58 10.09-4.58s12.1 4.12 21.71 4.75c9.6.62 13.88-5.77 13.88-5.77s17.78 5.12 43.85 5.92c26.07.8 30.01-.22 30.01-.22l54.2 3.63s-4.11-9.59-18.27-10.51c-14.16-.92-27.06 5.04-27.06 5.04s3.39-14.57-16.1-15.34c-19.48-.77-40.73 10.16-40.73 10.16s8.66-19.3-4.96-20.8c-13.62-1.5-24.66 5.21-24.66 5.21s-.97-16.18-14.67-16.11c-13.69.06-11.18 29.58-11.18 29.58z" fill="#fff"/><path d="M1598.82 46.36c-26.07-.8-43.85-5.92-43.85-5.92s-4.27 6.39-13.88 5.77c-9.6-.62-21.71-4.75-21.71-4.75s-.9 2.74-10.09 4.58c-9.19 1.84-38.61-1.19-38.61-1.19s-1.64.44-11.8 1.92-36.32 1.65-36.32 1.65l260.47 1.35-54.2-3.63s-3.94 1.02-30.01.22z" fill="#B2EBE2"/><path d="M615.36 188.64s10.94-4.91 12.64-4.91c1.7 0 11.51 1.7 11.51 1.7l2.45-.57s.38.94 2.08 1.32c1.7.38 6.41-3.77 8.68-3.58 2.26.19 8.68 3.77 8.68 3.77l-9.43-.75c-2.26-.19-5.47 3.02-5.47 3.02l1.51 1.13s-15.28-3.21-20.57-3.58c-5.29-.38-12.08 2.45-12.08 2.45z" fill="url(#paint1_linear_2122_9838)"/></g><defs><radialGradient id="paint0_radial_2122_9838" cx="0" cy="0" r="1" gradientUnits="userSpaceOnUse" gradientTransform="translate(1058.14 568.822) scale(180.113)"><stop stop-color="#4C5E30"/><stop offset="1" stop-color="#404F28"/></radialGradient><linearGradient id="paint1_linear_2122_9838" x1="650.009" y1="159.947" x2="625.555" y2="217.911" gradientUnits="userSpaceOnUse"><stop offset=".022" stop-color="#B3AEB0"/><stop offset=".994" stop-color="#917471"/></linearGradient><clipPath id="clip0_2122_9838"><path fill="#fff" d="M0 0h1919v1000H0z"/></clipPath></defs></svg>