<svg width="1920" height="1000" fill="none" xmlns="http://www.w3.org/2000/svg"><g clip-path="url(#clip0_2122_9840)"><path d="M647.2 159.82s11.99.38 13.51 1.12c1.53.74 9.61 6.56 9.61 6.56l2.45.56s-.07 1.01 1.29 2.1c1.36 1.08 7.04-4.36 8.99-3.2 1.95 1.16 9.73 4.69 9.73 4.69s-9.78-1.14-11.73-2.31c-1.95-1.16-5.86 4.1-5.86 4.1l.86 1.68s-12.34-9.57-16.92-12.22c-4.58-2.66-11.93-3.08-11.93-3.08z" fill="url(#paint0_linear_2122_9840)"/><path d="M239.47 88.39c6.67-1.23 8.97-2.74 8.97-2.74s27.07 6.69 38.4 5.58c11.34-1.11 19.22-8.59 19.22-8.59s8.16 5.79 16.57 7.52c8.41 1.73 12.26-2.7 12.26-2.7s29.14 8.75 43.59 6.18c14.45-2.57 15.08-8.3 15.08-8.3s13.74 6.63 31.2 11.01c17.45 4.39 24.87-2.16 24.87-2.16s23.18 8.36 37 11.58c13.82 3.23 18.21 2.23 18.21 2.23l70.13 5.96s-.62-3.34-18.38-9.39c-17.76-6.05-50.69-.27-50.69-.27s5.07-17.27-6.69-20.34c-11.76-3.07-34.54 7.19-34.54 7.19s25.88-27.93-.84-35.78c-26.72-7.85-55 18.97-55 18.97s19.51-29.94-6.69-36.01c-22.73-5.26-32.33 27.05-32.33 27.05s-1.46-29.43-23.72-29.58c-22.25-.15-18.24 41.33-18.24 41.33S303.03 57.98 279.78 59c-19.8.87-22.36 23.63-22.36 23.63s-19.55-15.47-42.99-16.52c-23.43-1.05-30.32 21.84-30.32 21.84l14.37.96c.02.01 34.32.72 40.99-.52z" fill="#fff"/><path d="M486.64 105.79c-13.82-3.23-37-11.58-37-11.58s-7.42 6.55-24.87 2.16c-17.45-4.39-31.2-11.01-31.2-11.01s-.63 5.73-15.08 8.3c-14.45 2.57-43.59-6.18-43.59-6.18s-3.85 4.43-12.26 2.7c-8.41-1.73-16.57-7.52-16.57-7.52s-7.89 7.48-19.22 8.59c-11.34 1.11-38.4-5.58-38.4-5.58s-2.29 1.51-8.97 2.74c-6.67 1.23-40.98.53-40.99.53l376.49 25.05-70.13-5.96c-.01-.01-4.4.99-18.21-2.24z" fill="#B2EBE2"/><path d="M1869.43 1000h-448.98l-16.41-.53-174.35-60.1 81.37-30.73-102.82-28.77 100.96-35.13L1869.43 1000z" fill="#B69B9E"/><path d="M1807.09 619.71h-296.38L1499.71 0h307.38v619.71z" fill="#E2754C"/><path d="M1809.26-20.48l-253.28 64.62L1516.84 85h289.67l2.75-105.48z" fill="#CF5936"/><path d="M1836.98 151.24v898.19l-589.04-155.99-44.9-11.89-6.34-1.68V204.85l640.28-53.61z" fill="url(#paint1_linear_2122_9840)"/><path opacity=".23" d="M1210.19 734.37h64.8v-149.5l111.9-21.09v217.37l171.52-9.17 14.67-115.57 28.44-13.75 8.25-147.67 166.93-44.95 7.34 579.62-558.55-142.17-15.3-153.12z" fill="#4C8869"/><path opacity=".25" d="M1259.4 284.03h146.75v385.22L1259.4 284.03z" fill="#FFFCCC"/><path d="M1836.98 151.24v898.19l-74.65-19.77V157.49l-559.29 46.83v677.23l-43.07-11.41-2.32-749.94 648.86-84.7v118.29l30.47-2.55z" fill="#FFEE60"/><path d="M1208.04 875.74l554.29 143.43v10.49L1196.7 879.87l11.34-4.13z" fill="#4C8869"/><path d="M1762.33 317.99v21.29l-112.68 1.46v664.21l-19.35-5.18v-637.4l-166.88.6v489.4l-26.29-5.36V363.07l-143.06.51v546.9l-8.74-3.23V345.47l-73.39.95v-16.6l73.39-1.58V207.1l8.74-.95v121.9l336.23-7.22V178.57l19.35-1.54v143.38l112.68-2.42z" fill="#4C8869"/><path d="M1218.13 213.64l-.04 2.52-10.05 659.58-5 1.82-6.34 2.31V200.68l12.3 7.44 9.13 5.52z" fill="#E2754C"/><path d="M1445.75 389.85c.61 147.27.62 312.46 0 459.73-.62-147.27-.62-312.47 0-459.73z" fill="#4C8869"/><path d="M1762.33 157.49v23.82l-514.39 39.65v672.48l-44.9-11.89v-3.99l5-1.82 9.94-652.47.11-7.11.04-2.52 544.2-56.15z" fill="#4C8869"/><path d="M1762.33 135.45v36.23l-514.39 42.04-29.85 2.44-11.11-8.04-10.28-7.44 565.63-65.23z" fill="#CD5B39"/><path d="M1142 917.08v11.74l355.12 118.78 128.17-47.83V889.22l-294.35-29.19L1142 917.08z" fill="#FF9484"/><path d="M1218.13 838.21v53.14l346.7 97.09 3.67-63.54-350.37-86.69z" fill="#FCF3DC"/><path d="M1220.31 891.35l344.52 97.09-77 41.22L1142 917.08l78.31-25.73z" fill="#FED7AC"/><path d="M1644.65 315.91V177.03l-19.35 1.54v137.76l-333.76 7.18V206.15l-8.75.95v116.6l-70.85 1.52v16.59l70.85-.92v566.36l8.75 3.23v-94.95l142.59 31.48 24.29 5.36 166.88 36.85v110.55l19.35 5.18V336.2l117.68-1.53v-21.29l-117.68 2.53zm-353.11 474.87V359.57l142.59-.51v461.47l-142.59-29.75zm166.88 34.81V358.98l166.88-.59V860.4l-166.88-34.81z" fill="#FCF3DC"/><path d="M1293.38 815.23l331.91 73.99-56.79 35.68-350.37-86.69 75.25-22.98z" fill="#FED7AC"/><path d="M1902.1 0H1805v1000h97.1V0z" fill="#CF5936"/><path d="M1864.96 999.96H1805V35.71l59.96-7.12v971.37z" fill="#FFEE60"/><path d="M1880.55 999.96h-15.59V28.59l15.59 6v965.37z" fill="#BCAB48"/><path d="M1920 0h-18v1000h18V0z" fill="#333"/><path d="M1537.65 292.73L1377 298v-71.31L1537.65 216v76.73z" fill="#FCF3DC"/><path d="M1453.35 256.67v26.43l-13.48-12.93 10.88-10.89 2.6-2.61zm6.4 20.29l.01-39.92 21.76 19.06-21.77 20.86zm-6.4-45.52v17.89l-17.13 17.35-8.69-8.34 23.22-24.19 2.6-2.71z" fill="#0C2C3E"/></g><defs><linearGradient id="paint0_linear_2122_9840" x1="-236.176" y1="958.501" x2="-283.524" y2="999.923" gradientUnits="userSpaceOnUse"><stop offset=".022" stop-color="#B3AEB0"/><stop offset=".994" stop-color="#917471"/></linearGradient><linearGradient id="paint1_linear_2122_9840" x1="1519.66" y1="940.583" x2="1515.53" y2="318.726" gradientUnits="userSpaceOnUse"><stop stop-color="#81EFBB"/><stop offset="1" stop-color="#71C8C5"/></linearGradient><clipPath id="clip0_2122_9840"><path fill="#fff" d="M0 0h1920v1000H0z"/></clipPath></defs></svg>