<svg width="1920" height="1000" viewBox="0 0 1920 1000" fill="none" xmlns="http://www.w3.org/2000/svg">
<path opacity="0.15" d="M1531.26 923.13C1531.26 945.57 1492.97 945.41 1446.04 945.41C1399.11 945.41 1361.31 945.57 1361.31 923.13C1361.31 900.69 1410.66 873.96 1457.59 873.96C1504.52 873.96 1531.26 900.69 1531.26 923.13Z" fill="url(#paint0_linear_2287_6002)"/>
<path fill-rule="evenodd" clip-rule="evenodd" d="M1385.64 747.14V707.73H1415.92V747.49L1385.64 747.14Z" fill="url(#paint1_linear_2287_6002)"/>
<path fill-rule="evenodd" clip-rule="evenodd" d="M1388.79 715.69L1413.55 714.22L1412.19 743.17H1388.79V715.69Z" fill="url(#paint2_linear_2287_6002)"/>
<path d="M1418.13 697.34H1383.43V707.73H1418.13V697.34Z" fill="url(#paint3_linear_2287_6002)"/>
<path fill-rule="evenodd" clip-rule="evenodd" d="M1405.92 707.73L1406.93 745.68H1415.08L1415.92 707.73H1405.92Z" fill="white" fill-opacity="0.25"/>
<path fill-rule="evenodd" clip-rule="evenodd" d="M1386.48 746.19L1386.69 712.44H1390.72L1390.05 746.19H1386.48Z" fill="white" fill-opacity="0.25"/>
<path opacity="0.5" fill-rule="evenodd" clip-rule="evenodd" d="M1385.64 712.44L1415.92 710.42V707.73H1385.64V712.44Z" fill="#AF1140"/>
<path fill-rule="evenodd" clip-rule="evenodd" d="M1363.18 786.8L1375.03 922.02H1379.58L1377.34 786.8H1363.18Z" fill="#FB8F7D"/>
<path fill-rule="evenodd" clip-rule="evenodd" d="M1470.67 787.8L1461.35 926.37H1457.17V787.8H1470.67Z" fill="#FB8F7D"/>
<path fill-rule="evenodd" clip-rule="evenodd" d="M1457.17 787.8H1448.44L1453.75 925.04L1457.17 926.37V787.8Z" fill="#E74C44"/>
<path fill-rule="evenodd" clip-rule="evenodd" d="M1363.18 786.8L1354.57 786.56L1371.37 922.02H1375.03L1363.18 786.8Z" fill="#E74C44"/>
<path fill-rule="evenodd" clip-rule="evenodd" d="M1393.92 747.98L1545.51 747.48L1544.23 760.81L1393.92 759.03V747.98Z" fill="#F7FBB6"/>
<path fill-rule="evenodd" clip-rule="evenodd" d="M1405.66 759.18L1408.21 787.8H1533.37L1535.67 760.72L1405.66 759.18Z" fill="#FBC0B7"/>
<path fill-rule="evenodd" clip-rule="evenodd" d="M1393.92 747.98H1336L1337.95 758.06L1393.92 759.03V747.98Z" fill="#E8564D"/>
<path fill-rule="evenodd" clip-rule="evenodd" d="M1408.21 787.8L1354.6 787.04L1348.94 758.26L1405.66 759.18L1408.21 787.8Z" fill="#E74C44"/>
<path fill-rule="evenodd" clip-rule="evenodd" d="M1408.21 787.8L1415.9 923.02H1421.23L1424.78 787.8H1408.21Z" fill="#FBC0B7"/>
<path fill-rule="evenodd" clip-rule="evenodd" d="M1533.37 787.8L1518.95 926.37H1514.07L1517.58 787.8H1533.37Z" fill="#FBC0B7"/>
<path fill-rule="evenodd" clip-rule="evenodd" d="M1517.58 787.8H1507.37L1510.07 925.04L1514.07 926.37L1517.58 787.8Z" fill="#E74C44"/>
<path fill-rule="evenodd" clip-rule="evenodd" d="M1408.21 787.8L1398.14 787.56L1411.62 923.02H1415.9L1408.21 787.8Z" fill="#E74C44"/>
<path opacity="0.3" fill-rule="evenodd" clip-rule="evenodd" d="M1367.6 837.22L1378.04 828.65L1377.35 787.36L1363.21 787.16L1367.6 837.22Z" fill="#AF1140"/>
<path opacity="0.3" fill-rule="evenodd" clip-rule="evenodd" d="M1468.13 825.56L1457.17 830.88V787.8H1470.67L1468.13 825.56Z" fill="#AF1140"/>
<path opacity="0.3" fill-rule="evenodd" clip-rule="evenodd" d="M1407.02 773.03L1535.28 765.39L1535.67 760.72L1405.66 759.18L1407.02 773.03Z" fill="#AF1140"/>
<path fill-rule="evenodd" clip-rule="evenodd" d="M1457.17 747.48L1459.93 758.26V749.73L1462.26 754.14L1481.34 757.06L1492.24 747.48H1457.17Z" fill="#FBB000"/>
<path fill-rule="evenodd" clip-rule="evenodd" d="M1438.29 778.37L1436.62 784.7L1442.95 781.53L1446.28 776.37L1438.29 778.37Z" fill="#CD0B0B"/>
<path fill-rule="evenodd" clip-rule="evenodd" d="M1534.59 773.49L1525.87 805.12V820.2L1530.83 812.19L1523.72 843.24L1526.34 855.41L1534.59 773.49Z" fill="#FB3F48"/>
<path fill-rule="evenodd" clip-rule="evenodd" d="M1498.34 747.98V756.06L1501.23 758.26L1512.48 752.06L1515.44 752.87L1527.2 750.29L1523.72 754.14H1527.2L1540.52 747.49L1498.34 747.98Z" fill="#9143D4"/>
<path fill-rule="evenodd" clip-rule="evenodd" d="M1408.21 795.02L1416.5 790.36L1421.82 801.35L1412.65 813.26L1409.53 810.97L1408.21 795.02Z" fill="#9143D4"/>
<path fill-rule="evenodd" clip-rule="evenodd" d="M1405.66 796.24L1403.54 799.35L1407.02 809.34L1409.53 810.97L1408.21 795.02L1405.66 796.24Z" fill="#6A19AA"/>
<path fill-rule="evenodd" clip-rule="evenodd" d="M1415.02 825.1V820.22L1417.97 817.78L1418.86 821.44L1415.02 825.1Z" fill="#9143D4"/>
<path fill-rule="evenodd" clip-rule="evenodd" d="M1523.72 809.34L1524.71 803.85L1529.15 790.36V777.54L1520.54 793.44V801.18L1523.72 799.68L1522.04 805.34L1523.72 809.34Z" fill="#FB8D00"/>
<path fill-rule="evenodd" clip-rule="evenodd" d="M1425.12 742.21V687.45L1434.14 676.47L1465.95 675.6L1476.42 687.45L1474.78 743.11L1469.76 747.98L1430.24 747.73L1425.12 742.21Z" fill="url(#paint4_linear_2287_6002)"/>
<path fill-rule="evenodd" clip-rule="evenodd" d="M1434.14 676.47L1432.97 671.85H1467.38L1465.95 675.6L1434.14 676.47Z" fill="url(#paint5_radial_2287_6002)"/>
<path fill-rule="evenodd" clip-rule="evenodd" d="M1430.17 674.16H1470.22L1472.18 666.01L1427.89 666.64L1430.17 674.16Z" fill="url(#paint6_radial_2287_6002)"/>
<path opacity="0.3" fill-rule="evenodd" clip-rule="evenodd" d="M1427.89 704.38L1472.18 703.13V740.5L1469.06 744.21H1432.97L1427.89 741.18V704.38Z" fill="#AF1140"/>
<path opacity="0.5" fill-rule="evenodd" clip-rule="evenodd" d="M1427.89 666.64L1430.17 674.16H1433.55L1434.14 676.47L1425.12 687.45V716.61H1429.63L1431.01 692.35L1432.97 691.62V701.96L1434.14 703.13L1435.07 684.49L1437.09 685.3L1436.13 705.48L1443.49 706.08L1445 678.42H1447.19V683.42H1450.03V674.16H1452.24L1453.08 666.01L1427.89 666.64Z" fill="url(#paint7_linear_2287_6002)"/>
<path opacity="0.5" fill-rule="evenodd" clip-rule="evenodd" d="M1447.36 666.15L1447.78 673.79L1450.03 674.16L1452.24 685.99L1453.08 714H1454L1454.68 688.76L1455.77 688.42L1456.53 718.71L1460.9 718.04L1461.49 687.33L1454.84 675.9L1455.09 674.16H1457.2L1457.59 666.21L1447.36 666.15Z" fill="url(#paint8_linear_2287_6002)"/>
<path opacity="0.5" fill-rule="evenodd" clip-rule="evenodd" d="M1457.59 666.21L1457.2 674.16H1455.09V676.34L1463.63 687.33V713.58H1465.61L1467.38 689.35H1468.81L1468.22 712.58L1474.78 711.79L1476.42 687.45L1465.95 675.6L1466.5 674.16H1470.22L1472.18 666.01L1457.59 666.21Z" fill="url(#paint9_linear_2287_6002)"/>
<path fill-rule="evenodd" clip-rule="evenodd" d="M1455.09 678.42L1457.62 688.42L1472.18 688.27L1463.63 678.42H1455.09Z" fill="white" fill-opacity="0.25"/>
<path fill-rule="evenodd" clip-rule="evenodd" d="M1457.59 690.07V745.55H1470.07L1472.93 691.54L1457.59 690.07Z" fill="white" fill-opacity="0.25"/>
<path fill-rule="evenodd" clip-rule="evenodd" d="M1439.1 666.48L1425.12 624.99L1427.7 623.98L1442.98 666.38L1439.1 666.48Z" fill="#A21528"/>
<path fill-rule="evenodd" clip-rule="evenodd" d="M1455.82 666.15L1460.84 638.77H1464.64L1460.84 666.15H1455.82Z" fill="#A21528"/>
<defs>
<linearGradient id="paint0_linear_2287_6002" x1="1361.31" y1="909.687" x2="1531.26" y2="909.687" gradientUnits="userSpaceOnUse">
<stop/>
<stop offset="1"/>
</linearGradient>
<linearGradient id="paint1_linear_2287_6002" x1="1400.78" y1="747.492" x2="1400.78" y2="707.729" gradientUnits="userSpaceOnUse">
<stop offset="0.0171" stop-color="#FB9F8B"/>
<stop offset="1" stop-color="#FBD1BD"/>
</linearGradient>
<linearGradient id="paint2_linear_2287_6002" x1="1388.79" y1="728.695" x2="1413.55" y2="728.695" gradientUnits="userSpaceOnUse">
<stop offset="0.00198415" stop-color="#DC0046"/>
<stop offset="1" stop-color="#FB1919"/>
</linearGradient>
<linearGradient id="paint3_linear_2287_6002" x1="1383.43" y1="702.534" x2="1418.13" y2="702.534" gradientUnits="userSpaceOnUse">
<stop offset="0.00198415" stop-color="#DC0046"/>
<stop offset="1" stop-color="#FB1919"/>
</linearGradient>
<linearGradient id="paint4_linear_2287_6002" x1="1450.77" y1="747.983" x2="1450.77" y2="675.597" gradientUnits="userSpaceOnUse">
<stop offset="0.0171" stop-color="#FB9F8B"/>
<stop offset="1" stop-color="#FBD1BD"/>
</linearGradient>
<radialGradient id="paint5_radial_2287_6002" cx="0" cy="0" r="1" gradientUnits="userSpaceOnUse" gradientTransform="translate(1450.18 674.162) scale(12.2747)">
<stop stop-color="#FBD1BD"/>
<stop offset="0.9829" stop-color="#FB9F8B"/>
</radialGradient>
<radialGradient id="paint6_radial_2287_6002" cx="0" cy="0" r="1" gradientUnits="userSpaceOnUse" gradientTransform="translate(1450.03 670.084) scale(16.0115 13.7567)">
<stop stop-color="#FBD1BD"/>
<stop offset="0.9829" stop-color="#FBBAAD"/>
</radialGradient>
<linearGradient id="paint7_linear_2287_6002" x1="1439.1" y1="716.61" x2="1439.1" y2="666.006" gradientUnits="userSpaceOnUse">
<stop stop-color="white"/>
<stop offset="1" stop-color="#FB2E39"/>
</linearGradient>
<linearGradient id="paint8_linear_2287_6002" x1="1454.42" y1="718.713" x2="1454.42" y2="666.149" gradientUnits="userSpaceOnUse">
<stop stop-color="white"/>
<stop offset="1" stop-color="#FBCA00"/>
</linearGradient>
<linearGradient id="paint9_linear_2287_6002" x1="1465.75" y1="713.582" x2="1465.75" y2="666.006" gradientUnits="userSpaceOnUse">
<stop stop-color="white"/>
<stop offset="1" stop-color="#8000CB"/>
</linearGradient>
</defs>
</svg>
