<svg width="1920" height="1000" viewBox="0 0 1920 1000" fill="none" xmlns="http://www.w3.org/2000/svg">
<path opacity="0.25" fill-rule="evenodd" clip-rule="evenodd" d="M1246.8 682.21L1238 682.62L1217.3 683.62L1206.17 684.16L1196.54 684.62L1188.65 685L1180.91 685.38L1150.73 686.82L1147.39 686.99L1144.7 687.12L1143.55 687.18L1145.18 623.54H1000.67L1003.02 560.23H773.52H769L779.68 847.89L814.39 862.48H1080.95L1081.27 852.9H1117.18L1120.04 863.19H1120.05H1277.2L1278.87 813.52L1279.68 789.03L1282.41 707.69L1282.62 701.17L1283.32 680.43L1246.8 682.21ZM829.95 825.79L828.75 730.52H967.35L969.79 825.79H829.95ZM975.47 809L974.54 730.51H976.92L975.47 809ZM977.27 712.09H974.33L973.38 631.95H978.75L977.27 712.09ZM978.91 623.55H964.6L966.87 712.09H809.36L813.16 825.78H796.88L792.35 582.34H979.67L978.91 623.55ZM1065.54 844.49L1065.55 844.5H992.47V844.49L992.48 844.07L996.7 730.51H1066.61L1065.18 844.07L1065.54 844.49ZM1135.73 687.56L1120.05 688.33V844.5H1081.55V844.49L1085.99 712.09H997.38L1000.36 631.95H1136.39L1135.73 687.56Z" fill="url(#paint0_linear_2287_6001)"/>
<g opacity="0.2">
<g opacity="0.2">
<path opacity="0.2" fill-rule="evenodd" clip-rule="evenodd" d="M794.08 837.87H721V837.86H794.07L794.08 837.87Z" fill="url(#paint1_linear_2287_6001)"/>
<path opacity="0.2" d="M848.58 837.86H810.08V837.87H848.58V837.86Z" fill="url(#paint2_linear_2287_6001)"/>
</g>
<g opacity="0.2">
<path opacity="0.2" fill-rule="evenodd" clip-rule="evenodd" d="M794.08 837.87H721V837.86L721.01 837.43H793.71L794.07 837.86L794.08 837.87Z" fill="url(#paint3_linear_2287_6001)"/>
</g>
</g>
<path fill-rule="evenodd" clip-rule="evenodd" d="M770.391 548L781.071 840.94H993.741L1004.42 548H770.391ZM976.561 818.43H798.271L793.741 570.52H981.071L976.561 818.43Z" fill="#A62738"/>
<path d="M998.41 551.92L981.07 570.52H793.74L776.42 551.92H998.41Z" fill="#7E0C19"/>
<path fill-rule="evenodd" clip-rule="evenodd" d="M989.511 836.37H786.551L798.461 818.43H976.841L989.511 836.37Z" fill="#D35B41"/>
<path fill-rule="evenodd" clip-rule="evenodd" d="M965.99 612.48L971.88 846.05H1140.68L1146.57 612.48H965.99ZM1135.28 837.49H977.29L974.78 621.04H1137.79L1135.28 837.49Z" fill="#682738"/>
<path fill-rule="evenodd" clip-rule="evenodd" d="M1143.62 614.76L1137.79 621.04H974.78L968.95 614.76H1143.62Z" fill="#4F0C19"/>
<path fill-rule="evenodd" clip-rule="evenodd" d="M1138.34 843.75H974.391L977.291 837.48H1135.45L1138.34 843.75Z" fill="#B54841"/>
<path fill-rule="evenodd" clip-rule="evenodd" d="M1082.35 855.8H815.791L822.551 847.76L1074.98 847.04L1082.35 855.8Z" fill="#EE711D"/>
<path fill-rule="evenodd" clip-rule="evenodd" d="M1087.39 702.65L1082.35 855.8L1074.98 847.04H1075.15L1077.3 712.42L1087.39 702.65Z" fill="#F47D29"/>
<path fill-rule="evenodd" clip-rule="evenodd" d="M1087.39 702.65L1077.3 712.42L820.451 712.03L810.761 702.65H1087.39Z" fill="#FFC24A"/>
<path fill-rule="evenodd" clip-rule="evenodd" d="M822.551 847.76L815.791 855.8L810.761 702.65L820.451 712.03L822.551 847.76Z" fill="#FF9A3E"/>
<path fill-rule="evenodd" clip-rule="evenodd" d="M1074.98 847.04L822.551 847.76L831.571 837.04H1066.58L1074.98 847.04Z" fill="#FFC24A"/>
<path fill-rule="evenodd" clip-rule="evenodd" d="M1077.3 712.42L1075.15 847.04H1074.98L1066.58 837.04L1068 721.41L1077.3 712.42Z" fill="#FF9A3E"/>
<path fill-rule="evenodd" clip-rule="evenodd" d="M1077.3 712.42L1068 721.41H830.151L820.451 712.03L1077.3 712.42Z" fill="#EE711D"/>
<path fill-rule="evenodd" clip-rule="evenodd" d="M831.571 837.04L822.551 847.76L820.451 712.03L830.151 721.41L831.571 837.04Z" fill="#F47D29"/>
<path fill-rule="evenodd" clip-rule="evenodd" d="M1284.72 670.42L1284.02 691.54L1283.8 698.18L1281.08 781.01L1280.26 805.95L1278.6 856.53H1121.44V678.45L1140.94 677.48L1143.62 677.36L1146.1 677.23L1148.78 677.09L1152.12 676.93L1182.3 675.46L1190.05 675.07L1197.94 674.68L1207.57 674.21L1218.7 673.65L1239.4 672.64L1248.19 672.22L1284.72 670.42Z" fill="#F46D38"/>
<path fill-rule="evenodd" clip-rule="evenodd" d="M1118.77 681.23L1121.44 678.44V856.53L1118.57 853.67L1118.77 681.23Z" fill="#A62024"/>
<path fill-rule="evenodd" clip-rule="evenodd" d="M1191.03 856.53H1152.12V676.93L1182.3 675.46L1191.03 856.53Z" fill="#EA6133"/>
<path fill-rule="evenodd" clip-rule="evenodd" d="M1214 856.53H1203.68L1190.05 675.07L1197.94 674.68L1214 856.53Z" fill="#EA6133"/>
<path fill-rule="evenodd" clip-rule="evenodd" d="M1143.62 677.36V856.53H1140.94V677.48L1143.62 677.36Z" fill="#EA6133"/>
<path fill-rule="evenodd" clip-rule="evenodd" d="M1281.08 781.01L1280.27 805.95C1254.53 784.69 1210.59 739.12 1207.58 674.21L1218.71 673.66C1223.43 695.71 1238.24 744.16 1281.08 781.01Z" fill="#EA6133"/>
<path fill-rule="evenodd" clip-rule="evenodd" d="M1284.02 691.54L1283.81 698.18C1258.95 692 1245.57 679.99 1239.41 672.64L1248.2 672.21C1259.11 682.96 1273.42 688.63 1284.02 691.54Z" fill="#EA6133"/>
<path opacity="0.57" fill-rule="evenodd" clip-rule="evenodd" d="M1138.34 726.62L1148.97 790.85H1158.15L1162.74 721.41L1138.34 726.62Z" fill="#DC72B5"/>
<path opacity="0.57" fill-rule="evenodd" clip-rule="evenodd" d="M1173.9 702.77L1219.21 688.89L1224.95 761.08L1211.68 766.49L1204.01 718.31L1209.75 797.17L1188.72 800.62L1173.9 702.77Z" fill="#FFC24A"/>
<path fill-rule="evenodd" clip-rule="evenodd" d="M1238.35 790.94L1246.48 770.88V776.51L1257.59 763.47L1269.44 769.03L1253.89 813.47L1245 806.14L1238.35 809.4L1236.11 797.55L1238.35 790.94Z" fill="#CC0000"/>
<path fill-rule="evenodd" clip-rule="evenodd" d="M1202.96 836.42L1226.48 814.51L1239.64 812.73L1236.22 826.12L1218.99 842.54L1214.12 839.17L1204.72 841.69L1202.96 836.42Z" fill="#D13E00"/>
<defs>
<linearGradient id="paint0_linear_2287_6001" x1="768.997" y1="711.719" x2="1283.32" y2="711.719" gradientUnits="userSpaceOnUse">
<stop/>
<stop offset="1"/>
</linearGradient>
<linearGradient id="paint1_linear_2287_6001" x1="720.997" y1="837.864" x2="794.077" y2="837.864" gradientUnits="userSpaceOnUse">
<stop stop-color="#A48495"/>
<stop offset="1" stop-color="#8B2C8D"/>
</linearGradient>
<linearGradient id="paint2_linear_2287_6001" x1="810.077" y1="837.864" x2="848.577" y2="837.864" gradientUnits="userSpaceOnUse">
<stop stop-color="#A48495"/>
<stop offset="1" stop-color="#8B2C8D"/>
</linearGradient>
<linearGradient id="paint3_linear_2287_6001" x1="720.997" y1="837.649" x2="794.077" y2="837.649" gradientUnits="userSpaceOnUse">
<stop stop-color="#A48495"/>
<stop offset="1" stop-color="#8B2C8D"/>
</linearGradient>
</defs>
</svg>
