<svg width="1920" height="1000" viewBox="0 0 1920 1000" fill="none" xmlns="http://www.w3.org/2000/svg">
<g clip-path="url(#clip0_2287_6003)">
<path d="M1920 0H0V1000H1920V0Z" fill="url(#paint0_linear_2287_6003)"/>
<path d="M1920 822H0V1000H1920V822Z" fill="url(#paint1_linear_2287_6003)"/>
<path d="M1920 803H0V820H1920V803Z" fill="#FFF7EE" fill-opacity="0.05"/>
<path d="M1920 805H0V822H1920V805Z" fill="#3C3750"/>
<g style="mix-blend-mode:multiply" opacity="0.3">
<path d="M1920 822H0V833H1920V822Z" fill="#892765"/>
</g>
<g opacity="0.5">
<g style="mix-blend-mode:multiply" opacity="0.5">
<path fill-rule="evenodd" clip-rule="evenodd" d="M3865.45 919.33L-71.0098 939.99L-71.0498 936.7L3834.3 914.22L3865.45 919.33Z" fill="url(#paint2_radial_2287_6003)"/>
</g>
<g style="mix-blend-mode:multiply" opacity="0.5">
<path fill-rule="evenodd" clip-rule="evenodd" d="M3859.88 891.79L-18.5596 897.83L-8.06957 894.82L3851.91 890.07L3859.88 891.79Z" fill="url(#paint3_radial_2287_6003)"/>
</g>
<g style="mix-blend-mode:multiply" opacity="0.5">
<path fill-rule="evenodd" clip-rule="evenodd" d="M3849.53 863.3L-15.0898 868.09L-9.92984 866.6L3846.62 862.54L3849.53 863.3Z" fill="url(#paint4_radial_2287_6003)"/>
</g>
<g style="mix-blend-mode:multiply" opacity="0.5">
<path fill-rule="evenodd" clip-rule="evenodd" d="M3849.36 969.9L1870.34 980.14L-2.91016 980.28L-2.89016 989.07L3849.36 977.41V969.9Z" fill="url(#paint5_radial_2287_6003)"/>
</g>
<g style="mix-blend-mode:multiply" opacity="0.5">
<path fill-rule="evenodd" clip-rule="evenodd" d="M3854.3 841.29L-7.96973 841.46L3848.44 839.78L3854.3 841.29Z" fill="url(#paint6_radial_2287_6003)"/>
</g>
</g>
<path opacity="0.05" fill-rule="evenodd" clip-rule="evenodd" d="M799.681 893.06H1085.21L1148.46 865.87L840.601 866.42L747.621 893.15L799.681 893.06Z" fill="url(#paint7_linear_2287_6003)"/>
<g style="mix-blend-mode:multiply" opacity="0.2">
<path fill-rule="evenodd" clip-rule="evenodd" d="M2643.95 999.98L2613.07 979.48L1593.86 984.211L1569.13 999.98H2643.95Z" fill="url(#paint8_linear_2287_6003)"/>
</g>
<g style="mix-blend-mode:multiply" opacity="0.2">
<path fill-rule="evenodd" clip-rule="evenodd" d="M-481.359 980.28H344.681L423.481 942.4L-210.579 940.38L-481.279 942.4L-481.359 980.28Z" fill="url(#paint9_linear_2287_6003)"/>
</g>
<g style="mix-blend-mode:multiply" opacity="0.2">
<path fill-rule="evenodd" clip-rule="evenodd" d="M3840 0L3839.42 78.96C3839.42 78.96 2399.93 42.87 1920 43.99C1473.91 45.04 136.09 84.86 136.09 84.86L113.9 550.94L0.58 87.96L0 0H3840Z" fill="url(#paint10_linear_2287_6003)"/>
</g>
<g opacity="0.1">
<path opacity="0.14" fill-rule="evenodd" clip-rule="evenodd" d="M511.59 637.94L272.71 717.65L194.42 173.64L508.04 217.22L511.59 637.94Z" fill="white"/>
<path opacity="0.14" fill-rule="evenodd" clip-rule="evenodd" d="M651.69 726.16L611.79 763.37L645.96 320.2L703.74 347.71L651.69 726.16Z" fill="#29ABE2"/>
<path opacity="0.14" fill-rule="evenodd" clip-rule="evenodd" d="M998.2 473.44H847.45L794.74 143.16L1044.51 170.67L998.2 473.44Z" fill="#F2F2F2"/>
<path opacity="0.14" d="M681.519 493.61L534.379 459.87L512.609 98.04L681.519 136.21V493.61Z" fill="#F2F2F2"/>
<path opacity="0.14" d="M45.51 605.47L181.72 631.93L128.06 124.68H18L45.51 605.47Z" fill="#F2F2F2"/>
<path opacity="0.14" fill-rule="evenodd" clip-rule="evenodd" d="M1314.8 722.84L1189.72 688.28V489.79H1298.4L1314.8 722.84Z" fill="white"/>
<path opacity="0.14" fill-rule="evenodd" clip-rule="evenodd" d="M721.4 659.08L884.63 630.33L887.59 553.7H749.97L721.4 659.08Z" fill="white"/>
<path opacity="0.14" d="M1830.84 605.63L1967.05 632.08L1913.39 124.83H1803.33L1830.84 605.63Z" fill="#F2F2F2"/>
<path opacity="0.14" d="M1353.26 383.98L1260.43 383.27V173.64H1402.01L1353.26 383.98Z" fill="#29ABE2"/>
<path opacity="0.14" d="M1562.06 98.04L1609.75 134.63L1590.49 306.55L1552.28 321.83L1562.06 98.04Z" fill="white"/>
<path opacity="0.14" d="M1471.35 410.19L1423.66 373.6L1442.92 201.68L1481.13 186.4L1471.35 410.19Z" fill="#F2F2F2"/>
<path opacity="0.14" d="M1730.32 743.98L1612 644.29L1631.37 119.62L1708.54 97.9502L1730.32 743.98Z" fill="#F2F2F2"/>
</g>
</g>
<defs>
<linearGradient id="paint0_linear_2287_6003" x1="0.0017497" y1="500" x2="1920" y2="500" gradientUnits="userSpaceOnUse">
<stop stop-color="#13111B"/>
<stop offset="1" stop-color="#302B44"/>
</linearGradient>
<linearGradient id="paint1_linear_2287_6003" x1="0.0017497" y1="911" x2="1920" y2="911" gradientUnits="userSpaceOnUse">
<stop stop-color="#302B41"/>
<stop offset="1" stop-color="#2B273D"/>
</linearGradient>
<radialGradient id="paint2_radial_2287_6003" cx="0" cy="0" r="1" gradientUnits="userSpaceOnUse" gradientTransform="translate(1897.2 927.106) scale(1391.79 1391.79)">
<stop stop-color="#E9D8D2"/>
<stop offset="0.3972" stop-color="#E8D6D0"/>
<stop offset="0.5938" stop-color="#E6D0C8"/>
<stop offset="0.7463" stop-color="#E3C6BB"/>
<stop offset="0.8754" stop-color="#DDB7A8"/>
<stop offset="0.9898" stop-color="#D7A491"/>
<stop offset="1" stop-color="#D6A28E"/>
</radialGradient>
<radialGradient id="paint3_radial_2287_6003" cx="0" cy="0" r="1" gradientUnits="userSpaceOnUse" gradientTransform="translate(1920.66 893.952) scale(1371.24 1371.24)">
<stop stop-color="#E9D8D2"/>
<stop offset="0.3972" stop-color="#E8D6D0"/>
<stop offset="0.5938" stop-color="#E6D0C8"/>
<stop offset="0.7463" stop-color="#E3C6BB"/>
<stop offset="0.8754" stop-color="#DDB7A8"/>
<stop offset="0.9898" stop-color="#D7A491"/>
<stop offset="1" stop-color="#D6A28E"/>
</radialGradient>
<radialGradient id="paint4_radial_2287_6003" cx="0" cy="0" r="1" gradientUnits="userSpaceOnUse" gradientTransform="translate(1917.22 865.317) scale(1366.35 1366.36)">
<stop stop-color="#E9D8D2"/>
<stop offset="0.3972" stop-color="#E8D6D0"/>
<stop offset="0.5938" stop-color="#E6D0C8"/>
<stop offset="0.7463" stop-color="#E3C6BB"/>
<stop offset="0.8754" stop-color="#DDB7A8"/>
<stop offset="0.9898" stop-color="#D7A491"/>
<stop offset="1" stop-color="#D6A28E"/>
</radialGradient>
<radialGradient id="paint5_radial_2287_6003" cx="0" cy="0" r="1" gradientUnits="userSpaceOnUse" gradientTransform="translate(1923.22 979.485) scale(1362 1362)">
<stop stop-color="#E9D8D2"/>
<stop offset="0.3972" stop-color="#E8D6D0"/>
<stop offset="0.5938" stop-color="#E6D0C8"/>
<stop offset="0.7463" stop-color="#E3C6BB"/>
<stop offset="0.8754" stop-color="#DDB7A8"/>
<stop offset="0.9898" stop-color="#D7A491"/>
<stop offset="1" stop-color="#D6A28E"/>
</radialGradient>
<radialGradient id="paint6_radial_2287_6003" cx="0" cy="0" r="1" gradientUnits="userSpaceOnUse" gradientTransform="translate(1923.16 840.617) scale(1365.52 1365.51)">
<stop stop-color="#E9D8D2"/>
<stop offset="0.3972" stop-color="#E8D6D0"/>
<stop offset="0.5938" stop-color="#E6D0C8"/>
<stop offset="0.7463" stop-color="#E3C6BB"/>
<stop offset="0.8754" stop-color="#DDB7A8"/>
<stop offset="0.9898" stop-color="#D7A491"/>
<stop offset="1" stop-color="#D6A28E"/>
</radialGradient>
<linearGradient id="paint7_linear_2287_6003" x1="747.618" y1="879.511" x2="1148.46" y2="879.511" gradientUnits="userSpaceOnUse">
<stop/>
<stop offset="1"/>
</linearGradient>
<linearGradient id="paint8_linear_2287_6003" x1="1569.13" y1="989.733" x2="2643.95" y2="989.733" gradientUnits="userSpaceOnUse">
<stop stop-color="#890041"/>
<stop offset="1" stop-color="#CCB8B8"/>
</linearGradient>
<linearGradient id="paint9_linear_2287_6003" x1="-481.357" y1="960.327" x2="423.484" y2="960.327" gradientUnits="userSpaceOnUse">
<stop stop-color="#890041"/>
<stop offset="1" stop-color="#CCB8B8"/>
</linearGradient>
<linearGradient id="paint10_linear_2287_6003" x1="1920" y1="550.936" x2="1920" y2="0" gradientUnits="userSpaceOnUse">
<stop stop-color="#A48495"/>
<stop offset="1" stop-color="#8B2C8D"/>
</linearGradient>
<clipPath id="clip0_2287_6003">
<rect width="1920" height="1000" fill="white"/>
</clipPath>
</defs>
</svg>
