<svg width="80" height="47" fill="none" xmlns="http://www.w3.org/2000/svg"><path clip-rule="evenodd" d="M48.696 45.968H1V1h31.34l16.314 16.352v14.392l.042 14.224z" stroke="#fff" stroke-width=".5"/><path d="M1 45.968h47.696L1 1v44.968z" stroke="#fff" stroke-width=".5"/><path clip-rule="evenodd" d="M48.124 1.001c12.37 0 22.416 10.053 22.416 22.484 0 12.39-10.045 22.484-22.416 22.484-12.328 0-22.374-10.095-22.374-22.484 0-12.43 10.046-22.484 22.374-22.484z" stroke="#fff" stroke-width=".5"/><path clip-rule="evenodd" d="M66.88 35.78C62.893 41.954 55.961 46 48.116 46c-12.33 0-22.375-10.053-22.375-22.484 0-7.884 4.068-14.808 10.17-18.855L66.88 35.78z" stroke="url(#paint0_linear_4256_31189)" stroke-width=".5"/><path clip-rule="evenodd" d="M66.88 35.78C62.893 41.954 55.961 46 48.116 46c-12.33 0-22.375-10.053-22.375-22.484 0-7.884 4.068-14.808 10.17-18.855L66.88 35.78z" stroke="#fff" stroke-width=".5"/><path fill-rule="evenodd" clip-rule="evenodd" d="M49.4 5.63c-9.797 0-17.767 7.968-17.767 17.855 0 9.844 7.97 17.853 17.766 17.853 4.65 0 8.883-1.835 12.08-4.755l-4.4-4.38a11.614 11.614 0 01-7.68 2.92c-6.392 0-11.623-5.214-11.623-11.638 0-6.466 5.23-11.68 11.623-11.68 2.948 0 5.646 1.126 7.68 2.961l4.4-4.38c-3.197-2.961-7.43-4.755-12.08-4.755zm-36.945 6.05v9.218h14.073v5.757H12.455v14.391H6.187V5.923h22.5v5.756H12.454z" fill="#fff"/><path d="M75.267 8.76c2.076 0 3.736-1.71 3.736-3.755 0-2.086-1.619-3.796-3.736-3.796-2.075 0-3.736 1.752-3.736 3.796 0 2.086 1.62 3.754 3.736 3.754zm0-.418c-1.91 0-3.32-1.46-3.32-3.337 0-1.835 1.41-3.379 3.32-3.379 1.868 0 3.28 1.502 3.28 3.337 0 1.877-1.412 3.38-3.28 3.38zm-1.536-1.46h.872V5.589h.664l.872 1.293h1.038l-.997-1.418c.499-.209.872-.584.872-1.252 0-.375-.124-.667-.332-.876-.29-.292-.706-.458-1.245-.458H73.73v4.004zm.872-2.044V3.67h.83c.457 0 .706.209.706.584 0 .334-.208.584-.664.584h-.872z" fill="#fff"/><defs><linearGradient id="paint0_linear_4256_31189" x1="21.536" y1="-3.605" x2="17.066" y2="38.913" gradientUnits="userSpaceOnUse"><stop stop-color="#1165A1"/><stop offset="1" stop-color="#2276B2"/></linearGradient></defs></svg>