<svg width="159" height="45" fill="none" xmlns="http://www.w3.org/2000/svg"><g clip-path="url(#clip0_4256_31692)"><path d="M39.153 2.315v17.72c0 12.366-8.314 22.49-18.478 22.49-10.163 0-18.476-10.12-18.476-22.49V2.315h36.954z" fill="#fff"/><path d="M38.84 29.42v2.5a1.846 1.846 0 00-1.502-.775h-.135c-.418 0-.824.143-1.153.405-.328.261-.56.627-.659 1.038h-.105c-.1-.41-.333-.776-.66-1.037a1.858 1.858 0 00-1.152-.406h-.135a1.859 1.859 0 00-1.152.406c-.328.261-.56.626-.66 1.037h-.105a1.903 1.903 0 00-.66-1.038 1.856 1.856 0 00-1.152-.405h-.135a1.856 1.856 0 00-1.152.405c-.328.262-.56.627-.66 1.038h-.105a1.9 1.9 0 00-.66-1.037 1.857 1.857 0 00-1.152-.406h-.137a1.86 1.86 0 00-1.15.406 1.896 1.896 0 00-.661 1.037h-.104a1.893 1.893 0 00-.66-1.038 1.856 1.856 0 00-1.152-.405h-.135a1.844 1.844 0 00-1.502.775v-2.5H38.84z" fill="#1D1324"/><path d="M22.225 32.15h-.921c-.11 0-.198.042-.198.093v11.808c0 .052.088.093.198.093h.92c.11 0 .2-.041.2-.093V32.243c0-.05-.09-.093-.2-.093zm3.929 0h-1.036c-.123 0-.223.042-.223.093v11.808c0 .052.1.093.223.093h1.036c.123 0 .223-.041.223-.093V32.243c0-.05-.1-.093-.223-.093zm3.954 0h-1.036c-.123 0-.223.042-.223.093v11.808c0 .052.1.093.223.093h1.036c.123 0 .223-.041.223-.093V32.243c0-.05-.1-.093-.223-.093zm3.815 0h-.92c-.11 0-.2.042-.2.093v11.808c0 .052.09.093.2.093h.92c.11 0 .198-.041.198-.093V32.243c0-.05-.089-.093-.198-.093zm3.923 0H36.81c-.123 0-.223.042-.223.093v11.808c0 .052.1.093.223.093h1.036c.123 0 .223-.041.223-.093V32.243c0-.05-.1-.093-.223-.093zm2.518-6.64h-21.63v2.36h21.63v-2.36zm3.775-21.035H14.883v2.36h29.256v-2.36zm-27.102 6.278h24.995l.447-2.36H16.587l.45 2.36zm29.277 7.691a4.739 4.739 0 01-1.425 3.254 4.633 4.633 0 01-3.268 1.32c-2.762 0-4.702-1.872-4.837-3.889-.199-2.98 2.077-4.331 3.736-4.331 1.317 0 3.17 1.148 3.098 3.068-.035 1.033-.766 2.5-2.677 2.5-1.44 0-2.14-.914-2.154-1.743-.021-1.333.756-2.156 1.79-2.126.944.027 1.305 1.076.952 1.51-.634.782-1.512-.052-1.512-.052-.127 1.676 2.395 1.697 2.441-.295.025-1.08-1.039-1.893-2-1.893-1.203 0-2.677.957-2.676 2.882 0 1.59 1.506 3.059 3.507 3.059 1.877 0 3.342-1.611 3.4-3.598.09-3.132-1.898-4.598-4.245-4.598-2.933 0-5.793 3.29-5.058 6.203 0 0 .308 2 3.12 4.402l-4.166-.045c-.764-.875-1.258-2.27-1.258-3.832 0-1.9.724-3.541 1.777-4.32h-.02c-1.737 0-3.146 2.15-3.146 4.798a6.27 6.27 0 00.891 3.342l-3.035-.033-3.035.033a6.284 6.284 0 00.889-3.342c0-2.648-1.408-4.797-3.146-4.797h-.018c1.05.778 1.777 2.419 1.777 4.32 0 1.569-.494 2.963-1.258 3.83l-4.165.046c2.811-2.396 3.119-4.402 3.119-4.402.735-2.913-2.125-6.203-5.058-6.203-2.345 0-4.37 1.692-4.246 4.498.086 1.985 1.525 3.696 3.401 3.696 2.003 0 3.505-1.47 3.507-3.058 0-1.926-1.473-2.882-2.675-2.882-.962 0-2.024.813-2 1.892.045 2 2.568 1.97 2.44.295 0 0-.878.833-1.512.052-.351-.433.01-1.483.952-1.51 1.034-.03 1.811.798 1.79 2.126-.015.833-.713 1.744-2.154 1.742-1.91 0-2.636-1.46-2.677-2.498-.07-1.921 1.773-3.069 3.098-3.069 1.659 0 3.937 1.345 3.737 4.331-.135 2.018-2.075 3.889-4.838 3.889a4.633 4.633 0 01-3.268-1.32 4.739 4.739 0 01-1.425-3.253c-.122-3.982 2.635-5.716 5.867-5.716a6.41 6.41 0 012.874.635c1.317.653 3.91 2.037 5.6 1.776a3.069 3.069 0 001.45-.59c.426-.318.764-.742.98-1.231.217.489.554.913.98 1.232.425.319.924.522 1.45.589 1.687.261 4.282-1.123 5.6-1.776a6.403 6.403 0 012.872-.635c3.231.002 5.979 1.736 5.857 5.717z" fill="#1D1324"/><path d="M28.029 12.447v.267c-.095.214-.243.4-.43.538a1.335 1.335 0 01-.636.255c-.741.116-2.742-.921-3.162-1.06h4.228zm3.042 0v.267a1.348 1.348 0 001.066.793c.741.116 2.742-.921 3.164-1.06h-4.23z" fill="#1D1324"/><path d="M40.67.666v19.169c0 13.38-8.996 24.321-19.993 24.321C9.68 44.156.684 33.22.684 19.835V.666H40.67z" stroke="#fff" stroke-width="1.314" stroke-miterlimit="10"/><path d="M54.514 11.699v-.227a.724.724 0 00.443-.241c.079-.218.11-.45.09-.682V6.563c0-.385-.036-.623-.107-.715a.758.758 0 00-.426-.216v-.227h4.206v1.393h-.451a2.46 2.46 0 00-.353-.766c-.12-.147-.329-.22-.63-.22h-1.387v2.332c.439-.037.823-.055 1.153-.055 1.378 0 2.067.582 2.068 1.747 0 1.245-.761 1.868-2.284 1.868l-2.322-.005zm1.385-3.145v2.71c.222.018.472.028.752.028.55 0 .945-.116 1.188-.348.243-.232.362-.586.357-1.063 0-.91-.467-1.364-1.403-1.364a7.906 7.906 0 00-.894.037zm7.645 3.145v-.227a.718.718 0 00.438-.241c.061-.1.09-.333.09-.682V8.567c0-.647.007-1.064.019-1.25h-.012l-2.592 3.232c0 .37.031.602.097.697a.72.72 0 00.432.226v.227h-1.913v-.227a.733.733 0 00.445-.241c.061-.1.092-.333.092-.682V6.563c0-.406-.04-.651-.118-.733a.856.856 0 00-.419-.198v-.227h1.906v.227a.82.82 0 00-.418.205c-.074.085-.11.333-.11.726V8.59c0 .456-.01.838-.029 1.148h.028l2.6-3.23a1.385 1.385 0 00-.094-.636.72.72 0 00-.435-.239v-.226h1.895v.226a.82.82 0 00-.416.205c-.074.085-.112.334-.112.727v3.986c0 .37.033.601.098.696a.72.72 0 00.43.227v.226l-1.902-.001zm2.981-.193v-1.291h.443c.149.436.33.738.526.9.238.176.529.263.823.247a1.242 1.242 0 00.942-.351 1.41 1.41 0 00.34-1.013 1.429 1.429 0 00-.203-.833.938.938 0 00-.504-.381 2.849 2.849 0 00-.794-.09h-.724v-.537h.738c.479 0 .823-.108 1.044-.325.22-.216.33-.546.33-.989a1.058 1.058 0 00-.316-.813 1.145 1.145 0 00-.806-.293 1.307 1.307 0 00-.814.235 1.87 1.87 0 00-.535.844h-.442V5.604a7.912 7.912 0 011.942-.272c1.255 0 1.882.483 1.882 1.448 0 .722-.4 1.244-1.204 1.567v.064c.889.256 1.332.78 1.331 1.572a1.62 1.62 0 01-.571 1.321c-.382.312-.947.468-1.693.468a6.175 6.175 0 01-1.735-.266zm9.877-.96a3.81 3.81 0 00.015.4.83.83 0 00.044.215.453.453 0 00.078.131.43.43 0 00.13.092c.084.038.172.068.262.088v.227h-1.909v-.227a.985.985 0 00.35-.143.418.418 0 00.14-.24c.032-.179.045-.361.039-.543V8.614h-2.535v1.932c-.003.15.004.302.02.452a.69.69 0 00.069.226.393.393 0 00.142.138c.096.05.198.087.303.11v.227h-1.92v-.227a.929.929 0 00.378-.166.443.443 0 00.125-.257c.023-.165.033-.332.03-.5V6.558a3.428 3.428 0 00-.022-.463.614.614 0 00-.075-.227.382.382 0 00-.139-.128 1.461 1.461 0 00-.296-.108v-.227h1.919v.227c-.1.021-.198.055-.29.1a.443.443 0 00-.142.128.57.57 0 00-.077.228c-.02.156-.028.313-.025.47v1.63h2.535v-1.63a2.48 2.48 0 00-.04-.548.43.43 0 00-.13-.227.995.995 0 00-.359-.151v-.227h1.904v.227a.982.982 0 00-.356.145.418.418 0 00-.136.241c-.03.179-.042.36-.037.54l.005 3.988zm5.9-5.141v1.393h-.447a3.702 3.702 0 00-.141-.397c-.04-.1-.091-.196-.15-.286a.738.738 0 00-.165-.185.552.552 0 00-.22-.093 1.61 1.61 0 00-.305-.025h-1.441v2.415h.975a.707.707 0 00.308-.053.444.444 0 00.19-.197c.066-.137.114-.283.142-.433h.429v1.771h-.432a1.711 1.711 0 00-.14-.416.498.498 0 00-.186-.202.672.672 0 00-.321-.06h-.975v2.665h1.418c.122.004.244-.01.362-.04a.557.557 0 00.24-.133.863.863 0 00.177-.246 2.27 2.27 0 00.13-.315c.035-.11.082-.268.143-.478h.452l-.086 1.619h-4.218v-.237a.95.95 0 00.379-.166.453.453 0 00.125-.257 3.14 3.14 0 00.03-.5V6.558a3.364 3.364 0 00-.023-.463.614.614 0 00-.076-.227.382.382 0 00-.138-.128 1.46 1.46 0 00-.297-.108v-.227h4.26zm5.301.135v1.277h-.451a2.052 2.052 0 00-.279-.638.99.99 0 00-.392-.333 1.304 1.304 0 00-.538-.102 1.244 1.244 0 00-.837.317 2.086 2.086 0 00-.576.95 4.958 4.958 0 00-.21 1.532 5.97 5.97 0 00.173 1.542c.082.362.258.695.511.963a1.15 1.15 0 00.823.333c.21.008.418-.029.612-.108a.972.972 0 00.398-.343c.134-.215.238-.447.308-.691h.451v1.317a6.39 6.39 0 01-.877.167c-.328.04-.658.06-.989.058-.768 0-1.352-.264-1.75-.793-.399-.528-.597-1.317-.593-2.365a4.51 4.51 0 01.308-1.73c.178-.473.5-.878.918-1.157a2.366 2.366 0 011.414-.395 6.057 6.057 0 011.576.198zm6.551 6.159v-.227a.713.713 0 00.439-.241c.06-.1.092-.333.092-.682V8.567c0-.648 0-1.064.018-1.25h-.018L92.09 10.55c0 .37.033.602.097.697a.72.72 0 00.431.226v.227h-1.905v-.227a.734.734 0 00.445-.241c.062-.1.093-.333.093-.682V6.563c0-.406-.04-.651-.118-.733a.856.856 0 00-.42-.198v-.227h1.906v.227a.82.82 0 00-.417.205c-.076.085-.112.333-.112.726V8.59c0 .456-.01.838-.028 1.148h.028l2.594-3.232a1.385 1.385 0 00-.094-.636.73.73 0 00-.436-.238v-.227h1.897v.227a.82.82 0 00-.417.205c-.076.085-.112.333-.112.726v3.986c0 .37.033.602.097.697a.72.72 0 00.432.226v.227h-1.898zm8.736-4.588c-.094-.488-.211-.824-.347-1.008a.733.733 0 00-.62-.273h-1.317v4.701c-.018.238.025.476.123.693.081.135.27.218.565.248v.227h-2.073v-.227a.745.745 0 00.433-.216c.066-.092.1-.333.1-.707V6.563c0-.384-.036-.622-.108-.715a.746.746 0 00-.425-.216v-.227h4.117v1.706h-.448zm3.575 4.662a2.646 2.646 0 01-.988-.182 1.948 1.948 0 01-.771-.568 2.71 2.71 0 01-.494-.984 5.167 5.167 0 01-.175-1.433 4.57 4.57 0 01.31-1.766 2.45 2.45 0 01.886-1.123 2.36 2.36 0 011.339-.384c.48-.017.954.108 1.364.361.382.257.674.63.835 1.064.2.548.295 1.13.28 1.713a4.587 4.587 0 01-.32 1.82 2.367 2.367 0 01-.899 1.112 2.471 2.471 0 01-1.367.37zm-1.499-3.297c0 .945.137 1.662.409 2.152a1.297 1.297 0 001.191.738c.311.008.613-.107.843-.32.257-.257.437-.582.52-.938.12-.47.176-.956.165-1.442A5.781 5.781 0 00107.891 7c-.09-.367-.282-.7-.553-.961a1.223 1.223 0 00-.823-.3 1.255 1.255 0 00-.704.193 1.49 1.49 0 00-.494.552 2.83 2.83 0 00-.283.864c-.055.373-.078.75-.068 1.128zm9.372-2.936v1.277h-.451a1.98 1.98 0 00-.278-.638.997.997 0 00-.392-.333 1.305 1.305 0 00-.537-.102 1.244 1.244 0 00-.837.317 2.07 2.07 0 00-.576.95 4.906 4.906 0 00-.209 1.532 5.97 5.97 0 00.164 1.542c.081.362.258.695.511.963a1.149 1.149 0 00.823.333c.209.009.418-.028.611-.108a.962.962 0 00.399-.343c.135-.214.239-.447.308-.691h.451v1.317a6.308 6.308 0 01-.878.167c-.327.04-.657.06-.988.058-.771 0-1.355-.265-1.749-.793-.394-.528-.593-1.317-.593-2.365a4.48 4.48 0 01.308-1.73c.178-.473.499-.878.918-1.156a2.365 2.365 0 011.413-.396 6.069 6.069 0 011.582.198zm6.043.093a.87.87 0 00-.403.271c-.207.296-.38.615-.517.95l-1.295 2.82c-.392.852-.73 1.421-1.014 1.708a1.407 1.407 0 01-1.033.43 2.185 2.185 0 01-.688-.104v-1.184h.494c.028.356.176.534.446.534.362 0 .697-.298 1.003-.894l-1.482-3.282a7.407 7.407 0 00-.494-.97.774.774 0 00-.399-.28v-.226h1.955v.227c-.292.033-.436.156-.436.368.032.315.123.621.268.903l1.029 2.332.913-2.13c.159-.322.258-.67.291-1.029a.396.396 0 00-.015-.167.395.395 0 00-.377-.284v-.227h1.751l.003.234zm4.271 7.721a4.173 4.173 0 00-.177-.926 1.209 1.209 0 00-.316-.589.752.752 0 00-.479-.14h-2.726a.697.697 0 00-.673.422 3.44 3.44 0 00-.274 1.233h-.466v-2.08h.448a7.284 7.284 0 001.194-2.396 9.025 9.025 0 00.46-2.632.829.829 0 00-.091-.449.493.493 0 00-.366-.166v-.227h3.734v.227a.846.846 0 00-.426.201c-.075.084-.112.334-.112.73v4.711h.734v2.08h-.464zm-1.119-7.542h-1.281c-.184 2.36-.712 4.18-1.581 5.463h2.862V5.812zm5.583 5.887v-.227c.117-.02.231-.053.34-.101a.367.367 0 00.164-.155.55.55 0 00.055-.265 1.696 1.696 0 00-.037-.333 4.734 4.734 0 00-.103-.408l-.165-.595h-2.123l-.165.451a4.867 4.867 0 00-.155.517 1.7 1.7 0 00-.036.318.54.54 0 00.14.406c.123.097.27.155.425.167v.227h-1.943v-.229a.7.7 0 00.444-.3c.154-.228.277-.476.366-.738l1.901-5.102h.721l1.55 5.14c.054.186.118.37.193.549a.864.864 0 00.202.295.756.756 0 00.33.156v.227h-2.104zm-1.75-2.499h1.905l-.866-2.973-1.039 2.973zm5.875 1.331c-.002.146.008.291.03.435.013.09.044.177.091.255.04.063.097.114.164.148.106.047.216.082.33.103v.227h-2.002v-.227a.935.935 0 00.379-.166.439.439 0 00.125-.257c.024-.165.034-.332.03-.5V6.558a3.116 3.116 0 00-.023-.463.585.585 0 00-.074-.227.403.403 0 00-.14-.128 1.458 1.458 0 00-.297-.108v-.227h2.262c.711 0 1.241.138 1.588.413.349.275.522.693.522 1.256.004.296-.052.59-.165.862-.102.244-.262.46-.466.628a1.836 1.836 0 01-.71.35 3.395 3.395 0 01-.861.106c-.33 0-.6 0-.784-.018l.001 1.53zm0-1.912h.529a2.26 2.26 0 00.85-.137c.217-.086.398-.245.512-.451.129-.258.19-.545.178-.833a1.779 1.779 0 00-.106-.667 1.072 1.072 0 00-.288-.426 1.047 1.047 0 00-.439-.228 2.187 2.187 0 00-.557-.067c-.302 0-.527 0-.679.018v2.79zm8.121-3.079v1.277h-.451a2.002 2.002 0 00-.278-.638.997.997 0 00-.392-.333 1.305 1.305 0 00-.537-.102 1.244 1.244 0 00-.837.317 2.082 2.082 0 00-.576.95 4.907 4.907 0 00-.21 1.532 5.97 5.97 0 00.165 1.542c.081.362.257.695.511.963a1.144 1.144 0 00.823.333c.209.009.417-.028.611-.108a.97.97 0 00.4-.343c.134-.215.237-.448.307-.691h.451v1.317a6.396 6.396 0 01-.876.167 7.83 7.83 0 01-.988.058c-.769 0-1.352-.264-1.749-.793-.398-.528-.596-1.317-.593-2.365a4.462 4.462 0 01.308-1.73c.178-.473.499-.878.917-1.156a2.367 2.367 0 011.413-.396 6.058 6.058 0 011.581.198zm.806-.135h4.941v1.603h-.446a4.425 4.425 0 00-.2-.627 1.171 1.171 0 00-.207-.351.652.652 0 00-.234-.167 1.08 1.08 0 00-.377-.05h-.578v4.72c-.003.145.007.29.029.434a.72.72 0 00.091.255.432.432 0 00.165.149c.105.046.216.081.329.103v.226h-2.083v-.228a2.29 2.29 0 00.24-.07.52.52 0 00.165-.09.43.43 0 00.11-.135.851.851 0 00.068-.226c.019-.14.027-.28.024-.42v-4.72h-.573a1.305 1.305 0 00-.354.04.585.585 0 00-.257.167 1.28 1.28 0 00-.217.373 4.34 4.34 0 00-.185.612h-.451V5.405zm5.783 6.295v-.227a.942.942 0 00.379-.166.44.44 0 00.125-.257c.023-.165.033-.333.03-.5V6.56a3.116 3.116 0 00-.023-.463.585.585 0 00-.074-.227.403.403 0 00-.14-.128 1.458 1.458 0 00-.297-.108v-.227h2.494c.394-.013.787.04 1.164.157a1.3 1.3 0 01.659.463c.152.234.227.511.214.791a1.441 1.441 0 01-.55 1.185 2.779 2.779 0 01-.634.36v.041c.364.094.691.297.939.583.213.264.326.597.319.938.016.362-.081.72-.277 1.023-.19.27-.46.471-.772.575a3.583 3.583 0 01-1.202.178h-2.354zm2.184-3.472c.461 0 .824-.113 1.059-.333a1.256 1.256 0 00.367-.985 1.205 1.205 0 00-.102-.526.859.859 0 00-.283-.333 1.195 1.195 0 00-.425-.178 2.57 2.57 0 00-.534-.052c-.115 0-.268 0-.456.008-.188.009-.329.012-.423.019v2.389l.797-.009zm-.797 3.034c.221.021.469.031.743.031.316.015.631-.037.927-.151a.968.968 0 00.479-.45c.105-.233.155-.488.147-.745a1.499 1.499 0 00-.165-.738.988.988 0 00-.494-.433 2.446 2.446 0 00-.929-.143h-.706l-.002 2.629zm6.752.511a2.648 2.648 0 01-.988-.182 1.956 1.956 0 01-.771-.568 2.71 2.71 0 01-.494-.984 5.129 5.129 0 01-.174-1.433 4.513 4.513 0 01.309-1.766c.177-.456.486-.847.886-1.123.398-.26.864-.394 1.338-.384.48-.017.955.108 1.365.361.382.258.674.63.835 1.065a5.358 5.358 0 01-.039 3.533 2.37 2.37 0 01-.9 1.11 2.475 2.475 0 01-1.367.37zm-1.498-3.297c0 .945.135 1.662.406 2.152a1.29 1.29 0 001.193.738c.311.008.613-.107.843-.32.256-.257.437-.582.52-.937.12-.471.176-.957.165-1.443A5.78 5.78 0 00157.517 7a2.012 2.012 0 00-.555-.961 1.218 1.218 0 00-.824-.3 1.26 1.26 0 00-.705.193c-.207.14-.377.33-.494.552a2.888 2.888 0 00-.282.864c-.054.374-.076.75-.065 1.128z" fill="#fff"/><path d="M59.523 29.666a.965.965 0 00-.228.08.331.331 0 00-.11.1.446.446 0 00-.062.18 2.241 2.241 0 00-.021.37v3.144c-.002.12.004.238.016.357a.529.529 0 00.055.178.312.312 0 00.112.11c.076.038.156.067.239.087v.178h-1.5v-.178a.74.74 0 00.284-.117.334.334 0 00.109-.193c.022-.14.032-.28.028-.422v-1.392c0-.365 0-.737.016-1.11.017-.373.023-.631.038-.77h-.06l-1.425 3.604H56.6l-1.318-3.665h-.06a38.731 38.731 0 01.051 1.999v1.333a2.49 2.49 0 00.016.356.503.503 0 00.053.178.33.33 0 00.112.11c.076.038.156.068.239.087v.178h-1.318v-.178a.716.716 0 00.298-.13.357.357 0 00.099-.202 2.57 2.57 0 00.023-.4v-3.143a2.71 2.71 0 00-.018-.365.452.452 0 00-.06-.178.312.312 0 00-.11-.102 1.24 1.24 0 00-.232-.084v-.179h1.283l1.262 3.537 1.391-3.537h1.216l-.004.179zm4.377-.179v1.098h-.352a3.36 3.36 0 00-.11-.313 1.546 1.546 0 00-.119-.225.57.57 0 00-.135-.145.425.425 0 00-.174-.075 1.26 1.26 0 00-.24-.02h-1.137v1.904h.769a.568.568 0 00.248-.045.352.352 0 00.149-.155c.051-.105.09-.217.113-.333h.33v1.396h-.33a1.344 1.344 0 00-.112-.333.388.388 0 00-.144-.167.535.535 0 00-.254-.046h-.77v2.105h1.126a1.03 1.03 0 00.284-.031.433.433 0 00.19-.105.72.72 0 00.14-.195c.04-.08.075-.163.102-.248.028-.087.066-.212.114-.377h.355l-.069 1.276H60.54v-.178a.714.714 0 00.3-.13.357.357 0 00.099-.202 2.57 2.57 0 00.023-.4v-3.148a2.694 2.694 0 00-.018-.365.452.452 0 00-.06-.178.312.312 0 00-.11-.102 1.227 1.227 0 00-.234-.084v-.179h3.362zm6.05 4.963v-.178a31.483 31.483 0 01-.342-.901 14.111 14.111 0 00-.329-.873.807.807 0 00-.26-.333.733.733 0 00-.438-.117h-.34v1.5c0 .307.03.495.09.564a.667.667 0 00.329.166v.179h-1.49v-.178a.606.606 0 00.33-.167c.056-.072.082-.258.082-.562v-1.499h-.329a.733.733 0 00-.431.115.851.851 0 00-.269.345c-.072.155-.183.443-.33.868-.177.492-.29.792-.34.901v.178h-1.219v-.178a.717.717 0 00.458-.23c.13-.168.234-.355.311-.554l.316-.732c.22-.496.509-.8.867-.913v-.028a.97.97 0 01-.33-.318 4.121 4.121 0 01-.275-.666 3.538 3.538 0 00-.29-.667.33.33 0 00-.276-.166c-.165 0-.272.103-.31.308h-.35v-.785c.145-.048.296-.075.447-.08.35 0 .598.09.746.27.199.29.348.611.44.951.165.507.303.813.415.92a.612.612 0 00.44.166h.313v-1.332a1.253 1.253 0 00-.074-.552.54.54 0 00-.343-.183v-.178h1.492v.178a.585.585 0 00-.347.193 1.23 1.23 0 00-.074.542v1.332h.318a.596.596 0 00.441-.166c.11-.111.247-.416.41-.915a3.05 3.05 0 01.455-.96c.146-.168.395-.26.742-.26.15.005.3.032.442.08v.767h-.356c-.038-.205-.142-.308-.31-.308a.338.338 0 00-.296.203 3.82 3.82 0 00-.263.643c-.072.237-.17.465-.292.68a1.037 1.037 0 01-.313.303v.028c.372.114.659.419.863.913l.316.732c.08.21.19.407.33.583.119.112.27.183.433.201v.178l-1.21-.008zm3.05-.92c-.001.112.006.223.023.334a.56.56 0 00.072.201c.033.05.078.09.13.117.084.037.171.064.26.081v.178h-1.579v-.178a.714.714 0 00.3-.13.358.358 0 00.099-.201 2.57 2.57 0 00.023-.4v-3.137a2.71 2.71 0 00-.018-.365.452.452 0 00-.06-.178.312.312 0 00-.11-.102 1.225 1.225 0 00-.234-.084v-.179h1.784c.56 0 .978.109 1.252.325.273.217.411.548.411 1 .004.233-.04.464-.128.68-.08.194-.206.366-.367.5a1.465 1.465 0 01-.56.276 2.74 2.74 0 01-.68.083c-.265 0-.471-.005-.618-.015v1.194zm0-1.509h.417c.228.007.455-.03.67-.107a.803.803 0 00.405-.356 1.37 1.37 0 00.14-.666 1.45 1.45 0 00-.082-.523.855.855 0 00-.23-.334.859.859 0 00-.347-.181 1.725 1.725 0 00-.438-.052c-.237 0-.415 0-.535.015v2.204zm6.596-2.534v1.098h-.353a3.305 3.305 0 00-.112-.313 1.27 1.27 0 00-.118-.225.545.545 0 00-.135-.145.426.426 0 00-.175-.075 1.242 1.242 0 00-.24-.02h-1.135v1.904h.77a.56.56 0 00.246-.045.348.348 0 00.15-.155c.052-.105.09-.217.112-.333h.34v1.396h-.34a1.35 1.35 0 00-.11-.333.38.38 0 00-.147-.167.527.527 0 00-.252-.046h-.769v2.105h1.117c.096.003.193-.008.286-.031a.438.438 0 00.188-.105.685.685 0 00.145-.197c.04-.08.076-.163.104-.248l.112-.377h.355l-.077 1.275h-3.324v-.178a.706.706 0 00.299-.13.335.335 0 00.098-.202c.02-.132.027-.266.023-.4v-3.145a2.443 2.443 0 00-.018-.365.45.45 0 00-.059-.178.294.294 0 00-.109-.102 1.272 1.272 0 00-.234-.084v-.179h3.362zm3.917 1.345a2.068 2.068 0 00-.274-.794.574.574 0 00-.494-.215h-1.034v3.708a1.1 1.1 0 00.097.545c.064.106.212.166.445.196v.178h-1.636v-.178a.58.58 0 00.343-.166c.053-.072.079-.259.079-.557v-3.148c0-.303-.028-.5-.086-.565a.597.597 0 00-.33-.166v-.179h3.244v1.345l-.354-.004zm3.897 3.618v-.178a.556.556 0 00.345-.192c.063-.171.087-.354.071-.536V31.98c0-.512.005-.84.015-.986h-.015l-2.044 2.549a1.17 1.17 0 00.078.55c.09.096.21.16.339.178v.178h-1.504v-.178a.568.568 0 00.351-.192 1.2 1.2 0 00.074-.536V30.4c0-.32-.031-.513-.094-.578a.671.671 0 00-.329-.156v-.179h1.504v.179a.656.656 0 00-.33.166c-.059.067-.087.257-.087.573v1.6c0 .358 0 .666-.023.904h.023l2.044-2.549a1.11 1.11 0 00-.073-.5.583.583 0 00-.344-.188v-.178h1.496v.178a.656.656 0 00-.33.167c-.057.066-.087.256-.087.573v3.143a1.19 1.19 0 00.077.55c.09.097.21.16.34.178v.178l-1.497-.011zm4.444.059a2.083 2.083 0 01-.785-.143 1.531 1.531 0 01-.608-.448 2.116 2.116 0 01-.392-.777 3.992 3.992 0 01-.138-1.13 3.607 3.607 0 01.243-1.392c.141-.36.385-.668.7-.886a1.87 1.87 0 011.056-.303 1.93 1.93 0 011.076.285c.3.2.53.492.659.833.157.432.232.89.22 1.35.014.492-.072.98-.252 1.437-.141.359-.39.665-.71.876-.32.201-.691.305-1.069.298zm-1.182-2.6c0 .745.11 1.311.33 1.699a1.014 1.014 0 00.94.581.943.943 0 00.658-.253 1.54 1.54 0 00.41-.74c.098-.37.144-.754.137-1.137a4.55 4.55 0 00-.164-1.315 1.58 1.58 0 00-.437-.758.956.956 0 00-.644-.236.98.98 0 00-.555.153 1.17 1.17 0 00-.384.433 2.27 2.27 0 00-.224.683c-.047.294-.07.592-.067.89zm7.99 1.631c-.002.106.002.212.011.317a.593.593 0 00.037.166.335.335 0 00.06.104c.03.03.064.054.103.071.066.03.135.054.206.07v.178h-1.506v-.178a.774.774 0 00.277-.113.334.334 0 00.11-.188c.025-.142.034-.286.03-.43v-1.52h-2v1.523c-.001.12.004.238.017.357a.529.529 0 00.054.178.311.311 0 00.112.11c.076.038.156.067.239.087v.178h-1.514v-.178a.705.705 0 00.299-.13.335.335 0 00.098-.202c.02-.132.027-.266.023-.4v-3.145a2.443 2.443 0 00-.018-.365.45.45 0 00-.059-.178.306.306 0 00-.109-.102 1.275 1.275 0 00-.234-.084v-.179h1.514v.179a.973.973 0 00-.229.08.33.33 0 00-.11.1.445.445 0 00-.061.18 2.445 2.445 0 00-.022.37v1.287h2v-1.288a2.059 2.059 0 00-.03-.431.344.344 0 00-.104-.178.768.768 0 00-.283-.12v-.179h1.506v.179a.783.783 0 00-.28.113.334.334 0 00-.108.191 2.16 2.16 0 00-.03.425v3.145zm3.864.91v-.178c.092-.016.182-.043.268-.08a.31.31 0 00.132-.121.447.447 0 00.043-.21 1.327 1.327 0 00-.03-.267 2.963 2.963 0 00-.082-.321l-.134-.47h-1.675l-.122.357c-.049.133-.09.27-.121.408a1.167 1.167 0 00-.03.25.418.418 0 00.11.32.607.607 0 00.33.134v.179H99.68v-.179a.536.536 0 00.35-.236 2.42 2.42 0 00.289-.582l1.5-4.024h.568l1.222 4.053c.042.147.092.292.152.433a.698.698 0 00.165.233c.074.06.161.103.255.123v.179h-1.655zm-1.387-1.964h1.502l-.679-2.35-.823 2.35zm7.814 1.964h-1.525v-.178c.205-.05.328-.12.371-.215a1.41 1.41 0 00.064-.517v-3.738h-.998a17.267 17.267 0 01-.291 2 11.24 11.24 0 01-.45 1.683c-.157.412-.317.685-.479.818a.862.862 0 01-.557.2 1.675 1.675 0 01-.557-.088v-.733h.353c.021.166.105.256.252.256a.434.434 0 00.316-.166c.102-.111.222-.378.359-.8.156-.5.283-1.01.379-1.527a7.57 7.57 0 00.174-1.298.615.615 0 00-.079-.368.408.408 0 00-.283-.125v-.167h2.951v.179a.573.573 0 00-.342.176 1.226 1.226 0 00-.074.553v3.145a1.24 1.24 0 00.074.55.56.56 0 00.342.182v.178zm1.024 0v-.178a.571.571 0 00.35-.192 1.18 1.18 0 00.074-.536V30.4c0-.32-.031-.513-.093-.578a.674.674 0 00-.33-.156v-.179h1.519v.179a.53.53 0 00-.354.2 1.263 1.263 0 00-.071.534v1.243c.342-.028.645-.043.909-.043 1.089 0 1.633.459 1.632 1.377 0 .982-.6 1.473-1.8 1.473h-1.836zm1.093-2.482v2.139c.175.013.372.021.593.021.432 0 .742-.09.932-.27.19-.18.286-.46.287-.842 0-.718-.369-1.077-1.107-1.077a6.585 6.585 0 00-.705.029zm7.217 1.572c-.002.106.002.212.011.317a.677.677 0 00.035.166.351.351 0 00.063.104.31.31 0 00.102.071c.066.03.135.054.206.07v.178h-1.506v-.178a.771.771 0 00.277-.113.318.318 0 00.109-.188c.025-.142.036-.286.031-.43v-1.52h-2v1.523c-.001.12.004.238.017.357a.53.53 0 00.054.178.316.316 0 00.112.11c.076.038.156.067.239.087v.178h-1.514v-.178a.714.714 0 00.299-.13.33.33 0 00.098-.202c.019-.132.027-.266.023-.4v-3.145a2.34 2.34 0 00-.018-.365.45.45 0 00-.059-.178.303.303 0 00-.109-.102 1.26 1.26 0 00-.234-.084v-.179h1.514v.179a1.007 1.007 0 00-.229.08.33.33 0 00-.11.1.444.444 0 00-.063.18 2.54 2.54 0 00-.02.37v1.287h1.997v-1.288a1.95 1.95 0 00-.032-.431.329.329 0 00-.102-.178.766.766 0 00-.283-.12v-.179h1.505v.179a.785.785 0 00-.28.113.334.334 0 00-.107.191c-.024.14-.034.283-.029.425l.003 3.145zm1.435.91v-.178a.654.654 0 00.329-.157c.06-.065.089-.255.089-.571V30.4c0-.32-.029-.513-.092-.578a.667.667 0 00-.329-.156v-.179h1.513v.179a.539.539 0 00-.354.2 1.33 1.33 0 00-.071.534v1.243c.33-.028.63-.043.882-.043 1.043 0 1.564.459 1.564 1.377 0 .982-.577 1.473-1.732 1.473h-1.799zm1.092-2.48v2.138c.165.014.361.022.58.022.431 0 .737-.092.917-.275a1.142 1.142 0 00.272-.833c0-.717-.361-1.076-1.082-1.076a6.324 6.324 0 00-.687.022v.001zm2.757 2.48v-.178a.692.692 0 00.329-.154c.063-.063.094-.255.094-.574V30.4c0-.303-.028-.5-.085-.564a.597.597 0 00-.33-.167v-.178h1.514v.178a.577.577 0 00-.346.193c-.065.173-.09.358-.074.542v3.143c0 .308.03.5.087.565a.668.668 0 00.33.166v.178l-1.519-.006zm5.268 0v-.178a.556.556 0 00.344-.192c.064-.17.089-.354.073-.536v-1.563c0-.512.005-.84.015-.986h-.015l-2.046 2.549a1.2 1.2 0 00.078.55c.089.097.209.16.339.178v.178h-1.502v-.178a.574.574 0 00.351-.192c.065-.17.09-.354.074-.536v-3.143c0-.32-.031-.514-.094-.579a.667.667 0 00-.329-.156v-.178h1.502v.178a.644.644 0 00-.33.166c-.059.067-.089.257-.089.573v1.6c0 .358 0 .666-.021.904h.021l2.046-2.549a1.093 1.093 0 00-.074-.5.576.576 0 00-.343-.188v-.178h1.496v.178a.659.659 0 00-.33.167c-.059.067-.087.257-.087.573v3.144c-.019.187.008.375.077.55.09.096.21.16.34.178v.178l-1.496-.012zm.575-6.3a.718.718 0 01-.346.631c-.257.16-.556.24-.858.23a1.46 1.46 0 01-.863-.221.743.743 0 01-.305-.64V28h.611v.15a.655.655 0 00.129.446.574.574 0 00.44.142.487.487 0 00.452-.132.498.498 0 00.137-.456V28h.608l-.005.15zM56.458 40.904h-.974v1.537c0 .305.028.5.084.561.094.09.212.148.34.167v.177H54.39v-.177a.59.59 0 00.35-.191c.065-.171.09-.355.075-.537v-3.143c0-.32-.032-.514-.094-.578a.699.699 0 00-.33-.157v-.178h1.517v.178a.541.541 0 00-.354.2c-.06.171-.083.353-.07.535v1.287h.99c.054-.735.251-1.295.59-1.68a1.704 1.704 0 011.34-.579c.619 0 1.09.211 1.41.633.323.422.48 1.035.474 1.838 0 .826-.173 1.466-.52 1.92a1.702 1.702 0 01-1.448.681c-1.23.004-1.852-.827-1.863-2.494zm1.894-2.26c-.788 0-1.182.723-1.183 2.166 0 1.517.404 2.276 1.212 2.276a.94.94 0 00.867-.553c.2-.37.301-.894.301-1.573 0-.756-.104-1.33-.311-1.724-.208-.393-.503-.59-.886-.591zm4.06 3.782a1.85 1.85 0 00.025.341c.01.072.035.14.07.203.034.05.08.09.133.115.082.038.169.066.258.084v.176H61.32v-.176a.762.762 0 00.298-.13.343.343 0 00.1-.202 2.57 2.57 0 00.022-.4v-3.14a2.432 2.432 0 00-.018-.365.442.442 0 00-.06-.178.291.291 0 00-.108-.101 1.146 1.146 0 00-.234-.087v-.178h1.782c.562 0 .979.11 1.254.333.275.223.412.546.412.99.004.233-.04.465-.13.68a1.264 1.264 0 01-.366.5 1.426 1.426 0 01-.562.277c-.222.057-.45.085-.678.083-.267 0-.473 0-.62-.013v1.188zm0-1.5h.419c.228.007.455-.03.67-.108a.799.799 0 00.404-.356c.103-.206.151-.436.14-.667a1.448 1.448 0 00-.083-.521.822.822 0 00-.575-.517 1.74 1.74 0 00-.438-.053c-.237 0-.416 0-.537.015v2.207zm5.951 2.42v-.177a.573.573 0 00.346-.191 1.25 1.25 0 00.07-.537v-1.563c0-.51 0-.832.015-.986h-.015l-2.043 2.55c-.02.186.007.375.077.549.09.096.21.16.34.178v.177h-1.505v-.177a.584.584 0 00.351-.191c.065-.171.09-.355.074-.537v-3.143c0-.32-.03-.513-.093-.578a.692.692 0 00-.33-.157v-.178h1.504v.178a.656.656 0 00-.33.167c-.059.066-.087.258-.087.573v1.599c0 .36 0 .666-.021.906h.021l2.044-2.549c.015-.17-.01-.341-.072-.5a.574.574 0 00-.345-.19v-.178h1.496v.179a.656.656 0 00-.33.166c-.059.067-.088.259-.088.573v3.145a1.19 1.19 0 00.077.55c.09.097.21.16.34.178v.177l-1.496-.013zm6.257 1.306a3.374 3.374 0 00-.139-.731.965.965 0 00-.25-.463.597.597 0 00-.377-.112H71.7a.55.55 0 00-.532.333c-.13.308-.204.638-.216.973h-.367v-1.64h.352a5.748 5.748 0 00.942-1.882 7.08 7.08 0 00.363-2.075.653.653 0 00-.071-.354.392.392 0 00-.288-.131v-.178h2.945v.178a.689.689 0 00-.33.166c-.057.067-.087.259-.087.575v3.702h.578v1.639h-.37zm-.885-5.949h-1.01c-.147 1.862-.563 3.3-1.248 4.31h2.258v-4.31zm4.845 4.643v-.177a.573.573 0 00.346-.191c.063-.172.088-.355.072-.537v-1.563c0-.51 0-.832.013-.986h-.013l-2.045 2.55c-.02.186.007.375.077.549.09.096.21.16.34.178v.177h-1.503v-.177a.578.578 0 00.35-.191c.064-.171.09-.355.073-.537v-3.143c0-.32-.03-.513-.093-.578a.686.686 0 00-.33-.157v-.178h1.502v.178a.655.655 0 00-.33.167c-.057.066-.086.258-.086.573v1.599c0 .36-.009.666-.022.906h.022l2.045-2.549c.015-.17-.01-.341-.074-.5a.57.57 0 00-.344-.19v-.178h1.495v.179a.656.656 0 00-.33.166c-.058.067-.088.259-.088.573v3.145a1.19 1.19 0 00.077.55c.09.097.21.16.34.178v.177l-1.494-.013zm4.722-.001v-.176a.573.573 0 00.344-.192 1.24 1.24 0 00.073-.536v-1.28a4.805 4.805 0 01-1.122.142c-.446 0-.784-.098-1.016-.295-.232-.196-.346-.536-.346-1.021v-.69a1.333 1.333 0 00-.066-.541.569.569 0 00-.34-.193v-.178h1.498v.178a.588.588 0 00-.346.195c-.065.171-.09.356-.074.54v.684c0 .39.072.65.217.783a.936.936 0 00.65.198c.319.002.637-.042.945-.128v-1.538c0-.306-.028-.5-.083-.57a.592.592 0 00-.33-.166v-.178h1.514v.178a.593.593 0 00-.347.195c-.065.172-.09.356-.074.54v3.145c0 .308.03.5.089.563a.647.647 0 00.33.166v.177l-1.516-.002zm5.911-4.962v1.1h-.352a3.144 3.144 0 00-.112-.314 1.356 1.356 0 00-.119-.226.603.603 0 00-.135-.145.426.426 0 00-.175-.075 1.242 1.242 0 00-.24-.02h-1.136v1.905h.77a.556.556 0 00.247-.045.347.347 0 00.15-.155c.051-.105.09-.217.114-.333h.33v1.388h-.33a1.469 1.469 0 00-.112-.333.39.39 0 00-.147-.159.549.549 0 00-.252-.046h-.77v2.097h1.118a1.12 1.12 0 00.286-.03.455.455 0 00.188-.105.685.685 0 00.14-.195c.041-.08.076-.163.104-.25.026-.084.064-.211.112-.376h.356l-.068 1.276h-3.328v-.176a.751.751 0 00.298-.13.343.343 0 00.099-.202c.018-.132.026-.266.023-.4v-3.137a2.419 2.419 0 00-.019-.364.44.44 0 00-.059-.179.29.29 0 00-.109-.101 1.137 1.137 0 00-.233-.087v-.178l3.361-.005zm4.327.107v.999h-.356a1.601 1.601 0 00-.22-.5.793.793 0 00-.307-.268 1.06 1.06 0 00-.425-.08.982.982 0 00-.66.25 1.625 1.625 0 00-.454.75 3.82 3.82 0 00-.164 1.207c-.008.41.038.819.136 1.216.064.285.203.548.402.76a.912.912 0 00.659.256 1.17 1.17 0 00.48-.085.757.757 0 00.316-.271c.106-.169.187-.352.242-.545h.355v1.04a4.937 4.937 0 01-.691.136 6.196 6.196 0 01-.778.045c-.61 0-1.07-.208-1.38-.625-.31-.416-.467-1.038-.468-1.865-.01-.466.073-.93.242-1.363.142-.373.395-.693.725-.913.33-.22.72-.33 1.115-.313.418-.005.834.052 1.235.166l-.005.002zm3.949 4.856v-.177a20.81 20.81 0 01-.25-.645l-.268-.734a2.677 2.677 0 00-.248-.533.716.716 0 00-.26-.242.917.917 0 00-.406-.075h-.438v1.5a1.19 1.19 0 00.078.55c.09.096.21.158.339.177v.177h-1.517v-.177a.675.675 0 00.33-.156c.059-.067.09-.257.09-.572v-3.142c0-.32-.031-.512-.094-.578a.7.7 0 00-.33-.156v-.178h1.517v.178a.669.669 0 00-.329.166c-.058.067-.087.259-.087.574v1.332h.431a.595.595 0 00.458-.176c.11-.111.252-.412.427-.903.099-.345.26-.668.472-.955.156-.178.412-.267.768-.268.151.007.3.034.445.08v.833h-.356c-.028-.24-.132-.36-.313-.36a.347.347 0 00-.283.157 3.452 3.452 0 00-.33.691 4.435 4.435 0 01-.286.641c-.083.136-.196.25-.33.334v.03c.392.12.695.423.91.904l.329.738c.082.208.192.404.33.58a.671.671 0 00.44.206v.177l-1.24.002zm4.671 0v-.177a.57.57 0 00.345-.191 1.24 1.24 0 00.071-.537v-1.563c0-.51 0-.832.015-.986h-.015l-2.044 2.55c-.018.186.008.374.076.549a.588.588 0 00.341.178v.177h-1.504v-.177a.59.59 0 00.351-.191c.065-.171.09-.355.074-.537v-3.143c0-.32-.031-.513-.094-.578a.701.701 0 00-.329-.157v-.178h1.504v.178a.655.655 0 00-.33.167c-.059.066-.087.258-.087.573v1.599c0 .36-.008.666-.023.906h.023l2.044-2.549a1.11 1.11 0 00-.073-.5.573.573 0 00-.344-.19v-.178h1.496v.179a.674.674 0 00-.33.166c-.057.067-.087.259-.087.573v3.145c-.018.187.009.376.077.55.09.097.21.16.34.178v.177l-1.497-.013zm5.25 0v-.177a.57.57 0 00.345-.191 1.24 1.24 0 00.071-.537V40.88c0-.512 0-.833.015-.986h-.015l-2.044 2.548a1.2 1.2 0 00.076.55c.091.097.211.16.341.178v.177h-1.504v-.177a.587.587 0 00.351-.191c.065-.17.09-.354.074-.537v-3.143c0-.32-.031-.513-.094-.578a.7.7 0 00-.329-.157v-.178h1.504v.178a.655.655 0 00-.33.167c-.059.067-.087.258-.087.573v1.6c0 .359 0 .666-.023.905h.023l2.044-2.548c.014-.17-.01-.341-.073-.5a.573.573 0 00-.344-.19v-.178h1.496v.178a.674.674 0 00-.33.167c-.057.066-.087.258-.087.573v3.145c-.019.187.008.375.077.55.09.096.21.159.34.178v.176l-1.497-.013zm.574-6.3a.72.72 0 01-.345.633c-.258.16-.557.239-.859.228a1.451 1.451 0 01-.863-.222.74.74 0 01-.304-.64v-.148h.607v.149a.675.675 0 00.127.448.587.587 0 00.442.141.625.625 0 00.456-.136.631.631 0 00.133-.453v-.148h.606v.148zm6.471 5.486v.014a.873.873 0 00.075.448.614.614 0 00.359.166v.177h-1.51v-.177a.637.637 0 00.329-.15c.058-.063.088-.22.088-.472v-.014c-.73-.02-1.273-.172-1.627-.456-.355-.285-.533-.718-.534-1.301a1.647 1.647 0 01.552-1.313c.366-.316.903-.492 1.609-.526a.772.772 0 00-.078-.415.575.575 0 00-.344-.167v-.178h1.496v.178a.614.614 0 00-.33.147.72.72 0 00-.084.425c1.44.036 2.16.61 2.161 1.722a1.695 1.695 0 01-.548 1.344c-.367.328-.905.51-1.614.548zm-.659-3.283c-.972.039-1.457.533-1.456 1.483 0 .495.114.864.342 1.108.229.243.6.37 1.114.38v-2.97zm.659-.012v2.976c.968-.04 1.452-.54 1.452-1.5 0-.495-.115-.862-.346-1.1-.23-.24-.599-.364-1.106-.376zm5.048 4.167a2.051 2.051 0 01-.786-.143 1.548 1.548 0 01-.608-.446 2.132 2.132 0 01-.391-.776c-.1-.369-.146-.75-.139-1.132-.011-.476.072-.95.246-1.392a1.91 1.91 0 01.698-.885 1.85 1.85 0 011.056-.305c.378-.012.752.087 1.075.287.301.2.531.492.659.833.157.432.232.89.221 1.35a3.65 3.65 0 01-.252 1.437 1.89 1.89 0 01-.71.876 1.96 1.96 0 01-1.069.297zm-1.183-2.598c0 .745.11 1.31.33 1.697a1.024 1.024 0 00.94.582.948.948 0 00.659-.252 1.56 1.56 0 00.408-.74 4.17 4.17 0 00.137-1.139 4.522 4.522 0 00-.165-1.314 1.59 1.59 0 00-.436-.758.965.965 0 00-.644-.237.98.98 0 00-.555.153c-.162.11-.294.26-.384.435a2.27 2.27 0 00-.224.681 5.318 5.318 0 00-.066.892zm5.314 1.62c-.003.114.005.228.023.341.01.072.035.14.071.203a.32.32 0 00.132.115c.082.038.169.066.258.084v.176h-1.571v-.176a.754.754 0 00.298-.13.35.35 0 00.099-.202 2.43 2.43 0 00.025-.4v-3.14a2.618 2.618 0 00-.019-.365.49.49 0 00-.059-.178.289.289 0 00-.11-.101 1.149 1.149 0 00-.234-.087v-.178h1.784c.56 0 .978.11 1.251.333.274.223.412.546.412.99a1.72 1.72 0 01-.128.68c-.08.195-.207.367-.368.5a1.426 1.426 0 01-.561.277 2.65 2.65 0 01-.679.083c-.265 0-.473 0-.618-.013l-.006 1.188zm0-1.5h.417c.228.007.455-.03.67-.108a.785.785 0 00.403-.356c.104-.206.152-.436.14-.667a1.402 1.402 0 00-.082-.521.834.834 0 00-.227-.333.837.837 0 00-.348-.18 1.723 1.723 0 00-.438-.053c-.237 0-.417 0-.535.014v2.204zm7.177-2.364a.718.718 0 00-.318.215 4.014 4.014 0 00-.408.75l-1.021 2.217c-.308.666-.574 1.115-.799 1.347a1.106 1.106 0 01-.814.334 1.685 1.685 0 01-.543-.085v-.927h.389c.021.282.138.422.352.422.286 0 .549-.235.791-.705l-1.17-2.589a5.454 5.454 0 00-.385-.764.615.615 0 00-.315-.222v-.178h1.542v.178c-.231.027-.344.123-.344.292.025.249.096.49.211.713l.813 1.842.718-1.679a2.32 2.32 0 00.231-.811.32.32 0 00-.182-.327.312.312 0 00-.128-.03v-.178h1.38v.185zm5.766-.001a.966.966 0 00-.227.08.322.322 0 00-.112.1.46.46 0 00-.061.18 2.428 2.428 0 00-.02.371v3.145c-.003.12.003.239.016.357a.466.466 0 00.055.178.305.305 0 00.11.108c.076.04.156.07.239.089v.176h-1.499v-.176a.776.776 0 00.285-.117.332.332 0 00.107-.193c.024-.14.034-.28.03-.422v-1.392c0-.367.005-.737.016-1.111.01-.375.023-.63.037-.768h-.061l-1.423 3.601h-.414l-1.317-3.665h-.07c.012.147.023.415.035.803.012.388.015.787.015 1.196v1.333a3.03 3.03 0 00.016.357.531.531 0 00.055.178.29.29 0 00.112.108.96.96 0 00.238.088v.177h-1.317v-.177a.755.755 0 00.298-.13.349.349 0 00.099-.201 2.43 2.43 0 00.025-.4v-3.137a2.618 2.618 0 00-.019-.365.49.49 0 00-.059-.178.289.289 0 00-.11-.101 1.149 1.149 0 00-.234-.087v-.178h1.283l1.262 3.538 1.388-3.538h1.214l.008.173z" fill="#C9C9C9"/><path d="M54.719 20h104.09" stroke="#fff" stroke-miterlimit="10" stroke-linecap="round"/></g><defs><clipPath id="clip0_4256_31692"><path fill="#fff" d="M0 0h159v45H0z"/></clipPath></defs></svg>