<svg width="51" height="45" fill="none" xmlns="http://www.w3.org/2000/svg"><path d="M.996 0h6.127l4.144 4.188 4.325 4.37 14.39 14.312h-14.47c-.14 0-.292 0-.444.014-3.729.224-6.684 3.56-6.753 7.37-.07 4.063 3.34 7.396 7.36 7.396h22.774l4.324 4.37H15.73c-6.292 0-11.573-5-11.726-11.36a11.7 11.7 0 012.509-7.549c2.107-2.661 5.364-4.384 8.996-4.384h4.047L.996 0z" fill="#B3B3B3"/><path d="M50.996 45h-6.127l-4.144-4.189-4.325-4.37L22.01 22.13h14.471c.139 0 .291 0 .444-.014 3.728-.224 6.683-3.56 6.752-7.37.07-4.063-3.34-7.396-7.36-7.396H13.543L9.22 2.979h27.043c6.293 0 11.574 5 11.726 11.36a11.7 11.7 0 01-2.509 7.549c-2.107 2.661-5.364 4.384-8.995 4.384h-4.048L50.996 45z" fill="#fff"/></svg>