<svg width="45" height="45" fill="none" xmlns="http://www.w3.org/2000/svg"><g clip-path="url(#clip0_4256_32004)"><path d="M22.611 39.964c9.621 0 17.42-7.8 17.42-17.42 0-9.622-7.799-17.42-17.42-17.42-9.621 0-17.42 7.798-17.42 17.42 0 9.62 7.799 17.42 17.42 17.42z" fill="#F1F1F1"/><path fill-rule="evenodd" clip-rule="evenodd" d="M12.182 27.328c-.168.01-.099.058-.335.07-.632.02-.268-.04-.553-.116-.09.116-.11.116-.058.266.246.058.788.099 1.016-.04l-.07-.18zm21.21.108l-.997.01.03.159c.226.018.78.068.957-.01.039-.11.039.02.01-.159z" fill="#4B474A"/><path fill-rule="evenodd" clip-rule="evenodd" d="M33.375 27.742c-.177.01-.395-.03-.563.01-.227.05-.197.01-.364.04-.05.206.03 1.025-.129 1.085-.089-.484.07-1.145-.04-1.698.01-.216.05-1.31-.07-1.4-.057.099-.028.188-.048.335-.157.11-.058-.01-.116.128l.099.07c0 .01.019.01.03.02-.02.305.028.68-.011.75-.197-.156.049-.444-.128-.61-.089-.09-.058-.148-.058-.396.011-.364-.018-.256-.058-.305-.167.069-.088.316-.088.523-.01.137-.058.503-.128.601-.169-.089-.03-.038-.01-.256.028-.513-.128-1.094 0-1.37.266.118.028-.1.157.305.04.115 0 .049.058.109.169-.11.05-.188.115-.426.15-.067.07-.049.247.011l-.01-.111-.998.02c-.07.115-.177.461-.009.52l.07-.414.137-.01c.01.217-.058 1.972-.149 2.012-.118-.138-.029-.503-.029-.7V26.2c0-.058.01-.167.01-.217-.019-.289-.01-.1-.058-.169l-.07.563c0 .01-.01.115-.01.129-.038.108-.01.03-.068.108-.247-.157.068-.267-.04-.76h-.115c0 .277.02.572-.09.73-.05-.058-.079 0-.087-.121a.076.076 0 00-.04.023c-.1-.178-.05-.404-.05-.632l-.177-.04-.058.188c-.058-.137.03-.137-.188-.078-.058.187-.018 2.02-.009 2.505 0 .188.049.267-.079.365-.128-.206-.01-1.203-.04-1.48-.057-.462-.009-.71 0-1.163 0-.198.04-.227-.128-.227-.02.314 0 .68-.01 1.006-.01.68.13.75-.078.917-.05-.049-.09.02-.08-.237 0-.109.02-.098.01-.226-.03-.258.168-1.342-.048-1.46-.179.473.115 3.275-.05 3.61-.12-.147-.109-1.44-.109-1.736l-.132-.599c-.1.058-.02 0-.1.116l-.048-1.174-.01.049-.109.01-.009.641.108.13c-.01.265.05.424.04.69 0 .247.02.473 0 .73-.11.128-.058.01-.128.167l.137.158c-.108.207-.118.04-.157.227-.02.058-.01.315 0 .384-.03.11-.296.13.03.347.009.147.04.107-.04.207a.596.596 0 01-.139.116l-.049-2.426c.07-.216 0-.02.129-.167-.09-.228.05-.188-.15-.384l.012-.712-.011-.058-.038.058c-.011.268-.02.613-.011.88.01.276.13.61-.038.865-.08-.109-.05-.04-.07-.227-.158.01-.08.03-.187-.128-.07.168.108.128-.08.208l-.03-.573c0-.276.1-1.223-.02-1.382-.167.116-.069 1.263-.048 1.49.029.316-.04.316-.079.552.058.219.188.268 0 .435-.167-.227.058-.385-.286-.562-.05-.582.07-1.42-.03-1.953-.257.119-.02 1.39-.108 1.567-.218-.225-.09-.699-.149-1.341l-.009-.197c-.09.177-.01.355-.118.474l.029.7-.14-.124c-.157.05-.058.187-.306.08l.04-1.047c.01-.187 0-.07-.04-.115-.168.099-.09.207-.05.375.02.217.08.808-.078.997-.167-.237-.04-.02-.069-.336-.049-.414-.02-.878-.057-.996-.079.306 0 .828-.01 1.134-.316.049-.04.02-.147-.039-.05-.267 0-.582 0-.888 0-.207.029-.138-.1-.227-.049.058-.069-.099-.058.366.01.167.04.225-.069.305l-.03-.267a2.94 2.94 0 00-.008-.311l-.058-.039h-.09c-.078.099-.048 1.174-.008 1.411l.038 1.765c0 .29.04.179-.108.384 0 .011.02.168.02.168-.01.13.01.02-.05.11-.127-.228-.058-.681-.058-.967.04-.207.02-.04.1-.217-.1-.158-.1-.04-.1-.296l-.04-1.114c-.019-.337.13-1.125.012-1.422h-.524c-.128.603.02 1.253.01 1.855l-.02 1.627c-.02.256-.02.129-.069.178-.098-.178-.049-1.064-.03-1.321.04-.632.02-.484-.01-.957-.02-.247.058-.179-.138-.237-.058.078-.029-.11-.058.148-.03.216.107.216-.02.375-.196-.335-.138-.514-.109-.924.01-.188.05-.899-.098-.997-.05.078-.03-.01-.05.138-.049.315.01 1.854 0 2.18v1.203c0 .603.099.809-.069.987-.009-.454-.049-.866-.04-1.332l.011-1.026c0-.177.03-.128-.069-.198l-.058.563-.176.02-.109.296.01-.386c.01-.009.019-.02.03-.028l.138-.1c-.11-.137-.09.021-.129-.097-.01-.01-.02-.01-.03-.02.02-.346-.029-.79-.029-1.165l-.02-2.27c0-.294.119-.798-.049-1.024.188-.317.01-.267 0-.513-.029-.77.197-.73-.888-.672-.03.07.02 2.705.05 2.881.057.424-.01.966-.01 1.43 0 .248-.01.52 0 .77 0 .257.07.385.019.68l.455.03c.057.188 0 .116-.03.317l.187.088c-.03.227-.099.207-.099.207l-.078.049c0 .346-.058 1.274.069 1.54l.207.069-.049.147c-.011 0-.02 0-.03.02l-.116.05a1.365 1.365 0 01-.206 0c-.01.01-.01.02-.02.029-.04.158-.694.108-.888.01.029.177-.03.157.216.157.266 0 .867-.038 1.027.04.017.068.025.09.025.092-.008-.01-.028-.04-.058 0-.503.07-1.263-.01-1.805-.01-.326-.01-.602.04-.898.04-.158-.01-.316-.01-.474-.01-.346-.02-.295.038-.444-.069.058-.05-.177-.058.188-.058l.66-.009.07-.247c.08-.03.04.02.069-.07l-.266.031a.237.237 0 00-.02.05c-.168-.011-.364-.02-.484.049.138.098.256.04.462.058l-.493.01c-.01 0-.01-.02-.02-.02l-.503-.115v-.11c.058-.146.04-.038.116-.137.057-.068.009.01.04-.079-.05-.197-.04-.138.069-.176-.02-.159-.05-.12-.04-.29v-1.03c-.118-.14-.11-.05-.11-.277h.277c.05-.11.03-.08.119-.148-.306-.058-.316.128-.395-.198.276 0 .562.058.819-.03a.714.714 0 00-.038-.335l-.11-.148c-.138-.237-.02-1.125-.02-1.44.03-1.165-.109-.799-.109-1.243.011-.513.09-2.21-.029-2.595-.167-.05-.71-.079-.888-.05l.03 1.954c-.1-.1-.05.057-.1-.168-.018-.098.07-.216-.068-.266a2.678 2.678 0 00-.01.563c.026.226.023.455-.009.68.01.079.058.168.07.237.048.289-.139.168.008.347.05.138-.02 1.687-.009 1.905.03.572.088.462-.08.543-.127-.246-.147-4.489-.147-5.287.02-.011.03-.02.04-.02.217-.09.137-.02.168-.11-.1-.078-.208-.058-.337-.029l-.01.306c.099.197.02 1.046.02 1.352 0 .483.02.917.04 1.37.01.188-.04.425-.04.641l.03 1.382c.049.325.089.522-.02.591-.108-.177-.049-1.933-.07-2.317-.156.07-.117-.01-.117.563v.511a1.33 1.33 0 00-.02.132c0-.013-.004-.048-.05 0-.127-.179-.029-.967-.058-1.244l.177-.057c.1-.058.07-.05.09-.157-.197 0-.454-.058-.543.088.049.069 0 .01.049.05l.13.079c.009.306.028 1.46-.04 1.697-.1-.1-.1.236-.09-.414 0-.237.03-1.105-.02-1.225-.138.218.04 1.975-.009 2.35a.683.683 0 01-.03.147c-.057.116-.03.05-.088.116-.099-.139-.058-1.125-.07-1.39l.01-1.028c0-.198.01-.198-.148-.227-.127.208-.078.306.05.445-.148.115-.05.137-.247.187l-.02-.592c-.305-.089-.187.266-.098.424-.169.11-.058.425-.1.866-.02.237.04.572.03.867-.115-.168-.079-1.155-.088-1.204-.02-.089-.02-.049-.05-.089-.069.246.02.898.01 1.203-.147.158-.04.099-.128.248-.049-.08-.01-.355-.01-.504-.039-.917-.01-.365.02-1.114 0-.159.009-.462-.058-.573-.317.256 0 1.993-.129 2.318-.217-.375.01-2.031-.217-2.002-.08.621.03 1.223 0 1.835l-.178-.03c.01-.332 0-.665-.03-.997-.118.158-.049.425-.02.632-.294.216.02 1.075-.196 1.292-.158-.285.039-1.114.03-1.44-.02-.484-.08-1.097-.03-1.608-.256.089-.158.316-.178.878l.029.77c.02.197-.029.188-.068.237-.08-.116-.04.02-.05-.237l-.07-1.617c-.275.788.11 2.337-.136 2.623-.08-.168-.04-.947-.058-1.223-.03-.316.11-.924-.078-1.155.087-.108.098-.09.078-.246l-.164-.01c-.079.178-.07 1.184-.039 1.41.03.227-.02 1.155-.129 1.312v-2.643a.224.224 0 010-.058c-.003 0-.014 0-.04-.034-.087.139-.078 1.114-.057 1.382.02.206.115.265-.07.384-.207-.168-.049-1.43-.078-1.766h-.462c.02.177.04.246.058.405.069.355-.267.571-.217 1.015l-.02 1.598a.139.139 0 01-.02.03c-.137-.108-.03-.461-.03-.641a6.57 6.57 0 00-.009-.769c-.02-.276-.02-.493-.02-.77 0-.434.07-.552-.078-.641l.078-.148a.275.275 0 00-.009-.128c-.129-.01-.289.02-.138.108-.089.346 0 1.234-.089 1.401l-.168-.346.108-.116c0-.009-.01-.02-.019-.029-.198-.335-.02-.453-.1-.995l-.364.038c.01.178.05.099.02.289-.03.198-.03.08.01.276l-.11 1.777c-.038-.376-.018-.84-.029-1.223 0-.307.058-1.056-.069-1.155-.118.187-.069.384-.078.63l-.277-.088c0 .127.02.156-.04.226v-1.502c-.167-.018-.493.011-.768-.049-.169-.039-.01 0-.08-.039a3.16 3.16 0 01.424.01.824.824 0 00.218.01.24.24 0 00.118-.02L14.09 25c-.068-.307-.414.01-.828-.138l.02-.178.275-.05.011-.226-.257.03.02-.198-.187.03c-.058.108-.069-.01-.01.157l-.168.01c.01-.108.01-.414.058-.473l.108.168.158-.296c.049.306 0 .216.207.364l-.058-.404c-.107-.079-.236-.277-.374.057-.148-.158.04-.158-.197-.158l-.03-.246c-.079.079-.068.217-.057.355.011.289.02-.01.11.257a.039.039 0 01-.014.007c-.006.002-.01.002-.016.002l-.149.078.08.533.364-.009-.069.188-.819.07c.03.146-.03.057.058.136l.266-.019c-.038.108-.197.099-.325.108 0 .277-.088.454.148.503.168-.288-.138-.296.168-.385.038.058.069-.038.058.29 0 .474-.039.206.03.73-.169.197-.109-.02-.178.275-.109-.226.049-.6-.069-.848-.227.058-.158.178-.158.444l.01 1.59c-.296-.07-.72-.13-1.046-.059l-.01.237c.14.003.276.03.405.08v.453c-.07-.237.098-.355-.158-.424-.177.227.089.582.218.828.364.72.857 1.362 1.341 1.993.583.77 1.502 1.56 2.299 2.16 1.785 1.353 4.3 2.18 6.56 2.29 4.725.217 9.214-2.408 11.325-6.41-.168-.219-.129-.1-.116-.504.01-.286-.029-.227-.089-.286l-.009.73c.01.178.03.098-.05.138-.057-.138.02-.02.01-.197 0-.149-.04-.057-.05-.218-.019-.147 0-.335-.019-.52l.384.02c.04.256-.039.572.058.788.086-.213.057-.844.047-1.111zm-9.155-.325a.428.428 0 01-.178.404v-.247c.178-.07.03.011.109-.089-.277-.157-.128-1.055-.118-1.578a.03.03 0 01.02-.01l.038-.019c.03 0 .03.05.04-.01.01-.01.02 0 .02-.01v-.217a.038.038 0 01-.02-.01c-.01-.01-.02-.02-.03-.02l-.068-.05c-.01-.56-.058-1.097-.04-1.674.01-.197.02-1.549.03-1.598h.128c.188.265.04 1.006.04 1.084-.005.195.005.39.03.583.009.058-.03.395-.03.533 0 .414.058.858.018 1.134a2.889 2.889 0 00-.018.582c.018.483-.02.246-.11.473l.058.05c.308.255.003.165.081.689zm-3.709-5.13l.128.02c.098.177.057 2.772.057 3.344 0 .365.02.74 0 1.115-.138.158-.057-.01-.108.168 0 .138.029.187-.039.285-.058-.128.05-1.578 0-1.874-.01-.115-.02-.03-.03-.128l-.058-.336c-.02-.443.029-1.41.02-1.973 0-.257-.088-.414.03-.62zM13.87 27.21c-.187-.058-.168-.178-.11-.671.02-.197.04-.603-.019-.77-.266-.03.05.839-.177 1.086-.09-.17-.02-.693-.03-.957-.01-.198.04-.138-.137-.208-.13.197-.058 1.223-.07 1.54l-.088.275c-.148-.128-.09-.907-.079-1.134v-.602l.039-.483c.267.02.058.167.198.364.226-.038.118-.127.098-.364.315.03.158.058.138.347h.119c.057-.286-.08-.275.158-.364.068.127.018.73.009.897v.513c-.008.255.034.393-.047.53h-.002zm2.2.355c-.04.158-.118.138-.187.177 0-.347-.07-1.105-.03-1.41.03-.247.01-.258.207-.307.057.462-.039 1.303-.03 1.362.022.069.1-.09.042.178h-.002zm14.726-1.401c0-.158.03-.197-.049-.289v.364a2.11 2.11 0 000 .225c.042-.005.053.01.053-.3h-.004z" fill="#fff"/><path fill-rule="evenodd" clip-rule="evenodd" d="M29.214 25.266l.01-.01-.015-.035c-.004-.011-.021-.02-.035-.033l-.069.098c-.115.177-.376.216-.651.216.205.02.427-.009.642-.02l.177-.115c.02-.13.05-.112-.059-.1zm.008-.086c-.02-.024-.038-.036-.026.004a.233.233 0 00.013.037c.094.086.05.003.013-.041zm-.994.52c-.277-.04-1.53.03-1.786-.02l.069-.148c.067-.032-.008-.03.068-.041a.65.65 0 01-.187-.038l-.03-.147.011-.089c-.198-.13-.108-.07-.089-.462-.444-.158-.069-.365-.394-.404-.09.115-.05.167-.306.444.098.355.315.592-.484.513-.02-.425-.039-.138-.039-.819v-1.72c-.02-.611-.08-.346.099-.808l-.179-.188c.058-.138.139-.07.04-.246-.178-.058-.115.05-.315.128-.267-.128.01-.159-.316-.138.01-.228.02-.168-.128-.29l.098-.167c-.115-.109-.049 0-.128-.129l.099-.335a.652.652 0 00-.346-.138c-.07.147-.119.247-.119.424 0 .158.039 0-.02.167-.05.1-.05.031-.029.268h-.049c-.118-.11-.04-.04-.118-.178-.02.355.118.611-.593.542-.04-.188-.058-1.617-.01-1.785h.228c.018.167.029.434.038.602.03.513-.107.513.118.62.02-.057.03.02.03-.146l-.035-1.082.286.078c.02-.158.03-.098-.02-.256-.335.178-.078.108-.64.098 0-.384.285-.078.492-.246-.088-.07-.265-.02-.423-.03l.057-.356.218-.018c.079.157.02.157.157.226l-.01-.315c-.029-.01-.068-.05-.246-.04-.108.01-.137.04-.246.058.03-.138-.07-.149.582-.069v.503l.016.115c0-.015.006-.039.033 0 .188-.315-.138-.533.079-.866.158-.246-.01-.188-.07-.347-.069-.206.099-.197-.138-.404-.098.011-.098.03-.187.08-.128-.178-.148-.109-.346-.15-.08-.57.138-.975.138-1.133 0-.089-.09-.237-.12-.346l-.245.01c-.02-.207-.03-.197.049-.346.109-.227-.11-.404-.316-.522.03-.208.088-.08.079-.297-.01-.227-.04-.07.03-.315l-.178-.05c.05-.789.05-.276-.02-.581a3.497 3.497 0 01-.049-.643c0-.334-.115-.236-.109-.562 0-.246.058-.444.05-.66.404-.08.316-.414.316-.661l-.208-.159h-.385l-.217.188v.375c.306.286.306.355.286.79-.01.216.04.374.02.562-.02.216-.05.306-.038.551 0 .011.018.011.018.02.02.07.01-.009.118.09v.269c-.176-.02-.057.03-.148-.108l-.04-.05c-.167.148-.068.128-.037.306.049.217-.011.197-.11.336.058.276.02.115-.009.314-.01.139.05.09.058.277-.295.178-.098.167-.326.386 0 .295.116.205.058.502-.178.058-.04.029-.237-.03-.058.987.116.514.058 1.382-.01.01-.03 0-.03.02l-.105.072c-.365.296.03.109-.425.129-.009.64-.176.236-.118.62.05.357.058 2.014.05 2.349-.227-.079-.188-.177-.257-.642l-.246-.057a2.87 2.87 0 00.02.502c.038.247-.03.179-.04.415l-.158.05c-.088.276-.03.127-.197.335h-.197c-.069-.1-.03-.08-.109-.188l-.147.01c-.031.306.087.266-.08.503l.098 1.203c.05 0 .04-.128.04-.167 0-.197-.05-.04.02-.29l.01-.305c.128-.03.236-.05.336.03-.03.088.049.02-.168.108-.01 0-.02.01-.04.02 0 .8.02 5.042.148 5.288.167-.079.109.029.08-.543-.01-.217.057-1.765.009-1.905-.147-.178.04-.058-.01-.347-.01-.07-.057-.158-.069-.237a2.69 2.69 0 00.01-.68 2.69 2.69 0 01.01-.563c.137.05.05.167.068.266.05.227 0 .069.1.168l-.032-1.95c.178-.03.72 0 .888.049.115.385.04 2.078.029 2.595 0 .444.138.078.109 1.243 0 .315-.119 1.203.02 1.44l.11.148a.715.715 0 01.037.335c-.256.09-.542.03-.819.03.08.325.09.138.395.198-.088.068-.069.038-.118.148h-.277c0 .227-.009.138.11.276v1.024c-.01.167.02.129.04.288.115.03.038.03.078-.03-.02-.188-.01-.267-.11-.425.18-.384-.029-.493.159-.591.058.138.02.355.02.52h.296c.03-.483-.057-.52.137-.514.11.198 0 .366-.009.524.158.03.158-.03.355.02l-.009-.533c.01-.099-.058-.07.02-.08-.198-.01-.693.05-.85-.05l-.03-.186c.218-.079.761.01 1.067-.03L22 28.41l-.029-.148-.05-.207h1.737l.04.246c.138-.01.188.04.226-.039l-.05-.178-.137-.029-.02-.188c.05-.296-.019-.424-.019-.68-.01-.247 0-.523 0-.77 0-.462.07-1.006.01-1.43-.03-.177-.08-2.812-.05-2.881 1.085-.058.859-.099.888.671.01.246.188.197 0 .513.168.227.05.73.05 1.025l.02 2.27c0 .374.049.819.029 1.165.009.009.02.009.03.02.039.117.019-.04.128.097l-.138.1c-.011.008-.02.019-.03.028l-.01.386.108-.297.177-.02.058-.562c.098.069.07.02.07.198l-.012 1.025c-.009.462.03.879.04 1.332.168-.177.07-.384.07-.986v-1.2c.009-.326-.05-1.865 0-2.18.02-.147 0-.058.049-.138.147.098.109.808.098.996-.03.414-.088.592.109.925.128-.159-.01-.159.02-.375.03-.257 0-.07.058-.148.198.058.115-.01.138.237.03.473.05.325.01.957-.019.256-.069 1.143.03 1.321.05-.05.05.078.069-.178l.02-1.627c.01-.602-.138-1.252-.01-1.855h.529c.115.296-.03 1.085-.011 1.421l.04 1.114c0 .257 0 .138.098.297-.078.177-.057.01-.098.217 0 .286-.069.739.057.966.058-.089.04.02.05-.11 0 0-.02-.156-.02-.167.148-.205.108-.098.108-.384l-.038-1.765c-.04-.237-.07-1.312.009-1.41.03-.13.04.009.01-.179.61-.07 1.885.07 2.329-.049-.287.012-.325-.027-.562-.058zm-5.148-3.482c.247 0 .394-.079.443.187-.404.01-.799-.01-1.213-.01-.592 0-.956.188-.996-.148.688-.078 1.162-.03 1.766-.03zm-1.315-4.026c.277-.226.404.404 0 .455-.058-.237-.02-.168.099-.326-.137-.09-.059.01-.099-.129zm.563.297c-.108.04-.058.01-.148.115.188-.03.286-.05.434.05-.088.068.02.028-.128.057 0 0-.119.02-.129.02a.773.773 0 01-.266-.03c-.058-.208-.058-.148.01-.335l.05-.237.335-.04c.02.11.058.335 0 .395l-.089-.197c-.118.074-.158.005-.068.202h-.001zm-.02.73c.218.01.198-.04.355-.09l-.03.347-.69-.02c-.057-.139-.057-.139 0-.306.188-.03.128.058.365.068zm-.483.443c.138-.049.316-.009.444.01.177.03.552-.01.661.1-.129.167-.622.029-.997.069-.295.018-.168.069-.246-.07.05-.118-.01-.069.138-.109zm-.049.326c.217-.05.404-.04.621-.04.089 0 .217-.01.296-.01.227.01.119-.01.257.09-.13.108-.208.118-.435.078.07.03.07.05.04.237-.02.306-.03.672.02.958.05.236-.02.127.078.236.139-.217 0-1.243.04-1.361.257.256-.138.828.246 1.183l-.009.316c-.474.079-.828-.029-.928-.029-.07 0-.07.039-.207.05-.237-.534.01-1.036-.128-1.53l.11-.178zm1.144-.404l-.108-.011c-.04-.108-.03-.237-.03-.355.01-.335.108-.217.128-.227.06.15.05.415.01.593zm-.03-.909l-.158.01c-.088-.137-.079-.286-.01-.473.168-.009.217.303.168.464zm-.582-3.146c-.088.098-.088.098-.206.049.01-.158.107-.167.206-.049zm-.295.56c.044-.026.087-.056.128-.088.138.029.542.029.346.424-.178-.058-.02-.09-.178-.228-.148.09-.019.08-.127.228-.148-.02-.11-.01-.217-.119-.139-.147-.09-.009-.11-.158.147-.096.012 0 .158-.058zm-.306.78c.108.167-.01.591.088.848a.6.6 0 01.082 0 .039.039 0 01-.013-.047c0-.266-.05-.68.04-.927.138-.089.029-.01.147-.07.1-.048.011-.068.248.05.187.138.02.177.078.413.04.159.08.347.05.514.068-.058.088-.079.168-.138a.809.809 0 01-.089-.592c.128.049.078.109.217.01-.128.316.069.976.078.996l-.493-.098c-.118.09-.099.04-.237 0-.551.108-.058-.158-.444.057-.03-.215-.078-.867.08-1.014v-.002zm-.513 2.34l.236-.04-.009.266-.316-.01-.01-.167c.059-.04.01-.02.1-.05zm-.289.226c.275.149.217.207.581.04.08-.356-.068-.316.05-.474.088.128.068.583.03.76-.168.068-.444.04-.66.04v-.366zm.03 2.052c.048-.237-.02-.237 0-.513.016-.2.012-.402-.011-.602-.039-.404-.108-.641.651-.503v1.826c-.43.05-.47-.119-.638-.207h-.003zm.75 6.815c-.13.04-.573.02-.693-.01l-.01-.207.721-.01-.018.227zm1.765-2.18c.03.247.13.108.13.552-.011.266.038 1.016-.031 1.204l-.789.02c.039-.168.05-.108.02-.198-.238-.098-.057.079-.307-.04-.176-.077-.186-.127-.373.02-.17-.04-.159-.108-.317.02l.147.218-.493.009c-.018-.257.07-.552-.127-.67.057-.455.029-2.172-.01-2.674-.04-.167.079-1.381.01-1.805-.07-.415-.02-.217.057-.306l.109.227c.05.246-.02.7 0 .877.128-.068.058-.887.058-1.064.157.118.057 0 .137.157.109.207-.099.227.08.435 0 0 .089-.02.048-.286-.02-.08-.049-.119-.049-.179.01-.216.01-.089.07-.178.127.08.069.02.107.12.149.325-.038.502 0 .837.01.056.013.112.01.168 0 .138-.029.02-.01.218.1.384-.019.828.03.976l.058.089a.259.259 0 01.02.02c.04.098-.01.04.058.158l.009-1.292c0-.228.04-.306-.07-.435v1.125c-.078-.148-.019-1.105-.009-1.37l.05-.594c.157.04.057-.069.157.149.057.137.05.148.04.315l-.03 1.924c.128.089.03-.178.139.129-.012-.385.038-.77.028-1.194 0-.475-.009-.888-.04-1.352.219.079.119.098.13.366.038.719.01 1.46.078 2.31.02.217-.116 1.46-.02 1.707.119-.159.04-.977.03-1.234.04-.118.168.02.08-.693-.012-.089.04-.582.049-.808 0-.246-.07-1.502-.02-1.617.049.05.02-.02.049.08.129.295-.039 1.982.03 2.268.137.602.079.404.088 1.115 0 .227-.078 1.016 0 1.134.03-.118.02-.276.02-.404 0-.355-.01-.167.11-.384v-3.393a.892.892 0 00-.03-.228c0-.039-.01-.05-.01-.107.01-.08.019-.05.04-.09.107.079.097.315.097.474l.11.078c0 .888-.09.395-.119.652.07.226.039.028.118.207l-.118.078c-.058.593.03 1.076 0 1.638v1.292c0 .168.03.198.107.297.011.167 0 .197.1.326l.019-.8c-.01-.227.01-.08-.116-.257.157-.218.128-.109.116-.424l-.03-1.548c0-.317.02-.652.03-.987l-.01-.769c-.058-.395-.02-.198.04-.277.216.148.088 1.036.088 1.48.01.256.01.513.01.77 0 .296.057.433.02.73l.138.158c-.128.236-.165.196-.138.532l-.003-.002zm.487-4.892c.028-.13.196-.11.256.04-.129.07-.168.089-.256-.04zm.76 1.185c.285-.116.296.049.306.296-.208-.09-.058 0-.177-.138-.101-.119-.042-.01-.13-.158zm.346 5.012h-.178c-.108-.267.049-.326.057-.326.148.069.129.147.121.326zm.68-1.797c.05-.107.07-.078.227-.078.187 0 .247-.04.316.098-.13.07-.436.08-.544-.02h.001zm.05-.196c.01-.208.098-.07.058-.316-.03-.168-.03-.04-.01-.207.099.05.09-.01.116.138.058.237-.116.088.098.197.05-.197-.07-.098.02-.395l-.217-.02.03-.176c.216.038 0 .078.296.098-.08.346.108-.01-.01.493.088.04.115.11.138.217l-.519-.03zm2.021.04c-.246 0-.493-.011-.72 0-.058 0-.126.008-.195.012l1.488.015c-.206-.005-.416-.027-.574-.027h.001zm-.915.012l-.239-.003a.572.572 0 00-.057.008c.098.004.197.003.295-.005h.002zm-3.234-5.845c0 .01 0 .016 0 0z" fill="#3A3639"/><path fill-rule="evenodd" clip-rule="evenodd" d="M32.508 24.912c-.02-.198-.05-.219-.078-.424-.011-.17-.03-.218-.179-.257-.069.148-.04.148-.127.306-.1-.11-.02-.04-.138-.099l-.02.079-.01.138c-.454-.02-.1.01-.513.03-.257.008-.316.098-.504-.02.04-.14.07-.197.543-.177l-.019-.07-.256-.049-.011-.118-.058.01c-.04.158.058.048-.1.115-.108.04-.05.009-.147.009l.04-.107c-.139.078-.058.068-.05-.168l-.01-.701c-.02-.089-.03-.058-.07-.115-.167.02-.176 0-.187.158l.03.611c-.01.295.058.137-.088.207l-.03-.08c-.03-.167.019-.346-.03-.483-.116-.375.069-.324-.128-.442.02.285.099 1.39-.256 1.537-.05-.147-.02-.127.049-.265-.178-.493 0-.267-.116-.533-.354.089-.029.118-.265.207-.09-.129.018-.444.018-.573l-.128-.088.02-.276-.424-.01c0 .256.01.237-.057.463-.04.149-.01.267-.03.434-.178-.05-.01-.08-.167-.167-.08.128-.07.355-.099.542h-.198c-.03.414-.099.326.03.77h-1.242c-.198 0-.366-.03-.554-.03-.227-.01-.384.04-.582.03l.03.147c.06.022.123.035.187.038-.076.01 0 .01-.069.04l2.566-.008-.08.295c.1-.019.069-.01.109.05.009 0 .009.019.02.039.227-.108.177-.128.326-.02l.057-.157c.043.092.066.116.093.106l-.693.367c-.03-.247.058-.057.05-.334l-1.165-.04c.04.107.109.216.03.314.057.643-.07 1.116.148 1.342.088-.177-.149-1.449.108-1.567.1.532-.02 1.37.03 1.952.347.177.116.336.286.563.188-.168.058-.217 0-.435.039-.236.107-.236.079-.552-.02-.227-.116-1.372.049-1.49.115.158.02 1.105.02 1.381l.187.08c-.016-.379-.013-.758.01-1.136l.217.03.039-.058.01.058.159-.03.057-.078.11-.01.009-.05c.129.02.098.05.115-.069a.66.66 0 01.228-.128c0 .08.01.228-.02.296l-.128.149-.03.03c.227.265.138.128.109.472-.011.116 0 .149-.02.297l-.11.01.13.601c0 .297-.011 1.59.109 1.736.167-.335-.13-3.137.049-3.61.216.115.018 1.203.049 1.46.01.129-.01.115-.01.227-.01.256.03.187.08.236.207-.167.068-.236.078-.917.009-.325-.01-.692.009-1.006.169 0 .129.029.129.227-.01.454-.058.7 0 1.163.03.277-.09 1.274.04 1.48.127-.098.078-.177.078-.364-.009-.484-.049-2.319.01-2.506.218-.058.128-.058.187.078l.058-.187c.02-.316.03-.088-.07-.157-.236.197-.147.087-.186.069l.009-.415c.149-.109.049-.03.218-.078.127-.05.029-.11.217-.03.068.178-.02.187.078.385.138-.07.138.069.116-.277 0 0-.03-.02.01-.115.158.01.08-.02.128.058l.04.149c.04.147.04.167-.02.306-.187.02-.05-.011-.158-.02-.168-.03-.148-.01-.237.04.09.087-.078.078.208.078.197 0 .089-.116.207.049.108.493-.207.602.04.76.058-.08.03 0 .068-.109 0-.01.01-.115.01-.128l.07-.563c.049.07.04-.118.057.169 0 .05-.009.157-.009.217v.384c0 .198-.09.562.03.7.089-.04.157-1.794.148-2.012l-.138.01-.07.414c-.167-.058-.057-.405.01-.52l1-.025.117.058-.03-.179.16-.124zm-3.107-1.025h.168c.049.098.038.109.02.216l-.04.207-.159.01.011-.433zm-2.523 1.6c.068-.004.134-.01.194-.012.227-.01.474 0 .72 0 .159 0 .367.023.573.028l-1.487-.016zm2.523-.081c-.138.089-.138.128-.288.168l-.019-.09c-.215.01-.437.04-.642.02.275 0 .535-.04.651-.216l-.265.009c.138-.335-.058.02.009-.315h.078c.015.01.033.017.05.02l.128.289.07-.099-.04-.307.386-.01c-.07.189-.11.07-.228.297l-.07.012-.027.004-.021.004.034.033c.01.01.01.022.015.035l-.01.01c.108-.01.079-.029.058.099.116-.089.217-.167.366-.188-.038.164-.09.135-.235.224v.001zm-.267-.84V24.4h.593l.068.116c.12-.02.138-.02.227.058l-.888-.006zm.622.672l-.02-.356.296.02c-.057.178-.057-.078-.115.149.246.07.137-.069.206.128-.11.088-.041.077-.367.058v.002zm.819-.572c-.058-.197.177-.188.295-.05-.118.108-.147.128-.295.049z" fill="#605D5E"/><path fill-rule="evenodd" clip-rule="evenodd" d="M15.847 24.438l-.158.038c-.02-.158-.05-.375-.108-.502-.07.02.01-.058-.138.089l-.058.069c.006-.156.029-.311.07-.462-.168-.306-.05-.188-.128-.444l-.375-.03-.1.434c-.058.207-.088.513.05.69.246-.177.01-.05.03-.306.009-.148.049-.108.069-.137l.295-.05-.01.307-.048.186.196.01-.01.188c-.216.049-.236-.02-.443 0-.247.02-.138.058-.435.02.04-.099-.01-.03.08-.116.09-.084-.02-.04.148-.08l-.09-.138-.029-.187c-.158.11-.127.158-.138.346l-.128.08.108.246c.297-.058.662-.098.948-.049-.02.148.029.03-.09.158.11.128.11.139.11.347l-.366-.206c.05-.057.098-.057.148-.187-.473.049-.335-.07-.493.069-.02.01.01.156-.217.038-.01 0-.04-.029-.05-.038-.236-.139-.285.029-.276-.8 0-.119-.02-.256-.02-.384.01-.197.058-.197.09-.385-.07-.138-.139-.129-.149-.256-.02-.199.09-.119-.068-.317-.198-.01-.011-.01-.168.05-.04-.425-.049-.503-.325-.8.049-.177.078-.098.078-.306-.552-.236-.453.09-.444.326l-.177.148c-.01.622.02.404-.1.622-.068.118.08.049-.078.098-.07-.266.178-.404-.188-.433-.01.326.05.355-.128.611.07.296.058.503.05.82-.01.288.069.66-.217.692l-.069-.297c-.296.031.019.051-.267.248 0 .159-.01.02.04.058.109.089.07-.058.089.198a.901.901 0 000 .168c.009.118.069.069.108.057l.819-.069.068-.188-.364.01-.08-.534.15-.078a.038.038 0 00.029-.01c-.09-.266-.099.03-.11-.256-.009-.138-.02-.276.058-.355l.03.246c.236 0 .049 0 .196.158.139-.336.268-.138.375-.057l.058.404c-.208-.147-.159-.058-.208-.364l-.158.296-.108-.168c-.049.058-.049.365-.058.474l.168-.01c-.058-.168-.05-.05.01-.159l.188-.03-.02.199.257-.03-.011.227-.275.049-.02.168c.414.147.76-.17.828.138l-.057.049a.24.24 0 01-.119.02.827.827 0 01-.217-.01 2.993 2.993 0 00-.425-.01c.07.039-.089 0 .08.039.275.057.6.03.768.049v1.501c.058-.069.04-.098.04-.226l.277.088c.009-.246-.04-.443.078-.63.13.098.07.848.07 1.155.01.384-.01.848.028 1.223l.11-1.776c-.04-.197-.04-.079-.01-.277.03-.187-.01-.107-.02-.288l.365-.038c.08.542-.099.66.1.995.009.01.018.02.018.029l-.108.116.168.346c.089-.168 0-1.056.089-1.402-.149-.087.01-.115.138-.107a.274.274 0 01.01.128l-.08.147c.148.09.08.208.08.642 0 .277 0 .494.02.77.018.256.02.512.009.768 0 .178-.108.534.03.643a.142.142 0 00.019-.031l.02-1.598c-.05-.444.286-.66.217-1.016-.019-.158-.04-.227-.058-.404v-.277l.02-.138-.099-.098c.108-.167.098-.02.068-.167a.09.09 0 00.045 0l.024.021a.103.103 0 01.05.07l.01-.058c.088-.328.028-.455-.002-.81zm-3.265.245c-.02-.04-.05-.028-.05-.115-.01-.147-.01-.04.039-.128.188.056.218.165.01.243zm.71-2.693c.04-.256-.09-.236.138-.236.057.247-.07.158.098.552l-.364-.068c.04-.08.098-.07.128-.248zm-.267.9l-.01-.15c.207.02.866-.138.573.286l-.089-.137c-.158 0-.346.038-.474 0zm.553.481c.02-.207-.03-.176.118-.216.022.1.029.203.02.305 0 .484.01.29.057.347.128-.178.01-.355.088-.573.058.05.08-.01.08.227l.009.937h-.375c-.007-.404-.047-.612.003-1.027zm.167 1.284c-.039-.168-.05-.05.01-.199.197-.029.188.031.217.218l-.227-.02zm1.174.798c-.019.267.02.347-.226.375a1.654 1.654 0 010-.227c0-.197.049-.089-.05-.207-.138.178.01.178-.088.394-.188-.049-.139-.236-.09-.404.07-.257-.115-.139.03-.404l.385.038c0 .227-.049.03 0 .208.039.119.05.05.039.227z" fill="#3A3639"/><path fill-rule="evenodd" clip-rule="evenodd" d="M21.934 23.807c-.168 0-.088-.09-.116.462-.02.522.08 1.322-.029 1.519l.128.158c0 .187.03.394-.049.542-.079.139-.05-.04-.079.188-.02.236.02.128-.08.236-.107-.157-.057-.414-.068-.799a6.632 6.632 0 01.04-.77l-.102-.895c-.01.533.079.819.079 1.243.01.316.02.444-.08.553-.078-.139-.019-.29-.048-.462-.058-.03-.01-.01-.04-.02-.01 0-.02 0-.02-.01-.01-.01-.02-.01-.03-.02-.01-.207.01-.424-.01-.631-.068-.543.04-.493-.127-.513.039.503.069 2.22.01 2.673.197.119.108.415.128.671l.493-.01-.148-.217c.158-.128.148-.057.316-.02.187-.148.197-.098.375-.02.246.119.069-.057.305.04.03.09.02.03-.02.197l.79-.02c.069-.187.02-.937.03-1.203 0-.444-.1-.305-.129-.552-.03-.336.01-.296.138-.533l-.138-.158c.04-.296-.02-.434-.02-.73 0-.256 0-.513-.01-.77 0-.443.13-1.331-.088-1.479-.058.08-.099-.116-.04.276l.01.77c-.01.335-.029.67-.029.986l.03 1.549c.01.315.039.207-.116.424.128.178.109.03.115.257l-.01.799c-.098-.129-.088-.158-.098-.326-.08-.098-.109-.128-.109-.296v-1.294c.03-.563-.057-1.046 0-1.638l.119-.078c-.08-.178-.05.02-.119-.208.03-.256.119.237.119-.65l-.109-.08c0-.157.01-.394-.099-.473-.02.04-.029.01-.039.089 0 .058.01.069.01.108.02.074.03.15.03.227v3.394c-.119.217-.11.03-.11.384.01.135.003.27-.019.405-.078-.119 0-.908 0-1.135-.01-.71.05-.513-.089-1.115-.069-.288.099-1.973-.03-2.269-.029-.098 0-.03-.048-.079-.05.116.02 1.372.02 1.617-.01.227-.058.72-.05.809.089.71-.04.572-.079.693.01.256.09 1.075-.03 1.233-.098-.247.04-1.49.02-1.707-.069-.848-.04-1.588-.079-2.31-.01-.266.09-.286-.128-.365.03.462.04.878.04 1.351.01.425-.04.809-.03 1.194-.109-.305-.01-.04-.138-.128l.03-1.924c.01-.167.019-.178-.04-.316-.099-.216 0-.108-.158-.147l-.05.594c-.01.267-.068 1.224.01 1.372v-1.127c.11.128.07.207.07.434l-.01 1.293c-.07-.116-.02-.058-.058-.158l-.02-.02-.057-.089c-.05-.148.069-.592-.03-.976h-.003z" fill="#EBE9EA"/><path fill-rule="evenodd" clip-rule="evenodd" d="M19.669 27.456l-.029-1.382c0-.216.05-.453.04-.64-.02-.454-.04-.888-.04-1.371 0-.306.078-1.155-.02-1.352-.07.246-.02.089-.02.289 0 .04.01.167-.04.167.04.317 0 .819-.01 1.155 0 .277.09.731-.028.958l-.347-.01c-.207-.198-.138-.266-.138-.52-.226-.237-.108-.276-.288-.474-.11.08-.09.11-.188.237a.759.759 0 00-.09.128c-.097.128-.117.02-.048.474-.297.217-.158.168-.583.168-.502 0-1.598.04-2.002-.03l-.01.058a.102.102 0 00-.05-.07l-.024-.02a.088.088 0 01-.045 0c.03.146.04 0-.067.167l.098.098c.355-.079.937.058 1.292.02.148-.01.168-.05.347-.058.217-.01.788-.01.936.069-.119.218-.079.1-.641.108l-.64.04c-.277 0-1.086.01-1.313-.04v.277h.462c.03.335-.128 1.598.079 1.766.187-.116.089-.178.07-.384-.021-.268-.03-1.243.057-1.382.025.034.037.036.04.034a.223.223 0 000 .057v2.644c.109-.157.158-1.095.129-1.313-.03-.217-.04-1.232.038-1.41l.158.01c.02.157.01.139-.078.247.188.227.049.838.078 1.155.02.276-.02 1.055.058 1.223.246-.289-.138-1.835.137-2.623l.069 1.617c.01.257-.03.115.05.237.04-.05.088-.04.068-.237l-.029-.77c.02-.562-.078-.79.178-.878-.049.512.01 1.124.03 1.608.009.326-.188 1.155-.03 1.44.217-.217-.098-1.076.197-1.292-.03-.207-.099-.474.02-.632.03.332.04.665.03.997l.177.03c.03-.612-.08-1.213 0-1.835.228-.03 0 1.627.217 2.002.129-.325-.188-2.062.129-2.318.067.109.058.414.058.573-.03.75-.058.197-.02 1.113 0 .15-.039.424.01.505.088-.15-.02-.09.128-.248.011-.306-.079-.957-.01-1.203.03.04.03 0 .05.089.01.049-.029 1.036.089 1.203.01-.296-.05-.631-.03-.866.04-.443-.07-.759.1-.866-.09-.158-.208-.513.098-.424l.02.591c.197-.049.098-.069.246-.187-.128-.138-.177-.236-.05-.444.159.03.148.03.148.227l-.01 1.027c.01.266-.028 1.252.07 1.39.057-.069.03 0 .089-.115a.691.691 0 00.03-.148c.048-.375-.13-2.13.008-2.349.05.12.02.988.02 1.225-.01.65-.01.315.09.413.068-.236.049-1.39.04-1.696l-.13-.079c-.049-.04 0 .019-.049-.05.089-.148.346-.088.543-.088-.02.108.01.098-.09.157l-.176.057c.029.277-.07 1.065.057 1.244.046-.046.05-.011.05 0a.978.978 0 01.02-.132v-.512c0-.572-.04-.493.118-.562.02.384-.039 2.14.07 2.317.118-.079.078-.276.027-.601zm-.79-1.844c-.157.057-.461.088-.542-.08.109-.089-.098-.03.149-.079l.404.04-.01.119zM18.733 25c-.01-.129.08-.1.109-.109l.07.266c-.06-.02-.166-.02-.178-.157h-.001zm-2.973.214c.035-.012-.087-.076 0 0z" fill="#605D5E"/><path fill-rule="evenodd" clip-rule="evenodd" d="M24.38 30.317l.049-.147-.207-.07c-.13-.265-.07-1.193-.07-1.539l.079-.05s.07.021.1-.206l-.188-.087c.03-.198.088-.129.03-.317l-.456-.029.02.188.139.03c.178-.021.03-.058.216.028.04.188-.049.188-.167.15-.038.078-.088.029-.226.038l-.712.01c-.038-.178.011-.115-.118-.207-.177-.05-.207.158-.216.178l-.217.01c-.05.115-.02.049-.08.115-.009-.01-.03-.02-.03-.03a.204.204 0 01-.052-.08.292.292 0 01-.055-.008c-.02-.01-.187-.02-.247-.03l.03.148-.276.05c.098.057.384 0 .552 0-.03.227-.03.097-.168.265.058.158.138.484-.058.562-.049-.107-.038-.424-.009-.58l-.502.018c-.08.01-.01-.019-.02.08l.147-.01c.05.128.04.829.02.996.159-.03.099-.02.168.01l-.02.217c-.228 0-.256.069-.277-.177-.038-.583-.009-.395-.156-.462-.1.148-.09.138-.05.334.02.116.054.229.099.337-.228-.03-.289-.058-.444-.03-.129.02-.268.01-.335-.079l-.139.07c-.03.088.02.01-.04.078-.078.1-.057-.01-.115.138v.109l.503.115c.01 0 .01.02.02.02l.493-.01c-.208-.019-.326.04-.462-.058.12-.07.316-.058.484-.05a.234.234 0 01.02-.049l.265-.03c-.029.09.01.04-.069.069l-.07.247-.66.01c-.364 0-.127.01-.187.057.149.108.098.05.444.07.158 0 .316 0 .473.009.297 0 .573-.05.899-.04.542 0 1.302.08 1.805.01 0-.138-.158-.058-.562-.089-.207-.009-.462.01-.662-.04v-.242c-.168 0-.168.058-.148-.138.178-.01.148.05.297.04.265-.02.07.038.216-.178.217.098.079.07.228.167l.275-.098c.01.01.018.025.02.04l.07.089a.733.733 0 01.146.01c.113.02-.065.008.163.048zm-1.52-.897c-.01-.02-.02-.02-.04-.04l-.079.09c-.028-.188 0-.04-.138-.14l.05.652-.178-.09c.12.139.03.05.02.29l-.227.01c-.049-.09-.01.078-.049-.116l-.02-.356-.149.05c.119-.099.02.02.13-.128-.188-.01-.237.01-.119-.177.119.01.04-.01.138.07l.316.057c-.02-.52-.148-.652.109-.819.038.158 0 .386-.011.553l.306-.03.05.198-.11-.074zm.819.582l.01-.267c-.108.178.02.138-.09.256-.079-.088-.079-.433-.079-.571.01-.286-.02-.484.079-.612.08.158.011.652 0 .878.139-.207-.079-.66.356-.207 0-.157-.04-.572.039-.67.07.038.058 1.026.07 1.173-.247-.029-.109.09-.385.02zm-.355-1.292c-.247-.01-.632.07-.888-.02l.02-.158c.197-.148.562-.02.581-.02.109 0 .02-.03.169-.039l.866.088c-.07.228-.404.168-.748.149zm-1.05-.404c.03 0-.006-.022 0 0z" fill="#4B474A"/><path fill-rule="evenodd" clip-rule="evenodd" d="M31.868 22.651c-.04-.098-.01 0-.04-.136-.04-.109.01-.13-.148-.149l-.02.336-.109-.05-.167.02c-.079-.148-.03-.148-.07-.296-.137.03-.176.058-.225.188.016.005.025.01.03.01.006.002.008-.008.037-.01.058-.01.04-.138.159.087a.37.37 0 01-.128.04c-.247.05-.109-.049-.247.079l.236.08c-.069.138-.087.158-.245.187a1.062 1.062 0 01-.04-.216l-.098-.594-.11.179c0 .01-.009.02-.02.029l-.058.08c.05.136.159.226.07.384-.139-.167.057-.09-.139-.227-.098.089-.227.493-.167.593.197.115.009.067.127.442.05.139 0 .316.03.484l.03.079c.148-.07.079.088.09-.207l-.031-.611c.01-.158.02-.138.187-.158.04.057.05.029.069.115l.011.7c-.011.237-.089.247.05.169.039-.159-.05-.693.088-.8l.05.347c.087-.157-.011-.098.265-.088-.227.788-.236.07-.288.493.049.058-.07.088.088.03l.058-.01.237-.03.03.198.02.07.483.028.02-.078c-.106-.592.122-1.253-.115-1.787zm-.404.29c-.178.028-.138.048-.208-.11.098-.089-.109-.05.138-.058.07 0 .03.011.088.04l-.018.127zm.087 1.465l-.009-.52c.02-.187.03-.098.07-.147.088.058.088-.1.088.364 0 .227.05.236-.149.303zm-.432-1.832c0 .004.014.005 0 0z" fill="#3A3639"/><path fill-rule="evenodd" clip-rule="evenodd" d="M21.302 24.586c.168.02.058-.03.129.513.02.207 0 .424.01.631.01.01.02.01.029.02 0 .01.01.01.02.01.03.01-.02-.01.04.02.029.177-.03.325.048.462.1-.109.09-.237.08-.553 0-.424-.09-.71-.08-1.242l.1.897a6.61 6.61 0 00-.04.77c.01.384-.04.64.069.798.098-.108.057 0 .079-.236.03-.227 0-.05.079-.188.078-.148.049-.355.049-.542l-.128-.153c.108-.198.01-.997.03-1.52.03-.552-.05-.462.115-.462-.02-.197.01-.079.01-.217a.903.903 0 00-.01-.167c-.04-.336.148-.513 0-.839-.04-.099.02-.04-.109-.118-.058.089-.058-.04-.069.177 0 .058.03.099.05.178.04.266-.05.289-.05.289-.177-.207.03-.227-.079-.434-.078-.158.02-.04-.138-.158 0 .178.07.997-.057 1.065-.02-.177.049-.631 0-.878l-.109-.227c-.08.09-.128-.108-.058.306.07.424-.049 1.638-.01 1.806v-.008z" fill="#827F80"/><path fill-rule="evenodd" clip-rule="evenodd" d="M21.666 20.166c.138.493-.109.996.128 1.528.138-.01.138-.049.207-.049.1 0 .454.109.928.03l.01-.316c-.385-.355.01-.927-.247-1.183-.04.118.099 1.144-.04 1.36-.098-.108-.03 0-.078-.236-.05-.289-.04-.65-.02-.957l-.089-.177c0-.02-.02-.02-.03-.04-.118.188-.069.099-.039.306.011.095.018.19.02.286 0 .118.01.493-.03.562-.177-.049-.069-.197-.03-.306-.057-.088-.057-.057-.118-.167 0-.217.03-.483-.057-.681-.217.089-.119.335-.148.572-.02.198.03.385.03.642l-.099-.158c-.05-.07-.02-.03-.089-.058.01-.306.079-.7-.04-.977l-.169.019zm2.102 1.154v-.986c-.069-.01-.01.01-.01-.128-.01-.09-.03-.119-.05-.237l-.282-.08.04 1.086c0 .168-.01.089-.03.148-.227-.108-.09-.108-.116-.622-.01-.167-.02-.434-.04-.602h-.226c-.05.168-.03 1.599.01 1.786.71.07.572-.187.592-.542.078.138 0 .069.115.177h-.003z" fill="#EBE9EA"/><path fill-rule="evenodd" clip-rule="evenodd" d="M24.032 25.561l.068.05c.01 0 .02.009.03.019a.038.038 0 00.02.01v.217c0 .01-.01 0-.02.01-.01.057-.01.01-.04.01l-.039.02a.03.03 0 00-.02.01c-.01.52-.157 1.42.12 1.578-.08.098.068.02-.11.089v.246a.428.428 0 00.178-.404c-.079-.52.227-.434-.079-.693l-.058-.05c.09-.227.129.01.11-.473a2.891 2.891 0 01.019-.582c.04-.276-.02-.72-.02-1.134 0-.139.04-.474.03-.534a3.78 3.78 0 01-.03-.581c0-.08.148-.819-.04-1.086h-.127c-.01.05-.02 1.401-.03 1.599-.02.582.03 1.114.04 1.674l-.002.005z" fill="#605D5E"/><path fill-rule="evenodd" clip-rule="evenodd" d="M26.451 25.986h.09l.029-.148h.444c-.128.316-.05.957-.07 1.055-.02.139.03.058-.078.148.108.058-.168.09.148.04.01-.306-.07-.829.01-1.135.039.119.01.582.057.996.03.316-.098.1.07.336.157-.187.098-.779.079-.996-.109.03-.05.473-.05.592-.167-.188-.049-.523-.099-1.036l.693.02c-.078.197-.068.346-.078.562.108-.116.03-.296.118-.474l.01.198c.078-.099.01-.207-.03-.316l1.164.04c.01.276-.079.088-.049.335l.73-.385c-.05.03-.07.04-.128-.089l-.058.158c-.148-.108-.099-.088-.325.02-.01-.02-.01-.04-.02-.04-.04-.058-.01-.069-.109-.049l.08-.296-2.565.01-.07.148c.257.05 1.51-.02 1.786.02.237.03.276.069.562.058-.444.115-1.716-.02-2.328.049.03.187.02.049-.01.177l-.003.002z" fill="#B9B7B8"/><path fill-rule="evenodd" clip-rule="evenodd" d="M20.55 27.22c.07-.1.04-.149.04-.29.05-.177-.03-.01.108-.167.02-.375 0-.75 0-1.114 0-.573.04-3.167-.058-3.345l-.128-.02c-.119.207-.03.365-.03.622.01.562-.039 1.529-.02 1.973l.058.335c.01.1.02.01.03.129.049.296-.058 1.746 0 1.874v.002z" fill="#3A3639"/><path fill-rule="evenodd" clip-rule="evenodd" d="M20.925 20.373c.023.2.026.401.01.602-.02.276.05.276 0 .513.168.089.207.256.641.207V19.87c-.76-.138-.69.098-.651.503zm.404 1.233c-.098-.178.039-.115-.158-.335.03-.158.02-.544.009-.72-.019-.641-.098-.543.139-.572.08.157-.05.049.03.424.038.177-.058.65 0 .898.04.147.12.147-.019.305h-.001z" fill="#fff"/><path fill-rule="evenodd" clip-rule="evenodd" d="M20.6 29.834c-.109.039-.115-.02-.069.177l.138-.069c.07.089.207.099.336.079.158-.03.216 0 .443.03a1.7 1.7 0 01-.098-.336c-.04-.197-.05-.187.05-.335.147.069.118-.116.157.462.02.246.05.177.276.177l.02-.217c-.07-.03-.01-.04-.168-.01.02-.167.03-.866-.02-.996l-.147.01.01.532c-.198-.049-.198.01-.356-.02.01-.157.119-.325.01-.522-.197-.01-.108.03-.138.513h-.296c0-.168.04-.385-.02-.52-.187.099.02.207-.157.592.098.158.088.237.108.424-.04.058.04.058-.079.03v-.001z" fill="#D9D9DA"/><path fill-rule="evenodd" clip-rule="evenodd" d="M13.869 27.21c.08-.14.04-.277.05-.534v-.512c.009-.168.057-.77-.01-.898-.238.089-.1.079-.158.365h-.119c.02-.29.178-.316-.138-.347.02.237.128.325-.098.365-.139-.197.068-.346-.198-.365l-.04.483v.602c-.01.227-.069 1.006.08 1.134l.088-.276c.01-.316-.058-1.341.07-1.539.177.07.128.01.137.208.01.266-.057.788.03.957.227-.247-.088-1.116.178-1.086.058.168.04.572.02.77-.058.493-.08.611.108.67v.002z" fill="#4B474A"/><path fill-rule="evenodd" clip-rule="evenodd" d="M29.006 26.312l-.01.71c.197.198.057.158.148.385-.129.148-.058-.05-.129.168l.05 2.425a.57.57 0 00.137-.115c.08-.099.05-.058.04-.207-.325-.217-.058-.237-.03-.347-.01-.069-.02-.325 0-.384.04-.188.05-.02.159-.227l-.14-.158c.07-.158.021-.04.13-.168.02-.256 0-.483 0-.73.01-.266-.05-.424-.04-.69l-.109-.128.01-.642-.058.08-.159.028z" fill="#918E90"/><path fill-rule="evenodd" clip-rule="evenodd" d="M32.28 27.178l.108.05c-.108-.306-.01-1.569-.01-2.013l-.115-.058.01.109c-.178-.058-.1-.079-.247-.01-.07.237.05.316-.116.424-.057-.057-.02.01-.057-.108-.128-.404.108-.188-.158-.306-.128.276.03.859 0 1.371-.02.218-.157.168.01.257.07-.099.118-.462.128-.602 0-.207-.078-.454.09-.52.038.05.068-.057.057.306 0 .246-.03.306.058.394.177.168-.07.454.128.612.04-.069-.01-.444.01-.75-.01-.01-.03-.01-.03-.02l-.099-.069c.058-.138-.039-.02.116-.129.02-.147-.01-.236.049-.334.118.088.08 1.183.07 1.4l-.002-.004z" fill="#827F80"/><path fill-rule="evenodd" clip-rule="evenodd" d="M30.485 25.819l.177.04c0 .226-.049.453.05.631.069-.07.089.079.089-.326 0-.157.03-.197-.05-.288v.365c-.01.404.02.266.09.346.108-.158.088-.453.088-.73h.116c-.116-.167-.01-.049-.208-.049-.286 0-.115.01-.207-.08.089-.048.07-.068.237-.038.108.01-.03.039.157.02.058-.139.058-.158.02-.306l-.04-.149c-.048-.078.03-.049-.128-.057-.039.098-.01.115-.01.115.02.347.02.207-.115.276-.099-.197-.01-.207-.079-.384-.187-.08-.088-.02-.216.029-.169.05-.07-.03-.218.08l-.01.413c.04.02-.05.128.188-.069.098.07.089-.158.069.158v.003z" fill="#D9D9DA"/><path fill-rule="evenodd" clip-rule="evenodd" d="M21.666 20.166l.168-.02c.118.276.05.67.04.976.068.03.039-.01.088.058l.098.159c0-.258-.049-.445-.029-.642.03-.237-.069-.483.148-.572.089.197.058.462.058.68.057.109.057.08.118.168-.04.108-.148.257.03.306.039-.07.029-.444.029-.563a2.817 2.817 0 00-.02-.285c-.03-.208-.078-.119.04-.306.01.02.03.02.03.04l.088.177c.03-.187.03-.208-.04-.237.228.04.307.03.435-.079-.138-.098-.03-.079-.256-.088-.08 0-.208.01-.297.01-.217 0-.404-.01-.621.039l-.107.179z" fill="#605D5E"/><path fill-rule="evenodd" clip-rule="evenodd" d="M21.539 28.729l.503-.02c-.03.158-.04.474.01.582.197-.079.118-.404.057-.562.138-.168.138-.04.168-.267-.168 0-.454.058-.552 0-.306.04-.85-.049-1.066.03l.03.188c.157.098.65.039.848.049h.002z" fill="#EBE9EA"/><path fill-rule="evenodd" clip-rule="evenodd" d="M28.542 27.337l.03.573c.187-.08.01-.04.079-.207.108.157.029.137.187.128.02.187-.01.118.069.227.167-.257.05-.592.04-.867-.01-.266 0-.611.01-.877l-.218-.03a11 11 0 00-.01 1.134l-.187-.08z" fill="#A4A1A3"/><path fill-rule="evenodd" clip-rule="evenodd" d="M22.306 17.828l.494.098c-.01-.02-.207-.68-.079-.996-.138.098-.089.04-.217-.01a.816.816 0 00.089.592c-.08.057-.099.079-.168.138.03-.168-.01-.355-.05-.513-.057-.237.11-.276-.078-.414-.079-.01-.05-.02-.099.01v.473c0 .306-.01.05-.115.296l.128.128-.04.227.136-.03z" fill="#D9D9DA"/><path fill-rule="evenodd" clip-rule="evenodd" d="M15.725 25.618c.227.05 1.036.04 1.312.04l.641-.04c.562-.01.523.109.641-.108-.148-.079-.72-.079-.937-.069-.177.01-.197.05-.347.058-.355.04-.936-.098-1.291-.02l-.02.14zm5.585-3.37c.039.335.404.148.996.148.415 0 .808.02 1.213.01-.05-.267-.198-.188-.444-.188-.602 0-1.076-.05-1.766.03z" fill="#EBE9EA"/><path fill-rule="evenodd" clip-rule="evenodd" d="M23.952 29.479c-.433-.454-.217 0-.355.206.01-.226.08-.72 0-.877-.099.128-.069.325-.078.611 0 .138 0 .483.078.572.109-.118-.02-.079.089-.256l-.01.266c.276.07.138-.049.385-.02-.01-.147 0-1.134-.069-1.173-.079.098-.04.512-.04.67zm-1.441.108l-.315-.058c-.099-.079-.02-.058-.139-.069-.118.188-.069.168.119.178-.11.148-.01.03-.129.128l.149-.05.02.356c.039.197 0 .03.048.116l.227-.01c.01-.237.1-.149-.02-.289l.178.089-.049-.651c.138.098.108-.05.138.138l.08-.089c.019.02.029.02.038.04l.109.069-.05-.198-.305.03c.01-.168.049-.395.01-.552-.257.167-.129.295-.109.819v.003z" fill="#D9D9DA"/><path fill-rule="evenodd" clip-rule="evenodd" d="M24.33 30.711c.05-.069.079.1.03-.088-.158-.08-.76-.04-1.026-.04-.247 0-.188.02-.218-.157.198.098.849.147.889-.01.01-.01.01-.02.02-.03.068.005.138.005.207 0l.115-.05c.01-.019.02-.019.03-.019-.227-.04-.05-.03-.168-.05a.698.698 0 00-.148-.01l-.069-.088a.071.071 0 00-.02-.04l-.276.099c-.148-.099-.01-.07-.227-.168-.148.217.05.158-.217.178-.148.01-.116-.05-.296-.04-.02.197-.02.139.148.139v.248c.197.049.454.03.661.04.404.029.562-.05.562.088l.003-.002z" fill="#918E90"/><path fill-rule="evenodd" clip-rule="evenodd" d="M13.692 23.155c-.148.04-.098.01-.118.218-.05.414-.01.621 0 1.025h.378l-.01-.937c0-.237-.02-.177-.08-.227-.078.217.04.395-.088.572-.05-.058-.058.138-.058-.346a1.024 1.024 0 00-.02-.306l-.004.002z" fill="#D9D9DA"/><path fill-rule="evenodd" clip-rule="evenodd" d="M30.878 22.228l.05.119c.12-.023.242-.04.365-.05.147 0 .157.116.206.207.03-.068.058-.364.08-.512-.188 0-.178.03-.29-.1l.103-.246c-.207-.03-.306-.049-.462.058l-.052.524z" fill="#3A3639"/><path fill-rule="evenodd" clip-rule="evenodd" d="M21.97 28.264c.058.01.227.02.247.03.158.04-.03-.069.109.089 0 .01.02.02.029.03.058-.07.03 0 .08-.116l.216-.01c.01-.02.04-.226.217-.177.128.089.079.03.118.207l.71-.01-.039-.246h-1.735l.048.203z" fill="#EBE9EA"/><path fill-rule="evenodd" clip-rule="evenodd" d="M22.454 28.531l-.02.158c.257.089.642.01.888.02.347.02.681.079.75-.148l-.865-.09c-.148.01-.058.04-.168.04-.02 0-.385-.128-.582.02h-.003z" fill="#fff"/><path fill-rule="evenodd" clip-rule="evenodd" d="M15.886 27.743c.069-.04.148-.02.187-.178.058-.266-.02-.108-.04-.178-.01-.057.09-.897.03-1.36-.197.049-.177.057-.207.305-.04.306.03 1.065.03 1.41z" fill="#827F80"/><path fill-rule="evenodd" clip-rule="evenodd" d="M27.232 26.282c-.04-.168-.116-.276.049-.375.039.05.049-.07.039.116l.089.098c.089-.138 0-.138.128-.227.128.267-.049.197-.058.395.07.058-.04-.04.1.049l.009.651.138.129-.03-.7c.01-.218 0-.366.079-.563l-.693-.02c.05.513-.069.848.099 1.036 0-.115-.058-.563.05-.592v.003z" fill="#3A3639"/><path fill-rule="evenodd" clip-rule="evenodd" d="M14.692 25.829c.247-.03.207-.109.227-.375.01-.178 0-.109-.04-.227-.049-.177 0 .02 0-.207l-.384-.04c-.148.267.039.148-.03.405-.05.168-.099.355.089.404.098-.217-.05-.217.088-.395.1.116.05.01.05.207a1.753 1.753 0 000 .227z" fill="#EBE9EA"/><path fill-rule="evenodd" clip-rule="evenodd" d="M29.34 26.144l.05 1.174c.079-.116 0-.058.1-.116l.107-.01c.02-.148.01-.177.02-.296.03-.346.116-.207-.108-.473l.03-.03.127-.148c.03-.069.02-.217.02-.296a.637.637 0 00-.227.128c-.02.119.01.09-.115.07l-.003-.003z" fill="#918E90"/><path fill-rule="evenodd" clip-rule="evenodd" d="M21.869 17.67c-.02.069.078.04-.07.05-.098-.257.02-.682-.088-.85-.158.149-.108.8-.08 1.017.386-.217-.108.05.444-.058l.05-.098a.952.952 0 00-.07-.089s-.019-.01-.019-.02c-.079-.276.07-.7-.058-.897-.158.217 0 .866-.108.947l-.001-.002z" fill="#EBE9EA"/><path fill-rule="evenodd" clip-rule="evenodd" d="M27.319 26.026l-.04 1.045c.247.108.148-.03.306-.079l-.01-.651c-.138-.088-.03.01-.098-.05.01-.197.187-.127.058-.393-.129.088-.04.088-.129.226l-.087-.098z" fill="#A4A1A3"/><path fill-rule="evenodd" clip-rule="evenodd" d="M14.678 24.2l.088.14c-.168.038-.058-.01-.148.078s-.04.02-.079.115c.296.04.188 0 .434-.02.208-.02.227.05.444 0l.01-.187-.197-.01.05-.187-.307-.01.02-.247c-.02.03-.058-.01-.069.139-.02.256.217.128-.03.305-.138-.177-.108-.483-.049-.693-.148.058-.089.079-.07.256l.011.178c-.05.207.03.058-.108.138v.006z" fill="#827F80"/><path fill-rule="evenodd" clip-rule="evenodd" d="M31.548 22.651l-.05-.147c-.049-.089-.057-.207-.206-.207-.123.01-.245.026-.365.049l-.05-.119h-.089l.099.593a.996.996 0 00.04.217c.157-.03.177-.05.246-.188l-.236-.08c.137-.127 0-.029.246-.078a.376.376 0 00.128-.04c-.118-.226-.099-.098-.157-.088-.09.01.02.03-.07 0 .05-.128.09-.158.227-.188.04.148-.01.148.069.297l.168-.02z" fill="#B9B7B8"/><path fill-rule="evenodd" clip-rule="evenodd" d="M21.172 21.27c.197.218.058.159.158.337.138-.159.057-.159.02-.307-.059-.246.04-.72 0-.897-.08-.375.049-.267-.03-.424-.237.029-.158-.07-.138.572.01.177.02.562-.01.72z" fill="#3A3639"/><path fill-rule="evenodd" clip-rule="evenodd" d="M21.863 17.67c.108-.08-.05-.73.108-.947.128.197-.02.621.058.897 0 .01.02.02.02.02a.922.922 0 01.069.089l-.05.099c.139.039.116.089.237 0l-.138.03.04-.228-.128-.128c.108-.247.115.01.115-.296v-.473c.05-.03.02-.02.098-.01-.237-.116-.148-.099-.246-.05-.119.058-.01-.02-.148.07-.09.246-.04.66-.04.927h.005z" fill="#827F80"/><path fill-rule="evenodd" clip-rule="evenodd" d="M21.485 19.476c-.364.167-.306.108-.582-.04v.365c.218 0 .494.03.661-.04.04-.177.058-.63-.03-.759-.118.158.03.118-.049.474z" fill="#EBE9EA"/><path fill-rule="evenodd" clip-rule="evenodd" d="M26.162 24.753c-.296-.02-.08-.058-.296-.099l-.03.178.217.02c-.089.296.03.197-.02.394-.216-.108-.04.04-.098-.197-.03-.148-.02-.089-.116-.138-.02.168-.02.04.01.207.04.247-.049.109-.058.316l.524.03c-.02-.11-.05-.178-.138-.218.118-.503-.07-.148.01-.493h-.005z" fill="#827F80"/><path fill-rule="evenodd" clip-rule="evenodd" d="M11.24 27.545c.247.057.789.098 1.016-.04l-.069-.177c-.168.01-.098.058-.335.069-.632.02-.267-.04-.553-.116-.088.116-.108.116-.058.267v-.003z" fill="#fff"/><path fill-rule="evenodd" clip-rule="evenodd" d="M26.54 25.986l.058.04c.01.108.01.187.01.305l.03.267c.108-.08.078-.139.068-.306-.01-.462.01-.306.058-.365.128.089.099.02.099.227 0 .305-.05.621 0 .887.108-.088.058-.01.078-.148.02-.098-.057-.74.07-1.055h-.444l-.027.148z" fill="#3A3639"/><path fill-rule="evenodd" clip-rule="evenodd" d="M22.09 18.706a.78.78 0 00.267.03c.01 0 .128-.02.128-.02.148-.03.039.01.128-.058-.148-.099-.247-.079-.434-.049.089-.108.04-.079.148-.115-.089-.198-.05-.129.069-.198l.089.198c.058-.058.02-.29 0-.395l-.336.04-.049.236c-.07.187-.07.128-.01.335v-.004z" fill="#A4A1A3"/><path fill-rule="evenodd" clip-rule="evenodd" d="M21.94 19.456l.692.02.03-.347c-.158.049-.138.099-.355.089-.237-.01-.178-.099-.365-.07-.058.169-.058.169 0 .307h-.003z" fill="#fff"/><path fill-rule="evenodd" clip-rule="evenodd" d="M21.684 19.771c.079.139-.05.09.246.07.375-.04.866.098.997-.07-.109-.108-.483-.069-.661-.098-.128-.02-.306-.058-.444-.01-.148.04-.089-.01-.138.108z" fill="#EBE9EA"/><path fill-rule="evenodd" clip-rule="evenodd" d="M30.93 24.279l-.04.108c.098 0 .04.03.148-.01.158-.069.058.04.098-.115-.157.058-.039.03-.088-.03.049-.424.058.296.289-.492-.276-.01-.178-.07-.267.088l-.05-.347c-.137.109-.048.642-.088.8l-.002-.002z" fill="#D9D9DA"/><path fill-rule="evenodd" clip-rule="evenodd" d="M31.963 24.516l-.483-.03c-.474-.02-.503.04-.543.177.188.116.247.03.503.02.415-.02.058-.05.513-.03l.01-.137zm1.431 2.92l-.996.01.029.158c.227.02.78.07.957-.01.04-.108.04.02.01-.158zM21.852 16.15c.02.149-.03.01.108.158.108.109.069.1.217.119.108-.148-.02-.138.128-.227.158.139 0 .168.178.227.197-.395-.207-.395-.347-.424-.04.033-.083.062-.128.089-.148.058-.01-.04-.157.058z" fill="#EBE9EA"/><path fill-rule="evenodd" clip-rule="evenodd" d="M20.994 28.294c.118.03.562.05.693.01l.02-.227-.72.01.007.207z" fill="#fff"/><path fill-rule="evenodd" clip-rule="evenodd" d="M29.132 24.566l.887.01c-.088-.08-.108-.08-.226-.058l-.07-.116h-.591v.164zm-16.118-1.825l.01.148c.128.04.315 0 .473 0l.088.138c.297-.424-.365-.266-.571-.288v.002z" fill="#EBE9EA"/><path fill-rule="evenodd" clip-rule="evenodd" d="M13.163 22.238l.365.069c-.167-.395-.04-.306-.099-.553-.227 0-.098-.02-.138.237-.03.177-.089.168-.128.247z" fill="#B9B7B8"/><path fill-rule="evenodd" clip-rule="evenodd" d="M29.756 25.237c.326.02.256.03.365-.058-.07-.197.04-.058-.207-.128.057-.227.057.03.115-.149l-.296-.02.023.355z" fill="#EBE9EA"/><path fill-rule="evenodd" clip-rule="evenodd" d="M21.764 18.193c.04.138-.04.039.099.128-.116.158-.158.089-.099.325.404-.049.276-.68 0-.453zm9.785 6.213c.197-.069.148-.079.148-.306 0-.462 0-.306-.09-.365-.038.05-.048-.04-.068.148l.01.523zm-8.828-6.193c-.069.188-.079.335.01.473l.158-.01c.05-.157 0-.473-.168-.461v-.002z" fill="#fff"/><path fill-rule="evenodd" clip-rule="evenodd" d="M18.34 25.532c.08.168.385.138.544.079l.01-.116-.405-.039c-.246.05-.039-.01-.148.08v-.004zm4.471-5.958l.109.01c.04-.178.049-.444-.01-.592-.02.01-.116-.109-.129.227 0 .118-.01.246.03.355z" fill="#EBE9EA"/><path fill-rule="evenodd" clip-rule="evenodd" d="M15.28 24.132l.01-.306-.296.05-.02.246.306.01z" fill="#fff"/><path fill-rule="evenodd" clip-rule="evenodd" d="M29.398 23.886l-.01.433.158-.01.04-.206c.02-.109.03-.116-.02-.217h-.168zm-.227 1.301l.119-.02c.115-.227.157-.108.226-.296l-.384.01.04.306z" fill="#EBE9EA"/><path fill-rule="evenodd" clip-rule="evenodd" d="M21.094 19.258l.01.167.316.01.01-.266-.238.04c-.088.03-.039.01-.098.049z" fill="#fff"/><path fill-rule="evenodd" clip-rule="evenodd" d="M25.945 25.552c-.158 0-.178-.03-.227.079.108.099.414.089.543.02-.07-.139-.129-.099-.316-.099zm3.329-.187l-.177.115.02.09c.148-.04.148-.08.288-.168.148-.09.197-.058.237-.227-.148.02-.247.098-.365.187l-.003.003zM24.92 27.1c-.01 0-.167.058-.057.326h.178c.01-.178.03-.257-.118-.325h-.002zm4.185-1.813l-.128-.289a.102.102 0 01-.049-.02h-.079c-.069.336.128-.02-.01.316l.266-.007zm-4.413-2.872c.09.148.03.04.13.158.115.137-.03.049.177.137-.01-.246-.02-.414-.307-.295zm-10.949 2.239l.227.02c-.03-.187-.02-.246-.218-.216-.057.147-.05.029-.01.197zm16.829.01c.148.08.177.058.296-.049-.116-.138-.356-.148-.296.05zm.888-.247l-.03-.197-.237.03.01.118.257.05zm-7.535 3.848c.118.04.207.04.168-.148-.188-.088-.04-.05-.217-.03l.05.178zM12.53 24.566c0 .089.03.079.05.119.207-.08.178-.188-.01-.247-.05.088-.05-.02-.04.128z" fill="#EBE9EA"/><path fill-rule="evenodd" clip-rule="evenodd" d="M31.253 22.83c.07.157.03.137.207.108l.02-.128c-.058-.03-.02-.04-.088-.04-.248.01-.04-.03-.14.058v.001z" fill="#fff"/><path fill-rule="evenodd" clip-rule="evenodd" d="M23.936 21.23c.09.128.129.108.257.039-.058-.148-.227-.168-.257-.04zm-5.023 3.927l-.07-.266c-.03.01-.118-.02-.108.108.01.138.119.138.178.158z" fill="#EBE9EA"/><path fill-rule="evenodd" clip-rule="evenodd" d="M22.1 15.579c.119.05.119.05.207-.05-.098-.118-.197-.108-.206.05z" fill="#D9D9DA"/><path fill-rule="evenodd" clip-rule="evenodd" d="M22.497 5.753c-9.25 0-16.747 7.5-16.747 16.747 0 9.248 7.498 16.748 16.747 16.748 9.25 0 16.748-7.497 16.748-16.748 0-9.25-7.498-16.747-16.748-16.747zm0 28.568c-6.525-.002-11.818-5.295-11.818-11.82 0-6.526 5.293-11.82 11.818-11.82 6.526 0 11.82 5.294 11.82 11.82 0 6.525-5.294 11.818-11.82 11.818v.002z" fill="#fff"/><path fill-rule="evenodd" clip-rule="evenodd" d="M22.5 0C10.075 0 0 10.073 0 22.5S10.075 45 22.5 45C34.926 45 45 34.928 45 22.5S34.928 0 22.5 0zm0 39.741c-9.522 0-17.24-7.718-17.24-17.24 0-9.523 7.718-17.242 17.24-17.242 9.523 0 17.241 7.721 17.241 17.241s-7.72 17.241-17.24 17.241z" fill="#fff"/><path clip-rule="evenodd" d="M22.498.759C10.492.759.757 10.492.757 22.5s9.735 21.742 21.741 21.742c12.007 0 21.742-9.734 21.742-21.742C44.24 10.492 34.506.76 22.498.76z" stroke="#000" stroke-width=".379" stroke-miterlimit="10"/><path d="M20.771 10.12l-.795.223-.592-2.112-.198 1.525-.546.155-.961-1.201.591 2.112-.75.21-.895-3.187.924-.258 1.146 1.375.264-1.77.924-.258.888 3.186zm3.598-.968a.96.96 0 01-.107.43.89.89 0 01-.26.301 1.16 1.16 0 01-.417.195c-.187.04-.379.055-.57.045l-1.326-.043.106-3.307 1.168.038c.185.003.369.018.551.046.122.021.24.065.347.127.11.06.2.153.257.264a.75.75 0 01.076.371.786.786 0 01-.134.428.715.715 0 01-.347.267v.018a.9.9 0 01.483.278c.122.136.18.317.173.542zm-.854-.043a.407.407 0 00-.058-.242.38.38 0 00-.182-.136.635.635 0 00-.206-.04 16.19 16.19 0 00-.355-.014l-.153-.005-.027.828h.045c.216.007.365.01.448.01a.712.712 0 00.256-.052.33.33 0 00.17-.138.437.437 0 00.062-.21zm-.166-1.35a.37.37 0 00-.036-.166.247.247 0 00-.124-.126.53.53 0 00-.193-.045 9.35 9.35 0 00-.334-.014h-.058l-.022.7.104.003c.142.005.242.006.3.005a.485.485 0 00.177-.04.266.266 0 00.143-.129.454.454 0 00.043-.188zm1.368 2.451l2.06-2.821.865.27.074 3.491-.818-.257.005-.706-.993-.31-.4.582-.793-.25zm2.194-.648l.005-1.142-.649.94.644.202zm-6.019 28.773l-.827-.173.465-2.194-.902 1.287-.567-.12-.302-1.543-.464 2.194-.782-.166.701-3.307.958.2.387 1.79 1.077-1.478.957.203-.701 3.307zm3.836-2.872l-1.427.098.188 2.73-.848.058-.23-3.373 2.273-.157.044.644zm3.106-1.608l-.243 2.92a1.306 1.306 0 01-.099.424.926.926 0 01-.415.45 1.655 1.655 0 01-.265.11 13.31 13.31 0 01-.616.178l-.22-.684.05-.015c.014 0 .035-.005.064-.009.028-.004.064-.011.108-.02l.115-.028a1.073 1.073 0 00.373-.155.267.267 0 00.133-.178l-1.971-2.03.873-.28 1.176 1.286.097-1.698.84-.27zM15.15 9.106l-.062.28c-.205-.04-.372-.04-.56.079-.256.159-.334.462-.22.738l.674-.42.14.225-.67.419a.584.584 0 00.75.115.729.729 0 00.316-.444l.263.086a.916.916 0 01-.428.595.896.896 0 01-1.257-.295c-.271-.434-.16-.978.277-1.251a.92.92 0 01.777-.127zm-.962 1.881l-.239.187-.394-.503-.063.862-.282.222.061-.762-.919-.262.285-.224.659.184.029-.315-.199-.252.239-.187.823 1.05z" fill="#000"/><path d="M12.776 11.24a.712.712 0 11-.992-.016.693.693 0 01.992.016zm-.809.77a.414.414 0 00.594.029c.178-.169.158-.416-.005-.588a.412.412 0 00-.591-.032c-.182.171-.16.42 0 .59h.002zm.136.815l-.198.23-.411-.35-.383.447.41.351-.198.231-1.014-.866.199-.23.409.35.378-.449-.404-.35.198-.231 1.014.867zm-1.437.654a.712.712 0 11-.974.186.693.693 0 01.974-.186zm-.635.919a.41.41 0 00.586-.093c.14-.201.07-.44-.124-.577a.416.416 0 00-.584.093c-.142.204-.071.443.122.577zm.298.768l-.144.268-.743.074.347.663-.144.266-1.177-.632.145-.272.785.421-.33-.653.721-.086-.78-.419.141-.263 1.178.633zm-.777 1.483l-.11.276-.831-.333c.198.306.397.612.595.92l-.108.267-1.239-.497.11-.274.826.331-.59-.92.108-.268 1.239.498zm-1.558 1.898a.947.947 0 01.014-.409c.074-.255.267-.397.53-.32l.497.144-.085.294-.427-.124a.221.221 0 00-.285.146.672.672 0 00-.006.338l.566.164-.085.294-1.282-.372.085-.294.478.14zm.021.56c.375.07.635.394.563.77-.079.417-.446.566-.824.495a.804.804 0 01-.083-.02l.18-.964a.373.373 0 00-.404.315.483.483 0 00.09.385l-.19.146a.676.676 0 01-.145-.582c.072-.38.403-.622.813-.545zm-.09.989c.197.016.37-.07.407-.268.034-.184-.083-.34-.281-.404l-.127.672zm-.175.427h.006a.688.688 0 01.63.754.666.666 0 01-.278.51l-.186-.207a.45.45 0 00.198-.33c.02-.22-.156-.4-.388-.421h-.004c-.237-.022-.444.124-.465.358a.472.472 0 00.134.36l-.198.167a.7.7 0 01.552-1.19zm.559 1.412v.303h-.64l.639.583v.359l-.56-.52-.775.56v-.361l.551-.405-.23-.217h-.322v-.303h1.337zm.009 1.348l.029.297-.891.087.952.542.027.29-1.328.128-.029-.294.886-.086-.947-.546-.028-.289 1.33-.129zm.147 1.444l.058.292-.878.177 1.003.442.058.283-1.309.264-.058-.288.873-.174-.998-.45-.058-.283 1.309-.263zm.538.11l.072.177c-.098.053-.15.128-.127.24.022.11.099.16.21.172v.189c-.217.01-.38-.107-.423-.317a.386.386 0 01.269-.461zm-.958 3.081a.442.442 0 01-.22-.244c-.115-.294.039-.595.447-.75.408-.157.723-.039.837.259a.42.42 0 01-.015.33l.512-.197.11.285-.512.198a.425.425 0 01.235.235c.115.297-.045.6-.449.756-.403.156-.72.037-.833-.258a.431.431 0 010-.327l-.468.18-.11-.285.466-.182zm.212-.082l.632-.244a.304.304 0 00.01-.235c-.077-.198-.278-.24-.52-.146-.243.094-.36.254-.282.456a.31.31 0 00.16.169zm.623.664c.24-.093.361-.256.285-.454a.337.337 0 00-.166-.17l-.632.245a.31.31 0 00-.004.235c.078.202.267.241.517.144zm.034 1.53l.145-.078a.537.537 0 01-.373-.288c-.119-.223-.096-.487.145-.616.26-.139.494 0 .64.272.061.11.103.229.125.352l.022-.012c.163-.087.197-.237.097-.425a.923.923 0 00-.253-.297l.177-.189c.142.104.257.24.337.396.186.347.094.615-.22.783l-.699.369-.143-.267zm.497-.256a.866.866 0 00-.098-.295c-.09-.17-.213-.231-.331-.17-.118.061-.12.193-.053.32.096.179.268.259.415.18l.067-.035zm.933.078l.167.253-.533.353.854.133.198.3-.754-.124-.335.895-.2-.301.237-.642-.312-.054-.268.177-.168-.253 1.114-.736z" fill="#000"/><path d="M9.778 31.985l.242-.063c.01.063.035.123.074.174.054.067.115.084.239.05l.69-1.27.204.253-.533.918.989-.353.2.248-1.402.45c-.279.088-.432.057-.567-.108a.623.623 0 01-.136-.3zm1.043.774l.196-.158a.494.494 0 00.054.07c.108.11.236.134.965-.577l.704.726-.958.93-.213-.219.767-.747-.289-.3c-.693.676-.906.628-1.113.416a1.504 1.504 0 01-.113-.141zm2.094.218l.231.198-.303.355.232.199c.23.195.318.444.13.665-.18.21-.437.213-.676.01l-.48-.412.866-1.015zm-.252 1.212c.115.1.23.106.313.008.082-.098.05-.2-.07-.302l-.215-.183-.248.289.22.188zm1.22-.081l-.347-.253.154-.212.945.687-.155.212-.346-.253-.63.867-.252-.182.63-.866zm.381.778c.197-.327.591-.455.918-.257.363.22.374.617.173.946a1.36 1.36 0 01-.048.07l-.84-.508a.372.372 0 00.154.489.483.483 0 00.391.051l.071.231a.675.675 0 01-.594-.067.671.671 0 01-.225-.955zm.894.435c.085-.18.065-.371-.108-.476-.16-.097-.347-.042-.478.121l.586.355zm.798.072l-.385-.19.115-.236 1.047.52-.115.235-.386-.19-.475.96-.277-.137.476-.962zm13.414-.463l.254-.157.467.764c.024-.364.047-.728.073-1.093l.245-.151.697 1.139-.252.154-.462-.759-.077 1.09-.245.15-.7-1.138zm1.24-.764l.24-.186.708.234-.047-.745.24-.186.817 1.056-.244.189-.545-.704.036.73-.693-.213.541.7-.236.182-.818-1.057zm1.716-.506c-.264-.276-.288-.69-.011-.954.306-.295.693-.203.958.075.014.014.048.052.058.065l-.709.68a.373.373 0 00.512-.023.483.483 0 00.15-.364l.24-.01a.676.676 0 01-.22.559c-.28.268-.689.272-.978-.029zm.648-.751c-.151-.128-.342-.16-.488-.019-.134.13-.13.325-.006.493l.494-.474zm-.07-.745l.199-.23.411.351.383-.448-.412-.351.199-.231 1.015.866-.198.231-.41-.35-.383.448.41.35-.199.23-1.015-.866zm.923-1.097l.173-.245.736.51-.376-1.03.164-.237 1.097.76-.168.244-.731-.508.369 1.029-.164.237-1.1-.76zm.757-1.943l.14-.3.987-.132-.53-.843.142-.3 1.602.75-.132.282-1.15-.537.52.86-.004.009-.985.15 1.144.536-.13.277-1.604-.752zm2.134-1.296l.115-.316.326.115-.115.316-.326-.115zm-1.138-1.004l.21-.766c.054-.194.15-.333.274-.404a.401.401 0 01.319-.035.42.42 0 01.313.346c.124-.18.276-.288.513-.223.304.084.399.38.294.76l-.216.792-1.708-.47zm.912-.507c.053-.192.013-.342-.148-.386-.134-.037-.246.047-.299.24l-.119.43.453.125.113-.409zm.746.11c.057-.204.01-.35-.148-.394-.144-.04-.261.051-.326.289l-.131.475.468.129.137-.499zm.129-.874l.064-.33.34.066-.064.33-.34-.066zm.552-1.077l-.253-.047a.368.368 0 00.022-.1c.011-.18-.091-.354-1.148-.423l-.347-.022.08-1.213 1.761.118-.02.31-1.486-.097-.04.61.16.01c1.122.075 1.333.293 1.31.642a1.018 1.018 0 01-.04.212zm-.547-2.003a.713.713 0 11.662-.74.696.696 0 01-.662.74zm-.054-1.116a.41.41 0 00-.41.43c.012.245.212.392.449.38a.414.414 0 00.41-.427c-.013-.247-.215-.395-.45-.383zm-.698-.43l-.048-.3.545-.51-.679-.315-.048-.3 1.318-.213.049.304-.879.142.66.32-.52.506.873-.14.047.295-1.317.211zm.38-1.76a.712.712 0 11.48-.866.698.698 0 01-.48.866zm-.3-1.076a.411.411 0 00-.304.51c.067.237.294.336.52.272a.415.415 0 00.304-.509c-.064-.238-.294-.336-.52-.273zm-.788-.261l-.116-.284.503-.2-.218-.548-.503.2-.112-.285 1.24-.492.116.284-.5.2.216.547.5-.2.116.285-1.242.493zm.092-1.574a.712.712 0 11.288-.95.698.698 0 01-.288.95zm-.52-.99a.412.412 0 00-.191.562c.115.218.356.267.567.157a.413.413 0 00.192-.56c-.112-.22-.358-.268-.566-.16h-.002zm-.224-.404h-.004a.688.688 0 01-.964-.197.666.666 0 01-.1-.572l.276.047a.448.448 0 00.05.38c.122.187.372.217.566.09h.004c.199-.13.27-.374.14-.57a.471.471 0 00-.329-.199l.051-.254a.7.7 0 01.31 1.275zm-.707-1.082a.712.712 0 11.101-.982.693.693 0 01-.101.982zm-.698-.873a.414.414 0 00-.08.589c.154.19.401.193.587.045a.413.413 0 00.081-.586c-.154-.191-.404-.192-.588-.045v-.003zm-.828.065l-.48-.49c-.185-.19-.215-.404-.068-.547.12-.119.253-.107.369-.058-.081-.148-.09-.298.045-.43.161-.158.391-.116.604.099l.484.495-.954.931zm-.036-.824c-.09-.092-.188-.095-.257-.028s-.068.148.028.245l.222.228.226-.221-.22-.224zm.364-.402c-.104-.107-.208-.115-.282-.042-.074.072-.062.171.054.287l.23.236.24-.23-.242-.25zm-1.035-1.269l-.105.127a.537.537 0 01.454.133c.193.163.27.417.093.626-.191.225-.458.184-.693-.017a1.12 1.12 0 01-.246-.28l-.016.019c-.12.14-.096.293.066.43a.92.92 0 00.347.183l-.096.241a1.143 1.143 0 01-.462-.243c-.3-.255-.313-.537-.083-.809l.51-.607.23.197zm-.367.421c.051.09.119.171.198.238.147.124.285.138.371.036.087-.102.041-.224-.069-.317-.154-.131-.347-.142-.452-.015l-.048.058zm5.21-3.273l-2.111.173 1.025-1.155-.4-.358-2.045 2.278.4.36.593-.66.685-.042-.143 1.72.485.442.173-2.194 1.829-.126-.491-.438zm-2.78-2.296l-2.53 1.01 1.236-1.861-.434-.301-1.703 2.558.426.283 2.522-1-1.237 1.852.444.3L34.8 5.617l-.417-.288zm-3.35-1.894l-.492 1.176-1.352-.566.493-1.178-.493-.208-1.194 2.82.5.21.503-1.186 1.343.567-.5 1.186.5.217 1.185-2.83-.492-.208zm-2.795-1.077l-.642-.134-1.743 1.219.318-1.51-.537-.107-.617 3.003.534.109.173-.877.567-.384.744 1.57.642.124-.952-1.977 1.513-1.036zM23.38 4.269c-.585-.033-.976-.542-.951-1.144.024-.601.484-1.067 1.069-1.035.35.017.608.183.842.427l.368-.385c-.285-.292-.61-.509-1.178-.535-.924-.049-1.617.627-1.66 1.495-.051.894.577 1.617 1.469 1.67.577.033.935-.158 1.27-.476l-.326-.368c-.278.227-.518.368-.903.351zM20.5 1.706l-.567 1.887-1.213-1.617-.592.092 1.61 2.104c-.115.267-.289.376-.425.4a.78.78 0 01-.393-.041l-.141.434c.198.07.41.09.617.058.393-.058.677-.3.852-.851l.827-2.555-.575.09zm-3.189.578l-2.387.743.91 2.93.52-.168-.77-2.462 1.36-.417.767 2.46.509-.166-.909-2.92zm-3.548 1.26l-.467.259 1.47 2.687.466-.25-1.47-2.696zm.2 2.245c-.291-.542-.866-.617-1.469-.291l-.616.34-.534-.968-.467.251 1.477 2.696 1.078-.592c.624-.342.833-.895.531-1.437v.001zm-.767 1.02l-.61.325-.483-.884.6-.327c.36-.2.643-.159.794.116.166.3.049.576-.301.768v.002zm-1.803.693c-.293-.31-.618-.293-.96-.134.083-.242.108-.535-.143-.801a.703.703 0 00-.5-.244c-.25-.007-.52.11-.777.344l-1.01.934 2.079 2.252 1.045-.959c.5-.468.635-.985.266-1.394v.002zm-2.68.09l.577-.525c.25-.234.493-.258.66-.075.191.21.115.468-.142.7l-.535.503-.56-.602zm2.096.944l-.66.61-.568-.621.626-.584c.31-.284.568-.31.743-.125.192.219.125.469-.141.72zM37.158 36.15l-.866-2.538-.409.418.677 1.848-1.938-.568-.425.425 2.554.727c.068.283-.008.475-.108.577a.762.762 0 01-.326.2l.143.427a1.21 1.21 0 00.523-.324c.283-.283.358-.641.175-1.193zm-4.042 1.027l1.227-.919-.292-.392L32.4 37.11l1.837 2.446.424-.317-1.545-2.063zm-1.168.333l-.52.252-.208 1.71-1.477-.902-.51.251 1.335 2.763.478-.234-.96-1.97 1.495.877.016-.008.242-1.72.952 1.979.493-.231-1.336-2.767zm-5.761 3.85c-.075-.786-.701-1.271-1.653-1.179l-.034-.283-.533.05.032.29c-.951.092-1.469.692-1.393 1.469.075.777.7 1.285 1.661 1.186l.033.333.534-.05-.033-.333c.962-.098 1.472-.708 1.388-1.484h-.002zm-3.03.307c-.05-.534.293-.893.893-.952l.166 1.704c-.598.068-1.008-.208-1.058-.752h-.001zm1.594.702l-.173-1.703c.61-.057 1.01.218 1.069.751.059.534-.293.892-.896.952zm-4.115-2.396c-.552-.05-.903.125-1.22.367l.276.393c.259-.192.551-.309.902-.276.501.05.86.451.901.96l-1.36-.14-.05.458 1.369.133c-.134.501-.56.835-1.086.785-.376-.042-.609-.217-.852-.484l-.374.318c.274.358.625.591 1.201.65.886.084 1.62-.542 1.704-1.428a1.553 1.553 0 00-1.41-1.736h-.001zm-5.609-1.528L12.49 40.65l.493.242.602-.534 1.31.617-.034.802.52.25.1-3.371-.453-.21zm-.1 2.022l-.96-.462 1.001-.872-.041 1.334zm-1.836-2.73c-.05-.243-.226-.477-.52-.668l-1.141-.766-1.704 2.54 1.178.794c.567.376 1.11.384 1.41-.067.243-.358.15-.668-.083-.968.258.025.543-.017.743-.325a.678.678 0 00.117-.541zm-1.186 1.478c-.158.241-.425.23-.727.024l-.742-.493.468-.7.709.476c.35.233.433.475.292.692zm.578-1.17c-.158.242-.425.225-.718.034l-.61-.41.45-.673.652.425c.283.19.358.424.224.624h.002zm-1.912-2.554l-1.678.375.351-1.686-.41-.4-2.154 2.176.376.367L8.6 34.771l-.334 1.694.017.009 1.702-.342-1.543 1.56.383.384 2.154-2.188-.408-.397z" fill="#000"/><path fill-rule="evenodd" clip-rule="evenodd" d="M42.1 21.815l-.41.827-.926.092.66.643-.193.91.819-.434.793.467-.15-.91.692-.61-.918-.141-.368-.844zm-.888-4.933l-.41.826-.926.092.668.643-.2.91.817-.434.794.467-.15-.91.692-.609-.918-.134-.367-.851zm-.186 9.641l-.409.835-.927.084.668.651-.2.901.818-.425.793.468-.15-.91.693-.618-.918-.134-.368-.852zm-1.518 4.667l-.267.543-.593.059.426.417-.125.585.526-.276.517.3-.1-.593.451-.392-.593-.092-.242-.55zm-.444-18.833l-.267.543-.602.059.435.417-.134.585.534-.285.518.31-.1-.593.442-.393-.592-.092-.234-.55zM2.828 21.815l.41.827.926.092-.66.643.192.91-.818-.434-.793.467.15-.91-.692-.61.918-.141.367-.844zm.882-4.933l.41.826.926.092-.668.643.2.91-.817-.434-.794.467.15-.91-.692-.609.918-.134.367-.851zm.186 9.641l.409.835.927.084-.669.651.2.901-.817-.425-.793.468.15-.91-.693-.618.919-.134.367-.852zm1.515 4.667l.268.543.592.059-.425.417.125.585-.526-.276-.518.3.1-.593-.45-.392.592-.092.242-.55zm.445-18.833l.267.543.6.059-.433.417.133.585-.534-.285-.517.31.1-.593L5.029 13l.593-.092.234-.55z" fill="#000"/></g><defs><clipPath id="clip0_4256_32004"><path fill="#fff" d="M0 0h45v45H0z"/></clipPath></defs></svg>