<svg width="130" height="45" fill="none" xmlns="http://www.w3.org/2000/svg"><path d="M52.517 26.299h20.888v-6.055H59.581v-4.036h12.335v-5.635H59.581V6.689h13.633V.635H52.517v25.664zm36.927.533c5.69 0 8.974-2.475 11.38-5.788l-5.346-3.808c-1.566 1.866-3.131 3.084-5.804 3.084-3.628 0-6.149-3.008-6.149-6.853 0-3.808 2.52-6.854 6.148-6.854 2.445 0 4.163 1.142 5.652 2.97l5.232-4.036C98.266 2.387 94.982.14 89.75.14c-7.829 0-13.595 5.864-13.595 13.327 0 7.73 5.92 13.365 13.29 13.365zm26.656 0c7.943 0 13.9-5.979 13.9-13.365C130 6.042 124.119.14 116.176.14s-13.9 5.978-13.9 13.327c0 7.463 5.88 13.365 13.824 13.365zm.076-6.435c-3.895 0-6.568-3.199-6.568-6.93 0-3.77 2.596-6.93 6.492-6.93 3.933 0 6.606 3.236 6.606 6.93 0 3.77-2.597 6.93-6.53 6.93zM52.898 44.575h3.361v-4.264h5.69v-2.78h-5.69v-2.056h6.301V32.58h-9.662v11.994zm11.19 0h3.322v-3.617h1.451l2.444 3.617h3.857l-2.864-4.188c1.49-.61 2.482-1.828 2.482-3.694 0-1.218-.382-2.132-1.07-2.855-.84-.8-2.1-1.257-3.932-1.257h-5.69v11.994zm3.322-6.244v-2.894h2.177c1.145 0 1.833.495 1.833 1.447 0 .914-.65 1.447-1.795 1.447H67.41zm9.127 6.244h3.36V32.581h-3.36v11.994zm5.537 0h9.776v-2.817h-6.454v-1.904h5.767v-2.628h-5.767V35.4h6.378v-2.82h-9.7v11.994zm11.495 0h3.322v-6.587l5.117 6.587h2.941V32.581h-3.285v6.32l-4.964-6.32h-3.131v11.994zm13.518 0h4.583c4.353 0 6.874-2.55 6.874-6.016 0-3.503-2.483-5.978-6.798-5.978h-4.659v11.994zm3.361-2.932v-6.168h1.336c2.024 0 3.323 1.142 3.323 3.084 0 1.98-1.299 3.084-3.323 3.084h-1.336zm14.397 3.16c2.902 0 4.849-1.484 4.849-3.921 0-2.285-1.718-3.199-4.468-3.77-1.68-.38-2.1-.647-2.1-1.18 0-.457.382-.8 1.222-.8 1.031 0 2.253.419 3.361 1.18l1.68-2.36c-1.337-1.028-2.941-1.6-4.965-1.6-2.902 0-4.658 1.638-4.658 3.846 0 2.513 1.947 3.237 4.544 3.808 1.604.38 2.024.647 2.024 1.18 0 .533-.497.838-1.375.838-1.413 0-2.749-.495-3.933-1.447l-1.833 2.209c1.451 1.332 3.513 2.018 5.652 2.018z" fill="#FEFEFE"/><path fill-rule="evenodd" clip-rule="evenodd" d="M6.156 34.18c.268.114.65.419.917.61h.038l2.215 1.37h.038c0 .038.038.038.038.038l2.139 1.028c.114.076.114.076.23.114.075.038.152.038.266.076l.306.153s.076 0 .076.038l.993.38h.038l2.1.724c.039 0 .153.038.153.038l.84.267c.192.038.077.038.268.076.114.038.19 0 .305.038l1.452.38c.458.153 1.26.23 1.756.343l1.26.229c.497.076.802.076 1.26.19-.076.267-.381.571-.534.762l-.955 1.028c-.038.076-.076.076-.152.152l-.42.419c-.039.038-.077.038-.115.076-.306.229-.611.533-.993.724l-1.146.495c-1.183.419-1.298.114-2.138.266v.114c.229.038.267.115.42.115.229.076.344.038.573.114.458.114.573.076 1.069.114.382.038.611.19 1.031.19.611.039 2.33.19 2.826.153.19-.038.23-.076.496-.076.459 0 .688.076 1.108 0 .229-.076.229-.038.496-.038.344 0 .23-.077.497-.077.229-.038.267 0 .496-.038l1.49-.228c.076-.038.076 0 .19-.038l.077-.038h.038l.611-.114s.038 0 .038-.039h.038l.344-.076c.191-.038.267-.076.458-.114.153-.076.039-.038.191-.076L32.01 42.9l1.069-.61c.076-.038.115-.038.19-.114l.077-.038 1.184-.876h.038c.306-.266.573-.457.84-.723.039 0 .039-.038.039-.038l.038-.038.649-.686c.496-.57.993-1.18 1.26-1.866.077-.19.077-.266.153-.418.382-.762.458-1.485.535-2.4v-.99c0-.19 0-.304-.039-.456-.038-.19-.076-.343-.076-.495-.076-.419-.153-.533-.267-.914-.077-.228-.115-.647-.42-.761-.306.19-1.528 2.018-1.948 2.436l-2.444 2.704c-.153.19-.153.228-.344.38l-4.353 3.466s-.076.038-.115.076l-.916.533-.115.038-1.642.876c-.267.076-.382.228-.649.228.038-.038-.038 0 .076-.076.039-.038.077-.038.115-.076l.458-.229h.038l2.635-1.713c.153-.114.23-.228.42-.343l.23-.152 1.45-1.218h.039l.267-.267c.038 0 .038-.038.038-.038s.039 0 .039-.038h.038c0-.038 0-.038.038-.038l1.222-1.18c0-.039.038-.039.038-.039l.65-.761a23.774 23.774 0 002.596-2.932c.077-.114.038-.114.153-.19l.61-.838c.268-.305.46-.686.726-1.028.268-.267.726-.876.764-1.295-.916 0-1.184.343-2.062 0-.764-.305-1.604-.267-2.444-.305l-.42.077c-.306.076-.573.114-.84.266-.153.076-.153.076-.306.114l-.152.076-.039.039-.878.533s-.114.114-.153.114l-.305.228c0 .038 0 .038-.038.038l-1.528 1.524c-.42.533-1.413 1.827-1.68 2.36-.115.19-.191.343-.306.495-.61.762-1.107 1.6-1.642 2.437-.114.19-.152.343-.305.533l-.497.686c-.305.419-.572.913-.916 1.256.038-.228-.038-.304-.115-.419l-.458-.723s0-.038-.038-.038l-.038-.076c-.153-.229-.153-.381-.191-.724-.038-.609-.306-1.561-.65-2.094a1.37 1.37 0 00-.267-.38c-.267-.305-.153-.305-.535-.61l-.84-.724c-.076 0-.038 0-.114-.038l-.497-.266c-.305-.152-.649-.419-.992-.495L15.856 33c-.764-.19-1.871-.381-2.597-.42-.305 0-.343-.037-.572-.075-.077 0-.115 0-.268-.038l-1.91-.19c-.763-.115-1.527-.306-2.329-.344.077-.228.191-.266.268-.456a3.5 3.5 0 01.229-.572c.114-.266.114-.342.344-.495l.534-.419c.23-.228.459-.418.688-.647.114-.19.19-.266.305-.457l.42-.8c.535-1.104.497-2.474.306-3.617-.038-.228-.038-.418-.115-.685l-2.711-6.74c-.268-.647-.917-1.904-1.031-2.475L6.5 11.715v-.038l-.038-.153c-.038-.152-.038-.076-.038-.228v-.076c0-.115 0 0-.038-.115-.153-.875-.191-1.827.076-2.665.153-.533.611-1.447.916-1.866-.42 0-.458.229-.687.457-.114.152-.19.19-.305.305l-2.368 3.008-1.528 2.551c-.038.076-.076.076-.076.114-.153.229-.115.152-.23.42l-.916 2.131a2.132 2.132 0 01-.152.457C.085 18.568-.26 21.767.199 24.47c.115.648.267 1.219.535 1.828l1.069 1.866c.458.647 1.107 1.218 1.757 1.637l.114.076.23.114 1.718.762c.153.038.114 0 .267.076.23.076-.076 0 .23.076.267.038.496.076.725 0-.077-.342-.23-.609-.344-.914l-.802-2.36c-.076-.19-.076-.305-.153-.495l-.19-.686a.716.716 0 01-.077-.304l-.955-4.493c-.229-1.638-.19-3.846-.038-5.37.038-.266.077-.266.077-.57.114-1.028.19-.914.229-1.866h.076c-.076 1.218-.229 2.284-.153 3.313 0 .19.039.533.039.647-.039.228-.039.228 0 .533.114 1.066.114 1.98.343 3.046.038.19.077.38.077.533.114.99.382 1.866.61 2.818.192.914.42 1.79.764 2.627.039.152.115.381.153.533.153.571.382 1.066.573 1.6l.038.038.038.114c.23.685.726 1.561.84 2.284-.381-.038-.267-.076-.534-.152-.306-.038-.382-.038-.65-.114-.19-.038-.381-.038-.61-.114l-2.292-.8-.152-.076-1.375-.876c-.344-.343-.688-.61-.917-1.028a.795.795 0 01-.152-.228L1 27.973c-.076-.228-.038-.266-.229-.342-.191.38.19.99.305 1.37.23 1.067.688 2.133 1.108 3.16l.305.61c.039.114.039.076.115.229.267.57.23.647.611 1.294.23.343.382.724.65 1.104l.496.762c.152.228.878 1.333 1.145 1.6l3.437 3.388c.268.267 1.49.99 1.833 1.18l1.184.572c.115.076.076.038.23.076l.725.266c.61.19.954.305 1.642.343l1.07.076c.725.038.61 0 1.183-.076l.993-.19c.038 0 .038-.039.038-.039l.84-.304c.153-.076.267-.114.382-.19l.076-.039c.497-.304.993-.57 1.413-.952l.306-.304a.298.298 0 00.153-.152c.19-.153.381-.305.458-.533-.65-.381-1.91-.343-2.52-.572-.153-.076-.115-.038-.306-.076-.23-.038-.267-.114-.573-.152-.573-.076-1.031-.343-1.604-.457a7.495 7.495 0 01-1.565-.495l-.917-.305h-.038l-.267-.114h-.039l-.763-.304c-.802-.381-1.643-.686-2.406-1.143l-.879-.495s0-.038-.038-.038h-.038c0-.038 0-.038-.038-.038l-.038-.038-.039-.038c-.038 0-.038-.038-.038-.038l-1.871-1.295c-.344-.228-1.146-.8-1.337-1.104z" fill="#FEFEFE"/><path fill-rule="evenodd" clip-rule="evenodd" d="M7.417 14.57c.382 0 .65-.076.993-.076.458-.038.573-.038.955.115l.84.304c.42.114 1.145.152 1.642.152.344 0 .42-.076.687-.114.23-.038 0 0 .23-.076.076 0 .152-.038.229-.038l.076-.038h.076c.802-.267 1.413-.685 2.062-1.18l3.132-3.503c.267-.343.496-.61.725-.952l.382-.534c.077-.076.038-.038.077-.114l4.544-5.75s.038 0 .038-.037l.306-.267c.496-.38 1.107-.838 1.68-1.028.153-.038.267-.114.382-.152.267-.153.153-.077.458-.153.726-.152.688-.152 1.528-.114.305 0 .305.038.343-.228-.267-.038-.649-.153-.916-.19C27.695.52 27.58.52 27.389.52a11.746 11.746 0 00-1.604-.266c-.381-.039-.61-.115-1.069-.115-1.527-.076-2.75-.19-4.315-.114l-1.948.229c-.687.114-1.336.152-1.985.38h-.039l-2.75.914c-.19.076-.266.114-.42.19l-.725.343c-.114.076-.229.115-.343.19l-.955.534c-.038 0-.038.038-.038.038h-.039c-.649.419-.381.304-.763.571l-.726.571c-.344.305-1.336 1.409-1.604 1.904v.038L7.38 7.26c-.42 1.218-.688 2.817-.344 4.036l.268 1.142c.038.152.114.267.152.419.268 0 .306-.114.42-.305.077-.076.039-.038.077-.114.076-.076.038-.038.076-.114h.038c0-.038.038-.076.077-.076 0-.038.038-.076.076-.076l.153-.229 4.43-4.607c.42-.38.878-.762 1.298-1.104.076-.038.038 0 .114-.077l5.232-3.122c.268-.114.917-.457 1.222-.457-.152.153-.496.267-.725.381l-.764.419s-.115.038-.115.076l-.114.038c0 .038-.038.038-.038.038s-.038 0-.038.038l-2.1 1.295c-.115.114-.115.076-.23.152l-2.406 1.942c-.038.038-.076.038-.114.076L12.61 8.326l-.077.076-4.926 5.712c-.115.152-.153.228-.19.456z" fill="#FEFEFE"/><path fill-rule="evenodd" clip-rule="evenodd" d="M38.693 10.953c-.344-.038-.802-.495-1.108-.647-.153-.115-.153-.076-.267-.153 0-.038-.038-.038-.038-.038l-.191-.114c-.039 0-.039 0-.039-.038l-2.367-1.18c-.23-.115-.42-.153-.65-.267-.038 0-.114-.038-.152-.038l-4.544-1.485c-.344-.114-.726-.152-1.108-.267l-.764-.152c-.152-.038-.114-.076-.305-.114l-2.368-.38c-.344 0-.496-.039-.764-.115-.534-.114-1.145-.038-1.718-.152-.688-.077-1.07-.267-.535.495.153.19.23.342.344.495.344.456.458 1.599.878 2.513.344.609.191.266.535.761l.65.648c.114.114.114.152.19.228l.267.19c.344.267.764.457 1.184.61l.191.114h.038c1.528.647 3.399.875 5.003.952.993.076 5.69.342 6.645.57l2.558.496c.191.076.077.038.191.076l.306.114c.038 0 .038.038.076.038l.687.267c.993.571 1.986 1.256 2.52 2.322.077.19.077.343.345.381 0-.495-.879-2.589-1.108-3.084l-.573-1.295a5.51 5.51 0 01-.458-.8c-.038-.037-.076-.113-.115-.19 0 0 0-.038-.038-.038l-.076-.152c-.077-.114-.115-.228-.191-.38l-.496-.838c-.039 0-.039 0-.039-.038l-1.184-1.714h-.038l-.954-1.218c-.039 0-.039-.038-.077-.077l-.038-.038-.038-.038-1.108-1.104s-.038-.038-.038-.076l-.61-.533-.039-.038-.573-.457-.038-.038-4.392-2.475-.687-.229c-1.031-.304-1.986-.266-3.017-.304l-2.062.457c-.573.228-1.07.418-1.566.8l-1.718 1.56c-.115.115-.153.153-.191.343.382 0 .61.152 1.146.152.458.038.687.153 1.183.19.306.039.268.077.535.115.23.076.382.076.611.076.305.038.344.114.878.19.268.039.153.039.268.077l.763.19a.956.956 0 00.306.038l5.995 2.17 1.07.572.076.076h.038l.038.038c.039 0 .039 0 .039.038.038 0 .076.038.076.038l1.986 1.295c.114.114.229.19.382.304.19.114.305.114.382.305z" fill="#FEFEFE"/><path fill-rule="evenodd" clip-rule="evenodd" d="M38.044 38.635c.267 0 .344-.153.497-.305l.954-1.104c.153-.19.115 0 .115-.343.305 0 .229-.114.534-.495l3.017-5.14c.077-.19.115-.19.191-.381l.611-1.561c.191-.42.267-.838.382-1.257.077-.419.306-.99.344-1.332.076-.648.153-1.41.305-2.018.038-.381 0-1.6 0-1.98 0-.381 0-.61-.038-.952-.038-.343-.114-.61-.153-.914-.038-.229 0-.153-.076-.381-.076-.19-.038-.229-.115-.419l-.84-2.094v-.038l-.229-.381c-.382-.571-.802-1.142-1.336-1.561l-.42-.343h-.039l-.534-.38c-.115-.039-.115-.077-.23-.115l-1.985-.8c-.535-.114-.077-.114-1.031-.152-.039.381-.039.19.038.343l.038.038.497 1.219c.076.228.19.533.267.761l.84 2.627c.076.19.076.229.153.381l.42 1.6c.038.152.076.19.114.342 0 .076 0 .152.039.229l.114.609c.306 1.485.535 3.579.458 5.102l-.114 2.094c-.038.724-.191 1.18-.23 1.942l.039-2.132c.038-.876-.153-3.427-.306-4.34 0-.191-.038-.458-.076-.61-.038-.267-.076-.343-.115-.61-.19-1.218-.496-2.398-.84-3.617l-.267-.8c-.23-.647-.458-1.56-.687-2.094-.42-.951-.726-2.094-1.222-3.008l-.344-.723c-.153-.229-.038 0-.115-.229h-.19c-.039.305-.497 1.295-.726 1.524l-.726.609-.153.152-.038.038-.114.114c-.42.495-.688.99-.917 1.638-.343.914-.229 1.18-.305 1.942-.038 1.142.343 2.55.764 3.54l.381.953c.191.304.306.914.573 1.37l1.986 4.037c.076.114.153.266.19.38l1.108 2.78c.153.533.344 1.066.42 1.637.039.19.039.305.039.533.038.229.076.19.114.381.038.305-.076 1.066-.114 1.333-.039.304-.153.952-.344 1.294v.039c-.038 0-.038.038-.038.038s0 .038-.038.038v.076c-.039 0-.039.038-.039.038s-.038.038-.038.076l-.229.343c-.076.152-.153.19-.19.419z" fill="#FEFEFE"/><path d="M17.384 18.95c1.146.456 3.017.418 4.01.19.077 0 .153-.038.268-.038-.497-.267-.84-.648-.84-1.41-.039-.723.076-1.142.916-1.294.878-.114 1.184.723 1.222 1.37 0 .686-.153.838-.42 1.143.038 0 .076 0 .114.038 1.108-.19 3.476-.457 4.621 0-.267-.305-.42-.419-.458-1.066 0-.685.19-1.447 1.031-1.447.878-.038 1.184.61 1.184 1.295 0 .685-.191.952-.535 1.256.688-.114 3.514.99 3.36-1.37-.572-1.105.115-.99.344-.61.459.647.23 1.523.23 1.523-.611 2.095-1.91 2.095-2.94 2.285l-.154 2.208v.115c.344.913.497 1.599.65 2.17 0 0 .381.533 1.107 1.104.305.42.535.724.65.99.496.952.19 1.638-.039 1.523-.153-.114-.42-.761-.573-.876-1.26-.99-2.979-2.284-2.979-2.284-.114-.419-.229-.876-.42-1.447-.114.343-.305.647-.458.914a5.81 5.81 0 00-.496 1.447l-.115 1.523s0 .723-.114 1.218c-.115.457-.917.876-1.07.8-.114-.038.23-.8.23-.8-.459-2.36-.688-3.884-.115-5.026.42-.8.878-1.675.84-3.465-.496-.571-1.757-.419-2.826-.266l-.038 3.16c0 .038-.038.076-.038.076.267 1.828-.077 2.627.42 3.617.305.572.61 1.752.61 2.476.039.38-.114 1.028-.343.875-.153-.114-.038-.457-.153-.57-.076-.115-.19-.267-.305-.458-.267-.533-1.337-1.637-1.528-2.322-.19-.762-.305-1.6-.42-2.438-.19.305-.343.572-.458.762-.153.267-.267.457-.267.495-.038.152.305.876.42 1.104.229.495.84 1.79.42 2.285-.115.228-.42.571-.535.495-.114-.076-.076-.723-.19-.876-.42-.419-.803-1.142-1.032-1.37-.534-1.257-1.107-1.333-.954-2.019.076-.38.267-.647.496-1.066.267-.419.611-1.028 1.07-2.018l-.535-1.637c-.497.076-.917.114-1.375.076-.115 0-.191-.038-.306-.038a3.175 3.175 0 01-.802-.229c.344 2.095.573 3.998.573 3.998.038.838-.153 1.143-.61 1.676-.688.8-1.3 1.675-1.872 2.094-.153.114-.305.8-.42.8-.153.038-.42-.61-.458-.952 0-.533 1.45-2.627 1.68-3.465l-.115-.762c-.458.686-.84.952-.992 1.066h-.039c-.229.19-.534.229-.84.153l-1.986-1.561c-.496-.153-.878.19-.725-.305a.944.944 0 011.184-.61l1.603.496c.153-.153.344-.42.535-.838l-.229-2.665c-1.336-.952-1.375-1.333-1.451-1.79 0-.685.038-1.18.115-1.523.038-.38.076-.686.152-.724.153-.076.344.115.458.61.077.228 0 .647.039.952-.077.8 1.298 1.447 1.947 1.028-.229-.267-.382-.381-.382-1.028-.038-.61.191-1.257.955-1.371.764-.076 1.26.457 1.26 1.218.038.724-.305 1.105-.764 1.41zm-1.832 6.548l.038-.038c-.038 0-.038.038-.077.038h.039z" fill="#FEFEFE"/></svg>