<svg width="377" height="345" fill="none" xmlns="http://www.w3.org/2000/svg"><g filter="url(#filter0_d_4355_38396)"><rect x="269.016" y="37" width="96.656" height="96.656" rx="7" transform="rotate(15 269.016 37)" fill="#BD3762"/></g><g opacity=".75" fill="#fff"><path d="M297.878 69.707l-8.026 3.613c.282-.905.512-1.47.512-1.47l8.07-4.072c-.01.037-.233.722-.556 1.93zm4.322-8.212l.46-1.72 9.058-3.807-.439 2.078-9.079 3.449zm23.278 18.626l-4.896-6.016c.399-1.344.671-2.212.671-2.212l4.588 6.287s-.122.751-.363 1.941z"/><path d="M322.179 92.137c-8.284 20.089-18.724 29.054-24.176 32.573.376 2.257 1.049 4.28 2.294 5.633 4.529 4.899 3.356 8.837 3.356 8.837l-23.595-6.322s.917-4.007 7.326-5.975c1.2-.384 2.306-1.146 3.362-2.157l.046-.027c.476-.461.926-.967 1.385-1.511.122-.163.244-.327.403-.48 1.454-1.767 3.326-4.363 3.857-6.494l-.009.036c-.198.3-2.642 3.566-4.828 5.725-2.744-6.146-6.277-18.424-4.088-38.735.251-2.403.979-5.266 1.65-7.478l8.162-3.537a167.302 167.302 0 00-2.19 10.078c-1.371 7.748-.401 15.105-.401 15.105s2.321-15.1 3.733-20.956a1436.97 1436.97 0 013.209-12.706l9.132-3.356-5.414 25.328 8.106-30.253 7.213 9.225s-3.333 12.438-4.978 17.408c-1.646 4.97-6.246 16.284-6.246 16.284s4.714-6.618 7.168-12.704c1.265-3.111 2.436-6.601 3.307-9.269l5.096 6.149c-.652 2.727-1.635 6.54-2.88 9.579z"/><path d="M292.553 122.66a3.779 3.779 0 01-.403.481c.122-.164.281-.317.403-.481z"/></g><path opacity=".55" d="M273.43 44.639l3.307 5.728m0 0l.22.382m-.22-.382l-.081.3m.081-.3l1.21-4.518m-.99 4.9l14.992 25.967m-14.992-25.967l-.301-.081m.301.08l20.48 5.488m-5.488 20.48l.221.382m-.221-.382l5.488-20.48m-5.488 20.48l-.08.3m.301.081l10.803 18.712M292.17 77.097l14.757 3.955m-14.757-3.955l-.301-.08m11.104 18.792l11.024 19.093m-11.024-19.093l-19.094 11.024m19.094-11.024l18.711-10.803m-18.711 10.803l-15.059-4.035m15.059 4.035l15.058 4.035m-15.058-4.035l-4.035 15.059m4.035-15.059l3.954-14.757m7.07 33.85l14.992 25.968m-14.992-25.968l20.479 5.488m-20.479-5.488l-15.059-4.034m15.059 4.034l4.034-15.058m-4.034 15.058l-5.488 20.48m20.48 5.488l3.527 6.109m-3.527-6.109l5.487-20.48m-5.487 20.48l-1.292 4.818m1.292-4.818l4.818 1.291m-4.818-1.291l-20.48-5.488m-56.706-10.03l5.728-3.307m0 0l.381-.22m-.381.22l-1.211 4.518m1.211-4.518l.08-.301m.301.081l25.967-14.992m-25.967 14.992l20.48 5.487m-20.48-5.487l-.301-.081m26.268-14.911l15.059 4.035m-15.059-4.035l-20.78-5.569m20.78 5.569l4.035-15.059m-4.035 15.059l-5.487 20.479m43.292-42.306l.382-.22m-.382.22l.302.08m-.302-.08l-14.757-3.954m15.139 3.733l25.967-14.992m-25.967 14.992l5.488-20.48m-5.488 20.48l-.08.302m26.047-15.294l6.11-3.527m-6.11 3.527l1.292-4.818m-1.292 4.818l-5.568 20.781m5.568-20.78l-20.479-5.488m20.479 5.487l4.819 1.291m-10.387 19.49l-3.954 14.757m3.954-14.757l4.819 1.291m-4.819-1.29l-20.479-5.488m16.525 20.244l-4.035 15.059m4.035-15.059l-20.48-5.487m20.48 5.487l4.819 1.292m-4.819-1.292c-5.259 19.628-25.433 31.275-45.06 26.016m45.06-26.016c5.259-19.627-6.389-39.801-26.016-45.06m21.981 60.119l4.819 1.291m-30.786 13.701l-15.058-4.035m15.058 4.035l-1.291 4.819m-13.767-8.854l-15.059-4.035m15.059 4.035l-1.292 4.819m1.292-4.819l5.487-20.479m-5.487 20.479c-19.628-5.259-31.275-25.433-26.016-45.06 5.259-19.628 25.433-31.275 45.06-26.016m-34.103 67.041l-1.291 4.819m-19.49-10.387l-4.517-1.21m4.517 1.21l5.488-20.48m0 0l4.035-15.058m-4.035 15.058l-4.518-1.21m8.553-13.848l3.954-14.757m-3.954 14.757l-4.518-1.21m4.518 1.21l20.78 5.568M271.088 71.45l5.568-20.781m-5.568 20.78l20.781 5.569m-20.781-5.568l-4.518-1.21m10.086-19.571l-4.517-1.21m25.298 6.778l15.058 4.035m-15.058-4.035l1.291-4.819m13.767 8.854l15.059 4.035m-15.059-4.035l-5.568 20.78m5.568-20.78l1.291-4.819m13.768 8.854l1.291-4.819m-6.859 25.6l-3.955 14.757m-26.162-22.827l-3.955 14.757m-25.298-6.778c-5.972 22.288 7.255 45.198 29.543 51.17m-29.543-51.17c5.972-22.289 28.882-35.516 51.17-29.544m-25.872 36.322c-2.228 8.317 2.707 16.865 11.024 19.094m-11.024-19.094c2.229-8.316 10.777-13.252 19.094-11.023 8.316 2.228 13.252 10.776 11.023 19.093m0 0c-2.228 8.317-10.776 13.252-19.093 11.024m44.392-4.245c-5.972 22.288-28.882 35.515-51.171 29.543m51.171-29.543c5.972-22.289-7.255-45.199-29.544-51.17m-47.527 73.773l51.801 13.88c7.984 2.139 16.19-2.599 18.33-10.583l13.88-51.801c2.139-7.984-2.599-16.19-10.583-18.33l-51.801-13.88c-7.984-2.14-16.191 2.599-18.33 10.583l-13.88 51.801c-2.139 7.984 2.599 16.191 10.583 18.33zm57.796-27.768c-3.12 11.643-15.088 18.553-26.731 15.433-11.643-3.12-18.553-15.088-15.433-26.73 3.12-11.644 15.088-18.554 26.731-15.434 11.643 3.12 18.553 15.088 15.433 26.731z" stroke="#fff" stroke-opacity=".55" stroke-width=".25" stroke-linecap="round"/><g filter="url(#filter1_d_4355_38396)"><rect x="76" y="236.254" width="62.798" height="62.798" rx="7" transform="rotate(-15 76 236.254)" fill="#BD3C58"/></g><g opacity=".75"><path d="M107.112 232.652l3.879 3.228 5.069.219-1.856 4.672 1.353 4.878-5.048-.317-4.213 2.799-1.224-4.914-3.986-3.106 4.28-2.724 1.746-4.735z" stroke="#fff" stroke-width="1.827" stroke-miterlimit="10"/><path d="M115.152 281.704l.848-7.741.59.816-.651 5.879 7.53-2.017-3.461-4.778.103-1.002 4.605 6.28-9.564 2.563zM94.7 239.316l7.644-4.878-.342.973-6.387 4.031.511.697 20.4 27.837.303-1.983 3.626-33.207-7.547-.297-.783-.672 9.103.39-4.137 37.705L94.7 239.316z" fill="#fff"/><path d="M94.7 239.316l7.644-4.878-.342.973-6.387 4.031.511.697 20.4 27.837.303-1.983 3.626-33.207-7.547-.297-.783-.672 9.103.39-4.137 37.705L94.7 239.316zm19.985 46.688l.094-.861 11.988-3.212.468.71-12.55 3.363z" fill="#fff"/></g><path opacity=".55" d="M80.96 239.117l3.722 2.149m0 0l.248.143m-.248-.143l.053.195m-.053-.195l-.786-2.935m1.034 3.078l16.871 9.74m-16.87-9.74l-.196.052m.195-.052l13.306-3.565m3.565 13.305l.248.144m-.248-.144l-3.565-13.305m3.565 13.305l.053.196m.195-.052l12.157 7.018m-12.157-7.018l9.588-2.569m-9.588 2.569l-.195.052m12.352 6.966l12.405 7.162m-12.405-7.162l-7.162 12.405m7.162-12.405l7.019-12.156m-7.019 12.156l-9.783 2.622m9.783-2.622l9.784-2.621m-9.784 2.621l2.622 9.784m-2.622-9.784l-2.569-9.587m14.974 16.749l16.871 9.741m-16.871-9.741l13.306-3.565m-13.306 3.565l-9.783 2.622m9.783-2.622l-2.621-9.783m2.621 9.783l3.566 13.306m13.305-3.565l3.97 2.292m-3.97-2.292l-3.565-13.306m3.565 13.306l.839 3.131m-.839-3.131l3.131-.839m-3.131.839l-13.305 3.565m-35.165 12.778l2.149-3.722m0 0l.143-.248m-.143.248l.786 2.935m-.786-2.935l-.053-.195m.196-.053l9.74-16.871m-9.74 16.871l13.306-3.565m-13.306 3.565l-.196.053m9.936-16.924l9.784-2.621m-9.784 2.621l-13.5 3.618m13.5-3.618l-2.621-9.783m2.621 9.783l3.566 13.306m10.615-37.867l.143-.249m-.143.249l.196-.053m-.196.053l-9.588 2.569m9.731-2.818l9.741-16.87m-9.741 16.87l-3.565-13.305m3.565 13.305l.053.196m9.688-17.066l2.292-3.97m-2.292 3.97l-.839-3.131m.839 3.131l3.617 13.501m-3.617-13.501l-13.306 3.565m13.306-3.565l3.13-.839m.487 14.34l2.569 9.588m-2.569-9.588l3.131-.839m-3.131.839l-13.305 3.565m15.874 6.023l2.622 9.783m-2.622-9.783l-13.305 3.565m13.305-3.565l3.131-.839m-3.131.839c3.417 12.751-4.15 25.859-16.902 29.276m16.902-29.276c-3.416-12.752-16.524-20.319-29.275-16.903m31.897 26.686l3.131-.839m-12.871 17.71l-9.784 2.622m9.784-2.622l.838 3.131m-10.622-.509l-9.783 2.621m9.783-2.621l.839 3.13m-.839-3.13l-3.565-13.306m3.565 13.306c-12.752 3.416-25.859-4.151-29.276-16.903-3.417-12.752 4.15-25.859 16.903-29.276m2.59 48.8l.838 3.131m-14.34.487l-2.935.786m2.935-.786l-3.565-13.306m0 0l-2.621-9.783m2.621 9.783l-2.935.787m.314-10.57l-2.57-9.588m2.57 9.588l-2.935.786m2.935-.786l13.501-3.618m-16.07-5.97l-3.618-13.502m3.618 13.502l13.501-3.618m-13.501 3.618l-2.935.786m-.683-14.288l-2.935.787m16.436-4.404l9.784-2.622m-9.784 2.622l-.839-3.131m10.623.509l9.783-2.621m-9.783 2.621l3.617 13.502m-3.617-13.502l-.839-3.13m10.622.509l-.839-3.131m4.457 16.632l2.569 9.588m-22.136-4.345l2.569 9.588m-16.436 4.404c3.88 14.481 18.764 23.074 33.245 19.194m-33.245-19.194c-3.88-14.481 4.713-29.365 19.194-33.245m-2.758 28.841c1.448 5.403 7.002 8.61 12.405 7.162m-12.405-7.162c-1.448-5.403 1.759-10.957 7.162-12.405 5.403-1.448 10.957 1.759 12.405 7.162m0 0c1.448 5.403-1.759 10.957-7.162 12.405m23.598-16.809c3.88 14.481-4.713 29.365-19.194 33.245m19.194-33.245c-3.88-14.481-18.764-23.075-33.245-19.194m-2.777 56.948l33.656-9.018c5.187-1.39 8.265-6.721 6.875-11.909l-9.018-33.655c-1.39-5.187-6.721-8.265-11.909-6.875l-33.655 9.018c-5.187 1.389-8.265 6.721-6.875 11.908l9.018 33.656c1.39 5.187 6.721 8.265 11.908 6.875zm23.499-34.399c2.027 7.565-2.462 15.34-10.027 17.367-7.564 2.027-15.34-2.462-17.367-10.027-2.026-7.564 2.463-15.34 10.027-17.366 7.565-2.027 15.34 2.462 17.367 10.026z" stroke="#fff" stroke-opacity=".55" stroke-width=".25" stroke-linecap="round"/><g filter="url(#filter2_d_4355_38396)"><rect x="29" y="59.969" width="109.359" height="109.359" rx="7" transform="rotate(-5 29 59.969)" fill="#BD3C58"/></g><g opacity=".75"><mask id="a" style="mask-type:alpha" maskUnits="userSpaceOnUse" x="61" y="79" width="62" height="59"><path fill-rule="evenodd" clip-rule="evenodd" d="M111.212 82.424l-.253-2.895-49.545 4.334 2.078 23.757c1.452 16.586 13.783 29.177 27.41 27.985.189-.017.377-.036.564-.058l.18 2.057c.006.069.13.115.277.102l1.234-.108c.147-.013.261-.079.255-.148l-.19-2.183a20.627 20.627 0 003.26-.954l.25 2.846c.006.069.145.113.31.099l1.389-.122c.165-.014.294-.082.288-.151l-.308-3.524a22.464 22.464 0 003.173-1.944l.453 5.177c.006.069.144.113.31.099l1.389-.122c.165-.014.294-.082.288-.151l-.571-6.521a26.066 26.066 0 003.043-3.251l.83 9.483c.006.069.13.115.277.102l1.234-.108c.147-.013.261-.079.255-.148l-1.01-11.552a30.705 30.705 0 002.548-4.895l.281 3.208c.001.016.128.018.284.005l1.307-.115c.155-.013.28-.037.279-.053l-.322-3.683c-.002-.016-.129-.018-.284-.004l-1.307.114-.027.003c.07-.179.139-.358.206-.539a2.51 2.51 0 01.672-.156l.181-.015c.393-.034.788.027 1.154.177.365.149.691.384.951.685l-.294-3.35-1.848.161c.199-.702.377-1.415.533-2.14l3.17-.277-.277-3.165-2.357.207c.163-1.382.246-2.793.246-4.225 1.017.434 2.209.642 3.51.528a6.236 6.236 0 004.225-2.152 6.373 6.373 0 001.529-4.529c-.303-5.352-4.19-7.355-8.523-6.978a8.6 8.6 0 00-1.726.304l-.245-2.8 3.849-.337.324-3.217-4.449.39-.183-2.088 6.676-.584-.277-3.165-6.676.584zm0 0L78.664 85.27l.277 3.165 32.548-2.847-.277-3.165zm.46 5.252l-30.266 2.648.88 3.112 29.662-2.595-.276-3.165zm.624 7.138c-3.15 1.303-5.486 5.231-4.356 8.487 0 0 .648 2.644 4.699 5.534l-5.59.429c-1.127-1.083-1.953-2.895-2.136-4.99-.223-2.548.556-4.833 1.875-6l-.026.003c-2.33.204-3.966 3.25-3.655 6.801a8.435 8.435 0 001.587 4.376l-4.074.311-4.066.401c.69-1.42.968-3.01.8-4.584-.31-3.552-2.45-6.268-4.78-6.064l-.024.002c1.5.92 2.666 3.035 2.89 5.583.184 2.104-.315 4.031-1.238 5.285l-5.58.549c3.489-3.542 3.667-6.267 3.667-6.267.643-3.992-3.576-8.068-7.51-7.724-3.144.275-5.659 2.782-5.164 6.528.347 2.652 2.478 4.777 4.993 4.557 2.685-.235 4.527-2.381 4.343-4.512-.226-2.581-2.313-3.69-3.924-3.55-1.29.113-2.619 1.328-2.46 2.772.295 2.675 3.674 2.341 3.306.109 0 0-1.08 1.22-2.021.247-.522-.54-.161-1.989 1.099-2.135 1.383-.162 2.522.857 2.65 2.64.077 1.118-.752 2.422-2.684 2.588-2.562.224-3.705-1.649-3.882-3.036-.32-2.567 2.016-4.322 3.794-4.477 2.223-.195 5.435 1.34 5.518 5.368.056 2.721-2.326 5.457-6.031 5.781a6.238 6.238 0 01-4.536-1.386 6.377 6.377 0 01-2.292-4.195c-.63-5.323 2.863-7.972 7.195-8.35a8.627 8.627 0 013.928.513l.426.168c1.936.767 5.217 2.065 7.29 1.556a4.133 4.133 0 001.876-.96 4.197 4.197 0 001.17-1.766 4.15 4.15 0 003.47 2.157c2.129.141 5.141-1.712 6.914-2.802l.386-.237a8.623 8.623 0 012.05-.883l.103 1.173zm.836 9.843c.03.607.045 1.211.046 1.811-1.879-.801-3.161-2.373-3.432-4.118-.457-2.942 1.013-4.846 2.709-5.714l.124 1.408c-.97.677-1.699 1.875-1.551 3.546.11 1.254.914 2.391 2.104 3.067zm-.143-1.922c.515.532 1.343.884 2.476.785 2.561-.224 3.369-2.275 3.295-3.664-.128-2.584-2.747-3.905-4.514-3.75a4.935 4.935 0 00-1.791.53l-.159-1.822a5.757 5.757 0 011.698-.424c3.146-.275 5.984 1.457 6.23 5.666.155 2.672-1.619 5.003-4.136 5.223a5.07 5.07 0 01-2.956-.622 37.584 37.584 0 00-.095-1.371l-.048-.551zm0 0a2.2 2.2 0 01-.617-1.298c-.08-.768.05-1.426.334-1.934l.283 3.232zm-.283-3.232l-.127-1.459a3.546 3.546 0 011.697-.632c1.29-.112 2.811.853 2.905 2.303.172 2.677-3.211 2.943-3.238.682 0 0 1.275 1.016 2.033-.108.422-.623-.185-1.987-1.453-1.912a2.17 2.17 0 00-1.817 1.126zm.226 11.19l-26.643 2.33.277 3.165 25.83-2.26a35.02 35.02 0 00.536-3.235zm-1.069 5.375l-23.082 2.02.293 3.35a2.508 2.508 0 011.923-1.215l.181-.016a2.497 2.497 0 011.592.409c.471.312.826.774 1.007 1.313l.139-.012a2.554 2.554 0 01.764-1.467 2.51 2.51 0 011.495-.68l.184-.016c.56-.047 1.12.097 1.591.409.471.312.826.774 1.007 1.313l.141-.012c.085-.563.353-1.08.763-1.469.41-.389.937-.628 1.497-.678l.181-.016a2.496 2.496 0 011.592.408c.471.312.825.775 1.006 1.314l.142-.013a2.55 2.55 0 01.763-1.467c.41-.389.936-.628 1.496-.679l.181-.016a2.503 2.503 0 011.592.409c.471.312.825.774 1.007 1.312l.141-.012a2.52 2.52 0 011.588-1.991c.302-.814.575-1.647.816-2.498zm-1.022 3.037c-.143.014-.254.036-.253.051l.042.474c.072-.174.142-.349.211-.525zm-2.759 5.42l-.375-4.279c-.006-.069-.13-.115-.277-.102l-1.234.108c-.147.013-.261.079-.255.148l.555 6.348a28.454 28.454 0 001.586-2.223zm-4.629 5.474l-.814-9.31c-.006-.069-.145-.113-.31-.098l-1.389.121c-.165.015-.294.082-.288.151l.932 10.654a23.97 23.97 0 001.869-1.518zm-5.042 3.462l-1.077-12.307c-.006-.069-.145-.113-.31-.099l-1.389.122c-.165.014-.294.082-.288.151l1.136 12.985c.656-.252 1.3-.536 1.928-.852zm-5.19 1.806l-1.194-13.648c-.006-.069-.13-.115-.276-.102l-1.235.108c-.147.013-.261.079-.255.148l1.205 13.774a20.363 20.363 0 001.756-.28zm4.041-40.492l-.031-.357-5.668.496c.143.034.424.13.78.253 1.078.371 2.847.98 3.584.797a1.802 1.802 0 001.335-1.189zm4.035-.713l.031.358c.153.275.373.507.639.671a1.8 1.8 0 00.883.267c.756.052 2.388-.851 3.387-1.404.332-.184.594-.33.73-.388l-5.67.496z" fill="#fff"/></mask><g mask="url(#a)"><path d="M110.959 79.529l2.078 23.757c1.451 16.579-8.509 31.126-22.135 32.319-13.627 1.192-25.958-11.399-27.41-27.985l-2.078-23.757 49.545-4.334z" fill="#fff"/></g><path d="M112.797 77.138l2.249 25.7c1.569 17.939-9.208 33.663-23.952 34.953-14.744 1.29-28.088-12.317-29.658-30.263l-2.248-25.7 53.609-4.69z" stroke="#fff" stroke-width="1.314" stroke-miterlimit="10"/></g><path opacity=".55" d="M36.64 66.383l5.733 4.81m0 0l.382.32m-.382-.32l.031.352m-.03-.352l-.462-5.271m.843 5.592L68.743 93.32M42.755 71.514l-.351.03m.351-.03l23.898-2.091m2.09 23.897l.383.32m-.383-.32l-2.09-23.897m2.09 23.897l.031.352m.352-.031l18.726 15.713M69.125 93.641l17.22-1.507m-17.22 1.507l-.35.03m19.077 15.683l19.109 16.034m-19.109-16.034l-16.034 19.109m16.034-19.109l15.714-18.726m-15.714 18.726l-17.571 1.538m17.571-1.538l17.571-1.537m-17.57 1.537l1.536 17.572m-1.537-17.572l-1.507-17.22m20.616 33.254l25.988 21.807m-25.988-21.807l23.897-2.09m-23.897 2.09l-17.572 1.538m17.572-1.538l-1.538-17.571m1.538 17.571l2.091 23.898m23.897-2.091l6.114 5.131m-6.114-5.131l-2.091-23.897m2.091 23.897l.492 5.623m-.492-5.623l5.623-.492m-5.623.492l-23.897 2.091m-64.171 11.28l4.81-5.733m0 0l.32-.382m-.32.382l.461 5.272m-.461-5.272l-.03-.351m.35-.031l21.807-25.988m-21.806 25.988l23.897-2.091m-23.898 2.091l-.35.031m22.157-26.019l17.571-1.537m-17.571 1.537l-24.249 2.122m24.249-2.122l-1.537-17.571m1.537 17.571l2.09 23.897m29.658-61.732l.32-.382m-.32.382l.351-.031m-.351.03l-17.22 1.507m17.54-1.888l21.807-25.988m-21.807 25.988l-2.091-23.898m2.091 23.898l.031.351m21.776-26.34l5.131-6.114m-5.131 6.115l-.492-5.623m.492 5.623l2.121 24.248m-2.121-24.248l-23.898 2.09m23.898-2.09l5.622-.492m-3.501 24.74l1.507 17.22m-1.507-17.22l5.623-.492m-5.623.492l-23.897 2.091m25.404 15.129l1.537 17.572m-1.537-17.572l-23.898 2.091m23.898-2.091l5.623-.492m-5.623.492c2.003 22.903-14.938 43.093-37.84 45.097m37.84-45.097c-2.004-22.902-22.194-39.844-45.097-37.84m46.634 55.412l5.623-.492m-27.429 26.48l-17.572 1.537m17.572-1.537l.491 5.622m-18.063-4.085l-17.57 1.537m17.571-1.537l.492 5.623m-.492-5.623l-2.09-23.897m2.09 23.897c-22.902 2.004-43.093-14.938-45.097-37.841C44.38 90.08 61.322 69.889 84.225 67.886M73.909 152.36l.492 5.623m-24.74-3.501l-5.272.461m5.271-.461l-2.09-23.897m0 0l-1.538-17.572m1.537 17.572l-5.271.461m3.734-18.033l-1.506-17.22m1.506 17.22l-5.271.461m5.271-.461l24.249-2.121M44.525 95.793l-2.121-24.249m2.121 24.25l24.25-2.122m-24.25 2.121l-5.271.461m3.15-24.71l-5.271.462m29.52-2.583l17.571-1.537m-17.571 1.537L66.16 63.8m18.063 4.086l17.571-1.538m-17.571 1.538l2.121 24.248m-2.121-24.248l-.492-5.623m18.063 4.085l-.491-5.623m2.613 29.872l1.506 17.22M68.774 93.672l1.507 17.22m-29.52 2.582c2.275 26.008 25.203 45.247 51.211 42.972m-51.211-42.972c-2.276-26.008 16.963-48.936 42.971-51.211m-13.451 48.629c.849 9.704 9.404 16.883 19.108 16.034m-19.108-16.034c-.85-9.705 6.33-18.26 16.034-19.11 9.704-.848 18.259 6.33 19.108 16.035m0 0c.85 9.704-6.33 18.26-16.034 19.109m45.555-21.692c2.275 26.008-16.964 48.936-42.972 51.212m42.972-51.212c-2.276-26.008-25.204-45.247-51.212-42.971M61.75 159.09l60.446-5.288c9.316-.815 16.208-9.029 15.393-18.345L132.3 75.012c-.815-9.317-9.028-16.208-18.344-15.393L53.51 64.907c-9.316.815-16.208 9.028-15.393 18.344l5.289 60.446c.815 9.316 9.028 16.208 18.344 15.393zm50.703-51.888c1.189 13.586-8.862 25.564-22.448 26.752-13.586 1.189-25.563-8.861-26.752-22.447-1.19-13.587 8.861-25.564 22.447-26.753 13.586-1.188 25.563 8.862 26.752 22.448z" stroke="#fff" stroke-opacity=".55" stroke-width=".25" stroke-linecap="round"/><g filter="url(#filter3_d_4355_38396)"><rect x="127.57" y="103" width="155" height="155" rx="7" fill="#372E3B"/></g><path d="M204.075 181.137v65.365l-34.005-31.5 27.5-27.5 6.505-6.365zm16.495 49.647V130.5l50 49.5-50 50.784zm-16.495-117.149L204.07 161l-43.5 44-23-25 60-60 6.505-6.365z" opacity=".75" fill="#fff"/><path opacity=".55" d="M137.57 113l7.5 7.5m0 0l.5.5m-.5-.5v.5m0-.5V113m.5 8l34 34m-34-34h-.5m.5 0h34m0 34l.5.5m-.5-.5v-34m0 34v.5m.5 0l24.5 24.5m-24.5-24.5h24.5m-24.5 0h-.5m25 24.5l25 25m-25-25l-25 25m25-25l24.5-24.5m-24.5 24.5h-25m25 0h25m-25 0v25m0-25v-24.5m25 49.5l34 34m-34-34h34m-34 0h-25m25 0v-25m0 25v34m34 0l8 8m-8-8v-34m0 34v8m0-8h8m-8 0h-34m-92 8l7.5-7.5m0 0l.5-.5m-.5.5v7.5m0-7.5v-.5m.5 0l34-34m-34 34h34m-34 0h-.5m34.5-34h25m-25 0h-34.5m34.5 0v-25m0 25v34m49.5-83.5l.5-.5m-.5.5h.5m-.5 0h-24.5m25-.5l34-34m-34 34v-34m0 34v.5m34-34.5l8-8m-8 8v-8m0 8v34.5m0-34.5h-34m34 0h8m-8 34.5V180m0-24.5h8m-8 0h-34m34 24.5v25m0-25h-34m34 0h8m-8 0c0 32.585-26.415 59-59 59m59-59c0-32.585-26.415-59-59-59m59 84h8m-42 34h-25m25 0v8m-25-8h-25m25 0v8m0-8v-34m0 34c-32.584 0-59-26.415-59-59s26.416-59 59-59m-25 118v8m-34.5-8h-7.5m7.5 0v-34m0 0v-25m0 25h-7.5m7.5-25v-24.5m0 24.5h-7.5m7.5 0h34.5m-34.5-24.5V121m0 34.5h34.5m-34.5 0h-7.5m7.5-34.5h-7.5m42 0h25m-25 0v-8m25 8h25m-25 0v34.5m0-34.5v-8m25 8v-8m0 42.5V180m-50-24.5V180m-42 0c0 37.003 29.997 67 67 67m-67-67c0-37.003 29.997-67 67-67m-25 67c0 13.807 11.193 25 25 25m-25-25c0-13.807 11.193-25 25-25s25 11.193 25 25m0 0c0 13.807-11.193 25-25 25m67-25c0 37.003-29.997 67-67 67m67-67c0-37.003-29.997-67-67-67m-43 134h86c13.255 0 24-10.745 24-24v-86c0-13.255-10.745-24-24-24h-86c-13.255 0-24 10.745-24 24v86c0 13.255 10.745 24 24 24zm78-67c0 19.33-15.67 35-35 35s-35-15.67-35-35 15.67-35 35-35 35 15.67 35 35z" stroke="#fff" stroke-opacity=".55" stroke-width=".25" stroke-linecap="round"/><defs><filter id="filter0_d_4355_38396" x="215.571" y="8.571" width="185.236" height="185.236" filterUnits="userSpaceOnUse" color-interpolation-filters="sRGB"><feFlood flood-opacity="0" result="BackgroundImageFix"/><feColorMatrix in="SourceAlpha" values="0 0 0 0 0 0 0 0 0 0 0 0 0 0 0 0 0 0 127 0" result="hardAlpha"/><feOffset dx="5" dy="5"/><feGaussianBlur stdDeviation="17.5"/><feComposite in2="hardAlpha" operator="out"/><feColorMatrix values="0 0 0 0 0 0 0 0 0 0 0 0 0 0 0 0 0 0 0.15 0"/><feBlend in2="BackgroundImageFix" result="effect1_dropShadow_4355_38396"/><feBlend in="SourceGraphic" in2="effect1_dropShadow_4355_38396" result="shape"/></filter><filter id="filter1_d_4355_38396" x="48.877" y="192.878" width="145.503" height="145.503" filterUnits="userSpaceOnUse" color-interpolation-filters="sRGB"><feFlood flood-opacity="0" result="BackgroundImageFix"/><feColorMatrix in="SourceAlpha" values="0 0 0 0 0 0 0 0 0 0 0 0 0 0 0 0 0 0 127 0" result="hardAlpha"/><feOffset dx="7.174" dy="7.174"/><feGaussianBlur stdDeviation="17.934"/><feComposite in2="hardAlpha" operator="out"/><feColorMatrix values="0 0 0 0 0 0 0 0 0 0 0 0 0 0 0 0 0 0 0.25 0"/><feBlend in2="BackgroundImageFix" result="effect1_dropShadow_4355_38396"/><feBlend in="SourceGraphic" in2="effect1_dropShadow_4355_38396" result="shape"/></filter><filter id="filter2_d_4355_38396" x=".889" y="22.326" width="189.043" height="189.044" filterUnits="userSpaceOnUse" color-interpolation-filters="sRGB"><feFlood flood-opacity="0" result="BackgroundImageFix"/><feColorMatrix in="SourceAlpha" values="0 0 0 0 0 0 0 0 0 0 0 0 0 0 0 0 0 0 127 0" result="hardAlpha"/><feOffset dx="7.174" dy="7.174"/><feGaussianBlur stdDeviation="17.934"/><feComposite in2="hardAlpha" operator="out"/><feColorMatrix values="0 0 0 0 0 0 0 0 0 0 0 0 0 0 0 0 0 0 0.25 0"/><feBlend in2="BackgroundImageFix" result="effect1_dropShadow_4355_38396"/><feBlend in="SourceGraphic" in2="effect1_dropShadow_4355_38396" result="shape"/></filter><filter id="filter3_d_4355_38396" x="97.57" y="78" width="225" height="225" filterUnits="userSpaceOnUse" color-interpolation-filters="sRGB"><feFlood flood-opacity="0" result="BackgroundImageFix"/><feColorMatrix in="SourceAlpha" values="0 0 0 0 0 0 0 0 0 0 0 0 0 0 0 0 0 0 127 0" result="hardAlpha"/><feOffset dx="5" dy="10"/><feGaussianBlur stdDeviation="17.5"/><feComposite in2="hardAlpha" operator="out"/><feColorMatrix values="0 0 0 0 0 0 0 0 0 0 0 0 0 0 0 0 0 0 0.25 0"/><feBlend in2="BackgroundImageFix" result="effect1_dropShadow_4355_38396"/><feBlend in="SourceGraphic" in2="effect1_dropShadow_4355_38396" result="shape"/></filter></defs></svg>