<svg width="70" height="70" fill="none" xmlns="http://www.w3.org/2000/svg"><rect width="70" height="70" rx="5" fill="#E82F84"/><path d="M36.668 23.333h13.333M36.668 30h8.333m-8.333 10h13.333m-13.333 6.667h8.333m-16.668-25h-6.666c-.92 0-1.667.746-1.667 1.667V30c0 .92.746 1.667 1.667 1.667h6.666c.92 0 1.667-.746 1.667-1.667v-6.666c0-.92-.746-1.667-1.667-1.667zm0 16.666h-6.666c-.92 0-1.667.746-1.667 1.667v6.666c0 .92.746 1.667 1.667 1.667h6.666c.92 0 1.667-.746 1.667-1.667V40c0-.92-.746-1.667-1.667-1.667z" stroke="#fff" stroke-width="2" stroke-linecap="round" stroke-linejoin="round"/></svg>