<svg width="22" height="22" fill="none" xmlns="http://www.w3.org/2000/svg"><path d="M10.497 16H6.25A1.25 1.25 0 015 14.75v-7.5A1.25 1.25 0 016.25 6h7.5A1.25 1.25 0 0115 7.25v2.5" stroke="url(#paint0_linear_2689_4357)" stroke-linecap="round" stroke-linejoin="round"/><path d="M14.5 17a2.5 2.5 0 100-5 2.5 2.5 0 000 5z" stroke="url(#paint1_linear_2689_4357)" stroke-linecap="round" stroke-linejoin="round"/><path d="M13 5v3" stroke="url(#paint2_linear_2689_4357)" stroke-linecap="round" stroke-linejoin="round"/><path d="M8 5v3" stroke="url(#paint3_linear_2689_4357)" stroke-linecap="round" stroke-linejoin="round"/><path d="M5 10h10" stroke="url(#paint4_linear_2689_4357)" stroke-linecap="round" stroke-linejoin="round"/><path d="M14 14v.6l1 .4" stroke="url(#paint5_linear_2689_4357)" stroke-linecap="round" stroke-linejoin="round"/><rect x="1" y="1" width="20" height="20" rx="3" stroke="#fff" stroke-opacity=".05"/><defs><linearGradient id="paint0_linear_2689_4357" x1="5" y1="11" x2="15" y2="11" gradientUnits="userSpaceOnUse"><stop stop-color="#2360FE"/><stop offset="1" stop-color="#2353FE"/></linearGradient><linearGradient id="paint1_linear_2689_4357" x1="12" y1="14.5" x2="17" y2="14.5" gradientUnits="userSpaceOnUse"><stop stop-color="#2360FE"/><stop offset="1" stop-color="#2353FE"/></linearGradient><linearGradient id="paint2_linear_2689_4357" x1="13" y1="6.5" x2="14" y2="6.5" gradientUnits="userSpaceOnUse"><stop stop-color="#2360FE"/><stop offset="1" stop-color="#2353FE"/></linearGradient><linearGradient id="paint3_linear_2689_4357" x1="8" y1="6.5" x2="9" y2="6.5" gradientUnits="userSpaceOnUse"><stop stop-color="#2360FE"/><stop offset="1" stop-color="#2353FE"/></linearGradient><linearGradient id="paint4_linear_2689_4357" x1="5" y1="10.5" x2="15" y2="10.5" gradientUnits="userSpaceOnUse"><stop stop-color="#2360FE"/><stop offset="1" stop-color="#2353FE"/></linearGradient><linearGradient id="paint5_linear_2689_4357" x1="14" y1="14.5" x2="15" y2="14.5" gradientUnits="userSpaceOnUse"><stop stop-color="#2360FE"/><stop offset="1" stop-color="#2353FE"/></linearGradient></defs></svg>