<svg width="22" height="22" fill="none" xmlns="http://www.w3.org/2000/svg"><path d="M8.857 6H7.43c-.38 0-.743.158-1.01.44A1.539 1.539 0 006 7.5v9c0 .398.15.78.418 1.06.268.282.632.44 1.01.44h7.143c.38 0 .743-.158 1.01-.44A1.54 1.54 0 0016 16.5v-9c0-.398-.15-.78-.418-1.06a1.395 1.395 0 00-1.01-.44h-1.43" stroke="#E82F84" stroke-linecap="round" stroke-linejoin="round"/><path d="M11.667 4h-1.334C9.597 4 9 4.672 9 5.5S9.597 7 10.333 7h1.334C12.403 7 13 6.328 13 5.5S12.403 4 11.667 4zM9 15v-4m2 4v-1m2 1v-2" stroke="#E82F84" stroke-linecap="round" stroke-linejoin="round"/><rect x="1" y="1" width="20" height="20" rx="3" stroke="#fff" stroke-opacity=".05"/></svg>