<svg width="643" height="478" viewBox="0 0 643 478" fill="none" xmlns="http://www.w3.org/2000/svg">
<g filter="url(#filter0_f_3048_5424)">
<ellipse cx="314" cy="380.5" rx="238" ry="42.5" fill="url(#paint0_linear_3048_5424)"/>
</g>
<path d="M559.315 361.803H72.25V44.8013C72.25 41.4076 73.5986 38.1528 75.9991 35.7531C78.3996 33.3533 81.6553 32.0051 85.0502 32.0051H546.449C548.163 31.9521 549.87 32.2439 551.469 32.8632C553.068 33.4825 554.526 34.4167 555.757 35.6102C556.988 36.8038 557.966 38.2324 558.634 39.8113C559.302 41.3901 559.646 43.0871 559.645 44.8013L559.315 361.803Z" fill="url(#paint1_linear_3048_5424)"/>
<path d="M559.315 361.803H72.25V44.8013C72.25 41.4076 73.5986 38.1528 75.9991 35.7531C78.3996 33.3533 81.6553 32.0051 85.0502 32.0051H546.449C548.163 31.9521 549.87 32.2439 551.469 32.8632C553.068 33.4825 554.526 34.4167 555.757 35.6102C556.988 36.8038 557.966 38.2324 558.634 39.8113C559.302 41.3901 559.646 43.0871 559.645 44.8013L559.315 361.803Z" fill="#1F1E27"/>
<path d="M598 361V362.462C597.874 364.221 597.437 365.925 596.72 367.454C596.002 368.983 595.022 370.299 593.847 371.312C588.472 376.435 581.976 379.46 575.193 380H53.8066C47.0244 379.46 40.5282 376.435 35.1526 371.312C33.978 370.299 32.9976 368.983 32.2802 367.454C31.5628 365.925 31.1259 364.221 31 362.462V361H598Z" fill="#1E1D26"/>
<path d="M598.442 363.979V366.09C598.316 367.519 597.878 368.903 597.16 370.145C596.442 371.387 595.461 372.457 594.285 373.28H35.0376C33.8618 372.457 32.8804 371.387 32.1623 370.145C31.4442 368.903 31.0068 367.519 30.8809 366.09V363.979C30.8809 363.402 31.1102 362.848 31.5186 362.44C31.9269 362.032 32.4807 361.803 33.0582 361.803H596.264C596.842 361.803 597.396 362.032 597.804 362.44C598.212 362.848 598.442 363.402 598.442 363.979Z" fill="#26242F"/>
<g style="mix-blend-mode:multiply" opacity="0.45">
<path d="M328.338 360.768H276C276.133 362.135 276.833 363.407 277.962 364.333C279.091 365.258 280.566 365.769 282.095 365.764H354.971C356.493 365.768 357.96 365.255 359.078 364.329C360.196 363.402 360.883 362.13 361 360.768H328.338Z" fill="#B3B3B3"/>
</g>
<g style="mix-blend-mode:screen">
<g style="mix-blend-mode:screen">
<path d="M354.598 366.404H282.02C280.409 366.417 278.849 365.851 277.633 364.813C276.418 363.775 275.631 362.336 275.422 360.768H275.818C275.934 362.217 276.604 363.569 277.693 364.554C278.782 365.539 280.209 366.084 281.69 366.08H354.268C355.742 366.083 357.162 365.536 358.24 364.55C359.318 363.563 359.974 362.211 360.074 360.768H360.47C360.284 362.22 359.602 363.568 358.536 364.592C357.47 365.615 356.081 366.254 354.598 366.404Z" fill="white" fill-opacity="0.15"/>
</g>
</g>
<g style="mix-blend-mode:multiply">
<path d="M546.449 33.1265C549.553 33.1264 552.53 34.3543 554.73 36.5419C556.931 38.7295 558.176 41.6989 558.194 44.8013V360.682H73.3716V44.8013C73.3716 41.7049 74.6021 38.7354 76.7922 36.5459C78.9824 34.3565 81.9528 33.1265 85.0502 33.1265H546.449ZM546.449 32.0051H85.0502C81.6554 32.0051 78.3996 33.3533 75.9991 35.7531C73.5986 38.1528 72.25 41.4076 72.25 44.8013V361.803H559.315V44.8013C559.316 43.0871 558.972 41.3901 558.304 39.8113C557.637 38.2324 556.658 36.8038 555.427 35.6102C554.196 34.4167 552.738 33.4825 551.139 32.8632C549.54 32.2439 547.833 31.9521 546.119 32.0051H546.449Z" fill="#3E3C4B" fill-opacity="0.15"/>
</g>
<path d="M559.315 361.803H72.25V44.8013C72.25 41.4076 73.5986 38.1528 75.9991 35.7531C78.3996 33.3533 81.6553 32.0051 85.0502 32.0051H546.449C548.163 31.9521 549.87 32.2439 551.469 32.8632C553.068 33.4825 554.526 34.4167 555.757 35.6102C556.988 36.8038 557.966 38.2324 558.634 39.8113C559.302 41.3901 559.646 43.0871 559.645 44.8013L559.315 361.803Z" fill="url(#paint2_linear_3048_5424)"/>
<path d="M559.315 361.803H72.25V44.8013C72.25 41.4076 73.5986 38.1528 75.9991 35.7531C78.3996 33.3533 81.6553 32.0051 85.0502 32.0051H546.449C548.163 31.9521 549.87 32.2439 551.469 32.8632C553.068 33.4825 554.526 34.4167 555.757 35.6102C556.988 36.8038 557.966 38.2324 558.634 39.8113C559.302 41.3901 559.646 43.0871 559.645 44.8013L559.315 361.803Z" fill="#1F1E27"/>
<path d="M598.442 364.903V366.091C598.316 367.52 597.878 368.904 597.16 370.146C596.442 371.388 595.461 372.458 594.285 373.28C588.904 377.441 582.402 379.899 575.613 380.338H53.71C46.9211 379.899 40.4185 377.441 35.0376 373.28C33.8618 372.458 32.8804 371.388 32.1623 370.146C31.4442 368.904 31.0068 367.52 30.8809 366.091V364.903H598.442Z" fill="#1E1D26"/>
<path d="M598.442 363.979V366.09C598.316 367.519 597.878 368.903 597.16 370.145C596.442 371.387 595.461 372.457 594.285 373.28H35.0376C33.8618 372.457 32.8804 371.387 32.1623 370.145C31.4442 368.903 31.0068 367.519 30.8809 366.09V363.979C30.8809 363.402 31.1102 362.848 31.5186 362.44C31.9269 362.032 32.4807 361.803 33.0582 361.803H596.264C596.842 361.803 597.396 362.032 597.804 362.44C598.212 362.848 598.442 363.402 598.442 363.979Z" fill="#26242F"/>
<g style="mix-blend-mode:multiply" opacity="0.45">
<path d="M328.338 360.768H276C276.133 362.135 276.833 363.407 277.962 364.333C279.091 365.258 280.566 365.769 282.095 365.764H354.971C356.493 365.768 357.96 365.255 359.078 364.329C360.196 363.402 360.883 362.13 361 360.768H328.338Z" fill="#B3B3B3"/>
</g>
<g style="mix-blend-mode:screen">
<g style="mix-blend-mode:screen">
<path d="M354.598 366.404H282.02C280.409 366.417 278.849 365.851 277.633 364.813C276.418 363.775 275.631 362.336 275.422 360.768H275.818C275.934 362.217 276.604 363.569 277.693 364.554C278.782 365.539 280.209 366.084 281.69 366.08H354.268C355.742 366.083 357.162 365.536 358.24 364.55C359.318 363.563 359.974 362.211 360.074 360.768H360.47C360.284 362.22 359.602 363.568 358.536 364.592C357.47 365.615 356.081 366.254 354.598 366.404Z" fill="white" fill-opacity="0.15"/>
</g>
</g>
<g style="mix-blend-mode:multiply">
<path d="M546.449 33.1265C549.553 33.1264 552.53 34.3543 554.73 36.5419C556.931 38.7295 558.176 41.6989 558.194 44.8013V360.682H73.3716V44.8013C73.3716 41.7049 74.6021 38.7354 76.7922 36.5459C78.9824 34.3565 81.9528 33.1265 85.0502 33.1265H546.449ZM546.449 32.0051H85.0502C81.6554 32.0051 78.3996 33.3533 75.9991 35.7531C73.5986 38.1528 72.25 41.4076 72.25 44.8013V361.803H559.315V44.8013C559.316 43.0871 558.972 41.3901 558.304 39.8113C557.637 38.2324 556.658 36.8038 555.427 35.6102C554.196 34.4167 552.738 33.4825 551.139 32.8632C549.54 32.2439 547.833 31.9521 546.119 32.0051H546.449Z" fill="#3E3C4B" fill-opacity="0.15"/>
</g>
<path d="M543.281 349.236H89.7186C84.9028 349.236 81 345.328 81 340.506V54.1815C81 49.3592 84.9028 45.4512 89.7186 45.4512H543.281C548.097 45.4512 552 49.3592 552 54.1815V340.488C552 345.328 548.097 349.236 543.281 349.236Z" fill="#302E3C"/>
<path d="M81 103.41V341.731C81 345.869 84.3657 349.236 88.5012 349.236H544.499C548.634 349.236 552 345.869 552 341.731V103.41H81Z" fill="#272530"/>
<g filter="url(#filter1_d_3048_5424)">
<path d="M428.002 307.402V136.268C428.002 134.676 429.284 133.389 430.868 133.389H548.136C549.72 133.389 551.002 134.676 551.002 136.268V307.384C551.002 308.976 549.72 310.263 548.136 310.263H430.868C429.284 310.281 428.002 308.994 428.002 307.402Z" fill="#302E3B"/>
</g>
<path d="M532.285 245.736H448.006C446.239 245.736 444.828 244.304 444.828 242.55C444.828 240.778 446.257 239.364 448.006 239.364H532.285C534.053 239.364 535.464 240.796 535.464 242.55C535.464 244.304 534.053 245.736 532.285 245.736Z" fill="#3E3C4B"/>
<path d="M484.738 294.329H447.991C446.223 294.329 444.812 292.897 444.812 291.143C444.812 289.371 446.241 287.957 447.991 287.957H484.738C486.506 287.957 487.916 289.389 487.916 291.143C487.934 292.897 486.506 294.329 484.738 294.329Z" fill="#3E3C4B"/>
<path d="M532.285 261.933H448.006C446.239 261.933 444.828 260.501 444.828 258.747C444.828 256.975 446.257 255.562 448.006 255.562H532.285C534.053 255.562 535.464 256.993 535.464 258.747C535.464 260.501 534.053 261.933 532.285 261.933Z" fill="#3E3C4B"/>
<path d="M532.285 278.132H448.006C446.239 278.132 444.828 276.7 444.828 274.946C444.828 273.174 446.257 271.76 448.006 271.76H532.285C534.053 271.76 535.464 273.192 535.464 274.946C535.464 276.7 534.053 278.132 532.285 278.132Z" fill="#3E3C4B"/>
<path d="M436.99 143.787C438.636 143.787 439.971 142.448 439.971 140.798C439.971 139.147 438.636 137.809 436.99 137.809C435.343 137.809 434.008 139.147 434.008 140.798C434.008 142.448 435.343 143.787 436.99 143.787Z" fill="#FF0000"/>
<path d="M448.917 143.787C450.564 143.787 451.899 142.448 451.899 140.798C451.899 139.147 450.564 137.809 448.917 137.809C447.27 137.809 445.936 139.147 445.936 140.798C445.936 142.448 447.27 143.787 448.917 143.787Z" fill="#FF9900"/>
<path d="M463.811 140.798C463.811 142.444 462.472 143.787 460.829 143.787C459.187 143.787 457.848 142.444 457.848 140.798C457.848 139.151 459.187 137.809 460.829 137.809C462.472 137.809 463.811 139.151 463.811 140.798Z" fill="#00FF0A"/>
<path d="M543.368 148.672H436.938C435.353 148.672 434.068 149.957 434.068 151.541V223.41C434.068 224.994 435.353 226.279 436.938 226.279H543.368C544.953 226.279 546.238 224.994 546.238 223.41V151.541C546.238 149.957 544.953 148.672 543.368 148.672Z" fill="#3E3C4B"/>
<path d="M508.188 210.833L506.331 208.882L458.031 157.979L434.051 183.252L434.104 226.298L546.292 226.244L546.256 205.5L529.74 188.102L508.188 210.833Z" fill="#646675"/>
<path d="M507.523 187.37C514.032 187.37 519.308 182.081 519.308 175.557C519.308 169.033 514.032 163.744 507.523 163.744C501.014 163.744 495.738 169.033 495.738 175.557C495.738 182.081 501.014 187.37 507.523 187.37Z" fill="#646675"/>
<path d="M102.615 82.648C102.615 78.0481 106.329 74.3252 110.918 74.3252H523.064C527.653 74.3252 531.367 78.0481 531.367 82.648C531.367 87.2478 527.653 90.9707 523.064 90.9707H110.918C106.329 90.9707 102.615 87.2478 102.615 82.648Z" fill="#3E3C4B"/>
<path d="M109.706 60.596C109.706 62.6901 108.01 64.3726 105.939 64.3726C103.85 64.3726 102.172 62.6722 102.172 60.596C102.172 58.5019 103.868 56.8195 105.939 56.8195C108.01 56.8016 109.706 58.5019 109.706 60.596Z" fill="#FF0000"/>
<path d="M124.777 60.596C124.777 62.6901 123.081 64.3726 121.009 64.3726C118.92 64.3726 117.242 62.6722 117.242 60.596C117.242 58.5019 118.938 56.8195 121.009 56.8195C123.081 56.8016 124.777 58.5019 124.777 60.596Z" fill="#FF9900"/>
<path d="M139.849 60.596C139.849 62.6901 138.153 64.3726 136.082 64.3726C133.993 64.3726 132.314 62.6722 132.314 60.596C132.314 58.5019 134.011 56.8195 136.082 56.8195C138.153 56.8016 139.849 58.5019 139.849 60.596Z" fill="#00FF0A"/>
<path d="M315.455 85.011H137.576C136.273 85.011 135.201 83.955 135.201 82.6305C135.201 81.3239 136.255 80.25 137.576 80.25H315.455C316.758 80.25 317.83 81.306 317.83 82.6305C317.812 83.955 316.758 85.011 315.455 85.011Z" fill="#302E3B"/>
<path d="M404.069 85.011H332.164C330.86 85.011 329.789 83.955 329.789 82.6305C329.789 81.3239 330.843 80.25 332.164 80.25H404.069C405.372 80.25 406.444 81.306 406.444 82.6305C406.426 83.955 405.372 85.011 404.069 85.011Z" fill="#302E3B"/>
<g filter="url(#filter2_d_3048_5424)">
<path d="M221.43 311.246H50.8189C48.7119 311.246 47.0156 309.546 47.0156 307.434V136.415C47.0156 134.303 48.7119 132.603 50.8189 132.603H221.43C223.537 132.603 225.234 134.303 225.234 136.415V307.434C225.234 309.546 223.537 311.246 221.43 311.246Z" fill="#302E3B"/>
</g>
<path d="M53.0658 135.895C51.4806 135.896 50.1966 137.182 50.1981 138.767L50.2817 223.434C50.2833 225.018 51.5675 226.301 53.1511 226.301H219.098C220.683 226.301 221.967 225.016 221.967 223.432V138.66C221.967 137.075 220.682 135.79 219.096 135.791L53.0658 135.895Z" fill="#3E3C4B"/>
<path d="M160.977 178.941C160.977 176.758 159.209 174.986 157.031 174.986H142.836C144.942 171.693 146.067 167.862 146.067 163.943V162.01C146.067 159.128 143.728 156.783 140.853 156.783C139.461 156.783 138.336 157.911 138.336 159.307V163.799L126.98 178.691C126.765 178.959 126.658 179.299 126.658 179.622V203.033C126.658 203.892 127.355 204.572 128.194 204.572H154.424C156.281 204.572 157.799 203.068 157.799 201.189C157.799 199.328 156.299 197.806 154.424 197.806H155.692C157.709 197.806 159.334 196.16 159.334 194.137C159.334 192.115 157.691 190.486 155.692 190.486H156.37C158.477 190.486 160.173 188.785 160.173 186.673C160.173 184.561 158.477 182.861 156.37 182.861H157.031C159.209 182.897 160.977 181.125 160.977 178.941Z" fill="#646675"/>
<path d="M121.893 208.475H113.68C112.358 208.475 111.287 207.401 111.287 206.076V179.98C111.287 178.656 112.358 177.582 113.68 177.582H121.893C123.215 177.582 124.286 178.656 124.286 179.98V206.076C124.286 207.401 123.215 208.475 121.893 208.475Z" fill="#646675"/>
<path d="M96.5095 246.956C96.5095 249.945 94.0989 252.361 91.117 252.361C88.1351 252.361 85.7246 249.945 85.7246 246.956C85.7246 243.967 88.1351 241.551 91.117 241.551C94.0989 241.551 96.5095 243.967 96.5095 246.956Z" fill="#3E3C4B"/>
<path d="M183.485 249.891H106.884C105.259 249.891 103.938 248.566 103.938 246.938C103.938 245.309 105.259 243.984 106.884 243.984H183.485C185.11 243.984 186.431 245.309 186.431 246.938C186.431 248.584 185.11 249.891 183.485 249.891Z" fill="#3E3C4B"/>
<path d="M96.5095 267.182C96.5095 270.171 94.0989 272.587 91.117 272.587C88.1351 272.587 85.7246 270.171 85.7246 267.182C85.7246 264.193 88.1351 261.776 91.117 261.776C94.0989 261.776 96.5095 264.193 96.5095 267.182Z" fill="#3E3C4B"/>
<path d="M183.483 270.133H106.882C105.257 270.133 103.936 268.809 103.936 267.18C103.936 265.551 105.257 264.227 106.882 264.227H183.483C185.108 264.227 186.429 265.551 186.429 267.18C186.429 268.809 185.108 270.133 183.483 270.133Z" fill="#3E3C4B"/>
<path d="M96.5095 287.424C96.5095 290.413 94.0989 292.829 91.117 292.829C88.1351 292.829 85.7246 290.413 85.7246 287.424C85.7246 284.435 88.1351 282.019 91.117 282.019C94.0989 282.019 96.5095 284.435 96.5095 287.424Z" fill="#3E3C4B"/>
<path d="M183.485 290.377H106.884C105.259 290.377 103.938 289.053 103.938 287.424C103.938 285.795 105.259 284.471 106.884 284.471H183.485C185.11 284.471 186.431 285.795 186.431 287.424C186.431 289.053 185.11 290.377 183.485 290.377Z" fill="#3E3C4B"/>
<g filter="url(#filter3_d_3048_5424)">
<path d="M402.628 311.246H285.28C283.173 311.246 281.477 309.546 281.477 307.434V136.415C281.477 134.303 283.173 132.603 285.28 132.603H402.628C404.735 132.603 406.431 134.303 406.431 136.415V307.434C406.431 309.546 404.735 311.246 402.628 311.246Z" fill="#302E3B"/>
</g>
<path d="M397.168 148.675H290.737C289.152 148.675 287.867 149.959 287.867 151.544V223.413C287.867 224.997 289.152 226.282 290.737 226.282H397.168C398.752 226.282 400.037 224.997 400.037 223.413V151.544C400.037 149.959 398.752 148.675 397.168 148.675Z" fill="#3E3C4B"/>
<path d="M344.327 211.892C330.239 211.892 318.758 200.401 318.758 186.261C318.758 172.14 330.221 160.631 344.327 160.631C358.415 160.631 369.897 172.122 369.897 186.261C369.897 200.401 358.433 211.892 344.327 211.892Z" fill="#646675"/>
<path d="M386.09 245.738H301.811C300.043 245.738 298.633 244.306 298.633 242.552C298.633 240.78 300.061 239.366 301.811 239.366H386.09C387.84 239.366 389.269 240.798 389.269 242.552C389.286 244.306 387.858 245.738 386.09 245.738Z" fill="#3E3C4B"/>
<path d="M338.558 294.332H301.811C300.043 294.332 298.633 292.9 298.633 291.146C298.633 289.374 300.061 287.96 301.811 287.96H338.558C340.326 287.96 341.737 289.392 341.737 291.146C341.737 292.9 340.308 294.332 338.558 294.332Z" fill="#3E3C4B"/>
<path d="M386.09 261.935H301.811C300.043 261.935 298.633 260.503 298.633 258.749C298.633 256.977 300.061 255.563 301.811 255.563H386.09C387.84 255.563 389.269 256.995 389.269 258.749C389.286 260.503 387.858 261.935 386.09 261.935Z" fill="#3E3C4B"/>
<path d="M386.09 278.134H301.811C300.043 278.134 298.633 276.702 298.633 274.948C298.633 273.176 300.061 271.762 301.811 271.762H386.09C387.84 271.762 389.269 273.194 389.269 274.948C389.286 276.702 387.858 278.134 386.09 278.134Z" fill="#3E3C4B"/>
<path d="M290.765 143.79C292.412 143.79 293.747 142.451 293.747 140.801C293.747 139.15 292.412 137.812 290.765 137.812C289.118 137.812 287.783 139.15 287.783 140.801C287.783 142.451 289.118 143.79 290.765 143.79Z" fill="#FF0000"/>
<path d="M302.693 143.79C304.339 143.79 305.674 142.451 305.674 140.801C305.674 139.15 304.339 137.812 302.693 137.812C301.046 137.812 299.711 139.15 299.711 140.801C299.711 142.451 301.046 143.79 302.693 143.79Z" fill="#FF9900"/>
<path d="M317.588 140.801C317.588 142.447 316.249 143.79 314.607 143.79C312.964 143.79 311.625 142.447 311.625 140.801C311.625 139.154 312.964 137.812 314.607 137.812C316.249 137.812 317.588 139.154 317.588 140.801Z" fill="#00FF0A"/>
<g filter="url(#filter4_d_3048_5424)">
<path d="M592.19 203.454H505.506C501.754 203.454 498.695 200.066 498.695 195.867V96.1393C498.695 89.4042 504.155 83.9443 510.89 83.9443H586.805C593.54 83.9443 599 89.4042 599 96.1393V195.867C599 200.066 595.959 203.454 592.19 203.454Z" fill="#302E3B"/>
</g>
<path d="M592.19 83.9443H505.506C501.754 83.9443 498.695 86.9141 498.695 90.5958V96.2227H599V90.5958C599 86.9314 595.959 83.9443 592.19 83.9443Z" fill="#3E3C4B"/>
<path d="M510.1 89.5985C510.1 90.7049 509.211 91.5971 508.109 91.5971C507.006 91.5971 506.117 90.7049 506.117 89.5985C506.117 88.4921 507.006 87.5999 508.109 87.5999C509.211 87.582 510.1 88.4921 510.1 89.5985Z" fill="#FF0000"/>
<path d="M518.776 89.5982C518.776 90.7046 517.887 91.5968 516.784 91.5968C515.682 91.5968 514.793 90.7046 514.793 89.5982C514.793 88.4919 515.682 87.5996 516.784 87.5996C517.887 87.5996 518.776 88.4919 518.776 89.5982Z" fill="#FF9900"/>
<path d="M527.467 89.5985C527.467 90.7049 526.578 91.5971 525.476 91.5971C524.373 91.5971 523.484 90.7049 523.484 89.5985C523.484 88.4921 524.373 87.5999 525.476 87.5999C526.56 87.582 527.467 88.4921 527.467 89.5985Z" fill="#00FF0A"/>
<path d="M524.532 118.935C524.532 123.199 521.101 126.643 516.852 126.643C512.603 126.643 509.172 123.199 509.172 118.935C509.172 114.67 512.603 111.226 516.852 111.226C521.101 111.226 524.532 114.687 524.532 118.935Z" fill="#3E3C4B"/>
<path d="M583.414 116.829H532.997C532.019 116.829 531.219 116.026 531.219 115.044C531.219 114.063 532.019 113.26 532.997 113.26H583.414C584.392 113.26 585.192 114.063 585.192 115.044C585.192 116.026 584.392 116.829 583.414 116.829Z" fill="#3E3C4B"/>
<path d="M559.539 125.715H532.997C532.019 125.715 531.219 124.912 531.219 123.931C531.219 122.949 532.019 122.146 532.997 122.146H559.539C560.516 122.146 561.316 122.949 561.316 123.931C561.316 124.912 560.534 125.715 559.539 125.715Z" fill="#3E3C4B"/>
<path d="M571.746 125.715H566.68C565.702 125.715 564.902 124.912 564.902 123.931C564.902 122.949 565.702 122.146 566.68 122.146H571.746C572.724 122.146 573.524 122.949 573.524 123.931C573.506 124.912 572.724 125.715 571.746 125.715Z" fill="#3E3C4B"/>
<path d="M524.532 145.934C524.532 150.198 521.101 153.642 516.852 153.642C512.603 153.642 509.172 150.198 509.172 145.934C509.172 141.669 512.603 138.225 516.852 138.225C521.101 138.225 524.532 141.686 524.532 145.934Z" fill="#3E3C4B"/>
<path d="M583.414 143.811H532.997C532.019 143.811 531.219 143.008 531.219 142.027C531.219 141.045 532.019 140.242 532.997 140.242H583.414C584.392 140.242 585.192 141.045 585.192 142.027C585.192 143.026 584.392 143.811 583.414 143.811Z" fill="#3E3C4B"/>
<path d="M559.539 152.697H532.997C532.019 152.697 531.219 151.894 531.219 150.912C531.219 149.931 532.019 149.128 532.997 149.128H559.539C560.517 149.128 561.317 149.931 561.317 150.912C561.317 151.912 560.534 152.697 559.539 152.697Z" fill="#3E3C4B"/>
<path d="M571.746 152.697H566.68C565.702 152.697 564.902 151.894 564.902 150.912C564.902 149.931 565.702 149.128 566.68 149.128H571.746C572.724 149.128 573.524 149.931 573.524 150.912C573.506 151.912 572.724 152.697 571.746 152.697Z" fill="#3E3C4B"/>
<path d="M524.532 172.932C524.532 177.196 521.101 180.641 516.852 180.641C512.603 180.641 509.172 177.196 509.172 172.932C509.172 168.667 512.603 165.223 516.852 165.223C521.101 165.223 524.532 168.667 524.532 172.932Z" fill="#3E3C4B"/>
<path d="M583.414 170.809H532.997C532.019 170.809 531.219 170.006 531.219 169.025C531.219 168.043 532.019 167.24 532.997 167.24H583.414C584.392 167.24 585.192 168.043 585.192 169.025C585.192 170.006 584.392 170.809 583.414 170.809Z" fill="#3E3C4B"/>
<path d="M559.539 179.695H532.997C532.019 179.695 531.219 178.892 531.219 177.91C531.219 176.929 532.019 176.126 532.997 176.126H559.539C560.516 176.126 561.316 176.929 561.316 177.91C561.316 178.91 560.534 179.695 559.539 179.695Z" fill="#3E3C4B"/>
<path d="M571.746 179.695H566.68C565.702 179.695 564.902 178.892 564.902 177.91C564.902 176.929 565.702 176.126 566.68 176.126H571.746C572.724 176.126 573.524 176.929 573.524 177.91C573.506 178.91 572.724 179.695 571.746 179.695Z" fill="#3E3C4B"/>
<g filter="url(#filter5_d_3048_5424)">
<path d="M122.799 338.368H35.7346C31.9663 338.368 28.8945 333.95 28.8945 328.472V307.049C28.8945 300.314 34.3544 294.854 41.0895 294.854H117.444C124.179 294.854 129.639 300.314 129.639 307.049V328.472C129.639 333.95 126.585 338.368 122.799 338.368Z" fill="#302E3B"/>
</g>
<path d="M122.799 294.854H35.7346C31.9663 294.854 28.8945 298.032 28.8945 301.971V307.991H129.639V301.971C129.639 298.05 126.585 294.854 122.799 294.854Z" fill="#3E3C4B"/>
<path d="M40.6094 301.343C40.6094 302.452 39.7165 303.347 38.6094 303.347C37.5022 303.347 36.6094 302.452 36.6094 301.343C36.6094 300.233 37.5022 299.338 38.6094 299.338C39.7165 299.338 40.6094 300.233 40.6094 301.343Z" fill="#FF0000"/>
<path d="M49.3242 301.343C49.3242 302.452 48.4314 303.347 47.3242 303.347C46.2171 303.347 45.3242 302.452 45.3242 301.343C45.3242 300.233 46.2171 299.338 47.3242 299.338C48.4314 299.338 49.3242 300.233 49.3242 301.343Z" fill="#FF9900"/>
<path d="M58.0489 301.343C58.0489 302.452 57.156 303.347 56.0489 303.347C54.9417 303.347 54.0488 302.452 54.0488 301.343C54.0488 300.233 54.9417 299.338 56.0489 299.338C57.1382 299.338 58.0489 300.233 58.0489 301.343Z" fill="#00FF0A"/>
<path d="M55.1032 322.839C55.1032 327.116 51.657 330.571 47.3895 330.571C43.122 330.571 39.6758 327.116 39.6758 322.839C39.6758 318.561 43.122 315.106 47.3895 315.106C51.6391 315.106 55.1032 318.561 55.1032 322.839Z" fill="#3E3C4B"/>
<path d="M114.243 320.708H63.6039C62.6219 320.708 61.8184 319.902 61.8184 318.918C61.8184 317.933 62.6219 317.128 63.6039 317.128H114.243C115.225 317.128 116.028 317.933 116.028 318.918C116.028 319.92 115.225 320.708 114.243 320.708Z" fill="#3E3C4B"/>
<path d="M90.2625 329.622H63.6039C62.6219 329.622 61.8184 328.816 61.8184 327.832C61.8184 326.847 62.6219 326.042 63.6039 326.042H90.2625C91.2446 326.042 92.0481 326.847 92.0481 327.832C92.0481 328.834 91.2625 329.622 90.2625 329.622Z" fill="#3E3C4B"/>
<path d="M102.526 329.622H97.4378C96.4558 329.622 95.6523 328.816 95.6523 327.832C95.6523 326.847 96.4558 326.042 97.4378 326.042H102.526C103.508 326.042 104.312 326.847 104.312 327.832C104.294 328.834 103.508 329.622 102.526 329.622Z" fill="#3E3C4B"/>
<g filter="url(#filter6_d_3048_5424)">
<path d="M83.4631 118.76C70.1502 118.76 59.3008 107.902 59.3008 94.5403C59.3008 81.1956 70.1333 70.3203 83.4631 70.3203C96.776 70.3203 107.625 81.1787 107.625 94.5403C107.608 107.902 96.776 118.76 83.4631 118.76Z" fill="url(#paint3_linear_3048_5424)"/>
<path d="M83.4631 118.76C70.1502 118.76 59.3008 107.902 59.3008 94.5403C59.3008 81.1956 70.1333 70.3203 83.4631 70.3203C96.776 70.3203 107.625 81.1787 107.625 94.5403C107.608 107.902 96.776 118.76 83.4631 118.76Z" fill="#3E3C4B"/>
</g>
<path d="M92.4667 85.2776C92.4667 90.325 88.3957 94.4058 83.3603 94.4058C78.325 94.4058 74.2539 90.325 74.2539 85.2776C74.2539 80.2303 78.325 76.1495 83.3603 76.1495C88.3778 76.1316 92.4667 80.2303 92.4667 85.2776Z" fill="#646675"/>
<path d="M83.8732 118.759C90.989 118.759 97.3877 115.62 101.893 110.636C99.2632 102.949 92.2026 97.4131 83.8732 97.4131C75.5439 97.4131 67.9625 102.85 65.3516 110.556C70.1512 115.925 76.0921 118.759 83.8732 118.759Z" fill="#646675"/>
<g filter="url(#filter7_d_3048_5424)">
<path d="M569.758 339.227H342.329C335.205 339.227 329.438 333.445 329.438 326.304V316.012C329.438 308.871 335.205 303.09 342.329 303.09H569.758C576.882 303.09 582.65 308.871 582.65 316.012V326.304C582.65 333.445 576.882 339.227 569.758 339.227Z" fill="#3E3C4B"/>
</g>
<path d="M408.945 327.235C405.963 327.235 403.553 324.819 403.553 321.83C403.553 318.841 405.963 316.425 408.945 316.425C411.927 316.425 414.338 318.841 414.338 321.83C414.338 324.819 411.927 327.235 408.945 327.235Z" fill="#00FF0A"/>
<path d="M385.586 327.235C382.604 327.235 380.193 324.819 380.193 321.83C380.193 318.841 382.604 316.425 385.586 316.425C388.568 316.425 390.978 318.841 390.978 321.83C390.978 324.819 388.568 327.235 385.586 327.235Z" fill="#FF9900"/>
<path d="M362.232 327.235C359.25 327.235 356.84 324.819 356.84 321.83C356.84 318.841 359.25 316.425 362.232 316.425C365.214 316.425 367.625 318.841 367.625 321.83C367.625 324.819 365.214 327.235 362.232 327.235Z" fill="#FF0000"/>
<defs>
<filter id="filter0_f_3048_5424" x="21" y="283" width="586" height="195" filterUnits="userSpaceOnUse" color-interpolation-filters="sRGB">
<feFlood flood-opacity="0" result="BackgroundImageFix"/>
<feBlend mode="normal" in="SourceGraphic" in2="BackgroundImageFix" result="shape"/>
<feGaussianBlur stdDeviation="27.5" result="effect1_foregroundBlur_3048_5424"/>
</filter>
<filter id="filter1_d_3048_5424" x="399.308" y="104.695" width="194.735" height="248.61" filterUnits="userSpaceOnUse" color-interpolation-filters="sRGB">
<feFlood flood-opacity="0" result="BackgroundImageFix"/>
<feColorMatrix in="SourceAlpha" type="matrix" values="0 0 0 0 0 0 0 0 0 0 0 0 0 0 0 0 0 0 127 0" result="hardAlpha"/>
<feOffset dx="7.17352" dy="7.17352"/>
<feGaussianBlur stdDeviation="17.9338"/>
<feComposite in2="hardAlpha" operator="out"/>
<feColorMatrix type="matrix" values="0 0 0 0 0 0 0 0 0 0 0 0 0 0 0 0 0 0 0.25 0"/>
<feBlend mode="normal" in2="BackgroundImageFix" result="effect1_dropShadow_3048_5424"/>
<feBlend mode="normal" in="SourceGraphic" in2="effect1_dropShadow_3048_5424" result="shape"/>
</filter>
<filter id="filter2_d_3048_5424" x="18.3215" y="103.908" width="249.953" height="250.379" filterUnits="userSpaceOnUse" color-interpolation-filters="sRGB">
<feFlood flood-opacity="0" result="BackgroundImageFix"/>
<feColorMatrix in="SourceAlpha" type="matrix" values="0 0 0 0 0 0 0 0 0 0 0 0 0 0 0 0 0 0 127 0" result="hardAlpha"/>
<feOffset dx="7.17352" dy="7.17352"/>
<feGaussianBlur stdDeviation="17.9338"/>
<feComposite in2="hardAlpha" operator="out"/>
<feColorMatrix type="matrix" values="0 0 0 0 0 0 0 0 0 0 0 0 0 0 0 0 0 0 0.25 0"/>
<feBlend mode="normal" in2="BackgroundImageFix" result="effect1_dropShadow_3048_5424"/>
<feBlend mode="normal" in="SourceGraphic" in2="effect1_dropShadow_3048_5424" result="shape"/>
</filter>
<filter id="filter3_d_3048_5424" x="252.782" y="103.908" width="196.689" height="250.379" filterUnits="userSpaceOnUse" color-interpolation-filters="sRGB">
<feFlood flood-opacity="0" result="BackgroundImageFix"/>
<feColorMatrix in="SourceAlpha" type="matrix" values="0 0 0 0 0 0 0 0 0 0 0 0 0 0 0 0 0 0 127 0" result="hardAlpha"/>
<feOffset dx="7.17352" dy="7.17352"/>
<feGaussianBlur stdDeviation="17.9338"/>
<feComposite in2="hardAlpha" operator="out"/>
<feColorMatrix type="matrix" values="0 0 0 0 0 0 0 0 0 0 0 0 0 0 0 0 0 0 0.25 0"/>
<feBlend mode="normal" in2="BackgroundImageFix" result="effect1_dropShadow_3048_5424"/>
<feBlend mode="normal" in="SourceGraphic" in2="effect1_dropShadow_3048_5424" result="shape"/>
</filter>
<filter id="filter4_d_3048_5424" x="470.001" y="55.2502" width="172.04" height="191.245" filterUnits="userSpaceOnUse" color-interpolation-filters="sRGB">
<feFlood flood-opacity="0" result="BackgroundImageFix"/>
<feColorMatrix in="SourceAlpha" type="matrix" values="0 0 0 0 0 0 0 0 0 0 0 0 0 0 0 0 0 0 127 0" result="hardAlpha"/>
<feOffset dx="7.17352" dy="7.17352"/>
<feGaussianBlur stdDeviation="17.9338"/>
<feComposite in2="hardAlpha" operator="out"/>
<feColorMatrix type="matrix" values="0 0 0 0 0 0 0 0 0 0 0 0 0 0 0 0 0 0 0.25 0"/>
<feBlend mode="normal" in2="BackgroundImageFix" result="effect1_dropShadow_3048_5424"/>
<feBlend mode="normal" in="SourceGraphic" in2="effect1_dropShadow_3048_5424" result="shape"/>
</filter>
<filter id="filter5_d_3048_5424" x="0.200432" y="266.16" width="172.479" height="115.249" filterUnits="userSpaceOnUse" color-interpolation-filters="sRGB">
<feFlood flood-opacity="0" result="BackgroundImageFix"/>
<feColorMatrix in="SourceAlpha" type="matrix" values="0 0 0 0 0 0 0 0 0 0 0 0 0 0 0 0 0 0 127 0" result="hardAlpha"/>
<feOffset dx="7.17352" dy="7.17352"/>
<feGaussianBlur stdDeviation="17.9338"/>
<feComposite in2="hardAlpha" operator="out"/>
<feColorMatrix type="matrix" values="0 0 0 0 0 0 0 0 0 0 0 0 0 0 0 0 0 0 0.25 0"/>
<feBlend mode="normal" in2="BackgroundImageFix" result="effect1_dropShadow_3048_5424"/>
<feBlend mode="normal" in="SourceGraphic" in2="effect1_dropShadow_3048_5424" result="shape"/>
</filter>
<filter id="filter6_d_3048_5424" x="30.6067" y="41.6262" width="120.059" height="120.175" filterUnits="userSpaceOnUse" color-interpolation-filters="sRGB">
<feFlood flood-opacity="0" result="BackgroundImageFix"/>
<feColorMatrix in="SourceAlpha" type="matrix" values="0 0 0 0 0 0 0 0 0 0 0 0 0 0 0 0 0 0 127 0" result="hardAlpha"/>
<feOffset dx="7.17352" dy="7.17352"/>
<feGaussianBlur stdDeviation="17.9338"/>
<feComposite in2="hardAlpha" operator="out"/>
<feColorMatrix type="matrix" values="0 0 0 0 0 0 0 0 0 0 0 0 0 0 0 0 0 0 0.25 0"/>
<feBlend mode="normal" in2="BackgroundImageFix" result="effect1_dropShadow_3048_5424"/>
<feBlend mode="normal" in="SourceGraphic" in2="effect1_dropShadow_3048_5424" result="shape"/>
</filter>
<filter id="filter7_d_3048_5424" x="300.743" y="274.396" width="324.947" height="107.872" filterUnits="userSpaceOnUse" color-interpolation-filters="sRGB">
<feFlood flood-opacity="0" result="BackgroundImageFix"/>
<feColorMatrix in="SourceAlpha" type="matrix" values="0 0 0 0 0 0 0 0 0 0 0 0 0 0 0 0 0 0 127 0" result="hardAlpha"/>
<feOffset dx="7.17352" dy="7.17352"/>
<feGaussianBlur stdDeviation="17.9338"/>
<feComposite in2="hardAlpha" operator="out"/>
<feColorMatrix type="matrix" values="0 0 0 0 0 0 0 0 0 0 0 0 0 0 0 0 0 0 0.25 0"/>
<feBlend mode="normal" in2="BackgroundImageFix" result="effect1_dropShadow_3048_5424"/>
<feBlend mode="normal" in="SourceGraphic" in2="effect1_dropShadow_3048_5424" result="shape"/>
</filter>
<linearGradient id="paint0_linear_3048_5424" x1="314" y1="338" x2="314" y2="423" gradientUnits="userSpaceOnUse">
<stop stop-color="#2D1631"/>
<stop offset="0.0001" stop-color="#0D020D"/>
<stop offset="1" stop-color="#0D020D" stop-opacity="0"/>
</linearGradient>
<linearGradient id="paint1_linear_3048_5424" x1="412.971" y1="-35.0757" x2="214.543" y2="449.243" gradientUnits="userSpaceOnUse">
<stop stop-color="#18171E"/>
<stop offset="1" stop-color="#201E2F"/>
</linearGradient>
<linearGradient id="paint2_linear_3048_5424" x1="412.971" y1="-35.0757" x2="214.543" y2="449.243" gradientUnits="userSpaceOnUse">
<stop stop-color="#18171E"/>
<stop offset="1" stop-color="#201E2F"/>
</linearGradient>
<linearGradient id="paint3_linear_3048_5424" x1="59.3105" y1="94.6372" x2="107.621" y2="94.6372" gradientUnits="userSpaceOnUse">
<stop offset="0.387" stop-color="#0A59B6"/>
<stop offset="0.944" stop-color="#2482F1"/>
</linearGradient>
</defs>
</svg>
