<svg width="614" height="428" viewBox="0 0 614 428" fill="none" xmlns="http://www.w3.org/2000/svg">
<g clip-path="url(#clip0_3774_27246)">
<g filter="url(#filter0_f_3774_27246)">
<ellipse cx="317" cy="354.5" rx="238" ry="42.5" fill="url(#paint0_linear_3774_27246)"/>
</g>
<path d="M562.315 335.803H75.25V18.8013C75.25 15.4076 76.5986 12.1528 78.9991 9.75305C81.3996 7.35331 84.6553 6.00515 88.0502 6.00515H549.449C551.163 5.95213 552.87 6.24392 554.469 6.86321C556.068 7.48249 557.526 8.41665 558.757 9.61021C559.988 10.8038 560.966 12.2324 561.634 13.8113C562.302 15.3901 562.646 17.0871 562.645 18.8013L562.315 335.803Z" fill="url(#paint1_linear_3774_27246)"/>
<path d="M562.065 335.803H75V18.8013C75 15.4076 76.3486 12.1528 78.7491 9.75305C81.1496 7.35331 84.4053 6.00515 87.8002 6.00515H549.199C550.913 5.95213 552.62 6.24392 554.219 6.86321C555.818 7.48249 557.276 8.41665 558.507 9.61021C559.738 10.8038 560.716 12.2324 561.384 13.8113C562.052 15.3901 562.396 17.0871 562.395 18.8013L562.065 335.803Z" fill="#1F1E27"/>
<path d="M555.256 20.2108V322.125C555.256 324.997 552.911 327.343 550.048 327.343H86.2152C83.3517 327.343 81 324.997 81 322.125V20.2108C81 17.3456 83.3517 15 86.2152 15H550.048C552.911 15.0074 555.256 17.353 555.256 20.2108Z" fill="#26242F"/>
<path d="M601 335V336.462C600.874 338.221 600.437 339.925 599.72 341.454C599.002 342.983 598.022 344.299 596.847 345.312C591.472 350.435 584.976 353.46 578.193 354H56.8066C50.0244 353.46 43.5282 350.435 38.1526 345.312C36.978 344.299 35.9976 342.983 35.2802 341.454C34.5628 339.925 34.1259 338.221 34 336.462V335H601Z" fill="#1E1D26"/>
<path d="M601.442 337.979V340.09C601.316 341.519 600.878 342.903 600.16 344.145C599.442 345.387 598.461 346.457 597.285 347.28H38.0376C36.8618 346.457 35.8804 345.387 35.1623 344.145C34.4442 342.903 34.0068 341.519 33.8809 340.09V337.979C33.8809 337.402 34.1102 336.848 34.5186 336.44C34.9269 336.032 35.4807 335.803 36.0582 335.803H599.264C599.842 335.803 600.396 336.032 600.804 336.44C601.212 336.848 601.442 337.402 601.442 337.979Z" fill="#26242F"/>
<g style="mix-blend-mode:multiply" opacity="0.45">
<path d="M331.338 334.768H279C279.133 336.135 279.833 337.407 280.962 338.333C282.091 339.258 283.566 339.769 285.095 339.764H357.971C359.493 339.768 360.96 339.255 362.078 338.329C363.196 337.402 363.883 336.13 364 334.768H331.338Z" fill="#B3B3B3"/>
</g>
<g style="mix-blend-mode:screen">
<g style="mix-blend-mode:screen">
<path d="M357.598 340.404H285.02C283.409 340.417 281.849 339.851 280.633 338.813C279.418 337.775 278.631 336.336 278.422 334.768H278.818C278.934 336.217 279.604 337.569 280.693 338.554C281.782 339.539 283.209 340.084 284.69 340.08H357.268C358.742 340.083 360.162 339.536 361.24 338.55C362.318 337.563 362.974 336.211 363.074 334.768H363.47C363.284 336.22 362.602 337.568 361.536 338.592C360.47 339.615 359.081 340.254 357.598 340.404Z" fill="white" fill-opacity="0.15"/>
</g>
</g>
<g style="mix-blend-mode:multiply">
<path d="M549.449 7.12646C552.553 7.12641 555.53 8.35432 557.73 10.5419C559.931 12.7295 561.176 15.6989 561.194 18.8013V334.682H76.3716V18.8013C76.3716 15.7049 77.6021 12.7354 79.7922 10.5459C81.9824 8.35648 84.9528 7.12646 88.0502 7.12646H549.449ZM549.449 6.00515H88.0502C84.6554 6.00515 81.3996 7.35331 78.9991 9.75305C76.5986 12.1528 75.25 15.4076 75.25 18.8013V335.803H562.315V18.8013C562.316 17.0871 561.972 15.3901 561.304 13.8113C560.637 12.2324 559.658 10.8038 558.427 9.61021C557.196 8.41665 555.738 7.48249 554.139 6.86321C552.54 6.24392 550.833 5.95213 549.119 6.00515H549.449Z" fill="#3E3C4B" fill-opacity="0.15"/>
</g>
</g>
<path d="M413.92 278.328H345.01C343.065 278.328 341.488 279.905 341.488 281.85C341.488 283.795 343.065 285.372 345.01 285.372H413.92C415.865 285.372 417.442 283.795 417.442 281.85C417.442 279.905 415.865 278.328 413.92 278.328Z" fill="#3E3C4B"/>
<path d="M231.46 278.328H162.538C160.593 278.328 159.016 279.905 159.016 281.85C159.016 283.795 160.593 285.372 162.538 285.372H231.46C233.406 285.372 234.982 283.795 234.982 281.85C234.982 279.905 233.406 278.328 231.46 278.328Z" fill="#3E3C4B"/>
<path d="M279.746 254.552C279.746 251.79 281.985 249.552 284.746 249.552H287.583C290.344 249.552 292.583 251.79 292.583 254.552V269.622C292.583 270.726 293.478 271.622 294.583 271.622H330.622C333.383 271.622 335.622 273.86 335.622 276.622V288C335.622 290.762 333.383 293 330.622 293H245.86C243.099 293 240.86 290.762 240.86 288V276.622C240.86 273.86 243.099 271.622 245.86 271.622H277.746C278.851 271.622 279.746 270.726 279.746 269.622V254.552Z" fill="#3B3947"/>
<circle cx="288.748" cy="139.425" r="103.117" fill="#4F4D5B"/>
<path d="M288.769 36.3076C231.798 36.3076 185.631 82.4796 185.631 139.421C185.631 196.369 231.798 242.541 288.769 242.541C345.713 242.541 391.865 196.369 391.865 139.421C391.865 82.4796 345.713 36.3076 288.769 36.3076ZM278.118 69.2261H283.134V63.2653H279.682H278.733V47.9082H285.003V40.0635L285.368 39.2352C286.472 39.2073 287.602 39.1275 288.769 39.1275C293.763 39.1275 298.706 39.518 303.503 40.251V45.4064H310.702V53.5496V64.9849H305.22L300.495 69.6768L289.073 81.1474L283.134 87.0928L278.118 82.0741V69.2261ZM258.859 43.708L260.715 45.5732L257.409 48.8567H251.771V54.4845H259.624H263.672V80.4999H254.595V61.6854H248.303V52.5908H244.252V57.9135L240.333 61.8439H231.085L228.547 59.3001C237.573 52.4825 247.802 47.1691 258.859 43.708ZM291.58 189.242H283.134L278.733 195.519V209.617L265.874 219.029V235.944L251.444 222.792V188.307L236.1 173.885V156.346L225.446 148.514H216.036L209.304 141.763V132.519L204.779 129.711L203.485 133.15L205.693 134.403V142.258L200.052 135.355L197.229 124.37L194.713 123.744V104.581C199.757 91.0791 207.565 78.9548 217.535 68.9148L248.929 69.2261L247.704 75.8081L238.287 76.4271L239.233 79.5515L241.425 82.0735L238.919 86.134L231.39 85.214L235.796 91.1749L243.297 96.4821L245.806 102.433L248.929 101.507V86.134H257.41V88.0344H266.192V98.6644H262.438V103.065H258.669V105.884H263.989L260.55 109.336L259.147 107.93L255.832 111.207V114.028L252.869 117.022L249.106 120.778L244.715 125.165L241.761 128.147V137.543H237.643V132.518H224.184V138.187L237.352 150.724H263.673V153.226H273.095L283.433 166.379H291.58V189.242H291.58ZM371.496 130.939V139.1H358.03L351.419 132.518V128.147H347.542V134.278L356.469 143.189H366.654V150.549L357.389 159.796V173.287V185.805H350.365V199.116L344.879 204.591H331.963V192.749L324.999 185.805V163.993L316.347 155.342H298.227L291.099 148.208V130.155L297.225 124.076H307.559L314.139 117.488H317.591H322.005V120.939H346.112V116.717H340.029L343.615 113.107L347.073 109.655H352.996L349.256 105.934H343.652L337.733 111.844V116.479L331.406 110.119H327.472L333.265 115.915H328.563L324.801 112.149V109.64L319.163 104.006L314.933 108.235L311.323 111.844V118.414H304.114V115.312V105.262H306.773V102.911L308.485 101.186L305.386 98.0552L301.286 102.128L297.997 98.8223L299.748 97.1125V93.9948V87.7071H306.316V91.4697L311.928 97.1125H316.04V92.7097H328.563V88.3323H333.582V82.0735H328.274V76.1127H325.447V88.0344L323.223 90.2104L318.851 88.3328L311.322 86.4546L311.928 79.2599L319.489 73.6196L323.861 66.0919L332.012 64.2142L331.091 67.97L336.403 68.8998L336.108 72.6489L342.041 72.0237L344.881 70.1518L345.484 67.0367H358.048C377.126 85.2866 389.049 110.976 389.049 139.421C389.049 140.957 389.007 142.467 388.931 144.002L367.112 122.171L364.919 124.369L371.496 130.939Z" fill="#3E3C4B"/>
<g filter="url(#filter1_d_3774_27246)">
<rect x="372.187" y="171" width="110.492" height="110.492" rx="7" transform="rotate(10 372.187 171)" fill="#26242F"/>
</g>
<g clip-path="url(#clip1_3774_27246)">
<path d="M443.826 237.255L429.424 234.715C428.787 234.603 428.222 234.243 427.851 233.713C427.48 233.184 427.335 232.528 427.447 231.892L428.717 224.691C429.166 222.145 430.608 219.881 432.726 218.398C434.844 216.915 437.464 216.334 440.011 216.783C442.557 217.232 444.821 218.674 446.304 220.792C447.787 222.91 448.368 225.531 447.919 228.077L446.649 235.278C446.537 235.914 446.177 236.48 445.647 236.851C445.118 237.222 444.462 237.367 443.826 237.255ZM432.671 230.338L442.272 232.031L443.118 227.23C443.343 225.957 443.052 224.647 442.311 223.588C441.569 222.529 440.438 221.808 439.164 221.583C437.891 221.359 436.581 221.649 435.522 222.391C434.463 223.132 433.742 224.264 433.517 225.537L432.671 230.338Z" fill="#646675"/>
<path d="M426.038 253.918C425.401 253.806 424.835 253.445 424.465 252.915C424.094 252.386 423.949 251.731 424.061 251.094L426.177 239.093C426.289 238.456 426.144 237.801 425.773 237.272C425.403 236.742 424.837 236.381 424.2 236.269L390.596 230.344C388.686 230.007 386.721 230.443 385.132 231.555C383.544 232.668 382.462 234.365 382.125 236.275L380.856 243.476C380.519 245.386 380.955 247.351 382.067 248.94C383.179 250.528 384.877 251.61 386.787 251.947L425.191 258.718C425.828 258.831 426.483 258.685 427.013 258.315C427.542 257.944 427.903 257.378 428.015 256.741C428.127 256.105 427.982 255.45 427.611 254.92C427.24 254.391 426.675 254.03 426.038 253.918Z" fill="#3E3C4B"/>
<path d="M396.103 239.111C396.016 238.977 395.902 238.862 395.768 238.774C395.635 238.686 395.485 238.627 395.327 238.599C395.17 238.571 395.009 238.576 394.853 238.613C394.698 238.65 394.551 238.719 394.423 238.814L392.592 240.076L391.303 238.264C391.119 238.002 390.839 237.824 390.524 237.768C390.209 237.713 389.885 237.784 389.623 237.968C389.361 238.152 389.182 238.432 389.127 238.747C389.071 239.062 389.143 239.386 389.326 239.648L390.587 241.479L388.776 242.769C388.514 242.952 388.336 243.232 388.28 243.547C388.225 243.862 388.296 244.187 388.48 244.449C388.663 244.711 388.944 244.889 389.259 244.945C389.574 245 389.898 244.929 390.16 244.745L391.991 243.484L393.281 245.295C393.371 245.425 393.487 245.536 393.621 245.621C393.754 245.706 393.903 245.764 394.059 245.791C394.215 245.819 394.375 245.815 394.53 245.781C394.685 245.747 394.831 245.682 394.961 245.592C395.09 245.501 395.201 245.385 395.286 245.252C395.371 245.118 395.429 244.969 395.457 244.813C395.484 244.657 395.481 244.497 395.447 244.342C395.412 244.188 395.348 244.041 395.257 243.911L393.996 242.08L395.807 240.791C395.941 240.703 396.055 240.589 396.143 240.456C396.232 240.323 396.291 240.172 396.319 240.015C396.347 239.858 396.342 239.696 396.305 239.541C396.268 239.385 396.199 239.239 396.103 239.111Z" fill="#E82F84"/>
<path d="M405.705 240.804C405.617 240.67 405.503 240.556 405.37 240.468C405.236 240.38 405.086 240.32 404.929 240.292C404.771 240.265 404.61 240.269 404.454 240.306C404.299 240.343 404.153 240.412 404.025 240.508L402.194 241.769L400.904 239.958C400.813 239.828 400.698 239.717 400.564 239.632C400.431 239.547 400.282 239.489 400.125 239.462C399.969 239.434 399.81 239.438 399.655 239.472C399.5 239.506 399.354 239.571 399.224 239.661C399.094 239.752 398.984 239.868 398.899 240.001C398.813 240.135 398.755 240.284 398.728 240.44C398.7 240.596 398.704 240.756 398.738 240.911C398.772 241.065 398.837 241.212 398.928 241.342L400.189 243.173L398.378 244.462C398.115 244.645 397.937 244.926 397.881 245.241C397.826 245.556 397.898 245.88 398.081 246.142C398.265 246.404 398.545 246.583 398.86 246.638C399.175 246.694 399.499 246.622 399.761 246.438L401.593 245.177L402.882 246.989C402.973 247.118 403.088 247.229 403.222 247.314C403.356 247.399 403.505 247.457 403.661 247.485C403.817 247.512 403.977 247.509 404.131 247.474C404.286 247.44 404.432 247.376 404.562 247.285C404.692 247.194 404.802 247.078 404.888 246.945C404.973 246.811 405.031 246.662 405.058 246.506C405.086 246.35 405.082 246.19 405.048 246.036C405.014 245.881 404.949 245.734 404.858 245.605L403.597 243.774L405.409 242.484C405.542 242.397 405.657 242.283 405.745 242.149C405.833 242.016 405.893 241.866 405.92 241.708C405.948 241.551 405.943 241.389 405.906 241.234C405.869 241.078 405.801 240.932 405.705 240.804Z" fill="#E82F84"/>
<path d="M413.198 245.466L415.009 244.177C415.272 243.993 415.45 243.713 415.506 243.398C415.561 243.083 415.489 242.759 415.306 242.496C415.122 242.234 414.842 242.056 414.527 242C414.212 241.945 413.888 242.017 413.626 242.2L411.794 243.461L410.505 241.65C410.322 241.388 410.041 241.209 409.726 241.154C409.411 241.098 409.087 241.17 408.825 241.354C408.563 241.537 408.384 241.817 408.329 242.132C408.273 242.448 408.345 242.772 408.529 243.034L409.79 244.865L407.978 246.154C407.716 246.338 407.538 246.618 407.482 246.933C407.427 247.248 407.499 247.572 407.682 247.834C407.866 248.097 408.146 248.275 408.461 248.331C408.776 248.386 409.1 248.314 409.362 248.131L411.193 246.87L412.483 248.681C412.574 248.811 412.689 248.921 412.823 249.006C412.956 249.092 413.106 249.15 413.262 249.177C413.418 249.205 413.577 249.201 413.732 249.167C413.887 249.132 414.033 249.068 414.163 248.977C414.293 248.886 414.403 248.771 414.489 248.637C414.574 248.504 414.632 248.354 414.659 248.198C414.687 248.042 414.683 247.883 414.649 247.728C414.615 247.573 414.55 247.427 414.459 247.297L413.198 245.466Z" fill="#E82F84"/>
<path d="M444.673 232.454L430.271 229.914C426.294 229.213 422.502 231.868 421.8 235.845L419.261 250.247C418.56 254.224 421.215 258.017 425.192 258.718L439.594 261.257C443.571 261.958 447.363 259.303 448.065 255.326L450.604 240.924C451.305 236.947 448.65 233.155 444.673 232.454Z" fill="#302E3B"/>
<path d="M440.156 244.033C440.31 243.19 440.239 242.321 439.95 241.515C439.661 240.708 439.165 239.992 438.511 239.438C437.857 238.884 437.068 238.512 436.225 238.36C435.382 238.208 434.513 238.281 433.707 238.572C432.901 238.863 432.186 239.361 431.633 240.016C431.081 240.671 430.711 241.46 430.561 242.304C430.411 243.148 430.486 244.016 430.779 244.821C431.071 245.627 431.571 246.341 432.227 246.892L431.685 249.964C431.573 250.601 431.718 251.256 432.089 251.786C432.46 252.315 433.026 252.676 433.662 252.788C434.299 252.9 434.954 252.755 435.484 252.384C436.013 252.013 436.374 251.447 436.486 250.811L437.028 247.738C437.827 247.447 438.536 246.952 439.085 246.302C439.634 245.652 440.003 244.87 440.156 244.033Z" fill="#646675"/>
</g>
<g filter="url(#filter2_d_3774_27246)">
<rect x="28" y="73.6279" width="145.385" height="145.385" rx="7" transform="rotate(-15 28 73.6279)" fill="#26242F"/>
</g>
<g clip-path="url(#clip2_3774_27246)">
<path fill-rule="evenodd" clip-rule="evenodd" d="M70.2783 98.0377C66.9973 98.9168 64.1998 101.063 62.5014 104.005C60.803 106.947 60.3428 110.443 61.2219 113.724L62.8794 119.909C63.7585 123.191 65.9051 125.988 68.8468 127.686C71.7885 129.385 75.2844 129.845 78.5655 128.966L112.587 119.85L117.559 138.407C115.098 139.066 113 140.676 111.726 142.882C110.452 145.089 110.107 147.711 110.767 150.172L76.7455 159.287C75.9253 159.507 75.2259 160.044 74.8013 160.779C74.3767 161.515 74.2616 162.389 74.4814 163.209C74.7012 164.029 75.2378 164.729 75.9733 165.153C76.7087 165.578 77.5827 165.693 78.403 165.473L112.424 156.357C113.083 158.818 114.693 160.916 116.9 162.19C119.106 163.464 121.728 163.809 124.189 163.149L130.374 161.492C132.835 160.833 134.933 159.223 136.207 157.016C137.481 154.81 137.826 152.188 137.167 149.727L171.188 140.611C172.008 140.392 172.707 139.855 173.132 139.12C173.556 138.384 173.671 137.51 173.452 136.69C173.232 135.87 172.695 135.17 171.96 134.746C171.224 134.321 170.35 134.206 169.53 134.426L135.509 143.542C134.85 141.081 133.24 138.983 131.034 137.709C128.827 136.435 126.205 136.09 123.744 136.749L118.772 118.193L152.793 109.077C156.074 108.197 158.872 106.051 160.57 103.109C162.269 100.167 162.729 96.6715 161.85 93.3905L160.192 87.2048C159.313 83.9238 157.166 81.1263 154.225 79.4279C151.283 77.7295 147.787 77.2693 144.506 78.1484L70.2783 98.0377ZM78.3435 115.766C79.1637 115.546 79.8631 115.009 80.2877 114.274C80.7123 113.539 80.8273 112.665 80.6076 111.844C80.3878 111.024 79.8511 110.325 79.1157 109.9C78.3803 109.476 77.5063 109.36 76.686 109.58C75.8658 109.8 75.1664 110.337 74.7418 111.072C74.3172 111.808 74.2021 112.681 74.4219 113.502C74.6417 114.322 75.1783 115.021 75.9138 115.446C76.6492 115.871 77.5232 115.986 78.3435 115.766ZM90.7147 112.451C91.535 112.231 92.2344 111.695 92.659 110.959C93.0836 110.224 93.1986 109.35 92.9788 108.529C92.759 107.709 92.2224 107.01 91.487 106.585C90.7515 106.161 89.8776 106.046 89.0573 106.265C88.237 106.485 87.5377 107.022 87.1131 107.757C86.6885 108.493 86.5734 109.367 86.7932 110.187C87.013 111.007 87.5496 111.707 88.2851 112.131C89.0205 112.556 89.8945 112.671 90.7147 112.451Z" fill="#3E3C4B"/>
<circle cx="78.167" cy="112.767" r="4.15385" transform="rotate(-15 78.167 112.767)" fill="#E82F84"/>
<circle cx="90.2026" cy="109.542" r="4.15385" transform="rotate(-15 90.2026 109.542)" fill="#E82F84"/>
<circle cx="101.822" cy="106.428" r="4.15385" transform="rotate(-15 101.822 106.428)" fill="#E82F84"/>
<circle cx="123.786" cy="149.282" r="4.15385" transform="rotate(-15 123.786 149.282)" fill="#646675"/>
</g>
<rect x="280" y="277" width="12" height="11" rx="2" fill="#646675"/>
<defs>
<filter id="filter0_f_3774_27246" x="24" y="257" width="586" height="195" filterUnits="userSpaceOnUse" color-interpolation-filters="sRGB">
<feFlood flood-opacity="0" result="BackgroundImageFix"/>
<feBlend mode="normal" in="SourceGraphic" in2="BackgroundImageFix" result="shape"/>
<feGaussianBlur stdDeviation="27.5" result="effect1_foregroundBlur_3774_27246"/>
</filter>
<filter id="filter1_d_3774_27246" x="325.414" y="143.414" width="197.519" height="197.518" filterUnits="userSpaceOnUse" color-interpolation-filters="sRGB">
<feFlood flood-opacity="0" result="BackgroundImageFix"/>
<feColorMatrix in="SourceAlpha" type="matrix" values="0 0 0 0 0 0 0 0 0 0 0 0 0 0 0 0 0 0 127 0" result="hardAlpha"/>
<feOffset dx="7.17352" dy="7.17352"/>
<feGaussianBlur stdDeviation="17.9338"/>
<feComposite in2="hardAlpha" operator="out"/>
<feColorMatrix type="matrix" values="0 0 0 0 0 0 0 0 0 0 0 0 0 0 0 0 0 0 0.25 0"/>
<feBlend mode="normal" in2="BackgroundImageFix" result="effect1_dropShadow_3774_27246"/>
<feBlend mode="normal" in="SourceGraphic" in2="effect1_dropShadow_3774_27246" result="shape"/>
</filter>
<filter id="filter2_d_3774_27246" x="0.877373" y="8.87719" width="246.651" height="246.651" filterUnits="userSpaceOnUse" color-interpolation-filters="sRGB">
<feFlood flood-opacity="0" result="BackgroundImageFix"/>
<feColorMatrix in="SourceAlpha" type="matrix" values="0 0 0 0 0 0 0 0 0 0 0 0 0 0 0 0 0 0 127 0" result="hardAlpha"/>
<feOffset dx="7.17352" dy="7.17352"/>
<feGaussianBlur stdDeviation="17.9338"/>
<feComposite in2="hardAlpha" operator="out"/>
<feColorMatrix type="matrix" values="0 0 0 0 0 0 0 0 0 0 0 0 0 0 0 0 0 0 0.25 0"/>
<feBlend mode="normal" in2="BackgroundImageFix" result="effect1_dropShadow_3774_27246"/>
<feBlend mode="normal" in="SourceGraphic" in2="effect1_dropShadow_3774_27246" result="shape"/>
</filter>
<linearGradient id="paint0_linear_3774_27246" x1="317" y1="312" x2="317" y2="397" gradientUnits="userSpaceOnUse">
<stop stop-color="#2D1631"/>
<stop offset="0.0001" stop-color="#0D020D"/>
<stop offset="1" stop-color="#0D020D" stop-opacity="0"/>
</linearGradient>
<linearGradient id="paint1_linear_3774_27246" x1="415.971" y1="-61.0757" x2="217.543" y2="423.243" gradientUnits="userSpaceOnUse">
<stop stop-color="#18171E"/>
<stop offset="1" stop-color="#201E2F"/>
</linearGradient>
<clipPath id="clip0_3774_27246">
<rect width="593" height="428" fill="white" transform="translate(21)"/>
</clipPath>
<clipPath id="clip1_3774_27246">
<rect width="77.9943" height="77.9943" fill="white" transform="translate(385.367 189.823) rotate(10)"/>
</clipPath>
<clipPath id="clip2_3774_27246">
<rect width="102.462" height="102.462" fill="white" transform="translate(54.5916 88.9814) rotate(-15)"/>
</clipPath>
</defs>
</svg>
