<svg width="424" height="398" viewBox="0 0 424 398" fill="none" xmlns="http://www.w3.org/2000/svg">
<path d="M423.5 391.7H1.7998V397.5H423.5V391.7Z" fill="#87B2E3"/>
<path d="M62.7998 343.9C62.7998 343.9 62.0998 345.9 61.3998 348.5C60.6998 351 59.8998 354.1 59.7998 356.2L60.9998 356.3C61.0998 354.4 61.8998 351.3 62.5998 348.8C62.9998 347.5 63.2998 346.4 63.5998 345.6C63.8998 344.8 63.9998 344.3 63.9998 344.3L62.7998 343.9Z" fill="#0C1D2E"/>
<path d="M51.8994 344.901C51.8994 344.901 51.8994 345.101 51.9994 345.501C52.0994 346.601 52.2994 349.201 52.2994 352.101C52.2994 353.401 52.2994 354.801 52.0994 356.101L53.2994 356.201C53.3994 354.901 53.4994 353.401 53.4994 352.101C53.4994 348.201 53.0994 344.801 53.0994 344.801L51.8994 344.901Z" fill="#0C1D2E"/>
<path d="M45.8994 352.901C45.8994 353.001 46.1994 353.201 46.3994 353.701C46.5994 354.101 46.7994 354.701 46.7994 355.201H47.9994C47.9994 354.301 47.6994 353.601 47.3994 353.001C47.0994 352.501 46.7994 352.101 46.7994 352.101L45.8994 352.901Z" fill="#0C1D2E"/>
<path d="M61.2992 345.1C61.2992 345.1 55.0992 337.2 64.5992 320.8C74.1992 304.4 93.9992 300.4 94.8992 302.5C95.7992 304.6 84.8992 308.7 81.7992 321.4C78.7992 334 78.3992 341 74.4992 344.8C70.7992 348.6 65.6992 350.1 61.2992 345.1Z" fill="url(#paint0_linear_3290_8203)"/>
<path d="M61.2992 345.1C61.2992 345.1 55.0992 337.2 64.5992 320.8C74.1992 304.4 93.9992 300.4 94.8992 302.5C95.7992 304.6 84.8992 308.7 81.7992 321.4C78.7992 334 78.3992 341 74.4992 344.8C70.7992 348.6 65.6992 350.1 61.2992 345.1Z" fill="url(#paint1_linear_3290_8203)"/>
<path d="M48.4997 346.7C48.4997 346.7 47.7997 337.8 31.6997 332.8C15.5997 327.8 0.299693 337.1 0.999693 339.1C1.69969 341 11.2997 337.1 20.8997 343.5C30.4997 349.9 34.8997 354.2 39.6997 354.4C44.3997 354.7 48.6997 352.6 48.4997 346.7Z" fill="url(#paint2_linear_3290_8203)"/>
<path d="M58.1995 340.9C58.1995 340.9 68.8995 329.4 56.4995 310.9C43.9995 292.4 16.5995 291.1 15.6995 293.7C14.7995 296.3 26.4995 301.1 30.9995 315.6C35.4995 330.1 37.9995 337.4 42.6995 341.6C47.3995 345.7 53.4995 347.1 58.1995 340.9Z" fill="url(#paint3_linear_3290_8203)"/>
<path d="M58.1995 340.9C58.1995 340.9 68.8995 329.4 56.4995 310.9C43.9995 292.4 16.5995 291.1 15.6995 293.7C14.7995 296.3 26.4995 301.1 30.9995 315.6C35.4995 330.1 37.9995 337.4 42.6995 341.6C47.3995 345.7 53.4995 347.1 58.1995 340.9Z" fill="url(#paint4_linear_3290_8203)"/>
<path d="M63.8994 342.7C63.7994 342.7 63.7994 342.7 63.6994 342.7C63.3994 342.6 63.1995 342.3 63.2995 342C63.5995 341 70.2994 317.3 82.5994 308.2C82.8994 308 83.2994 308.1 83.4994 308.3C83.6994 308.6 83.5995 309 83.3995 309.2C71.3995 318 64.5994 342.1 64.4994 342.3C64.3994 342.5 64.0994 342.7 63.8994 342.7Z" fill="#E6E7E8" fill-opacity="0.15"/>
<path d="M51.4 339.701C51.1 339.701 50.9 339.501 50.8 339.201C50.8 339.101 50.8 339.001 50.7 338.501C50.1 330.201 46.6 302.501 24.3 296.601C24 296.501 23.8 296.201 23.9 295.901C24 295.601 24.3 295.401 24.6 295.501C47.7 301.501 51.4 329.901 51.9 338.501C51.9 338.701 51.9 338.901 51.9 338.901C52 339.201 51.8 339.501 51.5 339.601C51.5 339.701 51.5 339.701 51.4 339.701Z" fill="#E6E7E8" fill-opacity="0.15"/>
<path d="M43.8992 350.7C43.5992 350.7 43.3992 350.5 42.4992 349.6C32.4992 340.5 22.7992 336.2 13.7992 336.8C13.4992 336.8 13.1992 336.6 13.1992 336.2C13.1992 335.9 13.3992 335.6 13.7992 335.6C23.1992 335 33.0992 339.4 43.3992 348.7C43.7992 349 44.0992 349.4 44.2992 349.5C44.4992 349.6 44.5992 349.7 44.6992 349.9C44.7992 350.2 44.5992 350.6 44.2992 350.7C44.0992 350.7 43.9992 350.7 43.8992 350.7Z" fill="#E6E7E8" fill-opacity="0.15"/>
<path d="M68.8 391.999H37.4C36.6 391.999 35.9 391.499 35.7 390.699L27.5 355.199H78.6L70.4 390.699C70.3 391.399 69.6 391.999 68.8 391.999Z" fill="#BEE1F4"/>
<path d="M29.8996 365.5H76.2996L78.6996 355.2H27.5996L29.8996 365.5Z" fill="#7AABBC"/>
<path d="M27.9996 357.2H78.1996L78.6996 355.2H27.5996L27.9996 357.2Z" fill="#BEE1F4"/>
<path d="M348.791 37H172.302C165.56 37 162.189 37 160.095 39.0945C158 41.189 158 44.5601 158 51.3022V134.398C158 141.14 158 144.511 160.095 146.605C162.189 148.7 165.56 148.7 172.302 148.7H348.791C355.533 148.7 358.904 148.7 360.998 146.605C363.093 144.511 363.093 141.14 363.093 134.398V51.3022C363.093 44.5601 363.093 41.189 360.998 39.0945C358.904 37 355.533 37 348.791 37Z" fill="#221828"/>
<path d="M167.01 43.0067C167.01 44.1508 166.009 45.152 164.865 45.152C163.721 45.152 162.72 44.1508 162.72 43.0067C162.72 41.8625 163.721 40.8613 164.865 40.8613C166.152 40.8613 167.01 41.8625 167.01 43.0067Z" fill="#FF3D3D"/>
<path d="M176.165 43.0067C176.165 44.1508 175.164 45.152 174.019 45.152C172.875 45.152 171.874 44.1508 171.874 43.0067C171.874 41.8625 172.875 40.8613 174.019 40.8613C175.164 40.8613 176.165 41.8625 176.165 43.0067Z" fill="#FFE03D"/>
<path d="M184.46 43.2928C184.46 44.437 183.458 45.4381 182.314 45.4381C181.17 45.4381 180.169 44.437 180.169 43.2928C180.169 42.1486 181.17 41.1475 182.314 41.1475C183.601 41.1475 184.46 42.0056 184.46 43.2928Z" fill="#3DFF44"/>
<path d="M291.44 59.7402H180.027C179.632 59.7402 179.312 60.0604 179.312 60.4553C179.312 60.8503 179.632 61.1704 180.027 61.1704H291.44C291.835 61.1704 292.155 60.8503 292.155 60.4553C292.155 60.0604 291.835 59.7402 291.44 59.7402Z" fill="#241B2A"/>
<path d="M343.929 67.4629H185.175C184.78 67.4629 184.46 67.7831 184.46 68.178C184.46 68.5729 184.78 68.8931 185.175 68.8931H343.929C344.324 68.8931 344.644 68.5729 344.644 68.178C344.644 67.7831 344.324 67.4629 343.929 67.4629Z" fill="#241B2A"/>
<path d="M316.612 75.1865H194.328C193.933 75.1865 193.613 75.5067 193.613 75.9016C193.613 76.2966 193.933 76.6167 194.328 76.6167H316.612C317.007 76.6167 317.327 76.2966 317.327 75.9016C317.327 75.5067 317.007 75.1865 316.612 75.1865Z" fill="#241B2A"/>
<path d="M331.2 82.7666H203.339C202.944 82.7666 202.624 83.0868 202.624 83.4817C202.624 83.8767 202.944 84.1968 203.339 84.1968H331.2C331.595 84.1968 331.915 83.8767 331.915 83.4817C331.915 83.0868 331.595 82.7666 331.2 82.7666Z" fill="#241B2A"/>
<path d="M301.308 90.4902H215.495C215.1 90.4902 214.78 90.8104 214.78 91.2053C214.78 91.6003 215.1 91.9204 215.495 91.9204H301.308C301.703 91.9204 302.023 91.6003 302.023 91.2053C302.023 90.8104 301.703 90.4902 301.308 90.4902Z" fill="#241B2A"/>
<path d="M229.369 130.25H180.027C179.632 130.25 179.312 130.57 179.312 130.965C179.312 131.36 179.632 131.68 180.027 131.68H229.369C229.764 131.68 230.084 131.36 230.084 130.965C230.084 130.57 229.764 130.25 229.369 130.25Z" fill="#241B2A"/>
<path d="M307.458 122.67H185.175C184.78 122.67 184.46 122.99 184.46 123.385C184.46 123.78 184.78 124.1 185.175 124.1H307.458C307.853 124.1 308.174 123.78 308.174 123.385C308.174 122.99 307.853 122.67 307.458 122.67Z" fill="#241B2A"/>
<path d="M353.082 114.947H194.328C193.933 114.947 193.613 115.267 193.613 115.662C193.613 116.057 193.933 116.377 194.328 116.377H353.082C353.477 116.377 353.797 116.057 353.797 115.662C353.797 115.267 353.477 114.947 353.082 114.947Z" fill="#241B2A"/>
<path d="M289.152 107.224H203.339C202.944 107.224 202.624 107.544 202.624 107.939C202.624 108.334 202.944 108.654 203.339 108.654H289.152C289.547 108.654 289.867 108.334 289.867 107.939C289.867 107.544 289.547 107.224 289.152 107.224Z" fill="#241B2A"/>
<path d="M319.615 99.6436H215.495C215.1 99.6436 214.78 99.9637 214.78 100.359C214.78 100.754 215.1 101.074 215.495 101.074H319.615C320.01 101.074 320.33 100.754 320.33 100.359C320.33 99.9637 320.01 99.6436 319.615 99.6436Z" fill="#241B2A"/>
<path d="M168.154 59.3828C168.154 59.8962 168.571 60.3124 169.084 60.3124C169.597 60.3124 170.014 59.8962 170.014 59.3828C170.014 58.8693 169.597 58.4531 169.084 58.4531C168.571 58.4531 168.154 58.8693 168.154 59.3828Z" fill="#241B2A"/>
<path d="M170.014 124.314C170.014 124.828 169.597 125.244 169.084 125.244C168.571 125.244 168.154 124.828 168.154 124.314V122.455C168.154 121.942 168.571 121.525 169.084 121.525C169.597 121.525 170.014 121.942 170.014 122.455V124.314ZM170.014 115.018C170.014 115.531 169.597 115.948 169.084 115.948C168.571 115.948 168.154 115.531 168.154 115.018V113.159C168.154 112.645 168.571 112.229 169.084 112.229C169.597 112.229 170.014 112.645 170.014 113.159V115.018ZM170.014 105.722C170.014 106.235 169.597 106.651 169.084 106.651C168.571 106.651 168.154 106.235 168.154 105.722V103.862C168.154 103.349 168.571 102.933 169.084 102.933C169.597 102.933 170.014 103.349 170.014 103.862V105.722ZM170.014 96.4252C170.014 96.9386 169.597 97.3548 169.084 97.3548C168.571 97.3548 168.154 96.9386 168.154 96.4252V94.5659C168.154 94.0525 168.571 93.6363 169.084 93.6363C169.597 93.6363 170.014 94.0525 170.014 94.5659V96.4252ZM170.014 87.1288C170.014 87.6422 169.597 88.0584 169.084 88.0584C168.571 88.0584 168.154 87.6422 168.154 87.1288V85.2695C168.154 84.7561 168.571 84.3399 169.084 84.3399C169.597 84.3399 170.014 84.7561 170.014 85.2695V87.1288ZM170.014 77.8324C170.014 78.3458 169.597 78.762 169.084 78.762C168.571 78.762 168.154 78.3458 168.154 77.8324V75.9731C168.154 75.4597 168.571 75.0435 169.084 75.0435C169.597 75.0435 170.014 75.4597 170.014 75.9731V77.8324ZM170.014 68.536C170.014 69.0494 169.597 69.4656 169.084 69.4656C168.571 69.4656 168.154 69.0494 168.154 68.536V66.6767C168.154 66.1633 168.571 65.7471 169.084 65.7471C169.597 65.7471 170.014 66.1633 170.014 66.6767V68.536Z" fill="#241B2A"/>
<path d="M168.154 131.752C168.154 132.265 168.571 132.682 169.084 132.682C169.597 132.682 170.014 132.265 170.014 131.752C170.014 131.238 169.597 130.822 169.084 130.822C168.571 130.822 168.154 131.238 168.154 131.752Z" fill="#241B2A"/>
<path d="M287.768 230.259C287.417 230.901 286.744 231.3 286.013 231.3H220.449C219.372 231.3 218.499 230.427 218.499 229.35C218.499 228.273 219.372 227.4 220.449 227.4H283.713C284.444 227.4 285.117 227.001 285.468 226.359L315.856 170.725C316.376 169.775 317.57 169.431 318.515 169.959C319.448 170.48 319.786 171.655 319.274 172.593L287.768 230.259Z" fill="#58768D"/>
<path d="M177.2 107.3C177.2 107.3 176.3 113.4 172.6 119C168.9 124.6 160.7 132.9 158.4 133.7C157.5 134 154.2 132.5 150.6 130.6C149.4 130 148.2 129.3 147.1 128.7C143 126.4 139.4 124.2 139.4 124.2L134 116.5C136.2 105.4 140.1 96.9998 146.2 89.0998C152.2 81.1998 165.8 85.8997 170.7 89.6997C175.6 93.5997 178.3 99.4998 177.2 107.3Z" fill="url(#paint5_radial_3290_8203)"/>
<path d="M146.899 108.3C146.699 113.3 149.999 115.2 150.699 116C151.399 116.8 146.899 121.4 144.999 119.4C142.999 117.3 146.899 108.3 146.899 108.3Z" fill="#EFA78B"/>
<path d="M270.299 358.9L272.699 370.6L256.599 373.4L252.899 360L270.299 358.9Z" fill="#FFC8AF"/>
<path d="M303.6 376.101L304.6 382.001L253.6 391.101L252.6 385.301C252.6 385.301 297.8 376.701 302.8 376.301L303.6 376.101Z" fill="#F9FBFC"/>
<path d="M281.899 369.1C281.999 369 281.999 368.8 281.999 368.7C282.999 369.1 284.099 369.5 285.199 369.9L281.599 374.9C281.299 375.3 281.399 375.9 281.799 376.1C281.999 376.2 282.199 376.3 282.499 376.2C282.699 376.2 282.899 376 282.999 375.8L286.699 370.6C286.799 370.5 286.799 370.4 286.799 370.3C293.699 372.9 300.799 375.5 302.599 375.9C297.699 376.3 252.399 384.9 252.399 384.9L253.999 371.4C254.099 370.8 254.599 370.4 255.199 370.6C267.199 372.9 271.299 367.7 272.499 365.7C272.699 365.3 273.299 365.1 273.699 365.3C274.199 365.5 274.999 365.8 275.899 366.2L272.299 371.1C271.999 371.5 272.099 372 272.499 372.3C272.699 372.4 272.999 372.5 273.199 372.5C273.399 372.5 273.599 372.3 273.799 372.1L277.499 366.9L277.599 366.8C278.399 367.1 279.399 367.5 280.299 367.9L276.599 373.1C276.299 373.5 276.399 374 276.799 374.3C276.999 374.4 277.199 374.5 277.499 374.5C277.699 374.5 277.899 374.3 277.999 374.1L281.899 369.1Z" fill="url(#paint6_linear_3290_8203)"/>
<path d="M282.999 376.001C282.899 376.201 282.699 376.301 282.499 376.401C282.299 376.401 281.999 376.401 281.799 376.301C281.399 376.001 281.299 375.501 281.599 375.101L285.199 370.101C285.799 370.301 286.299 370.501 286.899 370.701C286.899 370.801 286.899 370.901 286.799 371.001L282.999 376.001Z" fill="#F9FBFC"/>
<path d="M280.399 368.101C280.899 368.301 281.399 368.501 281.999 368.701C281.999 368.801 281.899 369.001 281.899 369.101L278.199 374.301C278.099 374.501 277.899 374.601 277.699 374.701C277.499 374.701 277.199 374.701 276.999 374.501C276.599 374.201 276.499 373.701 276.799 373.301L280.399 368.101Z" fill="#F9FBFC"/>
<path d="M273.899 372.4C273.799 372.6 273.499 372.7 273.299 372.8C273.099 372.8 272.799 372.8 272.599 372.6C272.199 372.3 272.099 371.8 272.399 371.4L275.999 366.5C276.499 366.7 277.099 366.9 277.699 367.2C277.699 367.3 277.699 367.3 277.599 367.3L273.899 372.4Z" fill="#F9FBFC"/>
<path d="M182.9 283.5C172.4 284 158.5 284.8 140.3 285.5C89.2999 287.4 99.6999 238.1 99.6999 238.1L148.4 237.5C148.4 237.5 220.9 236.4 236.1 246.2C251.4 255.9 273.6 358.8 273.6 358.8L249.3 365.6C249.3 365.6 229.6 323.3 218.1 300.8C213.4 291.5 210 284.7 209.7 284C209.2 282.2 201.7 282.5 182.9 283.5Z" fill="#243C55"/>
<path d="M149.999 237.4C148.999 237.4 148.399 237.4 148.399 237.4L99.6993 238C99.6993 238 93.8993 265.7 112.399 278.8C130.799 274.3 141.799 255.7 151.499 238.9L149.999 237.4Z" fill="#0A2033"/>
<path d="M218.3 300.7L214.3 361.7L209.9 361.8V359.3H192.5V362.3L187.7 362.4L183 283.6C201.8 282.6 209.3 282.3 209.9 284C210.1 284.6 213.5 291.4 218.3 300.7Z" fill="#0D2A43"/>
<path d="M210 362V375H192V362.468L210 362Z" fill="#FFC8AF"/>
<path d="M209.799 359.3V361.8L192.399 362.2V359.3H209.799Z" fill="#0D2A43"/>
<path d="M238.5 387V391.723L187.499 391.697V386.574C187.499 386.574 232.7 386.1 237.7 386.5L238.5 387Z" fill="#F9FBFC"/>
<path d="M219.199 375.874C219.299 375.774 219.399 375.674 219.399 375.474C220.299 376.074 221.299 376.674 222.299 377.274L217.899 381.574C217.499 381.874 217.499 382.474 217.899 382.874C218.099 383.074 218.299 383.174 218.499 383.174C218.699 383.174 218.899 383.074 219.099 382.974L223.699 378.574C223.799 378.474 223.799 378.474 223.799 378.374C230.099 382.174 237 385.5 238.5 387C233.6 386.6 187.399 386.774 187.399 386.774L191.399 373.774C191.599 373.174 192.199 372.974 192.699 373.174C204.099 377.574 209.099 373.174 210.599 371.374C210.899 370.974 211.399 370.874 211.899 371.174C212.399 371.474 213.099 371.874 213.899 372.374L209.499 376.574C209.099 376.874 209.099 377.474 209.499 377.774C209.699 377.974 209.899 378.074 210.099 378.074C210.299 378.074 210.499 377.974 210.699 377.774L215.299 373.374L215.399 373.274C216.199 373.774 216.999 374.274 217.899 374.774L213.299 379.174C212.899 379.474 212.899 380.074 213.299 380.374C213.499 380.574 213.699 380.674 213.899 380.674C214.099 380.674 214.299 380.574 214.499 380.374L219.199 375.874Z" fill="url(#paint7_linear_3290_8203)"/>
<path d="M219.1 382.874C218.9 383.074 218.7 383.074 218.5 383.074C218.3 383.074 218 382.974 217.9 382.774C217.6 382.374 217.6 381.874 217.9 381.474L222.3 377.174C222.8 377.474 223.3 377.774 223.8 378.074C223.8 378.174 223.7 378.274 223.7 378.274L219.1 382.874Z" fill="#F9FBFC"/>
<path d="M217.999 374.674C218.499 374.974 218.999 375.274 219.499 375.574C219.499 375.674 219.399 375.874 219.299 375.974L214.699 380.374C214.499 380.574 214.299 380.674 214.099 380.674C213.899 380.674 213.599 380.574 213.499 380.374C213.099 379.974 213.199 379.474 213.499 379.174L217.999 374.674Z" fill="#F9FBFC"/>
<path d="M210.799 377.674C210.599 377.874 210.399 377.974 210.199 377.974C209.999 377.974 209.699 377.874 209.599 377.674C209.299 377.274 209.299 376.774 209.599 376.474L213.999 372.274C214.499 372.574 214.999 372.874 215.499 373.174C215.499 373.274 215.399 373.274 215.399 373.274L210.799 377.674Z" fill="#F9FBFC"/>
<path d="M238.099 223.8H209.299C209.299 223.8 165.899 216.8 157.499 211.6C154.399 209.7 148.999 203.8 143.399 197.1L162.999 180.8C166.399 186.2 169.599 190.7 170.799 191.2C174.199 192.5 206.499 210.5 210.299 210.5C214.099 210.4 231.899 210.1 238.099 223.8Z" fill="#EFA78B"/>
<path d="M164.4 180.3L143.5 197C134 185.6 124.1 172 124.1 172L153.8 154.1C153.7 154.2 161.3 172.3 164.4 180.3Z" fill="url(#paint8_linear_3290_8203)"/>
<path d="M146.5 139.3L125.1 130.9C125.1 130.9 99.4998 133.9 97.7998 195.5C97.4998 207.4 97.5998 273.1 101.2 274.8C115.7 281.5 152.9 237.4 152.9 237.4C153.6 236 152.6 221.8 152.9 220.4C152 220.1 151.3 219.7 150.7 219.4C146.9 217.2 139.8 207.7 132.8 197.6L154.9 180.4C155.8 181.8 156.7 183.1 157.5 184.4C157.9 151.5 146.5 139.3 146.5 139.3Z" fill="url(#paint9_linear_3290_8203)"/>
<path d="M152.7 220.4C151.8 220.1 151.1 219.7 150.5 219.4C146.7 217.2 139.6 207.7 132.6 197.6L143.4 189.2L132.6 173L113.1 160.2V169C113.1 169 121.5 191.7 131.4 209.6C136.8 219.3 145.7 224 152.8 226.4C152.7 223.5 152.6 220.9 152.7 220.4Z" fill="#3030EF"/>
<path d="M215.7 216.9C215.7 216.9 170.4 198.4 167.3 197.7C166.3 197.5 163 192.9 158.9 186.7C158 185.4 155.6 181.7 154.8 180.3L132.7 197.5C139.7 207.7 146.8 217.1 150.6 219.3C151.2 219.6 151.9 220 152.8 220.3V220.2V220.3C166 225.2 213.4 227.5 214.3 227.8C216 229.1 220 229.2 223.6 228.2C225.3 227.7 226.9 227.1 228.1 226.1C231.3 223.7 236 227.1 238.1 228.7C239.5 229.7 242.7 229.7 243.8 228.6C241.4 215.1 215.7 216.9 215.7 216.9Z" fill="url(#paint10_radial_3290_8203)"/>
<path d="M151.4 129.3L150.7 130.6L149.3 133.4L149.1 133.9L146.5 139.2L125 130.8L134 116.6L148.2 127L151.4 129.3Z" fill="url(#paint11_radial_3290_8203)"/>
<path d="M113.1 169.1L135.5 203.5L161.1 188.8C161.1 188.8 154.1 162 147.4 147.3C143.2 138.1 131.1 133.6 119.4 140.9C109.1 147.2 109.4 162.2 113.1 169.1Z" fill="url(#paint12_linear_3290_8203)"/>
<path d="M155.3 107.2C154.5 103.5 151.1 100 148 105C147.2 106.2 147 107.7 146.8 109.2C146.3 114.4 140.2 116.7 135.7 117C135 117.1 134.2 117.1 133.5 116.9C133.5 116.9 134.6 108.3 137.2 98C139.8 87.7 145.5 77.2 153.8 81.4C153.8 81.4 161.4 77.8 166.1 83.7C166.1 83.7 174 80.9 178.1 87.2C178.1 87.2 189.2 89.3 191.2 96.2C193.8 104.9 181.6 107.1 177.5 104.6C173.4 102.1 170.3 97.4 167.5 97.5C164.7 97.6 165.3 101.9 164.9 104.6C164.5 107.3 160.3 104.5 158.6 108.1C156.8 111.7 156 113.7 154.9 113.1C153.8 112.6 155.3 107.2 155.3 107.2Z" fill="url(#paint13_linear_3290_8203)"/>
<path d="M153.799 108.1C154.099 106.8 153.299 104.9 152.099 104.8C150.599 104.7 149.899 106.5 149.799 108.1C149.699 109.6 150.099 112.1 151.799 111.6C153.099 111.2 151.699 109.7 152.099 108.8C152.599 108 153.799 109.6 153.799 108.1Z" fill="#EFA78B"/>
<path d="M150.699 130.6L149.299 133.4C144.799 130.2 144.999 125.3 144.999 125.3C144.999 125.3 146.299 128.1 150.699 130.6Z" fill="#EFA78B"/>
<path d="M69.6992 180.4C69.6992 180.6 69.6992 180.6 69.6992 180.7C69.6992 180.9 69.6992 181 69.6992 181.1C69.7992 181.5 69.8992 182.2 69.9992 183.2C71.1992 191 75.2992 217.6 79.1992 242.4C83.0992 267.1 86.6992 289.9 86.6992 289.9L94.3992 288.7C94.3992 288.7 94.0992 287 93.6992 284.1C92.0992 273.8 87.9992 247.9 84.3992 224.5C82.5992 212.8 80.7992 201.7 79.5992 193.5C78.9992 189.4 78.3992 186 78.0992 183.6C77.8992 182.4 77.7992 181.5 77.6992 180.8C77.6992 180.5 77.5992 180.2 77.5992 180.1V179.9L75.2992 180.2L77.5992 180V179.9L75.2992 180.2L77.5992 180L73.9992 180.3H77.5992C77.5992 180.1 77.5992 180 77.5992 180L73.9992 180.3H77.5992H69.6992V180.4Z" fill="#091623"/>
<path d="M138.6 300.399H148V391.099C148 391.999 147.3 392.699 146.4 392.699H140.2C139.3 392.699 138.6 391.999 138.6 391.099V300.399Z" fill="#091623"/>
<path d="M138.6 370.1H148V391.1C148 392 147.3 392.7 146.4 392.7H140.2C139.3 392.7 138.6 392 138.6 391.1V370.1Z" fill="#04080D"/>
<path d="M117.3 301.699H169.2V303.199C169.2 306.699 166.4 309.499 162.9 309.499H123.6C120.1 309.499 117.3 306.699 117.3 303.199V301.699Z" fill="#0A141E"/>
<path d="M93.1998 302H193.5C197.6 302 200.9 298.7 200.9 294.6V291C200.9 286.9 197.6 283.6 193.5 283.6H93.1998C89.0998 283.6 85.7998 286.9 85.7998 291V294.6C85.7998 298.7 89.0998 302 93.1998 302Z" fill="url(#paint14_linear_3290_8203)"/>
<path d="M94.2998 387.199C94.2998 390.299 96.7998 392.699 99.7998 392.699C102.9 392.699 105.3 390.199 105.3 387.199C105.3 384.099 102.8 381.699 99.7998 381.699C96.7998 381.699 94.2998 384.099 94.2998 387.199Z" fill="#04080D"/>
<path d="M186.8 392.699C189.837 392.699 192.3 390.237 192.3 387.199C192.3 384.162 189.837 381.699 186.8 381.699C183.762 381.699 181.3 384.162 181.3 387.199C181.3 390.237 183.762 392.699 186.8 392.699Z" fill="#04080D"/>
<path d="M133.799 379.647H152.799V363.047H133.799V379.647Z" fill="#0A141E"/>
<path d="M94.3002 383.5H192.3V381.4C192.3 378.2 189.7 375.6 186.5 375.6H100C96.8002 375.6 94.2002 378.2 94.2002 381.4V383.5H94.3002Z" fill="url(#paint15_linear_3290_8203)"/>
<path d="M67.2995 186.8L71.4995 217.6C72.0995 222 76.0995 225.1 80.4995 224.5C84.8995 223.9 87.9995 219.9 87.3995 215.5L83.1995 184.7C82.5995 180.3 78.5995 177.2 74.1995 177.8C69.7995 178.4 66.7995 182.4 67.2995 186.8Z" fill="url(#paint16_linear_3290_8203)"/>
<path d="M350 240.5H341.6V391.7H350V240.5Z" fill="#BC8867"/>
<path d="M222.7 240.5H214.3V391.7H222.7V240.5Z" fill="#BC8867"/>
<path d="M358.399 231.1H207.899V241.7H358.399V231.1Z" fill="#F9FBFC"/>
<path d="M145 0H122C117.286 0 114.929 0 113.464 1.46447C112 2.92893 112 5.28595 112 10V17C112 21.714 112 24.0711 113.464 25.5355C114.929 27 117.286 27 122 27H145C149.714 27 152.071 27 153.536 25.5355C155 24.0711 155 21.714 155 17V10C155 5.28595 155 2.92893 153.536 1.46447C152.071 0 149.714 0 145 0Z" fill="#E82F84"/>
<path d="M127.89 9.88356L128.567 11.4164L123.388 13.6269L128.567 15.8052L127.89 17.3703L121.678 14.5951V12.675L127.89 9.88356ZM134.421 5.89814L136.196 6.30152L132.436 20.7426L130.645 20.3231L134.421 5.89814ZM138.963 9.88356L145.175 12.675V14.5951L138.963 17.3703L138.286 15.8052L143.449 13.6269L138.286 11.4164L138.963 9.88356Z" fill="#F9FBFC"/>
<path d="M98 54H76C71.286 54 68.9289 54 67.4645 55.4645C66 56.9289 66 59.286 66 64V72C66 76.714 66 79.0711 67.4645 80.5355C68.9289 82 71.286 82 76 82H98C102.714 82 105.071 82 106.536 80.5355C108 79.0711 108 76.714 108 72V64C108 59.286 108 56.9289 106.536 55.4645C105.071 54 102.714 54 98 54Z" fill="#FBD15B"/>
<path d="M78.7074 61.0122C76.4145 63.9016 76.4145 68.1859 78.807 71.0753C81.4986 74.3633 86.1839 74.8615 89.4736 72.6695L94.6573 77.8505C94.8567 78.0498 95.2555 78.0498 95.4549 77.8505L96.8505 76.4557C97.0498 76.2564 97.0498 75.8578 96.8505 75.6586L91.6667 70.4775C93.7602 67.3888 93.4611 63.1045 90.6698 60.3147C87.2805 57.0268 81.698 57.226 78.7074 61.0122ZM88.9752 70.079C86.782 72.271 83.1933 72.271 80.9005 70.079C78.7073 67.887 78.7073 64.3001 80.9005 62.0085C83.0936 59.8166 86.6824 59.8166 88.9752 62.0085C91.268 64.2005 91.268 67.887 88.9752 70.079Z" fill="#F9FBFC"/>
<path d="M374 23H352C347.286 23 344.929 23 343.464 24.4645C342 25.9289 342 28.286 342 33V40C342 44.714 342 47.0711 343.464 48.5355C344.929 50 347.286 50 352 50H374C378.714 50 381.071 50 382.536 48.5355C384 47.0711 384 44.714 384 40V33C384 28.286 384 25.9289 382.536 24.4645C381.071 23 378.714 23 374 23Z" fill="url(#paint17_linear_3290_8203)"/>
<path d="M359.543 28.6409C358.94 28.6409 358.517 28.7372 358.273 28.9296C358.042 29.1093 357.927 29.4237 357.927 29.8728V33.9149C357.927 34.6592 357.785 35.1981 357.503 35.5317C357.221 35.8654 356.778 36.1156 356.175 36.2824C356.778 36.4364 357.221 36.6802 357.503 37.0138C357.785 37.3475 357.927 37.88 357.927 38.6114V42.6535C357.927 43.1027 358.049 43.417 358.292 43.5967C358.536 43.7892 358.953 43.8854 359.543 43.8854V45.6562C358.543 45.6562 357.753 45.5472 357.176 45.329C356.611 45.1109 356.207 44.7837 355.963 44.3474C355.732 43.9111 355.617 43.34 355.617 42.6343V38.8039C355.617 38.2393 355.521 37.8479 355.328 37.6298C355.148 37.3988 354.815 37.2833 354.327 37.2833V35.2623C354.815 35.2623 355.148 35.1468 355.328 34.9158C355.521 34.6848 355.617 34.287 355.617 33.7224V29.892C355.617 29.1734 355.732 28.596 355.963 28.1597C356.207 27.7234 356.611 27.4026 357.176 27.1973C357.741 26.9792 358.53 26.8701 359.543 26.8701V28.6409ZM365.708 26.8701C366.721 26.8701 367.51 26.9792 368.075 27.1973C368.64 27.4026 369.037 27.7234 369.268 28.1597C369.512 28.596 369.634 29.1734 369.634 29.892V33.7224C369.634 34.287 369.724 34.6848 369.904 34.9158C370.096 35.1468 370.443 35.2623 370.943 35.2623V37.2833C370.443 37.2833 370.096 37.3988 369.904 37.6298C369.724 37.8479 369.634 38.2393 369.634 38.8039V42.6343C369.634 43.34 369.512 43.9111 369.268 44.3474C369.037 44.7837 368.633 45.1109 368.056 45.329C367.491 45.5472 366.708 45.6562 365.708 45.6562V43.8854C366.298 43.8854 366.715 43.7892 366.959 43.5967C367.202 43.417 367.324 43.1027 367.324 42.6535V38.6114C367.324 37.88 367.465 37.3475 367.748 37.0138C368.03 36.6802 368.473 36.4364 369.076 36.2824C368.473 36.1156 368.03 35.8654 367.748 35.5317C367.465 35.1981 367.324 34.6592 367.324 33.9149V29.8728C367.324 29.4237 367.202 29.1093 366.959 28.9296C366.728 28.7372 366.311 28.6409 365.708 28.6409V26.8701Z" fill="#F1F2F2"/>
<defs>
<linearGradient id="paint0_linear_3290_8203" x1="77.1868" y1="301.973" x2="77.1868" y2="348.305" gradientUnits="userSpaceOnUse">
<stop stop-color="#7978E0"/>
<stop offset="1" stop-color="#563FDA"/>
</linearGradient>
<linearGradient id="paint1_linear_3290_8203" x1="77.1362" y1="302.136" x2="77.1362" y2="348.422" gradientUnits="userSpaceOnUse">
<stop stop-color="#9FF1A7"/>
<stop offset="1" stop-color="#5DDE90"/>
</linearGradient>
<linearGradient id="paint2_linear_3290_8203" x1="24.7475" y1="331.417" x2="24.7475" y2="354.497" gradientUnits="userSpaceOnUse">
<stop stop-color="#78E082"/>
<stop offset="1" stop-color="#3FDABE"/>
</linearGradient>
<linearGradient id="paint3_linear_3290_8203" x1="39.035" y1="292.684" x2="39.035" y2="345.094" gradientUnits="userSpaceOnUse">
<stop stop-color="#7978E0"/>
<stop offset="1" stop-color="#563FDA"/>
</linearGradient>
<linearGradient id="paint4_linear_3290_8203" x1="39.0755" y1="292.856" x2="39.0755" y2="345.273" gradientUnits="userSpaceOnUse">
<stop stop-color="#78E082"/>
<stop offset="1" stop-color="#36D275"/>
</linearGradient>
<radialGradient id="paint5_radial_3290_8203" cx="0" cy="0" r="1" gradientUnits="userSpaceOnUse" gradientTransform="translate(153.811 115.969) scale(33.9585 33.9585)">
<stop stop-color="#FFC8AF"/>
<stop offset="1" stop-color="#FFBB9C"/>
</radialGradient>
<linearGradient id="paint6_linear_3290_8203" x1="267.676" y1="363.464" x2="281.937" y2="388.164" gradientUnits="userSpaceOnUse">
<stop stop-color="#7978E0"/>
<stop offset="1" stop-color="#563FDA"/>
</linearGradient>
<linearGradient id="paint7_linear_3290_8203" x1="201.861" y1="367.272" x2="219.334" y2="397.536" gradientUnits="userSpaceOnUse">
<stop stop-color="#7978E0"/>
<stop offset="1" stop-color="#563FDA"/>
</linearGradient>
<linearGradient id="paint8_linear_3290_8203" x1="124.047" y1="175.627" x2="164.37" y2="175.627" gradientUnits="userSpaceOnUse">
<stop stop-color="#606BF1"/>
<stop offset="1" stop-color="#433AFF"/>
</linearGradient>
<linearGradient id="paint9_linear_3290_8203" x1="90.8003" y1="149.642" x2="149.785" y2="251.807" gradientUnits="userSpaceOnUse">
<stop stop-color="#606BF1"/>
<stop offset="1" stop-color="#433AFF"/>
</linearGradient>
<radialGradient id="paint10_radial_3290_8203" cx="0" cy="0" r="1" gradientUnits="userSpaceOnUse" gradientTransform="translate(188.226 204.97) scale(42.9885 42.9885)">
<stop stop-color="#FFC8AF"/>
<stop offset="1" stop-color="#FFBB9C"/>
</radialGradient>
<radialGradient id="paint11_radial_3290_8203" cx="0" cy="0" r="1" gradientUnits="userSpaceOnUse" gradientTransform="translate(153.816 115.97) scale(33.9478 33.9478)">
<stop stop-color="#FFC8AF"/>
<stop offset="1" stop-color="#FFBB9C"/>
</radialGradient>
<linearGradient id="paint12_linear_3290_8203" x1="135.89" y1="137.209" x2="135.89" y2="203.416" gradientUnits="userSpaceOnUse">
<stop stop-color="#606BF1"/>
<stop offset="1" stop-color="#433AFF"/>
</linearGradient>
<linearGradient id="paint13_linear_3290_8203" x1="168.5" y1="47.5" x2="154.5" y2="95.5" gradientUnits="userSpaceOnUse">
<stop stop-color="#56549E"/>
<stop offset="0.9898" stop-color="#2E2C71"/>
</linearGradient>
<linearGradient id="paint14_linear_3290_8203" x1="126.283" y1="263.304" x2="160.316" y2="322.25" gradientUnits="userSpaceOnUse">
<stop stop-color="#EC827D"/>
<stop offset="1" stop-color="#FF5A7D"/>
</linearGradient>
<linearGradient id="paint15_linear_3290_8203" x1="129.496" y1="357.821" x2="156.333" y2="404.305" gradientUnits="userSpaceOnUse">
<stop stop-color="#EC827D"/>
<stop offset="1" stop-color="#FF5A7D"/>
</linearGradient>
<linearGradient id="paint16_linear_3290_8203" x1="66.1701" y1="181.748" x2="88.6046" y2="220.605" gradientUnits="userSpaceOnUse">
<stop stop-color="#EC827D"/>
<stop offset="1" stop-color="#FF5A7D"/>
</linearGradient>
<linearGradient id="paint17_linear_3290_8203" x1="342" y1="36.5" x2="384" y2="36.5" gradientUnits="userSpaceOnUse">
<stop stop-color="#2360FE"/>
<stop offset="1" stop-color="#2353FE"/>
</linearGradient>
</defs>
</svg>
