<svg width="453" height="238" viewBox="0 0 453 238" fill="none" xmlns="http://www.w3.org/2000/svg">
<path d="M378.77 214.556H63.4614C60.1135 214.556 57.4004 211.834 57.4004 208.476V9.07977C57.4004 5.72154 60.1135 3 63.4614 3H378.77C382.118 3 384.831 5.72154 384.831 9.07977V208.464C384.831 211.834 382.118 214.556 378.77 214.556Z" fill="#2D1E37"/>
<path d="M379.389 214.556H64.0805C60.7327 214.556 58.0195 211.834 58.0195 208.476V9.07977C58.0195 5.72154 60.7327 3 64.0805 3H379.389C382.737 3 385.45 5.72154 385.45 9.07977V208.464C385.45 211.834 382.737 214.556 379.389 214.556Z" fill="#25192E"/>
<path d="M58.0195 43.2246V209.326C58.0195 212.21 60.3593 214.557 63.2342 214.557H380.236C383.111 214.557 385.45 212.21 385.45 209.326V43.2246H58.0195Z" fill="#1D1324"/>
<g filter="url(#filter0_d_4049_15318)">
<path d="M299.422 185.579V66.1056C299.422 64.9946 300.318 64.0957 301.426 64.0957H383.405C384.512 64.0957 385.408 64.9946 385.408 66.1056V185.566C385.408 186.677 384.512 187.576 383.405 187.576H301.426C300.318 187.589 299.422 186.69 299.422 185.579Z" fill="#25192E"/>
</g>
<path d="M371.794 142.446H313.051C311.819 142.446 310.836 141.448 310.836 140.224C310.836 138.988 311.832 138.002 313.051 138.002H371.794C373.027 138.002 374.01 139.001 374.01 140.224C374.01 141.448 373.027 142.446 371.794 142.446Z" fill="#392944"/>
<path d="M338.653 176.339H313.04C311.807 176.339 310.824 175.34 310.824 174.117C310.824 172.881 311.82 171.895 313.04 171.895H338.653C339.885 171.895 340.868 172.893 340.868 174.117C340.88 175.34 339.885 176.339 338.653 176.339Z" fill="#392944"/>
<path d="M371.794 153.745H313.051C311.819 153.745 310.836 152.746 310.836 151.523C310.836 150.287 311.832 149.301 313.051 149.301H371.794C373.027 149.301 374.01 150.3 374.01 151.523C374.01 152.746 373.027 153.745 371.794 153.745Z" fill="#392944"/>
<path d="M371.794 165.042H313.051C311.819 165.042 310.836 164.043 310.836 162.82C310.836 161.584 311.832 160.598 313.051 160.598H371.794C373.027 160.598 374.01 161.596 374.01 162.82C374.01 164.043 373.027 165.042 371.794 165.042Z" fill="#392944"/>
<path opacity="0.65" d="M305.371 71.3377C306.519 71.3377 307.45 70.4043 307.45 69.2528C307.45 68.1014 306.519 67.168 305.371 67.168C304.223 67.168 303.293 68.1014 303.293 69.2528C303.293 70.4043 304.223 71.3377 305.371 71.3377Z" fill="#FF0000"/>
<path opacity="0.65" d="M313.684 71.3377C314.832 71.3377 315.762 70.4043 315.762 69.2528C315.762 68.1014 314.832 67.168 313.684 67.168C312.536 67.168 311.605 68.1014 311.605 69.2528C311.605 70.4043 312.536 71.3377 313.684 71.3377Z" fill="#FF9900"/>
<path opacity="0.65" d="M324.067 69.2528C324.067 70.4014 323.133 71.3377 321.988 71.3377C320.844 71.3377 319.91 70.4014 319.91 69.2528C319.91 68.1043 320.844 67.168 321.988 67.168C323.133 67.168 324.067 68.1043 324.067 69.2528Z" fill="#00FF0A"/>
<path d="M379.517 74.7441H305.334C304.229 74.7441 303.334 75.6396 303.334 76.7441V126.875C303.334 127.98 304.229 128.875 305.334 128.875H379.517C380.622 128.875 381.517 127.98 381.517 126.875V76.7441C381.517 75.6396 380.622 74.7441 379.517 74.7441Z" fill="#271B31"/>
<path d="M354.994 118.102L353.7 116.741L320.035 81.2363L303.32 98.8639L303.358 128.888L381.553 128.851L381.528 114.382L370.016 102.247L354.994 118.102Z" fill="#392944"/>
<path d="M354.532 101.737C359.069 101.737 362.747 98.0479 362.747 93.4973C362.747 88.9468 359.069 85.2578 354.532 85.2578C349.996 85.2578 346.318 88.9468 346.318 93.4973C346.318 98.0479 349.996 101.737 354.532 101.737Z" fill="#392944"/>
<path d="M72.3086 28.6918C72.3086 25.4834 74.8973 22.8867 78.0958 22.8867H365.365C368.563 22.8867 371.152 25.4834 371.152 28.6918C371.152 31.9003 368.563 34.497 365.365 34.497H78.0958C74.8973 34.497 72.3086 31.9003 72.3086 28.6918Z" fill="#271B31"/>
<path opacity="0.65" d="M77.2517 13.312C77.2517 14.7726 76.0694 15.9461 74.6258 15.9461C73.1698 15.9461 72 14.7601 72 13.312C72 11.8513 73.1822 10.6778 74.6258 10.6778C76.0694 10.6653 77.2517 11.8513 77.2517 13.312Z" fill="#FF0000"/>
<path opacity="0.65" d="M87.7575 13.312C87.7575 14.7726 86.5753 15.9461 85.1317 15.9461C83.6756 15.9461 82.5059 14.7601 82.5059 13.312C82.5059 11.8513 83.6881 10.6778 85.1317 10.6778C86.5753 10.6653 87.7575 11.8513 87.7575 13.312Z" fill="#FF9900"/>
<path opacity="0.65" d="M98.2634 13.312C98.2634 14.7726 97.0811 15.9461 95.6375 15.9461C94.1815 15.9461 93.0117 14.7601 93.0117 13.312C93.0117 11.8513 94.1939 10.6778 95.6375 10.6778C97.0811 10.6653 98.2634 11.8513 98.2634 13.312Z" fill="#00FF0A"/>
<path d="M220.662 30.3403H96.6787C95.7702 30.3403 95.0234 29.6038 95.0234 28.6799C95.0234 27.7686 95.7577 27.0195 96.6787 27.0195H220.662C221.57 27.0195 222.317 27.7561 222.317 28.6799C222.304 29.6038 221.57 30.3403 220.662 30.3403Z" fill="#392944"/>
<path d="M282.426 30.3403H232.308C231.399 30.3403 230.652 29.6038 230.652 28.6799C230.652 27.7686 231.387 27.0195 232.308 27.0195H282.426C283.334 27.0195 284.081 27.7561 284.081 28.6799C284.069 29.6038 283.334 30.3403 282.426 30.3403Z" fill="#392944"/>
<g filter="url(#filter1_d_4049_15318)">
<path d="M168.568 188.139H49.6509C48.1823 188.139 47 186.953 47 185.48V66.1943C47 64.7211 48.1823 63.5352 49.6509 63.5352H168.568C170.037 63.5352 171.219 64.7211 171.219 66.1943V185.48C171.219 186.953 170.037 188.139 168.568 188.139Z" fill="#25192E"/>
</g>
<path d="M51.2156 65.8315C50.1107 65.8322 49.2157 66.7286 49.2168 67.8334L49.2751 126.892C49.2762 127.996 50.1713 128.89 51.2751 128.89H166.941C168.046 128.89 168.941 127.995 168.941 126.89V67.7591C168.941 66.654 168.045 65.7584 166.94 65.7591L51.2156 65.8315Z" fill="#271B31"/>
<path d="M126.436 95.8577C126.436 94.3346 125.204 93.0987 123.686 93.0987H113.791C115.26 90.8016 116.044 88.13 116.044 85.396V84.0477C116.044 82.0378 114.414 80.4023 112.41 80.4023C111.439 80.4023 110.655 81.1888 110.655 82.1626V85.2961L102.74 95.6829C102.59 95.8702 102.516 96.1074 102.516 96.3321V112.661C102.516 113.261 103.001 113.735 103.586 113.735H121.869C123.163 113.735 124.221 112.686 124.221 111.375C124.221 110.077 123.175 109.016 121.869 109.016H122.752C124.158 109.016 125.291 107.867 125.291 106.457C125.291 105.046 124.146 103.91 122.752 103.91H123.225C124.694 103.91 125.876 102.724 125.876 101.251C125.876 99.7777 124.694 98.5917 123.225 98.5917H123.686C125.204 98.6167 126.436 97.3808 126.436 95.8577Z" fill="#392944"/>
<path d="M99.1934 116.458H93.4685C92.5475 116.458 91.8008 115.709 91.8008 114.785V96.583C91.8008 95.6592 92.5475 94.9102 93.4685 94.9102H99.1934C100.114 94.9102 100.861 95.6592 100.861 96.583V114.785C100.861 115.709 100.114 116.458 99.1934 116.458Z" fill="#392944"/>
<path d="M81.4976 143.298C81.4976 145.382 79.8174 147.068 77.739 147.068C75.6606 147.068 73.9805 145.382 73.9805 143.298C73.9805 141.213 75.6606 139.527 77.739 139.527C79.8174 139.527 81.4976 141.213 81.4976 143.298Z" fill="#392944"/>
<path d="M142.119 145.344H88.7273C87.5948 145.344 86.6738 144.421 86.6738 143.284C86.6738 142.148 87.5948 141.225 88.7273 141.225H142.119C143.251 141.225 144.172 142.148 144.172 143.284C144.172 144.433 143.251 145.344 142.119 145.344Z" fill="#392944"/>
<path d="M81.4976 157.405C81.4976 159.49 79.8174 161.175 77.739 161.175C75.6606 161.175 73.9805 159.49 73.9805 157.405C73.9805 155.32 75.6606 153.635 77.739 153.635C79.8174 153.635 81.4976 155.32 81.4976 157.405Z" fill="#392944"/>
<path d="M142.119 159.464H88.7273C87.5948 159.464 86.6738 158.54 86.6738 157.404C86.6738 156.268 87.5948 155.344 88.7273 155.344H142.119C143.251 155.344 144.172 156.268 144.172 157.404C144.172 158.54 143.251 159.464 142.119 159.464Z" fill="#392944"/>
<path d="M81.4976 171.524C81.4976 173.609 79.8174 175.294 77.739 175.294C75.6606 175.294 73.9805 173.609 73.9805 171.524C73.9805 169.439 75.6606 167.754 77.739 167.754C79.8174 167.754 81.4976 169.439 81.4976 171.524Z" fill="#392944"/>
<path d="M142.119 173.585H88.7273C87.5948 173.585 86.6738 172.661 86.6738 171.525C86.6738 170.389 87.5948 169.465 88.7273 169.465H142.119C143.251 169.465 144.172 170.389 144.172 171.525C144.172 172.661 143.251 173.585 142.119 173.585Z" fill="#392944"/>
<g filter="url(#filter2_d_4049_15318)">
<path d="M281.422 188.139H199.629C198.161 188.139 196.979 186.953 196.979 185.48V66.1943C196.979 64.7211 198.161 63.5352 199.629 63.5352H281.422C282.89 63.5352 284.073 64.7211 284.073 66.1943V185.48C284.073 186.953 282.89 188.139 281.422 188.139Z" fill="#25192E"/>
</g>
<path d="M277.617 74.7461H203.434C202.329 74.7461 201.434 75.6415 201.434 76.7461V126.877C201.434 127.982 202.329 128.877 203.434 128.877H277.617C278.721 128.877 279.617 127.982 279.617 126.877V76.7461C279.617 75.6415 278.721 74.7461 277.617 74.7461Z" fill="#271B31"/>
<path d="M240.787 118.84C230.967 118.84 222.965 110.826 222.965 100.963C222.965 91.1132 230.955 83.0859 240.787 83.0859C250.607 83.0859 258.609 91.1008 258.609 100.963C258.609 110.826 250.619 118.84 240.787 118.84Z" fill="#392944"/>
<path d="M269.896 142.448H211.153C209.921 142.448 208.938 141.45 208.938 140.226C208.938 138.99 209.933 138.004 211.153 138.004H269.896C271.116 138.004 272.111 139.003 272.111 140.226C272.124 141.45 271.128 142.448 269.896 142.448Z" fill="#392944"/>
<path d="M236.766 176.343H211.153C209.921 176.343 208.938 175.344 208.938 174.121C208.938 172.885 209.933 171.898 211.153 171.898H236.766C237.998 171.898 238.981 172.897 238.981 174.121C238.981 175.344 237.985 176.343 236.766 176.343Z" fill="#392944"/>
<path d="M269.896 153.745H211.153C209.921 153.745 208.938 152.746 208.938 151.523C208.938 150.287 209.933 149.301 211.153 149.301H269.896C271.116 149.301 272.111 150.3 272.111 151.523C272.124 152.746 271.128 153.745 269.896 153.745Z" fill="#392944"/>
<path d="M269.896 165.044H211.153C209.921 165.044 208.938 164.045 208.938 162.822C208.938 161.586 209.933 160.6 211.153 160.6H269.896C271.116 160.6 272.111 161.598 272.111 162.822C272.124 164.045 271.128 165.044 269.896 165.044Z" fill="#392944"/>
<path opacity="0.65" d="M203.453 71.3377C204.601 71.3377 205.532 70.4043 205.532 69.2528C205.532 68.1014 204.601 67.168 203.453 67.168C202.305 67.168 201.375 68.1014 201.375 69.2528C201.375 70.4043 202.305 71.3377 203.453 71.3377Z" fill="#FF0000"/>
<path opacity="0.65" d="M211.766 71.3377C212.914 71.3377 213.844 70.4043 213.844 69.2528C213.844 68.1014 212.914 67.168 211.766 67.168C210.618 67.168 209.688 68.1014 209.688 69.2528C209.688 70.4043 210.618 71.3377 211.766 71.3377Z" fill="#FF9900"/>
<path opacity="0.65" d="M222.149 69.2528C222.149 70.4014 221.215 71.3377 220.071 71.3377C218.926 71.3377 217.992 70.4014 217.992 69.2528C217.992 68.1043 218.926 67.168 220.071 67.168C221.215 67.168 222.149 68.1043 222.149 69.2528Z" fill="#00FF0A"/>
<g filter="url(#filter3_d_4049_15318)">
<path d="M418.1 113.438H357.416C354.79 113.438 352.648 111.069 352.648 108.131V38.3301C352.648 33.6356 356.454 29.8301 361.148 29.8301H414.368C419.063 29.8301 422.868 33.6357 422.868 38.3301V108.131C422.868 111.069 420.739 113.438 418.1 113.438Z" fill="#25192E"/>
<path d="M418.1 29.8301H357.416C354.79 29.8301 352.648 31.9077 352.648 34.4834V38.42H422.868V34.4834C422.868 31.9198 420.739 29.8301 418.1 29.8301Z" fill="#271B31"/>
<path opacity="0.65" d="M360.632 33.7851C360.632 34.5592 360.01 35.1834 359.238 35.1834C358.466 35.1834 357.844 34.5592 357.844 33.7851C357.844 33.0111 358.466 32.3869 359.238 32.3869C360.01 32.3744 360.632 33.0111 360.632 33.7851Z" fill="#FF0000"/>
<path opacity="0.65" d="M366.706 33.785C366.706 34.559 366.084 35.1832 365.312 35.1832C364.54 35.1832 363.918 34.559 363.918 33.785C363.918 33.0109 364.54 32.3867 365.312 32.3867C366.084 32.3867 366.706 33.0109 366.706 33.785Z" fill="#FF9900"/>
<path opacity="0.65" d="M372.792 33.7851C372.792 34.5592 372.17 35.1834 371.398 35.1834C370.626 35.1834 370.004 34.5592 370.004 33.7851C370.004 33.0111 370.626 32.3869 371.398 32.3869C372.157 32.3744 372.792 33.0111 372.792 33.7851Z" fill="#00FF0A"/>
<path d="M370.737 54.3092C370.737 57.2929 368.335 59.7023 365.361 59.7023C362.386 59.7023 359.984 57.2929 359.984 54.3092C359.984 51.3255 362.386 48.916 365.361 48.916C368.335 48.916 370.737 51.3379 370.737 54.3092Z" fill="#392944"/>
<path d="M411.958 52.8367H376.663C375.978 52.8367 375.418 52.2749 375.418 51.5883C375.418 50.9016 375.978 50.3398 376.663 50.3398H411.958C412.643 50.3398 413.203 50.9016 413.203 51.5883C413.203 52.2749 412.643 52.8367 411.958 52.8367Z" fill="#392944"/>
<path d="M395.244 59.0535H376.663C375.978 59.0535 375.418 58.4917 375.418 57.8051C375.418 57.1184 375.978 56.5566 376.663 56.5566H395.244C395.928 56.5566 396.488 57.1184 396.488 57.8051C396.488 58.4917 395.941 59.0535 395.244 59.0535Z" fill="#392944"/>
<path d="M403.791 59.0535H400.244C399.56 59.0535 399 58.4917 399 57.8051C399 57.1184 399.56 56.5566 400.244 56.5566H403.791C404.476 56.5566 405.036 57.1184 405.036 57.8051C405.023 58.4917 404.476 59.0535 403.791 59.0535Z" fill="#392944"/>
<path d="M370.737 73.1978C370.737 76.1815 368.335 78.591 365.361 78.591C362.386 78.591 359.984 76.1815 359.984 73.1978C359.984 70.2141 362.386 67.8047 365.361 67.8047C368.335 67.8047 370.737 70.2266 370.737 73.1978Z" fill="#392944"/>
<path d="M411.958 71.7116H376.663C375.978 71.7116 375.418 71.1499 375.418 70.4632C375.418 69.7766 375.978 69.2148 376.663 69.2148H411.958C412.643 69.2148 413.203 69.7766 413.203 70.4632C413.203 71.1624 412.643 71.7116 411.958 71.7116Z" fill="#392944"/>
<path d="M395.244 77.9304H376.663C375.978 77.9304 375.418 77.3686 375.418 76.682C375.418 75.9954 375.978 75.4336 376.663 75.4336H395.244C395.928 75.4336 396.488 75.9954 396.488 76.682C396.488 77.3811 395.941 77.9304 395.244 77.9304Z" fill="#392944"/>
<path d="M403.791 77.9304H400.244C399.56 77.9304 399 77.3686 399 76.682C399 75.9954 399.56 75.4336 400.244 75.4336H403.791C404.476 75.4336 405.036 75.9954 405.036 76.682C405.023 77.3811 404.476 77.9304 403.791 77.9304Z" fill="#392944"/>
<path d="M370.737 92.0865C370.737 95.0702 368.335 97.4796 365.361 97.4796C362.386 97.4796 359.984 95.0702 359.984 92.0865C359.984 89.1028 362.386 86.6934 365.361 86.6934C368.335 86.6934 370.737 89.1028 370.737 92.0865Z" fill="#392944"/>
<path d="M411.958 90.6003H376.663C375.978 90.6003 375.418 90.0385 375.418 89.3519C375.418 88.6653 375.978 88.1035 376.663 88.1035H411.958C412.643 88.1035 413.203 88.6653 413.203 89.3519C413.203 90.0385 412.643 90.6003 411.958 90.6003Z" fill="#392944"/>
<path d="M395.244 96.8171H376.663C375.978 96.8171 375.418 96.2554 375.418 95.5687C375.418 94.8821 375.978 94.3203 376.663 94.3203H395.244C395.928 94.3203 396.488 94.8821 396.488 95.5687C396.488 96.2678 395.941 96.8171 395.244 96.8171Z" fill="#392944"/>
<path d="M403.791 96.8171H400.244C399.56 96.8171 399 96.2554 399 95.5687C399 94.8821 399.56 94.3203 400.244 94.3203H403.791C404.476 94.3203 405.036 94.8821 405.036 95.5687C405.023 96.2678 404.476 96.8171 403.791 96.8171Z" fill="#392944"/>
</g>
<g filter="url(#filter4_d_4049_15318)">
<path d="M86.3778 207.058H25.6934C23.0668 207.058 20.9258 203.976 20.9258 200.155V185.207C20.9258 180.513 24.7314 176.707 29.4258 176.707H82.6454C87.3398 176.707 91.1454 180.513 91.1454 185.207V200.155C91.1454 203.976 89.0168 207.058 86.3778 207.058Z" fill="#25192E"/>
<path d="M86.3778 176.707H25.6934C23.0668 176.707 20.9258 178.923 20.9258 181.671V185.87H91.1454V181.671C91.1454 178.936 89.0168 176.707 86.3778 176.707Z" fill="#271B31"/>
<path opacity="0.65" d="M29.0888 181.232C29.0888 182.006 28.4665 182.63 27.6948 182.63C26.9231 182.63 26.3008 182.006 26.3008 181.232C26.3008 180.458 26.9231 179.834 27.6948 179.834C28.4665 179.834 29.0888 180.458 29.0888 181.232Z" fill="#FF0000"/>
<path opacity="0.65" d="M35.163 181.232C35.163 182.006 34.5407 182.63 33.769 182.63C32.9973 182.63 32.375 182.006 32.375 181.232C32.375 180.458 32.9973 179.834 33.769 179.834C34.5407 179.834 35.163 180.458 35.163 181.232Z" fill="#FF9900"/>
<path opacity="0.65" d="M41.2471 181.232C41.2471 182.006 40.6247 182.63 39.853 182.63C39.0813 182.63 38.459 182.006 38.459 181.232C38.459 180.458 39.0813 179.834 39.853 179.834C40.6123 179.834 41.2471 180.458 41.2471 181.232Z" fill="#00FF0A"/>
<path d="M39.1944 196.225C39.1944 199.209 36.7924 201.618 33.8179 201.618C30.8434 201.618 28.4414 199.209 28.4414 196.225C28.4414 193.241 30.8434 190.832 33.8179 190.832C36.78 190.832 39.1944 193.241 39.1944 196.225Z" fill="#392944"/>
<path d="M80.4152 194.739H45.1196C44.4351 194.739 43.875 194.177 43.875 193.491C43.875 192.804 44.4351 192.242 45.1196 192.242H80.4152C81.0997 192.242 81.6598 192.804 81.6598 193.491C81.6598 194.19 81.0997 194.739 80.4152 194.739Z" fill="#392944"/>
<path d="M63.7008 200.958H45.1196C44.4351 200.958 43.875 200.396 43.875 199.709C43.875 199.023 44.4351 198.461 45.1196 198.461H63.7008C64.3853 198.461 64.9454 199.023 64.9454 199.709C64.9454 200.408 64.3978 200.958 63.7008 200.958Z" fill="#392944"/>
<path d="M72.2483 200.958H68.7015C68.017 200.958 67.457 200.396 67.457 199.709C67.457 199.023 68.017 198.461 68.7015 198.461H72.2483C72.9327 198.461 73.4927 199.023 73.4927 199.709C73.4803 200.408 72.9327 200.958 72.2483 200.958Z" fill="#392944"/>
</g>
<g filter="url(#filter5_d_4049_15318)">
<path d="M58.9624 53.8806C49.6832 53.8806 42.1211 46.3069 42.1211 36.9872C42.1211 27.6793 49.6715 20.0938 58.9624 20.0938C68.2416 20.0938 75.8037 27.6675 75.8037 36.9872C75.7919 46.3069 68.2416 53.8806 58.9624 53.8806Z" fill="#25192E"/>
<path d="M65.2374 30.5271C65.2374 34.0476 62.3999 36.894 58.8902 36.894C55.3806 36.894 52.543 34.0476 52.543 30.5271C52.543 27.0066 55.3806 24.1602 58.8902 24.1602C62.3874 24.1477 65.2374 27.0066 65.2374 30.5271Z" fill="#392944"/>
<path d="M59.2476 53.8813C64.2074 53.8813 68.6673 51.6917 71.8072 48.215C69.9746 42.8538 65.0533 38.9922 59.2476 38.9922C53.442 38.9922 48.1578 42.7848 46.3379 48.1592C49.6833 51.9042 53.8242 53.8813 59.2476 53.8813Z" fill="#392944"/>
</g>
<g filter="url(#filter6_d_4049_15318)">
<path d="M397.913 207.657H239.394C234.428 207.657 230.408 203.624 230.408 198.643V191.465C230.408 186.484 234.428 182.451 239.394 182.451H397.913C402.879 182.451 406.899 186.484 406.899 191.465V198.643C406.899 203.624 402.879 207.657 397.913 207.657Z" fill="#25192E"/>
</g>
<path opacity="0.65" d="M285.825 199.292C283.747 199.292 282.066 197.607 282.066 195.522C282.066 193.437 283.747 191.752 285.825 191.752C287.903 191.752 289.584 193.437 289.584 195.522C289.584 197.607 287.903 199.292 285.825 199.292Z" fill="#00FF0A"/>
<path opacity="0.65" d="M269.544 199.292C267.465 199.292 265.785 197.607 265.785 195.522C265.785 193.437 267.465 191.752 269.544 191.752C271.622 191.752 273.302 193.437 273.302 195.522C273.302 197.607 271.622 199.292 269.544 199.292Z" fill="#FF9900"/>
<path opacity="0.65" d="M253.266 199.292C251.188 199.292 249.508 197.607 249.508 195.522C249.508 193.437 251.188 191.752 253.266 191.752C255.345 191.752 257.025 193.437 257.025 195.522C257.025 197.607 255.345 199.292 253.266 199.292Z" fill="#FF0000"/>
<defs>
<filter id="filter0_d_4049_15318" x="279.422" y="44.0957" width="135.986" height="173.48" filterUnits="userSpaceOnUse" color-interpolation-filters="sRGB">
<feFlood flood-opacity="0" result="BackgroundImageFix"/>
<feColorMatrix in="SourceAlpha" type="matrix" values="0 0 0 0 0 0 0 0 0 0 0 0 0 0 0 0 0 0 127 0" result="hardAlpha"/>
<feOffset dx="5" dy="5"/>
<feGaussianBlur stdDeviation="12.5"/>
<feComposite in2="hardAlpha" operator="out"/>
<feColorMatrix type="matrix" values="0 0 0 0 0 0 0 0 0 0 0 0 0 0 0 0 0 0 0.25 0"/>
<feBlend mode="normal" in2="BackgroundImageFix" result="effect1_dropShadow_4049_15318"/>
<feBlend mode="normal" in="SourceGraphic" in2="effect1_dropShadow_4049_15318" result="shape"/>
</filter>
<filter id="filter1_d_4049_15318" x="27" y="43.5352" width="174.22" height="174.604" filterUnits="userSpaceOnUse" color-interpolation-filters="sRGB">
<feFlood flood-opacity="0" result="BackgroundImageFix"/>
<feColorMatrix in="SourceAlpha" type="matrix" values="0 0 0 0 0 0 0 0 0 0 0 0 0 0 0 0 0 0 127 0" result="hardAlpha"/>
<feOffset dx="5" dy="5"/>
<feGaussianBlur stdDeviation="12.5"/>
<feComposite in2="hardAlpha" operator="out"/>
<feColorMatrix type="matrix" values="0 0 0 0 0 0 0 0 0 0 0 0 0 0 0 0 0 0 0.25 0"/>
<feBlend mode="normal" in2="BackgroundImageFix" result="effect1_dropShadow_4049_15318"/>
<feBlend mode="normal" in="SourceGraphic" in2="effect1_dropShadow_4049_15318" result="shape"/>
</filter>
<filter id="filter2_d_4049_15318" x="176.979" y="43.5352" width="137.094" height="174.604" filterUnits="userSpaceOnUse" color-interpolation-filters="sRGB">
<feFlood flood-opacity="0" result="BackgroundImageFix"/>
<feColorMatrix in="SourceAlpha" type="matrix" values="0 0 0 0 0 0 0 0 0 0 0 0 0 0 0 0 0 0 127 0" result="hardAlpha"/>
<feOffset dx="5" dy="5"/>
<feGaussianBlur stdDeviation="12.5"/>
<feComposite in2="hardAlpha" operator="out"/>
<feColorMatrix type="matrix" values="0 0 0 0 0 0 0 0 0 0 0 0 0 0 0 0 0 0 0.25 0"/>
<feBlend mode="normal" in2="BackgroundImageFix" result="effect1_dropShadow_4049_15318"/>
<feBlend mode="normal" in="SourceGraphic" in2="effect1_dropShadow_4049_15318" result="shape"/>
</filter>
<filter id="filter3_d_4049_15318" x="332.648" y="9.83008" width="120.22" height="133.608" filterUnits="userSpaceOnUse" color-interpolation-filters="sRGB">
<feFlood flood-opacity="0" result="BackgroundImageFix"/>
<feColorMatrix in="SourceAlpha" type="matrix" values="0 0 0 0 0 0 0 0 0 0 0 0 0 0 0 0 0 0 127 0" result="hardAlpha"/>
<feOffset dx="5" dy="5"/>
<feGaussianBlur stdDeviation="12.5"/>
<feComposite in2="hardAlpha" operator="out"/>
<feColorMatrix type="matrix" values="0 0 0 0 0 0 0 0 0 0 0 0 0 0 0 0 0 0 0.25 0"/>
<feBlend mode="normal" in2="BackgroundImageFix" result="effect1_dropShadow_4049_15318"/>
<feBlend mode="normal" in="SourceGraphic" in2="effect1_dropShadow_4049_15318" result="shape"/>
</filter>
<filter id="filter4_d_4049_15318" x="0.925781" y="156.707" width="120.22" height="80.3506" filterUnits="userSpaceOnUse" color-interpolation-filters="sRGB">
<feFlood flood-opacity="0" result="BackgroundImageFix"/>
<feColorMatrix in="SourceAlpha" type="matrix" values="0 0 0 0 0 0 0 0 0 0 0 0 0 0 0 0 0 0 127 0" result="hardAlpha"/>
<feOffset dx="5" dy="5"/>
<feGaussianBlur stdDeviation="12.5"/>
<feComposite in2="hardAlpha" operator="out"/>
<feColorMatrix type="matrix" values="0 0 0 0 0 0 0 0 0 0 0 0 0 0 0 0 0 0 0.25 0"/>
<feBlend mode="normal" in2="BackgroundImageFix" result="effect1_dropShadow_4049_15318"/>
<feBlend mode="normal" in="SourceGraphic" in2="effect1_dropShadow_4049_15318" result="shape"/>
</filter>
<filter id="filter5_d_4049_15318" x="22.1211" y="0.09375" width="83.6826" height="83.7871" filterUnits="userSpaceOnUse" color-interpolation-filters="sRGB">
<feFlood flood-opacity="0" result="BackgroundImageFix"/>
<feColorMatrix in="SourceAlpha" type="matrix" values="0 0 0 0 0 0 0 0 0 0 0 0 0 0 0 0 0 0 127 0" result="hardAlpha"/>
<feOffset dx="5" dy="5"/>
<feGaussianBlur stdDeviation="12.5"/>
<feComposite in2="hardAlpha" operator="out"/>
<feColorMatrix type="matrix" values="0 0 0 0 0 0 0 0 0 0 0 0 0 0 0 0 0 0 0.25 0"/>
<feBlend mode="normal" in2="BackgroundImageFix" result="effect1_dropShadow_4049_15318"/>
<feBlend mode="normal" in="SourceGraphic" in2="effect1_dropShadow_4049_15318" result="shape"/>
</filter>
<filter id="filter6_d_4049_15318" x="210.408" y="162.451" width="226.491" height="75.2051" filterUnits="userSpaceOnUse" color-interpolation-filters="sRGB">
<feFlood flood-opacity="0" result="BackgroundImageFix"/>
<feColorMatrix in="SourceAlpha" type="matrix" values="0 0 0 0 0 0 0 0 0 0 0 0 0 0 0 0 0 0 127 0" result="hardAlpha"/>
<feOffset dx="5" dy="5"/>
<feGaussianBlur stdDeviation="12.5"/>
<feComposite in2="hardAlpha" operator="out"/>
<feColorMatrix type="matrix" values="0 0 0 0 0 0 0 0 0 0 0 0 0 0 0 0 0 0 0.25 0"/>
<feBlend mode="normal" in2="BackgroundImageFix" result="effect1_dropShadow_4049_15318"/>
<feBlend mode="normal" in="SourceGraphic" in2="effect1_dropShadow_4049_15318" result="shape"/>
</filter>
</defs>
</svg>
