<svg width="475" height="315" viewBox="0 0 475 315" fill="none" xmlns="http://www.w3.org/2000/svg">
<path d="M398.928 254H83.0715C79.7178 254 77 251.286 77 247.936V49.0638C77 45.7144 79.7178 43 83.0715 43H398.928C402.282 43 405 45.7144 405 49.0638V247.924C405 251.286 402.282 254 398.928 254Z" fill="#2D1E37"/>
<path d="M404.919 46.1267V254.221C404.919 256.2 403.303 257.817 401.33 257.817H81.6336C79.6599 257.817 78.0391 256.2 78.0391 254.221V46.1267C78.0391 44.1519 79.6599 42.5352 81.6336 42.5352H401.33C403.303 42.5403 404.919 44.157 404.919 46.1267Z" fill="#1E1425"/>
<path d="M404.918 46.1267V84.9735H79.265C78.8457 84.9735 78.4418 84.9428 78.043 84.8814V46.1267C78.043 44.1519 79.6638 42.5352 81.6375 42.5352H401.334C403.302 42.5403 404.918 44.157 404.918 46.1267Z" fill="#25192E"/>
<path d="M387.972 75.7382H94.9821C93.53 75.7382 92.3438 74.5513 92.3438 73.0983V63.9251C92.3438 62.4721 93.53 61.2852 94.9821 61.2852H387.972C389.424 61.2852 390.611 62.4721 390.611 63.9251V73.0983C390.611 74.5462 389.424 75.7382 387.972 75.7382Z" fill="#271B31"/>
<path d="M101.431 54.9394C102.778 54.9394 103.87 53.8468 103.87 52.499C103.87 51.1512 102.778 50.0586 101.431 50.0586C100.084 50.0586 98.9922 51.1512 98.9922 52.499C98.9922 53.8468 100.084 54.9394 101.431 54.9394Z" fill="#FF0000"/>
<path d="M226.638 70.3208H102.655C101.747 70.3208 101 69.5842 101 68.6604C101 67.7491 101.734 67 102.655 67H226.638C227.547 67 228.293 67.7366 228.293 68.6604C228.281 69.5842 227.547 70.3208 226.638 70.3208Z" fill="#392944"/>
<path d="M288.402 70.3208H238.284C237.376 70.3208 236.629 69.5842 236.629 68.6604C236.629 67.7491 237.363 67 238.284 67H288.402C289.311 67 290.058 67.7366 290.058 68.6604C290.045 69.5842 289.311 70.3208 288.402 70.3208Z" fill="#392944"/>
<path d="M112.111 54.9394C113.458 54.9394 114.55 53.8468 114.55 52.499C114.55 51.1512 113.458 50.0586 112.111 50.0586C110.764 50.0586 109.672 51.1512 109.672 52.499C109.672 53.8468 110.764 54.9394 112.111 54.9394Z" fill="#FF9900"/>
<path d="M122.599 54.9394C123.946 54.9394 125.038 53.8468 125.038 52.499C125.038 51.1512 123.946 50.0586 122.599 50.0586C121.252 50.0586 120.16 51.1512 120.16 52.499C120.16 53.8468 121.252 54.9394 122.599 54.9394Z" fill="#00FF0A"/>
<path d="M389.469 168.19H93.4879C92.859 168.19 92.3477 167.679 92.3477 167.049V99.3987C92.3477 98.7694 92.859 98.2578 93.4879 98.2578H389.469C390.098 98.2578 390.609 98.7694 390.609 99.3987V167.044C390.609 167.679 390.098 168.19 389.469 168.19Z" fill="#25192E"/>
<path d="M176.687 139.569H164.96V134.989H175.957V128.988H164.96V124.388H176.687V117.734H156.59V146.223H176.687V139.569ZM162.236 115.898C164.052 115.898 165.355 114.556 165.355 112.937C165.355 111.298 164.052 109.976 162.236 109.976C160.42 109.976 159.117 111.298 159.117 112.937C159.117 114.556 160.42 115.898 162.236 115.898ZM171.002 115.898C172.818 115.898 174.121 114.556 174.121 112.937C174.121 111.298 172.818 109.976 171.002 109.976C169.185 109.976 167.882 111.298 167.882 112.937C167.882 114.556 169.185 115.898 171.002 115.898ZM195.305 146.223C201.405 146.223 205.353 142.926 205.353 137.931C205.353 134.16 202.135 131.258 198.286 131.159V131.001C201.583 130.587 204.07 128.119 204.07 124.842C204.07 120.4 200.655 117.734 194.831 117.734H180.833V146.223H195.305ZM189.204 123.479H192.56C194.673 123.479 195.936 124.545 195.936 126.303C195.936 128.02 194.594 129.145 192.442 129.145H189.204V123.479ZM189.204 140.478V133.943H192.837C195.344 133.943 196.844 135.127 196.844 137.161C196.844 139.313 195.364 140.478 192.778 140.478H189.204ZM216.488 123.914H219.963C222.213 123.914 223.734 125.434 223.734 127.546C223.734 129.698 222.292 131.139 219.943 131.139H216.488V123.914ZM216.488 136.667H219.232L223.734 146.223H233.092L227.682 135.424C230.663 134.002 232.282 130.764 232.282 127.408C232.282 121.308 228.373 117.734 220.772 117.734H208.117V146.223H216.488V136.667ZM254.473 146.223H263.396L254.098 117.734H243.595L234.296 146.223H242.825L244.305 140.557H252.992L254.473 146.223ZM248.57 124.309H248.728L251.472 134.654H245.825L248.57 124.309ZM273.86 146.223V131.218H274.018L285.093 146.223H291.509V117.734H283.612V132.502H283.455L272.458 117.734H265.963V146.223H273.86ZM295.458 117.734V146.223H307.639C316.266 146.223 321.36 140.892 321.36 131.771C321.36 122.65 316.286 117.734 307.639 117.734H295.458ZM303.829 124.388H306.454C310.462 124.388 312.831 126.974 312.831 131.771C312.831 137.023 310.64 139.569 306.454 139.569H303.829V124.388Z" fill="#392944"/>
<g filter="url(#filter0_d_3320_9231)">
<path d="M425.928 51.8613H418.14C416.621 51.8613 415.219 52.679 414.471 54.0016L413.815 55.1612C412.834 56.8956 410.998 57.97 409.004 57.97H401.176H387.672H379.843C377.849 57.97 376.014 56.8956 375.032 55.1612L374.376 54.0016C373.628 52.679 372.226 51.8613 370.707 51.8613H362.919C358.322 51.8613 354.6 55.591 354.6 60.1853V211.577C354.6 216.176 358.327 219.901 362.919 219.901H425.918C430.515 219.901 434.237 216.171 434.237 211.577V60.1853C434.248 55.5859 430.525 51.8613 425.928 51.8613Z" fill="#25192E"/>
<path d="M409.353 118.514H391.372V111.491H408.233V102.289H391.372V95.2363H409.353V85.0353H378.538V128.715H409.353V118.514ZM387.195 82.2202C389.98 82.2202 391.978 80.1618 391.978 77.6797C391.978 75.1673 389.98 73.1392 387.195 73.1392C384.41 73.1392 382.412 75.1673 382.412 77.6797C382.412 80.1618 384.41 82.2202 387.195 82.2202ZM400.635 82.2202C403.42 82.2202 405.418 80.1618 405.418 77.6797C405.418 75.1673 403.42 73.1392 400.635 73.1392C397.85 73.1392 395.852 75.1673 395.852 77.6797C395.852 80.1618 397.85 82.2202 400.635 82.2202ZM377.951 143.715C379.809 143.715 380.929 142.783 380.929 141.245C380.929 140.082 380.13 139.241 378.944 139.108V139.059C379.815 138.914 380.499 138.085 380.499 137.158C380.499 135.839 379.482 134.979 377.932 134.979H374.445V143.715H377.951ZM375.801 136.087H377.606C378.586 136.087 379.143 136.535 379.143 137.346C379.143 138.212 378.496 138.696 377.321 138.696H375.801V136.087ZM375.801 142.607V139.731H377.593C378.877 139.731 379.543 140.216 379.543 141.16C379.543 142.104 378.895 142.607 377.672 142.607H375.801ZM383.454 136.117H385.318C386.366 136.117 387.001 136.71 387.001 137.685C387.001 138.684 386.402 139.259 385.355 139.259H383.454V136.117ZM383.454 140.355H385.318L387.098 143.715H388.66L386.705 140.143C387.77 139.786 388.4 138.829 388.4 137.649C388.4 136.02 387.28 134.979 385.482 134.979H382.098V143.715H383.454V140.355ZM395.404 143.715H396.839L393.685 134.979H392.22L389.066 143.715H390.476L391.276 141.354H394.605L395.404 143.715ZM392.922 136.432H392.959L394.26 140.264H391.621L392.922 136.432ZM399.121 143.715V137.279H399.176L403.704 143.715H404.927V134.979H403.607V141.42H403.559L399.031 134.979H397.802V143.715H399.121ZM406.544 134.979V143.715H409.625C412.228 143.715 413.76 142.092 413.76 139.332C413.76 136.577 412.222 134.979 409.625 134.979H406.544ZM407.9 136.147H409.498C411.344 136.147 412.374 137.286 412.374 139.344C412.374 141.408 411.351 142.54 409.498 142.54H407.9V136.147Z" fill="#392944"/>
<path d="M417.343 169.701H372.987C370.491 169.701 368.451 167.66 368.451 165.163V162.446C368.451 159.95 370.491 157.908 372.987 157.908H417.343C419.839 157.908 421.879 159.95 421.879 162.446V165.163C421.879 167.66 419.839 169.701 417.343 169.701Z" fill="#392944"/>
<path d="M417.343 186.57H372.987C370.491 186.57 368.451 184.529 368.451 182.032V179.315C368.451 176.819 370.491 174.777 372.987 174.777H417.343C419.839 174.777 421.879 176.819 421.879 179.315V182.032C421.879 184.529 419.839 186.57 417.343 186.57Z" fill="#392944"/>
</g>
<path d="M166.618 239.869H94.4197C93.2743 239.869 92.3438 238.938 92.3438 237.792V183.546C92.3438 182.4 93.2743 181.469 94.4197 181.469H166.618C167.763 181.469 168.694 182.4 168.694 183.546V237.792C168.694 238.938 167.763 239.869 166.618 239.869Z" fill="#25192E"/>
<g filter="url(#filter1_d_3320_9231)">
<path d="M435.911 270.205H277.392C272.426 270.205 268.406 266.173 268.406 261.192V254.014C268.406 249.032 272.426 245 277.392 245H435.911C440.877 245 444.897 249.032 444.897 254.014V261.192C444.897 266.173 440.877 270.205 435.911 270.205Z" fill="#25192E"/>
</g>
<path d="M323.823 261.841C321.745 261.841 320.064 260.156 320.064 258.071C320.064 255.986 321.745 254.301 323.823 254.301C325.901 254.301 327.582 255.986 327.582 258.071C327.582 260.156 325.901 261.841 323.823 261.841Z" fill="#00FF0A"/>
<path d="M307.544 261.841C305.465 261.841 303.785 260.156 303.785 258.071C303.785 255.986 305.465 254.301 307.544 254.301C309.622 254.301 311.302 255.986 311.302 258.071C311.302 260.156 309.622 261.841 307.544 261.841Z" fill="#FF9900"/>
<path d="M291.264 261.841C289.186 261.841 287.506 260.156 287.506 258.071C287.506 255.986 289.186 254.301 291.264 254.301C293.343 254.301 295.023 255.986 295.023 258.071C295.023 260.156 293.343 261.841 291.264 261.841Z" fill="#FF0000"/>
<path d="M67.4465 102.469C80.3179 102.469 90.7523 92.0284 90.7523 79.1494C90.7523 66.2705 80.3179 55.8301 67.4465 55.8301C54.575 55.8301 44.1406 66.2705 44.1406 79.1494C44.1406 92.0284 54.575 102.469 67.4465 102.469Z" fill="#25192E"/>
<path d="M55.6715 78.6832L62.6203 75.4344C62.8351 75.3372 62.9731 75.1224 62.9731 74.8819V72.0783C62.9731 71.628 62.4874 71.3262 62.0834 71.5462L51.1515 77.3069C50.952 77.4144 50.8242 77.619 50.8242 77.8441V80.6785C50.8242 80.9036 50.952 81.1082 51.1515 81.2157L62.0834 87.0123C62.4823 87.2323 62.9731 86.9406 62.9731 86.4802V83.7021C62.9731 83.4719 62.8402 83.257 62.6254 83.1547L55.6613 79.778C55.196 79.5581 55.2062 78.8981 55.6715 78.6832Z" fill="#392944"/>
<path d="M70.2787 67.9961H68.9697C68.6833 67.9961 68.4328 68.2007 68.3766 68.4872L64.2298 89.5964C64.1582 89.9699 64.4445 90.3229 64.8229 90.3229H66.091C66.3773 90.3229 66.6279 90.1183 66.6841 89.8318L70.8769 68.7226C70.9485 68.3491 70.6673 67.9961 70.2787 67.9961Z" fill="#392944"/>
<path d="M83.9628 77.3523L73.0206 71.5557C72.6166 71.3409 72.1309 71.6376 72.1309 72.0929V74.8403C72.1309 75.0808 72.2638 75.2905 72.4786 75.3929L79.4683 78.7183C79.9336 78.9383 79.9336 79.5983 79.4734 79.8132L72.4683 83.1694C72.2638 83.2768 72.1309 83.4866 72.1309 83.7219V86.4949C72.1309 86.9553 72.6166 87.247 73.0206 87.0321L83.9628 81.2201C84.1622 81.1127 84.2798 80.9081 84.2798 80.6829V77.8844C84.2798 77.6695 84.1622 77.4598 83.9628 77.3523Z" fill="#392944"/>
<path d="M250.254 192.319H189.013C188.4 192.319 187.898 191.817 187.898 191.204V185.693C187.898 185.08 188.4 184.578 189.013 184.578H250.259C250.872 184.578 251.373 185.08 251.373 185.693V191.204C251.373 191.823 250.872 192.319 250.254 192.319Z" fill="#392944"/>
<path d="M206.296 207.253H189.013C188.4 207.253 187.898 206.752 187.898 206.138V202.49C187.898 201.876 188.4 201.375 189.013 201.375H206.296C206.909 201.375 207.41 201.876 207.41 202.49V206.138C207.41 206.752 206.909 207.253 206.296 207.253Z" fill="#392944"/>
<path d="M306.034 234.738H288.751C288.138 234.738 287.637 234.236 287.637 233.623V229.975C287.637 229.361 288.138 228.859 288.751 228.859H306.034C306.648 228.859 307.149 229.361 307.149 229.975V233.623C307.149 234.236 306.653 234.738 306.034 234.738Z" fill="#392944"/>
<path d="M280.929 207.253H214.33C213.716 207.253 213.215 206.752 213.215 206.138V202.49C213.215 201.876 213.716 201.375 214.33 201.375H280.934C281.547 201.375 282.048 201.876 282.048 202.49V206.138C282.043 206.752 281.547 207.253 280.929 207.253Z" fill="#392944"/>
<path d="M273.213 220.058H206.609C205.995 220.058 205.494 219.557 205.494 218.943V215.295C205.494 214.681 205.995 214.18 206.609 214.18H273.213C273.827 214.18 274.328 214.681 274.328 215.295V218.943C274.328 219.557 273.827 220.058 273.213 220.058Z" fill="#392944"/>
<path d="M352.231 220.058H285.626C285.013 220.058 284.512 219.557 284.512 218.943V215.295C284.512 214.681 285.013 214.18 285.626 214.18H352.231C352.844 214.18 353.345 214.681 353.345 215.295V218.943C353.345 219.557 352.844 220.058 352.231 220.058Z" fill="#392944"/>
<path d="M301.244 207.253H290.583C289.97 207.253 289.469 206.752 289.469 206.138V202.49C289.469 201.876 289.97 201.375 290.583 201.375H301.25C301.863 201.375 302.364 201.876 302.364 202.49V206.138C302.359 206.752 301.863 207.253 301.244 207.253Z" fill="#392944"/>
<path d="M328.871 234.738H318.205C317.591 234.738 317.09 234.236 317.09 233.623V229.975C317.09 229.361 317.591 228.859 318.205 228.859H328.871C329.484 228.859 329.985 229.361 329.985 229.975V233.623C329.985 234.236 329.489 234.738 328.871 234.738Z" fill="#392944"/>
<path d="M199.675 220.058H189.009C188.396 220.058 187.895 219.557 187.895 218.943V215.295C187.895 214.681 188.396 214.18 189.009 214.18H199.675C200.289 214.18 200.79 214.681 200.79 215.295V218.943C200.79 219.557 200.294 220.058 199.675 220.058Z" fill="#43344C"/>
<path d="M255.612 234.738H189.013C188.4 234.738 187.898 234.236 187.898 233.623V229.975C187.898 229.361 188.4 228.859 189.013 228.859H255.617C256.231 228.859 256.732 229.361 256.732 229.975V233.623C256.727 234.236 256.231 234.738 255.612 234.738Z" fill="#392944"/>
<path d="M276.23 234.738H265.564C264.95 234.738 264.449 234.236 264.449 233.623V229.975C264.449 229.361 264.95 228.859 265.564 228.859H276.23C276.844 228.859 277.345 229.361 277.345 229.975V233.623C277.345 234.236 276.844 234.738 276.23 234.738Z" fill="#392944"/>
<path d="M119.469 210.665V200.866C119.469 199.042 121.372 197.843 123.017 198.629L133.842 203.799L143.531 208.428C145.412 209.326 145.412 212.004 143.531 212.903L133.842 217.531L123.017 222.702C121.372 223.488 119.469 222.288 119.469 220.464V210.665Z" fill="#392944"/>
<g filter="url(#filter2_d_3320_9231)">
<path d="M110.099 216.731H49.4141C46.7876 216.731 44.6465 214.362 44.6465 211.424V141.623C44.6465 136.929 48.4521 133.123 53.1465 133.123H106.366C111.061 133.123 114.866 136.929 114.866 141.623V211.424C114.866 214.362 112.738 216.731 110.099 216.731Z" fill="#25192E"/>
<path d="M110.099 133.123H49.4141C46.7876 133.123 44.6465 135.201 44.6465 137.776V141.713H114.866V137.776C114.866 135.213 112.738 133.123 110.099 133.123Z" fill="#271B31"/>
<path d="M52.6299 137.078C52.6299 137.852 52.0076 138.476 51.2359 138.476C50.4641 138.476 49.8418 137.852 49.8418 137.078C49.8418 136.304 50.4641 135.68 51.2359 135.68C52.0076 135.667 52.6299 136.304 52.6299 137.078Z" fill="#FF0000"/>
<path d="M58.7021 137.078C58.7021 137.852 58.0798 138.476 57.3081 138.476C56.5364 138.476 55.9141 137.852 55.9141 137.078C55.9141 136.304 56.5364 135.68 57.3081 135.68C58.0798 135.68 58.7021 136.304 58.7021 137.078Z" fill="#FF9900"/>
<path d="M64.7881 137.078C64.7881 137.852 64.1657 138.476 63.394 138.476C62.6223 138.476 62 137.852 62 137.078C62 136.304 62.6223 135.68 63.394 135.68C64.1533 135.667 64.7881 136.304 64.7881 137.078Z" fill="#00FF0A"/>
<path d="M62.7353 157.602C62.7353 160.586 60.3334 162.995 57.3589 162.995C54.3844 162.995 51.9824 160.586 51.9824 157.602C51.9824 154.618 54.3844 152.209 57.3589 152.209C60.3334 152.209 62.7353 154.631 62.7353 157.602Z" fill="#392944"/>
<path d="M103.954 156.13H68.6586C67.9741 156.13 67.4141 155.568 67.4141 154.881C67.4141 154.195 67.9741 153.633 68.6586 153.633H103.954C104.639 153.633 105.199 154.195 105.199 154.881C105.199 155.568 104.639 156.13 103.954 156.13Z" fill="#392944"/>
<path d="M87.2398 162.346H68.6586C67.9741 162.346 67.4141 161.785 67.4141 161.098C67.4141 160.411 67.9741 159.85 68.6586 159.85H87.2398C87.9244 159.85 88.4844 160.411 88.4844 161.098C88.4844 161.785 87.9368 162.346 87.2398 162.346Z" fill="#392944"/>
<path d="M95.7872 162.346H92.2406C91.5561 162.346 90.9961 161.785 90.9961 161.098C90.9961 160.411 91.5561 159.85 92.2406 159.85H95.7872C96.4717 159.85 97.0317 160.411 97.0317 161.098C97.0193 161.785 96.4717 162.346 95.7872 162.346Z" fill="#392944"/>
<path d="M62.7334 176.491C62.7334 179.474 60.3315 181.884 57.357 181.884C54.3825 181.884 51.9805 179.474 51.9805 176.491C51.9805 173.507 54.3825 171.098 57.357 171.098C60.3315 171.098 62.7334 173.52 62.7334 176.491Z" fill="#392944"/>
<path d="M103.954 175.005H68.6586C67.9741 175.005 67.4141 174.443 67.4141 173.756C67.4141 173.07 67.9741 172.508 68.6586 172.508H103.954C104.639 172.508 105.199 173.07 105.199 173.756C105.199 174.455 104.639 175.005 103.954 175.005Z" fill="#392944"/>
<path d="M87.2399 181.223H68.6586C67.9741 181.223 67.4141 180.662 67.4141 179.975C67.4141 179.288 67.9741 178.727 68.6586 178.727H87.2399C87.9244 178.727 88.4844 179.288 88.4844 179.975C88.4844 180.674 87.9368 181.223 87.2399 181.223Z" fill="#392944"/>
<path d="M95.7873 181.223H92.2406C91.5561 181.223 90.9961 180.662 90.9961 179.975C90.9961 179.288 91.5561 178.727 92.2406 178.727H95.7873C96.4718 178.727 97.0318 179.288 97.0318 179.975C97.0193 180.674 96.4718 181.223 95.7873 181.223Z" fill="#392944"/>
<path d="M62.7334 195.379C62.7334 198.363 60.3314 200.773 57.357 200.773C54.3825 200.773 51.9805 198.363 51.9805 195.379C51.9805 192.396 54.3825 189.986 57.357 189.986C60.3314 189.986 62.7334 192.396 62.7334 195.379Z" fill="#392944"/>
<path d="M103.954 193.893H68.6586C67.9741 193.893 67.4141 193.332 67.4141 192.645C67.4141 191.958 67.9741 191.396 68.6586 191.396H103.954C104.639 191.396 105.199 191.958 105.199 192.645C105.199 193.332 104.639 193.893 103.954 193.893Z" fill="#392944"/>
<path d="M87.2398 200.11H68.6586C67.9741 200.11 67.4141 199.548 67.4141 198.862C67.4141 198.175 67.9741 197.613 68.6586 197.613H87.2398C87.9244 197.613 88.4844 198.175 88.4844 198.862C88.4844 199.561 87.9368 200.11 87.2398 200.11Z" fill="#392944"/>
<path d="M95.7872 200.11H92.2406C91.5561 200.11 90.9961 199.548 90.9961 198.862C90.9961 198.175 91.5561 197.613 92.2406 197.613H95.7872C96.4717 197.613 97.0317 198.175 97.0317 198.862C97.0193 199.561 96.4717 200.11 95.7872 200.11Z" fill="#392944"/>
</g>
<defs>
<filter id="filter0_d_3320_9231" x="334.762" y="32.0236" width="134.191" height="222.593" filterUnits="userSpaceOnUse" color-interpolation-filters="sRGB">
<feFlood flood-opacity="0" result="BackgroundImageFix"/>
<feColorMatrix in="SourceAlpha" type="matrix" values="0 0 0 0 0 0 0 0 0 0 0 0 0 0 0 0 0 0 127 0" result="hardAlpha"/>
<feOffset dx="7.43915" dy="7.43915"/>
<feGaussianBlur stdDeviation="13.6384"/>
<feComposite in2="hardAlpha" operator="out"/>
<feColorMatrix type="matrix" values="0 0 0 0 0 0 0 0 0 0 0 0 0 0 0 0 0 0 0.25 0"/>
<feBlend mode="normal" in2="BackgroundImageFix" result="effect1_dropShadow_3320_9231"/>
<feBlend mode="normal" in="SourceGraphic" in2="effect1_dropShadow_3320_9231" result="shape"/>
</filter>
<filter id="filter1_d_3320_9231" x="248.406" y="225" width="226.491" height="75.2051" filterUnits="userSpaceOnUse" color-interpolation-filters="sRGB">
<feFlood flood-opacity="0" result="BackgroundImageFix"/>
<feColorMatrix in="SourceAlpha" type="matrix" values="0 0 0 0 0 0 0 0 0 0 0 0 0 0 0 0 0 0 127 0" result="hardAlpha"/>
<feOffset dx="5" dy="5"/>
<feGaussianBlur stdDeviation="12.5"/>
<feComposite in2="hardAlpha" operator="out"/>
<feColorMatrix type="matrix" values="0 0 0 0 0 0 0 0 0 0 0 0 0 0 0 0 0 0 0.25 0"/>
<feBlend mode="normal" in2="BackgroundImageFix" result="effect1_dropShadow_3320_9231"/>
<feBlend mode="normal" in="SourceGraphic" in2="effect1_dropShadow_3320_9231" result="shape"/>
</filter>
<filter id="filter2_d_3320_9231" x="24.6465" y="113.123" width="120.22" height="133.607" filterUnits="userSpaceOnUse" color-interpolation-filters="sRGB">
<feFlood flood-opacity="0" result="BackgroundImageFix"/>
<feColorMatrix in="SourceAlpha" type="matrix" values="0 0 0 0 0 0 0 0 0 0 0 0 0 0 0 0 0 0 127 0" result="hardAlpha"/>
<feOffset dx="5" dy="5"/>
<feGaussianBlur stdDeviation="12.5"/>
<feComposite in2="hardAlpha" operator="out"/>
<feColorMatrix type="matrix" values="0 0 0 0 0 0 0 0 0 0 0 0 0 0 0 0 0 0 0.25 0"/>
<feBlend mode="normal" in2="BackgroundImageFix" result="effect1_dropShadow_3320_9231"/>
<feBlend mode="normal" in="SourceGraphic" in2="effect1_dropShadow_3320_9231" result="shape"/>
</filter>
</defs>
</svg>
