<svg width="159" height="45" viewBox="0 0 159 45" fill="none" xmlns="http://www.w3.org/2000/svg">
<g clip-path="url(#clip0_4256_31692)">
<path d="M39.153 2.31543V20.0351C39.153 32.4007 30.8389 42.5241 20.6753 42.5241C10.5116 42.5241 2.19922 32.4057 2.19922 20.0351V2.31543H39.153Z" fill="white"/>
<path d="M38.8398 29.4209V31.9197C38.6672 31.6803 38.4412 31.4854 38.1803 31.3508C37.9193 31.2162 37.6306 31.1457 37.3377 31.1451H37.2027C36.7846 31.1458 36.3789 31.2883 36.0504 31.5498C35.722 31.8114 35.4898 32.1768 35.391 32.5877H35.2855C35.186 32.1773 34.9535 31.8123 34.6252 31.5509C34.297 31.2895 33.8917 31.1466 33.4738 31.1451H33.3388C32.921 31.1466 32.5157 31.2895 32.1874 31.5509C31.8591 31.8123 31.6267 32.1773 31.5271 32.5877H31.4217C31.3226 32.177 31.0903 31.8117 30.7619 31.5502C30.4335 31.2887 30.0279 31.1461 29.61 31.1451H29.4749C29.0569 31.1461 28.6514 31.2887 28.323 31.5502C27.9946 31.8117 27.7623 32.177 27.6632 32.5877H27.5578C27.4585 32.1771 27.2261 31.812 26.8978 31.5506C26.5694 31.2891 26.164 31.1463 25.7461 31.1451H25.6094C25.1917 31.1469 24.7865 31.2899 24.4583 31.5513C24.13 31.8126 23.8975 32.1774 23.7977 32.5877H23.6939C23.5949 32.177 23.3626 31.8117 23.0342 31.5502C22.7058 31.2887 22.3002 31.1461 21.8822 31.1451H21.7472C21.4542 31.1455 21.1655 31.2159 20.9045 31.3505C20.6434 31.4851 20.4175 31.6801 20.2451 31.9197V29.4209H38.8398Z" fill="#1D1324"/>
<path d="M22.2247 32.1504H21.3039C21.1943 32.1504 21.1055 32.1921 21.1055 32.2435V44.0514C21.1055 44.1028 21.1943 44.1445 21.3039 44.1445H22.2247C22.3342 44.1445 22.4231 44.1028 22.4231 44.0514V32.2435C22.4231 32.1921 22.3342 32.1504 22.2247 32.1504Z" fill="#1D1324"/>
<path d="M26.1536 32.1504H25.1177C24.9945 32.1504 24.8945 32.1921 24.8945 32.2435V44.0514C24.8945 44.1028 24.9945 44.1445 25.1177 44.1445H26.1536C26.2769 44.1445 26.3768 44.1028 26.3768 44.0514V32.2435C26.3768 32.1921 26.2769 32.1504 26.1536 32.1504Z" fill="#1D1324"/>
<path d="M30.1077 32.1504H29.0718C28.9486 32.1504 28.8486 32.1921 28.8486 32.2435V44.0514C28.8486 44.1028 28.9486 44.1445 29.0718 44.1445H30.1077C30.231 44.1445 30.3309 44.1028 30.3309 44.0514V32.2435C30.3309 32.1921 30.231 32.1504 30.1077 32.1504Z" fill="#1D1324"/>
<path d="M33.9229 32.1504H33.0021C32.8925 32.1504 32.8037 32.1921 32.8037 32.2435V44.0514C32.8037 44.1028 32.8925 44.1445 33.0021 44.1445H33.9229C34.0325 44.1445 34.1213 44.1028 34.1213 44.0514V32.2435C34.1213 32.1921 34.0325 32.1504 33.9229 32.1504Z" fill="#1D1324"/>
<path d="M37.846 32.1504H36.8101C36.6869 32.1504 36.5869 32.1921 36.5869 32.2435V44.0514C36.5869 44.1028 36.6869 44.1445 36.8101 44.1445H37.846C37.9693 44.1445 38.0692 44.1028 38.0692 44.0514V32.2435C38.0692 32.1921 37.9693 32.1504 37.846 32.1504Z" fill="#1D1324"/>
<path d="M40.3645 25.5098H18.7344V27.8703H40.3645V25.5098Z" fill="#1D1324"/>
<path d="M44.1385 4.47461H14.8828V6.83512H44.1385V4.47461Z" fill="#1D1324"/>
<path d="M17.0365 10.7531H42.0315L42.4794 8.39258H16.5869L17.0365 10.7531Z" fill="#1D1324"/>
<path d="M46.3138 18.4444C46.2773 19.6756 45.7659 20.8433 44.8889 21.6979C44.012 22.5525 42.8392 23.026 41.6215 23.0172C38.8595 23.0172 36.9193 21.1465 36.7843 19.1291C36.585 16.1489 38.8612 14.7979 40.5197 14.7979C41.8373 14.7979 43.6902 15.9457 43.6177 17.8664C43.5831 18.8992 42.8518 20.3652 40.9413 20.3652C39.5018 20.3652 38.8002 19.4523 38.787 18.6227C38.7656 17.29 39.543 16.4671 40.5773 16.4971C41.5211 16.5237 41.8818 17.5732 41.5293 18.0063C40.8952 18.7893 40.0173 17.9547 40.0173 17.9547C39.8905 19.6305 42.4121 19.6522 42.4582 17.6598C42.4829 16.5804 41.419 15.7674 40.4571 15.7674C39.2548 15.7674 37.7807 16.7236 37.7824 18.6493C37.7824 20.2386 39.2877 21.7078 41.2888 21.7078C43.1664 21.7078 44.6306 20.097 44.6883 18.1096C44.7788 14.9778 42.7909 13.5119 40.4439 13.5119C37.5106 13.5119 34.6514 16.8019 35.386 19.7155C35.386 19.7155 35.694 21.7145 38.5054 24.1167L34.3401 24.0717C33.5759 23.1971 33.0818 21.8028 33.0818 20.2402C33.0818 18.3395 33.8065 16.6986 34.8589 15.9207H34.8392C33.1016 15.9207 31.6934 18.0696 31.6934 20.7183C31.6716 21.8951 31.9806 23.0539 32.5844 24.06L29.549 24.0267L26.5136 24.06C27.1162 23.0535 27.4245 21.8948 27.403 20.7183C27.403 18.0696 25.9948 15.9207 24.2572 15.9207H24.2391C25.2899 16.6986 26.0162 18.3395 26.0162 20.2402C26.0162 21.8095 25.5221 23.2038 24.7579 24.0717L20.5926 24.1167C23.404 21.7212 23.712 19.7155 23.712 19.7155C24.4466 16.8019 21.5874 13.5119 18.6541 13.5119C16.3088 13.5119 14.2846 15.2044 14.4081 18.0096C14.4938 19.9953 15.9332 21.7062 17.8092 21.7062C19.8119 21.7062 21.314 20.2369 21.3156 18.6477C21.3156 16.7219 19.8432 15.7658 18.6409 15.7658C17.6791 15.7658 16.6167 16.5787 16.6414 17.6582C16.6859 19.6572 19.2091 19.6289 19.0807 17.953C19.0807 17.953 18.2028 18.7859 17.5687 18.0047C17.2179 17.5715 17.5786 16.522 18.5207 16.4954C19.555 16.4654 20.3324 17.2933 20.311 18.621C20.2961 19.4539 19.5978 20.3652 18.1567 20.3635C16.2462 20.3635 15.5215 18.9025 15.4803 17.8647C15.4095 15.944 17.2525 14.7962 18.5783 14.7962C20.2369 14.7962 22.5147 16.1406 22.3154 19.1274C22.1803 21.1448 20.2401 23.0155 17.4765 23.0155C16.2588 23.0244 15.086 22.5508 14.2091 21.6962C13.3322 20.8417 12.8207 19.6739 12.7842 18.4428C12.6623 14.4614 15.4194 12.7272 18.6508 12.7272C19.6443 12.7128 20.6277 12.93 21.5248 13.3619C22.8424 14.0149 25.4348 15.3993 27.1246 15.1377C27.6502 15.0705 28.1498 14.8677 28.5755 14.5488C29.0012 14.23 29.3387 13.8058 29.5556 13.3169C29.772 13.8058 30.1091 14.2301 30.5346 14.549C30.9601 14.8679 31.4595 15.0707 31.9849 15.1377C33.6715 15.3993 36.2671 14.0149 37.5847 13.3619C38.4813 12.93 39.4642 12.7128 40.4571 12.7272C43.6885 12.7289 46.4357 14.4631 46.3138 18.4444Z" fill="#1D1324"/>
<path d="M28.0286 12.4473V12.7138C27.9337 12.9277 27.7857 13.1131 27.599 13.2521C27.4122 13.391 27.1932 13.4788 26.963 13.5067C26.2219 13.6234 24.2208 12.5855 23.8008 12.4473H28.0286Z" fill="#1D1324"/>
<path d="M31.0713 12.4473V12.7138C31.1662 12.9277 31.3142 13.1131 31.5009 13.2521C31.6877 13.391 31.9067 13.4788 32.1369 13.5067C32.878 13.6234 34.8792 12.5855 35.3008 12.4473H31.0713Z" fill="#1D1324"/>
<path d="M40.6695 0.666016V19.835C40.6695 33.2151 31.6736 44.1564 20.6766 44.1564C9.67952 44.1564 0.683594 33.2201 0.683594 19.835V0.666016H40.6695Z" stroke="white" stroke-width="1.31431" stroke-miterlimit="10"/>
<path d="M54.5137 11.6989V11.4723C54.6851 11.4478 54.8422 11.3621 54.9567 11.2308C55.0358 11.0131 55.0667 10.7805 55.0473 10.5494V6.56304C55.0473 6.17823 55.0111 5.94001 54.9402 5.84839C54.8247 5.7318 54.6751 5.65587 54.5137 5.63183V5.40527H58.7201V6.79792H58.2688C58.1962 6.52375 58.0769 6.26446 57.9164 6.03164C57.7961 5.88504 57.587 5.81174 57.2856 5.81174H55.8988V8.14393C56.338 8.10729 56.7223 8.08896 57.0517 8.08896C58.4297 8.08896 59.1192 8.67145 59.1203 9.83644C59.1203 11.0814 58.3589 11.7039 56.8359 11.7039L54.5137 11.6989ZM55.8988 8.55373V11.2641C56.1211 11.2824 56.3715 11.2924 56.6515 11.2924C57.2005 11.2924 57.5963 11.1763 57.839 10.9442C58.0816 10.7121 58.2008 10.3578 58.1964 9.88142C58.1964 8.97186 57.7286 8.51708 56.7931 8.51708C56.4946 8.5124 56.196 8.52463 55.8988 8.55373Z" fill="white"/>
<path d="M63.5441 11.6989V11.4723C63.7139 11.4472 63.8693 11.3615 63.9822 11.2308C64.0431 11.1308 64.0728 10.8976 64.0728 10.5494V8.56706C64.0728 7.9196 64.0788 7.50313 64.0909 7.31767H64.0794L61.487 10.5494C61.487 10.9192 61.5183 11.1508 61.5842 11.2457C61.6978 11.3694 61.8503 11.4494 62.0157 11.4723V11.6989H60.1035V11.4723C60.2753 11.4473 60.4328 11.3618 60.5482 11.2308C60.6091 11.1308 60.6404 10.8976 60.6404 10.5494V6.56304C60.6404 6.15657 60.6009 5.91169 60.5219 5.83006C60.4029 5.72662 60.2582 5.65806 60.1035 5.63183V5.40527H62.0091V5.63183C61.8531 5.65808 61.7079 5.72922 61.5908 5.83673C61.5166 5.92169 61.4804 6.1699 61.4804 6.56304V8.59038C61.4804 9.04571 61.4711 9.42831 61.4524 9.73816H61.4804L64.0794 6.50807C64.0984 6.29142 64.0663 6.07329 63.9855 5.87171C63.8728 5.74308 63.7188 5.65874 63.5507 5.63349V5.40694H65.4464V5.63349C65.291 5.66005 65.1464 5.73117 65.0297 5.8384C64.9556 5.92335 64.9177 6.17156 64.9177 6.5647V10.5511C64.9177 10.9209 64.9506 11.1525 65.0165 11.2474C65.1297 11.3708 65.2816 11.4509 65.4464 11.474V11.7005L63.5441 11.6989Z" fill="white"/>
<path d="M66.5254 11.5057V10.2146H66.9684C67.1167 10.6511 67.2978 10.9526 67.4938 11.1159C67.7324 11.2908 68.023 11.3778 68.3173 11.3624C68.4898 11.3726 68.6625 11.3466 68.8247 11.2861C68.9868 11.2256 69.1348 11.1319 69.2594 11.0109C69.5006 10.7321 69.6226 10.3678 69.5987 9.99808C69.6179 9.70594 69.5472 9.41494 69.3961 9.16516C69.2766 8.98303 69.0986 8.84826 68.8921 8.78368C68.6329 8.71655 68.3658 8.68627 68.0983 8.69372H67.3736V8.15731H68.1115C68.5907 8.15731 68.935 8.04904 69.1557 7.83248C69.3764 7.61592 69.4851 7.28608 69.4851 6.84296C69.4936 6.69254 69.4699 6.54202 69.4156 6.40171C69.3613 6.26141 69.2777 6.13462 69.1705 6.03002C68.9487 5.83098 68.6597 5.72598 68.3635 5.73683C68.0741 5.72253 67.7881 5.80508 67.5498 5.97172C67.2986 6.19859 67.1135 6.49066 67.0146 6.81631H66.5732V5.60357C67.207 5.43286 67.8591 5.34166 68.515 5.33203C69.77 5.33203 70.3975 5.81457 70.3975 6.77966C70.3975 7.50153 69.9962 8.02405 69.1935 8.34722V8.41053C70.0818 8.66707 70.5254 9.19125 70.5243 9.98309C70.5376 10.2331 70.4928 10.4828 70.3936 10.7122C70.2943 10.9416 70.1434 11.1443 69.9528 11.3041C69.5707 11.6162 69.0063 11.7722 68.2597 11.7722C67.6721 11.7664 67.0882 11.6767 66.5254 11.5057Z" fill="white"/>
<path d="M76.4022 10.5461C76.4004 10.6795 76.4053 10.813 76.417 10.9459C76.4217 11.0193 76.4367 11.0916 76.4615 11.1608C76.4797 11.2088 76.5059 11.2533 76.5389 11.2924C76.5763 11.3308 76.6204 11.3619 76.669 11.384C76.7531 11.4223 76.8409 11.4519 76.9309 11.4723V11.6989H75.022V11.4723C75.1468 11.4473 75.2659 11.3987 75.3729 11.329C75.4447 11.2674 75.4936 11.1828 75.5112 11.0892C75.5436 10.9101 75.5568 10.728 75.5507 10.5461V8.61371H73.016V10.5461C73.0133 10.6968 73.0199 10.8476 73.0358 10.9975C73.0456 11.0765 73.069 11.1532 73.1049 11.2241C73.1397 11.2817 73.1885 11.3293 73.2466 11.3624C73.3426 11.4117 73.4445 11.4486 73.5496 11.4723V11.6989H71.6309V11.4723C71.7673 11.4458 71.8961 11.3889 72.008 11.3057C72.0768 11.2366 72.1208 11.1464 72.1332 11.0492C72.1564 10.8837 72.1663 10.7165 72.1628 10.5494V6.55804C72.1661 6.40336 72.159 6.24863 72.1414 6.09493C72.1312 6.0151 72.1055 5.9381 72.0657 5.86838C72.0309 5.81461 71.9833 5.77051 71.9273 5.74011C71.8326 5.69338 71.7332 5.65708 71.6309 5.63183V5.40527H73.5496V5.63183C73.4494 5.65323 73.352 5.68679 73.2597 5.73178C73.2039 5.76362 73.1555 5.80739 73.1181 5.86005C73.0764 5.92962 73.05 6.00746 73.0407 6.08827C73.0209 6.24403 73.0127 6.40105 73.016 6.55804V8.18891H75.5507V6.55804C75.5579 6.37443 75.5446 6.1906 75.5112 6.00998C75.4923 5.92256 75.4468 5.84333 75.3811 5.78342C75.2724 5.70963 75.1504 5.65813 75.022 5.63183V5.40527H76.926V5.63183C76.7992 5.65617 76.6783 5.70541 76.5702 5.77676C76.4986 5.83903 76.4504 5.92432 76.4335 6.01831C76.4046 6.19665 76.3924 6.37737 76.3973 6.55804L76.4022 10.5461Z" fill="white"/>
<path d="M82.3018 5.40527V6.79792H81.8555C81.8158 6.66313 81.7685 6.53075 81.7138 6.40145C81.6732 6.30124 81.623 6.20528 81.564 6.11493C81.5198 6.04434 81.4641 5.98182 81.3993 5.93002C81.3333 5.88307 81.2579 5.85123 81.1786 5.83673C81.078 5.81875 80.976 5.81038 80.8739 5.81174H79.4327V8.22723H80.4078C80.5131 8.23265 80.6182 8.21444 80.7157 8.17392C80.7977 8.13014 80.864 8.06136 80.9052 7.97735C80.9718 7.84007 81.02 7.69441 81.0484 7.54423H81.4767V9.31503H81.0451C81.0165 9.17065 80.9695 9.03066 80.9052 8.89856C80.863 8.81505 80.7985 8.7452 80.719 8.697C80.6184 8.65086 80.5082 8.63027 80.3979 8.63702H79.4229V11.3024H80.8409C80.9629 11.3055 81.0848 11.2921 81.2033 11.2624C81.2925 11.2386 81.3746 11.1928 81.4421 11.1291C81.5153 11.0583 81.5756 10.9748 81.6199 10.8826C81.6714 10.7813 81.715 10.676 81.7501 10.5677C81.7847 10.4578 81.8324 10.2995 81.8934 10.0896H82.3446L82.259 11.7089H78.041V11.4723C78.1778 11.4454 78.3071 11.3885 78.4198 11.3057C78.4879 11.2362 78.5319 11.1462 78.545 11.0492C78.5681 10.8837 78.5781 10.7165 78.5746 10.5494V6.55804C78.5776 6.40332 78.5699 6.24857 78.5516 6.09493C78.5414 6.0151 78.5156 5.9381 78.4758 5.86838C78.441 5.81461 78.3935 5.77051 78.3375 5.74011C78.2428 5.69338 78.1434 5.65708 78.041 5.63183V5.40527H82.3018Z" fill="white"/>
<path d="M87.6029 5.53931V6.81702H87.1517C87.0958 6.58975 87.0016 6.37392 86.8733 6.17899C86.7739 6.03503 86.6387 5.92012 86.4813 5.84582C86.3108 5.77416 86.1273 5.73954 85.9428 5.74421C85.6349 5.74204 85.337 5.85473 85.1061 6.06072C84.8322 6.31839 84.6329 6.64666 84.5296 7.01026C84.3802 7.50671 84.3096 8.024 84.3205 8.54284C84.3108 9.06248 84.3689 9.58116 84.4934 10.0854C84.5747 10.447 84.7511 10.7797 85.004 11.0483C85.1127 11.1561 85.2414 11.241 85.3828 11.2982C85.5241 11.3553 85.6753 11.3837 85.8275 11.3814C86.0364 11.3893 86.2447 11.3524 86.4385 11.2732C86.6 11.198 86.7379 11.0792 86.8371 10.93C86.9713 10.7153 87.075 10.4826 87.1451 10.2387H87.5964V11.5564C87.3079 11.6323 87.0146 11.688 86.7185 11.7229C86.3906 11.7632 86.0606 11.7827 85.7303 11.7813C84.9617 11.7813 84.3781 11.5169 83.9795 10.9883C83.581 10.4597 83.3833 9.67117 83.3866 8.6228C83.375 8.03147 83.4797 7.44369 83.6946 6.89364C83.8729 6.41996 84.1942 6.01509 84.6128 5.73642C85.0314 5.45775 85.5261 5.31943 86.0268 5.34107C86.2827 5.33931 86.5385 5.35378 86.7926 5.38438C87.0658 5.41815 87.3364 5.4699 87.6029 5.53931Z" fill="white"/>
<path d="M94.1545 11.6989V11.4723C94.3244 11.4476 94.48 11.3619 94.5926 11.2308C94.6535 11.1308 94.6848 10.8976 94.6848 10.5494V8.56706C94.6848 7.91904 94.6848 7.50258 94.7029 7.31767H94.6848L92.0908 10.5494C92.0908 10.9192 92.1237 11.1508 92.1879 11.2457C92.3016 11.3694 92.4541 11.4494 92.6195 11.4723V11.6989H90.7139V11.4723C90.8856 11.4473 91.0431 11.3618 91.1586 11.2308C91.2212 11.1308 91.2524 10.8976 91.2524 10.5494V6.56304C91.2524 6.15657 91.2129 5.91169 91.1339 5.83006C91.0144 5.72634 90.8692 5.65777 90.7139 5.63183V5.40527H92.6195V5.63183C92.464 5.65838 92.3194 5.7295 92.2028 5.83673C92.127 5.92169 92.0908 6.1699 92.0908 6.56304V8.59038C92.0908 9.04571 92.0814 9.42831 92.0628 9.73816H92.0908L94.6848 6.5064C94.7038 6.28975 94.6717 6.07163 94.5909 5.87005C94.4772 5.74176 94.3229 5.65752 94.1545 5.63183V5.40527H96.0518V5.63183C95.8964 5.65838 95.7518 5.7295 95.6351 5.83673C95.5593 5.92169 95.5231 6.1699 95.5231 6.56304V10.5494C95.5231 10.9192 95.5561 11.1508 95.6203 11.2457C95.734 11.3694 95.8864 11.4494 96.0518 11.4723V11.6989H94.1545Z" fill="white"/>
<path d="M102.89 7.1111C102.796 6.62301 102.679 6.28651 102.543 6.10327C102.469 6.01061 102.374 5.93737 102.266 5.8898C102.158 5.84223 102.041 5.82173 101.923 5.83006H100.606V10.5311C100.588 10.769 100.631 11.0075 100.729 11.2241C100.81 11.359 100.999 11.4423 101.294 11.4723V11.6989H99.2207V11.4723C99.3848 11.4506 99.5372 11.3744 99.6539 11.2557C99.7197 11.1641 99.7543 10.9226 99.7543 10.5494V6.56304C99.7543 6.17878 99.7181 5.94057 99.6456 5.84839C99.531 5.73143 99.3818 5.65541 99.2207 5.63183V5.40527H103.338V7.1111H102.89Z" fill="white"/>
<path d="M106.465 11.7727C106.127 11.7758 105.792 11.7142 105.477 11.5911C105.177 11.4694 104.913 11.2742 104.706 11.0231C104.476 10.733 104.308 10.3978 104.212 10.0386C104.087 9.57184 104.028 9.08944 104.037 8.60593C104.023 8.0023 104.128 7.40183 104.347 6.84012C104.525 6.38468 104.834 5.99358 105.233 5.71734C105.632 5.45677 106.098 5.32275 106.572 5.33253C107.052 5.31582 107.526 5.44148 107.936 5.69402C108.318 5.95112 108.61 6.32363 108.771 6.7585C108.971 7.30621 109.066 7.88737 109.051 8.47099C109.069 9.09367 108.96 9.71347 108.731 10.2918C108.552 10.7472 108.238 11.1353 107.832 11.4029C107.421 11.6571 106.947 11.7855 106.465 11.7727ZM104.966 8.47599C104.966 9.42108 105.103 10.1385 105.375 10.6283C105.482 10.8538 105.652 11.0433 105.863 11.1741C106.074 11.305 106.318 11.3717 106.566 11.3662C106.877 11.3738 107.179 11.2592 107.409 11.0464C107.666 10.7892 107.846 10.4643 107.929 10.1085C108.049 9.63752 108.105 9.15213 108.094 8.6659C108.108 8.10357 108.039 7.54227 107.891 7.00005C107.801 6.63315 107.609 6.29984 107.338 6.03885C107.109 5.84032 106.816 5.73363 106.515 5.739C106.266 5.73223 106.022 5.79944 105.811 5.93224C105.603 6.07111 105.433 6.26075 105.317 6.48363C105.177 6.75419 105.081 7.04627 105.034 7.34821C104.979 7.72144 104.956 8.09879 104.966 8.47599Z" fill="white"/>
<path d="M114.338 5.53924V6.81695H113.887C113.833 6.58919 113.738 6.37312 113.609 6.17892C113.509 6.03496 113.374 5.92005 113.217 5.84575C113.047 5.77432 112.864 5.7397 112.68 5.74414C112.372 5.74197 112.074 5.85466 111.843 6.06065C111.569 6.31789 111.369 6.64631 111.267 7.01019C111.117 7.50646 111.046 8.02388 111.058 8.54277C111.045 9.06205 111.101 9.58071 111.222 10.0853C111.303 10.4472 111.48 10.7801 111.733 11.0482C111.842 11.156 111.97 11.2409 112.112 11.2981C112.253 11.3553 112.404 11.3836 112.556 11.3814C112.765 11.3896 112.974 11.3527 113.167 11.2731C113.329 11.1983 113.467 11.0795 113.566 10.9299C113.701 10.7156 113.805 10.4828 113.874 10.2386H114.325V11.5563C114.037 11.6324 113.744 11.6881 113.447 11.7229C113.12 11.7633 112.79 11.7828 112.459 11.7812C111.688 11.7812 111.104 11.5163 110.71 10.9882C110.316 10.4602 110.117 9.67055 110.117 8.62273C110.105 8.03133 110.209 7.44339 110.425 6.89357C110.603 6.42017 110.924 6.01549 111.343 5.73685C111.761 5.4582 112.255 5.31971 112.756 5.341C113.012 5.33924 113.267 5.35371 113.522 5.38431C113.797 5.4178 114.07 5.46955 114.338 5.53924Z" fill="white"/>
<path d="M120.381 5.63263C120.224 5.68289 120.084 5.77701 119.978 5.90417C119.771 6.2003 119.598 6.51877 119.461 6.8537L118.166 9.67399C117.774 10.5258 117.436 11.095 117.152 11.3815C117.018 11.5209 116.857 11.6312 116.679 11.7054C116.502 11.7796 116.311 11.8162 116.119 11.8129C115.885 11.8149 115.653 11.7794 115.431 11.708V10.5236H115.925C115.953 10.8801 116.101 11.0583 116.371 11.0583C116.733 11.0583 117.068 10.7601 117.374 10.1638L115.892 6.88202C115.751 6.54667 115.586 6.22257 115.398 5.9125C115.298 5.77825 115.158 5.68009 114.999 5.63263V5.40608H116.954V5.63263C116.662 5.66595 116.518 5.78923 116.518 6.00079C116.55 6.31615 116.641 6.62247 116.786 6.90368L117.815 9.23587L118.728 7.10524C118.887 6.7837 118.986 6.43525 119.019 6.07742C119.026 6.02112 119.021 5.96403 119.004 5.90986C118.988 5.85569 118.96 5.80567 118.923 5.76307C118.886 5.72046 118.841 5.68623 118.79 5.66261C118.739 5.63898 118.683 5.6265 118.627 5.62597V5.39941H120.378L120.381 5.63263Z" fill="white"/>
<path d="M124.652 13.3537C124.628 13.0393 124.569 12.7286 124.475 12.4275C124.427 12.2054 124.317 12.0016 124.159 11.8395C124.02 11.7397 123.851 11.6904 123.68 11.6996H120.954C120.813 11.6932 120.673 11.7301 120.553 11.8052C120.433 11.8804 120.338 11.9905 120.281 12.121C120.114 12.5111 120.022 12.9292 120.007 13.3537H119.541V11.2748H119.989C120.531 10.5578 120.936 9.74482 121.183 8.8776C121.466 8.0286 121.621 7.14128 121.643 6.24555C121.655 6.09051 121.624 5.93506 121.552 5.79744C121.506 5.74537 121.45 5.70364 121.387 5.67494C121.324 5.64625 121.255 5.63123 121.186 5.63086V5.4043H124.92V5.63086C124.762 5.65633 124.614 5.72617 124.494 5.83242C124.419 5.91571 124.382 6.16559 124.382 6.56207V11.2731H125.116V13.3521L124.652 13.3537ZM123.533 5.81243H122.252C122.068 8.17128 121.54 9.99205 120.671 11.2748H123.533V5.81243Z" fill="white"/>
<path d="M129.116 11.6989V11.4724C129.233 11.4527 129.347 11.4185 129.456 11.3707C129.525 11.3378 129.583 11.2836 129.62 11.2158C129.66 11.1336 129.679 11.0425 129.675 10.951C129.674 10.839 129.661 10.7273 129.638 10.6178C129.614 10.4962 129.579 10.3596 129.535 10.2096L129.37 9.61493H127.247L127.082 10.0664C127.021 10.2354 126.969 10.4078 126.927 10.5828C126.905 10.6874 126.893 10.794 126.891 10.901C126.885 10.9749 126.894 11.0494 126.918 11.1194C126.942 11.1895 126.981 11.2536 127.031 11.3074C127.154 11.4038 127.301 11.4617 127.456 11.474V11.7006H125.513V11.4724C125.603 11.4544 125.688 11.4187 125.765 11.3673C125.841 11.3158 125.906 11.2496 125.957 11.1725C126.111 10.944 126.234 10.6959 126.323 10.4345L128.224 5.33203H128.945L130.495 10.4712C130.549 10.6581 130.613 10.8416 130.688 11.0209C130.734 11.1323 130.803 11.2327 130.89 11.3158C130.986 11.3943 131.099 11.4481 131.22 11.4724V11.6989H129.116ZM127.366 9.20014H129.271L128.405 6.22659L127.366 9.20014Z" fill="white"/>
<path d="M133.241 10.5311C133.239 10.6766 133.249 10.8221 133.271 10.9659C133.284 11.056 133.315 11.1426 133.362 11.2208C133.402 11.284 133.459 11.3352 133.526 11.369C133.632 11.4159 133.742 11.4506 133.856 11.4723V11.6989H131.854V11.4723C131.991 11.4457 132.121 11.3889 132.233 11.3057C132.302 11.2366 132.346 11.1464 132.358 11.0492C132.382 10.8837 132.392 10.7165 132.388 10.5494V6.55804C132.392 6.4033 132.384 6.2485 132.365 6.09493C132.356 6.01504 132.331 5.9379 132.291 5.86838C132.255 5.81489 132.207 5.7709 132.151 5.74011C132.056 5.69338 131.957 5.65708 131.854 5.63183V5.40527H134.116C134.827 5.40527 135.357 5.54298 135.704 5.8184C136.053 6.09327 136.226 6.5114 136.226 7.07445C136.23 7.36993 136.174 7.6631 136.061 7.9357C135.959 8.18042 135.799 8.39605 135.595 8.56373C135.386 8.73079 135.144 8.85014 134.885 8.91356C134.603 8.98585 134.314 9.02167 134.024 9.02017C133.694 9.02017 133.424 9.02017 133.24 9.00185L133.241 10.5311ZM133.241 8.6187H133.77C134.059 8.62799 134.348 8.58164 134.62 8.4821C134.837 8.39623 135.018 8.23665 135.132 8.03066C135.261 7.77303 135.322 7.48621 135.31 7.19773C135.317 6.97083 135.282 6.7446 135.204 6.53139C135.144 6.36774 135.045 6.22139 134.916 6.10493C134.79 5.99473 134.639 5.91651 134.477 5.87671C134.295 5.83064 134.107 5.80824 133.92 5.81007C133.618 5.81007 133.393 5.81008 133.241 5.8284V8.6187Z" fill="white"/>
<path d="M141.362 5.53924V6.81695H140.911C140.856 6.58919 140.762 6.37312 140.633 6.17892C140.533 6.03496 140.398 5.92005 140.241 5.84575C140.071 5.77432 139.888 5.7397 139.704 5.74414C139.396 5.74197 139.098 5.85466 138.867 6.06065C138.593 6.31832 138.394 6.64659 138.291 7.01019C138.14 7.50646 138.07 8.02388 138.081 8.54277C138.069 9.06205 138.124 9.58071 138.246 10.0853C138.327 10.4472 138.503 10.7801 138.757 11.0482C138.865 11.156 138.994 11.2409 139.135 11.2981C139.277 11.3553 139.428 11.3836 139.58 11.3814C139.789 11.3896 139.997 11.3527 140.191 11.2731C140.353 11.1979 140.492 11.0792 140.591 10.9299C140.725 10.7151 140.828 10.4824 140.898 10.2386H141.349V11.5563C141.061 11.6322 140.768 11.6879 140.473 11.7229C140.145 11.7632 139.815 11.7826 139.485 11.7812C138.716 11.7812 138.133 11.5169 137.736 10.9882C137.338 10.4596 137.14 9.67111 137.143 8.62273C137.13 8.03133 137.235 7.44339 137.451 6.89357C137.629 6.42017 137.95 6.01549 138.368 5.73685C138.786 5.4582 139.281 5.31971 139.781 5.341C140.037 5.33924 140.293 5.35371 140.547 5.38431C140.822 5.41771 141.094 5.46946 141.362 5.53924Z" fill="white"/>
<path d="M142.168 5.40527H147.109V7.00782H146.663C146.612 6.79426 146.545 6.58488 146.463 6.38146C146.415 6.25298 146.345 6.13404 146.256 6.02997C146.191 5.95745 146.111 5.90053 146.022 5.86338C145.9 5.82447 145.772 5.80755 145.645 5.8134H145.067V10.5328C145.064 10.6783 145.074 10.8238 145.096 10.9675C145.11 11.0577 145.141 11.1443 145.187 11.2224C145.228 11.2853 145.285 11.3364 145.352 11.3707C145.457 11.4174 145.568 11.452 145.681 11.474V11.7005H143.598V11.4723C143.679 11.4534 143.759 11.4301 143.838 11.4023C143.898 11.3826 143.954 11.3521 144.003 11.3124C144.048 11.2756 144.086 11.2297 144.113 11.1774C144.146 11.1056 144.169 11.0293 144.181 10.9509C144.2 10.8119 144.208 10.6715 144.205 10.5311V5.81174H143.632C143.513 5.80879 143.394 5.82224 143.278 5.85172C143.179 5.88326 143.091 5.94075 143.021 6.01831C142.928 6.12931 142.855 6.25549 142.804 6.39145C142.727 6.59037 142.666 6.79472 142.619 7.00282H142.168V5.40527Z" fill="white"/>
<path d="M147.951 11.6998V11.4733C148.088 11.4467 148.217 11.3898 148.33 11.3067C148.399 11.2376 148.443 11.1473 148.455 11.0501C148.478 10.8846 148.488 10.7175 148.485 10.5504V6.559C148.489 6.40426 148.481 6.24946 148.462 6.09589C148.453 6.016 148.428 5.93886 148.388 5.86934C148.352 5.81585 148.304 5.77186 148.248 5.74107C148.153 5.69434 148.054 5.65803 147.951 5.63278V5.40623H150.445C150.839 5.3932 151.232 5.44611 151.609 5.56282C151.872 5.64315 152.102 5.80522 152.268 6.02593C152.42 6.26035 152.495 6.53724 152.482 6.81721C152.49 7.04461 152.444 7.27062 152.348 7.47657C152.253 7.68251 152.11 7.86249 151.932 8.00162C151.737 8.14906 151.524 8.27003 151.298 8.36145V8.40309C151.662 8.49707 151.989 8.70034 152.237 8.98614C152.45 9.25045 152.563 9.58293 152.556 9.92402C152.572 10.2858 152.475 10.6436 152.279 10.9469C152.089 11.2169 151.819 11.4183 151.507 11.5216C151.119 11.649 150.713 11.7093 150.305 11.6998H147.951ZM150.135 8.22818C150.596 8.22818 150.959 8.1149 151.194 7.89501C151.322 7.76734 151.421 7.61327 151.484 7.44335C151.548 7.27343 151.574 7.09167 151.561 6.91049C151.567 6.72946 151.532 6.54945 151.459 6.38408C151.395 6.2502 151.297 6.13544 151.176 6.05091C151.047 5.96446 150.903 5.90394 150.751 5.87267C150.575 5.83688 150.397 5.81958 150.217 5.82102C150.102 5.82102 149.949 5.82103 149.761 5.82936C149.573 5.83769 149.432 5.84102 149.338 5.84768V8.23651L150.135 8.22818ZM149.338 11.2617C149.559 11.2834 149.807 11.2933 150.081 11.2933C150.397 11.3077 150.712 11.2561 151.008 11.1418C151.215 11.0527 151.384 10.8936 151.487 10.692C151.592 10.4585 151.642 10.2037 151.634 9.94734C151.643 9.69108 151.586 9.43679 151.469 9.20937C151.358 9.01247 151.184 8.85973 150.975 8.77624C150.677 8.66882 150.362 8.62019 150.046 8.63298H149.34L149.338 11.2617Z" fill="white"/>
<path d="M156.09 11.7727C155.753 11.7759 155.417 11.7143 155.102 11.5912C154.803 11.4695 154.538 11.2742 154.331 11.0231C154.101 10.733 153.933 10.3978 153.837 10.0386C153.712 9.57188 153.653 9.08947 153.663 8.60596C153.647 8.00227 153.752 7.40165 153.972 6.84016C154.149 6.3844 154.458 5.99317 154.858 5.71738C155.256 5.45676 155.722 5.32272 156.196 5.33257C156.676 5.31563 157.151 5.44129 157.561 5.69405C157.943 5.95166 158.235 6.324 158.396 6.75854C158.783 7.90625 158.769 9.15323 158.357 10.2918C158.177 10.7472 157.863 11.1353 157.457 11.4029C157.046 11.6569 156.572 11.7853 156.09 11.7727ZM154.592 8.47603C154.592 9.42112 154.727 10.1385 154.998 10.6283C155.107 10.8537 155.276 11.043 155.488 11.1738C155.699 11.3046 155.943 11.3714 156.191 11.3663C156.502 11.3738 156.804 11.2592 157.034 11.0464C157.29 10.7888 157.471 10.464 157.554 10.1086C157.674 9.63756 157.73 9.15217 157.719 8.66594C157.733 8.10361 157.665 7.5423 157.517 7.00009C157.425 6.633 157.233 6.29967 156.962 6.03889C156.733 5.83981 156.44 5.73304 156.138 5.73904C155.889 5.73234 155.644 5.79952 155.433 5.93227C155.226 6.07175 155.056 6.26124 154.939 6.48367C154.8 6.75462 154.705 7.04658 154.657 7.34825C154.603 7.72153 154.581 8.09888 154.592 8.47603Z" fill="white"/>
<path d="M59.5235 29.6656C59.4443 29.6828 59.3675 29.7097 59.2946 29.7455C59.2508 29.7699 59.2131 29.8041 59.1842 29.8455C59.1513 29.9002 59.1305 29.9616 59.1233 30.0254C59.106 30.1478 59.0988 30.2715 59.1019 30.3952V33.5403C59.1002 33.6594 59.1057 33.7784 59.1184 33.8968C59.1258 33.959 59.1442 34.0194 59.1727 34.0751C59.2002 34.1208 59.2387 34.1586 59.2847 34.185C59.3607 34.2231 59.4409 34.2522 59.5235 34.2716V34.4499H58.0248V34.2716C58.1261 34.253 58.2226 34.2133 58.308 34.155C58.3651 34.1051 58.4035 34.0369 58.4168 33.9618C58.4393 33.8225 58.4487 33.6814 58.4447 33.5403V32.1477C58.4447 31.7829 58.4447 31.4114 58.4612 31.0382C58.4777 30.6651 58.4843 30.4069 58.4991 30.2686H58.4382L57.0135 33.8718H56.6001L55.2825 30.207H55.2216C55.2331 30.3552 55.2446 30.6234 55.2562 31.0099C55.2677 31.3964 55.2726 31.7978 55.2726 32.206V33.5387C55.27 33.6577 55.2755 33.7768 55.2891 33.8952C55.2955 33.9574 55.3133 34.0178 55.3418 34.0734C55.3699 34.1186 55.4083 34.1563 55.4538 34.1833C55.5298 34.2214 55.61 34.2505 55.6926 34.27V34.4482H54.375V34.27C54.4829 34.2502 54.5848 34.2057 54.6731 34.14C54.7267 34.0854 54.7614 34.0147 54.7719 33.9385C54.79 33.806 54.7977 33.6723 54.795 33.5387V30.3952C54.7972 30.2733 54.7911 30.1514 54.7769 30.0304C54.7698 29.9674 54.7496 29.9066 54.7176 29.8521C54.6895 29.8097 54.6517 29.7748 54.6072 29.7505C54.5328 29.7145 54.455 29.6861 54.375 29.6656V29.4873H55.658L56.9196 33.0239L58.3113 29.4873H59.5268L59.5235 29.6656Z" fill="#C9C9C9"/>
<path d="M63.9006 29.4873V30.5851H63.5481C63.5165 30.4789 63.4797 30.3744 63.4378 30.2719C63.4045 30.1938 63.3648 30.1185 63.3192 30.047C63.2829 29.9911 63.2372 29.9421 63.1841 29.9021C63.1322 29.8642 63.0726 29.8386 63.0096 29.8271C62.9302 29.8128 62.8497 29.8061 62.7691 29.8072H61.6327V31.7112H62.4018C62.487 31.7151 62.5719 31.6997 62.6505 31.6662C62.7146 31.6314 62.7664 31.5773 62.7987 31.5113C62.8501 31.4055 62.8883 31.2935 62.9124 31.1781H63.2418V32.5741H62.9124C62.8898 32.4586 62.8521 32.3465 62.8004 32.241C62.7691 32.1724 62.7187 32.1145 62.6555 32.0744C62.5759 32.0384 62.4889 32.0223 62.4018 32.0277H61.6327V34.1334H62.7576C62.8535 34.1362 62.9494 34.1255 63.0425 34.1017C63.1134 34.0834 63.1785 34.0473 63.2319 33.9968C63.2891 33.9402 63.3364 33.8743 63.3719 33.8019C63.4124 33.722 63.4465 33.639 63.474 33.5537C63.502 33.467 63.5399 33.3421 63.5877 33.1772H63.9434L63.8742 34.4532H60.5391V34.275C60.6475 34.2555 60.7501 34.211 60.8388 34.145C60.8924 34.0904 60.9271 34.0197 60.9376 33.9435C60.9557 33.811 60.9634 33.6773 60.9607 33.5437V30.3952C60.9629 30.2733 60.9569 30.1514 60.9426 30.0304C60.9355 29.9674 60.9153 29.9066 60.8833 29.8521C60.8552 29.8097 60.8174 29.7748 60.7729 29.7505C60.698 29.7143 60.6196 29.6859 60.5391 29.6656V29.4873H63.9006Z" fill="#C9C9C9"/>
<path d="M69.9493 34.4501V34.2719C69.8109 33.9198 69.6973 33.6194 69.6084 33.3706C69.4552 32.9358 69.3448 32.646 69.279 32.4977C69.2231 32.3652 69.1333 32.2502 69.0187 32.1646C68.8884 32.0803 68.7351 32.0395 68.5806 32.0479H68.2413V33.5472C68.2413 33.8548 68.271 34.0431 68.3303 34.1119C68.4226 34.1975 68.5367 34.2552 68.6597 34.2785V34.4568H67.1708V34.2785C67.295 34.2587 67.41 34.2005 67.5002 34.1119C67.5562 34.0403 67.5825 33.8537 67.5825 33.5505V32.0513H67.2531C67.101 32.0437 66.9503 32.0839 66.8216 32.1662C66.7039 32.2555 66.6114 32.3744 66.5532 32.5111C66.4807 32.666 66.3704 32.9542 66.2238 33.379C66.0459 33.8709 65.9322 34.1714 65.8828 34.2802V34.4584H64.6641V34.2802C64.8394 34.2628 65.0023 34.181 65.1219 34.0503C65.2516 33.8815 65.3564 33.6947 65.4332 33.4956L65.7494 32.7643C65.969 32.2678 66.2578 31.9635 66.6158 31.8514V31.8231C66.4824 31.7451 66.3695 31.636 66.2864 31.5049C66.1755 31.2914 66.0834 31.0684 66.0113 30.8385C65.9377 30.6069 65.8406 30.3836 65.7214 30.1722C65.6933 30.1228 65.653 30.0815 65.6046 30.0524C65.5561 30.0232 65.5011 30.0071 65.4447 30.0056C65.28 30.0056 65.173 30.1089 65.1351 30.3138H64.7859V29.5292C64.9302 29.481 65.0805 29.4541 65.2323 29.4492C65.5814 29.4492 65.8301 29.5392 65.9784 29.7191C66.177 30.0087 66.3257 30.3304 66.4181 30.6703C66.5828 31.1767 66.7212 31.4832 66.8332 31.5898C66.9522 31.7019 67.1103 31.7618 67.2729 31.7564H67.5858V30.4237C67.6027 30.2366 67.5774 30.0481 67.5117 29.8723C67.4238 29.7706 67.3018 29.7054 67.1691 29.6891V29.5109H68.6613V29.6891C68.5268 29.7107 68.4039 29.7791 68.3138 29.8823C68.2489 30.0548 68.2235 30.2399 68.2397 30.4237V31.7564H68.5576C68.6384 31.7601 68.7192 31.7473 68.7951 31.7187C68.8709 31.6901 68.9403 31.6462 68.999 31.5898C69.1088 31.4788 69.2455 31.1739 69.4091 30.6753C69.5034 30.3303 69.6573 30.0049 69.8637 29.7141C70.0102 29.5475 70.2589 29.4542 70.6064 29.4542C70.7566 29.4596 70.9052 29.4865 71.0478 29.5342V30.3021H70.6921C70.6542 30.0972 70.5504 29.994 70.3825 29.994C70.3193 29.9967 70.2581 30.0171 70.2057 30.053C70.1534 30.0889 70.1119 30.1388 70.086 30.1972C69.9789 30.4029 69.8907 30.6181 69.8225 30.8402C69.7506 31.077 69.6528 31.305 69.531 31.5199C69.4491 31.6422 69.3424 31.7456 69.218 31.8231V31.8514C69.5902 31.9647 69.8768 32.2695 70.081 32.7643L70.3973 33.4956C70.4763 33.7061 70.5874 33.9029 70.7267 34.0786C70.8458 34.1913 70.9977 34.262 71.1598 34.2802V34.4584L69.9493 34.4501Z" fill="#C9C9C9"/>
<path d="M72.9999 33.5303C72.9985 33.6418 73.0062 33.7533 73.0229 33.8635C73.0339 33.9348 73.0585 34.0033 73.0954 34.0651C73.1277 34.115 73.1726 34.1553 73.2255 34.1817C73.3089 34.2188 73.3962 34.2462 73.4857 34.2633V34.4415H71.9062V34.2633C72.0147 34.2438 72.1173 34.1994 72.206 34.1334C72.2596 34.0787 72.2943 34.008 72.3048 33.9318C72.3229 33.7993 72.3306 33.6657 72.3279 33.532V30.3952C72.3301 30.2733 72.324 30.1514 72.3098 30.0304C72.3027 29.9674 72.2825 29.9066 72.2505 29.8521C72.2224 29.8097 72.1846 29.7748 72.1401 29.7505C72.0652 29.7143 71.9868 29.6859 71.9062 29.6656V29.4873H73.69C74.2499 29.4873 74.6683 29.5956 74.9417 29.8121C75.2151 30.0287 75.3534 30.3602 75.3534 30.8117C75.357 31.0447 75.3132 31.276 75.225 31.4913C75.1452 31.686 75.019 31.8577 74.8577 31.9911C74.6927 32.1227 74.5017 32.2169 74.2977 32.2676C74.0752 32.3237 73.8468 32.3516 73.6175 32.3509C73.3529 32.3509 73.147 32.3459 72.9999 32.3359V33.5303ZM72.9999 32.0211H73.4166C73.6446 32.0276 73.8718 31.9915 74.0869 31.9145C74.2585 31.8464 74.4016 31.7204 74.492 31.558C74.5944 31.3517 74.6426 31.1222 74.632 30.8916C74.6369 30.7136 74.609 30.5362 74.5497 30.3685C74.5009 30.2405 74.4224 30.1262 74.3208 30.0354C74.2202 29.9487 74.1013 29.8866 73.9732 29.8538C73.83 29.8179 73.6827 29.8006 73.5351 29.8022C73.298 29.8022 73.1201 29.8022 72.9999 29.8172V32.0211Z" fill="#C9C9C9"/>
<path d="M79.5959 29.4873V30.5851H79.2435C79.2114 30.4789 79.174 30.3743 79.1314 30.2719C79.0995 30.1931 79.0598 30.1178 79.0129 30.047C78.977 29.9908 78.9312 29.9416 78.8778 29.9021C78.8259 29.8642 78.7662 29.8386 78.7032 29.8271C78.6239 29.8127 78.5434 29.806 78.4628 29.8072H77.328V31.7112H78.0971C78.1818 31.7151 78.2662 31.6997 78.3442 31.6662C78.4091 31.632 78.4616 31.5777 78.4941 31.5113C78.5455 31.4056 78.5831 31.2936 78.6061 31.1781H78.9453V32.5741H78.6061C78.5839 32.4587 78.5468 32.3466 78.4957 32.241C78.4643 32.1719 78.4133 32.1139 78.3491 32.0744C78.2701 32.0383 78.1836 32.0223 78.0971 32.0277H77.328V34.1334H78.4446C78.5412 34.1361 78.6376 34.1255 78.7312 34.1017C78.8014 34.083 78.866 34.0469 78.919 33.9968C78.9786 33.9406 79.0277 33.874 79.0639 33.8002C79.1049 33.7204 79.1396 33.6374 79.1677 33.552C79.194 33.4654 79.2319 33.3404 79.2797 33.1755H79.6354L79.558 34.4499H76.2344V34.2716C76.3423 34.2522 76.4444 34.2077 76.5325 34.1417C76.5875 34.0881 76.6225 34.0169 76.6313 33.9401C76.6502 33.8078 76.6579 33.674 76.6544 33.5403V30.3952C76.6574 30.2733 76.6514 30.1513 76.6362 30.0304C76.6292 29.9674 76.609 29.9066 76.577 29.8521C76.55 29.8094 76.5125 29.7744 76.4682 29.7505C76.3932 29.7146 76.3149 29.6862 76.2344 29.6656V29.4873H79.5959Z" fill="#C9C9C9"/>
<path d="M83.5126 30.8322C83.4767 30.5511 83.3836 30.2806 83.2392 30.0376C83.1805 29.9636 83.1048 29.9054 83.0186 29.8679C82.9325 29.8304 82.8386 29.8149 82.7451 29.8227H81.7108V33.5309C81.6963 33.7179 81.7298 33.9056 81.808 34.0756C81.8722 34.1823 82.0204 34.2422 82.2527 34.2722V34.4505H80.6172V34.2722C80.7466 34.2569 80.8672 34.1983 80.9598 34.1056C81.0125 34.034 81.0388 33.8474 81.0388 33.5492V30.4008C81.0388 30.0976 81.0108 29.901 80.9532 29.836C80.8634 29.7469 80.7481 29.6887 80.6238 29.6695V29.4912H83.8667V30.8356L83.5126 30.8322Z" fill="#C9C9C9"/>
<path d="M87.4096 34.4499V34.2716C87.5441 34.2525 87.667 34.1843 87.7554 34.0801C87.8181 33.9088 87.8423 33.7256 87.8263 33.5437V31.9811C87.8263 31.4691 87.8312 31.1404 87.8411 30.9949H87.8263L85.7823 33.5437C85.7636 33.7305 85.7902 33.9192 85.8597 34.0934C85.9493 34.1904 86.0691 34.2534 86.199 34.2716V34.4499H84.6953V34.2716C84.8312 34.2526 84.9558 34.1846 85.0461 34.0801C85.1113 33.9094 85.1367 33.7258 85.1202 33.5437V30.4002C85.1202 30.0804 85.0889 29.8871 85.0264 29.8221C84.9328 29.7404 84.8189 29.6862 84.697 29.6656V29.4873H86.2007V29.6656C86.0775 29.6883 85.9632 29.7461 85.8713 29.8321C85.812 29.8988 85.784 30.0887 85.784 30.4052V32.0044C85.784 32.3626 85.784 32.6708 85.7609 32.909H85.784L87.8279 30.3602C87.8422 30.1902 87.8174 30.0192 87.7554 29.8605C87.6655 29.7596 87.5439 29.6931 87.4112 29.6722V29.494H88.9067V29.6722C88.7835 29.6949 88.6692 29.7527 88.5773 29.8388C88.5197 29.9054 88.49 30.0953 88.49 30.4119V33.5553C88.4721 33.7422 88.4987 33.9307 88.5674 34.1051C88.6569 34.2021 88.7767 34.265 88.9067 34.2833V34.4615L87.4096 34.4499Z" fill="#C9C9C9"/>
<path d="M91.8544 34.509C91.5859 34.5124 91.3192 34.4637 91.0688 34.3657C90.8325 34.2698 90.6236 34.1158 90.461 33.9176C90.2783 33.6893 90.1448 33.4249 90.0691 33.1413C89.9699 32.7729 89.9233 32.392 89.9307 32.0102C89.9195 31.5348 90.0024 31.0618 90.1744 30.6192C90.3151 30.2598 90.5589 29.9512 90.8744 29.733C91.1887 29.5279 91.5563 29.4224 91.9302 29.4298C92.3084 29.417 92.6822 29.516 93.0057 29.7147C93.3061 29.9157 93.5365 30.207 93.6645 30.5476C93.822 30.9797 93.8969 31.4382 93.8851 31.8986C93.8992 32.3897 93.8134 32.8784 93.6331 33.3346C93.4918 33.6939 93.2438 34 92.9233 34.2108C92.6027 34.412 92.2316 34.5155 91.8544 34.509ZM90.6718 31.9086C90.6718 32.6538 90.7816 33.2202 91.0012 33.6078C91.0868 33.7854 91.2208 33.9345 91.3874 34.0375C91.5541 34.1406 91.7464 34.1932 91.9417 34.1892C92.1853 34.1934 92.4212 34.1028 92.6005 33.9359C92.803 33.7332 92.9451 33.4769 93.0106 33.1963C93.108 32.8253 93.154 32.4424 93.1473 32.0585C93.1568 31.6146 93.1013 31.1717 92.9826 30.7442C92.911 30.4548 92.7596 30.192 92.5461 29.9862C92.3674 29.8302 92.1382 29.746 91.9021 29.7497C91.7062 29.7439 91.513 29.7973 91.3471 29.9029C91.1851 30.0122 91.0531 30.1612 90.9634 30.336C90.853 30.5501 90.7774 30.7807 90.7394 31.019C90.6916 31.313 90.669 31.6107 90.6718 31.9086Z" fill="#C9C9C9"/>
<path d="M98.6618 33.5403C98.6601 33.646 98.6639 33.7516 98.6734 33.8568C98.6774 33.9139 98.6896 33.97 98.7096 34.0234C98.7236 34.0613 98.7442 34.0963 98.7705 34.1267C98.7996 34.1571 98.8343 34.1815 98.8727 34.1983C98.9389 34.2283 99.0078 34.2517 99.0785 34.2683V34.4465H97.5732V34.2683C97.6718 34.2489 97.7657 34.2105 97.8499 34.155C97.9065 34.1066 97.9454 34.0403 97.9602 33.9668C97.9845 33.8249 97.9944 33.6809 97.9899 33.537V32.0177H95.9904V33.5403C95.9887 33.6594 95.9942 33.7784 96.0069 33.8968C96.0143 33.959 96.0327 34.0194 96.0612 34.0751C96.0886 34.1208 96.1272 34.1586 96.1732 34.185C96.2492 34.2231 96.3294 34.2522 96.412 34.2716V34.4499H94.8984V34.2716C95.0064 34.2522 95.1084 34.2077 95.1965 34.1417C95.2516 34.0881 95.2865 34.0169 95.2954 33.9401C95.3143 33.8078 95.322 33.674 95.3184 33.5403V30.3952C95.3215 30.2733 95.3154 30.1513 95.3003 30.0304C95.2933 29.9674 95.2731 29.9066 95.241 29.8521C95.2136 29.8097 95.1762 29.7748 95.1323 29.7505C95.0572 29.7146 94.9789 29.6862 94.8984 29.6656V29.4873H96.412V29.6656C96.3328 29.6828 96.256 29.7097 96.1831 29.7455C96.1393 29.7699 96.1016 29.8041 96.0728 29.8455C96.0398 29.9002 96.019 29.9616 96.0118 30.0254C95.9953 30.1479 95.9882 30.2716 95.9904 30.3952V31.6829H97.9899V30.3952C97.9952 30.2507 97.9852 30.1061 97.9602 29.9637C97.9446 29.8949 97.9083 29.8327 97.8564 29.7855C97.7709 29.7268 97.6746 29.686 97.5732 29.6656V29.4873H99.0785V29.6656C98.9789 29.6847 98.8838 29.7232 98.7985 29.7788C98.7424 29.8286 98.7047 29.8961 98.6915 29.9704C98.6673 30.1106 98.6574 30.2529 98.6618 30.3952V33.5403Z" fill="#C9C9C9"/>
<path d="M102.526 34.4506V34.2723C102.618 34.2559 102.708 34.229 102.794 34.1924C102.849 34.1657 102.895 34.1234 102.926 34.0707C102.957 34.0054 102.972 33.9333 102.969 33.8608C102.968 33.7712 102.958 33.6819 102.939 33.5943C102.918 33.4857 102.89 33.3783 102.857 33.2728L102.723 32.803H101.048L100.926 33.1595C100.877 33.2928 100.836 33.4291 100.805 33.5677C100.786 33.6496 100.776 33.7334 100.775 33.8175C100.77 33.8757 100.778 33.9342 100.797 33.9893C100.816 34.0444 100.846 34.0948 100.885 34.1374C100.979 34.2144 101.094 34.2613 101.215 34.2723V34.4506H99.6797V34.2723C99.7509 34.2587 99.8186 34.2307 99.8788 34.1901C99.9391 34.1494 99.9907 34.097 100.03 34.0358C100.152 33.8561 100.249 33.6605 100.319 33.4544L101.819 29.4297H102.387L103.609 33.4827C103.651 33.6302 103.701 33.7748 103.761 33.9158C103.799 34.0042 103.856 34.0836 103.926 34.149C104 34.2099 104.087 34.2522 104.181 34.2723V34.4506H102.526ZM101.139 32.4865H102.641L101.962 30.136L101.139 32.4865Z" fill="#C9C9C9"/>
<path d="M108.953 34.4499H107.428V34.2716C107.633 34.2228 107.756 34.1511 107.799 34.0567C107.852 33.8902 107.874 33.715 107.863 33.5403V29.8022H106.865C106.807 30.4737 106.71 31.1412 106.574 31.8012C106.468 32.3737 106.317 32.9368 106.124 33.4853C105.967 33.8974 105.807 34.17 105.645 34.3033C105.488 34.4338 105.291 34.5046 105.088 34.5032C104.899 34.5055 104.711 34.4757 104.531 34.4149V33.6819H104.884C104.905 33.8485 104.989 33.9385 105.136 33.9385C105.197 33.9345 105.257 33.9176 105.311 33.8889C105.366 33.8602 105.414 33.8204 105.452 33.7719C105.554 33.6608 105.674 33.3943 105.811 32.9723C105.967 32.4712 106.094 31.9611 106.19 31.4447C106.285 31.0181 106.344 30.5839 106.364 30.147C106.377 30.0189 106.349 29.8902 106.285 29.7788C106.211 29.7016 106.109 29.6568 106.002 29.6539V29.4873H108.953V29.6656C108.823 29.6828 108.702 29.7451 108.611 29.8421C108.544 30.0182 108.519 30.2075 108.537 30.3952V33.5403C108.52 33.7269 108.545 33.9148 108.611 34.0901C108.7 34.1896 108.822 34.2539 108.953 34.2716V34.4499Z" fill="#C9C9C9"/>
<path d="M109.977 34.4499V34.2716C110.112 34.2522 110.237 34.1842 110.327 34.0801C110.393 33.9094 110.418 33.7258 110.401 33.5437V30.4002C110.401 30.0804 110.37 29.8871 110.308 29.8221C110.214 29.7404 110.1 29.6862 109.978 29.6656V29.4873H111.497V29.6656C111.357 29.6826 111.23 29.7544 111.143 29.8655C111.081 30.0365 111.057 30.2189 111.072 30.4002V31.6429C111.414 31.6146 111.717 31.5996 111.981 31.5996C113.07 31.5996 113.614 32.0588 113.613 32.9773C113.613 33.959 113.013 34.4499 111.813 34.4499H109.977ZM111.07 31.9678V34.1067C111.245 34.12 111.442 34.1284 111.663 34.1284C112.095 34.1284 112.405 34.0384 112.595 33.8585C112.785 33.6786 112.881 33.3976 112.882 33.0156C112.882 32.2982 112.513 31.9394 111.775 31.9394C111.54 31.9363 111.304 31.9457 111.07 31.9678Z" fill="#C9C9C9"/>
<path d="M118.287 33.5403C118.285 33.646 118.289 33.7516 118.298 33.8568C118.303 33.9136 118.314 33.9696 118.333 34.0234C118.348 34.0612 118.369 34.0961 118.396 34.1267C118.425 34.1571 118.459 34.1815 118.498 34.1983C118.564 34.2286 118.633 34.252 118.704 34.2683V34.4465H117.198V34.2683C117.297 34.2489 117.391 34.2105 117.475 34.155C117.532 34.1073 117.571 34.0406 117.584 33.9668C117.609 33.8251 117.62 33.681 117.615 33.537V32.0177H115.615V33.5403C115.614 33.6594 115.619 33.7784 115.632 33.8968C115.639 33.959 115.658 34.0194 115.686 34.0751C115.714 34.1208 115.752 34.1586 115.798 34.185C115.874 34.2231 115.954 34.2522 116.037 34.2716V34.4499H114.523V34.2716C114.631 34.2522 114.733 34.2077 114.822 34.1417C114.877 34.0881 114.912 34.0169 114.92 33.9401C114.939 33.8078 114.947 33.674 114.943 33.5403V30.3952C114.947 30.2733 114.94 30.1513 114.925 30.0304C114.918 29.9674 114.898 29.9066 114.866 29.8521C114.839 29.8097 114.801 29.7748 114.757 29.7505C114.682 29.7146 114.604 29.6862 114.523 29.6656V29.4873H116.037V29.6656C115.958 29.6828 115.881 29.7097 115.808 29.7455C115.764 29.7699 115.727 29.8041 115.698 29.8455C115.664 29.9001 115.643 29.9615 115.635 30.0254C115.619 30.148 115.613 30.2716 115.615 30.3952V31.6829H117.612V30.3952C117.617 30.2506 117.607 30.1059 117.58 29.9637C117.566 29.8949 117.53 29.8325 117.478 29.7855C117.393 29.7268 117.296 29.686 117.195 29.6656V29.4873H118.7V29.6656C118.601 29.6847 118.505 29.7232 118.42 29.7788C118.364 29.8286 118.326 29.8961 118.313 29.9704C118.289 30.1106 118.279 30.2529 118.284 30.3952L118.287 33.5403Z" fill="#C9C9C9"/>
<path d="M119.722 34.4499V34.2716C119.844 34.2518 119.958 34.1975 120.051 34.115C120.111 34.0501 120.14 33.8602 120.14 33.5437V30.4002C120.14 30.0804 120.111 29.8871 120.048 29.8221C119.955 29.7404 119.841 29.6862 119.719 29.6656V29.4873H121.232V29.6656C121.093 29.6831 120.966 29.7548 120.878 29.8655C120.818 30.0367 120.794 30.2189 120.807 30.4002V31.6429C121.137 31.6146 121.437 31.5996 121.689 31.5996C122.732 31.5996 123.253 32.0588 123.253 32.9773C123.253 33.959 122.676 34.4499 121.521 34.4499H119.722ZM120.814 31.9694V34.1084C120.979 34.1217 121.175 34.13 121.394 34.13C121.825 34.13 122.131 34.0384 122.311 33.8552C122.409 33.7414 122.483 33.6092 122.53 33.4663C122.576 33.3233 122.594 33.1724 122.583 33.0222C122.583 32.3048 122.222 31.9461 121.501 31.9461C121.272 31.9409 121.042 31.9481 120.814 31.9678V31.9694ZM123.571 34.4499V34.2716C123.692 34.2508 123.806 34.1979 123.9 34.1184C123.963 34.0551 123.994 33.8635 123.994 33.5437V30.4002C123.994 30.097 123.966 29.9004 123.909 29.8355C123.819 29.7464 123.704 29.6881 123.579 29.6689V29.4906H125.093V29.6689C124.959 29.6903 124.836 29.7587 124.747 29.8621C124.682 30.0346 124.657 30.2197 124.673 30.4035V33.547C124.673 33.8552 124.703 34.0467 124.76 34.1117C124.852 34.1973 124.967 34.255 125.09 34.2783V34.4565L123.571 34.4499Z" fill="#C9C9C9"/>
<path d="M128.839 34.4502V34.2719C128.973 34.2524 129.095 34.1843 129.183 34.0804C129.247 33.9093 129.272 33.726 129.256 33.544V31.9814C129.256 31.4694 129.261 31.1407 129.271 30.9952H129.256L127.21 33.544C127.193 33.7308 127.219 33.9193 127.288 34.0937C127.377 34.1907 127.497 34.2537 127.627 34.2719V34.4502H126.125V34.2719C126.261 34.2525 126.385 34.1845 126.476 34.0804C126.541 33.9097 126.566 33.7261 126.55 33.544V30.4005C126.55 30.0807 126.519 29.8874 126.456 29.8224C126.363 29.7407 126.249 29.6865 126.127 29.6659V29.4876H127.629V29.6659C127.505 29.6878 127.391 29.7457 127.299 29.8324C127.24 29.8991 127.21 30.089 127.21 30.4055V32.0047C127.21 32.3629 127.21 32.6711 127.189 32.9093H127.21L129.256 30.3605C129.271 30.1903 129.245 30.019 129.182 29.8608C129.093 29.7599 128.972 29.6934 128.839 29.6725V29.4943H130.335V29.6725C130.212 29.6952 130.097 29.753 130.005 29.8391C129.946 29.9057 129.918 30.0956 129.918 30.4121V33.5556C129.899 33.7425 129.926 33.9312 129.995 34.1054C130.085 34.2024 130.205 34.2653 130.335 34.2836V34.4618L128.839 34.4502ZM129.414 28.1499C129.417 28.2767 129.387 28.4021 129.326 28.513C129.265 28.624 129.176 28.7166 129.068 28.7813C128.811 28.9417 128.512 29.0217 128.21 29.0112C127.907 29.0292 127.605 28.9518 127.347 28.7896C127.247 28.7175 127.167 28.6211 127.114 28.5093C127.06 28.3975 127.036 28.2739 127.042 28.1499V28H127.653V28.1499C127.64 28.3097 127.686 28.4688 127.782 28.5964C127.842 28.6494 127.911 28.6894 127.987 28.7138C128.063 28.7381 128.143 28.7464 128.222 28.738C128.302 28.7557 128.385 28.7529 128.464 28.7298C128.543 28.7067 128.615 28.664 128.674 28.6056C128.733 28.5472 128.776 28.4749 128.8 28.3954C128.824 28.3158 128.828 28.2314 128.811 28.1499V28H129.419L129.414 28.1499Z" fill="#C9C9C9"/>
<path d="M56.4576 40.9035H55.4842V42.4411C55.4842 42.7459 55.5122 42.9408 55.5682 43.0025C55.6618 43.0918 55.7802 43.1499 55.9075 43.1691V43.3456H54.3906V43.1691C54.526 43.1482 54.65 43.0805 54.7414 42.9775C54.8064 42.8068 54.8318 42.6233 54.8156 42.4411V39.2976C54.8156 38.9778 54.7843 38.7845 54.7217 38.7196C54.6274 38.639 54.5138 38.585 54.3923 38.563V38.3847H55.9092V38.563C55.77 38.5809 55.6432 38.6525 55.5551 38.7629C55.4955 38.9343 55.4719 39.1164 55.4859 39.2976V40.5853H56.4741C56.529 39.8501 56.7261 39.2898 57.0654 38.9045C57.2325 38.7141 57.4393 38.5635 57.6708 38.4636C57.9023 38.3637 58.1528 38.3168 58.4044 38.3264C59.0236 38.3264 59.4941 38.5374 59.8159 38.9594C60.1376 39.3815 60.2951 39.9939 60.2885 40.7969C60.2885 41.6231 60.1156 42.2634 59.7697 42.7176C59.601 42.9412 59.3811 43.1201 59.1289 43.2388C58.8767 43.3574 58.5998 43.4124 58.322 43.3989C57.0901 43.4023 56.4686 42.5705 56.4576 40.9035ZM58.3517 38.6446C57.5644 38.6446 57.1702 39.3665 57.1691 40.8102C57.1691 42.3273 57.5732 43.0858 58.3813 43.0858C58.5629 43.0873 58.7412 43.036 58.8948 42.938C59.0484 42.8399 59.1709 42.6992 59.2476 42.5327C59.4486 42.1629 59.549 41.6387 59.549 40.9601C59.549 40.2038 59.4453 39.6291 59.2378 39.236C59.0302 38.8428 58.7349 38.6457 58.3517 38.6446Z" fill="#C9C9C9"/>
<path d="M62.4123 42.4257C62.41 42.5401 62.4182 42.6544 62.437 42.7672C62.4475 42.8389 62.4716 42.9079 62.5078 42.9705C62.5407 43.02 62.5863 43.0597 62.6396 43.0854C62.7223 43.1232 62.809 43.1512 62.8981 43.1687V43.3453H61.3203V43.1687C61.4277 43.1474 61.5294 43.1031 61.6184 43.0388C61.6729 42.9848 61.7078 42.9137 61.7172 42.8372C61.7353 42.7047 61.743 42.5711 61.7403 42.4374V39.2973C61.7434 39.1754 61.7374 39.0534 61.7222 38.9324C61.7154 38.8694 61.6952 38.8086 61.6629 38.7542C61.636 38.7114 61.5985 38.6764 61.5542 38.6526C61.4795 38.6152 61.4011 38.5862 61.3203 38.5659V38.3877H63.1024C63.664 38.3877 64.0807 38.4976 64.3557 38.7209C64.6308 38.9441 64.7675 39.2673 64.7675 39.7104C64.7715 39.9442 64.7272 40.1762 64.6374 40.3917C64.5585 40.5865 64.4328 40.7583 64.2717 40.8915C64.1069 41.0243 63.9152 41.1187 63.7101 41.168C63.4884 41.2249 63.2603 41.2529 63.0316 41.2513C62.7647 41.2513 62.5589 41.2513 62.4123 41.238V42.4257ZM62.4123 40.9265H62.8306C63.0588 40.9334 63.2862 40.8967 63.5009 40.8182C63.6722 40.7501 63.8148 40.6241 63.9045 40.4617C64.008 40.2558 64.0563 40.026 64.0445 39.7953C64.0492 39.6179 64.0213 39.4411 63.9621 39.2739C63.9159 39.1465 63.8393 39.0327 63.739 38.9426C63.6387 38.8524 63.5178 38.7889 63.3873 38.7575C63.2441 38.7212 63.0969 38.7033 62.9492 38.7042C62.712 38.7042 62.5325 38.7042 62.4123 38.7192V40.9265Z" fill="#C9C9C9"/>
<path d="M68.3627 43.3457V43.1691C68.4967 43.1485 68.6192 43.0806 68.7086 42.9775C68.7711 42.8062 68.7952 42.623 68.7794 42.4411V40.8785C68.7794 40.3671 68.7794 40.0456 68.7942 39.8924H68.7794L66.7355 42.4411C66.7167 42.628 66.7433 42.8167 66.8129 42.9908C66.9029 43.0872 67.0224 43.1501 67.1522 43.1691V43.3457H65.6484V43.1691C65.7839 43.1486 65.908 43.0809 65.9992 42.9775C66.0642 42.8068 66.0896 42.6233 66.0734 42.4411V39.2976C66.0734 38.9778 66.0421 38.7846 65.9795 38.7196C65.8854 38.6387 65.7717 38.5847 65.6501 38.563V38.3848H67.1538V38.563C67.0306 38.5857 66.9163 38.6435 66.8244 38.7296C66.7651 38.7962 66.7371 38.9878 66.7371 39.3027V40.9019C66.7371 41.2617 66.7371 41.5682 66.7157 41.8081H66.7371L68.781 39.2593C68.7964 39.0893 68.7715 38.918 68.7086 38.7596C68.6193 38.6575 68.4975 38.5903 68.3643 38.5697V38.3914H69.8598V38.5697C69.7366 38.5924 69.6223 38.6502 69.5304 38.7363C69.4711 38.8029 69.4415 38.9945 69.4415 39.3093V42.4544C69.4236 42.6413 69.4501 42.8298 69.5189 43.0042C69.6089 43.1006 69.7284 43.1634 69.8582 43.1824V43.359L68.3627 43.3457Z" fill="#C9C9C9"/>
<path d="M74.6194 44.6519C74.6004 44.4037 74.554 44.1584 74.4811 43.9206C74.442 43.7456 74.3553 43.5852 74.2308 43.4575C74.1209 43.3786 73.9881 43.3393 73.8536 43.3458H71.701C71.5894 43.3408 71.479 43.3699 71.3841 43.4294C71.2892 43.4888 71.2142 43.5758 71.169 43.679C71.0381 43.987 70.9649 44.3169 70.9532 44.6519H70.5859V43.0127H70.9384C71.3651 42.4497 71.6845 41.8114 71.8805 41.1303C72.1039 40.4608 72.2261 39.761 72.2428 39.0546C72.2528 38.9325 72.2282 38.81 72.172 38.7014C72.1357 38.6604 72.0913 38.6275 72.0417 38.6048C71.992 38.5821 71.9382 38.5702 71.8838 38.5698V38.3916H74.8286V38.5698C74.7059 38.5942 74.5921 38.6518 74.4992 38.7364C74.4416 38.8031 74.4119 38.9946 74.4119 39.3112V43.0127H74.99V44.6519H74.6194ZM73.735 38.7031H72.7254C72.5783 40.5655 72.1621 42.0021 71.477 43.0127H73.735V38.7031Z" fill="#C9C9C9"/>
<path d="M78.5798 43.3457V43.1691C78.7138 43.1485 78.8363 43.0806 78.9257 42.9775C78.989 42.8064 79.0137 42.6231 78.9981 42.4411V40.8785C78.9981 40.3671 78.9981 40.0456 79.0113 39.8924H78.9981L76.9526 42.4411C76.9338 42.628 76.9604 42.8167 77.03 42.9908C77.12 43.0872 77.2395 43.1501 77.3693 43.1691V43.3457H75.8672V43.1691C76.0022 43.1488 76.1259 43.081 76.2164 42.9775C76.2813 42.8068 76.3067 42.6233 76.2905 42.4411V39.2976C76.2905 38.9778 76.2592 38.7846 76.1966 38.7196C76.1027 38.6385 75.9889 38.5844 75.8672 38.563V38.3848H77.3693V38.563C77.246 38.5857 77.1318 38.6435 77.0399 38.7296C76.9822 38.7962 76.9526 38.9878 76.9526 39.3027V40.9019C76.9526 41.2617 76.9443 41.5682 76.9311 41.8081H76.9526L78.9981 39.2593C79.0132 39.0892 78.9878 38.9178 78.924 38.7596C78.835 38.6572 78.7131 38.5899 78.5798 38.5697V38.3914H80.0753V38.5697C79.9521 38.5924 79.8378 38.6502 79.7459 38.7363C79.6866 38.8029 79.6569 38.9945 79.6569 39.3093V42.4544C79.639 42.6413 79.6656 42.8298 79.7343 43.0042C79.8243 43.1006 79.9439 43.1634 80.0736 43.1824V43.359L78.5798 43.3457Z" fill="#C9C9C9"/>
<path d="M83.3019 43.3454V43.1688C83.4353 43.1478 83.5572 43.08 83.6461 42.9772C83.7095 42.8061 83.7342 42.6229 83.7186 42.4408V41.1615C83.3515 41.2526 82.975 41.3002 82.597 41.303C82.1507 41.303 81.813 41.2048 81.5808 41.0082C81.3486 40.8116 81.2349 40.4718 81.2349 39.987V39.2974C81.2505 39.1142 81.2281 38.9298 81.1691 38.756C81.0815 38.6529 80.9607 38.5845 80.8281 38.5627V38.3845H82.3269V38.5627C82.1928 38.5854 82.0707 38.6543 81.981 38.7576C81.9158 38.9294 81.8905 39.1141 81.9069 39.2974V39.982C81.9069 40.3718 81.9794 40.6328 82.1243 40.765C82.3089 40.9101 82.5401 40.9807 82.7732 40.9632C83.0927 40.9645 83.4108 40.9213 83.7186 40.8349V39.2974C83.7186 38.9908 83.6906 38.7976 83.6363 38.7276C83.5467 38.6383 83.4313 38.5799 83.3069 38.5611V38.3828H84.8205V38.5611C84.6859 38.5838 84.5633 38.6526 84.4729 38.756C84.4077 38.9278 84.3824 39.1124 84.3988 39.2957V42.4408C84.3988 42.749 84.4285 42.9406 84.4878 43.0039C84.5794 43.0904 84.6938 43.1483 84.8172 43.1705V43.347L83.3019 43.3454Z" fill="#C9C9C9"/>
<path d="M89.2131 38.3828V39.4823H88.8606C88.8288 39.3759 88.7914 39.2714 88.7486 39.1691C88.7163 39.0899 88.6766 39.0141 88.6301 38.9425C88.5933 38.887 88.5476 38.838 88.495 38.7976C88.4431 38.7597 88.3834 38.7341 88.3204 38.7226C88.2411 38.7082 88.1606 38.7015 88.08 38.7027H86.9435V40.6084H87.7143C87.799 40.6124 87.8834 40.5971 87.9614 40.5634C88.0263 40.5291 88.0788 40.4749 88.1112 40.4085C88.1624 40.3025 88.2005 40.1906 88.2249 40.0753H88.5543V41.463H88.2249C88.201 41.3477 88.1634 41.2359 88.1129 41.1298C88.0797 41.0641 88.0289 41.0093 87.9663 40.9715C87.8871 40.9363 87.8008 40.9203 87.7143 40.9249H86.9435V43.0222H88.0618C88.1582 43.0246 88.2545 43.0145 88.3484 42.9922C88.4184 42.9728 88.4827 42.9369 88.5362 42.8873C88.5939 42.8312 88.6413 42.7652 88.6762 42.6924C88.7175 42.6121 88.7522 42.5285 88.7799 42.4425C88.8063 42.3575 88.8442 42.2309 88.8919 42.066H89.2477L89.1801 43.3421H85.8516V43.1655C85.9591 43.1445 86.0608 43.1002 86.1497 43.0355C86.2042 42.9816 86.239 42.9105 86.2485 42.834C86.2674 42.7016 86.2751 42.5679 86.2715 42.4342V39.2974C86.2747 39.1755 86.2686 39.0535 86.2534 38.9325C86.2467 38.8695 86.2264 38.8087 86.1941 38.7543C86.1672 38.7115 86.1298 38.6765 86.0854 38.6527C86.0108 38.6153 85.9324 38.5863 85.8516 38.5661V38.3878L89.2131 38.3828Z" fill="#C9C9C9"/>
<path d="M93.5394 38.4892V39.4887H93.1837C93.1397 39.3106 93.0656 39.1415 92.9646 38.9889C92.8868 38.8739 92.7807 38.7814 92.6566 38.7207C92.5219 38.6651 92.3772 38.6379 92.2317 38.6407C91.9892 38.6395 91.7547 38.7284 91.5729 38.8906C91.356 39.0934 91.1987 39.3528 91.1183 39.6403C90.9992 40.0312 90.9435 40.4391 90.9536 40.848C90.9462 41.2577 90.9922 41.6665 91.0903 42.0641C91.1537 42.3495 91.2926 42.612 91.4922 42.8237C91.5797 42.9085 91.683 42.9749 91.7961 43.0189C91.9092 43.0629 92.0299 43.0838 92.151 43.0802C92.3154 43.0861 92.4792 43.0571 92.6319 42.9953C92.7597 42.9362 92.8687 42.8421 92.9465 42.7238C93.0529 42.555 93.1344 42.3715 93.1886 42.179H93.5444V43.2185C93.3173 43.2805 93.0861 43.3261 92.8526 43.3551C92.5947 43.3864 92.335 43.4014 92.0752 43.4001C91.4658 43.4001 91.0058 43.1919 90.6951 42.7754C90.3843 42.3589 90.2284 41.737 90.2273 40.9096C90.2178 40.4437 90.3001 39.9804 90.4694 39.547C90.6105 39.1735 90.864 38.8543 91.194 38.6343C91.5241 38.4143 91.9142 38.3047 92.3091 38.3209C92.7266 38.3165 93.1426 38.3726 93.5444 38.4875L93.5394 38.4892Z" fill="#C9C9C9"/>
<path d="M97.4885 43.3455V43.169C97.3897 42.9241 97.3073 42.7092 97.2398 42.5243L96.9713 41.7896C96.9082 41.6032 96.8247 41.4244 96.7226 41.2566C96.6573 41.1553 96.5678 41.0722 96.4624 41.015C96.3346 40.9596 96.1961 40.934 96.0572 40.9401H95.6191V42.4393C95.6012 42.6262 95.6278 42.8147 95.6965 42.9891C95.7865 43.0855 95.9061 43.1483 96.0358 43.1673V43.3439H94.5189V43.1673C94.6408 43.1464 94.7547 43.0923 94.8483 43.0107C94.9076 42.9441 94.9389 42.7542 94.9389 42.4393V39.2975C94.9389 38.9777 94.9076 38.7845 94.845 38.7195C94.7507 38.639 94.6371 38.585 94.5156 38.5629V38.3846H96.0325V38.5629C95.9095 38.5863 95.7954 38.644 95.7031 38.7295C95.6455 38.7961 95.6158 38.9877 95.6158 39.3025V40.6352H96.0473C96.1316 40.64 96.216 40.6267 96.2949 40.5963C96.3738 40.5658 96.4454 40.5189 96.5052 40.4586C96.615 40.3476 96.7572 40.0466 96.9318 39.5557C97.0309 39.2112 97.1911 38.8878 97.4045 38.6012C97.5604 38.4235 97.8162 38.3341 98.172 38.333C98.3231 38.3397 98.4726 38.3666 98.6167 38.413V39.2459H98.2609C98.2329 39.006 98.1292 38.8861 97.948 38.8861C97.8918 38.8873 97.8368 38.9022 97.7875 38.9294C97.7382 38.9567 97.6961 38.9955 97.6647 39.0427C97.5299 39.2601 97.4195 39.4919 97.3353 39.734C97.2568 39.9551 97.161 40.1696 97.0487 40.3753C96.9659 40.5107 96.8531 40.6247 96.7193 40.7085V40.7385C97.1113 40.8584 97.4144 41.1616 97.6285 41.6431L97.9579 42.381C98.0396 42.5893 98.1505 42.7845 98.2873 42.9607C98.4039 43.0827 98.5613 43.1563 98.7287 43.1673V43.3439L97.4885 43.3455Z" fill="#C9C9C9"/>
<path d="M102.16 43.3457V43.1691C102.294 43.1485 102.416 43.0806 102.505 42.9775C102.568 42.8062 102.592 42.623 102.576 42.4411V40.8785C102.576 40.3671 102.576 40.0456 102.591 39.8924H102.576L100.532 42.4411C100.514 42.6278 100.54 42.8162 100.608 42.9908C100.699 43.0873 100.819 43.15 100.949 43.1691V43.3457H99.4453V43.1691C99.5807 43.1482 99.7046 43.0805 99.7961 42.9775C99.8611 42.8068 99.8865 42.6233 99.8702 42.4411V39.2976C99.8702 38.9778 99.8389 38.7846 99.7764 38.7196C99.682 38.6391 99.5684 38.5851 99.447 38.563V38.3848H100.951V38.563C100.827 38.5857 100.713 38.6435 100.621 38.7296C100.562 38.7962 100.534 38.9878 100.534 39.3027V40.9019C100.534 41.2617 100.526 41.5682 100.511 41.8081H100.534L102.578 39.2593C102.592 39.0893 102.568 38.9182 102.505 38.7596C102.416 38.6575 102.294 38.5903 102.161 38.5697V38.3914H103.657V38.5697C103.534 38.5931 103.42 38.6508 103.327 38.7363C103.27 38.8029 103.24 38.9945 103.24 39.3093V42.4544C103.222 42.6413 103.249 42.8298 103.317 43.0042C103.407 43.1006 103.527 43.1634 103.657 43.1824V43.359L102.16 43.3457Z" fill="#C9C9C9"/>
<path d="M107.41 43.346V43.1694C107.544 43.1488 107.666 43.0809 107.755 42.9778C107.818 42.8065 107.842 42.6233 107.826 42.4414V40.8788C107.826 40.3674 107.826 40.0459 107.841 39.8927H107.826L105.782 42.4414C105.764 42.6281 105.79 42.8165 105.858 42.9911C105.949 43.0876 106.069 43.1503 106.199 43.1694V43.346H104.695V43.1694C104.831 43.1485 104.955 43.0808 105.046 42.9778C105.111 42.8071 105.136 42.6236 105.12 42.4414V39.2979C105.12 38.9781 105.089 38.7849 105.026 38.7199C104.932 38.6394 104.818 38.5854 104.697 38.5633V38.3851H106.201V38.5633C106.077 38.586 105.963 38.6438 105.871 38.7299C105.812 38.7965 105.784 38.9881 105.784 39.303V40.9022C105.784 41.262 105.784 41.5685 105.761 41.8084H105.784L107.828 39.2596C107.842 39.0896 107.818 38.9185 107.755 38.7599C107.666 38.6578 107.544 38.5906 107.411 38.57V38.3917H108.907V38.57C108.784 38.5934 108.67 38.6511 108.577 38.7366C108.52 38.8032 108.49 38.9948 108.49 39.3096V42.4547C108.471 42.6416 108.498 42.8303 108.567 43.0045C108.657 43.1009 108.777 43.1637 108.907 43.1827V43.3593L107.41 43.346ZM107.984 37.0457C107.987 37.1727 107.957 37.2983 107.896 37.4095C107.835 37.5207 107.746 37.6136 107.639 37.6787C107.381 37.8386 107.082 37.918 106.78 37.907C106.477 37.9256 106.175 37.8482 105.917 37.6854C105.818 37.6133 105.737 37.5169 105.684 37.4051C105.631 37.2933 105.606 37.1697 105.613 37.0457V36.8975H106.22V37.0457C106.208 37.2057 106.253 37.3648 106.347 37.4938C106.407 37.5467 106.478 37.5865 106.553 37.6109C106.629 37.6352 106.709 37.6436 106.789 37.6354C106.953 37.6519 107.116 37.6029 107.245 37.4988C107.346 37.3711 107.394 37.2085 107.378 37.0457V36.8975H107.984V37.0457Z" fill="#C9C9C9"/>
<path d="M114.455 42.5325V42.5458C114.44 42.6994 114.466 42.8541 114.53 42.9939C114.629 43.0879 114.755 43.1465 114.889 43.1605V43.3371H113.379V43.1605C113.501 43.1433 113.615 43.0913 113.708 43.0106C113.766 42.9473 113.796 42.7907 113.796 42.5375V42.5242C113.066 42.5042 112.523 42.352 112.169 42.0677C111.814 41.7834 111.636 41.3498 111.635 40.7667C111.622 40.5199 111.666 40.2735 111.761 40.046C111.857 39.8186 112.002 39.6162 112.187 39.454C112.553 39.1375 113.09 38.962 113.796 38.9276C113.809 38.7847 113.782 38.6409 113.718 38.5128C113.626 38.4196 113.504 38.3609 113.374 38.3462V38.168H114.87V38.3462C114.748 38.3608 114.633 38.4119 114.54 38.4928C114.469 38.622 114.44 38.7706 114.456 38.9176C115.896 38.9543 116.616 39.5284 116.617 40.6401C116.631 40.8914 116.588 41.1425 116.493 41.3751C116.398 41.6077 116.253 41.8159 116.069 41.9844C115.702 42.3121 115.164 42.4947 114.455 42.5325ZM113.796 39.2491C112.824 39.288 112.339 39.7822 112.34 40.7317C112.34 41.227 112.454 41.5963 112.682 41.8395C112.911 42.0827 113.282 42.2093 113.796 42.2193V39.2491ZM114.455 39.2375V42.2127C115.423 42.1727 115.907 41.6729 115.907 40.7134C115.907 40.2181 115.792 39.851 115.561 39.6123C115.331 39.3735 114.962 39.2486 114.455 39.2375Z" fill="#C9C9C9"/>
<path d="M119.503 43.4045C119.234 43.4087 118.967 43.36 118.717 43.2612C118.481 43.1654 118.273 43.012 118.109 42.8148C117.927 42.5863 117.794 42.3219 117.718 42.0385C117.618 41.67 117.572 41.2891 117.579 40.9074C117.568 40.4312 117.651 39.9576 117.825 39.5147C117.964 39.1556 118.208 38.8474 118.523 38.6302C118.837 38.4238 119.204 38.3176 119.579 38.3253C119.957 38.3126 120.331 38.4122 120.654 38.6118C120.955 38.8128 121.185 39.1042 121.313 39.4448C121.47 39.8769 121.545 40.3353 121.534 40.7958C121.547 41.2868 121.462 41.7755 121.282 42.2317C121.139 42.5905 120.892 42.8964 120.572 43.108C120.251 43.3079 119.88 43.4108 119.503 43.4045ZM118.32 40.8058C118.32 41.5509 118.43 42.1168 118.65 42.5033C118.735 42.681 118.869 42.8303 119.036 42.9333C119.202 43.0364 119.395 43.0889 119.59 43.0846C119.833 43.0889 120.069 42.9989 120.249 42.8331C120.45 42.6295 120.591 42.3734 120.657 42.0935C120.755 41.7219 120.801 41.3384 120.794 40.954C120.804 40.5101 120.748 40.0672 120.629 39.6397C120.557 39.3507 120.406 39.088 120.193 38.8817C120.014 38.7264 119.785 38.6423 119.549 38.6451C119.353 38.6394 119.16 38.6928 118.994 38.7984C118.832 38.9081 118.7 39.0577 118.61 39.2332C118.5 39.4467 118.424 39.6767 118.386 39.9145C118.339 40.2091 118.317 40.5073 118.32 40.8058Z" fill="#C9C9C9"/>
<path d="M123.634 42.4257C123.631 42.54 123.639 42.6544 123.657 42.7672C123.667 42.8389 123.692 42.9079 123.728 42.9705C123.761 43.0197 123.806 43.0593 123.86 43.0854C123.942 43.123 124.029 43.1509 124.118 43.1687V43.3453H122.547V43.1687C122.654 43.1478 122.756 43.1034 122.845 43.0388C122.899 42.9848 122.934 42.9137 122.944 42.8372C122.963 42.7049 122.972 42.5711 122.969 42.4374V39.2973C122.971 39.1754 122.965 39.0535 122.95 38.9324C122.942 38.8698 122.922 38.8093 122.891 38.7542C122.864 38.7113 122.826 38.6763 122.781 38.6526C122.706 38.6152 122.628 38.5862 122.547 38.5659V38.3877H124.331C124.891 38.3877 125.309 38.4976 125.582 38.7209C125.856 38.9441 125.994 39.2673 125.994 39.7104C125.998 39.944 125.954 40.1759 125.866 40.3917C125.786 40.5863 125.659 40.7579 125.498 40.8915C125.333 41.0243 125.142 41.1187 124.937 41.168C124.715 41.225 124.487 41.253 124.258 41.2513C123.993 41.2513 123.785 41.2513 123.64 41.238L123.634 42.4257ZM123.634 40.9265H124.051C124.279 40.9334 124.506 40.8967 124.721 40.8182C124.893 40.751 125.035 40.6248 125.124 40.4617C125.228 40.2558 125.276 40.026 125.264 39.7953C125.27 39.6178 125.242 39.4409 125.182 39.2739C125.135 39.1457 125.056 39.0312 124.955 38.9408C124.855 38.854 124.735 38.7924 124.607 38.7609C124.464 38.7244 124.317 38.7065 124.169 38.7075C123.932 38.7075 123.752 38.7075 123.634 38.7225V40.9265Z" fill="#C9C9C9"/>
<path d="M130.811 38.5619C130.688 38.603 130.578 38.6773 130.493 38.7768C130.331 39.0112 130.194 39.2625 130.085 39.5264L129.064 41.7436C128.756 42.41 128.49 42.8592 128.265 43.0913C128.159 43.2 128.032 43.2855 127.892 43.3428C127.752 43.4001 127.602 43.4279 127.451 43.4245C127.267 43.4261 127.083 43.3974 126.908 43.3395V42.4133H127.297C127.318 42.6948 127.435 42.8348 127.649 42.8348C127.935 42.8348 128.198 42.5999 128.44 42.1301L127.27 39.5414C127.162 39.2768 127.033 39.0211 126.885 38.7768C126.806 38.6709 126.696 38.5933 126.57 38.5552V38.377H128.112V38.5552C127.881 38.5819 127.768 38.6785 127.768 38.8467C127.793 39.0957 127.864 39.3376 127.979 39.5597L128.792 41.4021L129.51 39.723C129.636 39.4692 129.714 39.1942 129.741 38.9117C129.746 38.8673 129.742 38.8223 129.728 38.7796C129.715 38.7369 129.693 38.6975 129.664 38.6639C129.635 38.6303 129.599 38.6033 129.559 38.5846C129.519 38.5658 129.475 38.5558 129.431 38.5552V38.377H130.811V38.5619Z" fill="#C9C9C9"/>
<path d="M136.577 38.561C136.498 38.5781 136.422 38.605 136.35 38.6409C136.305 38.6651 136.267 38.6993 136.238 38.7409C136.205 38.796 136.185 38.8572 136.177 38.9208C136.161 39.0439 136.154 39.1681 136.157 39.2923V42.4374C136.154 42.5565 136.16 42.6756 136.173 42.7939C136.179 42.8564 136.198 42.9171 136.228 42.9721C136.255 43.0173 136.293 43.0546 136.338 43.0804C136.414 43.1197 136.494 43.1493 136.577 43.1687V43.3453H135.078V43.1687C135.18 43.1492 135.277 43.1095 135.363 43.0521C135.42 43.0019 135.457 42.9337 135.47 42.8588C135.494 42.7198 135.504 42.5785 135.5 42.4374V41.0447C135.5 40.6782 135.505 40.3079 135.516 39.9336C135.526 39.5588 135.539 39.3039 135.553 39.1657H135.492L134.069 42.7672H133.655L132.338 39.1024H132.268C132.28 39.2489 132.291 39.5172 132.303 39.9053C132.315 40.2934 132.318 40.6916 132.318 41.1014V42.4341C132.316 42.5531 132.322 42.6722 132.334 42.7905C132.342 42.8528 132.36 42.9131 132.389 42.9688C132.416 43.0144 132.454 43.0518 132.501 43.0771C132.576 43.1169 132.656 43.1466 132.739 43.1654V43.3419H131.422V43.1654C131.529 43.1444 131.631 43.1001 131.72 43.0354C131.774 42.9815 131.809 42.9104 131.819 42.8339C131.838 42.7016 131.847 42.5678 131.844 42.4341V39.2973C131.846 39.1754 131.84 39.0535 131.825 38.9324C131.817 38.8698 131.797 38.8093 131.766 38.7542C131.739 38.7113 131.701 38.6763 131.656 38.6526C131.581 38.6152 131.503 38.5862 131.422 38.5659V38.3877H132.705L133.967 41.926L135.355 38.3877H136.569L136.577 38.561Z" fill="#C9C9C9"/>
<path d="M54.7188 20H158.809" stroke="white" stroke-miterlimit="10" stroke-linecap="round"/>
</g>
<defs>
<clipPath id="clip0_4256_31692">
<rect width="159" height="45" fill="white"/>
</clipPath>
</defs>
</svg>
