<svg width="51" height="45" viewBox="0 0 51 45" fill="none" xmlns="http://www.w3.org/2000/svg">
<path d="M0.996185 -0.000457764H7.12278L11.2672 4.18763L15.5919 8.55782L29.9822 22.8703H15.5112C15.3726 22.8703 15.2201 22.8703 15.0676 22.8843C11.339 23.1084 8.38413 26.4447 8.31482 30.2546C8.24552 34.3167 11.6553 37.6503 15.675 37.6503H38.4488L42.7734 42.0205H15.7305C9.43757 42.0205 4.15651 37.02 4.00404 30.6608C3.93473 27.8034 4.89114 25.1701 6.51289 23.1111C8.61977 20.4497 11.8771 18.7269 15.5087 18.7269H19.5561L0.996185 -0.000457764Z" fill="#B3B3B3"/>
<path d="M50.996 44.9995H44.8694L40.725 40.8114L36.4003 36.4412L22.01 22.1287H36.481C36.6196 22.1287 36.7721 22.1287 36.9245 22.1147C40.6532 21.8906 43.6081 18.5543 43.6774 14.7444C43.7467 10.6824 40.3368 7.3487 36.3171 7.3487H13.5434L9.21875 2.97852H36.2617C42.5546 2.97852 47.8357 7.97901 47.9882 14.3382C48.0575 17.1956 47.101 19.8289 45.4793 21.8879C43.3724 24.5493 40.1151 26.2721 36.4835 26.2721H32.436L50.996 44.9995Z" fill="white"/>
</svg>
