<svg width="80" height="47" viewBox="0 0 80 47" fill="none" xmlns="http://www.w3.org/2000/svg">
<path fill-rule="evenodd" clip-rule="evenodd" d="M48.6959 45.9682H1V1H32.3405L48.6542 17.3521V31.7435L48.6959 45.9682Z" stroke="white" stroke-width="0.5"/>
<path d="M1 45.9682H48.6959L1 1V45.9682Z" stroke="white" stroke-width="0.5"/>
<path fill-rule="evenodd" clip-rule="evenodd" d="M48.1243 1.00098C60.4947 1.00098 70.5402 11.0541 70.5402 23.485C70.5402 35.8743 60.4947 45.9692 48.1243 45.9692C35.7959 45.9692 25.75 35.8743 25.75 23.485C25.75 11.0541 35.7959 1.00098 48.1243 1.00098Z" stroke="white" stroke-width="0.5"/>
<path fill-rule="evenodd" clip-rule="evenodd" d="M66.8792 35.78C62.8942 41.9537 55.9619 46.0001 48.1165 46.0001C35.7877 46.0001 25.7422 35.9471 25.7422 23.5159C25.7422 15.6321 29.8103 8.70751 35.9122 4.66113L66.8792 35.78Z" stroke="url(#paint0_linear_4256_31189)" stroke-width="0.5"/>
<path fill-rule="evenodd" clip-rule="evenodd" d="M66.8792 35.78C62.8942 41.9537 55.9619 46.0001 48.1165 46.0001C35.7877 46.0001 25.7422 35.9471 25.7422 23.5159C25.7422 15.6321 29.8103 8.70751 35.9122 4.66113L66.8792 35.78Z" stroke="white" stroke-width="0.5"/>
<path fill-rule="evenodd" clip-rule="evenodd" d="M49.3993 5.63086C39.6028 5.63086 31.6328 13.5984 31.6328 23.4846C31.6328 33.3293 39.6028 41.3383 49.3993 41.3383C54.0485 41.3383 58.2824 39.503 61.4787 36.5829L57.0786 32.203C55.0447 33.9967 52.3467 35.123 49.3993 35.123C43.0067 35.123 37.7762 29.9085 37.7762 23.4846C37.7762 17.0188 43.0067 11.8046 49.3993 11.8046C52.3467 11.8046 55.0447 12.9309 57.0786 14.7662L61.4787 10.3863C58.2824 7.42463 54.0485 5.63086 49.3993 5.63086Z" fill="white"/>
<path fill-rule="evenodd" clip-rule="evenodd" d="M12.4553 11.6793V20.8984H26.5276V26.6548H12.4553V41.0462H6.1875V5.92285H28.6863V11.6793H12.4553Z" fill="white"/>
<path d="M75.2672 8.75921C77.3428 8.75921 79.0032 7.04914 79.0032 5.00486C79.0032 2.91937 77.3842 1.20898 75.2672 1.20898C73.1917 1.20898 71.5312 2.9609 71.5312 5.00486C71.5312 7.09068 73.1503 8.75921 75.2672 8.75921ZM75.2672 8.34223C73.3579 8.34223 71.9464 6.88203 71.9464 5.00486C71.9464 3.16955 73.3579 1.62627 75.2672 1.62627C77.1352 1.62627 78.5467 3.12801 78.5467 4.96333C78.5467 6.8405 77.1352 8.34223 75.2672 8.34223ZM73.7313 6.88203H74.6031V5.58894H75.2672L76.139 6.88203H77.1766L76.1804 5.46401C76.6787 5.25536 77.0521 4.87993 77.0521 4.21246C77.0521 3.83702 76.9277 3.54498 76.7201 3.33634C76.4297 3.0443 76.0145 2.87751 75.4748 2.87751H73.7313V6.88203ZM74.6031 4.83807V3.67023H75.4334C75.89 3.67023 76.139 3.87856 76.139 4.254C76.139 4.58789 75.9314 4.83807 75.4748 4.83807H74.6031Z" fill="white"/>
<defs>
<linearGradient id="paint0_linear_4256_31189" x1="21.536" y1="-3.60489" x2="17.0656" y2="38.9135" gradientUnits="userSpaceOnUse">
<stop stop-color="#1165A1"/>
<stop offset="1" stop-color="#2276B2"/>
</linearGradient>
</defs>
</svg>
