<svg width="130" height="45" viewBox="0 0 130 45" fill="none" xmlns="http://www.w3.org/2000/svg">
<path d="M52.5166 26.2985H73.4054V20.2443H59.5814V16.2081H71.9161V10.5727H59.5814V6.68888H73.2145V0.634649H52.5166V26.2985ZM89.4444 26.8316C95.1344 26.8316 98.4185 24.3566 100.824 21.0439L95.4781 17.2362C93.9123 19.102 92.3466 20.3204 89.6735 20.3204C86.0456 20.3204 83.5252 17.3124 83.5252 13.4666C83.5252 9.65889 86.0456 6.61273 89.6735 6.61273C92.1175 6.61273 93.836 7.75504 95.3253 9.58273L100.557 5.54658C98.2658 2.38619 94.9816 0.139648 89.7499 0.139648C81.9213 0.139648 76.1549 6.0035 76.1549 13.4666C76.1549 21.1962 82.0741 26.8316 89.4444 26.8316ZM116.1 26.8316C124.043 26.8316 130 20.8535 130 13.4666C130 6.04158 124.119 0.139648 116.176 0.139648C108.233 0.139648 102.276 6.11773 102.276 13.4666C102.276 20.9297 108.156 26.8316 116.1 26.8316ZM116.176 20.3966C112.281 20.3966 109.608 17.1981 109.608 13.4666C109.608 9.69696 112.204 6.53658 116.1 6.53658C120.033 6.53658 122.706 9.77312 122.706 13.4666C122.706 17.2362 120.109 20.3966 116.176 20.3966Z" fill="#FEFEFE"/>
<path d="M52.8984 44.5753H56.259V40.3106H61.949V37.531H56.259V35.4749H62.56V32.581H52.8984V44.5753ZM64.0875 44.5753H67.4099V40.9579H68.861L71.305 44.5753H75.162L72.2979 40.3868C73.7873 39.7776 74.7801 38.5591 74.7801 36.6933C74.7801 35.4749 74.3983 34.561 73.7109 33.8375C72.8707 33.0379 71.6105 32.581 69.7775 32.581H64.0875V44.5753ZM67.4099 38.3306V35.4368H69.5866C70.7322 35.4368 71.4196 35.9318 71.4196 36.8837C71.4196 37.7976 70.7704 38.3306 69.6248 38.3306H67.4099ZM76.5368 44.5753H79.8973V32.581H76.5368V44.5753ZM82.074 44.5753H91.8502V41.7576H85.3964V39.8537H91.1628V37.2264H85.3964V35.3987H91.7738V32.581H82.074V44.5753ZM93.5686 44.5753H96.891V37.9879L102.008 44.5753H104.949V32.581H101.664V38.9018L96.7 32.581H93.5686V44.5753ZM107.087 44.5753H111.67C116.023 44.5753 118.544 42.0241 118.544 38.5591C118.544 35.056 116.061 32.581 111.746 32.581H107.087V44.5753ZM110.448 41.6433V35.4749H111.784C113.808 35.4749 115.107 36.6172 115.107 38.5591C115.107 40.5391 113.808 41.6433 111.784 41.6433H110.448ZM124.845 44.8037C127.747 44.8037 129.694 43.3187 129.694 40.8818C129.694 38.5972 127.976 37.6833 125.226 37.1122C123.546 36.7314 123.126 36.4649 123.126 35.9318C123.126 35.4749 123.508 35.1322 124.348 35.1322C125.379 35.1322 126.601 35.551 127.709 36.3125L129.389 33.9518C128.052 32.9237 126.448 32.3525 124.424 32.3525C121.522 32.3525 119.766 33.9899 119.766 36.1983C119.766 38.7114 121.713 39.4349 124.31 40.006C125.914 40.3868 126.334 40.6533 126.334 41.1864C126.334 41.7195 125.837 42.0241 124.959 42.0241C123.546 42.0241 122.21 41.5291 121.026 40.5772L119.193 42.7856C120.644 44.1183 122.706 44.8037 124.845 44.8037Z" fill="#FEFEFE"/>
<path fill-rule="evenodd" clip-rule="evenodd" d="M6.15648 34.18C6.42379 34.2942 6.80567 34.5988 7.07299 34.7892C7.07299 34.7892 7.07299 34.7892 7.11118 34.7892L9.32608 36.16H9.36427C9.36427 36.198 9.40245 36.198 9.40245 36.198L11.541 37.2261C11.6555 37.3023 11.6555 37.3023 11.7701 37.3404C11.8465 37.3784 11.9229 37.3784 12.0374 37.4165L12.3429 37.5688C12.3429 37.5688 12.4193 37.5688 12.4193 37.6069L13.4122 37.9877H13.4504L15.5507 38.7111C15.5889 38.7111 15.7035 38.7492 15.7035 38.7492L16.5436 39.0157C16.7345 39.0538 16.62 39.0538 16.8109 39.0919C16.9255 39.13 17.0019 39.0919 17.1164 39.13L18.5676 39.5107C19.0258 39.663 19.8278 39.7392 20.3242 39.8534L21.5844 40.0819C22.0809 40.158 22.3864 40.158 22.8446 40.2723C22.7682 40.5388 22.4627 40.8434 22.31 41.0338L21.3553 42.0619C21.3171 42.138 21.2789 42.138 21.2025 42.2142L20.7825 42.633C20.7443 42.6711 20.7061 42.6711 20.6679 42.7092C20.3624 42.9377 20.0569 43.2423 19.675 43.4327L18.5294 43.9277C17.3456 44.3465 17.231 44.0419 16.3909 44.1942V44.3084C16.62 44.3465 16.6582 44.4227 16.8109 44.4227C17.04 44.4988 17.1546 44.4607 17.3837 44.5369C17.842 44.6511 17.9566 44.613 18.453 44.6511C18.8349 44.6892 19.064 44.8415 19.4841 44.8415C20.0951 44.8796 21.8135 45.0319 22.31 44.9938C22.5009 44.9557 22.5391 44.9177 22.8064 44.9177C23.2647 44.9177 23.4938 44.9938 23.9139 44.9177C24.143 44.8415 24.143 44.8796 24.4103 44.8796C24.754 44.8796 24.6395 44.8034 24.9068 44.8034C25.1359 44.7654 25.1741 44.8034 25.4032 44.7654L26.8925 44.5369C26.9689 44.4988 26.9689 44.5369 27.0835 44.4988L27.1599 44.4607C27.198 44.4607 27.198 44.4607 27.198 44.4607L27.8091 44.3465C27.8091 44.3465 27.8472 44.3465 27.8472 44.3084H27.8854L28.2291 44.2323C28.4201 44.1942 28.4964 44.1561 28.6874 44.118C28.8401 44.0419 28.7256 44.08 28.8783 44.0419L32.0097 42.8996L33.079 42.2904C33.1554 42.2523 33.1936 42.2523 33.2699 42.1761L33.3463 42.138L34.5301 41.2623H34.5683C34.8738 40.9957 35.1411 40.8054 35.4085 40.5388C35.4466 40.5388 35.4466 40.5007 35.4466 40.5007L35.4848 40.4627L36.134 39.7773C36.6305 39.2061 37.1269 38.5969 37.3942 37.9115C37.4706 37.7211 37.4706 37.645 37.547 37.4927C37.9289 36.7311 38.0052 36.0077 38.0816 35.0938V34.1038C38.0816 33.9134 38.0816 33.7992 38.0434 33.6469C38.0052 33.4565 37.9671 33.3042 37.9671 33.1519C37.8907 32.733 37.8143 32.6188 37.6997 32.238C37.6234 32.0096 37.5852 31.5907 37.2797 31.4765C36.9742 31.6669 35.7522 33.4946 35.3321 33.9134L32.8881 36.6169C32.7353 36.8073 32.7353 36.8454 32.5444 36.9977L28.1909 40.4627C28.1909 40.4627 28.1146 40.5007 28.0764 40.5388L27.1599 41.0719L27.0453 41.11L25.4032 41.9857C25.1359 42.0619 25.0213 42.2142 24.754 42.2142C24.7922 42.1761 24.7158 42.2142 24.8304 42.138C24.8686 42.1 24.9068 42.1 24.945 42.0619L25.4032 41.8334C25.4032 41.8334 25.4032 41.8334 25.4414 41.8334L28.0764 40.12C28.2291 40.0057 28.3055 39.8915 28.4964 39.7773C28.611 39.7011 28.611 39.7011 28.7256 39.625L30.1767 38.4065H30.2149L30.4822 38.14C30.5204 38.14 30.5204 38.1019 30.5204 38.1019C30.5204 38.1019 30.5586 38.1019 30.5586 38.0638H30.5968C30.5968 38.0257 30.5968 38.0257 30.635 38.0257L31.857 36.8454C31.857 36.8073 31.8952 36.8073 31.8952 36.8073L32.5444 36.0457C33.4609 35.17 34.3774 34.1419 35.1411 33.1138C35.2175 32.9996 35.1793 32.9996 35.2939 32.9234L35.9049 32.0857C36.1722 31.7811 36.3632 31.4004 36.6305 31.0577C36.8978 30.7911 37.356 30.1819 37.3942 29.7631C36.4777 29.7631 36.2104 30.1057 35.3321 29.7631C34.5683 29.4584 33.7282 29.4965 32.8881 29.4584L32.468 29.5346C32.1625 29.6107 31.8952 29.6488 31.6279 29.8011C31.4751 29.8773 31.4751 29.8773 31.3223 29.9154L31.1696 29.9915L31.1314 30.0296L30.2531 30.5627C30.2531 30.5627 30.1385 30.6769 30.1003 30.6769L29.7948 30.9054C29.7948 30.9434 29.7948 30.9434 29.7566 30.9434L28.2291 32.4665C27.8091 32.9996 26.8162 34.2942 26.5489 34.8273C26.4343 35.0177 26.3579 35.17 26.2433 35.3223C25.6323 36.0838 25.1359 36.9215 24.6013 37.7592C24.4867 37.9496 24.4485 38.1019 24.2958 38.2923L23.7993 38.9777C23.4938 39.3965 23.2265 39.8915 22.8828 40.2342C22.921 40.0057 22.8446 39.9296 22.7682 39.8154L22.31 39.0919C22.31 39.0919 22.31 39.0538 22.2718 39.0538L22.2336 38.9777C22.0809 38.7492 22.0809 38.5969 22.0427 38.2542C22.0045 37.645 21.7372 36.693 21.3935 36.16C21.3171 36.0077 21.2407 35.8934 21.1262 35.7792C20.8588 35.4746 20.9734 35.4746 20.5915 35.17L19.7514 34.4465C19.675 34.4465 19.7132 34.4465 19.6368 34.4084L19.1404 34.1419C18.8349 33.9896 18.4912 33.723 18.1475 33.6469L15.8562 32.9996C15.0925 32.8092 13.985 32.6188 13.2594 32.5807C12.9539 32.5807 12.9157 32.5427 12.6866 32.5046C12.6102 32.5046 12.5721 32.5046 12.4193 32.4665L10.5099 32.2761C9.74615 32.1619 8.98239 31.9715 8.18044 31.9334C8.25681 31.705 8.37138 31.6669 8.44775 31.4765C8.52413 31.2481 8.56232 31.1338 8.67688 30.9054C8.79145 30.6388 8.79145 30.5627 9.02057 30.4104L9.55521 29.9915C9.78433 29.7631 10.0135 29.5727 10.2426 29.3442C10.3572 29.1538 10.4335 29.0777 10.5481 28.8873L10.9682 28.0877C11.5028 26.9834 11.4646 25.6127 11.2737 24.4704C11.2355 24.2419 11.2355 24.0515 11.1591 23.785L8.44775 17.0454C8.18044 16.3981 7.53124 15.1415 7.41668 14.5704L6.50017 11.7146C6.50017 11.6765 6.50017 11.6765 6.50017 11.6765L6.46198 11.5242C6.42379 11.3719 6.42379 11.4481 6.42379 11.2958V11.2196C6.42379 11.1054 6.42379 11.2196 6.3856 11.1054C6.23285 10.2296 6.19466 9.27768 6.46198 8.43999C6.61473 7.90691 7.07299 6.99306 7.37849 6.57422C6.95842 6.57422 6.92024 6.80268 6.69111 7.03114C6.57654 7.18345 6.50017 7.22153 6.3856 7.33576L4.01795 10.3438L2.49043 12.895C2.45224 12.9711 2.41405 12.9711 2.41405 13.0092C2.2613 13.2377 2.29949 13.1615 2.18493 13.4281L1.26842 15.5604C1.23023 15.7127 1.19204 15.865 1.11566 16.0173C0.0845887 18.5684 -0.259103 21.7669 0.199153 24.4704C0.313717 25.1177 0.466468 25.6888 0.733784 26.2981L1.80305 28.1638C2.2613 28.8111 2.9105 29.3823 3.55969 29.8011L3.67426 29.8773C3.75063 29.9154 3.82701 29.9534 3.90339 29.9915L5.62184 30.753C5.7746 30.7911 5.73641 30.753 5.88916 30.8292C6.11829 30.9054 5.81278 30.8292 6.11829 30.9054C6.3856 30.9434 6.61473 30.9815 6.84386 30.9054C6.76748 30.5627 6.61473 30.2961 6.50017 29.9915L5.69822 27.6307C5.62184 27.4404 5.62184 27.3261 5.54547 27.1357L5.35453 26.4504C5.31634 26.3742 5.27815 26.26 5.27815 26.1457L4.32345 21.6527C4.09433 20.0154 4.13251 17.8069 4.28527 16.2838C4.32345 16.0173 4.36164 16.0173 4.36164 15.7127C4.47621 14.6846 4.55258 14.7988 4.59077 13.8469H4.66715C4.59077 15.0654 4.43802 16.1315 4.51439 17.1596C4.51439 17.35 4.55258 17.6927 4.55258 17.8069C4.51439 18.0354 4.51439 18.0354 4.55258 18.34C4.66715 19.4061 4.66714 20.32 4.89627 21.3861C4.93446 21.5765 4.97265 21.7669 4.97265 21.9192C5.08721 22.9092 5.35453 23.785 5.58366 24.7369C5.7746 25.6507 6.00372 26.5265 6.34742 27.3642C6.3856 27.5165 6.46198 27.745 6.50017 27.8973C6.65292 28.4684 6.88205 28.9634 7.07299 29.4965C7.11118 29.5346 7.11118 29.5346 7.11118 29.5346L7.14936 29.6488C7.37849 30.3342 7.87493 31.21 7.9895 31.9334C7.60762 31.8954 7.72218 31.8573 7.45487 31.7811C7.14936 31.743 7.07299 31.743 6.80567 31.6669C6.61473 31.6288 6.42379 31.6288 6.19466 31.5527L3.90339 30.753C3.82701 30.715 3.82701 30.715 3.75063 30.6769L2.37587 29.8011C2.03218 29.4584 1.68848 29.1919 1.45936 28.7731C1.38298 28.6969 1.34479 28.6207 1.3066 28.5446L1.0011 27.9734C0.924724 27.745 0.962912 27.7069 0.771972 27.6307C0.581032 28.0115 0.962912 28.6207 1.07748 29.0015C1.3066 30.0677 1.76486 31.1338 2.18493 32.1619L2.49043 32.7711C2.52862 32.8854 2.52862 32.8473 2.60499 32.9996C2.87231 33.5707 2.83412 33.6469 3.216 34.2942C3.44513 34.6369 3.59788 35.0177 3.8652 35.3984L4.36164 36.16C4.51439 36.3884 5.23996 37.4927 5.50728 37.7592L8.9442 41.148C9.21151 41.4146 10.4335 42.138 10.7772 42.3284L11.961 42.8996C12.0756 42.9757 12.0374 42.9377 12.1902 42.9757L12.9157 43.2423C13.5268 43.4327 13.8704 43.5469 14.5578 43.585L15.6271 43.6611C16.3527 43.6992 16.2381 43.6611 16.8109 43.585L17.8038 43.3946C17.842 43.3946 17.842 43.3565 17.842 43.3565L18.6821 43.0519C18.8349 42.9757 18.9494 42.9377 19.064 42.8615L19.1404 42.8234C19.6368 42.5188 20.1333 42.2523 20.5533 41.8715L20.8588 41.5669C20.9352 41.5288 20.9734 41.4907 21.0116 41.4146C21.2025 41.2623 21.3935 41.11 21.4699 40.8815C20.8207 40.5007 19.5605 40.5388 18.9494 40.3104C18.7967 40.2342 18.8349 40.2723 18.6439 40.2342C18.4148 40.1961 18.3766 40.12 18.0711 40.0819C17.4983 40.0057 17.04 39.7392 16.4672 39.625C15.9326 39.5107 15.398 39.3584 14.9015 39.13L13.985 38.8254H13.9468L13.6795 38.7111H13.6413L12.8776 38.4065C12.0756 38.0257 11.2355 37.7211 10.4717 37.2642L9.59339 36.7692C9.59339 36.7692 9.59339 36.7311 9.55521 36.7311C9.55521 36.7311 9.55521 36.7311 9.51702 36.7311C9.51702 36.693 9.51702 36.693 9.47883 36.693L9.44064 36.655C9.40245 36.6169 9.40245 36.6169 9.40245 36.6169C9.36427 36.6169 9.36427 36.5788 9.36427 36.5788L7.49305 35.2842C7.14936 35.0557 6.34742 34.4846 6.15648 34.18Z" fill="#FEFEFE"/>
<path fill-rule="evenodd" clip-rule="evenodd" d="M7.41707 14.5705C7.79895 14.5705 8.06626 14.4944 8.40996 14.4944C8.86821 14.4563 8.98277 14.4563 9.36465 14.6086L10.2048 14.9132C10.6249 15.0274 11.3504 15.0655 11.8469 15.0655C12.1906 15.0655 12.2669 14.9894 12.5343 14.9513C12.7634 14.9132 12.5343 14.9513 12.7634 14.8751C12.8398 14.8751 12.9161 14.837 12.9925 14.837L13.0689 14.799C13.1071 14.799 13.1071 14.799 13.1453 14.799C13.9472 14.5324 14.5582 14.1136 15.2074 13.6186L18.3388 10.1155C18.6061 9.77281 18.8353 9.50627 19.0644 9.16358L19.4463 8.6305C19.5227 8.55435 19.4845 8.59243 19.5227 8.51627L24.067 2.76665C24.067 2.76665 24.1052 2.76665 24.1052 2.72858L24.4107 2.46204C24.9072 2.08127 25.5182 1.62435 26.091 1.43396C26.2437 1.39588 26.3583 1.31973 26.4729 1.28165C26.7402 1.12935 26.6256 1.2055 26.9311 1.12935C27.6567 0.977038 27.6185 0.977038 28.4586 1.01511C28.7641 1.01511 28.7641 1.05319 28.8023 0.786653C28.535 0.748576 28.1531 0.634345 27.8858 0.596268C27.6949 0.520114 27.5803 0.520114 27.3894 0.520114C26.8929 0.405884 26.2819 0.291653 25.7855 0.253576C25.4036 0.215499 25.1745 0.139345 24.7162 0.139345C23.1887 0.0631911 21.9667 -0.0510397 20.401 0.0251142L18.4534 0.253576C17.766 0.367807 17.1168 0.405884 16.4676 0.634345C16.4676 0.634345 16.4676 0.634345 16.4294 0.634345L13.6799 1.54819C13.489 1.62435 13.4126 1.66242 13.2598 1.73858L12.5343 2.08127C12.4197 2.15742 12.3051 2.1955 12.1906 2.27165L11.2359 2.80473C11.1977 2.80473 11.1977 2.84281 11.1977 2.84281C11.1595 2.84281 11.1595 2.84281 11.1595 2.84281C10.5103 3.26165 10.7776 3.14742 10.3957 3.41396L9.67016 3.98512C9.32647 4.28973 8.33358 5.39396 8.06626 5.88896V5.92704L7.37888 7.25973C6.95881 8.4782 6.6915 10.0774 7.03519 11.2959L7.3025 12.4382C7.34069 12.5905 7.41707 12.7047 7.45526 12.857C7.72257 12.857 7.76076 12.7428 7.87532 12.5524C7.9517 12.4763 7.91351 12.5144 7.9517 12.4382C8.02808 12.362 7.98989 12.4001 8.02808 12.324C8.06626 12.324 8.06626 12.324 8.06626 12.324C8.06626 12.2859 8.10445 12.2478 8.14264 12.2478C8.14264 12.2097 8.18083 12.1717 8.21902 12.1717C8.29539 12.0574 8.29539 12.0574 8.37177 11.9432L12.8016 7.33589C13.2216 6.95512 13.6799 6.57435 14.1 6.23166C14.1763 6.19358 14.1381 6.23166 14.2145 6.1555L19.4463 3.03319C19.7136 2.91896 20.3628 2.57627 20.6683 2.57627C20.5155 2.72858 20.1718 2.84281 19.9427 2.95704L19.179 3.37588C19.179 3.37588 19.0644 3.41396 19.0644 3.45204L18.9498 3.49012C18.9498 3.52819 18.9116 3.52819 18.9116 3.52819C18.9116 3.52819 18.8735 3.52819 18.8735 3.56627L16.7731 4.86089C16.6586 4.97512 16.6586 4.93704 16.544 5.01319L14.1381 6.95512C14.1 6.99319 14.0618 6.99319 14.0236 7.03127L12.6106 8.32589C12.5724 8.36396 12.5343 8.40204 12.5343 8.40204L7.60801 14.1136C7.49344 14.2659 7.45526 14.342 7.41707 14.5705Z" fill="#FEFEFE"/>
<path fill-rule="evenodd" clip-rule="evenodd" d="M38.6925 10.9529C38.3488 10.9149 37.8906 10.4579 37.5851 10.3056C37.4323 10.1914 37.4323 10.2295 37.3178 10.1533C37.3178 10.1152 37.2796 10.1152 37.2796 10.1152L37.0886 10.001C37.0504 10.001 37.0504 10.001 37.0504 9.96293L34.6828 8.78255C34.4537 8.66832 34.2627 8.63024 34.0336 8.51601C33.9954 8.51601 33.919 8.47793 33.8808 8.47793L29.3365 6.99293C28.9928 6.8787 28.6109 6.84063 28.229 6.7264L27.4653 6.57409C27.3125 6.53601 27.3507 6.49793 27.1598 6.45986L24.7921 6.07909C24.4484 6.07909 24.2957 6.04101 24.0284 5.96486C23.4937 5.85063 22.8827 5.92678 22.3099 5.81255C21.6225 5.7364 21.2406 5.54601 21.7753 6.30755C21.928 6.49793 22.0044 6.65024 22.119 6.80255C22.4627 7.25947 22.5772 8.40178 22.9973 9.31562C23.341 9.92485 23.1882 9.58216 23.5319 10.0772L24.1811 10.7245C24.2957 10.8387 24.2957 10.8768 24.3721 10.9529L24.6394 11.1433C24.9831 11.4099 25.4031 11.6002 25.8232 11.7525L26.0141 11.8668C26.0523 11.8668 26.0523 11.8668 26.0523 11.8668C27.5798 12.5141 29.451 12.7425 31.0549 12.8187C32.0478 12.8948 36.7449 13.1614 37.6996 13.3898L40.2582 13.8848C40.4492 13.961 40.3346 13.9229 40.4492 13.961L40.7547 14.0752C40.7929 14.0752 40.7929 14.1133 40.831 14.1133L41.5184 14.3798C42.5113 14.951 43.5042 15.6364 44.0388 16.7025C44.1152 16.8929 44.1152 17.0452 44.3825 17.0833C44.3825 16.5883 43.5042 14.4941 43.2751 13.9991L42.7023 12.7045C42.5113 12.4379 42.3968 12.2095 42.244 11.9048C42.2058 11.8668 42.1676 11.7906 42.1294 11.7145C42.1294 11.7145 42.1294 11.6764 42.0912 11.6764L42.0149 11.5241C41.9385 11.4099 41.9003 11.2956 41.8239 11.1433L41.3275 10.3056C41.2893 10.3056 41.2893 10.3056 41.2893 10.2675L40.1055 8.55409H40.0673L39.1126 7.33563C39.0744 7.33563 39.0744 7.29755 39.0362 7.25947C39.0362 7.25947 39.0362 7.25947 38.998 7.2214C38.9598 7.18332 38.9598 7.18332 38.9598 7.18332L37.8524 6.07909C37.8524 6.07909 37.8142 6.04101 37.8142 6.00294L37.2032 5.46986L37.165 5.43178L36.5922 4.97486L36.554 4.93678L32.1624 2.46179L31.475 2.23333C30.4439 1.92871 29.4892 1.96679 28.4582 1.92871L26.396 2.38563C25.8232 2.61409 25.3267 2.80448 24.8303 3.18525L23.1118 4.7464C22.9973 4.86063 22.9591 4.89871 22.9209 5.08909C23.3028 5.08909 23.5319 5.2414 24.0665 5.2414C24.5248 5.27947 24.7539 5.39371 25.2504 5.43178C25.5559 5.46986 25.5177 5.50794 25.785 5.54601C26.0141 5.62217 26.1669 5.62217 26.396 5.62217C26.7015 5.66024 26.7397 5.7364 27.2743 5.81255C27.5416 5.85063 27.4271 5.85063 27.5416 5.8887L28.3054 6.07909C28.4582 6.11717 28.4963 6.11717 28.6109 6.11717L34.6064 8.28755L35.6757 8.8587C35.7139 8.89678 35.7521 8.93485 35.7521 8.93485C35.7902 8.93485 35.7902 8.93485 35.7902 8.93485C35.8284 8.97293 35.8284 8.97293 35.8284 8.97293C35.8666 8.97293 35.8666 8.97293 35.8666 9.01101C35.9048 9.01101 35.943 9.04908 35.943 9.04908L37.9288 10.3437C38.0433 10.4579 38.1579 10.5341 38.3106 10.6483C38.5016 10.7625 38.6161 10.7625 38.6925 10.9529Z" fill="#FEFEFE"/>
<path fill-rule="evenodd" clip-rule="evenodd" d="M38.0441 38.6346C38.3114 38.6346 38.3878 38.4823 38.5405 38.33L39.4952 37.2258C39.648 37.0354 39.6098 37.2258 39.6098 36.8831C39.9153 36.8831 39.8389 36.7689 40.1444 36.3881L43.1613 31.2477C43.2376 31.0573 43.2758 31.0573 43.3522 30.8669L43.9632 29.3058C44.1542 28.8869 44.2305 28.4681 44.3451 28.0493C44.4215 27.6304 44.6506 27.0593 44.6888 26.7166C44.7652 26.0693 44.8415 25.3077 44.9943 24.6985C45.0325 24.3177 44.9943 23.0993 44.9943 22.7185C44.9943 22.3377 44.9943 22.1093 44.9561 21.7666C44.9179 21.4239 44.8415 21.1573 44.8034 20.8527C44.7652 20.6242 44.8034 20.7004 44.727 20.4719C44.6506 20.2816 44.6888 20.2435 44.6124 20.0531L43.7723 17.9589C43.7723 17.9589 43.7723 17.9589 43.7723 17.9208L43.5432 17.54C43.1613 16.9689 42.7412 16.3977 42.2066 15.9789L41.7865 15.6362C41.7865 15.6362 41.7865 15.6362 41.7483 15.6362L41.2137 15.2554C41.0991 15.2173 41.0991 15.1792 40.9846 15.1412L38.9988 14.3416C38.4642 14.2273 38.9224 14.2273 37.9677 14.1892C37.9295 14.57 37.9295 14.3796 38.0059 14.5319L38.0441 14.57L38.5405 15.7885C38.6169 16.0169 38.7315 16.3216 38.8078 16.55L39.648 19.1773C39.7244 19.3677 39.7244 19.4058 39.8007 19.5581L40.2208 21.1573C40.259 21.3096 40.2972 21.3477 40.3354 21.5C40.3354 21.5762 40.3354 21.6523 40.3736 21.7285L40.4881 22.3377C40.7936 23.8227 41.0227 25.9169 40.9464 27.44L40.8318 29.5343C40.7936 30.2577 40.6409 30.7146 40.6027 31.4762L40.6409 29.3439C40.6791 28.4681 40.4881 25.9169 40.3354 25.0031C40.3354 24.8127 40.2972 24.5462 40.259 24.3939C40.2208 24.1273 40.1826 24.0512 40.1444 23.7846C39.9535 22.5662 39.648 21.3858 39.3043 20.1673L39.037 19.3677C38.8078 18.7204 38.5787 17.8066 38.3496 17.2735C37.9295 16.3216 37.624 15.1792 37.1276 14.2654L36.7839 13.5419C36.6311 13.3135 36.7457 13.5419 36.6693 13.3135H36.4784C36.4402 13.6181 35.9819 14.6081 35.7528 14.8366L35.0272 15.4458C34.989 15.4839 34.9127 15.56 34.8745 15.5981C34.8745 15.5981 34.8745 15.5981 34.8363 15.6362C34.7981 15.6742 34.7599 15.7123 34.7217 15.7504C34.3017 16.2454 34.0343 16.7404 33.8052 17.3877C33.4615 18.3016 33.5761 18.5681 33.4997 19.3296C33.4615 20.4719 33.8434 21.8808 34.2635 22.8708L34.6454 23.8227C34.8363 24.1273 34.9509 24.7366 35.2182 25.1935L37.2039 29.2296C37.2803 29.3439 37.3567 29.4962 37.3949 29.6104L38.5023 32.39C38.6551 32.9231 38.846 33.4562 38.9224 34.0273C38.9606 34.2177 38.9606 34.3319 38.9606 34.5604C38.9988 34.7889 39.037 34.7508 39.0752 34.9412C39.1133 35.2458 38.9988 36.0073 38.9606 36.2739C38.9224 36.5785 38.8078 37.2258 38.6169 37.5685C38.6169 37.6066 38.6169 37.6066 38.6169 37.6066C38.5787 37.6066 38.5787 37.6446 38.5787 37.6446C38.5787 37.6446 38.5787 37.6827 38.5405 37.6827V37.7589C38.5023 37.7589 38.5023 37.797 38.5023 37.797C38.5023 37.797 38.4642 37.835 38.4642 37.8731L38.235 38.2158C38.1586 38.3681 38.0823 38.4062 38.0441 38.6346Z" fill="#FEFEFE"/>
<path d="M17.3845 18.9491C18.5301 19.4061 20.4013 19.368 21.3942 19.1395C21.4706 19.1395 21.547 19.1015 21.6616 19.1015C21.1651 18.8349 20.8214 18.4541 20.8214 17.6926C20.7832 16.9691 20.8978 16.5503 21.7379 16.398C22.6163 16.2838 22.9218 17.1214 22.9599 17.7688C22.9599 18.4541 22.8072 18.6064 22.5399 18.9111C22.5781 18.9111 22.6163 18.9111 22.6544 18.9491C23.7619 18.7588 26.1295 18.4922 27.2752 18.9491C27.0079 18.6445 26.8551 18.5303 26.8169 17.883C26.8169 17.1976 27.0079 16.4361 27.848 16.4361C28.7263 16.398 29.0318 17.0453 29.0318 17.7307C29.0318 18.4161 28.8409 18.6826 28.4972 18.9872C29.1846 18.873 32.0105 19.9772 31.8577 17.6164C31.2849 16.5122 31.9723 16.6264 32.2014 17.0072C32.6597 17.6545 32.4306 18.5303 32.4306 18.5303C31.8196 20.6245 30.5212 20.6245 29.4901 20.8149L29.3373 23.0234C29.3373 23.0615 29.3373 23.0995 29.3373 23.1376C29.681 24.0515 29.8338 24.7368 29.9865 25.308C29.9865 25.308 30.3684 25.8411 31.094 26.4122C31.3995 26.8311 31.6286 27.1357 31.7432 27.4022C32.2396 28.3542 31.9341 29.0396 31.705 28.9253C31.5522 28.8111 31.2849 28.1638 31.1322 28.0495C29.872 27.0595 28.1535 25.7649 28.1535 25.7649C28.0389 25.3461 27.9244 24.8892 27.7334 24.318C27.6189 24.6607 27.4279 24.9653 27.2752 25.2318C27.0842 25.6126 26.8933 26.1076 26.7787 26.6788L26.6642 28.2019C26.6642 28.2019 26.6642 28.9253 26.5496 29.4203C26.435 29.8772 25.6331 30.2961 25.4803 30.2199C25.3658 30.1819 25.7095 29.4203 25.7095 29.4203C25.2512 27.0595 25.0221 25.5365 25.5949 24.3942C26.015 23.5945 26.4732 22.7188 26.435 20.9291C25.9386 20.358 24.6784 20.5103 23.6091 20.6626L23.571 23.823C23.571 23.8611 23.5328 23.8992 23.5328 23.8992C23.8001 25.7269 23.4564 26.5265 23.9528 27.5165C24.2583 28.0876 24.5638 29.268 24.5638 29.9915C24.602 30.3722 24.4493 31.0196 24.2201 30.8672C24.0674 30.753 24.182 30.4103 24.0674 30.2961C23.991 30.1819 23.8765 30.0296 23.7619 29.8392C23.4946 29.3061 22.4253 28.2019 22.2344 27.5165C22.0434 26.7549 21.9289 25.9172 21.8143 25.0795C21.6234 25.3842 21.4706 25.6507 21.356 25.8411C21.2033 26.1076 21.0887 26.298 21.0887 26.3361C21.0505 26.4884 21.3942 27.2119 21.5088 27.4403C21.7379 27.9353 22.3489 29.2299 21.9289 29.7249C21.8143 29.9534 21.5088 30.2961 21.3942 30.2199C21.2797 30.1438 21.3179 29.4965 21.2033 29.3442C20.7832 28.9253 20.4013 28.2019 20.1722 27.9734C19.6376 26.7169 19.0648 26.6407 19.2175 25.9553C19.2939 25.5745 19.4848 25.308 19.714 24.8892C19.9813 24.4703 20.325 23.8611 20.7832 22.8711L20.2486 21.2338C19.7522 21.3099 19.3321 21.348 18.8738 21.3099C18.7593 21.3099 18.6829 21.2718 18.5683 21.2718C18.301 21.2338 18.0337 21.1576 17.7664 21.0434C18.1101 23.1376 18.3392 25.0415 18.3392 25.0415C18.3774 25.8792 18.1864 26.1838 17.7282 26.7169C17.0408 27.5165 16.4298 28.3922 15.857 28.8111C15.7042 28.9253 15.5515 29.6107 15.4369 29.6107C15.2842 29.6488 15.0168 29.0015 14.9787 28.6588C14.9787 28.1257 16.4298 26.0315 16.6589 25.1938L16.5444 24.4322C16.0861 25.1176 15.7042 25.3842 15.5515 25.4984H15.5133C15.2842 25.6888 14.9787 25.7269 14.6732 25.6507L12.6874 24.0895C12.1909 23.9372 11.8091 24.2799 11.9618 23.7849C12.1146 23.2899 12.6492 23.0234 13.1456 23.1757L14.7495 23.6707C14.9023 23.5184 15.0932 23.2518 15.2842 22.833L15.055 20.1676C13.7185 19.2157 13.6803 18.8349 13.6039 18.378C13.6039 17.6926 13.6421 17.1976 13.7185 16.8549C13.7566 16.4741 13.7948 16.1695 13.8712 16.1314C14.024 16.0553 14.2149 16.2457 14.3295 16.7407C14.4058 16.9691 14.3295 17.388 14.3677 17.6926C14.2913 18.4922 15.666 19.1395 16.3152 18.7207C16.0861 18.4541 15.9334 18.3399 15.9334 17.6926C15.8952 17.0834 16.1243 16.4361 16.8881 16.3218C17.6518 16.2457 18.1483 16.7788 18.1483 17.5403C18.1864 18.2638 17.8428 18.6445 17.3845 18.9491ZM15.5515 25.4984L15.5897 25.4603C15.5515 25.4603 15.5515 25.4984 15.5133 25.4984H15.5515Z" fill="#FEFEFE"/>
</svg>
