<svg width="377" height="345" viewBox="0 0 377 345" fill="none" xmlns="http://www.w3.org/2000/svg">
<g filter="url(#filter0_d_4355_38396)">
<rect x="269.016" y="37" width="96.6562" height="96.6562" rx="7" transform="rotate(15 269.016 37)" fill="#BD3762"/>
</g>
<g opacity="0.75">
<path d="M297.878 69.7071L289.852 73.3202C290.134 72.4154 290.364 71.8497 290.364 71.8497L298.434 67.7781C298.424 67.8146 298.201 68.4999 297.878 69.7071Z" fill="white"/>
<path d="M302.2 61.4947C302.484 60.4339 302.66 59.7754 302.66 59.7754L311.718 55.9684L311.279 58.0463L302.2 61.4947Z" fill="white"/>
<path d="M325.478 80.1214L320.582 74.1045C320.981 72.7608 321.253 71.8927 321.253 71.8927L325.841 78.1799C325.841 78.1799 325.719 78.9312 325.478 80.1214Z" fill="white"/>
<path d="M322.179 92.137C313.895 112.226 303.455 121.191 298.003 124.71C298.379 126.967 299.052 128.99 300.297 130.343C304.826 135.242 303.653 139.18 303.653 139.18L280.058 132.858C280.058 132.858 280.975 128.851 287.384 126.883C288.584 126.499 289.69 125.737 290.746 124.726L290.792 124.699C291.268 124.238 291.718 123.732 292.177 123.188C292.299 123.025 292.421 122.861 292.58 122.708C294.034 120.941 295.906 118.345 296.437 116.214C296.437 116.214 296.437 116.214 296.428 116.25C296.23 116.55 293.786 119.816 291.6 121.975C288.856 115.829 285.323 103.551 287.512 83.24C287.763 80.8373 288.491 77.9742 289.162 75.7623L297.324 72.225C296.655 74.8687 295.841 78.4929 295.134 82.3026C293.763 90.0513 294.733 97.4077 294.733 97.4077C294.733 97.4077 297.054 82.3073 298.466 76.4517C299.353 72.8471 300.731 67.4135 301.675 63.7455L310.807 60.3899L305.393 85.718L313.499 55.4652L320.712 64.6905C320.712 64.6905 317.379 77.1281 315.734 82.0979C314.088 87.0677 309.488 98.3817 309.488 98.3817C309.488 98.3817 314.202 91.764 316.656 85.6778C317.921 82.5665 319.092 79.0769 319.963 76.4091L325.059 82.5579C324.407 85.2846 323.424 89.0988 322.179 92.137Z" fill="white"/>
<path d="M292.553 122.66C292.431 122.824 292.309 122.987 292.15 123.141C292.272 122.977 292.431 122.824 292.553 122.66Z" fill="white"/>
</g>
<path opacity="0.55" d="M273.43 44.6387L276.737 50.3667M276.737 50.3667L276.957 50.7486M276.737 50.3667L276.656 50.6679M276.737 50.3667L277.947 45.8491M276.957 50.7486L291.949 76.7156M276.957 50.7486L276.656 50.6679M276.957 50.7486L297.437 56.2361M291.949 76.7156L292.17 77.0975M291.949 76.7156L297.437 56.2361M291.949 76.7156L291.869 77.0168M292.17 77.0975L302.973 95.8091M292.17 77.0975L306.927 81.0517M292.17 77.0975L291.869 77.0168M302.973 95.8091L313.997 114.902M302.973 95.8091L283.879 106.833M302.973 95.8091L321.684 85.0059M302.973 95.8091L287.914 91.7741M302.973 95.8091L318.031 99.844M302.973 95.8091L298.938 110.868M302.973 95.8091L306.927 81.0517M313.997 114.902L328.989 140.87M313.997 114.902L334.476 120.39M313.997 114.902L298.938 110.868M313.997 114.902L318.031 99.844M313.997 114.902L308.509 135.382M328.989 140.87L332.516 146.979M328.989 140.87L334.476 120.39M328.989 140.87L327.697 145.688M328.989 140.87L333.807 142.161M328.989 140.87L308.509 135.382M251.803 125.352L257.531 122.045M257.531 122.045L257.912 121.825M257.531 122.045L256.32 126.563M257.531 122.045L257.611 121.744M257.912 121.825L283.879 106.833M257.912 121.825L278.392 127.312M257.912 121.825L257.611 121.744M283.879 106.833L298.938 110.868M283.879 106.833L263.099 101.264M283.879 106.833L287.914 91.7741M283.879 106.833L278.392 127.312M321.684 85.0059L322.066 84.7855M321.684 85.0059L321.986 85.0866M321.684 85.0059L306.927 81.0517M322.066 84.7855L348.033 69.7934M322.066 84.7855L327.554 64.3059M322.066 84.7855L321.986 85.0866M348.033 69.7934L354.143 66.2658M348.033 69.7934L349.325 64.9746M348.033 69.7934L342.465 90.5741M348.033 69.7934L327.554 64.3059M348.033 69.7934L352.852 71.0845M342.465 90.5741L338.511 105.331M342.465 90.5741L347.284 91.8653M342.465 90.5741L321.986 85.0866M338.511 105.331L334.476 120.39M338.511 105.331L318.031 99.844M338.511 105.331L343.33 106.623M338.511 105.331C333.252 124.959 313.078 136.606 293.451 131.347M338.511 105.331C343.77 85.7043 332.122 65.53 312.495 60.271M334.476 120.39L339.295 121.681M308.509 135.382L293.451 131.347M308.509 135.382L307.218 140.201M293.451 131.347L278.392 127.312M293.451 131.347L292.159 136.166M293.451 131.347L298.938 110.868M293.451 131.347C273.823 126.088 262.176 105.914 267.435 86.2867C272.694 66.6595 292.868 55.0119 312.495 60.271M278.392 127.312L277.101 132.131M257.611 121.744L253.094 120.534M257.611 121.744L263.099 101.264M263.099 101.264L267.134 86.206M263.099 101.264L258.581 100.054M267.134 86.206L271.088 71.4486M267.134 86.206L262.616 84.9955M267.134 86.206L287.914 91.7741M271.088 71.4486L276.656 50.6679M271.088 71.4486L291.869 77.0168M271.088 71.4486L266.57 70.2381M276.656 50.6679L272.139 49.4574M297.437 56.2361L312.495 60.271M297.437 56.2361L298.728 51.4173M312.495 60.271L327.554 64.3059M312.495 60.271L306.927 81.0517M312.495 60.271L313.786 55.4522M327.554 64.3059L328.845 59.4872M321.986 85.0866L318.031 99.844M291.869 77.0168L287.914 91.7741M262.616 84.9955C256.644 107.284 269.871 130.194 292.159 136.166M262.616 84.9955C268.588 62.707 291.498 49.4801 313.786 55.4522M287.914 91.7741C285.686 100.091 290.621 108.639 298.938 110.868M287.914 91.7741C290.143 83.4576 298.691 78.5221 307.008 80.7505C315.324 82.979 320.26 91.5274 318.031 99.844M318.031 99.844C315.803 108.161 307.255 113.096 298.938 110.868M343.33 106.623C337.358 128.911 314.448 142.138 292.159 136.166M343.33 106.623C349.302 84.3342 336.075 61.4244 313.786 55.4522M266.259 129.226L318.06 143.106C326.044 145.245 334.25 140.507 336.39 132.523L350.27 80.722C352.409 72.7381 347.671 64.5316 339.687 62.3923L287.886 48.5122C279.902 46.3729 271.695 51.1109 269.556 59.0948L255.676 110.896C253.537 118.88 258.275 127.087 266.259 129.226ZM324.055 101.458C320.935 113.101 308.967 120.011 297.324 116.891C285.681 113.771 278.771 101.803 281.891 90.1602C285.011 78.517 296.979 71.6074 308.622 74.7271C320.265 77.8469 327.175 89.8147 324.055 101.458Z" stroke="white" stroke-opacity="0.55" stroke-width="0.25" stroke-linecap="round"/>
<g filter="url(#filter1_d_4355_38396)">
<rect x="76" y="236.254" width="62.7976" height="62.7976" rx="7" transform="rotate(-15 76 236.254)" fill="#BD3C58"/>
</g>
<g opacity="0.75">
<path d="M107.112 232.652L110.991 235.88L116.06 236.099L114.204 240.771L115.557 245.649L110.509 245.332L106.296 248.131L105.072 243.217L101.086 240.111L105.366 237.387L107.112 232.652Z" stroke="white" stroke-width="1.8268" stroke-miterlimit="10"/>
<path d="M115.152 281.704L116 273.963L116.59 274.779L115.939 280.658L123.469 278.641L120.008 273.863L120.111 272.861L124.716 279.141L115.152 281.704Z" fill="white"/>
<path d="M94.6995 239.316L102.344 234.438L102.002 235.411L95.6145 239.442L96.1262 240.139L116.526 267.976L116.829 265.993L120.455 232.786L112.908 232.489L112.125 231.817L121.228 232.207L117.091 269.912L94.6995 239.316Z" fill="white"/>
<path d="M94.6995 239.316L102.344 234.438L102.002 235.411L95.6145 239.442L96.1262 240.139L116.526 267.976L116.829 265.993L120.455 232.786L112.908 232.489L112.125 231.817L121.228 232.207L117.091 269.912L94.6995 239.316Z" fill="white"/>
<path d="M114.685 286.004L114.779 285.143L126.767 281.931L127.235 282.641L114.685 286.004Z" fill="white"/>
</g>
<path opacity="0.55" d="M80.9609 239.117L84.6824 241.266M84.6824 241.266L84.9305 241.409M84.6824 241.266L84.7349 241.461M84.6824 241.266L83.896 238.331M84.9305 241.409L101.801 251.149M84.9305 241.409L84.7349 241.461M84.9305 241.409L98.2361 237.844M101.801 251.149L102.049 251.293M101.801 251.149L98.2361 237.844M101.801 251.149L101.854 251.345M102.049 251.293L114.206 258.311M102.049 251.293L111.637 248.724M102.049 251.293L101.854 251.345M114.206 258.311L126.611 265.473M114.206 258.311L107.044 270.716M114.206 258.311L121.225 246.155M114.206 258.311L104.423 260.933M114.206 258.311L123.99 255.69M114.206 258.311L116.828 268.095M114.206 258.311L111.637 248.724M126.611 265.473L143.482 275.214M126.611 265.473L139.917 261.908M126.611 265.473L116.828 268.095M126.611 265.473L123.99 255.69M126.611 265.473L130.177 278.779M143.482 275.214L147.452 277.506M143.482 275.214L139.917 261.908M143.482 275.214L144.321 278.345M143.482 275.214L146.613 274.375M143.482 275.214L130.177 278.779M95.0121 291.557L97.1607 287.835M97.1607 287.835L97.3039 287.587M97.1607 287.835L97.9471 290.77M97.1607 287.835L97.1083 287.64M97.3039 287.587L107.044 270.716M97.3039 287.587L110.61 284.022M97.3039 287.587L97.1083 287.64M107.044 270.716L116.828 268.095M107.044 270.716L93.5431 274.334M107.044 270.716L104.423 260.933M107.044 270.716L110.61 284.022M121.225 246.155L121.368 245.906M121.225 246.155L121.421 246.102M121.225 246.155L111.637 248.724M121.368 245.906L131.109 229.036M121.368 245.906L117.803 232.601M121.368 245.906L121.421 246.102M131.109 229.036L133.401 225.066M131.109 229.036L130.27 225.905M131.109 229.036L134.726 242.537M131.109 229.036L117.803 232.601M131.109 229.036L134.239 228.197M134.726 242.537L137.295 252.125M134.726 242.537L137.857 241.698M134.726 242.537L121.421 246.102M137.295 252.125L139.917 261.908M137.295 252.125L123.99 255.69M137.295 252.125L140.426 251.286M137.295 252.125C140.712 264.876 133.145 277.984 120.393 281.401M137.295 252.125C133.879 239.373 120.771 231.806 108.02 235.222M139.917 261.908L143.048 261.069M130.177 278.779L120.393 281.401M130.177 278.779L131.015 281.91M120.393 281.401L110.61 284.022M120.393 281.401L121.232 284.531M120.393 281.401L116.828 268.095M120.393 281.401C107.641 284.817 94.5341 277.25 91.1172 264.498C87.7004 251.746 95.2679 238.639 108.02 235.222M110.61 284.022L111.448 287.153M97.1083 287.64L94.1732 288.426M97.1083 287.64L93.5431 274.334M93.5431 274.334L90.9216 264.551M93.5431 274.334L90.608 275.121M90.9216 264.551L88.3525 254.963M90.9216 264.551L87.9865 265.337M90.9216 264.551L104.423 260.933M88.3525 254.963L84.7349 241.461M88.3525 254.963L101.854 251.345M88.3525 254.963L85.4175 255.749M84.7349 241.461L81.7998 242.248M98.2361 237.844L108.02 235.222M98.2361 237.844L97.3972 234.713M108.02 235.222L117.803 232.601M108.02 235.222L111.637 248.724M108.02 235.222L107.181 232.092M117.803 232.601L116.964 229.47M121.421 246.102L123.99 255.69M101.854 251.345L104.423 260.933M87.9865 265.337C91.8666 279.818 106.751 288.411 121.232 284.531M87.9865 265.337C84.1064 250.856 92.6999 235.972 107.181 232.092M104.423 260.933C105.871 266.336 111.425 269.543 116.828 268.095M104.423 260.933C102.975 255.53 106.182 249.976 111.585 248.528C116.988 247.08 122.542 250.287 123.99 255.69M123.99 255.69C125.438 261.093 122.231 266.647 116.828 268.095M140.426 251.286C144.306 265.767 135.713 280.651 121.232 284.531M140.426 251.286C136.546 236.805 121.662 228.211 107.181 232.092M104.404 289.04L138.06 280.022C143.247 278.632 146.325 273.301 144.935 268.113L135.917 234.458C134.527 229.271 129.196 226.193 124.008 227.583L90.3531 236.601C85.166 237.99 82.0877 243.322 83.4776 248.509L92.4955 282.165C93.8854 287.352 99.2171 290.43 104.404 289.04ZM127.903 254.641C129.93 262.206 125.441 269.981 117.876 272.008C110.312 274.035 102.536 269.546 100.509 261.981C98.4825 254.417 102.972 246.641 110.536 244.615C118.101 242.588 125.876 247.077 127.903 254.641Z" stroke="white" stroke-opacity="0.55" stroke-width="0.25" stroke-linecap="round"/>
<g filter="url(#filter2_d_4355_38396)">
<rect x="29" y="59.9688" width="109.359" height="109.359" rx="7" transform="rotate(-5 29 59.9688)" fill="#BD3C58"/>
</g>
<g opacity="0.75">
<mask id="mask0_4355_38396" style="mask-type:alpha" maskUnits="userSpaceOnUse" x="61" y="79" width="62" height="59">
<path fill-rule="evenodd" clip-rule="evenodd" d="M111.212 82.4239L110.959 79.5287L61.4141 83.8633L63.4925 107.62C64.9436 124.206 77.2751 136.797 90.9017 135.605C91.0905 135.588 91.2786 135.569 91.466 135.547L91.646 137.604C91.652 137.673 91.776 137.719 91.9229 137.706L93.1574 137.598C93.3043 137.585 93.4185 137.519 93.4125 137.45L93.2215 135.267C94.3399 135.038 95.4286 134.718 96.4829 134.313L96.7319 137.159C96.7379 137.228 96.8768 137.272 97.0421 137.258L98.4309 137.136C98.5962 137.122 98.7253 137.054 98.7193 136.985L98.4109 133.461C99.5152 132.906 100.575 132.255 101.584 131.517L102.037 136.694C102.043 136.763 102.181 136.807 102.347 136.793L103.736 136.671C103.901 136.657 104.03 136.589 104.024 136.52L103.453 129.999C104.544 129.02 105.562 127.931 106.496 126.748L107.326 136.231C107.332 136.3 107.456 136.346 107.603 136.333L108.837 136.225C108.984 136.212 109.098 136.146 109.092 136.077L108.082 124.525C109.059 123.005 109.914 121.366 110.63 119.63L110.911 122.838C110.912 122.854 111.039 122.856 111.195 122.843L112.502 122.728C112.657 122.715 112.782 122.691 112.781 122.675L112.459 118.992C112.457 118.976 112.33 118.974 112.175 118.988L110.868 119.102C110.859 119.103 110.85 119.104 110.841 119.105C110.911 118.926 110.98 118.747 111.047 118.566C111.261 118.484 111.487 118.431 111.719 118.41L111.9 118.395C112.293 118.361 112.688 118.422 113.054 118.572C113.419 118.721 113.745 118.956 114.005 119.257L113.711 115.907L111.863 116.068C112.062 115.366 112.24 114.653 112.396 113.928L115.566 113.651L115.289 110.486L112.932 110.693C113.095 109.311 113.178 107.9 113.178 106.468C114.195 106.902 115.387 107.11 116.688 106.996C118.321 106.865 119.838 106.092 120.913 104.844C121.989 103.595 122.538 101.97 122.442 100.315C122.139 94.9625 118.252 92.9597 113.919 93.3365C113.333 93.3792 112.755 93.4817 112.193 93.6414L111.948 90.8411L115.797 90.5044L116.121 87.2871L111.672 87.6763L111.489 85.5887L118.165 85.0046L117.888 81.8399L111.212 82.4239ZM111.212 82.4239L78.6641 85.2715L78.9409 88.4363L111.489 85.5887L111.212 82.4239ZM111.672 87.6763L81.4063 90.3242L82.286 93.4363L111.948 90.8411L111.672 87.6763ZM112.296 94.8137C109.146 96.1166 106.81 100.045 107.94 103.301C107.94 103.301 108.588 105.945 112.639 108.835L107.049 109.264C105.922 108.181 105.096 106.369 104.913 104.274C104.69 101.726 105.469 99.4411 106.788 98.2747L106.762 98.277C104.432 98.4808 102.796 101.527 103.107 105.078C103.216 106.659 103.766 108.176 104.694 109.454L100.62 109.765L96.5544 110.166C97.2442 108.746 97.5218 107.156 97.3548 105.582C97.0441 102.03 94.9041 99.3144 92.5745 99.5182L92.5502 99.5203C94.0502 100.44 95.2165 102.555 95.4395 105.103C95.6235 107.207 95.1246 109.134 94.2019 110.388L88.6227 110.937C92.111 107.395 92.2887 104.67 92.2887 104.67C92.9318 100.678 88.7125 96.6018 84.7797 96.9459C81.6353 97.221 79.12 99.7276 79.6147 103.474C79.9624 106.126 82.093 108.251 84.6081 108.031C87.2933 107.796 89.1348 105.65 88.9506 103.519C88.7247 100.938 86.6384 99.8283 85.0265 99.9693C83.7369 100.082 82.408 101.297 82.5677 102.741C82.8618 105.416 86.2414 105.082 85.8726 102.85C85.8726 102.85 84.7933 104.07 83.8516 103.097C83.3304 102.557 83.6909 101.108 84.9508 100.962C86.3341 100.8 87.4734 101.819 87.6005 103.602C87.6783 104.72 86.8489 106.024 84.9166 106.19C82.3551 106.414 81.2121 104.541 81.0352 103.154C80.7149 100.587 83.0512 98.8323 84.8288 98.6768C87.0524 98.4822 90.264 100.017 90.3472 104.045C90.4028 106.766 88.021 109.502 84.3157 109.826C82.6841 109.98 81.0562 109.483 79.7802 108.44C78.5043 107.397 77.6816 105.892 77.4882 104.245C76.8578 98.9218 80.3509 96.2734 84.6833 95.8943C86.0136 95.7585 87.3575 95.9343 88.611 96.4082C88.7442 96.4603 88.8868 96.5167 89.0375 96.5764L89.0375 96.5764C90.9727 97.3425 94.2537 98.6414 96.3271 98.1322C97.0238 97.9803 97.6698 97.6498 98.2032 97.1724C98.7365 96.695 99.1393 96.0867 99.3727 95.4059C99.7202 96.0359 100.222 96.5653 100.83 96.9429C101.438 97.3205 102.131 97.5338 102.843 97.5621C104.972 97.704 107.984 95.8511 109.757 94.761L109.757 94.7608C109.893 94.6771 110.022 94.5978 110.143 94.5244C110.788 94.141 111.477 93.8448 112.193 93.6414L112.296 94.8137ZM113.132 104.657C113.162 105.264 113.177 105.868 113.178 106.468C111.299 105.667 110.017 104.095 109.746 102.35C109.289 99.4075 110.759 97.5042 112.455 96.6362L112.579 98.0443C111.609 98.7205 110.88 99.9193 111.028 101.59C111.138 102.844 111.942 103.981 113.132 104.657ZM112.989 102.735C113.504 103.267 114.332 103.619 115.465 103.52C118.026 103.296 118.834 101.245 118.76 99.8559C118.632 97.2723 116.013 95.9508 114.246 96.1053C113.67 96.1557 113.049 96.3327 112.455 96.6362L112.296 94.8137C112.842 94.5878 113.413 94.4408 113.994 94.39C117.14 94.1147 119.978 95.847 120.224 100.056C120.379 102.728 118.605 105.059 116.088 105.279C114.984 105.376 113.963 105.129 113.132 104.657C113.109 104.202 113.077 103.744 113.037 103.286L112.989 102.735ZM112.989 102.735C112.626 102.36 112.419 101.896 112.372 101.437C112.292 100.669 112.422 100.011 112.706 99.503L112.989 102.735ZM112.706 99.503L112.579 98.0443C113.107 97.6756 113.707 97.4623 114.276 97.4125C115.566 97.2997 117.087 98.2648 117.181 99.715C117.353 102.392 113.97 102.658 113.943 100.397C113.943 100.397 115.218 101.413 115.976 100.289C116.398 99.6665 115.791 98.3017 114.523 98.3767C113.731 98.4229 113.083 98.8306 112.706 99.503ZM112.932 110.693L86.2891 113.023L86.5659 116.188L112.396 113.928C112.623 112.871 112.802 111.791 112.932 110.693ZM111.863 116.068L88.7813 118.088L89.0744 121.438C89.2774 121.097 89.5574 120.809 89.8916 120.598C90.2257 120.386 90.6046 120.258 90.9973 120.223L91.1784 120.207C91.7389 120.16 92.2994 120.303 92.7704 120.616C93.2413 120.928 93.5956 121.39 93.7766 121.929L93.9157 121.917C94.0015 121.355 94.2704 120.839 94.6798 120.45C95.0892 120.061 95.6156 119.822 96.1755 119.77L96.3588 119.754C96.9192 119.707 97.4795 119.851 97.9504 120.163C98.4213 120.475 98.7757 120.937 98.957 121.476L99.0983 121.464C99.1829 120.901 99.4515 120.384 99.8611 119.995C100.271 119.606 100.798 119.367 101.358 119.317L101.539 119.301C102.1 119.253 102.66 119.397 103.131 119.709C103.602 120.021 103.956 120.484 104.137 121.023L104.279 121.01C104.364 120.448 104.633 119.932 105.042 119.543C105.452 119.154 105.978 118.915 106.538 118.864L106.719 118.848C107.28 118.801 107.84 118.945 108.311 119.257C108.782 119.569 109.136 120.031 109.318 120.569L109.459 120.557C109.543 119.995 109.812 119.477 110.221 119.088C110.462 118.86 110.743 118.683 111.047 118.566C111.349 117.752 111.622 116.919 111.863 116.068ZM110.841 119.105C110.698 119.119 110.587 119.141 110.588 119.156L110.63 119.63C110.702 119.456 110.772 119.281 110.841 119.105ZM108.082 124.525L107.707 120.246C107.701 120.177 107.577 120.131 107.43 120.144L106.196 120.252C106.049 120.265 105.935 120.331 105.941 120.4L106.496 126.748C107.055 126.04 107.584 125.298 108.082 124.525ZM103.453 129.999L102.639 120.689C102.633 120.62 102.494 120.576 102.329 120.591L100.94 120.712C100.775 120.727 100.646 120.794 100.652 120.863L101.584 131.517C102.228 131.046 102.852 130.539 103.453 129.999ZM98.4109 133.461L97.3342 121.154C97.3282 121.085 97.1893 121.041 97.024 121.055L95.6352 121.177C95.4699 121.191 95.3408 121.259 95.3469 121.328L96.4829 134.313C97.1393 134.061 97.7823 133.777 98.4109 133.461ZM93.2215 135.267L92.0275 121.619C92.0214 121.55 91.8974 121.504 91.7505 121.517L90.516 121.625C90.3691 121.638 90.2549 121.704 90.2609 121.773L91.466 135.547C92.0586 135.479 92.644 135.385 93.2215 135.267ZM97.2621 94.7755L97.2309 94.4181L91.5625 94.9141C91.7062 94.9478 91.987 95.0444 92.3429 95.1669L92.3429 95.1669L92.343 95.1669C93.4214 95.538 95.1896 96.1465 95.9265 95.9636C96.2317 95.8991 96.5152 95.7557 96.7492 95.5476C96.9832 95.3394 97.1599 95.0734 97.2621 94.7755ZM101.297 94.0625L101.328 94.4199C101.481 94.6955 101.701 94.9267 101.967 95.0911C102.234 95.2555 102.538 95.3474 102.85 95.358C103.606 95.4101 105.238 94.5066 106.237 93.9536C106.569 93.7699 106.831 93.6249 106.967 93.5664L101.297 94.0625Z" fill="white"/>
</mask>
<g mask="url(#mask0_4355_38396)">
<path d="M110.959 79.5287L113.037 103.286C114.488 119.865 104.528 134.412 90.9017 135.605C77.2751 136.797 64.9436 124.206 63.4925 107.62L61.4141 83.8633L110.959 79.5287Z" fill="white"/>
</g>
<path d="M112.797 77.1379L115.046 102.838C116.615 120.777 105.838 136.501 91.0938 137.791C76.3498 139.081 63.006 125.474 61.436 107.528L59.1875 81.8281L112.797 77.1379Z" stroke="white" stroke-width="1.31431" stroke-miterlimit="10"/>
</g>
<path opacity="0.55" d="M36.6406 66.3828L42.3732 71.1931M42.3732 71.1931L42.7554 71.5137M42.3732 71.1931L42.404 71.5445M42.3732 71.1931L41.9121 65.9216M42.7554 71.5137L68.7433 93.3202M42.7554 71.5137L42.404 71.5445M42.7554 71.5137L66.6526 69.423M68.7433 93.3202L69.1255 93.6409M68.7433 93.3202L66.6526 69.423M68.7433 93.3202L68.7741 93.6716M69.1255 93.6409L87.8521 109.354M69.1255 93.6409L86.3455 92.1343M69.1255 93.6409L68.7741 93.6716M87.8521 109.354L106.961 125.388M87.8521 109.354L71.8179 128.463M87.8521 109.354L103.566 90.6277M87.8521 109.354L70.2806 110.892M87.8521 109.354L105.423 107.817M87.8521 109.354L89.3894 126.926M87.8521 109.354L86.3455 92.1343M106.961 125.388L132.949 147.195M106.961 125.388L130.858 123.298M106.961 125.388L89.3894 126.926M106.961 125.388L105.423 107.817M106.961 125.388L109.052 149.286M132.949 147.195L139.063 152.326M132.949 147.195L130.858 123.298M132.949 147.195L133.441 152.818M132.949 147.195L138.572 146.703M132.949 147.195L109.052 149.286M44.8806 160.566L49.6908 154.833M49.6908 154.833L50.0115 154.451M49.6908 154.833L50.152 160.105M49.6908 154.833L49.6601 154.482M50.0115 154.451L71.8179 128.463M50.0115 154.451L73.9086 152.36M50.0115 154.451L49.6601 154.482M71.8179 128.463L89.3894 126.926M71.8179 128.463L47.5693 130.585M71.8179 128.463L70.2806 110.892M71.8179 128.463L73.9086 152.36M103.566 90.6277L103.886 90.2456M103.566 90.6277L103.917 90.597M103.566 90.6277L86.3455 92.1343M103.886 90.2456L125.693 64.2577M103.886 90.2456L101.795 66.3484M103.886 90.2456L103.917 90.597M125.693 64.2577L130.824 58.1429M125.693 64.2577L125.201 58.6348M125.693 64.2577L127.814 88.5063M125.693 64.2577L101.795 66.3484M125.693 64.2577L131.315 63.7657M127.814 88.5063L129.321 105.726M127.814 88.5063L133.437 88.0143M127.814 88.5063L103.917 90.597M129.321 105.726L130.858 123.298M129.321 105.726L105.423 107.817M129.321 105.726L134.944 105.234M129.321 105.726C131.324 128.629 114.383 148.819 91.4801 150.823M129.321 105.726C127.317 82.8238 107.127 65.882 84.224 67.8857M130.858 123.298L136.481 122.806M109.052 149.286L91.4801 150.823M109.052 149.286L109.543 154.908M91.4801 150.823L73.9086 152.36M91.4801 150.823L91.972 156.446M91.4801 150.823L89.3894 126.926M91.4801 150.823C68.5776 152.827 48.3872 135.885 46.3835 112.982C44.3797 90.0799 61.3215 69.8894 84.224 67.8857M73.9086 152.36L74.4006 157.983M49.6601 154.482L44.3886 154.943M49.6601 154.482L47.5693 130.585M47.5693 130.585L46.032 113.013M47.5693 130.585L42.2979 131.046M46.032 113.013L44.5255 95.7931M46.032 113.013L40.7606 113.474M46.032 113.013L70.2806 110.892M44.5255 95.7931L42.404 71.5445M44.5255 95.7931L68.7741 93.6716M44.5255 95.7931L39.254 96.2543M42.404 71.5445L37.1326 72.0057M66.6526 69.423L84.224 67.8857M66.6526 69.423L66.1606 63.8001M84.224 67.8857L101.795 66.3484M84.224 67.8857L86.3455 92.1343M84.224 67.8857L83.7321 62.2628M101.795 66.3484L101.304 60.7255M103.917 90.597L105.423 107.817M68.7741 93.6716L70.2806 110.892M40.7606 113.474C43.036 139.482 65.9641 158.721 91.972 156.446M40.7606 113.474C38.4852 87.4664 57.7242 64.5382 83.7321 62.2628M70.2806 110.892C71.1296 120.596 79.6849 127.775 89.3894 126.926M70.2806 110.892C69.4316 101.187 76.6103 92.6319 86.3148 91.7829C96.0192 90.9338 104.574 98.1126 105.423 107.817M105.423 107.817C106.273 117.521 99.0938 126.077 89.3894 126.926M134.944 105.234C137.219 131.242 117.98 154.17 91.972 156.446M134.944 105.234C132.668 79.2264 109.74 59.9874 83.7321 62.2628M61.7491 159.09L122.195 153.802C131.511 152.987 138.403 144.773 137.588 135.457L132.299 75.0115C131.484 65.6952 123.271 58.8036 113.955 59.6187L53.5092 64.907C44.1929 65.7221 37.3014 73.9351 38.1164 83.2514L43.4048 143.697C44.2198 153.013 52.4329 159.905 61.7491 159.09ZM112.452 107.202C113.641 120.788 103.59 132.766 90.0043 133.954C76.4181 135.143 64.4407 125.093 63.252 111.507C62.0634 97.9203 72.1136 85.9429 85.6998 84.7543C99.286 83.5656 111.263 93.6159 112.452 107.202Z" stroke="white" stroke-opacity="0.55" stroke-width="0.25" stroke-linecap="round"/>
<g filter="url(#filter3_d_4355_38396)">
<rect x="127.57" y="103" width="155" height="155" rx="7" fill="#372E3B"/>
</g>
<g opacity="0.75">
<path d="M204.075 181.137V246.502L170.07 215.002L197.57 187.502L204.075 181.137Z" fill="white"/>
<path d="M220.57 230.784V130.5L270.57 180L220.57 230.784Z" fill="white"/>
<path d="M204.075 113.635L204.07 161L160.57 205L137.57 180L197.57 120L204.075 113.635Z" fill="white"/>
</g>
<path opacity="0.55" d="M137.57 113L145.07 120.5M145.07 120.5L145.57 121M145.07 120.5V121M145.07 120.5V113M145.57 121L179.57 155M145.57 121H145.07M145.57 121H179.57M179.57 155L180.07 155.5M179.57 155V121M179.57 155V155.5M180.07 155.5L204.57 180M180.07 155.5H204.57M180.07 155.5H179.57M204.57 180L229.57 205M204.57 180L179.57 205M204.57 180L229.07 155.5M204.57 180H179.57M204.57 180H229.57M204.57 180V205M204.57 180V155.5M229.57 205L263.57 239M229.57 205H263.57M229.57 205H204.57M229.57 205V180M229.57 205V239M263.57 239L271.57 247M263.57 239V205M263.57 239V247M263.57 239H271.57M263.57 239H229.57M137.57 247L145.07 239.5M145.07 239.5L145.57 239M145.07 239.5V247M145.07 239.5V239M145.57 239L179.57 205M145.57 239H179.57M145.57 239H145.07M179.57 205H204.57M179.57 205H145.07M179.57 205V180M179.57 205V239M229.07 155.5L229.57 155M229.07 155.5H229.57M229.07 155.5H204.57M229.57 155L263.57 121M229.57 155V121M229.57 155V155.5M263.57 121L271.57 113M263.57 121V113M263.57 121V155.5M263.57 121H229.57M263.57 121H271.57M263.57 155.5V180M263.57 155.5H271.57M263.57 155.5H229.57M263.57 180V205M263.57 180H229.57M263.57 180H271.57M263.57 180C263.57 212.585 237.155 239 204.57 239M263.57 180C263.57 147.415 237.155 121 204.57 121M263.57 205H271.57M229.57 239H204.57M229.57 239V247M204.57 239H179.57M204.57 239V247M204.57 239V205M204.57 239C171.986 239 145.57 212.585 145.57 180C145.57 147.415 171.986 121 204.57 121M179.57 239V247M145.07 239H137.57M145.07 239V205M145.07 205V180M145.07 205H137.57M145.07 180V155.5M145.07 180H137.57M145.07 180H179.57M145.07 155.5V121M145.07 155.5H179.57M145.07 155.5H137.57M145.07 121H137.57M179.57 121H204.57M179.57 121V113M204.57 121H229.57M204.57 121V155.5M204.57 121V113M229.57 121V113M229.57 155.5V180M179.57 155.5V180M137.57 180C137.57 217.003 167.567 247 204.57 247M137.57 180C137.57 142.997 167.567 113 204.57 113M179.57 180C179.57 193.807 190.763 205 204.57 205M179.57 180C179.57 166.193 190.763 155 204.57 155C218.377 155 229.57 166.193 229.57 180M229.57 180C229.57 193.807 218.377 205 204.57 205M271.57 180C271.57 217.003 241.573 247 204.57 247M271.57 180C271.57 142.997 241.573 113 204.57 113M161.57 247H247.57C260.825 247 271.57 236.255 271.57 223V137C271.57 123.745 260.825 113 247.57 113H161.57C148.315 113 137.57 123.745 137.57 137V223C137.57 236.255 148.315 247 161.57 247ZM239.57 180C239.57 199.33 223.9 215 204.57 215C185.24 215 169.57 199.33 169.57 180C169.57 160.67 185.24 145 204.57 145C223.9 145 239.57 160.67 239.57 180Z" stroke="white" stroke-opacity="0.55" stroke-width="0.25" stroke-linecap="round"/>
<defs>
<filter id="filter0_d_4355_38396" x="215.571" y="8.57129" width="185.236" height="185.236" filterUnits="userSpaceOnUse" color-interpolation-filters="sRGB">
<feFlood flood-opacity="0" result="BackgroundImageFix"/>
<feColorMatrix in="SourceAlpha" type="matrix" values="0 0 0 0 0 0 0 0 0 0 0 0 0 0 0 0 0 0 127 0" result="hardAlpha"/>
<feOffset dx="5" dy="5"/>
<feGaussianBlur stdDeviation="17.5"/>
<feComposite in2="hardAlpha" operator="out"/>
<feColorMatrix type="matrix" values="0 0 0 0 0 0 0 0 0 0 0 0 0 0 0 0 0 0 0.15 0"/>
<feBlend mode="normal" in2="BackgroundImageFix" result="effect1_dropShadow_4355_38396"/>
<feBlend mode="normal" in="SourceGraphic" in2="effect1_dropShadow_4355_38396" result="shape"/>
</filter>
<filter id="filter1_d_4355_38396" x="48.8772" y="192.878" width="145.503" height="145.503" filterUnits="userSpaceOnUse" color-interpolation-filters="sRGB">
<feFlood flood-opacity="0" result="BackgroundImageFix"/>
<feColorMatrix in="SourceAlpha" type="matrix" values="0 0 0 0 0 0 0 0 0 0 0 0 0 0 0 0 0 0 127 0" result="hardAlpha"/>
<feOffset dx="7.17352" dy="7.17352"/>
<feGaussianBlur stdDeviation="17.9338"/>
<feComposite in2="hardAlpha" operator="out"/>
<feColorMatrix type="matrix" values="0 0 0 0 0 0 0 0 0 0 0 0 0 0 0 0 0 0 0.25 0"/>
<feBlend mode="normal" in2="BackgroundImageFix" result="effect1_dropShadow_4355_38396"/>
<feBlend mode="normal" in="SourceGraphic" in2="effect1_dropShadow_4355_38396" result="shape"/>
</filter>
<filter id="filter2_d_4355_38396" x="0.888909" y="22.3264" width="189.043" height="189.044" filterUnits="userSpaceOnUse" color-interpolation-filters="sRGB">
<feFlood flood-opacity="0" result="BackgroundImageFix"/>
<feColorMatrix in="SourceAlpha" type="matrix" values="0 0 0 0 0 0 0 0 0 0 0 0 0 0 0 0 0 0 127 0" result="hardAlpha"/>
<feOffset dx="7.17352" dy="7.17352"/>
<feGaussianBlur stdDeviation="17.9338"/>
<feComposite in2="hardAlpha" operator="out"/>
<feColorMatrix type="matrix" values="0 0 0 0 0 0 0 0 0 0 0 0 0 0 0 0 0 0 0.25 0"/>
<feBlend mode="normal" in2="BackgroundImageFix" result="effect1_dropShadow_4355_38396"/>
<feBlend mode="normal" in="SourceGraphic" in2="effect1_dropShadow_4355_38396" result="shape"/>
</filter>
<filter id="filter3_d_4355_38396" x="97.5703" y="78" width="225" height="225" filterUnits="userSpaceOnUse" color-interpolation-filters="sRGB">
<feFlood flood-opacity="0" result="BackgroundImageFix"/>
<feColorMatrix in="SourceAlpha" type="matrix" values="0 0 0 0 0 0 0 0 0 0 0 0 0 0 0 0 0 0 127 0" result="hardAlpha"/>
<feOffset dx="5" dy="10"/>
<feGaussianBlur stdDeviation="17.5"/>
<feComposite in2="hardAlpha" operator="out"/>
<feColorMatrix type="matrix" values="0 0 0 0 0 0 0 0 0 0 0 0 0 0 0 0 0 0 0.25 0"/>
<feBlend mode="normal" in2="BackgroundImageFix" result="effect1_dropShadow_4355_38396"/>
<feBlend mode="normal" in="SourceGraphic" in2="effect1_dropShadow_4355_38396" result="shape"/>
</filter>
</defs>
</svg>
